v 0.0664086 0.313025 -0.276499
v 0.169773 0.196342 -0.276499
v 0.0664086 0.381616 -0.208042
v 0.0664086 0.426161 -0.276499
v 0.270851 0.204644 -0.276499
v 0.275149 0.196342 -0.276064
v 0.235493 0.196342 -0.208042
v 0.0664086 0.470787 -0.208042
v 0.0664086 0.430702 -0.271633
v 0.07431 0.421648 -0.276499
v 0.273857 0.200372 -0.275501
v 0.262726 0.221436 -0.276499
v 0.272391 0.21034 -0.271995
v 0.281709 0.196342 -0.26855
v 0.315227 0.196342 -0.219979
v 0.320222 0.196664 -0.209778
v 0.315501 0.208916 -0.208846
v 0.306779 0.227964 -0.208042
v 0.0761238 0.466032 -0.208042
v 0.0664335 0.469256 -0.211608
v 0.0664086 0.465306 -0.219885
v 0.0732664 0.435457 -0.26154
v 0.0785588 0.427128 -0.267505
v 0.083901 0.418665 -0.273463
v 0.0664086 0.437203 -0.263839
v 0.0984117 0.407005 -0.276499
v 0.268341 0.224821 -0.268349
v 0.255843 0.23409 -0.276499
v 0.259321 0.22963 -0.275501
v 0.276441 0.219447 -0.262203
v 0.278553 0.21034 -0.264743
v 0.288691 0.197873 -0.259315
v 0.293834 0.196342 -0.253457
v 0.317588 0.197605 -0.214563
v 0.312792 0.196342 -0.224449
v 0.307202 0.209426 -0.224308
v 0.305463 0.219447 -0.219134
v 0.308469 0.223585 -0.208994
v 0.303052 0.229093 -0.214543
v 0.301164 0.237905 -0.208994
v 0.292418 0.254428 -0.208779
v 0.286057 0.265954 -0.208042
v 0.0827083 0.462673 -0.208042
v 0.0807454 0.462109 -0.211514
v 0.0721483 0.463882 -0.21715
v 0.0664583 0.462136 -0.22585
v 0.0664086 0.453861 -0.240066
v 0.0829071 0.432663 -0.2579
v 0.0908333 0.422991 -0.263798
v 0.0664086 0.444055 -0.254509
v 0.0664086 0.449697 -0.246607
v 0.0787576 0.438305 -0.253363
v 0.0891189 0.436263 -0.248229
v 0.102213 0.404802 -0.276265
v 0.117718 0.392927 -0.276499
v 0.264067 0.239356 -0.264495
v 0.247693 0.248517 -0.276499
v 0.257458 0.239356 -0.271747
v 0.289809 0.21711 -0.246225
v 0.286529 0.211495 -0.253933
v 0.274031 0.229093 -0.259147
v 0.280168 0.224498 -0.254114
v 0.292045 0.207438 -0.249181
v 0.301711 0.196342 -0.242519
v 0.306481 0.196342 -0.235367
v 0.304966 0.203972 -0.232713
v 0.299946 0.224498 -0.224308
v 0.29284 0.238523 -0.224208
v 0.30263 0.213644 -0.228806
v 0.290803 0.24798 -0.218967
v 0.28807 0.257652 -0.213826
v 0.275373 0.275331 -0.217238
v 0.272987 0.283471 -0.211567
v 0.277932 0.278555 -0.208042
v 0.0922744 0.457273 -0.208042
v 0.0950573 0.454398 -0.210823
v 0.0907339 0.451765 -0.221447
v 0.0806212 0.454882 -0.225696
v 0.0859881 0.448998 -0.231118
v 0.0763226 0.451604 -0.23532
v 0.0706575 0.448541 -0.244972
v 0.0948088 0.428176 -0.254228
v 0.100499 0.419874 -0.260226
v 0.0806212 0.446419 -0.239818
v 0.0940883 0.439192 -0.239241
v 0.0987595 0.433388 -0.244007
v 0.108798 0.409665 -0.265213
v 0.142987 0.390079 -0.259201
v 0.127359 0.389004 -0.272967
v 0.136477 0.378096 -0.276499
v 0.261781 0.247846 -0.261868
v 0.239046 0.262569 -0.276499
v 0.244711 0.258082 -0.273637
v 0.253259 0.252977 -0.267753
v 0.277733 0.236239 -0.249482
v 0.287896 0.224848 -0.243303
v 0.292641 0.224848 -0.236064
v 0.271944 0.240377 -0.254114
v 0.290554 0.23315 -0.232894
v 0.288119 0.242822 -0.228638
v 0.284839 0.253219 -0.224208
v 0.275621 0.261199 -0.23217
v 0.277733 0.264584 -0.224818
v 0.265906 0.283122 -0.225019
v 0.262651 0.292498 -0.220321
v 0.273559 0.285271 -0.208042
v 0.100549 0.45233 -0.208042
v 0.100399 0.448864 -0.215991
v 0.0950573 0.446741 -0.225696
v 0.103804 0.436505 -0.234349
v 0.106015 0.423716 -0.250561
v 0.11004 0.417483 -0.254757
v 0.109742 0.428552 -0.240273
v 0.11568 0.420304 -0.246191
v 0.148006 0.393894 -0.249529
v 0.158939 0.376511 -0.260407
v 0.149274 0.380407 -0.264435
v 0.142341 0.374657 -0.275306
v 0.146242 0.370036 -0.276499
v 0.275174 0.245911 -0.246024
v 0.249209 0.26547 -0.263966
v 0.246252 0.275116 -0.260702
v 0.258899 0.257518 -0.258376
v 0.265111 0.253139 -0.253651
v 0.233008 0.271945 -0.276499
v 0.240661 0.270414 -0.269683
v 0.282926 0.239517 -0.239469
v 0.277758 0.253837 -0.235367
v 0.262626 0.26367 -0.248712
v 0.25962 0.273342 -0.244496
v 0.26285 0.278447 -0.234844
v 0.259744 0.288119 -0.229992
v 0.272838 0.253837 -0.242606
v 0.265931 0.296502 -0.208451
v 0.254675 0.298544 -0.226185
v 0.259297 0.302171 -0.214121
v 0.263819 0.299914 -0.208042
v 0.105766 0.449079 -0.208042
v 0.109966 0.446419 -0.208042
v 0.124104 0.437284 -0.208042
v 0.117544 0.436048 -0.219409
v 0.108698 0.438977 -0.224476
v 0.113469 0.433361 -0.229081
v 0.120501 0.423689 -0.236533
v 0.130141 0.420277 -0.231587
v 0.124501 0.41794 -0.240548
v 0.141596 0.403566 -0.242901
v 0.151907 0.398569 -0.238873
v 0.157672 0.389971 -0.244489
v 0.153846 0.371138 -0.269522
v 0.163039 0.380326 -0.250736
v 0.177773 0.366141 -0.250937
v 0.173649 0.362164 -0.260601
v 0.163958 0.366839 -0.264938
v 0.157821 0.360928 -0.275554
v 0.149795 0.36692 -0.276499
v 0.230474 0.276137 -0.276225
v 0.229256 0.282853 -0.272639
v 0.219218 0.291692 -0.276499
v 0.233058 0.291504 -0.26215
v 0.243444 0.282853 -0.257324
v 0.246699 0.290322 -0.246761
v 0.249209 0.282853 -0.250072
v 0.256588 0.283122 -0.239529
v 0.249308 0.293869 -0.239315
v 0.246525 0.304562 -0.232043
v 0.249631 0.308511 -0.222371
v 0.245805 0.318183 -0.216299
v 0.25055 0.317968 -0.208042
v 0.256961 0.309371 -0.208042
v 0.141049 0.425355 -0.208042
v 0.136428 0.428337 -0.208739
v 0.127234 0.43277 -0.212982
v 0.133918 0.423125 -0.221922
v 0.123855 0.42823 -0.225501
v 0.159784 0.406253 -0.217847
v 0.155808 0.403244 -0.227519
v 0.146143 0.406844 -0.233249
v 0.161821 0.393572 -0.234838
v 0.172704 0.375786 -0.244871
v 0.167263 0.384732 -0.239858
v 0.187464 0.361493 -0.245119
v 0.182991 0.356979 -0.255789
v 0.188184 0.347656 -0.260648
v 0.178519 0.352492 -0.265065
v 0.168555 0.357006 -0.269837
v 0.160654 0.357221 -0.276499
v 0.215094 0.301472 -0.273061
v 0.224138 0.296475 -0.267605
v 0.204086 0.31101 -0.276499
v 0.21979 0.307383 -0.263396
v 0.229455 0.30115 -0.258034
v 0.233431 0.306442 -0.248363
v 0.243941 0.301123 -0.239315
v 0.236437 0.311493 -0.238819
v 0.233157 0.320521 -0.233658
v 0.235269 0.32576 -0.223524
v 0.232188 0.333766 -0.217834
v 0.2425 0.327076 -0.209523
v 0.246476 0.323234 -0.208042
v 0.149323 0.419149 -0.208042
v 0.143584 0.419444 -0.215562
v 0.16202 0.408859 -0.208605
v 0.169599 0.402303 -0.209175
v 0.17904 0.394243 -0.209175
v 0.175065 0.39247 -0.218953
v 0.165623 0.397844 -0.223236
v 0.171487 0.389139 -0.228625
v 0.176531 0.379467 -0.235213
v 0.200782 0.360284 -0.228973
v 0.196483 0.356039 -0.24022
v 0.20185 0.346743 -0.244965
v 0.192209 0.351821 -0.250984
v 0.191141 0.365093 -0.235461
v 0.215839 0.331644 -0.244429
v 0.219964 0.321971 -0.249482
v 0.201999 0.332423 -0.259904
v 0.206174 0.322751 -0.264408
v 0.200782 0.316598 -0.275286
v 0.19621 0.320333 -0.276499
v 0.1897 0.32764 -0.276499
v 0.186892 0.331885 -0.275527
v 0.182991 0.342551 -0.26981
v 0.172605 0.346582 -0.275621
v 0.169002 0.349134 -0.276499
v 0.164803 0.353218 -0.276499
v 0.215839 0.317055 -0.259147
v 0.224709 0.311735 -0.253758
v 0.229629 0.316088 -0.243309
v 0.22461 0.326082 -0.239047
v 0.219591 0.335862 -0.234771
v 0.229256 0.330193 -0.227499
v 0.223765 0.33965 -0.223136
v 0.218274 0.348919 -0.218772
v 0.220808 0.351794 -0.210314
v 0.228387 0.343895 -0.209175
v 0.23358 0.338683 -0.208042
v 0.235419 0.335781 -0.209175
v 0.195141 0.379762 -0.208042
v 0.185376 0.388521 -0.209175
v 0.191961 0.38218 -0.209175
v 0.189725 0.378204 -0.219181
v 0.186221 0.374765 -0.228846
v 0.195241 0.369284 -0.224081
v 0.204186 0.363803 -0.219309
v 0.215118 0.345534 -0.228437
v 0.205428 0.350612 -0.235307
v 0.183066 0.334706 -0.276499
v 0.175164 0.342954 -0.276499
v 0.214646 0.359424 -0.209175
v 0.21979 0.354453 -0.208042
v 0.205826 0.36923 -0.208042
v 0.200136 0.374201 -0.209175
v 0.207068 0.366651 -0.210314
v 0.209652 0.365388 -0.208042
f 1 2 3
f 1 3 8
f 1 8 21
f 1 21 47
f 1 47 51
f 1 51 50
f 1 50 25
f 1 25 9
f 1 9 4
f 1 4 10
f 1 10 26
f 1 26 55
f 1 55 90
f 1 90 119
f 1 119 156
f 1 156 187
f 1 187 226
f 1 226 225
f 1 225 249
f 1 249 248
f 1 248 221
f 1 221 220
f 1 220 190
f 1 190 159
f 1 159 125
f 1 125 92
f 1 92 57
f 1 57 28
f 1 28 12
f 1 12 5
f 1 5 2
f 2 5 6
f 2 6 14
f 2 14 33
f 2 33 64
f 2 64 65
f 2 65 35
f 2 35 15
f 2 15 7
f 2 7 3
f 3 7 18
f 3 18 42
f 3 42 74
f 3 74 106
f 3 106 137
f 3 137 170
f 3 170 169
f 3 169 200
f 3 200 237
f 3 237 251
f 3 251 255
f 3 255 252
f 3 252 239
f 3 239 201
f 3 201 171
f 3 171 140
f 3 140 139
f 3 139 138
f 3 138 107
f 3 107 75
f 3 75 43
f 3 43 19
f 3 19 8
f 4 9 10
f 5 11 6
f 5 12 13
f 5 13 11
f 6 11 14
f 7 15 16
f 7 16 17
f 7 17 18
f 8 19 20
f 8 20 21
f 9 22 23
f 9 23 24
f 9 24 10
f 9 25 22
f 10 24 26
f 11 13 14
f 12 27 13
f 12 28 29
f 12 29 27
f 13 27 30
f 13 30 31
f 13 31 14
f 14 31 32
f 14 32 33
f 15 34 16
f 15 35 36
f 15 36 34
f 16 34 17
f 17 34 37
f 17 37 38
f 17 38 18
f 18 38 39
f 18 39 40
f 18 40 41
f 18 41 42
f 19 43 44
f 19 44 45
f 19 45 20
f 20 45 21
f 21 45 46
f 21 46 47
f 22 48 49
f 22 49 23
f 22 25 50
f 22 50 51
f 22 51 52
f 22 52 53
f 22 53 48
f 23 49 24
f 24 49 26
f 26 49 54
f 26 54 55
f 27 29 56
f 27 56 30
f 28 57 58
f 28 58 29
f 29 58 56
f 30 59 60
f 30 60 32
f 30 32 31
f 30 56 61
f 30 61 62
f 30 62 59
f 32 63 33
f 32 60 63
f 33 63 64
f 34 36 37
f 35 65 66
f 35 66 36
f 36 66 37
f 37 67 68
f 37 68 39
f 37 39 38
f 37 66 69
f 37 69 67
f 39 68 70
f 39 70 40
f 40 70 41
f 41 70 71
f 41 71 42
f 42 71 72
f 42 72 73
f 42 73 74
f 43 75 76
f 43 76 77
f 43 77 44
f 44 77 45
f 45 77 78
f 45 78 46
f 46 78 79
f 46 79 80
f 46 80 47
f 47 80 81
f 47 81 51
f 48 82 83
f 48 83 49
f 48 53 82
f 49 83 54
f 51 81 52
f 52 81 53
f 53 81 84
f 53 84 79
f 53 79 85
f 53 85 86
f 53 86 82
f 54 83 87
f 54 87 88
f 54 88 89
f 54 89 55
f 55 89 90
f 56 58 91
f 56 91 61
f 57 92 93
f 57 93 94
f 57 94 91
f 57 91 58
f 59 62 95
f 59 95 96
f 59 96 97
f 59 97 66
f 59 66 64
f 59 64 63
f 59 63 60
f 61 91 98
f 61 98 95
f 61 95 62
f 64 66 65
f 66 97 99
f 66 99 69
f 67 69 99
f 67 99 100
f 67 100 68
f 68 100 70
f 70 101 71
f 70 100 101
f 71 101 102
f 71 102 103
f 71 103 72
f 72 104 105
f 72 105 73
f 72 103 102
f 72 102 104
f 73 106 74
f 73 105 106
f 75 107 76
f 76 107 108
f 76 108 77
f 77 108 109
f 77 109 79
f 77 79 78
f 79 109 110
f 79 110 85
f 79 84 80
f 80 84 81
f 82 86 111
f 82 111 83
f 83 112 88
f 83 88 87
f 83 111 112
f 85 110 86
f 86 113 114
f 86 114 111
f 86 110 113
f 88 115 116
f 88 116 117
f 88 117 89
f 88 112 114
f 88 114 115
f 89 117 90
f 90 117 118
f 90 118 119
f 91 120 98
f 91 94 121
f 91 121 122
f 91 122 123
f 91 123 124
f 91 124 120
f 92 125 126
f 92 126 93
f 93 126 122
f 93 122 121
f 93 121 94
f 95 98 120
f 95 120 96
f 96 120 127
f 96 127 99
f 96 99 97
f 99 127 100
f 100 127 128
f 100 128 102
f 100 102 101
f 102 129 130
f 102 130 131
f 102 131 132
f 102 132 104
f 102 128 120
f 102 120 133
f 102 133 129
f 104 132 105
f 105 134 106
f 105 132 135
f 105 135 136
f 105 136 134
f 106 134 137
f 107 138 108
f 108 138 139
f 108 139 140
f 108 140 141
f 108 141 142
f 108 142 110
f 108 110 109
f 110 142 143
f 110 143 144
f 110 144 113
f 111 114 112
f 113 144 114
f 114 144 145
f 114 145 146
f 114 146 147
f 114 147 115
f 115 147 148
f 115 148 149
f 115 149 116
f 116 150 117
f 116 149 151
f 116 151 152
f 116 152 153
f 116 153 154
f 116 154 155
f 116 155 150
f 117 150 118
f 118 150 119
f 119 150 156
f 120 124 129
f 120 129 133
f 120 128 127
f 122 130 129
f 122 129 123
f 122 126 157
f 122 157 158
f 122 158 159
f 122 159 160
f 122 160 161
f 122 161 162
f 122 162 163
f 122 163 130
f 123 129 124
f 125 159 157
f 125 157 126
f 130 163 162
f 130 162 164
f 130 164 131
f 131 164 132
f 132 162 165
f 132 165 166
f 132 166 135
f 132 164 162
f 134 136 137
f 135 166 167
f 135 167 136
f 136 167 168
f 136 168 169
f 136 169 170
f 136 170 137
f 140 171 172
f 140 172 173
f 140 173 141
f 141 173 174
f 141 174 175
f 141 175 143
f 141 143 142
f 143 175 145
f 143 145 144
f 145 176 177
f 145 177 178
f 145 178 148
f 145 148 147
f 145 147 146
f 145 175 174
f 145 174 176
f 148 178 177
f 148 177 179
f 148 179 149
f 149 179 151
f 150 155 156
f 151 180 152
f 151 179 181
f 151 181 180
f 152 182 153
f 152 180 182
f 153 182 183
f 153 183 184
f 153 184 185
f 153 185 186
f 153 186 154
f 154 186 187
f 154 187 155
f 155 187 156
f 157 159 158
f 159 188 189
f 159 189 160
f 159 190 188
f 160 189 191
f 160 191 192
f 160 192 161
f 161 192 162
f 162 192 193
f 162 193 194
f 162 194 166
f 162 166 165
f 166 194 195
f 166 195 196
f 166 196 167
f 167 196 168
f 168 196 197
f 168 197 198
f 168 198 199
f 168 199 200
f 168 200 169
f 171 201 176
f 171 176 202
f 171 202 174
f 171 174 173
f 171 173 172
f 174 202 176
f 176 201 203
f 176 203 204
f 176 204 205
f 176 205 206
f 176 206 207
f 176 207 179
f 176 179 177
f 179 207 206
f 179 206 208
f 179 208 181
f 180 181 209
f 180 209 182
f 181 208 209
f 182 210 211
f 182 211 212
f 182 212 213
f 182 213 183
f 182 209 214
f 182 214 210
f 183 213 184
f 184 212 215
f 184 215 216
f 184 216 217
f 184 217 218
f 184 218 219
f 184 219 220
f 184 220 221
f 184 221 222
f 184 222 223
f 184 223 224
f 184 224 185
f 184 213 212
f 185 224 186
f 186 224 225
f 186 225 226
f 186 226 187
f 188 190 191
f 188 191 189
f 190 220 219
f 190 219 191
f 191 219 218
f 191 218 227
f 191 227 192
f 192 227 228
f 192 228 193
f 193 228 216
f 193 216 229
f 193 229 195
f 193 195 194
f 195 229 196
f 196 229 230
f 196 230 231
f 196 231 232
f 196 232 197
f 197 232 198
f 198 232 233
f 198 233 234
f 198 234 235
f 198 235 236
f 198 236 237
f 198 237 238
f 198 238 199
f 199 238 200
f 200 238 237
f 201 239 203
f 203 205 204
f 203 239 205
f 205 240 206
f 205 239 240
f 206 240 241
f 206 241 242
f 206 242 208
f 208 242 243
f 208 243 209
f 209 243 214
f 210 214 243
f 210 243 244
f 210 244 245
f 210 245 246
f 210 246 247
f 210 247 211
f 211 247 212
f 212 247 231
f 212 231 215
f 215 231 230
f 215 230 229
f 215 229 216
f 216 228 227
f 216 227 217
f 217 227 218
f 221 248 222
f 222 248 249
f 222 249 223
f 223 249 224
f 224 249 225
f 231 233 232
f 231 247 246
f 231 246 233
f 233 246 234
f 234 246 245
f 234 245 250
f 234 250 235
f 235 251 236
f 235 250 251
f 236 251 237
f 239 252 253
f 239 253 241
f 239 241 240
f 241 253 242
f 242 253 254
f 242 254 245
f 242 245 244
f 242 244 243
f 245 254 250
f 250 254 255
f 250 255 251
f 252 255 254
f 252 254 253
