v 0.108996 -0.486278 0.116171
v 0.108996 -0.485979 0.0870395
v 0.12229 -0.477944 0.0544439
v 0.122474 -0.478094 0.0870395
v 0.119162 -0.480158 0.139567
v 0.113665 -0.482795 0.184997
v 0.108996 -0.483144 0.282727
v 0.112262 -0.483467 0.0345685
v 0.108996 -0.376225 -0.159075
v 0.109571 -0.476203 -0.110408
v 0.112032 -0.481377 -0.0322696
v 0.115183 -0.480905 4.21005e-05
v 0.143221 -0.463342 4.21005e-05
v 0.137126 -0.468442 0.0508095
v 0.14329 -0.465332 0.112991
v 0.141887 -0.466277 0.144508
v 0.137678 -0.468491 0.166711
v 0.117529 -0.479935 0.217592
v 0.115022 -0.48083 0.246667
v 0.11562 -0.478318 0.311745
v 0.108996 -0.482124 0.31095
v 0.239802 -0.23214 -0.159075
v 0.307378 -0.264206 -0.157314
v 0.230026 -0.3711 -0.156462
v 0.137724 -0.44971 -0.155611
v 0.117437 -0.465083 -0.146014
v 0.108996 -0.385827 0.23531
v 0.132388 -0.460954 -0.119948
v 0.129582 -0.46665 -0.0941673
v 0.117552 -0.475954 -0.0724747
v 0.131583 -0.469735 -0.028976
v 0.165877 -0.448192 0.0127624
v 0.147292 -0.461302 0.0290602
v 0.158356 -0.452048 -0.028976
v 0.14835 -0.461053 0.0544439
v 0.165946 -0.448889 0.0435408
v 0.166199 -0.449063 0.0870395
v 0.166153 -0.449063 0.145019
v 0.159115 -0.453839 0.170346
v 0.144693 -0.463864 0.181249
v 0.131974 -0.470059 0.264612
v 0.119944 -0.476601 0.287497
v 0.140484 -0.462596 0.319809
v 0.117506 -0.47583 0.344057
v 0.113297 -0.47578 0.384262
v 0.108996 -0.437048 0.414984
v 0.332518 -0.235125 -0.1003
v 0.327389 -0.235747 -0.132442
v 0.31996 -0.242165 -0.152147
v 0.24983 -0.23214 0.23707
v 0.343949 -0.23214 0.181249
v 0.306205 -0.274729 -0.13778
v 0.294061 -0.28861 -0.155156
v 0.24592 -0.354756 -0.153907
v 0.229221 -0.378687 -0.134429
v 0.203437 -0.400156 -0.146411
v 0.170523 -0.428241 -0.145957
v 0.150535 -0.448764 -0.119381
v 0.108996 -0.389061 0.274436
v 0.153871 -0.450705 -0.0869553
v 0.154975 -0.45257 -0.0594705
v 0.137816 -0.464063 -0.0615716
v 0.182346 -0.435903 0.0290602
v 0.181886 -0.43548 4.21005e-05
v 0.187291 -0.426774 -0.0724747
v 0.189246 -0.428017 -0.0298846
v 0.173467 -0.443316 0.065347
v 0.169833 -0.446376 0.108846
v 0.185819 -0.433391 0.1595
v 0.183841 -0.434162 0.217536
v 0.164612 -0.449212 0.20209
v 0.182691 -0.436177 0.130538
v 0.162611 -0.44966 0.246497
v 0.158195 -0.451774 0.286418
v 0.141542 -0.464735 0.232016
v 0.144463 -0.459013 0.344398
v 0.13524 -0.462844 0.380514
v 0.154837 -0.442744 0.409078
v 0.114608 -0.465357 0.413394
v 0.135125 -0.446451 0.418959
v 0.169787 -0.415753 0.42106
v 0.290426 -0.275525 0.420662
v 0.307194 -0.233956 0.417141
v 0.287091 -0.23214 0.403229
v 0.108996 -0.418266 0.390792
v 0.320857 -0.259206 -0.0974041
v 0.316141 -0.261669 -0.123185
v 0.342546 -0.233956 0.061883
v 0.335278 -0.235374 -0.0688403
v 0.322536 -0.260922 -0.0724747
v 0.252866 -0.23214 0.275345
v 0.342224 -0.23214 0.29681
v 0.341741 -0.234852 0.26819
v 0.342178 -0.235747 0.206633
v 0.340683 -0.239354 0.166711
v 0.342385 -0.235747 0.145019
v 0.301467 -0.29055 -0.112339
v 0.286631 -0.30963 -0.129375
v 0.275361 -0.319382 -0.148228
v 0.260295 -0.33998 -0.145843
v 0.24799 -0.359209 -0.129943
v 0.237341 -0.376946 -0.0960412
v 0.211948 -0.39936 -0.114951
v 0.19081 -0.420206 -0.102856
v 0.168683 -0.436401 -0.115973
v 0.108996 -0.39232 0.297264
v 0.255695 -0.23214 0.296981
v 0.174088 -0.435082 -0.0942808
v 0.200378 -0.421326 0.0435408
v 0.186279 -0.433217 0.0943083
v 0.179056 -0.439137 0.108846
v 0.204242 -0.416947 0.009128
v 0.214156 -0.404335 -0.0615716
v 0.196422 -0.421052 -0.0506685
v 0.202126 -0.419783 0.13775
v 0.188004 -0.431152 0.193912
v 0.199044 -0.420181 0.277332
v 0.181081 -0.434883 0.275515
v 0.208245 -0.414883 0.0725589
v 0.176526 -0.436202 0.337186
v 0.154952 -0.450157 0.375233
v 0.171328 -0.436699 0.392326
v 0.18759 -0.419534 0.407431
v 0.255488 -0.338611 0.414984
v 0.219147 -0.388165 0.408567
v 0.283618 -0.312292 0.409305
v 0.306872 -0.283933 0.404989
v 0.316601 -0.26137 0.407885
v 0.332081 -0.236369 0.404932
v 0.277155 -0.23214 0.38006
v 0.108996 -0.408489 0.362626
v 0.306481 -0.288212 -0.0830938
v 0.337992 -0.244554 0.106688
v 0.332357 -0.255101 0.0743761
v 0.333024 -0.252788 0.0435408
v 0.340982 -0.235747 0.0290602
v 0.334082 -0.242165 -0.0434566
v 0.33813 -0.237439 -0.0126782
v 0.319707 -0.271346 -0.0361879
v 0.338107 -0.237663 0.353483
v 0.338889 -0.239354 0.297264
v 0.332656 -0.252091 0.289996
v 0.334933 -0.249728 0.226565
v 0.332472 -0.2554 0.190278
v 0.331736 -0.257216 0.164894
v 0.329137 -0.262365 0.130538
v 0.289667 -0.311372 -0.101436
v 0.276143 -0.327168 -0.115973
v 0.262043 -0.346323 -0.11285
v 0.246679 -0.370105 -0.0724747
v 0.233246 -0.385603 -0.0579373
v 0.215398 -0.40023 -0.0869553
v 0.108996 -0.398987 0.329179
v 0.266322 -0.23214 0.344511
v 0.219722 -0.404211 0.0425754
v 0.217905 -0.402693 -0.0361879
v 0.207531 -0.414111 0.217536
v 0.208199 -0.414808 0.0979426
v 0.203552 -0.417022 0.246497
v 0.208728 -0.411375 0.282727
v 0.211465 -0.407096 0.333551
v 0.19633 -0.420903 0.322648
v 0.186854 -0.429386 0.300899
v 0.230647 -0.393812 0.0725589
v 0.195709 -0.42043 0.348032
v 0.178964 -0.433217 0.362513
v 0.194651 -0.419534 0.37705
v 0.211005 -0.403439 0.39261
v 0.237916 -0.373861 0.404535
v 0.278029 -0.330004 0.39295
v 0.304066 -0.29662 0.366147
v 0.316854 -0.275251 0.373416
v 0.335186 -0.241444 0.376709
v 0.306021 -0.293237 -0.0525425
v 0.291186 -0.313536 -0.0724747
v 0.325503 -0.268335 0.0870395
v 0.324997 -0.268335 0.0508095
v 0.32111 -0.274455 0.0290602
v 0.332541 -0.251793 0.0145795
v 0.320305 -0.273933 0.000155673
v 0.330517 -0.25525 0.311745
v 0.328217 -0.261594 0.261943
v 0.320075 -0.277291 0.239228
v 0.318326 -0.281719 0.145019
v 0.265977 -0.345353 -0.0869553
v 0.264045 -0.351771 -0.0506685
v 0.252866 -0.365105 -0.047091
v 0.245552 -0.375976 -0.00716982
v 0.235938 -0.384782 -0.028976
v 0.22998 -0.392743 0.00322217
v 0.242884 -0.380852 0.0353067
v 0.24592 -0.378364 0.0580783
v 0.225863 -0.397618 0.185565
v 0.211948 -0.407544 0.308168
v 0.218342 -0.399509 0.358878
v 0.232372 -0.391897 0.108846
v 0.232234 -0.391747 0.1595
v 0.230992 -0.386051 0.380684
v 0.24661 -0.369906 0.37705
v 0.265563 -0.348288 0.373416
v 0.288678 -0.319183 0.362853
v 0.291577 -0.317491 0.326282
v 0.30356 -0.299431 0.333551
v 0.319086 -0.275649 0.319582
v 0.322789 -0.267564 0.340763
v 0.304779 -0.298137 -0.01671
v 0.290058 -0.317864 -0.0418098
v 0.275223 -0.336845 -0.0579373
v 0.318096 -0.281321 0.0906739
v 0.317866 -0.280923 0.0508095
v 0.320765 -0.274281 0.289996
v 0.310621 -0.291844 0.264612
v 0.315635 -0.28453 0.239228
v 0.317153 -0.283361 0.17398
v 0.305975 -0.300799 0.184883
v 0.30563 -0.301371 0.1595
v 0.30402 -0.303735 0.0798276
v 0.31598 -0.285202 0.116058
v 0.2683 -0.348139 -0.028976
v 0.26087 -0.358811 -0.00177507
v 0.263286 -0.35809 0.0725589
v 0.246633 -0.37717 0.108846
v 0.263055 -0.357841 0.0435408
v 0.248979 -0.372568 0.246497
v 0.245874 -0.372742 0.335368
v 0.252682 -0.369185 0.210267
v 0.261031 -0.355478 0.348032
v 0.274165 -0.339084 0.351666
v 0.279961 -0.333537 0.315379
v 0.293969 -0.316123 0.286418
v 0.302778 -0.301844 0.311745
v 0.306665 -0.296993 0.289996
v 0.301789 -0.305625 0.0326945
v 0.293946 -0.316123 0.0145795
v 0.275476 -0.340825 4.21005e-05
v 0.302226 -0.305924 0.0580783
v 0.294912 -0.316496 0.217536
v 0.311035 -0.292441 0.213901
v 0.301858 -0.306969 0.11248
v 0.291393 -0.32172 0.0743761
v 0.267886 -0.351174 0.0218483
v 0.276442 -0.342069 0.0870395
v 0.273567 -0.345676 0.108846
v 0.271336 -0.348189 0.130538
v 0.269611 -0.349756 0.179432
v 0.25374 -0.366448 0.275515
v 0.258363 -0.359458 0.326282
v 0.268622 -0.350353 0.217536
v 0.293256 -0.318238 0.242863
v 0.28279 -0.332691 0.0471752
v 0.27911 -0.338189 0.152231
v 0.279271 -0.338437 0.108846
v 0.286539 -0.328711 0.108846
v 0.290817 -0.322641 0.132299
v 0.273429 -0.345452 0.152231
f 1 2 3
f 1 3 4
f 1 4 5
f 1 5 6
f 1 6 7
f 1 7 21
f 1 21 46
f 1 46 85
f 1 85 131
f 1 131 153
f 1 153 106
f 1 106 59
f 1 59 27
f 1 27 9
f 1 9 2
f 2 8 3
f 2 9 10
f 2 10 11
f 2 11 8
f 3 8 12
f 3 12 13
f 3 13 14
f 3 14 15
f 3 15 4
f 4 15 16
f 4 16 5
f 5 16 17
f 5 17 6
f 6 17 18
f 6 18 19
f 6 19 7
f 7 19 20
f 7 20 21
f 8 11 12
f 9 22 23
f 9 23 24
f 9 24 25
f 9 25 26
f 9 26 10
f 9 27 22
f 10 26 28
f 10 28 29
f 10 29 30
f 10 30 11
f 11 30 31
f 11 31 12
f 12 31 13
f 13 32 33
f 13 33 14
f 13 31 34
f 13 34 32
f 14 35 15
f 14 33 35
f 15 35 36
f 15 36 37
f 15 37 38
f 15 38 16
f 16 38 39
f 16 39 40
f 16 40 17
f 17 40 18
f 18 41 19
f 18 40 41
f 19 41 42
f 19 42 20
f 20 43 44
f 20 44 21
f 20 42 41
f 20 41 43
f 21 44 45
f 21 45 46
f 22 47 48
f 22 48 49
f 22 49 23
f 22 27 50
f 22 50 91
f 22 91 107
f 22 107 154
f 22 154 130
f 22 130 84
f 22 84 92
f 22 92 51
f 22 51 47
f 23 49 52
f 23 52 53
f 23 53 24
f 24 53 54
f 24 54 55
f 24 55 56
f 24 56 25
f 25 56 57
f 25 57 58
f 25 58 28
f 25 28 26
f 27 59 50
f 28 58 29
f 29 60 61
f 29 61 62
f 29 62 30
f 29 58 60
f 30 62 31
f 31 62 34
f 32 63 36
f 32 36 33
f 32 34 64
f 32 64 63
f 33 36 35
f 34 62 61
f 34 61 65
f 34 65 66
f 34 66 64
f 36 63 67
f 36 67 37
f 37 67 68
f 37 68 38
f 38 69 70
f 38 70 71
f 38 71 39
f 38 68 72
f 38 72 69
f 39 71 73
f 39 73 40
f 40 73 74
f 40 74 75
f 40 75 41
f 41 75 43
f 43 76 44
f 43 75 74
f 43 74 76
f 44 76 77
f 44 77 45
f 45 77 78
f 45 78 79
f 45 79 46
f 46 79 80
f 46 80 81
f 46 81 82
f 46 82 83
f 46 83 84
f 46 84 85
f 47 86 87
f 47 87 48
f 47 51 88
f 47 88 89
f 47 89 90
f 47 90 86
f 48 87 49
f 49 87 52
f 50 59 91
f 51 92 93
f 51 93 94
f 51 94 95
f 51 95 96
f 51 96 88
f 52 87 97
f 52 97 98
f 52 98 53
f 53 98 99
f 53 99 54
f 54 99 100
f 54 100 101
f 54 101 55
f 55 101 102
f 55 102 103
f 55 103 56
f 56 103 104
f 56 104 105
f 56 105 57
f 57 105 58
f 58 105 60
f 59 106 107
f 59 107 91
f 60 105 108
f 60 108 61
f 61 108 65
f 63 64 109
f 63 109 110
f 63 110 111
f 63 111 67
f 64 112 109
f 64 66 112
f 65 113 114
f 65 114 66
f 65 108 104
f 65 104 113
f 66 114 112
f 67 111 68
f 68 111 72
f 69 72 115
f 69 115 116
f 69 116 70
f 70 116 117
f 70 117 118
f 70 118 71
f 71 118 73
f 72 111 110
f 72 110 119
f 72 119 115
f 73 118 74
f 74 118 120
f 74 120 121
f 74 121 76
f 76 121 77
f 77 122 78
f 77 121 122
f 78 123 80
f 78 80 79
f 78 122 123
f 80 123 81
f 81 124 82
f 81 123 125
f 81 125 124
f 82 124 126
f 82 126 127
f 82 127 128
f 82 128 129
f 82 129 83
f 83 129 92
f 83 92 84
f 84 130 85
f 85 130 131
f 86 97 87
f 86 90 132
f 86 132 97
f 88 133 134
f 88 134 135
f 88 135 136
f 88 136 89
f 88 96 133
f 89 137 90
f 89 136 138
f 89 138 137
f 90 137 139
f 90 139 132
f 92 129 140
f 92 140 141
f 92 141 93
f 93 141 142
f 93 142 143
f 93 143 94
f 94 144 95
f 94 143 144
f 95 145 146
f 95 146 133
f 95 133 96
f 95 144 145
f 97 132 147
f 97 147 98
f 98 147 148
f 98 148 100
f 98 100 99
f 100 148 149
f 100 149 101
f 101 149 102
f 102 149 150
f 102 150 151
f 102 151 152
f 102 152 103
f 103 152 104
f 104 152 113
f 104 108 105
f 106 153 107
f 107 153 154
f 109 112 155
f 109 155 119
f 109 119 110
f 112 114 156
f 112 156 155
f 113 152 151
f 113 151 156
f 113 156 114
f 115 157 116
f 115 119 158
f 115 158 157
f 116 157 159
f 116 159 117
f 117 159 160
f 117 160 161
f 117 161 162
f 117 162 163
f 117 163 118
f 118 163 120
f 119 164 158
f 119 155 164
f 120 163 165
f 120 165 166
f 120 166 121
f 121 166 122
f 122 166 167
f 122 167 168
f 122 168 123
f 123 168 169
f 123 169 125
f 124 125 169
f 124 169 126
f 126 169 170
f 126 170 127
f 127 129 128
f 127 170 171
f 127 171 172
f 127 172 173
f 127 173 129
f 129 173 140
f 130 154 131
f 131 154 153
f 132 139 174
f 132 174 175
f 132 175 147
f 133 146 134
f 134 146 176
f 134 176 177
f 134 177 135
f 135 177 178
f 135 178 179
f 135 179 136
f 136 179 138
f 137 138 179
f 137 179 139
f 139 179 180
f 139 180 174
f 140 173 181
f 140 181 141
f 141 181 142
f 142 182 143
f 142 181 182
f 143 182 144
f 144 182 183
f 144 183 145
f 145 184 146
f 145 183 184
f 146 184 176
f 147 175 185
f 147 185 148
f 148 185 149
f 149 185 150
f 150 185 186
f 150 186 187
f 150 187 188
f 150 188 189
f 150 189 151
f 151 189 156
f 155 156 190
f 155 190 191
f 155 191 192
f 155 192 164
f 156 189 190
f 157 158 193
f 157 193 160
f 157 160 159
f 158 164 193
f 160 193 194
f 160 194 161
f 161 195 165
f 161 165 162
f 161 194 195
f 162 165 163
f 164 192 196
f 164 196 197
f 164 197 193
f 165 195 167
f 165 167 166
f 167 195 168
f 168 195 198
f 168 198 169
f 169 198 199
f 169 199 170
f 170 199 200
f 170 200 201
f 170 201 171
f 171 201 202
f 171 202 203
f 171 203 204
f 171 204 172
f 172 204 205
f 172 205 173
f 173 205 181
f 174 180 206
f 174 206 207
f 174 207 175
f 175 207 208
f 175 208 185
f 176 209 210
f 176 210 177
f 176 184 209
f 177 210 178
f 178 180 179
f 178 210 206
f 178 206 180
f 181 204 211
f 181 211 182
f 181 205 204
f 182 211 183
f 183 211 212
f 183 212 213
f 183 213 214
f 183 214 184
f 184 214 215
f 184 215 216
f 184 216 217
f 184 217 218
f 184 218 209
f 185 208 186
f 186 208 219
f 186 219 220
f 186 220 187
f 187 220 188
f 188 220 191
f 188 191 190
f 188 190 189
f 191 220 192
f 192 221 222
f 192 222 197
f 192 197 196
f 192 220 223
f 192 223 221
f 193 197 224
f 193 224 194
f 194 224 195
f 195 224 225
f 195 225 198
f 197 226 224
f 197 222 226
f 198 225 199
f 199 225 227
f 199 227 200
f 200 227 228
f 200 228 201
f 201 228 229
f 201 229 202
f 202 229 230
f 202 230 231
f 202 231 203
f 203 231 232
f 203 232 204
f 204 232 212
f 204 212 211
f 206 210 233
f 206 233 234
f 206 234 207
f 207 234 235
f 207 235 208
f 208 235 219
f 209 218 217
f 209 217 210
f 210 217 236
f 210 236 233
f 212 232 230
f 212 230 237
f 212 237 215
f 212 215 238
f 212 238 213
f 213 238 214
f 214 238 215
f 215 237 239
f 215 239 216
f 216 239 217
f 217 240 236
f 217 239 240
f 219 235 220
f 220 235 241
f 220 241 223
f 221 242 243
f 221 243 244
f 221 244 222
f 221 223 242
f 222 244 245
f 222 245 226
f 223 241 242
f 224 226 246
f 224 246 225
f 225 247 227
f 225 246 247
f 226 245 248
f 226 248 246
f 227 247 229
f 227 229 228
f 229 247 248
f 229 248 249
f 229 249 230
f 230 249 237
f 230 232 231
f 233 236 234
f 234 236 240
f 234 240 250
f 234 250 235
f 235 250 242
f 235 242 241
f 237 249 251
f 237 251 252
f 237 252 253
f 237 253 254
f 237 254 239
f 239 253 240
f 239 254 253
f 240 253 242
f 240 242 250
f 242 253 252
f 242 252 243
f 243 252 255
f 243 255 244
f 244 255 245
f 245 255 248
f 246 248 247
f 248 255 251
f 248 251 249
f 251 255 252
