v -0.311342 0.41917 -0.220755
v -0.311342 0.458696 -0.0613389
v -0.311342 0.501227 -0.220755
v -0.125331 0.439832 -0.220755
v -0.125331 0.478977 -0.0613389
v -0.311342 0.535226 -0.0613389
v -0.311342 0.505546 -0.2108
v -0.300909 0.506688 -0.2152
v -0.298068 0.504889 -0.220755
v -0.125331 0.519185 -0.220755
v -0.125331 0.551726 -0.0613389
v -0.305424 0.536867 -0.0613389
v -0.311342 0.534937 -0.065677
v -0.311342 0.506215 -0.209146
v -0.30801 0.508578 -0.205541
v -0.296575 0.509681 -0.210332
v -0.28281 0.513107 -0.210285
v -0.29124 0.507909 -0.21815
v -0.293698 0.506058 -0.220755
v -0.125331 0.52139 -0.215871
v -0.131266 0.519618 -0.220755
v -0.137803 0.521836 -0.216917
v -0.125331 0.551621 -0.0631334
v -0.127151 0.551871 -0.0613389
v -0.303986 0.536473 -0.0707797
v -0.298105 0.538639 -0.0613389
v -0.298414 0.538271 -0.065677
v -0.311342 0.533756 -0.0797991
v -0.311342 0.510048 -0.198784
v -0.297304 0.514997 -0.195773
v -0.311342 0.510862 -0.19649
v -0.282428 0.508841 -0.220615
v -0.281681 0.519132 -0.194509
v -0.268317 0.516218 -0.210285
v -0.28037 0.509221 -0.220755
v -0.125331 0.524488 -0.208631
v -0.142155 0.520274 -0.220755
v -0.145705 0.522086 -0.217447
v -0.137803 0.524921 -0.209661
v -0.125331 0.551398 -0.0665977
v -0.137803 0.552606 -0.0613389
v -0.295028 0.537851 -0.0797991
v -0.302274 0.53604 -0.0797991
v -0.286761 0.54108 -0.0613389
v -0.28281 0.541658 -0.0652869
v -0.28281 0.540516 -0.0797991
v -0.311342 0.53222 -0.0947171
v -0.292151 0.537142 -0.0942958
v -0.299398 0.535305 -0.0942958
v -0.311342 0.515929 -0.18126
v -0.297103 0.51992 -0.180933
v -0.285742 0.521285 -0.185536
v -0.276055 0.522217 -0.188828
v -0.268317 0.52055 -0.198285
v -0.268317 0.511663 -0.220755
v -0.257319 0.521521 -0.20125
v -0.253004 0.519277 -0.209114
v -0.125331 0.52521 -0.206665
v -0.137803 0.530041 -0.195773
v -0.148637 0.520642 -0.220755
v -0.155355 0.522335 -0.217993
v -0.151222 0.524698 -0.211689
v -0.152296 0.530671 -0.195773
v -0.125331 0.551057 -0.0715599
v -0.129427 0.551201 -0.0737134
v -0.137803 0.55233 -0.0652869
v -0.141736 0.55279 -0.0613389
v -0.28281 0.539256 -0.0942958
v -0.28281 0.541894 -0.0613389
v -0.27225 0.543719 -0.0613389
v -0.268317 0.544152 -0.0652869
v -0.253787 0.545714 -0.0797991
v -0.268317 0.543207 -0.0797991
v -0.268317 0.542144 -0.0942958
v -0.290476 0.536722 -0.102488
v -0.29612 0.534648 -0.107919
v -0.311342 0.530579 -0.108761
v -0.283156 0.537851 -0.107919
v -0.311342 0.520169 -0.16653
v -0.301783 0.521443 -0.171258
v -0.292114 0.522611 -0.175861
v -0.281681 0.523385 -0.180933
v -0.268317 0.525906 -0.181276
v -0.253787 0.528557 -0.181276
v -0.268317 0.522939 -0.191029
v -0.239275 0.520104 -0.212423
v -0.254479 0.513921 -0.220755
v -0.253004 0.52395 -0.196163
v -0.247651 0.522296 -0.203497
v -0.125331 0.529122 -0.195773
v -0.152296 0.534858 -0.182852
v -0.141863 0.536893 -0.174909
v -0.125331 0.529831 -0.193525
v -0.153371 0.520891 -0.220755
v -0.166808 0.521259 -0.220755
v -0.166808 0.52244 -0.218243
v -0.166808 0.525735 -0.210285
v -0.166808 0.531051 -0.195773
v -0.125331 0.550611 -0.0777862
v -0.137803 0.550138 -0.0942958
v -0.125331 0.549429 -0.0935624
v -0.152296 0.552974 -0.0652869
v -0.152296 0.553262 -0.0613389
v -0.268317 0.540739 -0.108792
v -0.268317 0.544388 -0.0613389
v -0.253787 0.546594 -0.0652869
v -0.253787 0.544651 -0.0942958
v -0.239275 0.547867 -0.0797991
v -0.288236 0.536171 -0.112163
v -0.311342 0.528741 -0.123305
v -0.278568 0.537339 -0.120075
v -0.311342 0.52349 -0.152017
v -0.306608 0.522611 -0.161583
v -0.297103 0.523714 -0.166561
v -0.28281 0.526995 -0.166779
v -0.268317 0.529988 -0.166779
v -0.253787 0.532535 -0.166779
v -0.239275 0.530763 -0.181276
v -0.239275 0.526208 -0.195773
v -0.239275 0.516297 -0.220755
v -0.239275 0.522913 -0.205182
v -0.224782 0.521023 -0.214779
v -0.152296 0.53709 -0.175596
v -0.166808 0.535003 -0.183039
v -0.137803 0.541776 -0.152267
v -0.137348 0.538219 -0.167872
v -0.125331 0.537969 -0.165188
v -0.132195 0.536473 -0.173442
v -0.125331 0.533848 -0.180308
v -0.152296 0.53923 -0.166779
v -0.152296 0.542551 -0.152267
v -0.18132 0.521062 -0.220755
v -0.18132 0.522335 -0.218009
v -0.18132 0.525578 -0.210285
v -0.18132 0.530946 -0.195773
v -0.137803 0.548852 -0.108792
v -0.151732 0.55065 -0.0934376
v -0.146506 0.551083 -0.0866184
v -0.125331 0.548038 -0.108792
v -0.151732 0.551687 -0.0809851
v -0.166808 0.550729 -0.0966209
v -0.166808 0.551306 -0.0893648
v -0.166808 0.552002 -0.0797991
v -0.166808 0.553 -0.0652869
v -0.166808 0.553262 -0.0613389
v -0.253787 0.543036 -0.108792
v -0.269264 0.53835 -0.124272
v -0.253787 0.54683 -0.0613389
v -0.239275 0.548747 -0.0652869
v -0.239275 0.546738 -0.0942958
v -0.223744 0.550755 -0.0613389
v -0.220303 0.551136 -0.0613389
v -0.224782 0.54935 -0.0797991
v -0.297304 0.532377 -0.123305
v -0.311342 0.526391 -0.137801
v -0.274744 0.536473 -0.129749
v -0.28281 0.533257 -0.137801
v -0.297304 0.529962 -0.137801
v -0.297304 0.526969 -0.152267
v -0.28281 0.530395 -0.152267
v -0.268317 0.533414 -0.152267
v -0.244009 0.536263 -0.157869
v -0.239221 0.534885 -0.166046
v -0.254752 0.535646 -0.152735
v -0.234323 0.536932 -0.16074
v -0.224782 0.535593 -0.170103
v -0.224782 0.532548 -0.181276
v -0.224782 0.528019 -0.195773
v -0.224782 0.518279 -0.220755
v -0.224782 0.523819 -0.207523
v -0.210307 0.524436 -0.209021
v -0.210307 0.521626 -0.216261
v -0.216188 0.519198 -0.220755
v -0.166808 0.537129 -0.175783
v -0.166808 0.539387 -0.166779
v -0.18132 0.53495 -0.182868
v -0.18132 0.53709 -0.175611
v -0.137803 0.544612 -0.137801
v -0.125331 0.540936 -0.152267
v -0.125331 0.536171 -0.172319
v -0.166808 0.542748 -0.152267
v -0.152296 0.545386 -0.137801
v -0.192663 0.520681 -0.220755
v -0.189859 0.522178 -0.217681
v -0.195139 0.524422 -0.211471
v -0.195813 0.530303 -0.195773
v -0.195813 0.534714 -0.18215
v -0.137803 0.547001 -0.123305
v -0.152296 0.547539 -0.123305
v -0.152296 0.549245 -0.108792
v -0.125331 0.546121 -0.123305
v -0.166808 0.549587 -0.108792
v -0.18132 0.549626 -0.108792
v -0.18132 0.550742 -0.096184
v -0.18132 0.551254 -0.0889278
v -0.18132 0.551818 -0.0797991
v -0.18132 0.552908 -0.0613389
v -0.253787 0.540936 -0.123305
v -0.239275 0.545045 -0.108792
v -0.239275 0.542958 -0.123305
v -0.254752 0.538311 -0.138769
v -0.265058 0.537326 -0.134571
v -0.243245 0.548392 -0.0613389
v -0.239275 0.54897 -0.0613389
v -0.225692 0.550532 -0.0613389
v -0.224782 0.548169 -0.0942958
v -0.224782 0.546633 -0.108792
v -0.218136 0.55132 -0.0613389
v -0.214749 0.550913 -0.0700463
v -0.260214 0.536473 -0.144215
v -0.269264 0.53583 -0.138769
v -0.250528 0.5373 -0.148194
v -0.239221 0.538048 -0.152735
v -0.224782 0.53986 -0.152267
v -0.224782 0.537457 -0.162847
v -0.213293 0.536224 -0.172412
v -0.209196 0.534504 -0.179934
v -0.210307 0.529358 -0.195773
v -0.210307 0.519697 -0.220755
v -0.199528 0.521941 -0.217088
v -0.18132 0.539282 -0.166779
v -0.195813 0.53688 -0.174894
v -0.125331 0.544073 -0.135757
v -0.125331 0.543732 -0.137801
v -0.166808 0.545557 -0.137801
v -0.18132 0.542472 -0.152267
v -0.166808 0.547788 -0.123305
v -0.196997 0.520458 -0.220755
v -0.203624 0.53667 -0.174191
v -0.18132 0.547736 -0.123305
v -0.195813 0.547224 -0.123305
v -0.195813 0.54897 -0.108792
v -0.19463 0.550414 -0.0930787
v -0.189022 0.551149 -0.0874298
v -0.185271 0.552803 -0.0613389
v -0.239275 0.540818 -0.137801
v -0.224782 0.544704 -0.123305
v -0.21007 0.550493 -0.079409
v -0.210307 0.549245 -0.0942958
v -0.210307 0.547867 -0.108792
v -0.210307 0.546174 -0.123305
v -0.210143 0.551858 -0.0613389
v -0.21007 0.551595 -0.0652401
v -0.205063 0.551267 -0.0743219
v -0.224782 0.542564 -0.137801
v -0.210307 0.543942 -0.137801
v -0.210307 0.541094 -0.152267
v -0.209196 0.537825 -0.167263
v -0.195813 0.538823 -0.166779
v -0.18132 0.545268 -0.137801
v -0.195813 0.541973 -0.152267
v -0.195813 0.544835 -0.137801
v -0.19463 0.551411 -0.079409
v -0.199764 0.55233 -0.0613389
v -0.195813 0.552252 -0.0652869
v -0.195813 0.552488 -0.0613389
f 1 2 6
f 1 6 13
f 1 13 28
f 1 28 47
f 1 47 77
f 1 77 110
f 1 110 155
f 1 155 112
f 1 112 79
f 1 79 50
f 1 50 31
f 1 31 29
f 1 29 14
f 1 14 7
f 1 7 3
f 1 3 9
f 1 9 19
f 1 19 35
f 1 35 55
f 1 55 87
f 1 87 120
f 1 120 169
f 1 169 173
f 1 173 219
f 1 219 228
f 1 228 183
f 1 183 132
f 1 132 95
f 1 95 94
f 1 94 60
f 1 60 37
f 1 37 21
f 1 21 10
f 1 10 4
f 1 4 5
f 1 5 2
f 2 5 11
f 2 11 24
f 2 24 41
f 2 41 67
f 2 67 103
f 2 103 145
f 2 145 197
f 2 197 235
f 2 235 256
f 2 256 254
f 2 254 242
f 2 242 208
f 2 208 152
f 2 152 151
f 2 151 205
f 2 205 204
f 2 204 203
f 2 203 148
f 2 148 105
f 2 105 70
f 2 70 69
f 2 69 44
f 2 44 26
f 2 26 12
f 2 12 6
f 3 7 8
f 3 8 9
f 4 10 20
f 4 20 36
f 4 36 58
f 4 58 90
f 4 90 93
f 4 93 129
f 4 129 180
f 4 180 127
f 4 127 179
f 4 179 224
f 4 224 223
f 4 223 191
f 4 191 139
f 4 139 101
f 4 101 99
f 4 99 64
f 4 64 40
f 4 40 23
f 4 23 11
f 4 11 5
f 6 12 13
f 7 14 8
f 8 14 15
f 8 15 16
f 8 16 17
f 8 17 18
f 8 18 19
f 8 19 9
f 10 21 22
f 10 22 20
f 11 23 24
f 12 25 13
f 12 26 27
f 12 27 25
f 13 25 28
f 14 29 15
f 15 30 16
f 15 29 31
f 15 31 30
f 16 30 17
f 17 32 18
f 17 30 33
f 17 33 34
f 17 34 32
f 18 32 19
f 19 32 35
f 20 22 36
f 21 37 38
f 21 38 22
f 22 38 39
f 22 39 36
f 23 40 24
f 24 40 41
f 25 27 42
f 25 42 43
f 25 43 28
f 26 44 45
f 26 45 27
f 27 45 46
f 27 46 42
f 28 43 48
f 28 48 49
f 28 49 47
f 30 31 50
f 30 50 51
f 30 51 52
f 30 52 33
f 32 34 35
f 33 52 53
f 33 53 54
f 33 54 34
f 34 55 35
f 34 54 56
f 34 56 57
f 34 57 55
f 36 39 59
f 36 59 58
f 37 60 38
f 38 60 61
f 38 61 39
f 39 61 62
f 39 62 63
f 39 63 59
f 40 64 65
f 40 65 41
f 41 65 66
f 41 66 67
f 42 46 68
f 42 68 48
f 42 48 43
f 44 69 45
f 45 69 70
f 45 70 71
f 45 71 72
f 45 72 73
f 45 73 74
f 45 74 46
f 46 74 68
f 47 49 75
f 47 75 76
f 47 76 77
f 48 68 78
f 48 78 75
f 48 75 49
f 50 79 80
f 50 80 51
f 51 81 52
f 51 80 81
f 52 81 82
f 52 82 83
f 52 83 53
f 53 83 84
f 53 84 85
f 53 85 54
f 54 85 56
f 55 57 86
f 55 86 87
f 56 85 88
f 56 88 89
f 56 89 57
f 57 89 86
f 58 59 90
f 59 63 91
f 59 91 92
f 59 92 93
f 59 93 90
f 60 94 61
f 61 94 95
f 61 95 96
f 61 96 97
f 61 97 62
f 62 97 63
f 63 97 98
f 63 98 91
f 64 99 65
f 65 100 66
f 65 99 101
f 65 101 100
f 66 100 102
f 66 102 103
f 66 103 67
f 68 74 104
f 68 104 78
f 70 105 71
f 71 105 148
f 71 148 106
f 71 106 72
f 72 107 74
f 72 74 73
f 72 106 149
f 72 149 108
f 72 108 107
f 74 107 104
f 75 78 109
f 75 109 76
f 76 109 77
f 77 109 110
f 78 111 109
f 78 104 111
f 79 112 113
f 79 113 80
f 80 113 114
f 80 114 81
f 81 114 115
f 81 115 116
f 81 116 82
f 82 116 83
f 83 116 84
f 84 88 85
f 84 116 117
f 84 117 118
f 84 118 119
f 84 119 88
f 86 120 87
f 86 89 121
f 86 121 122
f 86 122 120
f 88 119 89
f 89 119 121
f 91 123 92
f 91 98 124
f 91 124 123
f 92 125 126
f 92 126 127
f 92 127 128
f 92 128 129
f 92 129 93
f 92 123 130
f 92 130 131
f 92 131 125
f 95 132 96
f 96 132 133
f 96 133 134
f 96 134 97
f 97 134 135
f 97 135 98
f 98 135 124
f 100 136 137
f 100 137 138
f 100 138 102
f 100 101 136
f 101 139 136
f 102 138 140
f 102 140 141
f 102 141 142
f 102 142 103
f 103 142 143
f 103 143 144
f 103 144 145
f 104 107 146
f 104 146 147
f 104 147 111
f 106 148 149
f 107 108 150
f 107 150 146
f 108 149 151
f 108 151 152
f 108 152 153
f 108 153 150
f 109 111 154
f 109 154 110
f 110 154 155
f 111 147 156
f 111 156 157
f 111 157 158
f 111 158 154
f 112 155 158
f 112 158 159
f 112 159 113
f 113 159 114
f 114 160 115
f 114 159 160
f 115 160 161
f 115 161 116
f 116 161 117
f 117 162 163
f 117 163 118
f 117 161 164
f 117 164 162
f 118 163 165
f 118 165 166
f 118 166 167
f 118 167 168
f 118 168 119
f 119 168 121
f 120 122 169
f 121 168 170
f 121 170 122
f 122 170 171
f 122 171 172
f 122 172 173
f 122 173 169
f 123 124 174
f 123 174 175
f 123 175 130
f 124 135 176
f 124 176 177
f 124 177 174
f 125 131 182
f 125 182 178
f 125 178 179
f 125 179 126
f 126 179 127
f 127 180 128
f 128 180 129
f 130 175 181
f 130 181 131
f 131 181 182
f 132 183 133
f 133 183 184
f 133 184 134
f 134 184 185
f 134 185 186
f 134 186 135
f 135 186 187
f 135 187 176
f 136 188 189
f 136 189 190
f 136 190 137
f 136 139 188
f 137 140 138
f 137 190 141
f 137 141 140
f 139 191 188
f 141 192 193
f 141 193 194
f 141 194 142
f 141 190 192
f 142 194 143
f 143 194 195
f 143 195 144
f 144 195 145
f 145 195 196
f 145 196 197
f 146 198 147
f 146 150 199
f 146 199 200
f 146 200 198
f 147 198 201
f 147 201 202
f 147 202 156
f 148 203 149
f 149 204 205
f 149 205 151
f 149 203 204
f 150 153 206
f 150 206 207
f 150 207 199
f 152 208 153
f 153 208 209
f 153 209 206
f 154 158 155
f 156 202 210
f 156 210 211
f 156 211 161
f 156 161 157
f 157 160 158
f 157 161 160
f 158 160 159
f 161 210 164
f 161 211 210
f 162 164 212
f 162 212 213
f 162 213 165
f 162 165 163
f 164 210 212
f 165 213 214
f 165 214 215
f 165 215 166
f 166 215 216
f 166 216 167
f 167 216 217
f 167 217 168
f 168 217 218
f 168 218 170
f 170 218 171
f 171 218 186
f 171 186 185
f 171 185 172
f 172 219 173
f 172 185 220
f 172 220 219
f 174 177 175
f 175 177 221
f 175 221 181
f 176 187 222
f 176 222 177
f 177 222 221
f 178 182 188
f 178 188 223
f 178 223 224
f 178 224 179
f 181 225 182
f 181 221 226
f 181 226 225
f 182 189 188
f 182 225 227
f 182 227 189
f 183 228 220
f 183 220 184
f 184 220 185
f 186 218 187
f 187 218 217
f 187 217 229
f 187 229 222
f 188 191 223
f 189 227 192
f 189 192 190
f 192 227 193
f 193 227 230
f 193 230 231
f 193 231 232
f 193 232 194
f 194 232 233
f 194 233 234
f 194 234 195
f 195 234 196
f 196 234 235
f 196 235 197
f 198 200 236
f 198 236 201
f 199 207 237
f 199 237 200
f 200 237 245
f 200 245 236
f 201 236 212
f 201 212 210
f 201 210 202
f 206 209 238
f 206 238 239
f 206 239 232
f 206 232 240
f 206 240 207
f 207 240 241
f 207 241 237
f 208 242 243
f 208 243 209
f 209 243 244
f 209 244 238
f 212 236 213
f 213 236 245
f 213 245 214
f 214 245 246
f 214 246 247
f 214 247 248
f 214 248 215
f 215 248 216
f 216 248 229
f 216 229 217
f 219 220 228
f 221 222 249
f 221 249 226
f 222 229 249
f 225 226 250
f 225 250 230
f 225 230 227
f 226 249 251
f 226 251 252
f 226 252 250
f 229 248 247
f 229 247 249
f 230 250 252
f 230 252 231
f 231 252 246
f 231 246 241
f 231 241 232
f 232 241 240
f 232 239 233
f 233 239 244
f 233 244 234
f 234 244 253
f 234 253 254
f 234 254 255
f 234 255 256
f 234 256 235
f 237 241 245
f 238 244 239
f 241 246 245
f 242 254 244
f 242 244 243
f 244 254 253
f 246 252 247
f 247 252 251
f 247 251 249
f 254 256 255
