v 0.104078 0.423566 0.411522
v 0.103921 0.441962 0.420423
v -0.124814 0.508894 0.413711
v -0.125331 0.493621 0.391959
v 0.104078 0.410346 0.390531
v 0.104078 0.469947 0.398385
v 0.0899087 0.449192 0.420946
v -0.108758 0.514868 0.418281
v 0.0991605 0.462819 0.413473
v -0.116528 0.529361 0.41552
v -0.124298 0.540833 0.404049
v -0.124545 0.546195 0.377823
v -0.125331 0.485814 0.362544
v 0.104078 0.397279 0.346694
v 0.104078 0.40349 0.369303
v -0.124971 0.55076 0.294336
v -0.125308 0.479111 -0.0652636
v -0.125331 0.469064 0.173581
v 0.0956798 0.4776 0.384296
v 0.0873038 0.478839 0.399384
v 0.104078 0.481045 0.232031
v 0.101608 0.481521 0.261018
v 0.0988237 0.480451 0.315946
v 0.00347614 0.494062 0.420899
v -0.0554705 0.507689 0.420756
v 0.0656788 0.478636 0.414949
v 0.0597056 0.49245 0.40105
v -0.0278947 0.511083 0.416995
v -0.0725144 0.527613 0.412045
v -0.10521 0.539322 0.402573
v -0.101505 0.543429 0.377061
v -0.124298 0.54813 0.348312
v -0.125331 0.479094 0.331939
v 0.104078 0.392561 0.326274
v -0.124545 0.549573 0.319516
v -0.108758 0.549657 0.28277
v -0.123849 0.551388 0.277058
v -0.124814 0.552729 0.232269
v -0.124814 0.55373 0.189526
v -0.124814 0.554901 0.0725791
v -0.124298 0.55317 -0.0289466
v -0.11801 0.551405 -0.0567437
v -0.0507547 0.540408 -0.0653112
v 0.104078 0.395701 -0.0653112
v 0.104078 0.382497 0.173248
v 0.104078 0.381785 0.195762
v 0.104078 0.381547 0.216847
v -0.125331 0.468742 0.230984
v 0.0797362 0.485848 0.384296
v 0.094849 0.480044 0.361163
v 0.0797362 0.487834 0.362544
v 0.104078 0.482573 0.174057
v 0.0841825 0.494673 0.13279
v 0.0809264 0.491839 0.275535
v 0.0989584 0.481758 0.290195
v 0.0933894 0.482047 0.340792
v 0.00787749 0.499475 0.416995
v 0.0435374 0.490294 0.41333
v 0.065836 0.4934 0.377061
v 0.0507232 0.500341 0.377061
v 0.0251011 0.508623 0.393054
v 0.00942694 0.511457 0.403383
v -0.00728021 0.512237 0.411379
v -0.0507547 0.525356 0.410284
v -0.0797677 0.536624 0.399004
v -0.0797677 0.54012 0.377061
v -0.0869985 0.543107 0.348027
v -0.108758 0.547095 0.333557
v -0.0666535 0.536115 0.389817
v -0.108758 0.548622 0.304522
v -0.125331 0.47536 0.310758
v 0.104078 0.387741 0.301333
v -0.0942517 0.546976 0.297287
v -0.0942517 0.548503 0.253783
v -0.100382 0.549708 0.239266
v -0.110936 0.551711 0.210279
v -0.118032 0.551405 0.257401
v -0.124298 0.554324 0.160587
v -0.124298 0.554782 0.131362
v -0.124298 0.55485 0.109848
v -0.124298 0.554833 0.0438301
v -0.124298 0.554477 0.0147956
v -0.124298 0.5539 -0.00619498
v -0.100517 0.550557 -0.0289466
v -0.0869985 0.547604 -0.0579812
v -0.0286582 0.534944 -0.0653112
v -0.0652612 0.543819 -0.0579812
v -0.0507547 0.542004 -0.0289466
v -0.0442425 0.539594 -0.0506988
v -0.0306567 0.536963 -0.0373238
v 0.0991605 0.483744 -0.0653112
v 0.104078 0.481996 -0.0486045
v 0.104078 0.38192 0.239266
v -0.125331 0.470116 0.260542
v 0.0690697 0.495318 0.328416
v 0.0681265 0.494741 0.34498
v 0.104078 0.484066 0.116083
v 0.0652297 0.503837 0.137835
v 0.0652297 0.503531 0.152305
v 0.0792422 0.496573 0.152305
v 0.104078 0.484711 0.0882387
v 0.0858217 0.494809 0.0870964
v 0.0652297 0.499475 0.28277
v 0.0706865 0.49581 0.304522
v 0.0455359 0.504227 0.355261
v 0.0286716 0.510031 0.369779
v 0.00722627 0.516785 0.384296
v -0.0160829 0.523031 0.391007
v -0.0339802 0.525118 0.403192
v -0.0507547 0.530498 0.398766
v -0.058008 0.536556 0.369969
v -0.0607027 0.538117 0.351644
v -0.0797677 0.543989 0.304522
v -0.0507547 0.5334 0.384296
v -0.125331 0.472594 0.289529
v 0.104078 0.384585 0.280152
v -0.0869985 0.546535 0.275535
v -0.0797677 0.546365 0.239266
v -0.0797677 0.5474 0.202997
v -0.0941394 0.551134 0.137835
v -0.0993043 0.549997 0.221131
v -0.108758 0.552407 0.166822
v -0.101932 0.551864 0.152305
v -0.108758 0.553034 0.130601
v -0.102224 0.552237 0.101566
v -0.108758 0.553001 0.0798139
v -0.0982938 0.551541 0.050827
v -0.101954 0.551897 0.0290273
v -0.108758 0.552441 0.00732274
v -0.10274 0.551371 -0.00714693
v -0.0862574 0.549488 0.00732274
v -0.0797677 0.548232 -0.00719455
v -0.0725144 0.546314 -0.0289466
v -0.0217418 0.533858 -0.0506988
v -0.00662899 0.529242 -0.0579812
v 0.0132893 0.522963 -0.0574576
v 0.0349592 0.514036 -0.0652636
v 0.0652297 0.501071 -0.0653112
v -0.0652612 0.545669 -0.00719455
v -0.0507547 0.542682 -0.00719455
v -0.0300953 0.537591 -0.014477
v -0.00728021 0.530633 -0.0289466
v 0.0806344 0.493553 -0.0652636
v 0.0942651 0.487291 -0.0506988
v 0.0991605 0.485695 -0.0286135
v 0.104078 0.483642 -0.00705175
v 0.104078 0.38299 0.259971
v 0.0494882 0.505144 0.311852
v 0.0536874 0.508826 0.152305
v 0.0614347 0.505772 0.126983
v 0.0591666 0.505755 0.174057
v 0.0979254 0.488377 0.0634879
v 0.0797362 0.497626 0.050827
v 0.0546306 0.509607 0.0435445
v 0.0601996 0.506959 0.0725791
v 0.0631413 0.50533 0.0997573
v 0.0423472 0.509217 0.290005
v 0.0511499 0.507774 0.224796
v 0.0445479 0.505924 0.333557
v 0.0374968 0.510082 0.311852
v 0.000691619 0.520315 0.369779
v 0.0217327 0.514528 0.340792
v 0.00722627 0.518941 0.355261
v -0.0217418 0.52746 0.369779
v -0.0362482 0.530498 0.377061
v -0.0425583 0.533773 0.355261
v -0.0458594 0.537489 0.299477
v -0.0652612 0.540205 0.326274
v -0.0652612 0.541528 0.297287
v -0.0652612 0.542394 0.275535
v -0.0652612 0.543582 0.239266
v -0.0652612 0.544736 0.202997
v -0.0725144 0.547519 0.14507
v -0.0867514 0.550099 0.123318
v -0.100652 0.550794 0.193049
v -0.090816 0.550625 0.0652966
v -0.0797677 0.548962 0.0290273
v 0.0136486 0.523726 -0.0361815
v 0.0242478 0.520332 -0.0217118
v 0.0362168 0.514528 -0.0506988
v 0.0513745 0.507859 -0.0579812
v 0.0590544 0.505619 -0.0361815
v 0.0715623 0.498915 -0.0506988
v -0.058008 0.544634 0.0145576
v -0.0313304 0.538559 0.0145576
v -0.0258063 0.537472 0.0363097
v -0.00728021 0.532263 0.0363097
v -0.00728021 0.531736 0.0145576
v 0.00722627 0.52729 0.0145576
v 0.0826779 0.494537 -0.0289466
v 0.0898638 0.491465 -0.00890805
v 0.0993177 0.486798 0.0145576
v 0.0973191 0.488462 0.0441633
v 0.0295249 0.519942 0.0435445
v 0.0252134 0.520689 0.137835
v 0.0362168 0.51592 0.159588
v 0.0871915 0.493213 0.00732274
v 0.0554839 0.508826 0.0156999
v 0.0310295 0.519009 0.0217924
v 0.0217327 0.516293 0.311757
v 0.0362168 0.513765 0.232031
v 0.028986 0.515496 0.268301
v -0.00822335 0.524151 0.355261
v 0.0096515 0.520587 0.311757
v -0.0217418 0.528546 0.348027
v -0.0362482 0.532958 0.340792
v -0.0217418 0.529564 0.326274
v -0.039931 0.537557 0.261018
v -0.0442201 0.537744 0.28277
v -0.0507547 0.539764 0.268301
v -0.0507547 0.541087 0.224796
v -0.058008 0.544108 0.174057
v -0.0507547 0.543226 0.14507
v -0.058008 0.544889 0.123318
v -0.0652612 0.546399 0.0943312
v -0.0797677 0.549012 0.108801
v -0.0652612 0.546433 0.0435445
v 0.0175335 0.523268 -0.00719455
v 0.0362168 0.515445 -0.0289466
v 0.0247867 0.520553 -0.00719455
v 0.0362168 0.516191 -0.00719455
v 0.0499373 0.510371 -0.014477
v 0.0574151 0.50735 -0.00719455
v 0.0652297 0.503226 -0.0217118
v -0.0435015 0.541613 0.0363097
v -0.0362482 0.54012 0.0798139
v -0.025447 0.537557 0.0798139
v -0.0144661 0.534604 0.0580618
v 0.00722627 0.527986 0.0435445
v 0.0131546 0.526017 0.0652966
v 0.0188584 0.523879 0.0798139
v 0.0141651 0.524269 0.159588
v 0.01677 0.520926 0.246691
v 0.0185216 0.523709 0.101566
v 0.0165005 0.519297 0.290005
v 0.0127953 0.521605 0.268301
v -0.000588365 0.522793 0.333509
v -0.0217418 0.532721 0.253783
v -0.0335535 0.536352 0.246501
v -0.0373486 0.538168 0.217514
v -0.0289501 0.536641 0.196238
v -0.030275 0.537489 0.174057
v -0.0299382 0.537795 0.152305
v -0.0313529 0.538542 0.126983
v -0.0507547 0.543395 0.101566
v -0.0435015 0.541698 0.0580618
v -0.0196085 0.535249 0.137835
v -0.0181937 0.535606 0.0798139
v 0.00722627 0.527765 0.0870964
v -0.00728021 0.531058 0.174057
v 0.0094494 0.525237 0.188527
v 0.00722627 0.525152 0.217514
v -0.00728021 0.530379 0.202997
v -0.0144885 0.531448 0.232031
v -0.0217418 0.534367 0.210279
f 1 2 3
f 1 3 4
f 1 4 5
f 1 5 15
f 1 15 14
f 1 14 34
f 1 34 72
f 1 72 116
f 1 116 147
f 1 147 93
f 1 93 47
f 1 47 46
f 1 46 45
f 1 45 44
f 1 44 92
f 1 92 146
f 1 146 101
f 1 101 97
f 1 97 52
f 1 52 21
f 1 21 6
f 1 6 2
f 2 7 8
f 2 8 3
f 2 6 9
f 2 9 7
f 3 8 10
f 3 10 11
f 3 11 12
f 3 12 4
f 4 13 14
f 4 14 15
f 4 15 5
f 4 12 16
f 4 16 17
f 4 17 18
f 4 18 48
f 4 48 94
f 4 94 115
f 4 115 71
f 4 71 33
f 4 33 13
f 6 19 20
f 6 20 9
f 6 21 22
f 6 22 23
f 6 23 19
f 7 24 25
f 7 25 8
f 7 9 26
f 7 26 24
f 8 25 10
f 9 20 27
f 9 27 26
f 10 25 28
f 10 28 29
f 10 29 11
f 11 29 30
f 11 30 12
f 12 30 31
f 12 31 32
f 12 32 16
f 13 33 34
f 13 34 14
f 16 32 35
f 16 35 36
f 16 36 37
f 16 37 38
f 16 38 39
f 16 39 40
f 16 40 17
f 17 40 41
f 17 41 42
f 17 42 43
f 17 43 44
f 17 44 45
f 17 45 18
f 18 45 46
f 18 46 47
f 18 47 48
f 19 49 20
f 19 23 50
f 19 50 51
f 19 51 49
f 20 49 27
f 21 52 53
f 21 53 22
f 22 53 54
f 22 54 55
f 22 55 23
f 23 55 56
f 23 56 50
f 24 26 57
f 24 57 28
f 24 28 25
f 26 27 58
f 26 58 57
f 27 49 59
f 27 59 60
f 27 60 61
f 27 61 62
f 27 62 58
f 28 57 63
f 28 63 64
f 28 64 29
f 29 64 30
f 30 64 65
f 30 65 31
f 31 66 67
f 31 67 68
f 31 68 32
f 31 65 69
f 31 69 66
f 32 68 70
f 32 70 35
f 33 71 72
f 33 72 34
f 35 70 36
f 36 70 73
f 36 73 74
f 36 74 75
f 36 75 76
f 36 76 77
f 36 77 37
f 37 77 38
f 38 77 39
f 39 78 79
f 39 79 40
f 39 77 76
f 39 76 78
f 40 79 80
f 40 80 81
f 40 81 82
f 40 82 83
f 40 83 41
f 41 84 42
f 41 83 84
f 42 85 43
f 42 84 85
f 43 86 138
f 43 138 91
f 43 91 44
f 43 85 87
f 43 87 88
f 43 88 89
f 43 89 90
f 43 90 86
f 44 91 92
f 47 93 48
f 48 93 94
f 49 51 59
f 50 56 51
f 51 56 95
f 51 95 96
f 51 96 59
f 52 97 53
f 53 98 99
f 53 99 100
f 53 100 54
f 53 97 101
f 53 101 102
f 53 102 98
f 54 103 104
f 54 104 55
f 54 100 103
f 55 104 56
f 56 104 95
f 57 58 63
f 58 62 63
f 59 96 60
f 60 96 105
f 60 105 106
f 60 106 61
f 61 106 107
f 61 107 62
f 62 107 108
f 62 108 109
f 62 109 63
f 63 109 64
f 64 109 65
f 65 109 110
f 65 110 69
f 66 111 112
f 66 112 67
f 66 69 111
f 67 112 113
f 67 113 73
f 67 73 68
f 68 73 70
f 69 110 114
f 69 114 111
f 71 115 116
f 71 116 72
f 73 113 117
f 73 117 74
f 74 118 119
f 74 119 120
f 74 120 121
f 74 121 75
f 74 117 118
f 75 121 76
f 76 121 122
f 76 122 78
f 78 122 123
f 78 123 124
f 78 124 79
f 79 124 80
f 80 124 81
f 81 124 125
f 81 125 126
f 81 126 127
f 81 127 128
f 81 128 82
f 82 128 129
f 82 129 130
f 82 130 84
f 82 84 83
f 84 130 131
f 84 131 132
f 84 132 85
f 85 132 133
f 85 133 87
f 86 134 135
f 86 135 136
f 86 136 137
f 86 137 138
f 86 90 134
f 87 133 88
f 88 90 89
f 88 133 139
f 88 139 140
f 88 140 141
f 88 141 90
f 90 141 142
f 90 142 135
f 90 135 134
f 91 138 143
f 91 143 144
f 91 144 92
f 92 144 145
f 92 145 146
f 93 147 94
f 94 147 116
f 94 116 115
f 95 104 103
f 95 103 148
f 95 148 96
f 96 148 105
f 98 149 99
f 98 102 150
f 98 150 149
f 99 149 151
f 99 151 103
f 99 103 100
f 101 152 102
f 101 146 152
f 102 152 153
f 102 153 154
f 102 154 155
f 102 155 156
f 102 156 150
f 103 157 148
f 103 151 158
f 103 158 157
f 105 148 159
f 105 159 160
f 105 160 106
f 106 161 107
f 106 160 162
f 106 162 163
f 106 163 161
f 107 161 164
f 107 164 108
f 108 110 109
f 108 164 165
f 108 165 114
f 108 114 110
f 111 114 165
f 111 165 164
f 111 164 166
f 111 166 167
f 111 167 112
f 112 167 168
f 112 168 113
f 113 168 169
f 113 169 117
f 117 169 170
f 117 170 118
f 118 171 172
f 118 172 119
f 118 170 171
f 119 172 173
f 119 173 120
f 120 173 174
f 120 174 125
f 120 125 124
f 120 124 123
f 120 123 121
f 121 123 175
f 121 175 122
f 122 175 123
f 125 174 176
f 125 176 127
f 125 127 126
f 127 176 177
f 127 177 128
f 128 177 131
f 128 131 129
f 129 131 130
f 131 177 132
f 132 177 139
f 132 139 133
f 135 142 178
f 135 178 136
f 136 178 179
f 136 179 180
f 136 180 137
f 137 180 181
f 137 181 138
f 138 181 182
f 138 182 183
f 138 183 143
f 139 177 184
f 139 184 140
f 140 184 185
f 140 185 141
f 141 185 186
f 141 186 187
f 141 187 188
f 141 188 142
f 142 188 189
f 142 189 178
f 143 183 190
f 143 190 144
f 144 190 145
f 145 190 191
f 145 191 146
f 146 191 192
f 146 192 193
f 146 193 152
f 148 160 159
f 148 157 160
f 149 150 155
f 149 155 154
f 149 154 194
f 149 194 195
f 149 195 196
f 149 196 158
f 149 158 151
f 150 156 155
f 152 193 153
f 153 193 197
f 153 197 198
f 153 198 154
f 154 198 199
f 154 199 194
f 157 200 160
f 157 158 201
f 157 201 202
f 157 202 200
f 158 196 201
f 160 200 162
f 161 163 203
f 161 203 164
f 162 200 163
f 163 200 204
f 163 204 203
f 164 203 205
f 164 205 206
f 164 206 166
f 166 206 167
f 167 169 168
f 167 206 207
f 167 207 208
f 167 208 209
f 167 209 210
f 167 210 169
f 169 210 170
f 170 210 171
f 171 210 172
f 172 210 211
f 172 211 212
f 172 212 173
f 173 212 213
f 173 213 214
f 173 214 215
f 173 215 216
f 173 216 174
f 174 216 177
f 174 177 176
f 177 216 217
f 177 217 184
f 178 189 218
f 178 218 179
f 179 219 180
f 179 218 220
f 179 220 221
f 179 221 219
f 180 219 222
f 180 222 182
f 180 182 181
f 182 190 183
f 182 222 223
f 182 223 224
f 182 224 190
f 184 217 225
f 184 225 185
f 185 225 186
f 186 225 226
f 186 226 227
f 186 227 228
f 186 228 187
f 187 228 229
f 187 229 189
f 187 189 188
f 189 229 218
f 190 224 197
f 190 197 191
f 191 197 193
f 191 193 192
f 194 230 231
f 194 231 195
f 194 199 229
f 194 229 230
f 195 232 233
f 195 233 196
f 195 231 234
f 195 234 232
f 196 233 201
f 197 224 198
f 198 224 223
f 198 223 222
f 198 222 221
f 198 221 199
f 199 221 220
f 199 220 218
f 199 218 229
f 200 202 235
f 200 235 204
f 201 233 202
f 202 233 236
f 202 236 235
f 203 204 237
f 203 237 207
f 203 207 205
f 204 235 236
f 204 236 237
f 205 207 206
f 207 236 238
f 207 238 208
f 207 237 236
f 208 238 239
f 208 239 240
f 208 240 211
f 208 211 210
f 208 210 209
f 211 240 213
f 211 213 212
f 213 240 241
f 213 241 242
f 213 242 243
f 213 243 244
f 213 244 227
f 213 227 226
f 213 226 245
f 213 245 214
f 214 245 217
f 214 217 215
f 215 217 216
f 217 245 246
f 217 246 225
f 219 221 222
f 225 246 226
f 226 246 245
f 227 244 247
f 227 247 248
f 227 248 228
f 228 248 249
f 228 249 229
f 229 249 230
f 230 249 231
f 231 249 234
f 232 234 249
f 232 249 250
f 232 250 251
f 232 251 233
f 233 251 252
f 233 252 236
f 236 252 253
f 236 253 254
f 236 254 238
f 238 254 255
f 238 255 239
f 239 255 241
f 239 241 240
f 241 255 242
f 242 247 243
f 242 255 247
f 243 247 244
f 247 255 250
f 247 250 248
f 248 250 249
f 250 255 253
f 250 253 251
f 251 253 252
f 253 255 254
