v 0.0942079 -0.0585615 -0.397579
v 0.0986292 -0.0585615 -0.400616
v 0.0942079 -0.0585615 -0.321411
v 0.0942079 0.16785 -0.409811
v 0.0942576 0.137814 -0.41275
v 0.103994 -0.0585615 -0.404274
v 0.252555 -0.0585615 -0.246028
v 0.207373 0.196288 -0.246028
v 0.0942576 0.196263 -0.309686
v 0.0942079 0.196288 -0.33869
v 0.0942079 0.169396 -0.409402
v 0.0950524 0.167076 -0.409696
v 0.0942576 0.152308 -0.412505
v 0.123319 0.0797399 -0.412521
v 0.123319 0.0652961 -0.41275
v 0.123319 -0.0585615 -0.412864
v 0.111247 -0.0585615 -0.408994
v 0.337205 -0.0585615 -0.246028
v 0.299351 0.195914 -0.246028
v 0.293638 0.196288 -0.25372
v 0.0942079 0.196288 -0.392957
v 0.10315 0.162436 -0.407312
v 0.0942079 0.177529 -0.406659
v 0.105882 0.152283 -0.408716
v 0.109856 0.138488 -0.409794
v 0.108813 0.123271 -0.412375
v 0.136558 0.0652961 -0.409484
v 0.137825 0.0362837 -0.410872
v 0.137825 0.0217651 -0.411378
v 0.137825 0.00727138 -0.41164
v 0.123319 0.0942585 -0.41146
v 0.137825 -0.00724726 -0.411819
v 0.137825 -0.021741 -0.411836
v 0.137825 -0.0362347 -0.411623
v 0.137825 -0.0507533 -0.41079
v 0.138371 -0.0585615 -0.409876
v 0.335268 -0.0585615 -0.249082
v 0.33872 -0.0510776 -0.246028
v 0.3034 0.186734 -0.246028
v 0.289068 0.196288 -0.259779
v 0.294011 0.195041 -0.253949
v 0.290583 0.189677 -0.261738
v 0.0942079 0.195091 -0.393904
v 0.193588 0.196288 -0.339522
v 0.203796 0.196288 -0.333954
v 0.210056 0.196288 -0.330214
v 0.117805 0.134147 -0.407377
v 0.0942079 0.184713 -0.401906
v 0.120189 0.123271 -0.4087
v 0.134695 0.0797399 -0.408782
v 0.145599 0.0469856 -0.406577
v 0.146394 0.0362837 -0.407214
v 0.147189 0.0217651 -0.407786
v 0.147462 0.00727138 -0.407965
v 0.124114 0.108478 -0.409223
v 0.147487 -0.00724726 -0.408014
v 0.147388 -0.021741 -0.407932
v 0.146866 -0.0362347 -0.407573
v 0.145276 -0.0585615 -0.406283
v 0.145872 -0.0507533 -0.406822
v 0.33035 -0.0585615 -0.256317
v 0.344557 -0.021741 -0.246028
v 0.341676 -0.0362347 -0.246028
v 0.30417 0.184813 -0.246028
v 0.300195 0.18162 -0.253377
v 0.282287 0.196288 -0.267928
v 0.281169 0.196288 -0.269234
v 0.292421 0.181296 -0.263878
v 0.196941 0.196288 -0.33771
v 0.239415 0.196288 -0.309114
v 0.222152 0.196039 -0.32244
v 0.214874 0.181296 -0.331961
v 0.216961 0.172689 -0.333202
v 0.228685 0.152283 -0.331406
v 0.131168 0.103464 -0.406593
v 0.132534 0.0942585 -0.407622
v 0.230846 0.141282 -0.332843
v 0.144755 0.0566647 -0.405842
v 0.232336 0.131603 -0.333774
v 0.245799 0.0841554 -0.333104
v 0.247016 0.0745012 -0.333872
v 0.255014 0.0652961 -0.329381
v 0.255883 0.0507774 -0.330132
v 0.26721 0.0362837 -0.32342
v 0.26788 0.0217651 -0.323828
v 0.269644 0.00694709 -0.323192
v 0.27563 0.00190797 -0.319158
v 0.25797 -0.00724726 -0.331422
v 0.257597 -0.021741 -0.331194
v 0.267508 -0.0362347 -0.323649
v 0.266762 -0.0507533 -0.323159
v 0.256355 -0.0507533 -0.330393
v 0.255759 -0.0585615 -0.329985
v 0.323097 -0.0585615 -0.266638
v 0.317682 -0.0585615 -0.273889
v 0.346842 -0.00724726 -0.246028
v 0.306629 0.178252 -0.246028
v 0.305635 0.17698 -0.248249
v 0.302406 0.166777 -0.258097
v 0.275605 0.196288 -0.275636
v 0.286112 0.181296 -0.271129
v 0.29416 0.165455 -0.268728
v 0.288471 0.169396 -0.273807
v 0.24098 0.196288 -0.307824
v 0.247239 0.190002 -0.305211
v 0.239763 0.195191 -0.309261
v 0.231591 0.187557 -0.318782
v 0.22938 0.196039 -0.317231
v 0.225977 0.182144 -0.324351
v 0.240036 0.151809 -0.32342
v 0.233752 0.177903 -0.320301
v 0.236062 0.166777 -0.321999
v 0.247115 0.14667 -0.31955
v 0.238024 0.136991 -0.328581
v 0.261248 0.102241 -0.319272
v 0.253797 0.0942585 -0.325902
v 0.252629 0.0795154 -0.329169
v 0.263682 0.0797399 -0.32115
v 0.264924 0.0652961 -0.32213
v 0.266141 0.0507774 -0.322898
v 0.274462 0.0362837 -0.31826
v 0.275108 0.0217651 -0.318782
v 0.275406 0.0115621 -0.318978
v 0.27563 -0.00180901 -0.319158
v 0.281392 0.00694709 -0.31403
v 0.291179 0.00727138 -0.305603
v 0.291303 -0.00724726 -0.305734
v 0.26788 -0.021741 -0.323959
v 0.274761 -0.0362347 -0.318488
v 0.274015 -0.0507533 -0.3179
v 0.266092 -0.0585615 -0.322751
v 0.306256 -0.0585615 -0.286904
v 0.304244 -0.0548944 -0.289746
v 0.318154 -0.0507533 -0.274476
v 0.318675 -0.0394527 -0.275146
v 0.319122 -0.0297736 -0.275669
v 0.34796 0.00727138 -0.246028
v 0.307945 0.17466 -0.246028
v 0.318849 0.144051 -0.246093
v 0.307498 0.166777 -0.250862
v 0.337255 0.0923377 -0.246028
v 0.303921 0.157572 -0.260269
v 0.276723 0.191249 -0.276877
v 0.272003 0.181296 -0.286545
v 0.268302 0.196288 -0.283034
v 0.278859 0.181296 -0.279294
v 0.299401 0.152558 -0.267568
v 0.300965 0.137765 -0.271439
v 0.290111 0.159717 -0.275669
v 0.282262 0.165255 -0.282283
v 0.274338 0.170768 -0.288913
v 0.245724 0.196288 -0.303905
v 0.264751 0.181296 -0.293355
v 0.256504 0.181296 -0.300622
v 0.259137 0.169671 -0.302925
v 0.249251 0.181296 -0.306893
v 0.238869 0.182144 -0.314961
v 0.243315 0.166777 -0.316692
v 0.245376 0.156349 -0.318243
v 0.252679 0.151809 -0.313801
v 0.255809 0.137765 -0.315042
v 0.248556 0.137765 -0.320628
v 0.250816 0.123271 -0.322261
v 0.26947 0.0942585 -0.314112
v 0.262217 0.0942585 -0.319991
v 0.259808 0.11192 -0.318162
v 0.275456 0.115712 -0.304525
v 0.276673 0.106033 -0.305619
v 0.270935 0.0797399 -0.31532
v 0.272177 0.0652961 -0.316333
v 0.273394 0.0507774 -0.317361
v 0.28179 0.0507774 -0.31011
v 0.289043 0.0507774 -0.303692
v 0.284025 0.035685 -0.3098
v 0.290608 0.0217651 -0.305081
v 0.282783 0.0217651 -0.312021
v 0.281392 -0.00687307 -0.314144
v 0.275133 -0.021741 -0.318782
v 0.304964 0.0362837 -0.290513
v 0.305461 0.0217651 -0.291003
v 0.298432 0.00727138 -0.298663
v 0.298556 -0.00724726 -0.298744
v 0.290906 -0.021741 -0.305375
v 0.282783 -0.0362347 -0.311531
v 0.290061 -0.0436437 -0.304623
v 0.289515 -0.0533228 -0.304133
v 0.27799 -0.0585615 -0.313475
v 0.273345 -0.0585615 -0.317361
v 0.283926 -0.0493813 -0.309441
v 0.303971 -0.0585615 -0.289485
v 0.292471 -0.0585615 -0.300622
v 0.304716 -0.0452402 -0.290285
v 0.309733 -0.0503292 -0.284095
v 0.319421 -0.021741 -0.276028
v 0.319818 -0.00724726 -0.276485
v 0.313136 -0.00724726 -0.283752
v 0.319868 0.00727138 -0.276534
v 0.347339 0.0217152 -0.246028
v 0.341452 0.0797399 -0.246028
v 0.262341 0.191199 -0.291281
v 0.261099 0.196288 -0.290121
v 0.291353 0.152283 -0.277008
v 0.303251 0.123271 -0.274117
v 0.276052 0.161114 -0.290595
v 0.261223 0.159992 -0.30477
v 0.251909 0.196288 -0.298401
v 0.254095 0.165604 -0.308559
v 0.26254 0.152283 -0.305864
v 0.264875 0.137765 -0.307791
v 0.258069 0.123271 -0.31679
v 0.278114 0.0942585 -0.306844
v 0.267085 0.123271 -0.309539
v 0.290136 0.116311 -0.290187
v 0.282038 0.110025 -0.299626
v 0.285367 0.0942585 -0.30023
v 0.274338 0.123271 -0.303545
v 0.279579 0.0797399 -0.308053
v 0.280771 0.0652961 -0.309082
v 0.288024 0.0652961 -0.302843
v 0.304641 0.0441917 -0.290187
v 0.289689 0.0401504 -0.304264
v 0.290185 0.0304713 -0.304721
v 0.345054 0.0507774 -0.246028
v 0.346197 0.0362837 -0.246028
v 0.312714 0.0217651 -0.283262
v 0.313062 0.00727138 -0.283785
v 0.305809 0.00727138 -0.291412
v 0.305536 -0.021741 -0.291134
v 0.298159 -0.021741 -0.298385
v 0.305883 -0.00724726 -0.291493
v 0.290359 -0.0362347 -0.304885
v 0.297612 -0.0362347 -0.297862
v 0.289142 -0.0585615 -0.30379
v 0.305039 -0.0362347 -0.290611
v 0.312789 -0.021741 -0.283295
v 0.343837 0.0652961 -0.246028
v 0.303077 0.0652961 -0.288505
v 0.30181 0.0797399 -0.287068
v 0.292918 0.0942585 -0.292963
v 0.291104 0.108777 -0.291167
v 0.304418 0.115463 -0.275424
v 0.293737 0.137765 -0.279523
v 0.286931 0.137765 -0.286774
v 0.277443 0.152283 -0.291983
v 0.272128 0.137765 -0.301471
v 0.269793 0.152283 -0.299234
v 0.286832 0.0797399 -0.301733
v 0.283429 0.121999 -0.295086
v 0.279679 0.137765 -0.294204
v 0.28872 0.12599 -0.288684
v 0.294557 0.0797399 -0.294482
v 0.295824 0.0652961 -0.295592
v 0.303921 0.0538458 -0.289452
f 1 2 6
f 1 6 17
f 1 17 16
f 1 16 36
f 1 36 59
f 1 59 93
f 1 93 131
f 1 131 188
f 1 188 187
f 1 187 233
f 1 233 191
f 1 191 190
f 1 190 132
f 1 132 95
f 1 95 94
f 1 94 61
f 1 61 37
f 1 37 18
f 1 18 7
f 1 7 3
f 1 3 10
f 1 10 21
f 1 21 43
f 1 43 48
f 1 48 23
f 1 23 11
f 1 11 4
f 1 4 5
f 1 5 2
f 2 5 6
f 3 7 8
f 3 8 9
f 3 9 10
f 4 11 12
f 4 12 13
f 4 13 5
f 5 13 14
f 5 14 15
f 5 15 16
f 5 16 17
f 5 17 6
f 7 18 38
f 7 38 63
f 7 63 62
f 7 62 96
f 7 96 137
f 7 137 198
f 7 198 224
f 7 224 223
f 7 223 236
f 7 236 199
f 7 199 141
f 7 141 138
f 7 138 97
f 7 97 64
f 7 64 39
f 7 39 19
f 7 19 8
f 8 19 20
f 8 20 40
f 8 40 66
f 8 66 67
f 8 67 100
f 8 100 145
f 8 145 201
f 8 201 206
f 8 206 152
f 8 152 104
f 8 104 70
f 8 70 46
f 8 46 45
f 8 45 69
f 8 69 44
f 8 44 21
f 8 21 10
f 8 10 9
f 11 22 12
f 11 23 22
f 12 22 24
f 12 24 13
f 13 24 25
f 13 25 26
f 13 26 14
f 14 27 28
f 14 28 29
f 14 29 30
f 14 30 15
f 14 26 31
f 14 31 27
f 15 30 32
f 15 32 33
f 15 33 16
f 16 33 34
f 16 34 35
f 16 35 36
f 18 37 38
f 19 39 20
f 20 39 41
f 20 41 42
f 20 42 40
f 21 44 43
f 22 23 45
f 22 45 46
f 22 46 47
f 22 47 24
f 23 48 45
f 24 47 49
f 24 49 25
f 25 49 26
f 26 49 31
f 27 31 50
f 27 50 51
f 27 51 52
f 27 52 28
f 28 52 53
f 28 53 29
f 29 53 54
f 29 54 30
f 30 54 32
f 31 49 55
f 31 55 50
f 32 56 33
f 32 54 56
f 33 56 57
f 33 57 34
f 34 57 58
f 34 58 35
f 35 58 36
f 36 58 60
f 36 60 59
f 37 61 62
f 37 62 63
f 37 63 38
f 39 64 65
f 39 65 41
f 40 42 66
f 41 65 42
f 42 67 66
f 42 65 68
f 42 68 67
f 43 44 48
f 44 69 48
f 45 48 69
f 46 70 71
f 46 71 72
f 46 72 47
f 47 72 73
f 47 73 74
f 47 74 49
f 49 75 76
f 49 76 55
f 49 74 77
f 49 77 75
f 50 78 51
f 50 55 76
f 50 76 79
f 50 79 80
f 50 80 78
f 51 78 81
f 51 81 52
f 52 81 82
f 52 82 83
f 52 83 84
f 52 84 53
f 53 84 85
f 53 85 86
f 53 86 54
f 54 86 87
f 54 87 56
f 56 87 88
f 56 88 57
f 57 88 89
f 57 89 90
f 57 90 58
f 58 90 91
f 58 91 92
f 58 92 60
f 59 60 93
f 60 92 93
f 61 94 62
f 62 94 95
f 62 95 96
f 64 97 98
f 64 98 65
f 65 98 99
f 65 99 68
f 67 68 100
f 68 101 100
f 68 99 102
f 68 102 103
f 68 103 101
f 70 104 105
f 70 105 106
f 70 106 107
f 70 107 108
f 70 108 71
f 71 108 107
f 71 107 109
f 71 109 72
f 72 109 73
f 73 109 74
f 74 110 77
f 74 109 111
f 74 111 112
f 74 112 110
f 75 77 76
f 76 77 79
f 77 110 113
f 77 113 114
f 77 114 115
f 77 115 79
f 78 80 81
f 79 115 116
f 79 116 80
f 80 116 117
f 80 117 81
f 81 117 82
f 82 117 118
f 82 118 119
f 82 119 120
f 82 120 83
f 83 120 84
f 84 120 121
f 84 121 122
f 84 122 85
f 85 122 86
f 86 122 123
f 86 123 87
f 87 124 88
f 87 123 125
f 87 125 126
f 87 126 127
f 87 127 124
f 88 128 89
f 88 124 128
f 89 128 90
f 90 128 129
f 90 129 91
f 91 129 130
f 91 130 131
f 91 131 93
f 91 93 92
f 95 132 133
f 95 133 134
f 95 134 96
f 96 134 135
f 96 135 136
f 96 136 137
f 97 138 98
f 98 138 139
f 98 139 140
f 98 140 99
f 99 140 141
f 99 141 142
f 99 142 102
f 100 143 144
f 100 144 145
f 100 101 143
f 101 103 146
f 101 146 143
f 102 142 147
f 102 147 148
f 102 148 149
f 102 149 103
f 103 149 150
f 103 150 151
f 103 151 146
f 104 152 105
f 105 107 106
f 105 152 153
f 105 153 154
f 105 154 155
f 105 155 156
f 105 156 157
f 105 157 107
f 107 157 158
f 107 158 111
f 107 111 109
f 110 112 159
f 110 159 113
f 111 158 112
f 112 158 159
f 113 159 160
f 113 160 161
f 113 161 162
f 113 162 114
f 114 162 163
f 114 163 115
f 115 164 165
f 115 165 116
f 115 163 166
f 115 166 167
f 115 167 168
f 115 168 164
f 116 165 117
f 117 165 118
f 118 169 170
f 118 170 171
f 118 171 119
f 118 165 169
f 119 171 121
f 119 121 120
f 121 171 172
f 121 172 173
f 121 173 174
f 121 174 175
f 121 175 176
f 121 176 122
f 122 176 126
f 122 126 123
f 123 126 125
f 124 127 177
f 124 177 178
f 124 178 128
f 126 176 175
f 126 175 179
f 126 179 180
f 126 180 181
f 126 181 127
f 127 182 229
f 127 229 183
f 127 183 129
f 127 129 177
f 127 181 182
f 128 178 129
f 129 178 177
f 129 183 184
f 129 184 185
f 129 185 130
f 130 186 187
f 130 187 188
f 130 188 131
f 130 185 189
f 130 189 186
f 132 190 133
f 133 190 191
f 133 191 186
f 133 186 185
f 133 185 192
f 133 192 193
f 133 193 134
f 134 193 135
f 135 193 136
f 136 193 192
f 136 192 194
f 136 194 137
f 137 194 195
f 137 195 196
f 137 196 197
f 137 197 198
f 138 141 139
f 139 141 140
f 141 199 142
f 142 199 147
f 143 146 144
f 144 146 151
f 144 151 153
f 144 153 200
f 144 200 201
f 144 201 145
f 147 199 148
f 148 202 149
f 148 199 203
f 148 203 202
f 149 202 150
f 150 202 204
f 150 204 151
f 151 155 153
f 151 204 205
f 151 205 155
f 152 206 153
f 153 155 154
f 153 206 200
f 155 205 156
f 156 205 207
f 156 207 157
f 157 207 158
f 158 207 205
f 158 205 159
f 159 205 160
f 160 208 161
f 160 205 208
f 161 208 209
f 161 209 210
f 161 210 162
f 162 210 166
f 162 166 163
f 164 168 211
f 164 211 217
f 164 217 169
f 164 169 165
f 166 210 209
f 166 209 212
f 166 212 167
f 167 213 214
f 167 214 215
f 167 215 168
f 167 212 209
f 167 209 216
f 167 216 213
f 168 215 211
f 169 217 170
f 170 217 171
f 171 217 218
f 171 218 219
f 171 219 172
f 172 219 173
f 173 220 221
f 173 221 174
f 173 219 220
f 174 222 175
f 174 221 222
f 175 222 220
f 175 220 179
f 179 220 223
f 179 223 224
f 179 224 198
f 179 198 225
f 179 225 180
f 180 225 197
f 180 197 226
f 180 226 227
f 180 227 181
f 181 227 182
f 182 228 229
f 182 227 230
f 182 230 228
f 183 229 231
f 183 231 184
f 184 231 185
f 185 231 232
f 185 232 192
f 185 186 189
f 186 191 233
f 186 233 187
f 192 232 229
f 192 229 234
f 192 234 235
f 192 235 194
f 194 235 195
f 195 235 196
f 196 235 228
f 196 228 230
f 196 230 197
f 197 225 198
f 197 230 226
f 199 236 237
f 199 237 238
f 199 238 239
f 199 239 240
f 199 240 213
f 199 213 241
f 199 241 203
f 200 206 201
f 202 203 242
f 202 242 204
f 203 241 242
f 204 242 243
f 204 243 244
f 204 244 245
f 204 245 246
f 204 246 205
f 205 246 245
f 205 245 208
f 208 245 216
f 208 216 209
f 211 215 247
f 211 247 217
f 213 240 214
f 213 216 248
f 213 248 249
f 213 249 250
f 213 250 241
f 214 240 239
f 214 239 215
f 215 239 251
f 215 251 247
f 216 245 249
f 216 249 248
f 217 219 218
f 217 247 219
f 219 247 252
f 219 252 220
f 220 222 221
f 220 252 253
f 220 253 236
f 220 236 223
f 226 230 227
f 228 235 234
f 228 234 229
f 229 232 231
f 236 253 237
f 237 253 252
f 237 252 251
f 237 251 238
f 238 251 239
f 241 250 243
f 241 243 242
f 243 250 244
f 244 250 249
f 244 249 245
f 247 251 252
