v 0.543876 0.0750272 0.362673
v 0.552146 0.0744763 0.362634
v 0.543876 0.0822808 0.362428
v 0.535906 0.0738795 0.362609
v 0.535884 0.0652946 0.362621
v 0.544299 0.0642616 0.362647
v 0.552146 0.0684164 0.362634
v 0.557544 0.0794804 0.362092
v 0.558379 0.0942401 0.361318
v 0.543876 0.0942401 0.361912
v 0.557544 0.0642616 0.362234
v 0.528638 0.0652946 0.362144
v 0.529395 0.0942401 0.361434
v 0.530408 0.0791131 0.362157
v 0.538066 0.0577196 0.362609
v 0.549419 0.0587525 0.362557
v 0.572882 0.0652946 0.360634
v 0.572882 0.0797329 0.36035
v 0.572882 0.0942401 0.359614
v 0.572882 0.10877 0.358156
v 0.558379 0.10877 0.359756
v 0.543876 0.10877 0.360311
v 0.558379 0.0507874 0.361666
v 0.572882 0.0507874 0.360221
v 0.514892 0.0797329 0.360892
v 0.514892 0.0652946 0.360763
v 0.530686 0.0520499 0.361834
v 0.514892 0.0942401 0.360272
v 0.529395 0.10877 0.359795
v 0.544299 0.0520499 0.362221
v 0.529395 0.0362802 0.360711
v 0.543876 0.0362802 0.361163
v 0.558379 0.0362802 0.360647
v 0.587384 0.0652946 0.358156
v 0.587384 0.0797329 0.357717
v 0.587384 0.0942401 0.356801
v 0.587384 0.10877 0.3552
v 0.572882 0.123254 0.355742
v 0.558379 0.123254 0.357214
v 0.543876 0.123254 0.357614
v 0.529395 0.123254 0.357188
v 0.572882 0.0362802 0.358982
v 0.587384 0.0507874 0.357743
v 0.500389 0.0797329 0.358672
v 0.500389 0.0652946 0.358659
v 0.514892 0.0507874 0.360195
v 0.514892 0.0362802 0.359292
v 0.500389 0.0942401 0.358014
v 0.514892 0.10877 0.35853
v 0.529395 0.021773 0.359188
v 0.543876 0.021773 0.359472
v 0.558379 0.021773 0.358801
v 0.599383 0.0640321 0.355213
v 0.599383 0.0797329 0.354852
v 0.599383 0.0942401 0.353703
v 0.599383 0.109757 0.351741
v 0.587384 0.123254 0.352606
v 0.572882 0.137762 0.352025
v 0.558379 0.137762 0.353638
v 0.543876 0.137762 0.354026
v 0.529395 0.137762 0.353587
v 0.514892 0.123254 0.355858
v 0.572882 0.021773 0.357033
v 0.587384 0.0362802 0.356413
v 0.599383 0.0507874 0.354697
v 0.485775 0.0797329 0.355355
v 0.485775 0.0652946 0.355394
v 0.500389 0.0507874 0.357962
v 0.500389 0.0362802 0.356775
v 0.500389 0.021773 0.355213
v 0.514892 0.021773 0.357704
v 0.500389 0.10877 0.356246
v 0.48573 0.0941482 0.354606
v 0.514892 0.00726581 0.355161
v 0.529395 0.00726581 0.356581
v 0.543876 0.00726581 0.356633
v 0.558379 0.00726581 0.35591
v 0.599383 0.122635 0.34934
v 0.595688 0.131564 0.348385
v 0.586193 0.136935 0.34934
v 0.580561 0.145337 0.348179
v 0.572882 0.147196 0.348876
v 0.558379 0.149491 0.349766
v 0.543876 0.149905 0.349986
v 0.529395 0.149009 0.349728
v 0.514892 0.147104 0.348927
v 0.514892 0.137762 0.352077
v 0.500389 0.123254 0.353342
v 0.572882 0.00726581 0.354103
v 0.587384 0.021773 0.354335
v 0.599383 0.0350177 0.353225
v 0.485686 0.0077249 0.349508
v 0.48573 0.0216582 0.351754
v 0.485775 0.0507874 0.354697
v 0.485775 0.0362802 0.353406
v 0.500389 0.00726581 0.352735
v 0.485775 0.108724 0.352709
v 0.485686 0.123071 0.349741
v 0.500389 -0.00473935 0.349624
v 0.513879 -0.00850387 0.350683
v 0.529395 -0.00724138 0.352606
v 0.543876 -0.00724138 0.352541
v 0.559681 -0.0086416 0.350876
v 0.599383 0.13643 0.34574
v 0.590234 0.141228 0.346914
v 0.586193 0.151029 0.344552
v 0.572882 0.154427 0.346204
v 0.558379 0.156745 0.346953
v 0.543876 0.157158 0.347069
v 0.529395 0.156263 0.346617
v 0.514892 0.154335 0.345843
v 0.5066 0.145566 0.348282
v 0.501224 0.13767 0.349637
v 0.488157 0.131518 0.348398
v 0.572882 -0.00522139 0.350167
v 0.584246 -0.00221436 0.348979
v 0.593918 0.000609031 0.347908
v 0.588397 0.006164 0.350657
v 0.599227 0.0116501 0.34916
v 0.599383 0.0216353 0.351147
v 0.485686 -0.0238604 0.337866
v 0.485719 -0.00673638 0.345804
v 0.490661 -0.00182414 0.348669
v 0.485753 0.13767 0.34583
v 0.48573 0.152154 0.340086
v 0.48573 0.168888 0.32847
v 0.485686 0.178643 0.297314
v 0.500389 -0.0120159 0.347224
v 0.50837 -0.0141736 0.347959
v 0.518031 -0.0156656 0.348695
v 0.529395 -0.0165838 0.349173
v 0.543876 -0.0164461 0.349095
v 0.555707 -0.015505 0.348605
v 0.56538 -0.0144032 0.348037
v 0.599383 0.153049 0.339557
v 0.599372 0.162575 0.335285
v 0.586527 0.167166 0.336705
v 0.572882 0.166753 0.339906
v 0.558379 0.166753 0.341403
v 0.543876 0.166753 0.34148
v 0.529395 0.166753 0.340448
v 0.501224 0.151144 0.344655
v 0.515126 0.16774 0.337879
v 0.500389 0.16432 0.337144
v 0.496939 0.142444 0.347275
v 0.572882 -0.0124979 0.347198
v 0.588397 -0.00714956 0.345856
v 0.599383 0.00412105 0.347017
v 0.599383 -0.00721843 0.342358
v 0.485686 -0.0365542 0.326612
v 0.488624 -0.0303335 0.334653
v 0.500389 -0.0217256 0.342371
v 0.485775 0.161726 0.33513
v 0.500389 0.171596 0.330949
v 0.485775 0.175292 0.321139
v 0.485775 0.178368 0.311873
v 0.500389 0.18025 0.311821
v 0.514892 0.181811 0.311821
v 0.579237 0.188583 0.304671
v 0.599383 0.189363 0.286227
v 0.598682 0.187527 0.280071
v 0.485686 0.175568 0.287556
v 0.513879 -0.0209911 0.345055
v 0.529395 -0.0238145 0.344862
v 0.543876 -0.0236997 0.34463
v 0.559681 -0.0208993 0.344655
v 0.572882 -0.0217256 0.341519
v 0.586761 -0.0223913 0.337505
v 0.599383 0.168773 0.331413
v 0.59079 0.172285 0.332342
v 0.581129 0.174328 0.33384
v 0.572882 0.17504 0.334537
v 0.558379 0.175774 0.335272
v 0.543876 0.175728 0.335234
v 0.529395 0.175108 0.33464
v 0.520123 0.174489 0.334046
v 0.510451 0.173203 0.332601
v 0.599383 -0.0194302 0.335608
v 0.485686 -0.0450932 0.295455
v 0.485931 -0.0444734 0.313047
v 0.492008 -0.0435782 0.319268
v 0.500389 -0.0317567 0.335969
v 0.500389 0.176692 0.323695
v 0.529395 0.179791 0.326315
v 0.558379 0.186012 0.311821
v 0.573794 0.187366 0.310685
v 0.587384 0.188835 0.305742
v 0.599383 0.18934 0.299521
v 0.599383 0.185048 0.274275
v 0.599383 0.181054 0.267396
v 0.485686 0.169393 0.280316
v 0.514892 -0.0327896 0.337131
v 0.529395 -0.0329044 0.337608
v 0.543876 -0.0324224 0.337389
v 0.558379 -0.0317567 0.336576
v 0.572882 -0.0304942 0.33513
v 0.581508 -0.0293924 0.333982
v 0.599383 0.17722 0.324508
v 0.586527 0.178598 0.327025
v 0.572882 0.181123 0.326315
v 0.558379 0.181696 0.326315
v 0.543876 0.181054 0.326315
v 0.515126 0.177404 0.327193
v 0.59118 -0.0276479 0.332058
v 0.599383 -0.0257426 0.330226
v 0.510418 -0.0438766 0.303354
v 0.500389 -0.0445423 0.311821
v 0.485686 -0.0407548 0.282962
v 0.599383 -0.0319403 0.282703
v 0.599383 -0.0360492 0.297314
v 0.500389 -0.043693 0.319526
v 0.514647 -0.0405712 0.325115
v 0.500389 -0.0389873 0.32678
v 0.587384 0.186746 0.312982
v 0.599327 0.188835 0.305471
v 0.599383 0.185025 0.313047
v 0.599383 0.168612 0.252902
v 0.485686 0.162116 0.273527
v 0.529395 -0.0395612 0.326315
v 0.543876 -0.0386201 0.326315
v 0.558379 -0.0374035 0.326315
v 0.572882 -0.0352228 0.326315
v 0.586761 -0.0320551 0.32687
v 0.599383 -0.0311828 0.323153
v 0.558379 -0.0399973 0.311821
v 0.51123 -0.0439225 0.311821
v 0.50965 -0.0436471 0.319475
v 0.485686 -0.0324683 0.27132
v 0.599383 -0.0267756 0.274469
v 0.599383 -0.0351999 0.311821
v 0.587384 -0.0371051 0.311821
v 0.572882 -0.0387119 0.311821
v 0.599383 0.15197 0.24228
v 0.485686 0.151121 0.266751
v 0.485686 -0.0229652 0.264208
v 0.599383 -0.0115109 0.260827
v 0.599383 -0.0213813 0.26919
v 0.599383 0.137968 0.238111
v 0.485686 0.123254 0.255884
v 0.485686 0.136545 0.260104
v 0.485686 0.141802 0.262298
v 0.485686 -0.00701184 0.257471
v 0.599383 0.0220025 0.242512
v 0.599383 0.00726581 0.249598
v 0.599383 -0.00503776 0.256309
v 0.599383 0.123254 0.23553
v 0.485686 0.108885 0.253302
v 0.485686 0.00726581 0.253896
v 0.599383 0.0507874 0.233697
v 0.599383 0.0362802 0.237337
v 0.599383 0.0917839 0.231516
v 0.485686 0.0944008 0.251934
v 0.485686 0.021773 0.25267
v 0.599383 0.0652946 0.231658
v 0.599383 0.0797329 0.230819
v 0.485686 0.0800772 0.251895
f 1 2 3
f 1 3 4
f 1 4 5
f 1 5 6
f 1 6 7
f 1 7 2
f 2 8 9
f 2 9 10
f 2 10 3
f 2 7 11
f 2 11 8
f 3 10 4
f 4 12 5
f 4 10 13
f 4 13 14
f 4 14 12
f 5 12 15
f 5 15 6
f 6 15 16
f 6 16 7
f 7 16 11
f 8 11 17
f 8 17 18
f 8 18 9
f 9 18 19
f 9 19 20
f 9 20 21
f 9 21 10
f 10 21 22
f 10 22 13
f 11 16 23
f 11 23 24
f 11 24 17
f 12 14 25
f 12 25 26
f 12 26 27
f 12 27 15
f 13 28 25
f 13 25 14
f 13 22 29
f 13 29 28
f 15 30 16
f 15 27 31
f 15 31 32
f 15 32 30
f 16 30 32
f 16 32 33
f 16 33 23
f 17 24 43
f 17 43 34
f 17 34 18
f 18 35 19
f 18 34 35
f 19 35 36
f 19 36 20
f 20 37 38
f 20 38 21
f 20 36 37
f 21 38 39
f 21 39 22
f 22 39 40
f 22 40 41
f 22 41 29
f 23 33 24
f 24 33 42
f 24 42 43
f 25 28 44
f 25 44 45
f 25 45 26
f 26 45 46
f 26 46 27
f 27 46 47
f 27 47 31
f 28 48 44
f 28 29 49
f 28 49 48
f 29 41 49
f 31 47 50
f 31 50 32
f 32 50 51
f 32 51 33
f 33 51 52
f 33 52 42
f 34 43 53
f 34 53 54
f 34 54 35
f 35 54 36
f 36 54 55
f 36 55 37
f 37 55 56
f 37 56 57
f 37 57 38
f 38 57 58
f 38 58 59
f 38 59 39
f 39 59 40
f 40 59 60
f 40 60 41
f 41 60 61
f 41 61 62
f 41 62 49
f 42 52 63
f 42 63 64
f 42 64 43
f 43 64 65
f 43 65 53
f 44 48 66
f 44 66 67
f 44 67 45
f 45 67 94
f 45 94 68
f 45 68 46
f 46 68 47
f 47 69 70
f 47 70 71
f 47 71 50
f 47 68 69
f 48 49 72
f 48 72 73
f 48 73 66
f 49 62 72
f 50 71 74
f 50 74 75
f 50 75 51
f 51 75 76
f 51 76 52
f 52 76 77
f 52 77 63
f 53 65 91
f 53 91 120
f 53 120 148
f 53 148 149
f 53 149 178
f 53 178 205
f 53 205 224
f 53 224 230
f 53 230 210
f 53 210 209
f 53 209 229
f 53 229 237
f 53 237 236
f 53 236 245
f 53 245 244
f 53 244 243
f 53 243 250
f 53 250 249
f 53 249 254
f 53 254 255
f 53 255 251
f 53 251 246
f 53 246 238
f 53 238 233
f 53 233 217
f 53 217 190
f 53 190 189
f 53 189 160
f 53 160 188
f 53 188 216
f 53 216 198
f 53 198 169
f 53 169 135
f 53 135 104
f 53 104 78
f 53 78 56
f 53 56 55
f 53 55 54
f 56 78 57
f 57 78 79
f 57 79 80
f 57 80 58
f 58 80 81
f 58 81 82
f 58 82 83
f 58 83 59
f 59 83 60
f 60 83 84
f 60 84 61
f 61 84 85
f 61 85 86
f 61 86 87
f 61 87 62
f 62 87 88
f 62 88 72
f 63 77 89
f 63 89 90
f 63 90 64
f 64 90 91
f 64 91 65
f 66 73 67
f 67 92 93
f 67 93 94
f 67 73 92
f 68 94 69
f 69 94 95
f 69 95 70
f 70 93 92
f 70 92 96
f 70 96 71
f 70 95 93
f 71 96 74
f 72 97 73
f 72 88 97
f 73 97 98
f 73 98 92
f 74 96 99
f 74 99 100
f 74 100 101
f 74 101 75
f 75 101 76
f 76 101 102
f 76 102 77
f 77 102 103
f 77 103 89
f 78 104 79
f 79 104 105
f 79 105 80
f 80 105 81
f 81 105 106
f 81 106 107
f 81 107 82
f 82 107 83
f 83 107 108
f 83 108 84
f 84 108 109
f 84 109 85
f 85 109 110
f 85 110 111
f 85 111 86
f 86 112 87
f 86 111 112
f 87 113 88
f 87 112 113
f 88 113 114
f 88 114 98
f 88 98 97
f 89 103 115
f 89 115 116
f 89 116 117
f 89 117 118
f 89 118 90
f 90 118 119
f 90 119 120
f 90 120 91
f 92 121 122
f 92 122 123
f 92 123 96
f 92 98 127
f 92 127 162
f 92 162 191
f 92 191 218
f 92 218 234
f 92 234 241
f 92 241 240
f 92 240 239
f 92 239 247
f 92 247 252
f 92 252 256
f 92 256 253
f 92 253 248
f 92 248 242
f 92 242 235
f 92 235 228
f 92 228 208
f 92 208 179
f 92 179 150
f 92 150 121
f 93 95 94
f 96 123 99
f 98 114 124
f 98 124 125
f 98 125 126
f 98 126 127
f 99 123 128
f 99 128 129
f 99 129 100
f 100 129 130
f 100 130 101
f 101 130 131
f 101 131 102
f 102 131 132
f 102 132 133
f 102 133 103
f 103 133 134
f 103 134 115
f 104 135 105
f 105 135 106
f 106 135 136
f 106 136 137
f 106 137 107
f 107 137 138
f 107 138 108
f 108 138 139
f 108 139 109
f 109 139 140
f 109 140 110
f 110 140 141
f 110 141 111
f 111 142 112
f 111 141 143
f 111 143 144
f 111 144 142
f 112 145 113
f 112 142 145
f 113 145 114
f 114 145 124
f 115 134 116
f 116 134 146
f 116 146 147
f 116 147 117
f 117 148 119
f 117 119 118
f 117 147 149
f 117 149 148
f 119 148 120
f 121 150 151
f 121 151 152
f 121 152 128
f 121 128 122
f 122 128 123
f 124 145 125
f 125 142 153
f 125 153 126
f 125 145 142
f 126 153 154
f 126 154 155
f 126 155 127
f 127 155 156
f 127 156 157
f 127 157 158
f 127 158 159
f 127 159 160
f 127 160 161
f 127 161 162
f 128 152 129
f 129 152 163
f 129 163 130
f 130 163 164
f 130 164 131
f 131 164 132
f 132 164 165
f 132 165 133
f 133 165 166
f 133 166 134
f 134 166 167
f 134 167 168
f 134 168 146
f 135 169 136
f 136 169 170
f 136 170 137
f 137 170 171
f 137 171 138
f 138 171 172
f 138 172 139
f 139 172 173
f 139 173 140
f 140 173 174
f 140 174 175
f 140 175 141
f 141 175 176
f 141 176 143
f 142 144 153
f 143 176 144
f 144 176 177
f 144 177 153
f 146 168 147
f 147 168 178
f 147 178 149
f 150 179 180
f 150 180 181
f 150 181 182
f 150 182 151
f 151 182 152
f 152 182 163
f 153 177 154
f 154 177 155
f 155 176 183
f 155 183 156
f 155 177 176
f 156 183 184
f 156 184 157
f 157 184 158
f 158 185 159
f 158 184 185
f 159 186 187
f 159 187 188
f 159 188 160
f 159 185 186
f 160 189 161
f 161 189 162
f 162 189 190
f 162 190 191
f 163 182 192
f 163 192 164
f 164 192 193
f 164 193 165
f 165 193 194
f 165 194 195
f 165 195 166
f 166 195 196
f 166 196 167
f 167 196 197
f 167 197 168
f 168 197 178
f 169 198 170
f 170 198 171
f 171 198 199
f 171 199 172
f 172 199 200
f 172 200 173
f 173 200 201
f 173 201 174
f 174 201 202
f 174 202 175
f 175 202 184
f 175 184 176
f 176 184 203
f 176 203 183
f 178 197 204
f 178 204 205
f 179 206 207
f 179 207 180
f 179 208 209
f 179 209 210
f 179 210 206
f 180 207 211
f 180 211 181
f 181 211 212
f 181 212 192
f 181 192 213
f 181 213 182
f 182 213 192
f 183 203 184
f 184 202 185
f 185 202 186
f 186 214 187
f 186 202 201
f 186 201 214
f 187 215 188
f 187 214 215
f 188 215 216
f 190 217 191
f 191 217 218
f 192 212 193
f 193 212 219
f 193 219 194
f 194 219 220
f 194 220 195
f 195 220 221
f 195 221 196
f 196 221 222
f 196 222 197
f 197 222 223
f 197 223 224
f 197 224 204
f 198 216 199
f 199 216 200
f 200 216 214
f 200 214 201
f 204 224 205
f 206 225 226
f 206 226 207
f 206 210 225
f 207 226 227
f 207 227 211
f 208 228 229
f 208 229 209
f 210 230 231
f 210 231 232
f 210 232 225
f 211 227 212
f 212 227 219
f 214 216 215
f 217 233 218
f 218 233 234
f 219 227 220
f 220 227 221
f 221 227 232
f 221 232 231
f 221 231 222
f 222 231 230
f 222 230 224
f 222 224 223
f 225 232 227
f 225 227 226
f 228 235 236
f 228 236 237
f 228 237 229
f 233 238 239
f 233 239 240
f 233 240 241
f 233 241 234
f 235 242 243
f 235 243 244
f 235 244 245
f 235 245 236
f 238 246 247
f 238 247 239
f 242 248 249
f 242 249 250
f 242 250 243
f 246 251 247
f 247 251 252
f 248 253 254
f 248 254 249
f 251 255 252
f 252 255 256
f 253 256 255
f 253 255 254
