v -0.652958 0.00057724 -0.0507449
v -0.611183 0.00057724 -0.223079
v -0.725816 0.00057724 -0.0526849
v -0.7258 -0.0072907 -0.0507449
v -0.604391 -0.208199 -0.0507449
v -0.557015 -0.208199 -0.223079
v -0.690536 -0.00665718 -0.223079
v -0.691511 0.00057724 -0.220987
v -0.725155 0.00057724 -0.0611362
v -0.724941 -0.0072907 -0.0627219
v -0.725172 -0.0147499 -0.0581504
v -0.725106 -0.0225157 -0.0522463
v -0.724511 -0.0337147 -0.0507449
v -0.684157 -0.208199 -0.0507449
v -0.646249 -0.208199 -0.221915
v -0.65623 -0.183165 -0.223079
v -0.694683 -0.0072907 -0.213818
v -0.694717 0.00057724 -0.213868
v -0.690172 -0.0195116 -0.223079
v -0.724032 0.00057724 -0.0728939
v -0.723338 -0.0072907 -0.0797765
v -0.723024 -0.02178 -0.0797765
v -0.724478 -0.0204516 -0.0639028
v -0.72347 -0.0362897 -0.0652691
v -0.723024 -0.050779 -0.0507618
v -0.719504 -0.0797984 -0.0507449
v -0.703772 -0.152265 -0.0507618
v -0.699377 -0.166775 -0.0507618
v -0.696567 -0.175113 -0.0507618
v -0.69394 -0.182368 -0.0507618
v -0.689015 -0.195774 -0.0507618
v -0.688074 -0.195774 -0.0652691
v -0.683281 -0.207995 -0.0645775
v -0.676258 -0.208199 -0.123282
v -0.650694 -0.208199 -0.212333
v -0.651983 -0.201496 -0.216061
v -0.652595 -0.193853 -0.221847
v -0.663336 -0.180651 -0.2096
v -0.667698 -0.175419 -0.204303
v -0.667186 -0.167286 -0.211776
v -0.662526 -0.165467 -0.223079
v -0.697526 -0.0072907 -0.206547
v -0.694386 -0.02178 -0.212957
v -0.697526 0.00057724 -0.206615
v -0.689412 -0.035227 -0.223079
v -0.721834 0.00057724 -0.0943007
v -0.721817 -0.0072907 -0.0943007
v -0.720198 -0.0072907 -0.108791
v -0.721388 -0.02178 -0.0943007
v -0.72076 -0.0362897 -0.0943007
v -0.722363 -0.0362897 -0.0797765
v -0.721107 -0.050779 -0.0797765
v -0.722098 -0.050779 -0.0652691
v -0.721322 -0.0652887 -0.0507618
v -0.720396 -0.0652887 -0.0652691
v -0.718529 -0.0797984 -0.0652691
v -0.716166 -0.0942877 -0.0652691
v -0.717124 -0.0942877 -0.0507618
v -0.714183 -0.108756 -0.0507618
v -0.710878 -0.124247 -0.0507618
v -0.707622 -0.137755 -0.0507618
v -0.706829 -0.137755 -0.0652691
v -0.702814 -0.152265 -0.0652691
v -0.696964 -0.170453 -0.0668886
v -0.696286 -0.174336 -0.0594325
v -0.686983 -0.195774 -0.0797765
v -0.693857 -0.179997 -0.0646619
v -0.682405 -0.207647 -0.0779715
v -0.674011 -0.208199 -0.136456
v -0.681265 -0.207279 -0.090269
v -0.680736 -0.203969 -0.104861
v -0.680059 -0.199105 -0.123282
v -0.682207 -0.189888 -0.13342
v -0.657932 -0.208199 -0.194705
v -0.654115 -0.207954 -0.204624
v -0.656478 -0.196305 -0.210865
v -0.673763 -0.166775 -0.195785
v -0.672606 -0.152265 -0.210292
v -0.663435 -0.194956 -0.195042
v -0.667434 -0.182879 -0.197202
v -0.66717 -0.159561 -0.217579
v -0.667616 -0.152265 -0.22156
v -0.669433 -0.143948 -0.223079
v -0.70136 -0.0072907 -0.195785
v -0.697195 -0.02178 -0.205704
v -0.700781 -0.02178 -0.195785
v -0.693923 -0.0362897 -0.211726
v -0.696733 -0.0362897 -0.204489
v -0.701343 0.00057724 -0.195785
v -0.688173 -0.0498185 -0.223079
v -0.693758 -0.0507994 -0.209179
v -0.720264 0.00057724 -0.108791
v -0.718231 -0.0072907 -0.123282
v -0.71957 -0.02178 -0.108791
v -0.717603 -0.02178 -0.123282
v -0.718777 -0.0362897 -0.108791
v -0.717686 -0.050779 -0.108791
v -0.719636 -0.050779 -0.0943007
v -0.717901 -0.0652887 -0.0943007
v -0.719306 -0.0652887 -0.0797765
v -0.717339 -0.0797984 -0.0797765
v -0.714993 -0.0942877 -0.0797765
v -0.712002 -0.109717 -0.0800464
v -0.713274 -0.108756 -0.0652691
v -0.710481 -0.122347 -0.0652691
v -0.710134 -0.119833 -0.0777185
v -0.705689 -0.137755 -0.0797765
v -0.701525 -0.152265 -0.0797765
v -0.697741 -0.164363 -0.0797765
v -0.695378 -0.171618 -0.0797765
v -0.692172 -0.181264 -0.0797765
v -0.684686 -0.197204 -0.0956671
v -0.690684 -0.181264 -0.0943007
v -0.671135 -0.208199 -0.150896
v -0.6792 -0.19514 -0.138025
v -0.683992 -0.194425 -0.108791
v -0.682984 -0.19185 -0.123282
v -0.686867 -0.181264 -0.123282
v -0.691841 -0.166775 -0.123282
v -0.684008 -0.18202 -0.138025
v -0.681282 -0.187354 -0.143052
v -0.663187 -0.208199 -0.179692
v -0.673482 -0.181264 -0.181294
v -0.678919 -0.166407 -0.180923
v -0.682092 -0.1539 -0.183217
v -0.678704 -0.151673 -0.195042
v -0.677845 -0.136386 -0.208909
v -0.671697 -0.136243 -0.223079
v -0.667136 -0.197102 -0.181851
v -0.667566 -0.189582 -0.189712
v -0.705788 -0.0072907 -0.181294
v -0.705458 -0.02178 -0.181294
v -0.699889 -0.0362897 -0.195785
v -0.704681 -0.0362897 -0.181294
v -0.696386 -0.045956 -0.203595
v -0.70673 0.00057724 -0.177887
v -0.686124 -0.0657178 -0.223079
v -0.691709 -0.0652887 -0.210292
v -0.695939 -0.0556223 -0.202448
v -0.717752 0.00057724 -0.126622
v -0.715786 -0.0072907 -0.137755
v -0.715422 -0.02178 -0.137755
v -0.714563 -0.0362897 -0.137755
v -0.716711 -0.0362897 -0.123282
v -0.715571 -0.050779 -0.123282
v -0.714199 -0.0652887 -0.123282
v -0.716166 -0.0652887 -0.108791
v -0.714348 -0.0797984 -0.108791
v -0.715968 -0.0797984 -0.0943007
v -0.71372 -0.0942877 -0.0943007
v -0.711555 -0.105793 -0.0943007
v -0.710498 -0.115194 -0.0850565
v -0.707589 -0.123266 -0.0943007
v -0.70402 -0.137755 -0.0943007
v -0.695989 -0.158866 -0.114425
v -0.696485 -0.160521 -0.104743
v -0.697013 -0.162136 -0.0943007
v -0.69465 -0.169391 -0.0943007
v -0.688916 -0.181264 -0.108791
v -0.694188 -0.165917 -0.109263
v -0.667103 -0.205338 -0.17119
v -0.675878 -0.195774 -0.152263
v -0.689015 -0.166775 -0.137755
v -0.695196 -0.156087 -0.123282
v -0.68262 -0.177013 -0.152263
v -0.681778 -0.174357 -0.160056
v -0.680191 -0.184268 -0.152263
v -0.672127 -0.195774 -0.166787
v -0.678373 -0.180018 -0.16564
v -0.68224 -0.161318 -0.175829
v -0.68728 -0.137755 -0.181294
v -0.682075 -0.146461 -0.189712
v -0.680356 -0.14031 -0.199378
v -0.681695 -0.130644 -0.203123
v -0.679894 -0.123266 -0.212907
v -0.675465 -0.122265 -0.223079
v -0.709209 -0.0072907 -0.168238
v -0.710696 0.00057724 -0.162907
v -0.709126 -0.02178 -0.167664
v -0.710762 -0.0300975 -0.159938
v -0.698369 -0.0507994 -0.196881
v -0.708944 -0.0354722 -0.165572
v -0.703392 -0.050779 -0.181294
v -0.678605 -0.108327 -0.223079
v -0.684157 -0.0793692 -0.223028
v -0.689643 -0.0797984 -0.210292
v -0.695361 -0.0652887 -0.200677
v -0.697856 -0.0652887 -0.19344
v -0.715835 0.00057724 -0.137755
v -0.713026 0.00057724 -0.152263
v -0.71291 -0.0072907 -0.152263
v -0.712679 -0.02178 -0.152263
v -0.711093 -0.037618 -0.155366
v -0.710878 -0.060057 -0.145987
v -0.713257 -0.050779 -0.137755
v -0.711076 -0.0673732 -0.140859
v -0.710481 -0.0783474 -0.136051
v -0.71215 -0.0805341 -0.124024
v -0.711192 -0.0974348 -0.111507
v -0.710118 -0.105773 -0.106666
v -0.709969 -0.113028 -0.0943007
v -0.705573 -0.123266 -0.108791
v -0.702037 -0.137755 -0.108791
v -0.697129 -0.148832 -0.123282
v -0.685892 -0.166775 -0.152263
v -0.693775 -0.151366 -0.13708
v -0.690354 -0.152265 -0.152263
v -0.687247 -0.152265 -0.166787
v -0.696419 -0.14593 -0.131817
v -0.68186 -0.168696 -0.167664
v -0.691378 -0.137755 -0.166787
v -0.690899 -0.123266 -0.181294
v -0.686173 -0.123266 -0.195785
v -0.682967 -0.136386 -0.195042
v -0.682653 -0.123266 -0.205636
v -0.681083 -0.113069 -0.216095
v -0.711027 -0.0072907 -0.160984
v -0.710878 -0.02178 -0.160427
v -0.707143 -0.050779 -0.166787
v -0.701657 -0.0652887 -0.181294
v -0.705524 -0.0652887 -0.166787
v -0.682025 -0.103443 -0.218288
v -0.682158 -0.0942877 -0.22156
v -0.687099 -0.0942877 -0.210292
v -0.693246 -0.0928571 -0.194334
v -0.69432 -0.0797984 -0.197505
v -0.696733 -0.0797984 -0.190268
v -0.699542 -0.0797984 -0.181294
v -0.710564 -0.050779 -0.151807
v -0.709126 -0.0650434 -0.151419
v -0.706945 -0.0797984 -0.152263
v -0.704483 -0.0942877 -0.152263
v -0.707342 -0.0942877 -0.137755
v -0.710448 -0.0858475 -0.129354
v -0.710498 -0.0925914 -0.121865
v -0.706813 -0.108756 -0.123282
v -0.703343 -0.123266 -0.123282
v -0.699839 -0.137755 -0.123282
v -0.700996 -0.123266 -0.137755
v -0.695427 -0.142394 -0.141433
v -0.695625 -0.135181 -0.15034
v -0.695791 -0.129091 -0.157711
v -0.697542 -0.137633 -0.13708
v -0.698154 -0.123859 -0.152634
v -0.69589 -0.121652 -0.164965
v -0.695692 -0.113804 -0.17237
v -0.69551 -0.106509 -0.178544
v -0.68966 -0.108756 -0.195785
v -0.684058 -0.10843 -0.210882
v -0.703557 -0.0797984 -0.166787
v -0.696402 -0.0947781 -0.183386
v -0.696171 -0.0870532 -0.188531
v -0.701095 -0.0942877 -0.166787
v -0.701707 -0.108756 -0.152263
v -0.704384 -0.108756 -0.137755
v -0.698137 -0.108879 -0.167242
f 1 2 8
f 1 8 18
f 1 18 44
f 1 44 89
f 1 89 136
f 1 136 178
f 1 178 190
f 1 190 189
f 1 189 140
f 1 140 92
f 1 92 46
f 1 46 20
f 1 20 9
f 1 9 3
f 1 3 4
f 1 4 13
f 1 13 26
f 1 26 14
f 1 14 5
f 1 5 6
f 1 6 2
f 2 7 8
f 2 6 16
f 2 16 41
f 2 41 83
f 2 83 128
f 2 128 176
f 2 176 184
f 2 184 137
f 2 137 90
f 2 90 45
f 2 45 19
f 2 19 7
f 3 9 10
f 3 10 11
f 3 11 4
f 4 11 12
f 4 12 13
f 5 14 34
f 5 34 69
f 5 69 114
f 5 114 122
f 5 122 74
f 5 74 35
f 5 35 15
f 5 15 6
f 6 15 16
f 7 17 18
f 7 18 8
f 7 19 17
f 9 20 21
f 9 21 10
f 10 21 22
f 10 22 11
f 11 22 23
f 11 23 12
f 12 23 24
f 12 24 13
f 13 24 25
f 13 25 26
f 14 27 28
f 14 28 29
f 14 29 30
f 14 30 31
f 14 31 32
f 14 32 33
f 14 33 34
f 14 26 27
f 15 35 36
f 15 36 37
f 15 37 16
f 16 38 39
f 16 39 40
f 16 40 41
f 16 37 38
f 17 42 18
f 17 19 43
f 17 43 42
f 18 42 44
f 19 45 43
f 20 46 21
f 21 46 47
f 21 47 22
f 22 47 48
f 22 48 49
f 22 49 50
f 22 50 51
f 22 51 23
f 23 51 24
f 24 51 52
f 24 52 53
f 24 53 25
f 25 53 55
f 25 55 54
f 25 54 26
f 26 54 55
f 26 55 56
f 26 56 57
f 26 57 58
f 26 58 59
f 26 59 60
f 26 60 61
f 26 61 27
f 27 61 62
f 27 62 63
f 27 63 28
f 28 64 65
f 28 65 29
f 28 63 64
f 29 65 30
f 30 65 32
f 30 32 31
f 32 66 33
f 32 65 67
f 32 67 66
f 33 68 34
f 33 66 68
f 34 68 70
f 34 70 71
f 34 71 72
f 34 72 73
f 34 73 69
f 35 74 75
f 35 75 76
f 35 76 36
f 36 76 37
f 37 76 38
f 38 76 39
f 39 77 78
f 39 78 40
f 39 76 79
f 39 79 80
f 39 80 77
f 40 78 81
f 40 81 41
f 41 81 82
f 41 82 83
f 42 84 44
f 42 43 85
f 42 85 86
f 42 86 84
f 43 45 87
f 43 87 88
f 43 88 85
f 44 84 89
f 45 90 91
f 45 91 87
f 46 92 47
f 47 92 48
f 48 92 93
f 48 93 95
f 48 95 94
f 48 94 50
f 48 50 49
f 50 94 95
f 50 95 96
f 50 96 97
f 50 97 98
f 50 98 51
f 51 98 52
f 52 98 99
f 52 99 100
f 52 100 55
f 52 55 53
f 55 100 56
f 56 100 101
f 56 101 102
f 56 102 57
f 57 102 103
f 57 103 104
f 57 104 58
f 58 104 59
f 59 104 105
f 59 105 60
f 60 105 62
f 60 62 61
f 62 105 106
f 62 106 107
f 62 107 63
f 63 107 108
f 63 108 109
f 63 109 64
f 64 110 111
f 64 111 65
f 64 109 110
f 65 111 67
f 66 112 70
f 66 70 68
f 66 67 111
f 66 111 113
f 66 113 112
f 69 73 115
f 69 115 114
f 70 112 71
f 71 112 116
f 71 116 117
f 71 117 72
f 72 117 73
f 73 117 118
f 73 118 119
f 73 119 120
f 73 120 121
f 73 121 115
f 74 122 79
f 74 79 75
f 75 79 76
f 77 80 123
f 77 123 124
f 77 124 125
f 77 125 126
f 77 126 78
f 78 83 82
f 78 82 81
f 78 126 127
f 78 127 128
f 78 128 83
f 79 122 129
f 79 129 130
f 79 130 80
f 80 130 123
f 84 131 89
f 84 86 132
f 84 132 131
f 85 88 133
f 85 133 86
f 86 133 134
f 86 134 132
f 87 135 88
f 87 91 135
f 88 135 133
f 89 131 136
f 90 137 138
f 90 138 91
f 91 138 139
f 91 139 135
f 92 140 93
f 93 140 141
f 93 141 142
f 93 142 95
f 95 142 143
f 95 143 144
f 95 144 96
f 96 144 97
f 97 144 145
f 97 145 146
f 97 146 147
f 97 147 98
f 98 147 99
f 99 147 148
f 99 148 149
f 99 149 100
f 100 149 101
f 101 149 150
f 101 150 102
f 102 150 151
f 102 151 103
f 103 152 106
f 103 106 104
f 103 151 152
f 104 106 105
f 106 152 107
f 107 152 153
f 107 153 154
f 107 154 155
f 107 155 108
f 108 155 156
f 108 156 157
f 108 157 109
f 109 157 158
f 109 158 110
f 110 158 111
f 111 158 113
f 112 113 159
f 112 159 116
f 113 158 156
f 113 156 155
f 113 155 160
f 113 160 159
f 114 161 122
f 114 115 121
f 114 121 162
f 114 162 161
f 116 159 117
f 117 159 118
f 118 159 155
f 118 155 119
f 119 163 120
f 119 155 164
f 119 164 163
f 120 163 121
f 121 163 165
f 121 165 166
f 121 166 167
f 121 167 162
f 122 161 129
f 123 130 129
f 123 129 161
f 123 161 168
f 123 168 169
f 123 169 170
f 123 170 124
f 124 170 125
f 125 170 171
f 125 171 172
f 125 172 126
f 126 172 173
f 126 173 127
f 127 174 175
f 127 175 128
f 127 173 174
f 128 175 176
f 131 177 178
f 131 178 136
f 131 132 179
f 131 179 177
f 132 134 180
f 132 180 179
f 133 135 181
f 133 181 134
f 134 182 180
f 134 181 183
f 134 183 182
f 135 139 181
f 137 184 185
f 137 185 186
f 137 186 138
f 138 187 139
f 138 186 187
f 139 187 188
f 139 188 181
f 140 189 141
f 141 189 190
f 141 190 191
f 141 191 192
f 141 192 142
f 142 192 180
f 142 180 143
f 143 193 194
f 143 194 195
f 143 195 145
f 143 145 144
f 143 180 193
f 145 195 146
f 146 196 197
f 146 197 198
f 146 198 148
f 146 148 147
f 146 195 196
f 148 198 199
f 148 199 150
f 148 150 149
f 150 199 151
f 151 199 200
f 151 200 201
f 151 201 152
f 152 201 153
f 153 201 200
f 153 200 202
f 153 202 203
f 153 203 154
f 154 203 155
f 155 203 204
f 155 204 164
f 155 159 160
f 156 158 157
f 161 162 168
f 162 167 169
f 162 169 168
f 163 205 165
f 163 164 206
f 163 206 207
f 163 207 208
f 163 208 205
f 164 204 209
f 164 209 206
f 165 205 166
f 166 205 208
f 166 208 210
f 166 210 169
f 166 169 167
f 169 210 170
f 170 208 211
f 170 211 171
f 170 210 208
f 171 211 212
f 171 212 213
f 171 213 214
f 171 214 172
f 172 214 173
f 173 214 174
f 174 214 213
f 174 213 215
f 174 215 175
f 175 215 216
f 175 216 176
f 176 216 184
f 177 179 178
f 178 179 217
f 178 217 190
f 179 180 218
f 179 218 217
f 180 192 218
f 180 182 193
f 181 188 183
f 182 183 219
f 182 219 193
f 183 188 220
f 183 220 221
f 183 221 219
f 184 222 223
f 184 223 185
f 184 216 222
f 185 223 222
f 185 222 186
f 186 222 224
f 186 224 225
f 186 225 226
f 186 226 187
f 187 226 188
f 188 226 227
f 188 227 228
f 188 228 220
f 190 217 191
f 191 217 192
f 192 217 218
f 193 219 229
f 193 229 194
f 194 229 230
f 194 230 196
f 194 196 195
f 196 230 231
f 196 231 197
f 197 231 232
f 197 232 233
f 197 233 234
f 197 234 198
f 198 234 235
f 198 235 199
f 199 235 236
f 199 236 200
f 200 236 237
f 200 237 202
f 202 237 238
f 202 238 203
f 203 238 204
f 204 238 239
f 204 239 209
f 206 209 240
f 206 240 207
f 207 240 241
f 207 241 242
f 207 242 208
f 208 242 211
f 209 239 243
f 209 243 244
f 209 244 242
f 209 242 241
f 209 241 240
f 211 242 245
f 211 245 212
f 212 245 246
f 212 246 247
f 212 247 248
f 212 248 213
f 213 248 215
f 215 248 216
f 216 248 249
f 216 249 224
f 216 224 222
f 219 221 230
f 219 230 229
f 220 228 250
f 220 250 221
f 221 250 231
f 221 231 230
f 224 249 248
f 224 248 225
f 225 251 252
f 225 252 226
f 225 248 251
f 226 252 227
f 227 252 228
f 228 252 251
f 228 251 253
f 228 253 250
f 231 250 253
f 231 253 232
f 232 253 254
f 232 254 233
f 233 235 234
f 233 254 255
f 233 255 235
f 235 255 236
f 236 255 239
f 236 239 237
f 237 239 238
f 239 244 243
f 239 255 244
f 242 244 245
f 244 255 254
f 244 254 245
f 245 254 256
f 245 256 246
f 246 256 247
f 247 253 251
f 247 251 248
f 247 256 253
f 253 256 254
