v -0.563517 0.202344 -0.220756
v -0.679247 0.206734 -0.112244
v -0.665887 0.20723 -0.173224
v -0.648969 0.208328 -0.217285
v -0.545933 0.360802 -0.219888
v -0.474613 0.324558 -0.220694
v -0.474613 0.370679 0.260327
v -0.608183 0.202344 0.263177
v -0.633701 0.202344 0.373858
v -0.678067 0.219407 -0.077912
v -0.668911 0.22986 -0.112802
v -0.670862 0.212718 -0.144221
v -0.693635 0.206342 0.159871
v -0.690955 0.208328 0.0725539
v -0.68465 0.209948 -0.0463687
v -0.654458 0.235765 -0.166717
v -0.656881 0.210392 -0.196339
v -0.639233 0.240103 -0.204767
v -0.626024 0.25957 -0.211336
v -0.605932 0.290692 -0.212699
v -0.565683 0.34089 -0.216975
v -0.564267 0.353746 -0.196773
v -0.535019 0.380034 -0.204209
v -0.509008 0.400703 -0.210592
v -0.483683 0.419701 -0.212761
v -0.476778 0.434935 -0.189646
v -0.474613 0.465195 -0.0217042
v -0.474613 0.373763 0.28276
v -0.474613 0.378309 0.305999
v -0.617961 0.202344 0.319385
v -0.626453 0.202344 0.351052
v -0.474613 0.394118 0.362827
v -0.474613 0.405276 0.39059
v -0.649998 0.204356 0.401931
v -0.690033 0.206342 0.377824
v -0.692177 0.20561 0.329424
v -0.665201 0.247838 -0.0719628
v -0.6634 0.246609 -0.0942104
v -0.67528 0.234119 -0.0252985
v -0.653472 0.260485 -0.111934
v -0.656259 0.246557 -0.137714
v -0.693506 0.206342 0.232316
v -0.691727 0.210967 0.195753
v -0.682292 0.232055 0.156773
v -0.68004 0.235896 0.112339
v -0.690783 0.211228 0.111906
v -0.680083 0.234119 0.0739173
v -0.679525 0.233178 0.0472077
v -0.686537 0.2152 0.0306614
v -0.685015 0.212822 -0.0217042
v -0.641571 0.259022 -0.170125
v -0.623622 0.279273 -0.188345
v -0.580993 0.324297 -0.214434
v -0.595703 0.317398 -0.193798
v -0.587834 0.334906 -0.177748
v -0.558134 0.371332 -0.172542
v -0.540251 0.388004 -0.175269
v -0.498179 0.419727 -0.188221
v -0.480853 0.440867 -0.163804
v -0.482139 0.448549 -0.130216
v -0.480681 0.454167 -0.101399
v -0.482332 0.456049 -0.0733261
v -0.489301 0.453723 -0.0434561
v -0.476199 0.465717 0.00159697
v -0.474613 0.469297 0.0847623
v -0.474613 0.385182 0.333205
v -0.474613 0.421843 0.409119
v -0.664451 0.233858 0.408128
v -0.678518 0.207805 0.404657
v -0.666874 0.253273 0.390776
v -0.678839 0.232499 0.377018
v -0.681369 0.229886 0.344421
v -0.691877 0.208328 0.288709
v -0.693163 0.206342 0.261752
v -0.650105 0.274021 -0.0797092
v -0.670776 0.246583 4.76873e-05
v -0.664 0.255128 -0.0362054
v -0.65047 0.278123 -0.0485377
v -0.684693 0.216298 0.000481487
v -0.675537 0.239319 0.0217996
v -0.63934 0.28672 -0.105799
v -0.641313 0.273916 -0.137404
v -0.682849 0.230591 0.246507
v -0.681391 0.234276 0.222958
v -0.679482 0.238404 0.188502
v -0.669275 0.256487 0.0862496
v -0.668546 0.259649 0.126841
v -0.622958 0.295108 -0.159404
v -0.61007 0.307076 -0.174463
v -0.600657 0.331483 -0.145151
v -0.573659 0.364329 -0.14323
v -0.550758 0.388579 -0.142238
v -0.522538 0.413638 -0.144407
v -0.512138 0.415467 -0.168638
v -0.495563 0.435327 -0.144469
v -0.510316 0.429813 -0.116644
v -0.516577 0.427984 -0.0948921
v -0.511174 0.434987 -0.0724585
v -0.498908 0.448497 -0.0217042
v -0.482096 0.463052 0.029422
v -0.478923 0.466109 0.0587344
v -0.481796 0.465195 0.112339
v -0.483404 0.464672 0.145308
v -0.481646 0.465534 0.186643
v -0.478773 0.466945 0.223578
v -0.477572 0.460543 0.392139
v -0.49434 0.433027 0.409987
v -0.543918 0.384319 0.412342
v -0.647596 0.260772 0.408747
v -0.616868 0.316797 0.408128
v -0.624759 0.292704 0.409677
v -0.623901 0.321527 0.3909
v -0.639791 0.302242 0.373858
v -0.659497 0.270153 0.373982
v -0.665008 0.262262 0.348016
v -0.668761 0.256879 0.319013
v -0.680061 0.234824 0.302715
v -0.683385 0.228527 0.273588
v -0.637882 0.296964 -0.0615516
v -0.664322 0.261818 0.0291122
v -0.657825 0.270807 4.76873e-05
v -0.6527 0.28301 0.0327065
v -0.639533 0.300309 -0.0063973
v -0.621735 0.30739 -0.131517
v -0.623815 0.312146 -0.0978667
v -0.67856 0.239659 0.268259
v -0.671849 0.253848 0.210254
v -0.654265 0.283271 0.0848242
v -0.663571 0.265267 0.0580527
v -0.668675 0.259623 0.246507
v -0.64944 0.293253 0.192096
v -0.650298 0.291346 0.130435
v -0.610049 0.327641 -0.115962
v -0.59551 0.347632 -0.10803
v -0.578613 0.368171 -0.102638
v -0.562402 0.384711 -0.106109
v -0.540572 0.406296 -0.10394
v -0.53028 0.418263 -0.0833035
v -0.522946 0.428454 -0.0434561
v -0.523954 0.429291 -0.0180479
v -0.520609 0.433864 0.0145489
v -0.514004 0.439952 0.0363628
v -0.503926 0.446851 0.0217996
v -0.507807 0.445623 0.0581766
v -0.503111 0.450222 0.0907115
v -0.505898 0.448993 0.132294
v -0.502789 0.451241 0.177595
v -0.498822 0.453592 0.210254
v -0.481925 0.464228 0.26987
v -0.482482 0.462372 0.331903
v -0.480853 0.46198 0.367599
v -0.507743 0.442435 0.377018
v -0.532488 0.423019 0.38241
v -0.526162 0.418054 0.4041
v -0.567956 0.369399 0.408747
v -0.6013 0.340158 0.405029
v -0.603594 0.350166 0.384331
v -0.617404 0.334958 0.362517
v -0.634237 0.313296 0.326264
v -0.638247 0.308435 0.304512
v -0.647017 0.293305 0.337171
v -0.657289 0.277444 0.317216
v -0.666852 0.262157 0.277431
v -0.621414 0.320874 -0.0622333
v -0.62834 0.314602 -0.0289548
v -0.640434 0.30334 0.0436134
v -0.621607 0.327302 0.00370399
v -0.609234 0.334566 -0.0829936
v -0.65122 0.290222 0.246507
v -0.644487 0.300779 0.16675
v -0.64676 0.297356 0.224755
v -0.637518 0.310918 0.130435
v -0.639555 0.306711 0.0943058
v -0.594181 0.35487 -0.0724585
v -0.573659 0.377917 -0.0724585
v -0.550501 0.40167 -0.0724585
v -0.5389 0.418368 0.00940534
v -0.53534 0.42315 0.0436134
v -0.523332 0.434569 0.0864974
v -0.532638 0.427514 0.181251
v -0.518872 0.438724 0.195691
v -0.505491 0.448 0.268259
v -0.490631 0.457617 0.307239
v -0.508986 0.443323 0.348016
v -0.54083 0.417871 0.351672
v -0.56163 0.398482 0.358923
v -0.578849 0.37925 0.377204
v -0.556162 0.398195 0.392759
v -0.596196 0.361716 0.3513
v -0.608634 0.347423 0.340765
v -0.621414 0.330647 0.340765
v -0.627354 0.324114 0.304512
v -0.632607 0.317738 0.279104
v -0.637668 0.311205 0.253758
v -0.649419 0.292051 0.286416
v -0.606382 0.344417 -0.0289548
v -0.607969 0.339322 -0.0579573
v -0.634795 0.31408 0.101494
v -0.631449 0.317999 0.0762102
v -0.61794 0.335585 0.0544584
v -0.604495 0.350114 0.0148588
v -0.636467 0.313008 0.203003
v -0.625402 0.328948 0.144998
v -0.627632 0.324819 0.108745
v -0.590407 0.362317 -0.0434561
v -0.579128 0.379668 0.0145489
v -0.555132 0.399554 -0.0463687
v -0.555025 0.402585 -0.00819447
v -0.561265 0.398038 0.0145489
v -0.541988 0.418812 0.0725539
v -0.538664 0.422261 0.137748
v -0.542502 0.419256 0.203003
v -0.542245 0.419021 0.261008
v -0.523332 0.43436 0.253014
v -0.518743 0.43841 0.224755
v -0.520137 0.436242 0.293667
v -0.528092 0.429186 0.324467
v -0.541773 0.418603 0.304512
v -0.559528 0.401775 0.317216
v -0.57173 0.390382 0.290011
v -0.581615 0.378649 0.337171
v -0.59566 0.363781 0.319013
v -0.608012 0.350349 0.271915
v -0.619848 0.33407 0.304698
v -0.625209 0.328452 0.261008
v -0.628018 0.325054 0.224755
v -0.59506 0.359521 -0.0144536
v -0.610585 0.346508 0.0877369
v -0.591929 0.366681 0.0363628
v -0.614466 0.342745 0.12777
v -0.622765 0.332423 0.188502
v -0.591007 0.369294 0.0657991
v -0.570572 0.390147 0.0436134
v -0.559807 0.40201 0.0689596
v -0.547499 0.414292 0.103292
v -0.550029 0.41241 0.159499
v -0.548228 0.41403 0.232006
v -0.560021 0.402245 0.268259
v -0.58852 0.372613 0.297261
v -0.566733 0.396261 0.232006
v -0.57589 0.387142 0.224755
v -0.590535 0.371097 0.266462
v -0.606854 0.352596 0.232006
v -0.622615 0.332267 0.232006
v -0.588048 0.374128 0.115996
v -0.602501 0.357823 0.186705
v -0.59476 0.366733 0.154046
v -0.57218 0.390826 0.123184
v -0.564632 0.397777 0.0943058
v -0.561287 0.401932 0.144998
v -0.562359 0.400913 0.19662
v -0.576061 0.38722 0.195691
v -0.582794 0.379929 0.210254
v -0.589806 0.372142 0.230209
v -0.577648 0.385495 0.144998
v -0.572309 0.391009 0.174001
f 1 2 3
f 1 3 4
f 1 4 5
f 1 5 6
f 1 6 7
f 1 7 8
f 1 8 30
f 1 30 31
f 1 31 9
f 1 9 2
f 2 10 11
f 2 11 12
f 2 12 3
f 2 9 13
f 2 13 14
f 2 14 15
f 2 15 10
f 3 12 16
f 3 16 17
f 3 17 4
f 4 17 18
f 4 18 19
f 4 19 20
f 4 20 21
f 4 21 5
f 5 21 22
f 5 22 23
f 5 23 24
f 5 24 25
f 5 25 6
f 6 25 26
f 6 26 27
f 6 27 65
f 6 65 67
f 6 67 33
f 6 33 32
f 6 32 66
f 6 66 29
f 6 29 28
f 6 28 7
f 7 28 8
f 8 28 29
f 8 29 30
f 9 31 32
f 9 32 33
f 9 33 34
f 9 34 35
f 9 35 36
f 9 36 13
f 10 37 38
f 10 38 11
f 10 15 39
f 10 39 37
f 11 40 41
f 11 41 12
f 11 38 40
f 12 41 16
f 13 36 42
f 13 42 43
f 13 43 44
f 13 44 45
f 13 45 46
f 13 46 14
f 14 46 47
f 14 47 48
f 14 48 49
f 14 49 50
f 14 50 15
f 15 50 39
f 16 41 51
f 16 51 18
f 16 18 17
f 18 51 52
f 18 52 19
f 19 52 20
f 20 53 21
f 20 52 54
f 20 54 53
f 21 53 22
f 22 53 54
f 22 54 55
f 22 55 56
f 22 56 23
f 23 56 57
f 23 57 24
f 24 57 58
f 24 58 25
f 25 58 26
f 26 58 59
f 26 59 60
f 26 60 61
f 26 61 27
f 27 61 62
f 27 62 63
f 27 63 64
f 27 64 65
f 29 66 30
f 30 66 32
f 30 32 31
f 33 67 34
f 34 67 68
f 34 68 69
f 34 69 35
f 35 69 70
f 35 70 71
f 35 71 72
f 35 72 36
f 36 72 73
f 36 73 74
f 36 74 42
f 37 75 38
f 37 39 76
f 37 76 77
f 37 77 78
f 37 78 75
f 38 75 40
f 39 50 79
f 39 79 80
f 39 80 76
f 40 75 81
f 40 81 82
f 40 82 41
f 41 82 51
f 42 74 83
f 42 83 43
f 43 83 84
f 43 84 44
f 44 84 85
f 44 85 45
f 45 86 47
f 45 47 46
f 45 85 87
f 45 87 86
f 47 86 80
f 47 80 48
f 48 80 79
f 48 79 49
f 49 79 50
f 51 88 52
f 51 82 88
f 52 88 89
f 52 89 54
f 54 89 55
f 55 89 90
f 55 90 91
f 55 91 56
f 56 91 92
f 56 92 57
f 57 92 93
f 57 93 94
f 57 94 58
f 58 94 59
f 59 94 95
f 59 95 60
f 60 95 96
f 60 96 61
f 61 96 97
f 61 97 98
f 61 98 62
f 62 98 63
f 63 99 64
f 63 98 99
f 64 99 100
f 64 100 101
f 64 101 65
f 65 101 102
f 65 102 103
f 65 103 104
f 65 104 105
f 65 105 106
f 65 106 67
f 67 106 107
f 67 107 108
f 67 108 68
f 68 109 110
f 68 110 70
f 68 70 69
f 68 108 111
f 68 111 109
f 70 110 112
f 70 112 113
f 70 113 114
f 70 114 71
f 71 114 115
f 71 115 72
f 72 115 116
f 72 116 117
f 72 117 73
f 73 117 118
f 73 118 74
f 74 118 83
f 75 78 119
f 75 119 81
f 76 80 120
f 76 120 121
f 76 121 77
f 77 121 78
f 78 121 122
f 78 122 123
f 78 123 119
f 80 86 120
f 81 124 82
f 81 119 125
f 81 125 124
f 82 124 88
f 83 118 126
f 83 126 84
f 84 126 127
f 84 127 85
f 85 127 87
f 86 87 128
f 86 128 129
f 86 129 120
f 87 127 130
f 87 130 131
f 87 131 132
f 87 132 128
f 88 90 89
f 88 124 90
f 90 124 133
f 90 133 134
f 90 134 91
f 91 134 135
f 91 135 136
f 91 136 92
f 92 136 137
f 92 137 93
f 93 95 94
f 93 137 96
f 93 96 95
f 96 137 138
f 96 138 97
f 97 138 98
f 98 138 139
f 98 139 99
f 99 139 140
f 99 140 141
f 99 141 142
f 99 142 143
f 99 143 100
f 100 143 144
f 100 144 145
f 100 145 101
f 101 145 102
f 102 145 103
f 103 146 147
f 103 147 104
f 103 145 146
f 104 147 148
f 104 148 149
f 104 149 105
f 105 149 150
f 105 150 151
f 105 151 106
f 106 151 152
f 106 152 153
f 106 153 154
f 106 154 107
f 107 154 108
f 108 154 155
f 108 155 110
f 108 110 111
f 109 111 110
f 110 155 156
f 110 156 112
f 112 156 157
f 112 157 158
f 112 158 113
f 113 158 159
f 113 159 160
f 113 160 161
f 113 161 114
f 114 161 162
f 114 162 115
f 115 162 116
f 116 162 163
f 116 163 126
f 116 126 117
f 117 126 118
f 119 164 125
f 119 123 165
f 119 165 164
f 120 129 122
f 120 122 121
f 122 129 128
f 122 128 166
f 122 166 123
f 123 167 165
f 123 166 167
f 124 125 133
f 125 164 168
f 125 168 133
f 126 163 130
f 126 130 127
f 128 132 166
f 130 163 169
f 130 169 131
f 131 170 132
f 131 169 171
f 131 171 170
f 132 170 172
f 132 172 173
f 132 173 166
f 133 168 134
f 134 168 174
f 134 174 135
f 135 174 175
f 135 175 136
f 136 175 176
f 136 176 137
f 137 176 138
f 138 176 139
f 139 177 140
f 139 176 177
f 140 177 141
f 141 177 178
f 141 178 179
f 141 179 142
f 142 179 144
f 142 144 143
f 144 179 145
f 145 179 146
f 146 180 181
f 146 181 147
f 146 179 180
f 147 181 182
f 147 182 148
f 148 182 183
f 148 183 149
f 149 183 150
f 150 183 184
f 150 184 151
f 151 184 152
f 152 184 153
f 153 184 185
f 153 185 186
f 153 186 187
f 153 187 188
f 153 188 154
f 154 188 156
f 154 156 155
f 156 188 157
f 157 187 189
f 157 189 190
f 157 190 158
f 157 188 187
f 158 190 191
f 158 191 159
f 159 191 192
f 159 192 193
f 159 193 160
f 160 193 194
f 160 194 195
f 160 195 161
f 161 195 162
f 162 195 169
f 162 169 163
f 164 165 167
f 164 167 196
f 164 196 197
f 164 197 168
f 166 173 198
f 166 198 199
f 166 199 167
f 167 199 200
f 167 200 201
f 167 201 196
f 168 197 174
f 169 195 194
f 169 194 171
f 170 171 202
f 170 202 172
f 171 194 202
f 172 202 203
f 172 203 204
f 172 204 198
f 172 198 173
f 174 197 196
f 174 196 205
f 174 205 175
f 175 205 206
f 175 206 207
f 175 207 176
f 176 207 177
f 177 208 209
f 177 209 210
f 177 210 178
f 177 207 208
f 178 210 179
f 179 210 211
f 179 211 180
f 180 212 181
f 180 211 212
f 181 212 213
f 181 213 214
f 181 214 215
f 181 215 182
f 182 215 216
f 182 216 184
f 182 184 183
f 184 216 217
f 184 217 185
f 185 217 218
f 185 218 186
f 186 218 219
f 186 219 220
f 186 220 221
f 186 221 187
f 187 221 189
f 189 221 222
f 189 222 190
f 190 222 223
f 190 223 224
f 190 224 191
f 191 224 192
f 192 224 225
f 192 225 193
f 193 225 194
f 194 225 226
f 194 226 203
f 194 203 202
f 196 227 205
f 196 201 227
f 198 204 199
f 199 204 200
f 200 204 228
f 200 228 201
f 201 228 229
f 201 229 227
f 203 230 204
f 203 226 231
f 203 231 230
f 204 230 228
f 205 227 206
f 206 209 207
f 206 227 229
f 206 229 232
f 206 232 233
f 206 233 209
f 207 209 208
f 209 233 234
f 209 234 210
f 210 234 235
f 210 235 211
f 211 236 212
f 211 235 236
f 212 236 237
f 212 237 213
f 213 237 218
f 213 218 216
f 213 216 214
f 214 216 215
f 216 218 217
f 218 237 219
f 219 237 238
f 219 238 220
f 220 239 221
f 220 238 240
f 220 240 241
f 220 241 242
f 220 242 239
f 221 239 222
f 222 239 242
f 222 242 223
f 223 242 243
f 223 243 225
f 223 225 224
f 225 243 244
f 225 244 226
f 226 244 231
f 228 232 229
f 228 230 245
f 228 245 232
f 230 231 243
f 230 243 246
f 230 246 247
f 230 247 245
f 231 244 243
f 232 245 233
f 233 245 248
f 233 248 249
f 233 249 234
f 234 249 250
f 234 250 235
f 235 250 236
f 236 250 251
f 236 251 237
f 237 251 238
f 238 251 240
f 240 251 252
f 240 252 241
f 241 252 253
f 241 253 242
f 242 253 254
f 242 254 243
f 243 254 246
f 245 247 253
f 245 253 255
f 245 255 248
f 246 254 247
f 247 254 253
f 248 255 250
f 248 250 249
f 250 255 256
f 250 256 251
f 251 256 252
f 252 256 255
f 252 255 253
