v -0.166842 0.458506 -0.307826
v -0.166842 0.443847 -0.320162
v -0.181371 0.443668 -0.32006
v -0.181371 0.458237 -0.307758
v -0.130075 0.45743 -0.306784
v -0.151176 0.458237 -0.307769
v -0.152313 0.443713 -0.32006
v -0.166842 0.430085 -0.3302
v -0.181371 0.43004 -0.33011
v -0.19585 0.429905 -0.329985
v -0.19585 0.443444 -0.319913
v -0.19585 0.457834 -0.307679
v -0.125331 0.339799 -0.305517
v -0.125331 0.442637 -0.318849
v -0.137833 0.44313 -0.319596
v -0.255152 0.452992 -0.305902
v -0.269038 0.450661 -0.305551
v -0.152313 0.429861 -0.330087
v -0.166842 0.311781 -0.41181
v -0.181667 0.31317 -0.410554
v -0.210379 0.425916 -0.332226
v -0.210379 0.442995 -0.319584
v -0.210379 0.457117 -0.307497
v -0.125331 0.000622085 -0.318939
v -0.475803 0.345447 -0.305517
v -0.521366 0.000622085 -0.305517
v -0.125331 0.425467 -0.331253
v -0.137833 0.429233 -0.329634
v -0.224858 0.455951 -0.307169
v -0.239387 0.454517 -0.306773
v -0.253867 0.443668 -0.314265
v -0.270422 0.43775 -0.316189
v -0.280355 0.446896 -0.306468
v -0.311883 0.438423 -0.306264
v -0.360016 0.42076 -0.305596
v -0.137833 0.310974 -0.411165
v -0.152412 0.313036 -0.410475
v -0.125331 0.298242 -0.415522
v -0.137833 0.297256 -0.416258
v -0.152313 0.297256 -0.416518
v -0.181371 0.297256 -0.416937
v -0.19585 0.297256 -0.416994
v -0.210379 0.297256 -0.416586
v -0.19585 0.310884 -0.411312
v -0.224858 0.425198 -0.331683
v -0.224858 0.442189 -0.318951
v -0.125331 0.000622085 -0.380223
v -0.452576 0.364993 -0.305879
v -0.46755 0.351051 -0.30666
v -0.482721 0.337154 -0.307056
v -0.49132 0.331775 -0.305517
v -0.388926 0.406101 -0.305687
v -0.6246 0.0798351 -0.305517
v -0.630184 0.00393945 -0.307214
v -0.615606 0.00393945 -0.319924
v -0.599397 0.00393945 -0.332373
v -0.468983 0.00393945 -0.419664
v -0.125331 0.310257 -0.410792
v -0.239387 0.441202 -0.318147
v -0.258463 0.435957 -0.319777
v -0.282875 0.429592 -0.320399
v -0.297354 0.427754 -0.318905
v -0.297354 0.441651 -0.307181
v -0.311883 0.429098 -0.314254
v -0.326066 0.431071 -0.308573
v -0.340842 0.427216 -0.30709
v -0.355421 0.412512 -0.314016
v -0.368516 0.413319 -0.308301
v -0.465721 0.0217814 -0.421124
v -0.435379 0.123319 -0.421045
v -0.420207 0.156 -0.420649
v -0.253867 0.282776 -0.417073
v -0.268346 0.282776 -0.416484
v -0.224858 0.297256 -0.415726
v -0.210379 0.30945 -0.410803
v -0.237855 0.422105 -0.33252
v -0.253867 0.427798 -0.326499
v -0.441507 0.369655 -0.30838
v -0.442297 0.358179 -0.316155
v -0.445954 0.349527 -0.32006
v -0.459297 0.343968 -0.316325
v -0.458062 0.356655 -0.308403
v -0.409632 0.393952 -0.305924
v -0.432018 0.378755 -0.3064
v -0.46498 0.334285 -0.319607
v -0.474617 0.329937 -0.316721
v -0.479855 0.320253 -0.319867
v -0.489491 0.315412 -0.31688
v -0.497151 0.323212 -0.307226
v -0.511729 0.309136 -0.30632
v -0.525468 0.293759 -0.306083
v -0.538563 0.278159 -0.305755
v -0.545482 0.268834 -0.305517
v -0.3699 0.398973 -0.319154
v -0.385417 0.392787 -0.317525
v -0.397376 0.398615 -0.307928
v -0.621141 0.0921631 -0.306558
v -0.61526 0.080104 -0.313847
v -0.626379 0.0653104 -0.306094
v -0.62796 0.0508307 -0.306558
v -0.628949 0.036306 -0.306841
v -0.594257 0.181507 -0.305585
v -0.610368 0.138785 -0.305596
v -0.613827 0.123319 -0.306649
v -0.629591 0.0217814 -0.307056
v -0.616199 0.0217814 -0.318871
v -0.599595 0.0217814 -0.331875
v -0.472936 0.0217814 -0.417729
v -0.268346 0.417846 -0.331773
v -0.268099 0.428829 -0.323647
v -0.299381 0.40767 -0.332622
v -0.311883 0.413319 -0.325956
v -0.31559 0.421209 -0.319573
v -0.282875 0.412332 -0.33286
v -0.328933 0.418698 -0.317728
v -0.340842 0.416412 -0.315895
v -0.354235 0.404756 -0.320456
v -0.46503 0.0508307 -0.421045
v -0.453021 0.0798351 -0.421102
v -0.450402 0.0991116 -0.420864
v -0.447585 0.113547 -0.420343
v -0.438739 0.135423 -0.418725
v -0.413338 0.181373 -0.416314
v -0.398809 0.195808 -0.417401
v -0.38433 0.210333 -0.41748
v -0.355371 0.224857 -0.418238
v -0.297354 0.268297 -0.417095
v -0.282875 0.282776 -0.414515
v -0.239387 0.297256 -0.414391
v -0.224858 0.308284 -0.409977
v -0.253867 0.419281 -0.332758
v -0.416699 0.374631 -0.317276
v -0.429943 0.364455 -0.318136
v -0.445559 0.330161 -0.331796
v -0.455393 0.339799 -0.321248
v -0.42846 0.356162 -0.324259
v -0.43864 0.336975 -0.331094
v -0.398809 0.387318 -0.315997
v -0.470416 0.325588 -0.321938
v -0.456431 0.325723 -0.329091
v -0.485143 0.311063 -0.322086
v -0.494285 0.305729 -0.319811
v -0.468736 0.309136 -0.332102
v -0.503131 0.31456 -0.308765
v -0.508221 0.290846 -0.319517
v -0.514497 0.296942 -0.311719
v -0.501747 0.298377 -0.319313
v -0.53125 0.284345 -0.307486
v -0.543456 0.267131 -0.307995
v -0.530014 0.269552 -0.316427
v -0.552697 0.257089 -0.306196
v -0.384231 0.384897 -0.323512
v -0.367726 0.381176 -0.332034
v -0.402911 0.378845 -0.320331
v -0.616496 0.108795 -0.30743
v -0.60419 0.0943149 -0.320841
v -0.614123 0.0653104 -0.317061
v -0.607551 0.0814489 -0.320252
v -0.615112 0.0508307 -0.317898
v -0.615705 0.036306 -0.318453
v -0.589316 0.166848 -0.314831
v -0.599002 0.166848 -0.306558
v -0.563816 0.237858 -0.30709
v -0.586351 0.195808 -0.307022
v -0.575874 0.182539 -0.320433
v -0.604981 0.148693 -0.307158
v -0.600879 0.137754 -0.313858
v -0.600484 0.123319 -0.317932
v -0.60251 0.108795 -0.319494
v -0.599051 0.036306 -0.331479
v -0.464585 0.0611413 -0.420875
v -0.239387 0.306894 -0.408596
v -0.311883 0.400497 -0.334659
v -0.268346 0.295463 -0.410531
v -0.326363 0.397987 -0.332973
v -0.340842 0.409149 -0.321271
v -0.254657 0.298556 -0.411199
v -0.340299 0.394042 -0.331943
v -0.355371 0.384673 -0.333777
v -0.445164 0.123319 -0.418951
v -0.462509 0.0708244 -0.420377
v -0.57029 0.137844 -0.336708
v -0.566929 0.156717 -0.334512
v -0.558232 0.181373 -0.333437
v -0.538712 0.214771 -0.33492
v -0.53204 0.226605 -0.334591
v -0.518599 0.242834 -0.33587
v -0.500314 0.253772 -0.34128
v -0.49977 0.267176 -0.335961
v -0.488058 0.284749 -0.334433
v -0.470663 0.282238 -0.344087
v -0.398958 0.210377 -0.410905
v -0.3699 0.224857 -0.416948
v -0.384182 0.224857 -0.410871
v -0.340842 0.239247 -0.417559
v -0.326363 0.253772 -0.416767
v -0.311883 0.268297 -0.414798
v -0.297009 0.283404 -0.410644
v -0.412449 0.369834 -0.322482
v -0.441358 0.325723 -0.335972
v -0.451341 0.320478 -0.334354
v -0.427818 0.34083 -0.333607
v -0.412103 0.353113 -0.332939
v -0.458704 0.313977 -0.334422
v -0.485686 0.297166 -0.329465
v -0.473579 0.299542 -0.334625
v -0.480744 0.29228 -0.334693
v -0.525715 0.265517 -0.321316
v -0.520328 0.279011 -0.317909
v -0.497151 0.279907 -0.331671
v -0.541133 0.251934 -0.31757
v -0.532732 0.256775 -0.321101
v -0.38433 0.373197 -0.331162
v -0.372569 0.373241 -0.335248
v -0.398216 0.368848 -0.328672
v -0.585461 0.108795 -0.332226
v -0.58724 0.0943149 -0.333471
v -0.588821 0.0798351 -0.334523
v -0.601868 0.0653104 -0.326862
v -0.600632 0.0511893 -0.329216
v -0.581261 0.170883 -0.319981
v -0.588377 0.152324 -0.319845
v -0.545976 0.239875 -0.31955
v -0.560604 0.224857 -0.315408
v -0.569993 0.224857 -0.308154
v -0.576665 0.210915 -0.308867
v -0.566485 0.204684 -0.31972
v -0.572217 0.195808 -0.318566
v -0.568017 0.168552 -0.330619
v -0.59317 0.136499 -0.320411
v -0.581705 0.121705 -0.332464
v -0.594109 0.0607827 -0.333222
v -0.311883 0.278742 -0.408936
v -0.548398 0.196346 -0.334829
v -0.577554 0.137844 -0.33183
v -0.574984 0.152324 -0.329883
v -0.547162 0.210333 -0.330868
v -0.542912 0.224364 -0.328288
v -0.527197 0.237992 -0.332871
v -0.514596 0.253772 -0.33346
v -0.508023 0.261572 -0.333844
v -0.460878 0.286721 -0.346758
v -0.369406 0.239023 -0.410135
v -0.355371 0.239247 -0.415635
v -0.456332 0.296673 -0.344053
v -0.342177 0.255117 -0.412025
v -0.325819 0.268566 -0.410271
v -0.400391 0.35791 -0.334591
v -0.416946 0.34464 -0.335814
v -0.504218 0.27121 -0.331604
v -0.388629 0.364679 -0.334874
v -0.38433 0.35531 -0.341744
v -0.552252 0.228533 -0.319935
v -0.563717 0.214322 -0.317706
v -0.355371 0.250903 -0.409445
v -0.338223 0.263948 -0.408517
f 1 2 3
f 1 3 4
f 1 4 5
f 1 5 6
f 1 6 7
f 1 7 2
f 2 8 9
f 2 9 10
f 2 10 3
f 2 7 8
f 3 10 11
f 3 11 4
f 4 11 12
f 4 12 5
f 5 13 14
f 5 14 15
f 5 15 6
f 5 12 16
f 5 16 17
f 5 17 13
f 6 15 7
f 7 15 18
f 7 18 8
f 8 19 9
f 8 18 19
f 9 19 10
f 10 19 20
f 10 20 21
f 10 21 22
f 10 22 11
f 11 22 12
f 12 22 23
f 12 23 16
f 13 24 47
f 13 47 38
f 13 38 58
f 13 58 27
f 13 27 14
f 13 17 25
f 13 25 51
f 13 51 93
f 13 93 53
f 13 53 26
f 13 26 24
f 14 27 15
f 15 28 18
f 15 27 28
f 16 23 29
f 16 29 30
f 16 30 31
f 16 31 17
f 17 31 32
f 17 32 33
f 17 33 34
f 17 34 35
f 17 35 25
f 18 28 36
f 18 36 37
f 18 37 19
f 19 37 36
f 19 36 38
f 19 38 39
f 19 39 40
f 19 40 41
f 19 41 42
f 19 42 43
f 19 43 44
f 19 44 20
f 20 44 21
f 21 45 22
f 21 44 45
f 22 45 46
f 22 46 23
f 23 46 29
f 24 26 47
f 25 48 49
f 25 49 50
f 25 50 51
f 25 35 52
f 25 52 48
f 26 53 54
f 26 54 55
f 26 55 56
f 26 56 57
f 26 57 47
f 27 58 28
f 28 58 36
f 29 46 30
f 30 46 59
f 30 59 31
f 31 59 60
f 31 60 32
f 32 61 62
f 32 62 33
f 32 60 61
f 33 62 63
f 33 63 34
f 34 63 64
f 34 64 65
f 34 65 66
f 34 66 35
f 35 66 67
f 35 67 68
f 35 68 52
f 36 58 38
f 38 47 57
f 38 57 69
f 38 69 39
f 39 69 70
f 39 70 40
f 40 70 41
f 41 70 71
f 41 71 42
f 42 71 72
f 42 72 43
f 43 72 73
f 43 73 74
f 43 74 44
f 44 74 75
f 44 75 76
f 44 76 45
f 45 76 77
f 45 77 59
f 45 59 46
f 48 78 79
f 48 79 80
f 48 80 81
f 48 81 82
f 48 82 49
f 48 52 83
f 48 83 84
f 48 84 78
f 49 82 85
f 49 85 50
f 50 85 51
f 51 85 86
f 51 86 87
f 51 87 88
f 51 88 89
f 51 89 90
f 51 90 91
f 51 91 92
f 51 92 93
f 52 68 94
f 52 94 95
f 52 95 96
f 52 96 83
f 53 97 98
f 53 98 99
f 53 99 100
f 53 100 101
f 53 101 54
f 53 93 102
f 53 102 103
f 53 103 104
f 53 104 97
f 54 101 105
f 54 105 106
f 54 106 55
f 55 106 107
f 55 107 56
f 56 107 108
f 56 108 57
f 57 108 69
f 59 77 60
f 60 109 110
f 60 110 61
f 60 77 109
f 61 110 109
f 61 109 62
f 62 111 112
f 62 112 113
f 62 113 64
f 62 64 63
f 62 109 114
f 62 114 111
f 64 113 65
f 65 113 115
f 65 115 116
f 65 116 66
f 66 116 67
f 67 116 117
f 67 117 94
f 67 94 68
f 69 108 118
f 69 118 119
f 69 119 70
f 70 119 120
f 70 120 121
f 70 121 71
f 71 121 122
f 71 122 123
f 71 123 124
f 71 124 125
f 71 125 126
f 71 126 127
f 71 127 72
f 72 127 73
f 73 128 129
f 73 129 74
f 73 127 128
f 74 129 75
f 75 129 130
f 75 130 131
f 75 131 76
f 76 131 77
f 77 131 109
f 78 84 132
f 78 132 133
f 78 133 79
f 79 133 80
f 80 134 135
f 80 135 85
f 80 85 81
f 80 133 136
f 80 136 137
f 80 137 134
f 81 85 82
f 83 96 138
f 83 138 132
f 83 132 84
f 85 139 87
f 85 87 86
f 85 135 140
f 85 140 139
f 87 141 142
f 87 142 88
f 87 139 143
f 87 143 141
f 88 142 89
f 89 142 144
f 89 144 90
f 90 145 146
f 90 146 91
f 90 144 147
f 90 147 145
f 91 146 145
f 91 145 148
f 91 148 92
f 92 149 93
f 92 148 150
f 92 150 149
f 93 149 151
f 93 151 102
f 94 152 95
f 94 117 153
f 94 153 152
f 95 138 96
f 95 152 154
f 95 154 138
f 97 104 155
f 97 155 156
f 97 156 98
f 98 157 99
f 98 156 158
f 98 158 157
f 99 157 100
f 100 157 159
f 100 159 101
f 101 159 160
f 101 160 106
f 101 106 105
f 102 161 162
f 102 162 103
f 102 151 163
f 102 163 164
f 102 164 165
f 102 165 161
f 103 162 166
f 103 166 167
f 103 167 168
f 103 168 104
f 104 168 169
f 104 169 155
f 106 160 107
f 107 160 170
f 107 170 108
f 108 171 118
f 108 170 171
f 109 131 130
f 109 130 172
f 109 172 114
f 111 173 112
f 111 114 174
f 111 174 173
f 112 173 175
f 112 175 113
f 113 175 176
f 113 176 115
f 114 172 177
f 114 177 174
f 115 176 116
f 116 176 117
f 117 176 178
f 117 178 179
f 117 179 153
f 118 171 119
f 119 171 120
f 120 171 121
f 121 180 122
f 121 171 181
f 121 181 182
f 121 182 183
f 121 183 184
f 121 184 180
f 122 180 185
f 122 185 186
f 122 186 123
f 123 186 187
f 123 187 188
f 123 188 189
f 123 189 190
f 123 190 124
f 124 190 191
f 124 191 192
f 124 192 125
f 125 193 126
f 125 192 194
f 125 194 193
f 126 195 127
f 126 193 195
f 127 195 196
f 127 196 197
f 127 197 128
f 128 198 174
f 128 174 129
f 128 197 198
f 129 172 130
f 129 174 177
f 129 177 172
f 132 138 154
f 132 154 199
f 132 199 133
f 133 199 136
f 134 137 200
f 134 200 201
f 134 201 140
f 134 140 135
f 136 202 137
f 136 199 203
f 136 203 202
f 137 202 200
f 139 140 143
f 140 201 204
f 140 204 143
f 141 143 205
f 141 205 142
f 142 147 144
f 142 205 145
f 142 145 147
f 143 206 207
f 143 207 205
f 143 204 206
f 145 208 209
f 145 209 148
f 145 205 210
f 145 210 208
f 148 209 150
f 149 150 211
f 149 211 151
f 150 208 212
f 150 212 211
f 150 209 208
f 151 211 163
f 152 213 154
f 152 153 213
f 153 179 214
f 153 214 213
f 154 213 215
f 154 215 199
f 155 169 156
f 156 169 216
f 156 216 217
f 156 217 218
f 156 218 158
f 157 158 219
f 157 219 159
f 158 218 219
f 159 219 220
f 159 220 160
f 160 220 170
f 161 167 166
f 161 166 162
f 161 165 221
f 161 221 222
f 161 222 167
f 163 211 223
f 163 223 224
f 163 224 225
f 163 225 164
f 164 225 226
f 164 226 227
f 164 227 228
f 164 228 165
f 165 228 227
f 165 227 184
f 165 184 229
f 165 229 221
f 167 222 230
f 167 230 168
f 168 230 231
f 168 231 169
f 169 231 216
f 170 232 171
f 170 220 232
f 171 232 218
f 171 218 217
f 171 217 216
f 171 216 231
f 171 231 181
f 173 174 175
f 174 198 178
f 174 178 175
f 175 178 176
f 178 198 179
f 179 198 233
f 179 233 214
f 180 184 234
f 180 234 185
f 181 231 182
f 182 231 235
f 182 235 183
f 183 235 236
f 183 236 229
f 183 229 184
f 184 227 237
f 184 237 234
f 185 234 237
f 185 237 238
f 185 238 186
f 186 212 239
f 186 239 187
f 186 238 223
f 186 223 212
f 187 239 240
f 187 240 241
f 187 241 188
f 188 241 189
f 189 210 190
f 189 241 210
f 190 210 205
f 190 205 207
f 190 207 191
f 191 207 242
f 191 242 192
f 192 242 194
f 193 194 243
f 193 243 244
f 193 244 196
f 193 196 195
f 194 242 245
f 194 245 204
f 194 204 201
f 194 201 243
f 196 244 197
f 197 244 246
f 197 246 247
f 197 247 233
f 197 233 198
f 199 215 248
f 199 248 203
f 200 202 243
f 200 243 201
f 202 203 249
f 202 249 244
f 202 244 243
f 203 248 249
f 204 245 206
f 206 245 242
f 206 242 207
f 208 210 250
f 208 250 241
f 208 241 212
f 210 241 250
f 211 212 223
f 212 241 240
f 212 240 239
f 213 214 251
f 213 251 215
f 214 252 251
f 214 233 252
f 215 251 248
f 218 232 219
f 219 232 220
f 221 229 222
f 222 229 236
f 222 236 235
f 222 235 230
f 223 238 253
f 223 253 224
f 224 254 225
f 224 253 254
f 225 254 227
f 225 227 226
f 227 254 238
f 227 238 237
f 230 235 231
f 233 247 252
f 238 254 253
f 244 255 246
f 244 249 255
f 246 256 247
f 246 255 249
f 246 249 248
f 246 248 252
f 246 252 256
f 247 256 252
f 248 251 252
