v 0.0703225 -0.0585615 -0.322304
v 0.0703225 -0.234357 -0.307357
v 0.0703225 -0.0585615 -0.386559
v -0.0072608 -0.0585615 -0.32138
v 0.0703225 -0.234357 -0.387925
v -0.0217586 -0.0585615 -0.321222
v -0.0942667 -0.0585615 -0.320687
v -0.108764 -0.0585615 -0.320582
v -0.123281 -0.0585615 -0.320508
v -0.125331 -0.0585615 -0.320508
v -0.125331 -0.234357 -0.325077
v 0.0703225 -0.16673 -0.411044
v -0.125331 -0.0585615 -0.378912
v 0.0703225 -0.226046 -0.396107
v 0.0666071 -0.234357 -0.39157
v 0.0567823 -0.230864 -0.40492
v -0.125331 -0.234357 -0.387336
v 0.0703225 -0.181288 -0.413229
v 0.0652664 -0.181288 -0.413156
v 0.00723699 -0.234357 -0.412946
v 0.0703225 -0.217821 -0.403912
v 0.0547522 -0.234357 -0.402904
v 0.0474746 -0.234357 -0.408576
v 0.0615319 -0.221211 -0.408366
v 0.0703225 -0.195726 -0.412589
v 0.0652664 -0.195795 -0.414038
v 0.0507495 -0.210301 -0.414385
v 0.0362517 -0.224807 -0.414658
v 0.0217539 -0.224807 -0.413408
v 0.0217539 -0.234357 -0.414238
v 0.0703225 -0.215153 -0.40574
v 0.0514773 -0.225547 -0.410782
v 0.0364624 -0.234357 -0.412105
v 0.0659176 -0.210834 -0.410509
v 0.0703225 -0.208718 -0.409343
f 1 2 5
f 1 5 14
f 1 14 21
f 1 21 31
f 1 31 35
f 1 35 25
f 1 25 18
f 1 18 12
f 1 12 3
f 1 3 13
f 1 13 10
f 1 10 9
f 1 9 8
f 1 8 7
f 1 7 6
f 1 6 4
f 1 4 2
f 2 4 6
f 2 6 7
f 2 7 8
f 2 8 9
f 2 9 10
f 2 10 11
f 2 11 17
f 2 17 20
f 2 20 30
f 2 30 33
f 2 33 23
f 2 23 22
f 2 22 15
f 2 15 5
f 3 12 13
f 5 15 16
f 5 16 14
f 10 13 17
f 10 17 11
f 12 18 19
f 12 19 13
f 13 19 20
f 13 20 17
f 14 16 21
f 15 22 16
f 16 22 23
f 16 23 24
f 16 24 21
f 18 25 26
f 18 26 19
f 19 26 27
f 19 27 28
f 19 28 29
f 19 29 20
f 20 29 30
f 21 24 31
f 23 32 24
f 23 33 32
f 24 32 34
f 24 34 35
f 24 35 31
f 25 35 34
f 25 34 26
f 26 34 27
f 27 34 32
f 27 32 28
f 28 33 30
f 28 30 29
f 28 32 33
