v -0.125331 0.391532 -0.276506
v 0.0664086 0.313025 -0.276506
v -0.125331 0.446743 -0.208035
v -0.125331 0.485582 -0.276506
v 0.0664086 0.426184 -0.276506
v 0.0664086 0.381667 -0.208035
v -0.125331 0.524731 -0.208035
v -0.125331 0.48981 -0.27107
v -0.123266 0.489727 -0.270983
v -0.123266 0.485416 -0.276506
v 0.0600461 0.429935 -0.276506
v 0.056161 0.434163 -0.274468
v 0.0664086 0.430267 -0.272136
v 0.0664086 0.470805 -0.208035
v -0.123773 0.524628 -0.208035
v -0.125331 0.524503 -0.208652
v -0.125331 0.495032 -0.263817
v -0.123266 0.494991 -0.26373
v -0.108777 0.488939 -0.270091
v -0.11375 0.484463 -0.276506
v -0.108777 0.49439 -0.262839
v 0.0550161 0.432733 -0.276506
v 0.0652637 0.431531 -0.271485
v 0.0485973 0.435987 -0.276506
v 0.0455005 0.437438 -0.276506
v 0.0362476 0.446101 -0.271271
v 0.0362476 0.451966 -0.264018
v 0.0443368 0.450018 -0.261599
v 0.0652637 0.437521 -0.264233
v 0.0664086 0.43723 -0.263844
v 0.0664086 0.431158 -0.271144
v 0.0664086 0.469354 -0.211434
v 0.0630678 0.472525 -0.208035
v -0.123266 0.524586 -0.208035
v -0.123266 0.524421 -0.208478
v -0.123266 0.521333 -0.21573
v -0.125331 0.521395 -0.215905
v -0.125331 0.496027 -0.262329
v -0.125331 0.501664 -0.25381
v -0.123266 0.50154 -0.25381
v -0.0973655 0.493644 -0.26182
v -0.0876997 0.493022 -0.260915
v -0.0932364 0.488919 -0.267316
v -0.0973092 0.482432 -0.276506
v -0.108777 0.483945 -0.276506
v -0.108777 0.500152 -0.25381
v 0.0305044 0.444277 -0.276506
v 0.0261501 0.44838 -0.274133
v 0.0214955 0.454577 -0.268905
v 0.0142133 0.464007 -0.260908
v 0.0217395 0.462453 -0.258669
v 0.0365854 0.459717 -0.253441
v 0.0540026 0.447614 -0.258395
v 0.0416529 0.463323 -0.24529
v 0.0497985 0.45323 -0.253662
v 0.060947 0.451199 -0.248729
v 0.0664086 0.44407 -0.254514
v 0.0664086 0.46923 -0.211695
v 0.0429479 0.47837 -0.217037
v 0.0516753 0.476629 -0.211447
v 0.053646 0.477188 -0.208035
v -0.119437 0.524213 -0.208035
v -0.108777 0.523136 -0.208035
v -0.108777 0.520628 -0.214061
v -0.108777 0.51582 -0.224813
v -0.123266 0.517188 -0.224813
v -0.125331 0.517851 -0.2237
v -0.125331 0.502369 -0.252731
v -0.123266 0.506929 -0.245331
v -0.108777 0.50612 -0.24391
v -0.0942687 0.505043 -0.242019
v -0.0787284 0.504545 -0.238561
v -0.0797606 0.496608 -0.252523
v -0.0797606 0.492297 -0.259775
v -0.0797606 0.485872 -0.268315
v -0.0797606 0.479509 -0.276506
v -0.0940998 0.481976 -0.276506
v 0.0249677 0.446743 -0.276506
v 0.0165219 0.450474 -0.276506
v 0.0319871 0.465292 -0.24836
v 0.00852648 0.460401 -0.268221
v 0.00454756 0.465852 -0.263321
v -0.00725784 0.475323 -0.256337
v 0.000606168 0.478846 -0.246926
v 0.0476776 0.466121 -0.235631
v 0.0518067 0.461499 -0.240002
v 0.010272 0.476898 -0.243796
v 0.0175541 0.479862 -0.234137
v 0.0272199 0.477893 -0.230711
v 0.0664086 0.449728 -0.246611
v 0.0664086 0.465333 -0.219879
v 0.0332822 0.480401 -0.221039
v 0.0373737 0.483095 -0.211447
v 0.0458008 0.480898 -0.208035
v 0.0481468 0.479841 -0.208035
v 0.0624484 0.466308 -0.22177
v 0.0573434 0.463779 -0.231435
v 0.0373737 0.476338 -0.22545
v -0.105248 0.5227 -0.208035
v -0.0942687 0.519737 -0.211876
v -0.0942687 0.513934 -0.224813
v -0.108777 0.510058 -0.23667
v -0.123266 0.510742 -0.238085
v -0.125331 0.517312 -0.224813
v -0.125331 0.511778 -0.236208
v -0.125331 0.506991 -0.245451
v -0.0942687 0.509084 -0.234773
v -0.0828762 0.508255 -0.233232
v -0.0732104 0.507509 -0.231817
v -0.0652526 0.495281 -0.250237
v -0.0652526 0.490805 -0.25749
v -0.0664725 0.482618 -0.269039
v -0.0721031 0.478701 -0.275675
v -0.0789724 0.479364 -0.276506
v 0.00131937 0.456422 -0.276506
v -0.00725784 0.462391 -0.273436
v -0.00725784 0.468069 -0.266183
v -0.0187629 0.477313 -0.259226
v -0.00725784 0.480255 -0.249084
v -0.00725784 0.485872 -0.239311
v 0.00616165 0.481292 -0.239103
v 0.0664086 0.454266 -0.239465
v 0.0664086 0.45352 -0.240659
v 0.0221337 0.482618 -0.22545
v 0.0066684 0.489147 -0.224015
v 0.0664086 0.462121 -0.225932
v 0.0111353 0.491903 -0.214631
v 0.0215706 0.489955 -0.209999
v 0.0370734 0.484587 -0.208035
v 0.0225466 0.490411 -0.208035
v 0.0339391 0.485893 -0.208035
v -0.0942687 0.521333 -0.208035
v -0.0818252 0.519426 -0.208035
v -0.0787284 0.510991 -0.226113
v -0.125331 0.510783 -0.238205
v -0.0808867 0.518846 -0.208994
v -0.0652526 0.515343 -0.210308
v -0.0652526 0.509934 -0.222735
v -0.0507445 0.508421 -0.219303
v -0.0652526 0.506638 -0.229987
v -0.0496184 0.497395 -0.240632
v -0.0537099 0.4941 -0.248199
v -0.0496184 0.48983 -0.253341
v -0.0507445 0.481851 -0.265312
v -0.0624373 0.477706 -0.274361
v -0.0633194 0.476028 -0.276506
v -0.0713711 0.47781 -0.276506
v -0.0141834 0.462391 -0.276506
v -0.0152157 0.463883 -0.275299
v -0.0218222 0.471344 -0.268302
v -0.0284287 0.478784 -0.261297
v -0.0228733 0.481872 -0.254158
v -0.0362552 0.491903 -0.244399
v -0.0209026 0.490286 -0.239171
v -0.025163 0.494349 -0.234237
v -0.0154972 0.492794 -0.231442
v -0.00725784 0.491488 -0.228794
v 0.00146952 0.493644 -0.218653
v 0.0196374 0.491488 -0.208035
v 0.0066684 0.495406 -0.209999
v 0.0105535 0.494825 -0.208035
v -0.0804175 0.519156 -0.208035
v -0.0680115 0.516773 -0.208035
v -0.0650649 0.516172 -0.208035
v -0.0507445 0.512234 -0.210308
v -0.0434623 0.507633 -0.21758
v -0.0507445 0.505001 -0.226556
v -0.0362552 0.495944 -0.237153
v -0.0440441 0.492981 -0.246336
v -0.0362552 0.485955 -0.25381
v -0.0362552 0.479924 -0.262765
v -0.0507445 0.476318 -0.272565
v -0.0507445 0.473022 -0.276506
v -0.058815 0.475012 -0.276506
v -0.0161729 0.463074 -0.276506
v -0.0219911 0.46494 -0.276506
v -0.0362552 0.474328 -0.270018
v -0.0376816 0.503343 -0.223372
v -0.0209026 0.497271 -0.225885
v -0.00725784 0.495074 -0.221542
v -0.0214844 0.504877 -0.2101
v -0.00956637 0.501851 -0.208035
v -0.0528466 0.51354 -0.208035
v -0.0507445 0.513084 -0.208035
v -0.0395585 0.510535 -0.208035
v -0.0376816 0.509333 -0.2101
v -0.0337965 0.506411 -0.214792
v -0.0362552 0.469085 -0.276506
v -0.041867 0.470639 -0.276506
v -0.0257073 0.466038 -0.276506
v -0.0234175 0.506369 -0.208035
v -0.0203207 0.505374 -0.208035
v -0.0328956 0.50898 -0.208035
f 1 2 3
f 1 3 7
f 1 7 16
f 1 16 37
f 1 37 67
f 1 67 104
f 1 104 105
f 1 105 135
f 1 135 106
f 1 106 68
f 1 68 39
f 1 39 38
f 1 38 17
f 1 17 8
f 1 8 4
f 1 4 10
f 1 10 20
f 1 20 45
f 1 45 44
f 1 44 77
f 1 77 76
f 1 76 114
f 1 114 147
f 1 147 146
f 1 146 174
f 1 174 173
f 1 173 189
f 1 189 188
f 1 188 190
f 1 190 176
f 1 176 175
f 1 175 148
f 1 148 115
f 1 115 79
f 1 79 78
f 1 78 47
f 1 47 25
f 1 25 24
f 1 24 22
f 1 22 11
f 1 11 5
f 1 5 2
f 2 5 13
f 2 13 31
f 2 31 30
f 2 30 57
f 2 57 90
f 2 90 123
f 2 123 122
f 2 122 126
f 2 126 91
f 2 91 58
f 2 58 32
f 2 32 14
f 2 14 6
f 2 6 3
f 3 6 14
f 3 14 33
f 3 33 61
f 3 61 95
f 3 95 94
f 3 94 129
f 3 129 131
f 3 131 130
f 3 130 159
f 3 159 161
f 3 161 182
f 3 182 192
f 3 192 191
f 3 191 193
f 3 193 185
f 3 185 184
f 3 184 183
f 3 183 164
f 3 164 163
f 3 163 162
f 3 162 133
f 3 133 132
f 3 132 99
f 3 99 63
f 3 63 62
f 3 62 34
f 3 34 15
f 3 15 7
f 4 8 9
f 4 9 10
f 5 11 12
f 5 12 13
f 7 15 16
f 8 17 18
f 8 18 9
f 9 19 20
f 9 20 10
f 9 18 21
f 9 21 19
f 11 22 12
f 12 23 13
f 12 22 24
f 12 24 25
f 12 25 26
f 12 26 27
f 12 27 28
f 12 28 29
f 12 29 30
f 12 30 23
f 13 23 31
f 14 32 33
f 15 34 35
f 15 35 16
f 16 35 36
f 16 36 37
f 17 38 18
f 18 38 39
f 18 39 40
f 18 40 21
f 19 21 41
f 19 41 42
f 19 42 43
f 19 43 44
f 19 44 45
f 19 45 20
f 21 40 46
f 21 46 41
f 23 30 31
f 25 47 48
f 25 48 26
f 26 48 27
f 27 49 50
f 27 50 51
f 27 51 52
f 27 52 28
f 27 48 49
f 28 53 29
f 28 52 54
f 28 54 55
f 28 55 53
f 29 53 30
f 30 53 56
f 30 56 57
f 32 58 59
f 32 59 60
f 32 60 61
f 32 61 33
f 34 62 35
f 35 62 63
f 35 63 64
f 35 64 36
f 36 64 65
f 36 65 66
f 36 66 67
f 36 67 37
f 39 68 40
f 40 68 69
f 40 69 46
f 41 46 42
f 42 46 70
f 42 70 71
f 42 71 72
f 42 72 73
f 42 73 74
f 42 74 75
f 42 75 76
f 42 76 77
f 42 77 43
f 43 77 44
f 46 69 70
f 47 78 48
f 48 78 79
f 48 79 49
f 49 79 50
f 50 80 51
f 50 79 81
f 50 81 82
f 50 82 83
f 50 83 84
f 50 84 80
f 51 80 54
f 51 54 52
f 53 55 56
f 54 85 86
f 54 86 56
f 54 56 55
f 54 80 84
f 54 84 87
f 54 87 88
f 54 88 89
f 54 89 85
f 56 86 90
f 56 90 57
f 58 91 59
f 59 92 93
f 59 93 94
f 59 94 95
f 59 95 61
f 59 61 60
f 59 91 96
f 59 96 97
f 59 97 85
f 59 85 98
f 59 98 92
f 63 99 64
f 64 99 100
f 64 100 65
f 65 101 102
f 65 102 103
f 65 103 66
f 65 100 101
f 66 104 67
f 66 103 105
f 66 105 104
f 68 106 69
f 69 106 103
f 69 103 102
f 69 102 70
f 70 102 107
f 70 107 71
f 71 107 108
f 71 108 72
f 72 108 109
f 72 109 73
f 73 110 74
f 73 109 110
f 74 110 111
f 74 111 112
f 74 112 75
f 75 112 113
f 75 113 114
f 75 114 76
f 79 115 116
f 79 116 81
f 81 116 82
f 82 117 83
f 82 116 117
f 83 117 118
f 83 118 119
f 83 119 84
f 84 119 120
f 84 120 121
f 84 121 88
f 84 88 87
f 85 97 86
f 85 89 98
f 86 97 122
f 86 122 123
f 86 123 90
f 88 124 89
f 88 121 125
f 88 125 124
f 89 124 92
f 89 92 98
f 91 126 97
f 91 97 96
f 92 124 127
f 92 127 128
f 92 128 93
f 93 129 94
f 93 128 130
f 93 130 131
f 93 131 129
f 97 126 122
f 99 132 100
f 100 132 133
f 100 133 134
f 100 134 101
f 101 134 109
f 101 109 108
f 101 108 107
f 101 107 102
f 103 106 135
f 103 135 105
f 109 134 136
f 109 136 137
f 109 137 138
f 109 138 139
f 109 139 140
f 109 140 141
f 109 141 142
f 109 142 110
f 110 142 111
f 111 142 143
f 111 143 144
f 111 144 112
f 112 144 145
f 112 145 113
f 113 145 146
f 113 146 147
f 113 147 114
f 115 148 149
f 115 149 116
f 116 149 117
f 117 149 118
f 118 149 150
f 118 150 151
f 118 151 152
f 118 152 119
f 119 152 153
f 119 153 154
f 119 154 120
f 120 154 155
f 120 155 156
f 120 156 157
f 120 157 121
f 121 157 125
f 124 125 127
f 125 157 158
f 125 158 127
f 127 159 130
f 127 130 128
f 127 158 160
f 127 160 161
f 127 161 159
f 133 162 137
f 133 137 136
f 133 136 134
f 137 162 163
f 137 163 164
f 137 164 165
f 137 165 166
f 137 166 139
f 137 139 138
f 139 166 140
f 140 166 167
f 140 167 141
f 141 167 168
f 141 168 169
f 141 169 142
f 142 169 143
f 143 170 171
f 143 171 144
f 143 169 170
f 144 171 172
f 144 172 145
f 145 172 173
f 145 173 174
f 145 174 146
f 148 175 149
f 149 175 176
f 149 176 177
f 149 177 150
f 150 177 151
f 151 171 170
f 151 170 152
f 151 177 171
f 152 170 169
f 152 169 153
f 153 169 168
f 153 168 155
f 153 155 154
f 155 168 178
f 155 178 179
f 155 179 156
f 156 179 157
f 157 179 180
f 157 180 158
f 158 180 181
f 158 181 182
f 158 182 160
f 160 182 161
f 164 183 165
f 165 183 184
f 165 184 185
f 165 185 186
f 165 186 166
f 166 186 187
f 166 187 178
f 166 178 167
f 167 178 168
f 171 177 172
f 172 177 188
f 172 188 189
f 172 189 173
f 176 190 177
f 177 190 188
f 178 187 179
f 179 187 181
f 179 181 180
f 181 187 191
f 181 191 192
f 181 192 182
f 185 193 186
f 186 193 187
f 187 193 191
