v -0.481371 0.167378 -0.305498
v -0.521389 0.000577245 -0.305498
v -0.599901 0.167378 -0.305498
v -0.579645 0.167378 -0.220756
v -0.612479 0.000577245 -0.220756
v -0.632014 0.000577245 -0.305498
v -0.600148 0.16679 -0.305498
v -0.600231 0.167378 -0.305199
v -0.663365 0.167378 -0.220756
v -0.691629 0.000577245 -0.220756
v -0.632302 0.000577245 -0.305249
v -0.632014 0.00725579 -0.305498
v -0.607724 0.146379 -0.305498
v -0.609185 0.14517 -0.304618
v -0.607415 0.154837 -0.302901
v -0.605192 0.16679 -0.300761
v -0.605089 0.167378 -0.300645
v -0.661966 0.167378 -0.223792
v -0.663571 0.166888 -0.220756
v -0.691649 0.00307558 -0.220756
v -0.689797 0.000577245 -0.224812
v -0.635637 0.000577245 -0.302163
v -0.631273 0.0217559 -0.305498
v -0.635617 0.00725579 -0.302155
v -0.610173 0.139651 -0.305498
v -0.623862 0.145644 -0.290292
v -0.612664 0.16679 -0.29351
v -0.61254 0.167378 -0.293402
v -0.665197 0.152273 -0.227931
v -0.662665 0.165663 -0.223609
v -0.665033 0.162838 -0.220756
v -0.655337 0.167378 -0.236767
v -0.691649 0.00725579 -0.220756
v -0.689817 0.00725579 -0.224812
v -0.687121 0.000577245 -0.230263
v -0.639466 0.000577245 -0.298247
v -0.642718 0.00725579 -0.294904
v -0.630388 0.0362724 -0.305498
v -0.635246 0.0217559 -0.301756
v -0.642389 0.0217559 -0.294506
v -0.610811 0.137773 -0.305498
v -0.617749 0.137773 -0.298795
v -0.625077 0.137773 -0.291544
v -0.633167 0.1381 -0.282045
v -0.627979 0.151196 -0.28329
v -0.626477 0.16679 -0.27886
v -0.622071 0.155311 -0.288433
v -0.61991 0.16679 -0.28611
v -0.619786 0.167378 -0.285994
v -0.666659 0.143162 -0.230976
v -0.666741 0.157907 -0.220756
v -0.65544 0.16679 -0.236949
v -0.65122 0.167378 -0.243992
v -0.691279 0.0217559 -0.220756
v -0.689467 0.0217559 -0.224812
v -0.683827 0.0217559 -0.236219
v -0.683971 0.00725579 -0.236584
v -0.683971 0.000577245 -0.236617
v -0.642698 0.000577245 -0.294912
v -0.649964 0.00725579 -0.28699
v -0.649635 0.0217559 -0.28665
v -0.62905 0.0507725 -0.305498
v -0.634834 0.0362724 -0.301292
v -0.641813 0.0362724 -0.294041
v -0.615052 0.123273 -0.305498
v -0.61991 0.123273 -0.300885
v -0.627053 0.123273 -0.293635
v -0.634299 0.123273 -0.285563
v -0.639034 0.133495 -0.276695
v -0.637593 0.143162 -0.274803
v -0.636152 0.152273 -0.272912
v -0.626374 0.167378 -0.278727
v -0.629894 0.167378 -0.274347
v -0.66353 0.138116 -0.238675
v -0.667915 0.133495 -0.233407
v -0.674605 0.123273 -0.224812
v -0.670364 0.138116 -0.225609
v -0.668553 0.152045 -0.220756
v -0.652579 0.159278 -0.24644
v -0.651302 0.16679 -0.244208
v -0.648153 0.167378 -0.248845
v -0.690373 0.0362724 -0.220756
v -0.688644 0.0362724 -0.224812
v -0.683477 0.0362724 -0.235514
v -0.679957 0.0217559 -0.24347
v -0.680225 0.00725579 -0.243835
v -0.680245 0.000577245 -0.243868
v -0.682263 0.000577245 -0.239952
v -0.646609 0.000577245 -0.29064
v -0.649944 0.000577245 -0.286973
v -0.656078 0.000577245 -0.279723
v -0.656016 0.00725579 -0.279731
v -0.655687 0.0217559 -0.279399
v -0.649079 0.0362724 -0.28592
v -0.634176 0.0507725 -0.300554
v -0.627012 0.0652726 -0.305498
v -0.641051 0.0507725 -0.293303
v -0.618613 0.108773 -0.305498
v -0.62168 0.108773 -0.302694
v -0.628762 0.108773 -0.295443
v -0.637284 0.0974897 -0.28908
v -0.636008 0.108773 -0.287604
v -0.642121 0.108773 -0.280353
v -0.640351 0.123273 -0.278312
v -0.649367 0.108773 -0.271294
v -0.653587 0.119419 -0.262318
v -0.652249 0.129086 -0.260484
v -0.64313 0.1381 -0.269311
v -0.641504 0.152273 -0.265661
v -0.639672 0.16434 -0.263123
v -0.635699 0.167378 -0.26703
v -0.63469 0.167378 -0.268349
v -0.664992 0.123273 -0.242922
v -0.65402 0.149595 -0.248655
v -0.655728 0.137773 -0.251317
v -0.669191 0.123273 -0.235671
v -0.678516 0.108577 -0.223949
v -0.679566 0.110488 -0.220756
v -0.676396 0.123273 -0.220756
v -0.672546 0.137643 -0.220756
v -0.644118 0.167378 -0.255167
v -0.649491 0.15358 -0.253624
v -0.689097 0.0509194 -0.220756
v -0.687368 0.0507725 -0.224812
v -0.682818 0.0507725 -0.234286
v -0.679545 0.0362724 -0.242773
v -0.672773 0.0362724 -0.253823
v -0.673534 0.0217559 -0.253823
v -0.67407 0.00725579 -0.253823
v -0.674193 0.000577245 -0.253823
v -0.677507 0.000577245 -0.248431
v -0.663324 0.000577245 -0.270108
v -0.663262 0.00725579 -0.26995
v -0.655111 0.0362724 -0.278669
v -0.662933 0.0217559 -0.269502
v -0.662377 0.0362724 -0.268996
v -0.648297 0.0507725 -0.284941
v -0.654349 0.0507725 -0.27769
v -0.633105 0.0652726 -0.299458
v -0.640083 0.0652726 -0.292208
v -0.624645 0.0797727 -0.305498
v -0.64735 0.0652726 -0.283962
v -0.621392 0.0967548 -0.305498
v -0.622915 0.0979795 -0.303897
v -0.638334 0.0878229 -0.290258
v -0.642821 0.0933094 -0.28368
v -0.652208 0.0843612 -0.274961
v -0.651117 0.0942729 -0.273534
v -0.654843 0.108773 -0.264043
v -0.662624 0.108054 -0.252628
v -0.657293 0.123861 -0.254918
v -0.650953 0.137773 -0.258568
v -0.642904 0.167378 -0.25695
v -0.66635 0.112398 -0.245203
v -0.670344 0.108054 -0.239944
v -0.679628 0.0942729 -0.227732
v -0.681522 0.10136 -0.220756
v -0.680636 0.105638 -0.220756
v -0.688706 0.0548221 -0.220756
v -0.685042 0.066236 -0.22614
v -0.68218 0.0620395 -0.233033
v -0.678887 0.0507725 -0.241537
v -0.670838 0.0501193 -0.254868
v -0.667338 0.0448451 -0.261306
v -0.667647 0.0362724 -0.261754
v -0.667976 0.0217559 -0.26226
v -0.668265 0.00725579 -0.262708
v -0.671497 0.000577245 -0.258062
v -0.666041 0.000577245 -0.266192
v -0.668347 0.000577245 -0.262857
v -0.653567 0.0652726 -0.276711
v -0.631891 0.0797727 -0.298231
v -0.623904 0.0883128 -0.304809
v -0.638992 0.0797727 -0.29098
v -0.653011 0.0747107 -0.275998
v -0.623245 0.0876759 -0.305498
v -0.622977 0.0890639 -0.305498
v -0.65686 0.0796421 -0.269403
v -0.664909 0.0797727 -0.257763
v -0.656325 0.0942729 -0.266283
v -0.663592 0.0942729 -0.25564
v -0.668326 0.0942729 -0.248389
v -0.667421 0.102731 -0.246995
v -0.673555 0.0942729 -0.239313
v -0.680883 0.0797727 -0.23047
v -0.684424 0.0797727 -0.223219
v -0.682983 0.0938646 -0.220756
v -0.68745 0.0659094 -0.220756
v -0.681563 0.0717062 -0.231864
v -0.678722 0.066236 -0.238442
v -0.670797 0.0652726 -0.252131
v -0.666 0.0652726 -0.259381
v -0.669726 0.0797727 -0.250513
v -0.676211 0.0797727 -0.239313
v -0.685474 0.0797727 -0.220756
f 1 2 6
f 1 6 12
f 1 12 23
f 1 23 38
f 1 38 62
f 1 62 96
f 1 96 141
f 1 141 176
f 1 176 177
f 1 177 143
f 1 143 98
f 1 98 65
f 1 65 41
f 1 41 25
f 1 25 13
f 1 13 7
f 1 7 3
f 1 3 8
f 1 8 17
f 1 17 28
f 1 28 49
f 1 49 72
f 1 72 73
f 1 73 112
f 1 112 111
f 1 111 153
f 1 153 121
f 1 121 81
f 1 81 53
f 1 53 32
f 1 32 18
f 1 18 9
f 1 9 4
f 1 4 5
f 1 5 2
f 2 5 10
f 2 10 21
f 2 21 35
f 2 35 58
f 2 58 88
f 2 88 87
f 2 87 131
f 2 131 130
f 2 130 168
f 2 168 170
f 2 170 169
f 2 169 132
f 2 132 91
f 2 91 90
f 2 90 89
f 2 89 59
f 2 59 36
f 2 36 22
f 2 22 11
f 2 11 6
f 3 7 8
f 4 9 19
f 4 19 31
f 4 31 51
f 4 51 78
f 4 78 120
f 4 120 119
f 4 119 118
f 4 118 158
f 4 158 157
f 4 157 187
f 4 187 195
f 4 195 188
f 4 188 159
f 4 159 123
f 4 123 82
f 4 82 54
f 4 54 33
f 4 33 20
f 4 20 10
f 4 10 5
f 6 11 12
f 7 13 14
f 7 14 15
f 7 15 16
f 7 16 17
f 7 17 8
f 9 18 19
f 10 20 21
f 11 22 12
f 12 22 24
f 12 24 23
f 13 25 14
f 14 25 26
f 14 26 15
f 15 26 16
f 16 26 27
f 16 27 17
f 17 27 28
f 18 29 30
f 18 30 31
f 18 31 19
f 18 32 29
f 20 33 34
f 20 34 21
f 21 34 35
f 22 36 37
f 22 37 24
f 23 24 39
f 23 39 38
f 24 37 40
f 24 40 39
f 25 41 42
f 25 42 26
f 26 43 44
f 26 44 45
f 26 45 46
f 26 46 47
f 26 47 27
f 26 42 43
f 27 47 48
f 27 48 28
f 28 48 49
f 29 50 51
f 29 51 30
f 29 32 52
f 29 52 50
f 30 51 31
f 32 53 52
f 33 54 55
f 33 55 34
f 34 55 56
f 34 56 57
f 34 57 58
f 34 58 35
f 36 59 37
f 37 59 60
f 37 60 61
f 37 61 40
f 38 39 63
f 38 63 62
f 39 40 63
f 40 64 63
f 40 61 64
f 41 65 66
f 41 66 42
f 42 66 43
f 43 67 68
f 43 68 44
f 43 66 67
f 44 68 69
f 44 69 70
f 44 70 45
f 45 70 71
f 45 71 46
f 46 72 48
f 46 48 47
f 46 71 73
f 46 73 72
f 48 72 49
f 50 74 75
f 50 75 76
f 50 76 77
f 50 77 78
f 50 78 51
f 50 52 79
f 50 79 74
f 52 53 80
f 52 80 79
f 53 81 80
f 54 82 83
f 54 83 55
f 55 83 84
f 55 84 56
f 56 84 85
f 56 85 86
f 56 86 57
f 57 86 87
f 57 87 88
f 57 88 58
f 59 89 60
f 60 89 90
f 60 90 91
f 60 91 92
f 60 92 93
f 60 93 61
f 61 93 94
f 61 94 64
f 62 63 95
f 62 95 96
f 63 64 95
f 64 97 95
f 64 94 97
f 65 98 99
f 65 99 66
f 66 99 67
f 67 100 101
f 67 101 102
f 67 102 68
f 67 99 100
f 68 102 103
f 68 103 104
f 68 104 69
f 69 104 105
f 69 105 106
f 69 106 107
f 69 107 108
f 69 108 70
f 70 108 109
f 70 109 110
f 70 110 71
f 71 110 111
f 71 111 112
f 71 112 73
f 74 113 75
f 74 79 114
f 74 114 115
f 74 115 113
f 75 113 116
f 75 116 117
f 75 117 76
f 76 117 118
f 76 118 119
f 76 119 77
f 77 119 120
f 77 120 78
f 79 80 81
f 79 81 121
f 79 121 122
f 79 122 114
f 82 123 83
f 83 123 124
f 83 124 125
f 83 125 84
f 84 125 126
f 84 126 85
f 85 126 127
f 85 127 128
f 85 128 129
f 85 129 86
f 86 129 130
f 86 130 131
f 86 131 87
f 91 132 92
f 92 132 133
f 92 133 93
f 93 134 94
f 93 133 135
f 93 135 136
f 93 136 134
f 94 137 97
f 94 134 138
f 94 138 171
f 94 171 137
f 95 139 96
f 95 97 140
f 95 140 139
f 96 139 141
f 97 137 142
f 97 142 140
f 98 143 144
f 98 144 99
f 99 144 100
f 100 145 101
f 100 144 145
f 101 145 146
f 101 146 102
f 102 146 147
f 102 147 103
f 103 147 148
f 103 148 104
f 104 148 105
f 105 148 149
f 105 149 106
f 106 149 150
f 106 150 151
f 106 151 107
f 107 151 115
f 107 115 114
f 107 114 152
f 107 152 110
f 107 110 109
f 107 109 108
f 110 152 122
f 110 122 121
f 110 121 153
f 110 153 111
f 113 154 116
f 113 115 151
f 113 151 154
f 114 122 152
f 116 155 117
f 116 154 155
f 117 155 156
f 117 156 157
f 117 157 158
f 117 158 118
f 123 159 124
f 124 159 160
f 124 160 125
f 125 160 161
f 125 161 162
f 125 162 126
f 126 162 163
f 126 163 127
f 127 163 164
f 127 164 165
f 127 165 128
f 128 165 166
f 128 166 167
f 128 167 129
f 129 168 130
f 129 167 168
f 132 169 133
f 133 169 170
f 133 170 167
f 133 167 166
f 133 166 135
f 134 136 164
f 134 164 138
f 135 166 165
f 135 165 136
f 136 165 164
f 137 171 142
f 138 164 171
f 139 172 173
f 139 173 141
f 139 140 174
f 139 174 172
f 140 142 175
f 140 175 174
f 141 173 176
f 142 171 175
f 143 177 173
f 143 173 144
f 144 173 145
f 145 173 172
f 145 172 174
f 145 174 175
f 145 175 147
f 145 147 146
f 147 175 178
f 147 178 179
f 147 179 180
f 147 180 149
f 147 149 148
f 149 180 181
f 149 181 150
f 150 181 182
f 150 182 183
f 150 183 154
f 150 154 151
f 154 183 155
f 155 184 156
f 155 183 184
f 156 184 185
f 156 185 186
f 156 186 187
f 156 187 157
f 159 188 160
f 160 186 189
f 160 189 161
f 160 188 186
f 161 189 190
f 161 190 162
f 162 190 191
f 162 191 163
f 163 191 164
f 164 192 175
f 164 175 171
f 164 191 192
f 167 170 168
f 173 177 176
f 175 192 178
f 178 192 179
f 179 181 180
f 179 192 193
f 179 193 181
f 181 193 182
f 182 193 194
f 182 194 184
f 182 184 183
f 184 194 185
f 185 189 186
f 185 194 189
f 186 188 195
f 186 195 187
f 189 194 190
f 190 194 193
f 190 193 191
f 191 193 192
