v -0.125331 -0.498722 -0.256442
v -0.125331 -0.494452 -0.262764
v -0.123281 -0.494375 -0.262654
v -0.123281 -0.498567 -0.256442
v -0.125331 -0.410738 -0.256442
v -0.125331 -0.487465 -0.271236
v -0.108745 -0.487724 -0.268961
v -0.108745 -0.493598 -0.261713
v -0.108745 -0.480478 -0.277746
v -0.108745 -0.497118 -0.256442
v 0.0703225 -0.337376 -0.256442
v -0.125331 -0.234357 -0.325094
v -0.125331 -0.480789 -0.27919
v -0.123281 -0.481151 -0.278578
v -0.101314 -0.493132 -0.261132
v -0.0942475 -0.479495 -0.276601
v -0.125331 -0.47494 -0.285936
v -0.123281 -0.474837 -0.285826
v -0.108745 -0.474138 -0.284995
v -0.097216 -0.495513 -0.256442
v 0.0703225 -0.234357 -0.307366
v 0.0703225 -0.440342 -0.256442
v -0.125331 -0.234357 -0.387315
v -0.0955881 -0.487569 -0.266921
v -0.0761684 -0.477994 -0.27486
v -0.0805158 -0.483066 -0.269353
v -0.0652328 -0.482652 -0.266404
v -0.0916812 -0.492304 -0.259924
v -0.0869124 -0.493831 -0.256442
v -0.0858591 -0.478796 -0.275817
v -0.0942475 -0.473051 -0.283865
v -0.125331 -0.467695 -0.293733
v -0.123281 -0.467591 -0.293655
v -0.108745 -0.466893 -0.292949
v 0.0703225 -0.234357 -0.387911
v 0.0655537 -0.44293 -0.256442
v 0.0703225 -0.435995 -0.262184
v 0.00723699 -0.234357 -0.412934
v -0.125331 -0.282826 -0.412918
v -0.0833885 -0.464797 -0.290799
v -0.073717 -0.463891 -0.289858
v -0.0652328 -0.469765 -0.2817
v -0.0652328 -0.477011 -0.273652
v -0.050735 -0.481022 -0.264286
v -0.0651753 -0.489949 -0.256442
v -0.0797497 -0.491243 -0.258418
v -0.076628 -0.492046 -0.256442
v -0.0942475 -0.465754 -0.291835
v -0.125331 -0.46666 -0.294753
v -0.123281 -0.460113 -0.300903
v -0.108745 -0.459336 -0.300197
v -0.0942475 -0.458353 -0.299083
v 0.0703225 -0.326585 -0.344297
v 0.066607 -0.234357 -0.39155
v 0.0585825 -0.446527 -0.256442
v 0.0535648 -0.447562 -0.258403
v 0.0652664 -0.437366 -0.263737
v 0.0703225 -0.433821 -0.264662
v 0.0217539 -0.234357 -0.41422
v 0.00723699 -0.239326 -0.414612
v -0.125331 -0.297343 -0.416715
v -0.073851 -0.449348 -0.30437
v -0.0652328 -0.455791 -0.296259
v -0.0652328 -0.463011 -0.288948
v -0.050735 -0.468031 -0.279849
v -0.050735 -0.475277 -0.27155
v -0.0399718 -0.479573 -0.262372
v -0.0505435 -0.486508 -0.256442
v -0.125331 -0.460216 -0.300981
v -0.123281 -0.452893 -0.307602
v -0.108745 -0.452091 -0.306864
v -0.0942475 -0.451107 -0.305986
v -0.0835226 -0.450176 -0.30517
v 0.0703225 -0.340507 -0.337363
v 0.0547522 -0.234357 -0.402893
v 0.0550969 -0.448287 -0.256442
v 0.0494663 -0.441766 -0.267659
v 0.0518986 -0.449813 -0.256442
v 0.0364049 -0.456904 -0.256442
v 0.0439124 -0.449762 -0.261321
v 0.0550203 -0.433588 -0.274013
v 0.0652664 -0.430923 -0.271
v 0.0703225 -0.42937 -0.269573
v 0.0364624 -0.234357 -0.412087
v 0.0217539 -0.239326 -0.414644
v -0.0072608 -0.253817 -0.415522
v -0.0362372 -0.26836 -0.41582
v -0.0652328 -0.282826 -0.416119
v -0.108745 -0.297343 -0.41637
v -0.124814 -0.312689 -0.410518
v -0.125331 -0.424816 -0.330381
v -0.0652328 -0.448364 -0.303507
v -0.0864528 -0.435193 -0.319195
v -0.050735 -0.454031 -0.294517
v -0.050735 -0.461277 -0.287097
v -0.0362372 -0.465857 -0.277574
v -0.0159365 -0.449167 -0.289654
v -0.0355861 -0.473983 -0.267659
v -0.0303194 -0.478227 -0.260583
v -0.0274275 -0.464538 -0.276131
v -0.0177559 -0.463114 -0.274436
v -0.0364479 -0.482807 -0.256442
v -0.125331 -0.452971 -0.30768
v -0.125331 -0.45178 -0.308715
v -0.125331 -0.444612 -0.314944
v -0.123281 -0.444534 -0.31485
v -0.108745 -0.443784 -0.314128
v -0.0942475 -0.435736 -0.319603
v -0.0942475 -0.442982 -0.313234
v 0.0703225 -0.346174 -0.334445
v 0.0472831 -0.234771 -0.408463
v 0.0253544 -0.447899 -0.273636
v 0.0453487 -0.435969 -0.276554
v 0.027442 -0.460941 -0.256442
v 0.0217539 -0.462002 -0.258387
v 0.0362326 -0.451521 -0.263423
v 0.0501749 -0.427559 -0.282579
v 0.0652664 -0.423677 -0.278688
v 0.0703225 -0.422306 -0.277323
v 0.0365773 -0.239714 -0.410659
v 0.00723699 -0.253817 -0.414173
v -0.0217586 -0.26836 -0.415052
v -0.050735 -0.282826 -0.415224
v -0.0942475 -0.297343 -0.415664
v -0.108745 -0.309816 -0.410769
v -0.119298 -0.420054 -0.333236
v -0.108745 -0.436538 -0.320246
v -0.125331 -0.436047 -0.321909
v -0.0652328 -0.441119 -0.309798
v -0.050735 -0.439204 -0.308166
v -0.050735 -0.446449 -0.301765
v -0.0942475 -0.308445 -0.409874
v -0.0652328 -0.415319 -0.329848
v -0.0652328 -0.425282 -0.3226
v -0.050735 -0.423418 -0.321266
v -0.0767812 -0.434002 -0.318254
v -0.0362372 -0.452013 -0.292525
v -0.0256081 -0.450538 -0.291035
v -0.0072608 -0.440316 -0.294768
v -0.0072608 -0.447562 -0.288069
v 0.00723699 -0.45178 -0.277966
v -0.0072608 -0.454264 -0.280821
v -0.0362372 -0.444276 -0.299773
v -0.0273892 -0.435658 -0.305076
v -0.0177176 -0.433976 -0.303648
v -0.0072608 -0.432139 -0.302017
v -0.0222565 -0.468833 -0.269102
v -0.0072608 -0.461562 -0.272507
v -0.0072608 -0.467436 -0.265259
v -0.0217586 -0.476959 -0.258858
v -0.0263933 -0.479987 -0.256442
v -0.125331 -0.437366 -0.32089
v -0.123281 -0.437263 -0.320811
v 0.0703225 -0.349435 -0.332687
v 0.0319617 -0.249133 -0.408102
v 0.0156829 -0.45015 -0.276178
v 0.0362326 -0.438091 -0.278876
v 0.0362326 -0.431104 -0.286124
v 0.0236691 -0.462623 -0.256442
v 0.021007 -0.454031 -0.268616
v 0.0171958 -0.46534 -0.256442
v 0.0135953 -0.463761 -0.260646
v 0.0550012 -0.418993 -0.288603
v 0.0703225 -0.419252 -0.280288
v 0.0652664 -0.416199 -0.285936
v 0.021256 -0.253947 -0.409906
v 0.00723699 -0.265152 -0.409169
v -0.00645643 -0.269421 -0.411161
v -0.0217586 -0.280497 -0.40989
v -0.0351264 -0.28412 -0.411334
v -0.050735 -0.29429 -0.409733
v -0.0797497 -0.297343 -0.413781
v -0.0652328 -0.432527 -0.317046
v -0.050735 -0.43069 -0.315414
v -0.0362372 -0.43703 -0.306315
v -0.0353562 -0.427145 -0.31452
v -0.0797497 -0.306582 -0.408196
v -0.0554846 -0.406857 -0.334115
v -0.0396079 -0.42184 -0.320074
v -0.0506776 -0.412343 -0.32922
v 0.00723699 -0.437444 -0.292258
v 0.00723699 -0.429396 -0.299522
v 0.0159318 -0.435684 -0.290642
v 0.00723699 -0.44469 -0.285214
v 0.00815627 -0.45988 -0.268004
v -0.0299363 -0.420236 -0.318835
v -0.0072608 -0.424893 -0.308245
v 0.00723699 -0.42215 -0.305923
v 0.00392375 -0.465521 -0.262952
v -0.00616916 -0.473621 -0.256442
v -0.0188284 -0.477735 -0.256442
v -0.0217586 -0.478641 -0.256442
v 0.0703225 -0.359501 -0.326867
v 0.0256034 -0.433666 -0.288666
v 0.0453104 -0.421529 -0.290956
v 0.00953518 -0.468238 -0.256442
v 0.0536797 -0.403881 -0.302628
v 0.0652664 -0.408953 -0.292619
v 0.0703225 -0.40753 -0.29138
v 0.0161042 -0.262305 -0.40716
v 0.0703225 -0.367911 -0.321862
v 0.0647685 -0.370111 -0.32271
v 0.0595976 -0.378003 -0.319729
v 0.0269632 -0.375985 -0.332938
v -0.0107464 -0.277599 -0.407976
v 0.0172916 -0.378417 -0.33446
v -0.0392249 -0.292038 -0.407898
v -0.012968 -0.392236 -0.33399
v -0.0217586 -0.401086 -0.330318
v -0.0362372 -0.403596 -0.332044
v 0.00723699 -0.387889 -0.331228
v 0.00727529 -0.399689 -0.323416
v -0.00777789 -0.397774 -0.328906
v -0.045813 -0.405252 -0.333095
v -0.0353562 -0.414594 -0.324247
v 0.0146678 -0.42065 -0.304668
v 0.020126 -0.427145 -0.296698
v -0.0217586 -0.411463 -0.32307
v -0.0072608 -0.408798 -0.321141
v 0.00246823 -0.407038 -0.319807
v -0.0217586 -0.418709 -0.317642
v -0.0072608 -0.416043 -0.315493
v 0.00727529 -0.412421 -0.31394
v 0.0121398 -0.405097 -0.318395
v 0.0243394 -0.41845 -0.302754
v 0.0362326 -0.423858 -0.29298
v 0.0440081 -0.406365 -0.304825
v 0.0664921 -0.398964 -0.300714
v 0.0624895 -0.394177 -0.306692
v 0.0703225 -0.403182 -0.295192
v 0.0703225 -0.38939 -0.306692
v 0.0700543 -0.375312 -0.317187
v 0.0658793 -0.38468 -0.312214
v 0.0507495 -0.387656 -0.316371
v 0.0410779 -0.390243 -0.318207
v 0.0507495 -0.38041 -0.321376
v 0.0362326 -0.38499 -0.323572
v 0.0314064 -0.392883 -0.31998
v 0.0217539 -0.395393 -0.321658
v 0.0219837 -0.383696 -0.329456
v 0.020375 -0.413481 -0.308464
v 0.0217539 -0.402691 -0.316638
v 0.0362326 -0.408306 -0.306456
v 0.0362326 -0.415552 -0.300244
v 0.0496004 -0.398964 -0.308355
v 0.0703225 -0.393815 -0.303209
f 1 2 3
f 1 3 4
f 1 4 10
f 1 10 20
f 1 20 29
f 1 29 47
f 1 47 45
f 1 45 68
f 1 68 102
f 1 102 151
f 1 151 192
f 1 192 191
f 1 191 190
f 1 190 196
f 1 196 161
f 1 161 159
f 1 159 114
f 1 114 79
f 1 79 78
f 1 78 76
f 1 76 55
f 1 55 36
f 1 36 22
f 1 22 11
f 1 11 5
f 1 5 12
f 1 12 23
f 1 23 39
f 1 39 61
f 1 61 91
f 1 91 128
f 1 128 152
f 1 152 105
f 1 105 104
f 1 104 103
f 1 103 69
f 1 69 49
f 1 49 32
f 1 32 17
f 1 17 13
f 1 13 6
f 1 6 2
f 2 6 3
f 3 7 8
f 3 8 4
f 3 6 9
f 3 9 7
f 4 8 10
f 5 11 12
f 6 13 14
f 6 14 9
f 7 15 8
f 7 9 16
f 7 16 15
f 8 15 10
f 9 14 17
f 9 17 18
f 9 18 19
f 9 19 16
f 10 15 20
f 11 21 12
f 11 22 37
f 11 37 58
f 11 58 83
f 11 83 119
f 11 119 164
f 11 164 199
f 11 199 230
f 11 230 246
f 11 246 231
f 11 231 201
f 11 201 193
f 11 193 154
f 11 154 110
f 11 110 74
f 11 74 53
f 11 53 35
f 11 35 21
f 12 21 35
f 12 35 54
f 12 54 75
f 12 75 84
f 12 84 59
f 12 59 38
f 12 38 23
f 13 17 14
f 15 16 24
f 15 24 25
f 15 25 26
f 15 26 27
f 15 27 28
f 15 28 29
f 15 29 20
f 16 30 24
f 16 19 31
f 16 31 30
f 17 32 33
f 17 33 34
f 17 34 18
f 18 34 19
f 19 34 31
f 22 36 37
f 23 38 39
f 24 30 25
f 25 31 40
f 25 40 41
f 25 41 42
f 25 42 43
f 25 43 26
f 25 30 31
f 26 43 27
f 27 44 45
f 27 45 46
f 27 46 28
f 27 43 44
f 28 46 47
f 28 47 29
f 31 34 48
f 31 48 40
f 32 49 33
f 33 49 34
f 34 49 50
f 34 50 51
f 34 51 52
f 34 52 48
f 35 53 54
f 36 55 37
f 37 55 56
f 37 56 57
f 37 57 58
f 38 59 60
f 38 60 39
f 39 60 61
f 40 48 62
f 40 62 41
f 41 62 63
f 41 63 64
f 41 64 42
f 42 64 95
f 42 95 65
f 42 65 43
f 43 65 66
f 43 66 44
f 44 67 68
f 44 68 45
f 44 66 67
f 45 47 46
f 48 52 62
f 49 69 50
f 50 69 70
f 50 70 51
f 51 70 71
f 51 71 72
f 51 72 52
f 52 72 73
f 52 73 62
f 53 74 75
f 53 75 54
f 55 76 56
f 56 77 57
f 56 76 78
f 56 78 79
f 56 79 80
f 56 80 77
f 57 77 81
f 57 81 82
f 57 82 58
f 58 82 83
f 59 84 85
f 59 85 60
f 60 85 86
f 60 86 61
f 61 86 87
f 61 87 88
f 61 88 89
f 61 89 90
f 61 90 91
f 62 92 63
f 62 73 93
f 62 93 92
f 63 92 94
f 63 94 64
f 64 94 95
f 65 96 66
f 65 95 97
f 65 97 96
f 66 98 99
f 66 99 67
f 66 96 100
f 66 100 101
f 66 101 98
f 67 102 68
f 67 99 102
f 69 103 70
f 70 103 104
f 70 104 105
f 70 105 106
f 70 106 107
f 70 107 71
f 71 107 108
f 71 108 109
f 71 109 72
f 72 109 93
f 72 93 73
f 74 110 111
f 74 111 75
f 75 111 84
f 77 80 112
f 77 112 113
f 77 113 81
f 79 114 80
f 80 114 115
f 80 115 116
f 80 116 112
f 81 117 118
f 81 118 119
f 81 119 82
f 81 113 117
f 82 119 83
f 84 111 120
f 84 120 85
f 85 120 121
f 85 121 122
f 85 122 86
f 86 122 87
f 87 122 88
f 88 122 123
f 88 123 124
f 88 124 89
f 89 124 90
f 90 124 125
f 90 125 93
f 90 93 108
f 90 108 126
f 90 126 91
f 91 126 108
f 91 108 127
f 91 127 128
f 92 129 130
f 92 130 131
f 92 131 94
f 92 93 129
f 93 125 132
f 93 132 133
f 93 133 134
f 93 134 135
f 93 135 136
f 93 136 129
f 93 109 108
f 94 137 95
f 94 131 137
f 95 137 138
f 95 138 97
f 96 97 100
f 97 139 140
f 97 140 141
f 97 141 142
f 97 142 101
f 97 101 100
f 97 138 131
f 97 131 143
f 97 143 144
f 97 144 145
f 97 145 146
f 97 146 139
f 98 147 99
f 98 101 147
f 99 147 148
f 99 148 149
f 99 149 150
f 99 150 151
f 99 151 102
f 101 142 148
f 101 148 147
f 105 152 106
f 106 152 153
f 106 153 127
f 106 127 108
f 106 108 107
f 110 154 111
f 111 155 120
f 111 154 155
f 112 116 156
f 112 156 113
f 113 156 157
f 113 157 158
f 113 158 117
f 114 159 115
f 115 160 116
f 115 159 161
f 115 161 162
f 115 162 160
f 116 160 156
f 117 158 163
f 117 163 118
f 118 164 119
f 118 163 165
f 118 165 164
f 120 155 166
f 120 166 121
f 121 166 167
f 121 167 168
f 121 168 122
f 122 168 169
f 122 169 170
f 122 170 123
f 123 170 171
f 123 171 172
f 123 172 124
f 124 172 132
f 124 132 125
f 127 153 128
f 128 153 152
f 129 136 173
f 129 173 174
f 129 174 130
f 130 175 131
f 130 174 176
f 130 176 175
f 131 175 143
f 131 138 137
f 132 172 177
f 132 177 178
f 132 178 133
f 133 178 135
f 133 135 134
f 135 179 174
f 135 174 173
f 135 173 136
f 135 178 180
f 135 180 179
f 139 181 140
f 139 146 182
f 139 182 181
f 140 181 183
f 140 183 184
f 140 184 141
f 141 184 156
f 141 156 185
f 141 185 148
f 141 148 142
f 143 175 144
f 144 176 186
f 144 186 187
f 144 187 145
f 144 175 176
f 145 187 146
f 146 187 188
f 146 188 182
f 148 185 189
f 148 189 149
f 149 189 150
f 150 190 191
f 150 191 192
f 150 192 151
f 150 189 190
f 154 193 155
f 155 193 166
f 156 160 162
f 156 162 185
f 156 184 194
f 156 194 157
f 157 194 158
f 158 194 195
f 158 195 163
f 161 196 162
f 162 196 189
f 162 189 185
f 163 197 198
f 163 198 199
f 163 199 165
f 163 195 197
f 164 165 199
f 166 200 167
f 166 193 200
f 167 200 193
f 167 193 201
f 167 201 202
f 167 202 203
f 167 203 204
f 167 204 205
f 167 205 169
f 167 169 168
f 169 205 204
f 169 204 206
f 169 206 207
f 169 207 171
f 169 171 170
f 171 208 209
f 171 209 210
f 171 210 177
f 171 177 172
f 171 207 211
f 171 211 212
f 171 212 213
f 171 213 208
f 174 179 176
f 176 179 186
f 177 210 214
f 177 214 178
f 178 214 180
f 179 180 215
f 179 215 186
f 180 214 215
f 181 182 183
f 182 188 216
f 182 216 183
f 183 216 217
f 183 217 194
f 183 194 184
f 186 215 218
f 186 218 219
f 186 219 220
f 186 220 221
f 186 221 187
f 187 221 222
f 187 222 223
f 187 223 188
f 188 223 224
f 188 224 216
f 189 196 190
f 194 217 225
f 194 225 226
f 194 226 195
f 195 226 227
f 195 227 197
f 197 228 198
f 197 227 229
f 197 229 228
f 198 228 230
f 198 230 199
f 201 231 232
f 201 232 203
f 201 203 202
f 203 232 233
f 203 233 229
f 203 229 234
f 203 234 235
f 203 235 236
f 203 236 204
f 204 236 237
f 204 237 238
f 204 238 239
f 204 239 240
f 204 240 206
f 206 240 224
f 206 224 211
f 206 211 207
f 208 213 209
f 209 213 220
f 209 220 219
f 209 219 218
f 209 218 215
f 209 215 210
f 210 215 214
f 211 224 212
f 212 224 220
f 212 220 213
f 216 224 241
f 216 241 225
f 216 225 217
f 220 224 222
f 220 222 221
f 222 224 223
f 224 240 239
f 224 239 238
f 224 238 242
f 224 242 241
f 225 241 243
f 225 243 244
f 225 244 226
f 226 244 227
f 227 245 229
f 227 244 243
f 227 243 245
f 228 229 246
f 228 246 230
f 229 233 231
f 229 231 246
f 229 245 234
f 231 233 232
f 234 245 242
f 234 242 235
f 235 238 236
f 235 242 238
f 236 238 237
f 241 242 243
f 242 245 243
