v 0.600657 0.0646678 0.354915
v 0.600189 0.00844819 0.347932
v 0.600657 0.0507777 0.354374
v 0.617584 0.0507777 0.348518
v 0.618221 0.0652816 0.348788
v 0.600657 0.0791717 0.354554
v 0.599812 0.136255 0.345657
v 0.599383 -0.0280161 0.277228
v 0.600657 -0.02206 0.332863
v 0.600657 -0.00721509 0.341941
v 0.616426 0.0072888 0.341175
v 0.608821 0.0215199 0.34809
v 0.600657 0.0356373 0.353
v 0.616036 0.0362738 0.347887
v 0.630922 0.0507777 0.342459
v 0.630922 0.0652816 0.342932
v 0.617753 0.0797855 0.348585
v 0.600657 0.0942666 0.353383
v 0.604544 0.116932 0.348833
v 0.616426 0.123252 0.343022
v 0.627243 0.138779 0.333088
v 0.613085 0.153623 0.333967
v 0.600657 0.177516 0.323808
v 0.600345 0.187223 0.307253
v 0.599383 0.185859 0.277115
v 0.599383 -0.00828356 0.258532
v 0.636993 0.0159729 0.124827
v 0.651241 -0.00932929 0.124827
v 0.662057 -0.019241 0.124827
v 0.600657 -0.0359955 0.297297
v 0.600657 -0.0330174 0.317299
v 0.616934 -0.0256064 0.321533
v 0.630922 -0.0175815 0.321623
v 0.61445 -0.0122392 0.334147
v 0.629531 0.00158272 0.332593
v 0.638488 0.0208379 0.333719
v 0.630922 0.0362738 0.340995
v 0.646119 0.0507777 0.333899
v 0.646535 0.0652816 0.33417
v 0.630922 0.0797855 0.342436
v 0.616218 0.0942666 0.347932
v 0.630922 0.10877 0.33899
v 0.638501 0.120319 0.332052
v 0.647848 0.138324 0.319641
v 0.632716 0.159534 0.319822
v 0.616686 0.176584 0.316961
v 0.614528 0.188928 0.299324
v 0.616426 0.191315 0.282791
v 0.659925 0.194907 0.124827
v 0.646262 0.187519 0.124827
v 0.633899 0.171992 0.124827
v 0.599383 0.168605 0.252856
v 0.599383 0.0071524 0.249635
v 0.628036 0.0515506 0.124827
v 0.631338 0.0362738 0.124827
v 0.675175 -0.0256291 0.124827
v 0.689683 -0.026493 0.124827
v 0.682156 -0.0290846 0.190373
v 0.616426 -0.0350862 0.297297
v 0.642609 -0.0302667 0.294774
v 0.633275 -0.0278797 0.308176
v 0.646639 -0.0268112 0.298694
v 0.657429 -0.0152854 0.301982
v 0.644169 -0.0137168 0.314573
v 0.655973 0.007016 0.316533
v 0.659743 0.0217699 0.31874
v 0.644819 0.0362738 0.333088
v 0.662928 0.0507777 0.321443
v 0.663293 0.0652816 0.321759
v 0.661849 0.0362738 0.320497
v 0.64608 0.0797855 0.333877
v 0.630922 0.0942666 0.34095
v 0.644741 0.0942666 0.333021
v 0.660133 0.10877 0.319033
v 0.647978 0.165104 0.304122
v 0.658183 0.130322 0.31374
v 0.667908 0.132777 0.302613
v 0.639593 0.176561 0.301509
v 0.631637 0.186723 0.292544
v 0.646054 0.18736 0.278804
v 0.660159 0.190997 0.253577
v 0.64543 0.193725 0.253802
v 0.659925 0.195316 0.21033
v 0.674408 0.196135 0.152307
v 0.674408 0.195703 0.131314
v 0.695195 0.18395 0.131314
v 0.711381 0.155465 0.128498
v 0.721235 0.122479 0.124827
v 0.627113 0.152259 0.124827
v 0.624864 0.138187 0.124827
v 0.599383 0.151964 0.242225
v 0.599383 0.0219973 0.242472
v 0.624695 0.0735338 0.124827
v 0.721131 0.00656132 0.124827
v 0.712863 -0.0122846 0.131359
v 0.703411 -0.0218099 0.137801
v 0.703411 -0.0222646 0.152307
v 0.688916 -0.0273341 0.152307
v 0.688916 -0.0275842 0.166812
v 0.682455 -0.0291982 0.21033
v 0.672458 -0.0300166 0.239341
v 0.664866 -0.0305168 0.253802
v 0.664892 -0.02913 0.269029
v 0.651384 -0.0300166 0.283602
v 0.670677 -0.015149 0.287927
v 0.66874 0.00256026 0.302545
v 0.670989 0.0217699 0.308447
v 0.679088 0.0528919 0.306442
v 0.672887 0.0362738 0.310294
v 0.673407 0.0797855 0.31124
v 0.662902 0.0797855 0.321398
v 0.66181 0.0942666 0.320407
v 0.670729 0.10877 0.308537
v 0.672341 0.0942666 0.310204
v 0.670261 0.15326 0.287296
v 0.667843 0.167559 0.279615
v 0.655323 0.176448 0.286981
v 0.680076 0.115409 0.294211
v 0.680505 0.139597 0.280989
v 0.669806 0.180835 0.260695
v 0.673511 0.187314 0.241639
v 0.68005 0.188042 0.222493
v 0.659925 0.193702 0.239341
v 0.659925 0.194998 0.224836
v 0.674408 0.196203 0.166812
v 0.680466 0.193702 0.181318
v 0.696014 0.185064 0.152307
v 0.712213 0.158397 0.152307
v 0.720273 0.137756 0.152307
v 0.718219 0.137756 0.131314
v 0.725473 0.115113 0.145527
v 0.726812 0.0971537 0.131809
v 0.728853 0.0797855 0.131314
v 0.729581 0.0652816 0.131314
v 0.725148 0.0218836 0.124827
v 0.623759 0.123252 0.124827
v 0.599383 0.137937 0.238125
v 0.599383 0.0362738 0.237337
v 0.623356 0.0942666 0.124827
v 0.725057 0.0146089 0.137846
v 0.714956 -0.0117618 0.152307
v 0.703411 -0.0219463 0.166812
v 0.689592 -0.0272659 0.195824
v 0.689709 -0.0266976 0.21033
v 0.6833 -0.0283344 0.224453
v 0.677047 -0.0267885 0.253802
v 0.684717 -0.0130121 0.269434
v 0.68317 0.00815266 0.288805
v 0.681259 0.0217699 0.296959
v 0.683001 0.0362738 0.299144
v 0.696651 0.0652816 0.28367
v 0.684184 0.0692145 0.300203
v 0.696456 0.0507777 0.283377
v 0.682429 0.0942666 0.298423
v 0.681623 0.152805 0.26975
v 0.678503 0.165899 0.263826
v 0.683456 0.176357 0.243644
v 0.694701 0.105497 0.275764
v 0.688487 0.137756 0.268285
v 0.696586 0.12548 0.261415
v 0.679816 0.192929 0.195824
v 0.696248 0.174447 0.211479
v 0.695416 0.180926 0.195824
v 0.695767 0.184791 0.166812
v 0.712109 0.158284 0.166812
v 0.720221 0.137756 0.166812
v 0.726136 0.115249 0.166812
v 0.729555 0.0942666 0.152307
v 0.730972 0.0797855 0.152307
v 0.731921 0.0652816 0.152307
v 0.731739 0.0507777 0.152307
v 0.72923 0.0503912 0.131314
v 0.728216 0.0362738 0.131314
v 0.730205 0.0362738 0.152307
v 0.623421 0.10877 0.124827
v 0.599383 0.0857871 0.231188
v 0.599383 0.123252 0.235535
v 0.599383 0.0507777 0.23371
v 0.599383 0.0652816 0.231683
v 0.726045 0.0156319 0.152307
v 0.726058 0.0155637 0.166812
v 0.714605 -0.0115799 0.166812
v 0.703411 -0.021287 0.181318
v 0.701877 -0.0194456 0.21033
v 0.684314 -0.0256064 0.239341
v 0.699888 -0.0182408 0.224836
v 0.692725 -0.0141942 0.25218
v 0.696378 0.00319679 0.265132
v 0.696105 0.0215199 0.275606
v 0.695403 0.0362738 0.28171
v 0.70878 0.0652816 0.262339
v 0.704256 0.0797855 0.268285
v 0.696001 0.0797855 0.282611
v 0.708442 0.0507777 0.262091
v 0.703268 0.0362738 0.268285
v 0.691308 0.151327 0.252744
v 0.695208 0.158329 0.238283
v 0.696365 0.16715 0.224836
v 0.701526 0.0942666 0.268285
v 0.700174 0.139779 0.244004
v 0.70943 0.105542 0.246662
v 0.710679 0.123593 0.232246
v 0.696651 0.182472 0.181318
v 0.704386 0.166763 0.195824
v 0.710471 0.159398 0.181003
v 0.719012 0.137756 0.181318
v 0.725031 0.115818 0.181116
v 0.729061 0.0942666 0.181318
v 0.729646 0.0942666 0.166812
v 0.731115 0.0797855 0.166812
v 0.732194 0.0652816 0.166812
v 0.732155 0.0507777 0.166812
v 0.7304 0.0362738 0.166812
v 0.725057 0.0145407 0.181566
v 0.729659 0.0362738 0.181318
v 0.713903 -0.0113298 0.181318
v 0.708143 -0.0161266 0.195441
v 0.711186 -0.00848815 0.21033
v 0.710912 -0.000463279 0.225917
v 0.703463 0.0072888 0.253802
v 0.710679 0.0214517 0.246662
v 0.718115 0.0652816 0.239341
v 0.710978 0.0797855 0.254636
v 0.717816 0.0507777 0.239341
v 0.710523 0.0362738 0.253577
v 0.70319 0.152259 0.224836
v 0.710614 0.145007 0.21042
v 0.710964 0.152964 0.195824
v 0.710158 0.135914 0.223056
v 0.714904 0.0942666 0.239341
v 0.717777 0.123252 0.21033
v 0.716867 0.10877 0.224836
v 0.716607 0.137756 0.195824
v 0.720988 0.123252 0.195824
v 0.72507 0.10702 0.194878
v 0.729204 0.0797855 0.195824
v 0.730673 0.0797855 0.181318
v 0.731479 0.0652816 0.181318
v 0.73131 0.0507777 0.181318
v 0.720949 0.0072888 0.195824
v 0.724602 0.0237932 0.201207
v 0.727826 0.0362738 0.195824
v 0.71818 0.0072888 0.21033
v 0.710471 0.00849366 0.2379
v 0.71857 0.0217699 0.224836
v 0.716204 0.0362738 0.239341
v 0.725018 0.0503003 0.21756
v 0.724472 0.0732837 0.218123
v 0.717088 0.0797855 0.239341
v 0.721378 0.0362738 0.224836
v 0.719831 0.0942666 0.224836
v 0.7213 0.10877 0.21033
v 0.725447 0.0956988 0.203888
v 0.729893 0.0652816 0.195824
v 0.729412 0.0507777 0.195824
v 0.725187 0.0362738 0.210578
f 1 2 3
f 1 3 4
f 1 4 5
f 1 5 6
f 1 6 7
f 1 7 2
f 2 8 9
f 2 9 10
f 2 10 11
f 2 11 12
f 2 12 13
f 2 13 3
f 2 7 8
f 3 13 14
f 3 14 4
f 4 14 15
f 4 15 5
f 5 15 16
f 5 16 17
f 5 17 6
f 6 17 18
f 6 18 7
f 7 18 19
f 7 19 20
f 7 20 21
f 7 21 22
f 7 22 23
f 7 23 24
f 7 24 25
f 7 25 8
f 8 26 27
f 8 27 28
f 8 28 29
f 8 29 30
f 8 30 31
f 8 31 9
f 8 25 52
f 8 52 91
f 8 91 137
f 8 137 177
f 8 177 176
f 8 176 179
f 8 179 178
f 8 178 138
f 8 138 92
f 8 92 53
f 8 53 26
f 9 31 32
f 9 32 33
f 9 33 34
f 9 34 10
f 10 34 11
f 11 34 35
f 11 35 36
f 11 36 37
f 11 37 12
f 12 37 14
f 12 14 13
f 14 37 15
f 15 38 39
f 15 39 16
f 15 37 38
f 16 39 40
f 16 40 17
f 17 40 41
f 17 41 18
f 18 41 19
f 19 41 20
f 20 41 42
f 20 42 43
f 20 43 21
f 21 44 45
f 21 45 22
f 21 43 44
f 22 45 46
f 22 46 23
f 23 46 47
f 23 47 24
f 24 47 48
f 24 48 25
f 25 48 49
f 25 49 50
f 25 50 51
f 25 51 52
f 26 53 54
f 26 54 55
f 26 55 27
f 27 55 54
f 27 54 93
f 27 93 139
f 27 139 175
f 27 175 136
f 27 136 90
f 27 90 89
f 27 89 51
f 27 51 50
f 27 50 49
f 27 49 88
f 27 88 135
f 27 135 94
f 27 94 57
f 27 57 56
f 27 56 29
f 27 29 28
f 29 56 30
f 30 57 58
f 30 58 59
f 30 59 31
f 30 56 57
f 31 59 60
f 31 60 61
f 31 61 32
f 32 61 33
f 33 61 62
f 33 62 63
f 33 63 64
f 33 64 35
f 33 35 34
f 35 65 36
f 35 64 65
f 36 66 67
f 36 67 37
f 36 65 66
f 37 67 38
f 38 68 69
f 38 69 39
f 38 67 70
f 38 70 68
f 39 69 71
f 39 71 40
f 40 71 72
f 40 72 41
f 41 72 42
f 42 72 73
f 42 73 43
f 43 73 74
f 43 74 44
f 44 75 45
f 44 74 76
f 44 76 77
f 44 77 75
f 45 75 78
f 45 78 46
f 46 78 79
f 46 79 47
f 47 80 81
f 47 81 82
f 47 82 48
f 47 79 80
f 48 82 83
f 48 83 49
f 49 83 84
f 49 84 85
f 49 85 86
f 49 86 87
f 49 87 88
f 51 89 52
f 52 89 90
f 52 90 91
f 53 92 93
f 53 93 54
f 57 94 95
f 57 95 96
f 57 96 97
f 57 97 98
f 57 98 58
f 58 98 99
f 58 99 100
f 58 100 59
f 59 100 101
f 59 101 102
f 59 102 103
f 59 103 104
f 59 104 60
f 60 104 103
f 60 103 62
f 60 62 61
f 62 103 105
f 62 105 63
f 63 105 106
f 63 106 65
f 63 65 64
f 65 106 107
f 65 107 66
f 66 107 70
f 66 70 67
f 68 108 69
f 68 70 109
f 68 109 108
f 69 108 110
f 69 110 111
f 69 111 71
f 70 107 109
f 71 111 112
f 71 112 73
f 71 73 72
f 73 112 74
f 74 113 76
f 74 112 114
f 74 114 113
f 75 77 115
f 75 115 116
f 75 116 117
f 75 117 78
f 76 113 77
f 77 113 118
f 77 118 119
f 77 119 115
f 78 117 80
f 78 80 79
f 80 117 120
f 80 120 81
f 81 120 121
f 81 121 122
f 81 122 123
f 81 123 82
f 82 123 124
f 82 124 83
f 83 125 84
f 83 124 125
f 84 125 126
f 84 126 85
f 85 126 127
f 85 127 86
f 86 127 128
f 86 128 87
f 87 128 129
f 87 129 130
f 87 130 88
f 88 130 131
f 88 131 132
f 88 132 133
f 88 133 134
f 88 134 135
f 90 136 91
f 91 136 137
f 92 138 93
f 93 138 139
f 94 135 140
f 94 140 141
f 94 141 95
f 95 141 96
f 96 141 97
f 97 141 142
f 97 142 143
f 97 143 99
f 97 99 98
f 99 143 100
f 100 143 144
f 100 144 145
f 100 145 101
f 101 145 103
f 101 103 102
f 103 145 146
f 103 146 147
f 103 147 105
f 105 147 148
f 105 148 106
f 106 148 149
f 106 149 107
f 107 149 150
f 107 150 109
f 108 151 152
f 108 152 110
f 108 109 150
f 108 150 153
f 108 153 151
f 110 152 154
f 110 154 114
f 110 114 112
f 110 112 111
f 113 114 154
f 113 154 118
f 115 119 155
f 115 155 116
f 116 155 156
f 116 156 157
f 116 157 120
f 116 120 117
f 118 154 158
f 118 158 119
f 119 159 155
f 119 158 160
f 119 160 159
f 120 157 121
f 121 157 122
f 122 161 123
f 122 157 162
f 122 162 163
f 122 163 161
f 123 161 124
f 124 161 125
f 125 161 126
f 126 161 164
f 126 164 127
f 127 164 165
f 127 165 128
f 128 165 166
f 128 166 129
f 129 167 131
f 129 131 130
f 129 166 167
f 131 167 168
f 131 168 132
f 132 168 133
f 133 168 169
f 133 169 170
f 133 170 134
f 134 170 171
f 134 171 172
f 134 172 135
f 135 172 173
f 135 173 174
f 135 174 140
f 136 175 176
f 136 176 177
f 136 177 137
f 138 178 139
f 139 178 179
f 139 179 176
f 139 176 175
f 140 174 180
f 140 180 141
f 141 180 181
f 141 181 182
f 141 182 142
f 142 183 144
f 142 144 143
f 142 182 183
f 144 183 184
f 144 184 185
f 144 185 145
f 145 185 146
f 146 185 186
f 146 186 187
f 146 187 147
f 147 187 188
f 147 188 148
f 148 188 189
f 148 189 149
f 149 189 190
f 149 190 150
f 150 190 153
f 151 153 191
f 151 191 192
f 151 192 193
f 151 193 152
f 152 193 154
f 153 194 191
f 153 190 195
f 153 195 194
f 154 193 158
f 155 159 196
f 155 196 156
f 156 196 197
f 156 197 157
f 157 197 198
f 157 198 162
f 158 193 199
f 158 199 160
f 159 200 196
f 159 160 200
f 160 199 201
f 160 201 202
f 160 202 200
f 161 163 203
f 161 203 164
f 162 198 204
f 162 204 163
f 163 204 203
f 164 203 165
f 165 205 206
f 165 206 166
f 165 203 205
f 166 206 207
f 166 207 167
f 167 207 208
f 167 208 209
f 167 209 168
f 168 209 210
f 168 210 169
f 169 210 211
f 169 211 170
f 170 211 212
f 170 212 171
f 171 212 174
f 171 174 173
f 171 173 172
f 174 213 180
f 174 212 213
f 180 213 181
f 181 214 182
f 181 213 215
f 181 215 214
f 182 216 217
f 182 217 183
f 182 214 216
f 183 217 184
f 184 186 185
f 184 217 186
f 186 217 218
f 186 218 219
f 186 219 187
f 187 219 220
f 187 220 188
f 188 220 189
f 189 221 195
f 189 195 190
f 189 220 221
f 191 222 223
f 191 223 192
f 191 194 224
f 191 224 222
f 192 223 199
f 192 199 193
f 194 195 225
f 194 225 224
f 195 221 225
f 196 200 197
f 197 200 226
f 197 226 198
f 198 226 227
f 198 227 228
f 198 228 204
f 199 223 201
f 200 202 229
f 200 229 226
f 201 223 230
f 201 230 202
f 202 231 229
f 202 230 232
f 202 232 231
f 203 204 205
f 204 228 205
f 205 228 206
f 206 233 234
f 206 234 207
f 206 228 233
f 207 234 235
f 207 235 208
f 208 236 237
f 208 237 209
f 208 235 236
f 209 237 210
f 210 237 211
f 211 237 238
f 211 238 212
f 212 238 239
f 212 239 215
f 212 215 213
f 214 240 216
f 214 215 241
f 214 241 240
f 215 239 242
f 215 242 241
f 216 218 217
f 216 240 218
f 218 240 243
f 218 243 219
f 219 243 244
f 219 244 220
f 220 244 221
f 221 245 246
f 221 246 225
f 221 244 245
f 222 224 247
f 222 247 248
f 222 248 249
f 222 249 223
f 223 249 230
f 224 225 246
f 224 246 250
f 224 250 247
f 226 229 227
f 227 233 228
f 227 229 231
f 227 231 233
f 230 249 251
f 230 251 232
f 231 234 233
f 231 232 252
f 231 252 234
f 232 251 252
f 234 252 235
f 235 252 253
f 235 253 236
f 236 248 254
f 236 254 238
f 236 238 237
f 236 253 248
f 238 254 239
f 239 254 255
f 239 255 242
f 240 241 243
f 241 242 256
f 241 256 245
f 241 245 243
f 242 255 256
f 243 245 244
f 245 256 250
f 245 250 246
f 247 255 254
f 247 254 248
f 247 250 256
f 247 256 255
f 248 253 251
f 248 251 249
f 251 253 252
