v 0.395044 -0.0585382 0.177369
v 0.41441 -0.0585382 0.22482
v 0.395044 -0.0585382 0.284597
v 0.395044 -0.0529186 0.163475
v 0.485664 -0.0412613 0.283861
v 0.485664 -0.045 0.294619
v 0.485664 -0.0451857 0.295806
v 0.42007 -0.0585382 0.244318
v 0.485664 -0.0452786 0.296709
v 0.419573 -0.0585382 0.260087
v 0.485664 -0.044791 0.311623
v 0.485664 -0.0446749 0.31236
v 0.485664 -0.0443033 0.313808
v 0.482319 -0.0430958 0.317941
v 0.485664 -0.0366633 0.326514
v 0.485664 -0.036315 0.326894
v 0.47893 -0.0288608 0.333497
v 0.395044 -0.0450928 0.298561
v 0.395044 -0.0460914 0.152503
v 0.485664 -0.0404949 0.282317
v 0.420274 -0.0585382 0.251941
v 0.420141 -0.0585382 0.253794
v 0.485664 -0.0369188 0.326158
v 0.485664 -0.0367562 0.326396
v 0.485664 -0.0250292 0.337178
v 0.485664 -0.0230322 0.338389
v 0.484608 -0.023125 0.338104
v 0.395044 -0.0227767 0.314212
v 0.395044 -0.0249131 0.312977
v 0.395044 -0.0322744 0.308322
v 0.395044 -0.0341786 0.307064
v 0.395044 -0.0361292 0.140106
v 0.421534 -0.0301612 0.172334
v 0.485664 -0.0325763 0.271416
v 0.485664 -0.0401002 0.281723
v 0.485664 -0.022382 0.338698
v 0.485664 -0.00691626 0.345751
v 0.395044 -0.0138596 0.317442
v 0.395044 -0.021755 0.126213
v 0.421268 -0.0158334 0.158702
v 0.485664 -0.0323905 0.271202
v 0.485664 0.00771345 0.349504
v 0.480971 0.00344064 0.347485
v 0.395044 -0.00763614 0.318891
v 0.395044 -0.00724137 0.118067
v 0.422847 -0.00724137 0.156659
v 0.485664 -0.023125 0.264244
v 0.485664 0.00799211 0.349551
v 0.477963 0.0131241 0.348316
v 0.395044 -0.00197003 0.319651
v 0.395044 0.00727224 0.112818
v 0.424594 0.00727224 0.153928
v 0.485664 -0.00649827 0.257238
v 0.485664 -0.0228464 0.264101
v 0.485664 0.0217626 0.35176
v 0.476234 0.0217626 0.34891
v 0.395044 0.0118237 0.320601
v 0.473714 0.0362762 0.349789
v 0.46494 0.0472137 0.34777
v 0.463876 0.0568739 0.348174
v 0.395044 0.0217626 0.112771
v 0.420886 0.026616 0.144785
v 0.420141 0.0169557 0.145426
v 0.424364 0.0217858 0.151078
v 0.485664 0.00727224 0.253865
v 0.485664 0.0362762 0.353375
v 0.395044 0.0360208 0.319627
v 0.45614 0.065257 0.345704
v 0.45567 0.0797474 0.345941
v 0.442354 0.0797474 0.34017
v 0.485664 0.0507898 0.354657
v 0.470414 0.0515329 0.349979
v 0.471363 0.065257 0.350952
v 0.463388 0.065257 0.348316
v 0.395044 0.0362762 0.115193
v 0.420647 0.0437768 0.145022
v 0.420842 0.0362762 0.144808
v 0.485664 0.094261 0.251894
v 0.485664 0.0800957 0.25187
v 0.485664 0.0797474 0.25187
v 0.485664 0.0217626 0.252654
v 0.442354 0.094261 0.33941
v 0.433137 0.094261 0.334732
v 0.395044 0.109123 0.314141
v 0.462918 0.0797474 0.348482
v 0.463246 0.091335 0.348387
v 0.45779 0.0953988 0.345989
v 0.485664 0.065257 0.35537
v 0.471363 0.0797474 0.351214
v 0.395044 0.065257 0.124336
v 0.407553 0.0911957 0.14374
v 0.40938 0.0797474 0.14222
v 0.419892 0.0534371 0.14621
v 0.485664 0.123265 0.25586
v 0.485664 0.109007 0.253295
v 0.485664 0.108775 0.253271
v 0.485664 0.0945628 0.251918
v 0.440953 0.110075 0.336845
v 0.435186 0.115764 0.333544
v 0.434078 0.106104 0.334138
v 0.395044 0.119991 0.313096
v 0.46424 0.100995 0.348031
v 0.469988 0.0953988 0.350192
v 0.485664 0.0797474 0.355322
v 0.395044 0.0784469 0.1293
v 0.405761 0.100856 0.145378
v 0.418642 0.065257 0.148585
v 0.485664 0.137407 0.26042
v 0.485664 0.135689 0.259731
v 0.485664 0.123451 0.255908
v 0.456859 0.108775 0.343756
v 0.456859 0.123265 0.340431
v 0.445122 0.123265 0.335491
v 0.448387 0.132182 0.334138
v 0.437874 0.123265 0.332309
v 0.395044 0.135038 0.308536
v 0.485664 0.0942842 0.354586
v 0.485664 0.108775 0.352686
v 0.473865 0.108775 0.349456
v 0.466617 0.108775 0.347366
v 0.485664 0.094052 0.35461
v 0.395044 0.100879 0.137755
v 0.395044 0.110214 0.141863
v 0.395044 0.116229 0.144737
v 0.395044 0.125332 0.149463
v 0.399223 0.123381 0.152076
v 0.405388 0.128745 0.1611
v 0.485664 0.151108 0.266714
v 0.485664 0.141819 0.262272
v 0.471842 0.123079 0.345846
v 0.471363 0.137779 0.341381
v 0.456877 0.137337 0.336109
v 0.452059 0.141866 0.332499
v 0.443073 0.137337 0.329934
v 0.418624 0.133204 0.320054
v 0.40215 0.149088 0.306636
v 0.395044 0.144884 0.30476
v 0.413621 0.137941 0.316112
v 0.485664 0.122893 0.349789
v 0.476997 0.11811 0.34853
v 0.395044 0.135572 0.155662
v 0.395718 0.135294 0.155947
v 0.485664 0.162138 0.273506
v 0.480935 0.12777 0.347461
v 0.485664 0.137384 0.345894
v 0.485664 0.137686 0.345799
v 0.485664 0.15206 0.340123
v 0.472206 0.152013 0.335943
v 0.461729 0.146998 0.334565
v 0.407216 0.158771 0.304071
v 0.397936 0.153267 0.302242
v 0.395044 0.153198 0.30077
v 0.485664 0.123219 0.349717
v 0.395044 0.136803 0.156541
v 0.485664 0.169383 0.280274
v 0.395044 0.142562 0.161908
v 0.485664 0.130231 0.348079
v 0.485664 0.152269 0.340028
v 0.4776 0.160095 0.333972
v 0.46793 0.156658 0.331953
v 0.456877 0.152013 0.329697
v 0.437387 0.15768 0.318036
v 0.416885 0.161395 0.306114
v 0.398859 0.163857 0.294785
v 0.395044 0.162997 0.293788
v 0.447047 0.161024 0.320173
v 0.485664 0.17556 0.287542
v 0.395213 0.148809 0.169294
v 0.395044 0.149018 0.16946
v 0.485664 0.16172 0.335135
v 0.485664 0.168803 0.328557
v 0.472623 0.166504 0.325754
v 0.456859 0.163415 0.322287
v 0.427868 0.16388 0.308584
v 0.456859 0.170684 0.31483
v 0.437644 0.173145 0.302836
v 0.410125 0.173076 0.287518
v 0.397803 0.171636 0.282721
v 0.395044 0.170405 0.282911
v 0.485664 0.178649 0.297303
v 0.395044 0.159282 0.184398
v 0.395044 0.160606 0.186393
v 0.395044 0.161651 0.188365
v 0.395044 0.171055 0.214109
v 0.395044 0.173285 0.220212
v 0.485664 0.168989 0.328367
v 0.477325 0.174353 0.319532
v 0.467655 0.17289 0.317133
v 0.447305 0.174631 0.305662
v 0.395044 0.174144 0.275905
v 0.395044 0.172774 0.278944
v 0.398859 0.177325 0.253794
v 0.471363 0.178463 0.297303
v 0.485664 0.178393 0.311813
v 0.395044 0.175003 0.227385
v 0.395044 0.175049 0.22767
v 0.395044 0.176396 0.239046
v 0.485664 0.175305 0.321123
v 0.442425 0.176141 0.29773
v 0.427868 0.175049 0.292672
v 0.401928 0.174701 0.277852
v 0.395044 0.175584 0.268495
v 0.395044 0.177186 0.253794
v 0.456859 0.177906 0.297303
v 0.397803 0.175746 0.269492
f 1 2 8
f 1 8 21
f 1 21 22
f 1 22 10
f 1 10 3
f 1 3 18
f 1 18 31
f 1 31 30
f 1 30 29
f 1 29 28
f 1 28 38
f 1 38 44
f 1 44 50
f 1 50 57
f 1 57 67
f 1 67 84
f 1 84 101
f 1 101 116
f 1 116 137
f 1 137 152
f 1 152 165
f 1 165 179
f 1 179 191
f 1 191 190
f 1 190 202
f 1 202 203
f 1 203 197
f 1 197 196
f 1 196 195
f 1 195 185
f 1 185 184
f 1 184 183
f 1 183 182
f 1 182 181
f 1 181 169
f 1 169 156
f 1 156 154
f 1 154 141
f 1 141 125
f 1 125 124
f 1 124 123
f 1 123 122
f 1 122 105
f 1 105 90
f 1 90 75
f 1 75 61
f 1 61 51
f 1 51 45
f 1 45 39
f 1 39 32
f 1 32 19
f 1 19 4
f 1 4 5
f 1 5 6
f 1 6 7
f 1 7 2
f 2 7 9
f 2 9 8
f 3 10 11
f 3 11 12
f 3 12 13
f 3 13 14
f 3 14 15
f 3 15 16
f 3 16 17
f 3 17 18
f 4 19 20
f 4 20 5
f 5 20 35
f 5 35 34
f 5 34 41
f 5 41 47
f 5 47 54
f 5 54 53
f 5 53 65
f 5 65 81
f 5 81 80
f 5 80 79
f 5 79 78
f 5 78 97
f 5 97 96
f 5 96 95
f 5 95 94
f 5 94 110
f 5 110 109
f 5 109 108
f 5 108 129
f 5 129 128
f 5 128 143
f 5 143 155
f 5 155 167
f 5 167 180
f 5 180 194
f 5 194 198
f 5 198 186
f 5 186 171
f 5 171 170
f 5 170 158
f 5 158 147
f 5 147 146
f 5 146 145
f 5 145 157
f 5 157 153
f 5 153 139
f 5 139 118
f 5 118 117
f 5 117 121
f 5 121 104
f 5 104 88
f 5 88 71
f 5 71 66
f 5 66 55
f 5 55 48
f 5 48 42
f 5 42 37
f 5 37 36
f 5 36 26
f 5 26 25
f 5 25 16
f 5 16 15
f 5 15 24
f 5 24 23
f 5 23 13
f 5 13 12
f 5 12 11
f 5 11 9
f 5 9 7
f 5 7 6
f 8 9 21
f 9 11 10
f 9 10 22
f 9 22 21
f 13 23 14
f 14 23 24
f 14 24 15
f 16 25 17
f 17 25 26
f 17 26 27
f 17 27 28
f 17 28 29
f 17 29 30
f 17 30 31
f 17 31 18
f 19 32 33
f 19 33 34
f 19 34 35
f 19 35 20
f 26 36 27
f 27 36 37
f 27 37 28
f 28 37 38
f 32 39 33
f 33 39 40
f 33 40 41
f 33 41 34
f 37 42 43
f 37 43 38
f 38 43 44
f 39 45 40
f 40 45 46
f 40 46 47
f 40 47 41
f 42 48 49
f 42 49 43
f 43 49 44
f 44 49 50
f 45 51 46
f 46 51 52
f 46 52 53
f 46 53 54
f 46 54 47
f 48 55 49
f 49 55 56
f 49 56 50
f 50 56 58
f 50 58 59
f 50 59 60
f 50 60 57
f 51 61 62
f 51 62 63
f 51 63 52
f 52 63 62
f 52 62 64
f 52 64 65
f 52 65 53
f 55 58 56
f 55 66 58
f 57 60 68
f 57 68 69
f 57 69 70
f 57 70 67
f 58 66 71
f 58 71 72
f 58 72 59
f 59 72 60
f 60 72 73
f 60 73 74
f 60 74 68
f 61 75 76
f 61 76 77
f 61 77 62
f 62 77 78
f 62 78 79
f 62 79 80
f 62 80 81
f 62 81 65
f 62 65 64
f 67 70 82
f 67 82 83
f 67 83 84
f 68 74 69
f 69 74 85
f 69 85 86
f 69 86 87
f 69 87 82
f 69 82 70
f 71 88 73
f 71 73 72
f 73 89 85
f 73 85 74
f 73 88 89
f 75 90 91
f 75 91 92
f 75 92 93
f 75 93 76
f 76 93 94
f 76 94 95
f 76 95 96
f 76 96 97
f 76 97 78
f 76 78 77
f 82 98 99
f 82 99 100
f 82 100 84
f 82 84 83
f 82 87 98
f 84 100 101
f 85 89 86
f 86 102 87
f 86 89 103
f 86 103 102
f 87 102 98
f 88 104 89
f 89 104 103
f 90 105 106
f 90 106 91
f 91 107 93
f 91 93 92
f 91 106 108
f 91 108 109
f 91 109 107
f 93 110 94
f 93 107 109
f 93 109 110
f 98 102 111
f 98 111 99
f 99 111 112
f 99 112 113
f 99 113 114
f 99 114 115
f 99 115 116
f 99 116 101
f 99 101 100
f 102 103 117
f 102 117 118
f 102 118 119
f 102 119 120
f 102 120 111
f 103 104 121
f 103 121 117
f 105 122 106
f 106 122 123
f 106 123 124
f 106 124 125
f 106 125 126
f 106 126 127
f 106 127 128
f 106 128 129
f 106 129 108
f 111 120 112
f 112 120 130
f 112 130 131
f 112 131 132
f 112 132 114
f 112 114 113
f 114 132 133
f 114 133 134
f 114 134 135
f 114 135 115
f 115 135 116
f 116 136 137
f 116 135 134
f 116 134 138
f 116 138 136
f 118 139 140
f 118 140 119
f 119 140 120
f 120 140 130
f 125 141 142
f 125 142 126
f 126 142 127
f 127 142 143
f 127 143 128
f 130 140 144
f 130 144 131
f 131 144 145
f 131 145 146
f 131 146 147
f 131 147 148
f 131 148 149
f 131 149 132
f 132 149 133
f 133 138 134
f 133 149 136
f 133 136 138
f 136 150 151
f 136 151 152
f 136 152 137
f 136 149 150
f 139 153 140
f 140 153 144
f 141 154 142
f 142 154 143
f 143 154 156
f 143 156 155
f 144 153 157
f 144 157 145
f 147 158 159
f 147 159 148
f 148 159 149
f 149 159 160
f 149 160 161
f 149 161 162
f 149 162 150
f 150 163 164
f 150 164 165
f 150 165 152
f 150 152 151
f 150 162 166
f 150 166 163
f 155 156 168
f 155 168 167
f 156 169 168
f 158 170 159
f 159 170 171
f 159 171 172
f 159 172 173
f 159 173 166
f 159 166 160
f 160 166 162
f 160 162 161
f 163 174 164
f 163 166 173
f 163 173 174
f 164 174 175
f 164 175 176
f 164 176 177
f 164 177 178
f 164 178 179
f 164 179 165
f 167 168 181
f 167 181 182
f 167 182 183
f 167 183 184
f 167 184 185
f 167 185 180
f 168 169 181
f 171 186 172
f 172 186 187
f 172 187 188
f 172 188 173
f 173 188 175
f 173 175 174
f 175 188 189
f 175 189 176
f 176 189 177
f 177 190 191
f 177 191 178
f 177 189 190
f 178 191 179
f 180 192 193
f 180 193 194
f 180 185 195
f 180 195 196
f 180 196 197
f 180 197 192
f 186 198 187
f 187 198 189
f 187 189 188
f 189 194 199
f 189 199 200
f 189 200 190
f 189 198 194
f 190 200 199
f 190 199 201
f 190 201 202
f 192 197 203
f 192 203 193
f 193 204 194
f 193 203 204
f 194 204 199
f 199 204 205
f 199 205 202
f 199 202 201
f 202 205 203
f 203 205 204
