v -0.294235 0.326692 -0.305506
v -0.125331 0.339855 -0.305506
v -0.294235 0.42451 -0.220764
v -0.294235 0.444264 -0.305506
v -0.125331 0.458341 -0.305506
v -0.125331 0.439806 -0.220764
v -0.294235 0.505908 -0.220764
v -0.294235 0.447521 -0.302619
v -0.2861 0.448645 -0.303705
v -0.284744 0.446893 -0.305506
v -0.131664 0.459065 -0.305506
v -0.137798 0.462475 -0.303025
v -0.125331 0.46177 -0.302345
v -0.125331 0.519185 -0.220764
v -0.293706 0.50606 -0.220764
v -0.294235 0.50566 -0.221311
v -0.294235 0.452893 -0.297351
v -0.286728 0.463313 -0.289171
v -0.276427 0.449807 -0.304759
v -0.27732 0.448741 -0.305506
v -0.277072 0.464456 -0.290449
v -0.137798 0.459713 -0.305506
v -0.147686 0.460589 -0.305506
v -0.152299 0.463085 -0.303622
v -0.137798 0.469733 -0.295775
v -0.125331 0.469142 -0.295094
v -0.125331 0.517851 -0.2237
v -0.130754 0.519585 -0.220764
v -0.294235 0.504174 -0.224372
v -0.282809 0.508708 -0.220764
v -0.294235 0.454893 -0.295368
v -0.294235 0.462189 -0.28796
v -0.294235 0.466666 -0.282817
v -0.282264 0.468876 -0.283729
v -0.268308 0.450874 -0.305506
v -0.269532 0.450588 -0.305506
v -0.26353 0.479124 -0.276196
v -0.253807 0.48 -0.277275
v -0.253807 0.473733 -0.284525
v -0.268308 0.465256 -0.291303
v -0.268308 0.457979 -0.298554
v -0.152299 0.460951 -0.305506
v -0.1627 0.461123 -0.305506
v -0.1668 0.463199 -0.30373
v -0.1668 0.470533 -0.29648
v -0.1668 0.477772 -0.289146
v -0.152299 0.470247 -0.296364
v -0.137798 0.476972 -0.288308
v -0.125331 0.4764 -0.287645
v -0.125331 0.470171 -0.294041
v -0.125331 0.517318 -0.224812
v -0.142147 0.52029 -0.220764
v -0.282809 0.505374 -0.227483
v -0.294235 0.496402 -0.239579
v -0.280379 0.509222 -0.220764
v -0.268308 0.510536 -0.22336
v -0.294235 0.468209 -0.280933
v -0.282809 0.477067 -0.273492
v -0.273203 0.478096 -0.274902
v -0.256387 0.453179 -0.305506
v -0.268341 0.483144 -0.269369
v -0.253807 0.486553 -0.268315
v -0.239306 0.481143 -0.27876
v -0.239306 0.474971 -0.28601
v -0.224805 0.476153 -0.287363
v -0.253807 0.466494 -0.292564
v -0.253807 0.459389 -0.299823
v -0.1668 0.46118 -0.305506
v -0.181301 0.46078 -0.305506
v -0.181301 0.462989 -0.303531
v -0.181301 0.470457 -0.296281
v -0.181301 0.477715 -0.289063
v -0.152299 0.477505 -0.288864
v -0.1668 0.484039 -0.281896
v -0.152299 0.483734 -0.281614
v -0.137798 0.483105 -0.281049
v -0.125331 0.482572 -0.280394
v -0.125331 0.511775 -0.236211
v -0.151224 0.519394 -0.223642
v -0.148628 0.520652 -0.220764
v -0.282809 0.499278 -0.239313
v -0.268308 0.50686 -0.230611
v -0.290746 0.493297 -0.246846
v -0.294235 0.494935 -0.242283
v -0.268308 0.511679 -0.220764
v -0.254485 0.513927 -0.220764
v -0.25518 0.511394 -0.226231
v -0.260917 0.507603 -0.232013
v -0.294235 0.475676 -0.271534
v -0.282809 0.482305 -0.266241
v -0.253807 0.453655 -0.305506
v -0.268308 0.491144 -0.258161
v -0.253807 0.492421 -0.260061
v -0.24592 0.49303 -0.26094
v -0.224805 0.489468 -0.270423
v -0.224805 0.48221 -0.280112
v -0.210287 0.48301 -0.280991
v -0.210287 0.476934 -0.288242
v -0.224805 0.468895 -0.294762
v -0.239306 0.467733 -0.293734
v -0.239306 0.460513 -0.300984
v -0.195803 0.460246 -0.305506
v -0.195803 0.462742 -0.303249
v -0.195803 0.470114 -0.295999
v -0.195803 0.477372 -0.288707
v -0.181301 0.483772 -0.281813
v -0.1668 0.491297 -0.273177
v -0.152299 0.490992 -0.272555
v -0.125331 0.489811 -0.27107
v -0.125331 0.510784 -0.23821
v -0.153341 0.520899 -0.220764
v -0.137798 0.511089 -0.23894
v -0.150844 0.510879 -0.240765
v -0.154713 0.507908 -0.247078
v -0.1668 0.512232 -0.239313
v -0.268308 0.502345 -0.239313
v -0.282809 0.494268 -0.248405
v -0.282809 0.489563 -0.255664
v -0.294235 0.49002 -0.250446
v -0.239306 0.516308 -0.220764
v -0.251244 0.508403 -0.233655
v -0.239306 0.514442 -0.224812
v -0.25518 0.505069 -0.238824
v -0.294235 0.480839 -0.264284
v -0.239306 0.455846 -0.305506
v -0.268308 0.495849 -0.250911
v -0.253807 0.497202 -0.252811
v -0.240381 0.497659 -0.255191
v -0.224805 0.49463 -0.263172
v -0.210287 0.495697 -0.264533
v -0.210287 0.490268 -0.271791
v -0.195803 0.490649 -0.272488
v -0.195803 0.483391 -0.281448
v -0.210287 0.469676 -0.295526
v -0.224805 0.461485 -0.302013
v -0.210287 0.459313 -0.305506
v -0.210287 0.462266 -0.302776
v -0.181301 0.491011 -0.272944
v -0.181301 0.496554 -0.265694
v -0.1668 0.496535 -0.265926
v -0.152299 0.496002 -0.265296
v -0.125331 0.495049 -0.263819
v -0.125331 0.506993 -0.24546
v -0.137798 0.507412 -0.24619
v -0.1668 0.519013 -0.225526
v -0.1668 0.52128 -0.220764
v -0.1668 0.508098 -0.247427
v -0.150844 0.504136 -0.252678
v -0.1668 0.503774 -0.254677
v -0.181301 0.512118 -0.239313
v -0.294235 0.488325 -0.25301
v -0.22955 0.517642 -0.220764
v -0.239306 0.509203 -0.235373
v -0.239306 0.505603 -0.242623
v -0.224805 0.516423 -0.224812
v -0.224805 0.51027 -0.237239
v -0.224805 0.457751 -0.305506
v -0.224805 0.500821 -0.253823
v -0.208882 0.503641 -0.252371
v -0.195803 0.503545 -0.254096
v -0.195803 0.496288 -0.265238
v -0.181301 0.503793 -0.254561
v -0.125331 0.502383 -0.252744
v -0.125331 0.501679 -0.253823
v -0.125331 0.49604 -0.262334
v -0.181301 0.518975 -0.225285
v -0.181301 0.521071 -0.220764
v -0.181301 0.508022 -0.24731
v -0.195803 0.511718 -0.239313
v -0.224805 0.51829 -0.220764
v -0.224805 0.506555 -0.24449
v -0.210287 0.517966 -0.224812
v -0.208882 0.510479 -0.240317
v -0.212734 0.507203 -0.245809
v -0.203078 0.507622 -0.246572
v -0.195803 0.507774 -0.246838
v -0.195141 0.519375 -0.223452
v -0.192661 0.52069 -0.220764
v -0.216174 0.519204 -0.220764
v -0.210287 0.519699 -0.220764
v -0.196993 0.520461 -0.220764
f 1 2 3
f 1 3 7
f 1 7 16
f 1 16 29
f 1 29 54
f 1 54 84
f 1 84 119
f 1 119 151
f 1 151 124
f 1 124 89
f 1 89 57
f 1 57 33
f 1 33 32
f 1 32 31
f 1 31 17
f 1 17 8
f 1 8 4
f 1 4 10
f 1 10 20
f 1 20 36
f 1 36 35
f 1 35 60
f 1 60 91
f 1 91 125
f 1 125 157
f 1 157 136
f 1 136 102
f 1 102 69
f 1 69 68
f 1 68 43
f 1 43 42
f 1 42 23
f 1 23 22
f 1 22 11
f 1 11 5
f 1 5 2
f 2 5 13
f 2 13 26
f 2 26 50
f 2 50 49
f 2 49 77
f 2 77 109
f 2 109 142
f 2 142 165
f 2 165 164
f 2 164 163
f 2 163 143
f 2 143 110
f 2 110 78
f 2 78 51
f 2 51 27
f 2 27 14
f 2 14 6
f 2 6 3
f 3 6 14
f 3 14 28
f 3 28 52
f 3 52 80
f 3 80 111
f 3 111 146
f 3 146 167
f 3 167 178
f 3 178 181
f 3 181 180
f 3 180 179
f 3 179 170
f 3 170 152
f 3 152 120
f 3 120 86
f 3 86 85
f 3 85 55
f 3 55 30
f 3 30 15
f 3 15 7
f 4 8 9
f 4 9 10
f 5 11 12
f 5 12 13
f 7 15 16
f 8 17 18
f 8 18 9
f 9 19 20
f 9 20 10
f 9 18 21
f 9 21 19
f 11 22 12
f 12 22 23
f 12 23 24
f 12 24 25
f 12 25 26
f 12 26 13
f 14 27 28
f 15 29 16
f 15 30 29
f 17 31 18
f 18 32 33
f 18 33 34
f 18 34 21
f 18 31 32
f 19 35 36
f 19 36 20
f 19 21 35
f 21 34 37
f 21 37 38
f 21 38 39
f 21 39 40
f 21 40 41
f 21 41 35
f 23 42 24
f 24 42 43
f 24 43 44
f 24 44 45
f 24 45 46
f 24 46 47
f 24 47 25
f 25 47 48
f 25 48 49
f 25 49 50
f 25 50 26
f 27 51 52
f 27 52 28
f 29 30 53
f 29 53 54
f 30 55 56
f 30 56 53
f 33 57 34
f 34 57 58
f 34 58 59
f 34 59 37
f 35 41 60
f 37 59 61
f 37 61 62
f 37 62 38
f 38 63 64
f 38 64 39
f 38 62 63
f 39 64 40
f 40 64 65
f 40 65 66
f 40 66 67
f 40 67 41
f 41 67 60
f 43 68 44
f 44 68 69
f 44 69 70
f 44 70 71
f 44 71 45
f 45 71 72
f 45 72 46
f 46 73 47
f 46 72 74
f 46 74 73
f 47 73 48
f 48 73 75
f 48 75 76
f 48 76 77
f 48 77 49
f 51 78 52
f 52 79 80
f 52 78 79
f 53 81 54
f 53 56 82
f 53 82 81
f 54 81 83
f 54 83 84
f 55 85 56
f 56 85 86
f 56 86 87
f 56 87 88
f 56 88 82
f 57 89 58
f 58 89 90
f 58 90 61
f 58 61 59
f 60 67 91
f 61 92 62
f 61 90 92
f 62 92 93
f 62 93 94
f 62 94 95
f 62 95 63
f 63 96 65
f 63 65 64
f 63 95 96
f 65 96 97
f 65 97 98
f 65 98 99
f 65 99 100
f 65 100 66
f 66 100 67
f 67 100 101
f 67 101 91
f 69 102 70
f 70 102 103
f 70 103 71
f 71 103 104
f 71 104 72
f 72 104 105
f 72 105 106
f 72 106 74
f 73 74 75
f 74 106 107
f 74 107 75
f 75 107 108
f 75 108 76
f 76 108 77
f 77 108 109
f 78 110 79
f 79 111 80
f 79 110 112
f 79 112 113
f 79 113 114
f 79 114 115
f 79 115 111
f 81 82 116
f 81 116 117
f 81 117 83
f 82 88 116
f 83 117 118
f 83 118 119
f 83 119 84
f 86 120 87
f 87 121 88
f 87 120 122
f 87 122 121
f 88 121 123
f 88 123 116
f 89 124 90
f 90 124 118
f 90 118 92
f 91 101 125
f 92 118 126
f 92 126 127
f 92 127 93
f 93 127 128
f 93 128 94
f 94 129 95
f 94 128 129
f 95 129 130
f 95 130 131
f 95 131 96
f 96 131 97
f 97 131 132
f 97 132 133
f 97 133 105
f 97 105 98
f 98 105 104
f 98 104 134
f 98 134 99
f 99 135 101
f 99 101 100
f 99 134 137
f 99 137 135
f 101 135 125
f 102 136 103
f 103 136 137
f 103 137 134
f 103 134 104
f 105 133 106
f 106 133 138
f 106 138 107
f 107 138 139
f 107 139 140
f 107 140 108
f 108 140 141
f 108 141 142
f 108 142 109
f 110 143 144
f 110 144 114
f 110 114 113
f 110 113 112
f 111 115 145
f 111 145 146
f 114 147 115
f 114 144 148
f 114 148 149
f 114 149 147
f 115 147 150
f 115 150 145
f 116 123 126
f 116 126 117
f 117 126 118
f 118 151 119
f 118 124 151
f 120 152 122
f 121 122 153
f 121 153 154
f 121 154 123
f 122 152 155
f 122 155 156
f 122 156 153
f 123 154 126
f 125 135 157
f 126 154 127
f 127 154 158
f 127 158 128
f 128 158 129
f 129 158 130
f 130 158 159
f 130 159 160
f 130 160 161
f 130 161 131
f 131 161 132
f 132 138 133
f 132 161 138
f 135 137 157
f 136 157 137
f 138 161 139
f 139 161 160
f 139 160 162
f 139 162 140
f 140 162 149
f 140 149 148
f 140 148 141
f 141 148 163
f 141 163 164
f 141 164 165
f 141 165 142
f 143 163 144
f 144 163 148
f 145 166 146
f 145 150 166
f 146 166 167
f 147 168 150
f 147 149 162
f 147 162 168
f 150 168 169
f 150 169 166
f 152 170 155
f 153 156 154
f 154 156 171
f 154 171 158
f 155 170 172
f 155 172 173
f 155 173 156
f 156 173 171
f 158 171 159
f 159 171 174
f 159 174 175
f 159 175 160
f 160 175 176
f 160 176 168
f 160 168 162
f 166 177 167
f 166 169 177
f 167 177 178
f 168 176 169
f 169 176 175
f 169 175 173
f 169 173 172
f 169 172 177
f 170 179 172
f 171 173 174
f 172 179 180
f 172 180 181
f 172 181 177
f 173 175 174
f 177 181 178
