v 0.0703225 -0.375171 -0.317138
v 0.0718977 -0.363032 -0.324128
v 0.0902667 -0.360433 -0.317692
v 0.0807392 -0.370048 -0.315767
v 0.084474 -0.380033 -0.306822
v 0.0753022 -0.389908 -0.30385
v 0.0712117 -0.420533 -0.278552
v 0.0703225 -0.33727 -0.256457
v 0.0703225 -0.166771 -0.411031
v 0.0728123 -0.207567 -0.408675
v 0.0754038 -0.346439 -0.33232
v 0.0807392 -0.356387 -0.324436
v 0.105663 -0.365482 -0.306637
v 0.0983206 -0.350151 -0.320387
v 0.111989 -0.344879 -0.317076
v 0.0988033 -0.375133 -0.303219
v 0.0949415 -0.384748 -0.297737
v 0.0910543 -0.394102 -0.292271
v 0.0791132 -0.4029 -0.290839
v 0.0744384 -0.429516 -0.266865
v 0.0747686 -0.437832 -0.256626
v 0.0911559 -0.408691 -0.278229
v 0.0834831 -0.41838 -0.273348
v 0.11049 -0.416672 -0.256457
v 0.243214 -0.0585988 -0.256457
v 0.0703225 -0.0585988 -0.322311
v 0.0703225 -0.0585988 -0.386549
v 0.111227 -0.0585988 -0.408999
v 0.123295 -0.0619769 -0.41294
v 0.0797991 -0.166808 -0.413741
v 0.0750735 -0.181322 -0.413294
v 0.0751751 -0.195725 -0.411185
v 0.090038 -0.186 -0.408198
v 0.187193 -0.26466 -0.318216
v 0.171136 -0.283146 -0.319232
v 0.156552 -0.297884 -0.320279
v 0.140267 -0.314328 -0.320433
v 0.123371 -0.31173 -0.330179
v 0.108483 -0.325799 -0.329671
v 0.0941539 -0.333669 -0.331673
v 0.107823 -0.340351 -0.321926
v 0.109804 -0.370085 -0.301048
v 0.119306 -0.360396 -0.303034
v 0.127132 -0.349965 -0.305852
v 0.1236 -0.330291 -0.320033
v 0.136608 -0.339979 -0.307145
v 0.112955 -0.379365 -0.291978
v 0.104774 -0.389574 -0.288252
v 0.0953988 -0.422946 -0.260568
v 0.0959832 -0.414408 -0.269406
v 0.100836 -0.40561 -0.275118
v 0.117401 -0.407021 -0.262108
v 0.127614 -0.403903 -0.25735
v 0.154952 -0.3833 -0.256457
v 0.329876 -0.0618284 -0.256457
v 0.319866 -0.0619769 -0.270407
v 0.265801 -0.0619769 -0.322588
v 0.255486 -0.0619769 -0.329841
v 0.143112 -0.0645012 -0.406627
v 0.135694 -0.0797952 -0.409337
v 0.123295 -0.0797952 -0.413156
v 0.0943063 -0.15233 -0.413356
v 0.108813 -0.137816 -0.411478
v 0.100683 -0.170112 -0.407582
v 0.215979 -0.220931 -0.318077
v 0.191868 -0.251333 -0.32108
v 0.108864 -0.151068 -0.408737
v 0.196568 -0.26878 -0.310024
v 0.192249 -0.280362 -0.307114
v 0.181908 -0.283518 -0.312257
v 0.196339 -0.255194 -0.316645
v 0.176776 -0.301484 -0.306375
v 0.166182 -0.311025 -0.307668
v 0.149998 -0.309466 -0.317831
v 0.151547 -0.325651 -0.307684
v 0.13544 -0.323757 -0.317677
v 0.136735 -0.35442 -0.296752
v 0.132848 -0.364405 -0.29164
v 0.122482 -0.369454 -0.294103
v 0.140623 -0.344248 -0.301848
v 0.146187 -0.33456 -0.305282
v 0.126751 -0.374057 -0.287575
v 0.122228 -0.383597 -0.28214
v 0.12736 -0.389314 -0.273286
v 0.11326 -0.394177 -0.278167
v 0.137472 -0.393731 -0.260414
v 0.149312 -0.380479 -0.264694
v 0.162726 -0.375876 -0.257473
v 0.190648 -0.349334 -0.258982
v 0.216614 -0.322607 -0.257519
v 0.225709 -0.312435 -0.256457
v 0.318799 -0.0797952 -0.268174
v 0.327107 -0.0798323 -0.256457
v 0.305511 -0.0797952 -0.283941
v 0.307163 -0.0636474 -0.285142
v 0.293011 -0.0636474 -0.299446
v 0.277818 -0.0636474 -0.312888
v 0.267757 -0.0797952 -0.318601
v 0.253809 -0.0943097 -0.326546
v 0.25264 -0.0797209 -0.329487
v 0.133636 -0.0943097 -0.408444
v 0.123295 -0.0943097 -0.412525
v 0.108813 -0.123302 -0.41311
v 0.124439 -0.109567 -0.409922
v 0.120958 -0.123302 -0.409153
v 0.219815 -0.207344 -0.320525
v 0.117045 -0.14164 -0.406797
v 0.224718 -0.211428 -0.315706
v 0.230791 -0.223826 -0.306175
v 0.223702 -0.241422 -0.303773
v 0.210211 -0.25293 -0.308223
v 0.205714 -0.238749 -0.317446
v 0.204825 -0.270265 -0.303511
v 0.196568 -0.284223 -0.301987
v 0.187117 -0.293652 -0.303542
v 0.191182 -0.307498 -0.292148
v 0.180968 -0.311433 -0.297121
v 0.170602 -0.315331 -0.30211
v 0.195933 -0.297104 -0.295012
v 0.160948 -0.320379 -0.305467
v 0.148346 -0.350745 -0.292179
v 0.138158 -0.370085 -0.28311
v 0.142503 -0.360433 -0.288329
v 0.152106 -0.34061 -0.297167
v 0.155841 -0.330068 -0.302156
v 0.133839 -0.379625 -0.277905
v 0.143493 -0.375764 -0.274364
v 0.138539 -0.384896 -0.26899
v 0.154088 -0.371347 -0.269868
v 0.171034 -0.364739 -0.261569
v 0.158864 -0.361955 -0.275041
v 0.173727 -0.347738 -0.275318
v 0.182594 -0.342058 -0.272624
v 0.18826 -0.33326 -0.275318
v 0.198041 -0.33946 -0.260922
v 0.206553 -0.326282 -0.264463
v 0.221009 -0.30902 -0.264648
v 0.233255 -0.301596 -0.257196
v 0.243595 -0.287638 -0.256611
v 0.315115 -0.135403 -0.256457
v 0.322686 -0.0934188 -0.259629
v 0.320044 -0.107748 -0.259505
v 0.314505 -0.0943097 -0.270068
v 0.317808 -0.123302 -0.257427
v 0.304063 -0.0943097 -0.28234
v 0.293621 -0.0943097 -0.293703
v 0.295044 -0.0797952 -0.295012
v 0.283738 -0.0797952 -0.305359
v 0.282391 -0.0943097 -0.304127
v 0.266258 -0.0943097 -0.317446
v 0.263362 -0.107933 -0.317153
v 0.255181 -0.123302 -0.320002
v 0.242935 -0.108824 -0.331334
v 0.131908 -0.105223 -0.407274
v 0.226192 -0.182659 -0.324544
v 0.226903 -0.193981 -0.320402
v 0.220704 -0.170446 -0.331765
v 0.23671 -0.180691 -0.318154
v 0.245476 -0.195243 -0.306375
v 0.239708 -0.210351 -0.304881
v 0.236964 -0.23938 -0.294303
v 0.233992 -0.249663 -0.291825
v 0.224541 -0.253412 -0.297275
v 0.215013 -0.257199 -0.302726
v 0.219078 -0.272047 -0.291363
v 0.209805 -0.281513 -0.29341
v 0.204622 -0.29213 -0.291424
v 0.200785 -0.301819 -0.288237
v 0.196847 -0.312955 -0.283679
v 0.186837 -0.317187 -0.288807
v 0.177183 -0.32231 -0.29244
v 0.166741 -0.32617 -0.297291
v 0.162904 -0.336935 -0.292487
v 0.158001 -0.346624 -0.288976
v 0.14921 -0.366113 -0.27866
v 0.164073 -0.352267 -0.279306
v 0.178605 -0.338086 -0.27926
v 0.172559 -0.331961 -0.28893
v 0.182721 -0.327804 -0.284033
v 0.192859 -0.323572 -0.279137
v 0.202462 -0.318375 -0.275088
v 0.196949 -0.327581 -0.272331
v 0.211812 -0.313697 -0.269868
v 0.21608 -0.302672 -0.274302
v 0.225227 -0.297809 -0.268852
v 0.234144 -0.292947 -0.263401
v 0.247991 -0.278024 -0.259043
v 0.259297 -0.262396 -0.257211
v 0.272864 -0.239529 -0.256888
v 0.301954 -0.175531 -0.257026
v 0.308103 -0.154298 -0.258643
v 0.305054 -0.137816 -0.269098
v 0.303733 -0.127088 -0.274549
v 0.305334 -0.113093 -0.276489
v 0.299287 -0.108824 -0.28428
v 0.291436 -0.113873 -0.291501
v 0.2845 -0.108824 -0.299385
v 0.276675 -0.113316 -0.305559
v 0.269129 -0.12293 -0.309347
v 0.252818 -0.137816 -0.318262
v 0.240318 -0.166808 -0.31974
v 0.253987 -0.181322 -0.304697
v 0.254419 -0.197173 -0.297983
v 0.2517 -0.210351 -0.294765
v 0.248804 -0.221933 -0.292179
v 0.245247 -0.235483 -0.288791
v 0.248499 -0.249737 -0.277567
v 0.239784 -0.254526 -0.28331
v 0.234195 -0.27253 -0.27769
v 0.229292 -0.263806 -0.287652
v 0.261939 -0.228504 -0.276489
v 0.214302 -0.285522 -0.287236
v 0.219764 -0.292984 -0.277567
v 0.210364 -0.297401 -0.282894
v 0.206426 -0.308723 -0.278567
v 0.229444 -0.28645 -0.27307
v 0.238362 -0.281365 -0.267358
v 0.249515 -0.268298 -0.264371
v 0.263794 -0.251556 -0.259659
v 0.264505 -0.237895 -0.267959
v 0.277412 -0.22546 -0.260275
v 0.28854 -0.206713 -0.25755
v 0.293215 -0.192644 -0.259613
v 0.290394 -0.181322 -0.268913
v 0.299871 -0.15233 -0.270053
v 0.297305 -0.123005 -0.282755
v 0.294942 -0.137816 -0.280877
v 0.288768 -0.133213 -0.288837
v 0.274515 -0.127533 -0.303711
v 0.265521 -0.137816 -0.30833
v 0.263057 -0.15233 -0.306267
v 0.248829 -0.15311 -0.317169
v 0.259373 -0.164766 -0.305698
v 0.265775 -0.181322 -0.294442
v 0.263108 -0.192941 -0.29204
v 0.259881 -0.206491 -0.288961
v 0.258179 -0.241793 -0.272532
v 0.24418 -0.263843 -0.273086
v 0.2236 -0.281142 -0.281801
v 0.266284 -0.210351 -0.280815
v 0.274439 -0.206528 -0.274348
v 0.279774 -0.210351 -0.266095
v 0.254114 -0.254266 -0.268713
v 0.283408 -0.197099 -0.269067
v 0.27759 -0.192978 -0.277659
v 0.280105 -0.181322 -0.280338
v 0.286533 -0.167179 -0.279322
v 0.289149 -0.15233 -0.281986
v 0.276675 -0.162836 -0.291193
v 0.278428 -0.15233 -0.292825
v 0.280765 -0.137816 -0.29495
v 0.272788 -0.137816 -0.302202
v 0.270323 -0.15233 -0.300062
v 0.274007 -0.176905 -0.288545
v 0.269231 -0.197804 -0.283772
f 1 2 3
f 1 3 4
f 1 4 5
f 1 5 6
f 1 6 7
f 1 7 8
f 1 8 26
f 1 26 27
f 1 27 9
f 1 9 10
f 1 10 2
f 2 11 12
f 2 12 3
f 2 10 11
f 3 13 4
f 3 12 14
f 3 14 15
f 3 15 13
f 4 13 16
f 4 16 5
f 5 17 6
f 5 16 17
f 6 18 19
f 6 19 7
f 6 17 18
f 7 20 21
f 7 21 8
f 7 19 22
f 7 22 23
f 7 23 20
f 8 21 24
f 8 24 54
f 8 54 91
f 8 91 140
f 8 140 93
f 8 93 55
f 8 55 25
f 8 25 26
f 9 27 28
f 9 28 29
f 9 29 30
f 9 30 31
f 9 31 10
f 10 31 32
f 10 32 33
f 10 33 34
f 10 34 35
f 10 35 36
f 10 36 37
f 10 37 38
f 10 38 39
f 10 39 40
f 10 40 11
f 11 40 12
f 12 40 41
f 12 41 14
f 13 42 16
f 13 15 43
f 13 43 42
f 14 41 15
f 15 44 43
f 15 41 45
f 15 45 46
f 15 46 44
f 16 47 17
f 16 42 47
f 17 47 48
f 17 48 18
f 18 22 19
f 18 48 22
f 20 23 49
f 20 49 21
f 21 49 24
f 22 50 23
f 22 48 51
f 22 51 50
f 23 50 49
f 24 49 52
f 24 52 53
f 24 53 54
f 25 55 28
f 25 28 27
f 25 27 26
f 28 55 56
f 28 56 57
f 28 57 58
f 28 58 29
f 29 58 59
f 29 59 60
f 29 60 61
f 29 61 30
f 30 61 62
f 30 62 31
f 31 62 32
f 32 62 63
f 32 63 33
f 33 64 65
f 33 65 66
f 33 66 34
f 33 63 67
f 33 67 64
f 34 68 69
f 34 69 70
f 34 70 35
f 34 66 71
f 34 71 68
f 35 70 72
f 35 72 36
f 36 72 73
f 36 73 74
f 36 74 37
f 37 74 75
f 37 75 76
f 37 76 45
f 37 45 38
f 38 45 39
f 39 45 41
f 39 41 40
f 42 43 47
f 43 77 78
f 43 78 79
f 43 79 47
f 43 44 80
f 43 80 77
f 44 46 81
f 44 81 80
f 45 76 46
f 46 76 81
f 47 79 82
f 47 82 83
f 47 83 48
f 48 83 84
f 48 84 85
f 48 85 51
f 49 50 52
f 50 51 52
f 51 85 52
f 52 85 84
f 52 84 53
f 53 84 86
f 53 86 54
f 54 86 87
f 54 87 88
f 54 88 89
f 54 89 90
f 54 90 91
f 55 92 56
f 55 93 92
f 56 92 94
f 56 94 95
f 56 95 96
f 56 96 57
f 57 96 97
f 57 97 98
f 57 98 99
f 57 99 100
f 57 100 58
f 58 100 59
f 59 100 99
f 59 99 60
f 60 99 101
f 60 101 102
f 60 102 61
f 61 102 103
f 61 103 62
f 62 103 63
f 63 103 102
f 63 102 104
f 63 104 105
f 63 105 67
f 64 106 65
f 64 67 107
f 64 107 106
f 65 106 108
f 65 108 109
f 65 109 110
f 65 110 111
f 65 111 112
f 65 112 66
f 66 112 71
f 67 105 107
f 68 71 111
f 68 111 113
f 68 113 69
f 69 114 115
f 69 115 72
f 69 72 70
f 69 113 114
f 71 112 111
f 72 116 117
f 72 117 118
f 72 118 73
f 72 115 119
f 72 119 116
f 73 118 120
f 73 120 74
f 74 120 75
f 75 81 76
f 75 120 81
f 77 80 121
f 77 121 78
f 78 122 82
f 78 82 79
f 78 121 123
f 78 123 122
f 80 124 121
f 80 81 124
f 81 120 125
f 81 125 124
f 82 126 83
f 82 122 126
f 83 126 84
f 84 126 127
f 84 127 128
f 84 128 86
f 86 128 87
f 87 128 127
f 87 127 129
f 87 129 130
f 87 130 88
f 88 130 89
f 89 130 131
f 89 131 132
f 89 132 133
f 89 133 134
f 89 134 135
f 89 135 90
f 90 135 136
f 90 136 137
f 90 137 91
f 91 137 138
f 91 138 139
f 91 139 140
f 92 93 141
f 92 141 142
f 92 142 143
f 92 143 94
f 93 144 142
f 93 142 141
f 93 140 144
f 94 143 145
f 94 145 146
f 94 146 147
f 94 147 95
f 95 147 96
f 96 147 148
f 96 148 97
f 97 148 149
f 97 149 98
f 98 149 150
f 98 150 99
f 99 150 151
f 99 151 152
f 99 152 153
f 99 153 101
f 101 153 152
f 101 152 154
f 101 154 105
f 101 105 104
f 101 104 102
f 105 154 107
f 106 107 155
f 106 155 156
f 106 156 108
f 107 154 157
f 107 157 155
f 108 156 158
f 108 158 159
f 108 159 160
f 108 160 109
f 109 160 161
f 109 161 110
f 110 161 162
f 110 162 163
f 110 163 164
f 110 164 111
f 111 164 113
f 113 165 166
f 113 166 167
f 113 167 114
f 113 164 165
f 114 167 119
f 114 119 115
f 116 119 167
f 116 167 168
f 116 168 169
f 116 169 170
f 116 170 117
f 117 170 171
f 117 171 118
f 118 171 172
f 118 172 120
f 120 172 173
f 120 173 125
f 121 124 174
f 121 174 123
f 122 123 175
f 122 175 127
f 122 127 126
f 123 174 175
f 124 125 174
f 125 173 174
f 127 175 131
f 127 131 129
f 129 131 130
f 131 176 132
f 131 175 174
f 131 174 176
f 132 174 177
f 132 177 134
f 132 134 133
f 132 176 174
f 134 178 179
f 134 179 180
f 134 180 181
f 134 181 182
f 134 182 135
f 134 177 178
f 135 182 136
f 136 182 181
f 136 181 183
f 136 183 137
f 137 183 184
f 137 184 185
f 137 185 186
f 137 186 138
f 138 186 139
f 139 186 187
f 139 187 188
f 139 188 189
f 139 189 140
f 140 189 190
f 140 190 191
f 140 191 192
f 140 192 144
f 142 144 193
f 142 193 194
f 142 194 143
f 143 194 145
f 144 192 193
f 145 194 195
f 145 195 146
f 146 149 147
f 146 195 196
f 146 196 197
f 146 197 149
f 147 149 148
f 149 197 198
f 149 198 150
f 150 198 151
f 151 198 199
f 151 199 152
f 152 199 200
f 152 200 154
f 154 200 201
f 154 201 157
f 155 157 158
f 155 158 156
f 157 201 158
f 158 201 202
f 158 202 159
f 159 202 203
f 159 203 204
f 159 204 160
f 160 204 205
f 160 205 161
f 161 205 206
f 161 206 162
f 162 207 208
f 162 208 209
f 162 209 210
f 162 210 165
f 162 165 163
f 162 206 211
f 162 211 207
f 163 165 164
f 165 210 212
f 165 212 167
f 165 167 166
f 167 212 213
f 167 213 214
f 167 214 168
f 168 214 184
f 168 184 215
f 168 215 181
f 168 181 169
f 169 181 170
f 170 181 180
f 170 180 179
f 170 179 178
f 170 178 171
f 171 178 173
f 171 173 172
f 173 178 174
f 174 178 177
f 181 215 184
f 181 184 183
f 184 214 213
f 184 213 216
f 184 216 185
f 185 216 186
f 186 216 217
f 186 217 187
f 187 217 218
f 187 218 188
f 188 218 219
f 188 219 189
f 189 219 220
f 189 220 221
f 189 221 222
f 189 222 190
f 190 222 223
f 190 223 224
f 190 224 225
f 190 225 191
f 191 225 192
f 192 225 193
f 193 226 194
f 193 225 227
f 193 227 226
f 194 226 195
f 195 226 196
f 196 198 197
f 196 226 228
f 196 228 198
f 198 228 229
f 198 229 199
f 199 229 230
f 199 230 200
f 200 230 231
f 200 231 232
f 200 232 201
f 201 232 233
f 201 233 202
f 202 234 203
f 202 233 234
f 203 234 235
f 203 235 204
f 204 235 236
f 204 236 205
f 205 211 206
f 205 236 211
f 207 211 237
f 207 237 238
f 207 238 209
f 207 209 208
f 209 238 217
f 209 217 216
f 209 216 239
f 209 239 210
f 210 239 212
f 211 221 220
f 211 220 237
f 211 236 240
f 211 240 241
f 211 241 242
f 211 242 221
f 212 239 213
f 213 239 216
f 217 238 218
f 218 238 243
f 218 243 219
f 219 243 237
f 219 237 220
f 221 242 222
f 222 242 244
f 222 244 223
f 223 244 224
f 224 244 245
f 224 245 246
f 224 246 247
f 224 247 225
f 225 248 227
f 225 247 248
f 226 227 228
f 227 248 228
f 228 248 249
f 228 249 250
f 228 250 251
f 228 251 229
f 229 251 250
f 229 250 252
f 229 252 231
f 229 231 230
f 231 233 232
f 231 252 253
f 231 253 233
f 233 253 249
f 233 249 234
f 234 249 254
f 234 254 235
f 235 255 236
f 235 254 255
f 236 255 240
f 237 243 238
f 240 255 245
f 240 245 241
f 241 245 244
f 241 244 242
f 245 255 254
f 245 254 246
f 246 254 247
f 247 254 249
f 247 249 248
f 249 253 250
f 250 253 252
