v -0.451929 -0.388029 -0.0489554
v -0.312228 -0.457555 -0.0489554
v -0.451929 -0.335933 -0.223079
v -0.451929 -0.474907 -0.0489554
v -0.312228 -0.41398 -0.223079
v -0.312228 -0.534204 -0.0489554
v -0.451929 -0.434923 -0.223079
v -0.451929 -0.474363 -0.0576308
v -0.447594 -0.47745 -0.0489554
v -0.312228 -0.498606 -0.223079
v -0.324234 -0.530749 -0.0489554
v -0.312228 -0.534126 -0.0509836
v -0.446432 -0.438436 -0.223079
v -0.451929 -0.436476 -0.220317
v -0.451929 -0.473859 -0.0652666
v -0.446692 -0.476906 -0.0652666
v -0.439444 -0.481099 -0.0652666
v -0.440798 -0.481312 -0.0489554
v -0.312228 -0.504565 -0.209903
v -0.322169 -0.495772 -0.223079
v -0.326354 -0.530128 -0.0489554
v -0.326354 -0.53005 -0.0507791
v -0.326354 -0.52939 -0.0652666
v -0.312228 -0.533311 -0.0656757
v -0.44274 -0.440688 -0.223079
v -0.442876 -0.446724 -0.211199
v -0.451929 -0.44422 -0.20462
v -0.451929 -0.472752 -0.0797712
v -0.445803 -0.476363 -0.0797712
v -0.438555 -0.480613 -0.0797712
v -0.427834 -0.486592 -0.0797712
v -0.427834 -0.487484 -0.0652666
v -0.427834 -0.4883 -0.0507791
v -0.427123 -0.488785 -0.0489554
v -0.326354 -0.500062 -0.210296
v -0.326354 -0.495171 -0.221766
v -0.312228 -0.507496 -0.202643
v -0.326354 -0.494511 -0.223079
v -0.33903 -0.525974 -0.0489554
v -0.342135 -0.524208 -0.0655905
v -0.326354 -0.528536 -0.0797712
v -0.3397 -0.524246 -0.0797712
v -0.312228 -0.532418 -0.0797712
v -0.440798 -0.441872 -0.223079
v -0.434289 -0.449131 -0.216619
v -0.438377 -0.451479 -0.206955
v -0.448045 -0.448646 -0.200597
v -0.451929 -0.446957 -0.198331
v -0.451929 -0.471316 -0.0942247
v -0.44464 -0.475644 -0.0942929
v -0.437379 -0.479953 -0.0942929
v -0.427834 -0.485252 -0.0942929
v -0.418002 -0.491832 -0.0797712
v -0.418877 -0.49224 -0.0652666
v -0.419766 -0.492686 -0.0489554
v -0.326874 -0.505458 -0.195944
v -0.340849 -0.501013 -0.195791
v -0.340398 -0.495481 -0.210074
v -0.335242 -0.493696 -0.218784
v -0.312228 -0.509844 -0.196064
v -0.322416 -0.508563 -0.191223
v -0.33207 -0.507146 -0.187184
v -0.339386 -0.490047 -0.223079
v -0.340849 -0.525372 -0.0489554
v -0.340849 -0.525295 -0.0507791
v -0.348562 -0.522267 -0.0609545
v -0.34781 -0.521995 -0.0706356
v -0.326354 -0.527216 -0.0942929
v -0.338059 -0.523625 -0.0942929
v -0.346975 -0.521704 -0.0797712
v -0.345307 -0.52118 -0.0942929
v -0.312228 -0.531079 -0.0944804
v -0.430528 -0.447947 -0.223079
v -0.425783 -0.450645 -0.223079
v -0.406378 -0.464251 -0.217829
v -0.428135 -0.461475 -0.196694
v -0.419916 -0.463746 -0.202148
v -0.451437 -0.450334 -0.190473
v -0.451929 -0.4495 -0.19182
v -0.442876 -0.453517 -0.195791
v -0.451929 -0.470171 -0.104127
v -0.443259 -0.474829 -0.10878
v -0.436012 -0.479138 -0.10878
v -0.416621 -0.491153 -0.0942929
v -0.435259 -0.478692 -0.116655
v -0.410754 -0.495404 -0.0797712
v -0.411629 -0.495889 -0.0652666
v -0.413202 -0.495966 -0.0489554
v -0.355413 -0.49585 -0.195893
v -0.360295 -0.492279 -0.200768
v -0.350599 -0.493967 -0.205131
v -0.341519 -0.505846 -0.181917
v -0.344911 -0.491929 -0.214778
v -0.353375 -0.484884 -0.223079
v -0.312228 -0.514736 -0.181474
v -0.326874 -0.510368 -0.181917
v -0.337116 -0.508719 -0.17752
v -0.348179 -0.522907 -0.0489554
v -0.349232 -0.52248 -0.0507791
v -0.356479 -0.520035 -0.0507791
v -0.354182 -0.520054 -0.0655905
v -0.326354 -0.525508 -0.10878
v -0.312228 -0.529429 -0.10878
v -0.335762 -0.522791 -0.10878
v -0.334162 -0.522267 -0.117149
v -0.343023 -0.520481 -0.10878
v -0.355358 -0.518695 -0.0797712
v -0.355358 -0.517647 -0.0942929
v -0.355358 -0.516269 -0.10878
v -0.411616 -0.458583 -0.223079
v -0.398844 -0.465124 -0.223079
v -0.398844 -0.466056 -0.221306
v -0.376485 -0.478323 -0.21696
v -0.385429 -0.476848 -0.211403
v -0.398844 -0.471141 -0.210296
v -0.399582 -0.476518 -0.196865
v -0.409414 -0.465881 -0.210296
v -0.433167 -0.463028 -0.185309
v -0.423499 -0.465687 -0.192501
v -0.414392 -0.468929 -0.196694
v -0.441427 -0.45969 -0.180809
v -0.451929 -0.453168 -0.181218
v -0.451929 -0.451072 -0.187388
v -0.451929 -0.469627 -0.10878
v -0.407595 -0.493851 -0.10878
v -0.409373 -0.494685 -0.0942929
v -0.41487 -0.490221 -0.10878
v -0.433947 -0.477993 -0.126336
v -0.428614 -0.481332 -0.122228
v -0.451929 -0.467764 -0.123132
v -0.440975 -0.47446 -0.122228
v -0.398844 -0.501129 -0.0797712
v -0.398844 -0.502081 -0.0652666
v -0.412409 -0.496258 -0.0507791
v -0.398844 -0.50276 -0.0507791
v -0.398324 -0.50309 -0.0489554
v -0.355358 -0.501013 -0.181286
v -0.364794 -0.494026 -0.191104
v -0.369716 -0.490221 -0.195893
v -0.381367 -0.480555 -0.207296
v -0.370947 -0.483273 -0.211403
v -0.355413 -0.490085 -0.210074
v -0.346784 -0.507166 -0.172253
v -0.35596 -0.483894 -0.223079
v -0.312228 -0.519278 -0.166185
v -0.326354 -0.515104 -0.166765
v -0.356589 -0.520073 -0.0489554
v -0.369867 -0.515124 -0.0507791
v -0.369867 -0.514309 -0.0652666
v -0.312228 -0.527566 -0.123592
v -0.326627 -0.523625 -0.122535
v -0.339728 -0.519646 -0.122535
v -0.33166 -0.521529 -0.12683
v -0.369867 -0.51328 -0.0797712
v -0.369867 -0.512115 -0.0942929
v -0.370851 -0.510194 -0.108712
v -0.367228 -0.509514 -0.123285
v -0.355358 -0.514095 -0.123285
v -0.394099 -0.467337 -0.223079
v -0.372602 -0.4771 -0.223079
v -0.368417 -0.478925 -0.223079
v -0.366817 -0.4804 -0.221442
v -0.390994 -0.478323 -0.202404
v -0.39522 -0.480303 -0.19274
v -0.404902 -0.478012 -0.186689
v -0.413038 -0.475412 -0.181644
v -0.428135 -0.467376 -0.180809
v -0.435984 -0.46462 -0.175645
v -0.445461 -0.46165 -0.166765
v -0.451929 -0.457632 -0.166952
v -0.406501 -0.493307 -0.117507
v -0.398844 -0.499635 -0.0942929
v -0.431827 -0.476867 -0.137756
v -0.424579 -0.480633 -0.137756
v -0.405011 -0.492589 -0.127154
v -0.412149 -0.489678 -0.122723
v -0.451929 -0.465532 -0.135233
v -0.442357 -0.470811 -0.137756
v -0.386222 -0.505303 -0.0942929
v -0.387835 -0.50606 -0.0797712
v -0.389025 -0.506545 -0.0652666
v -0.389846 -0.506855 -0.0507791
v -0.389941 -0.506894 -0.0489554
v -0.369867 -0.499363 -0.166765
v -0.369716 -0.495326 -0.18057
v -0.374462 -0.491987 -0.184934
v -0.385429 -0.48302 -0.196865
v -0.362701 -0.481273 -0.223079
v -0.355057 -0.505244 -0.16714
v -0.341519 -0.510194 -0.16714
v -0.350039 -0.50833 -0.162589
v -0.312228 -0.519976 -0.163407
v -0.312228 -0.521587 -0.156981
v -0.315551 -0.521141 -0.154936
v -0.324986 -0.519297 -0.150982
v -0.368308 -0.515764 -0.0489554
v -0.369867 -0.515182 -0.0489554
v -0.381039 -0.51066 -0.0489554
v -0.382598 -0.509942 -0.0507791
v -0.381791 -0.509534 -0.0652666
v -0.380629 -0.50901 -0.0797712
v -0.312228 -0.525295 -0.138182
v -0.321376 -0.522771 -0.137756
v -0.328651 -0.520656 -0.137756
v -0.340849 -0.516696 -0.137756
v -0.378988 -0.508389 -0.0942929
v -0.377757 -0.507884 -0.103855
v -0.376376 -0.507282 -0.113536
v -0.374475 -0.506525 -0.123285
v -0.384321 -0.499907 -0.137756
v -0.369648 -0.50573 -0.138949
v -0.364684 -0.508428 -0.13496
v -0.356684 -0.510737 -0.138949
v -0.383419 -0.489542 -0.18057
v -0.399582 -0.48205 -0.181644
v -0.407992 -0.479507 -0.177042
v -0.418125 -0.477333 -0.166765
v -0.427834 -0.471918 -0.166765
v -0.438213 -0.46592 -0.166765
v -0.448032 -0.463164 -0.155737
v -0.451929 -0.459515 -0.160288
v -0.399637 -0.495675 -0.122723
v -0.383268 -0.504856 -0.108712
v -0.398844 -0.497888 -0.10878
v -0.420217 -0.47842 -0.158686
v -0.442849 -0.467259 -0.151442
v -0.427383 -0.475703 -0.153215
v -0.413339 -0.486339 -0.137756
v -0.402837 -0.491541 -0.137756
v -0.395589 -0.494938 -0.137756
v -0.384321 -0.502352 -0.123285
v -0.451929 -0.463552 -0.144266
v -0.45182 -0.465163 -0.137466
v -0.450014 -0.464348 -0.146056
v -0.38268 -0.50998 -0.0489554
v -0.385319 -0.496393 -0.152823
v -0.38082 -0.494744 -0.166765
v -0.378003 -0.493482 -0.17527
v -0.369867 -0.503012 -0.152277
v -0.340849 -0.51392 -0.152277
v -0.353006 -0.509456 -0.152277
v -0.360267 -0.506719 -0.152277
v -0.312228 -0.522655 -0.151953
v -0.312228 -0.523024 -0.150215
v -0.319257 -0.52215 -0.145272
v -0.393169 -0.49387 -0.148357
v -0.3624 -0.507515 -0.14459
v -0.388041 -0.49158 -0.166765
v -0.398844 -0.48665 -0.166765
v -0.410877 -0.480924 -0.166765
v -0.451929 -0.462718 -0.14788
v -0.451929 -0.461301 -0.153521
v -0.390817 -0.492744 -0.158004
v -0.398351 -0.490357 -0.152823
f 1 2 3
f 1 3 7
f 1 7 14
f 1 14 27
f 1 27 48
f 1 48 79
f 1 79 123
f 1 123 122
f 1 122 170
f 1 170 221
f 1 221 252
f 1 252 251
f 1 251 232
f 1 232 177
f 1 177 130
f 1 130 124
f 1 124 81
f 1 81 49
f 1 49 28
f 1 28 15
f 1 15 8
f 1 8 4
f 1 4 9
f 1 9 18
f 1 18 34
f 1 34 55
f 1 55 88
f 1 88 136
f 1 136 183
f 1 183 235
f 1 235 198
f 1 198 197
f 1 197 196
f 1 196 147
f 1 147 98
f 1 98 64
f 1 64 39
f 1 39 21
f 1 21 11
f 1 11 6
f 1 6 2
f 2 5 3
f 2 6 12
f 2 12 24
f 2 24 43
f 2 43 72
f 2 72 103
f 2 103 150
f 2 150 202
f 2 202 244
f 2 244 243
f 2 243 193
f 2 193 192
f 2 192 145
f 2 145 95
f 2 95 60
f 2 60 37
f 2 37 19
f 2 19 10
f 2 10 5
f 3 5 10
f 3 10 20
f 3 20 38
f 3 38 63
f 3 63 94
f 3 94 144
f 3 144 188
f 3 188 161
f 3 161 160
f 3 160 159
f 3 159 111
f 3 111 110
f 3 110 74
f 3 74 73
f 3 73 44
f 3 44 25
f 3 25 13
f 3 13 7
f 4 8 9
f 6 11 12
f 7 13 14
f 8 15 16
f 8 16 9
f 9 16 17
f 9 17 18
f 10 19 20
f 11 21 22
f 11 22 23
f 11 23 12
f 12 23 24
f 13 25 26
f 13 26 14
f 14 26 27
f 15 28 29
f 15 29 30
f 15 30 16
f 16 30 17
f 17 30 31
f 17 31 32
f 17 32 18
f 18 32 33
f 18 33 34
f 19 35 36
f 19 36 20
f 19 37 35
f 20 36 38
f 21 39 22
f 22 39 40
f 22 40 23
f 23 41 24
f 23 40 42
f 23 42 41
f 24 41 43
f 25 44 26
f 26 45 46
f 26 46 47
f 26 47 27
f 26 44 45
f 27 47 48
f 28 49 50
f 28 50 51
f 28 51 29
f 29 51 30
f 30 51 31
f 31 51 52
f 31 52 53
f 31 53 32
f 32 34 33
f 32 53 54
f 32 54 34
f 34 54 55
f 35 37 56
f 35 56 57
f 35 57 58
f 35 58 59
f 35 59 36
f 36 59 38
f 37 60 61
f 37 61 62
f 37 62 56
f 38 59 63
f 39 64 65
f 39 65 40
f 40 65 66
f 40 66 67
f 40 67 42
f 41 68 43
f 41 42 69
f 41 69 68
f 42 67 70
f 42 70 71
f 42 71 69
f 43 68 72
f 44 73 45
f 45 73 74
f 45 74 75
f 45 75 46
f 46 76 47
f 46 75 77
f 46 77 76
f 47 78 79
f 47 79 48
f 47 76 80
f 47 80 78
f 49 81 82
f 49 82 50
f 50 82 83
f 50 83 51
f 51 83 52
f 52 84 53
f 52 83 85
f 52 85 84
f 53 84 86
f 53 86 87
f 53 87 54
f 54 87 55
f 55 87 88
f 56 62 57
f 57 89 90
f 57 90 91
f 57 91 58
f 57 62 92
f 57 92 89
f 58 91 59
f 59 93 94
f 59 94 63
f 59 91 93
f 60 95 61
f 61 95 62
f 62 95 96
f 62 96 97
f 62 97 92
f 64 98 99
f 64 99 65
f 65 99 66
f 66 99 100
f 66 100 101
f 66 101 67
f 67 101 70
f 68 102 103
f 68 103 72
f 68 69 104
f 68 104 105
f 68 105 102
f 69 71 106
f 69 106 104
f 70 101 107
f 70 107 108
f 70 108 71
f 71 108 109
f 71 109 106
f 74 110 75
f 75 111 112
f 75 112 113
f 75 113 114
f 75 114 115
f 75 115 116
f 75 116 117
f 75 117 77
f 75 110 111
f 76 118 80
f 76 77 119
f 76 119 118
f 77 117 120
f 77 120 119
f 78 80 118
f 78 118 121
f 78 121 122
f 78 122 123
f 78 123 79
f 81 124 82
f 82 124 85
f 82 85 83
f 84 125 126
f 84 126 86
f 84 85 127
f 84 127 125
f 85 128 129
f 85 129 127
f 85 124 130
f 85 130 131
f 85 131 128
f 86 126 132
f 86 132 133
f 86 133 87
f 87 134 88
f 87 133 134
f 88 134 133
f 88 133 135
f 88 135 136
f 89 92 137
f 89 137 138
f 89 138 90
f 90 139 140
f 90 140 141
f 90 141 142
f 90 142 93
f 90 93 91
f 90 138 139
f 92 97 143
f 92 143 137
f 93 142 94
f 94 142 144
f 95 145 146
f 95 146 96
f 96 146 97
f 97 146 143
f 98 147 99
f 99 147 100
f 100 147 148
f 100 148 101
f 101 148 149
f 101 149 107
f 102 150 103
f 102 105 150
f 104 106 105
f 105 151 150
f 105 106 152
f 105 152 153
f 105 153 151
f 106 109 152
f 107 149 154
f 107 154 108
f 108 154 155
f 108 155 109
f 109 155 156
f 109 156 157
f 109 157 158
f 109 158 152
f 111 159 112
f 112 159 160
f 112 160 113
f 113 160 161
f 113 161 162
f 113 162 141
f 113 141 140
f 113 140 114
f 114 140 163
f 114 163 115
f 115 163 116
f 116 163 164
f 116 164 165
f 116 165 117
f 117 165 120
f 118 119 166
f 118 166 167
f 118 167 168
f 118 168 121
f 119 120 165
f 119 165 166
f 121 168 169
f 121 169 122
f 122 169 170
f 125 127 171
f 125 171 172
f 125 172 126
f 126 172 132
f 127 129 171
f 128 173 174
f 128 174 175
f 128 175 176
f 128 176 129
f 128 131 130
f 128 130 177
f 128 177 178
f 128 178 173
f 129 176 171
f 132 172 179
f 132 179 180
f 132 180 181
f 132 181 133
f 133 136 135
f 133 181 136
f 136 181 182
f 136 182 183
f 137 184 185
f 137 185 138
f 137 143 184
f 138 185 186
f 138 186 164
f 138 164 139
f 139 164 187
f 139 187 140
f 140 187 163
f 141 162 142
f 142 162 188
f 142 188 144
f 143 189 184
f 143 146 190
f 143 190 191
f 143 191 189
f 145 192 146
f 146 192 193
f 146 193 194
f 146 194 195
f 146 195 190
f 147 196 148
f 148 196 197
f 148 197 198
f 148 198 199
f 148 199 200
f 148 200 149
f 149 200 201
f 149 201 154
f 150 151 153
f 150 153 203
f 150 203 202
f 152 204 153
f 152 158 205
f 152 205 204
f 153 204 203
f 154 201 155
f 155 201 206
f 155 206 156
f 156 206 207
f 156 207 208
f 156 208 157
f 157 208 209
f 157 209 210
f 157 210 211
f 157 211 212
f 157 212 158
f 158 213 205
f 158 212 213
f 161 188 162
f 163 187 164
f 164 186 214
f 164 214 215
f 164 215 165
f 165 215 216
f 165 216 166
f 166 216 217
f 166 217 167
f 167 217 168
f 168 217 218
f 168 218 219
f 168 219 169
f 169 220 221
f 169 221 170
f 169 219 220
f 171 176 175
f 171 175 222
f 171 222 223
f 171 223 224
f 171 224 172
f 172 224 179
f 173 225 174
f 173 178 226
f 173 226 227
f 173 227 225
f 174 225 228
f 174 228 175
f 175 228 229
f 175 229 230
f 175 230 210
f 175 210 231
f 175 231 222
f 177 232 233
f 177 233 178
f 178 233 234
f 178 234 226
f 179 223 207
f 179 207 206
f 179 206 180
f 179 224 223
f 180 206 201
f 180 201 200
f 180 200 181
f 181 200 199
f 181 199 182
f 182 199 183
f 183 199 235
f 184 236 237
f 184 237 238
f 184 238 185
f 184 189 239
f 184 239 236
f 185 238 186
f 186 238 214
f 189 191 239
f 190 195 240
f 190 240 191
f 191 241 242
f 191 242 239
f 191 240 241
f 193 243 194
f 194 243 244
f 194 244 245
f 194 245 195
f 195 245 204
f 195 204 240
f 198 235 199
f 202 203 245
f 202 245 244
f 203 204 245
f 204 205 240
f 205 213 240
f 207 223 208
f 208 223 222
f 208 222 231
f 208 231 209
f 209 231 210
f 210 236 239
f 210 239 211
f 210 230 246
f 210 246 236
f 211 247 212
f 211 239 247
f 212 247 213
f 213 247 241
f 213 241 240
f 214 238 248
f 214 248 215
f 215 248 249
f 215 249 216
f 216 249 250
f 216 250 217
f 217 250 225
f 217 225 218
f 218 220 219
f 218 225 220
f 220 226 234
f 220 234 251
f 220 251 252
f 220 252 221
f 220 225 226
f 225 227 226
f 225 250 253
f 225 253 254
f 225 254 229
f 225 229 228
f 229 246 230
f 229 254 246
f 232 234 233
f 232 251 234
f 236 246 253
f 236 253 237
f 237 253 248
f 237 248 238
f 239 242 247
f 241 247 242
f 246 254 253
f 248 253 249
f 249 253 250
