v -0.312228 -0.413979 -0.223079
v -0.30866 -0.499609 -0.223079
v -0.312228 -0.498661 -0.222978
v -0.312228 -0.457474 -0.0519314
v -0.125331 -0.478143 -0.0519314
v -0.125331 -0.436337 -0.223079
v -0.297318 -0.506476 -0.21497
v -0.295507 -0.503042 -0.223079
v -0.312228 -0.501312 -0.217115
v -0.312228 -0.533339 -0.0656687
v -0.312027 -0.534136 -0.0519314
v -0.125331 -0.552402 -0.0519314
v -0.125331 -0.517422 -0.223079
v -0.297318 -0.509689 -0.207716
v -0.306886 -0.508344 -0.204768
v -0.312228 -0.504471 -0.210112
v -0.289378 -0.507465 -0.217198
v -0.284951 -0.505583 -0.223079
v -0.312228 -0.529397 -0.109176
v -0.312008 -0.532474 -0.0798752
v -0.300117 -0.535509 -0.0797746
v -0.303483 -0.53636 -0.0519314
v -0.130691 -0.552745 -0.0519314
v -0.125331 -0.551674 -0.0651829
v -0.125331 -0.521143 -0.215238
v -0.137789 -0.521597 -0.216243
v -0.137789 -0.518301 -0.223079
v -0.283853 -0.511228 -0.211553
v -0.28281 -0.517641 -0.195788
v -0.297318 -0.514139 -0.195788
v -0.31199 -0.509992 -0.195905
v -0.312228 -0.507506 -0.20264
v -0.282664 -0.506119 -0.223079
v -0.279718 -0.508563 -0.21951
v -0.312228 -0.523039 -0.150204
v -0.312118 -0.527585 -0.1236
v -0.297318 -0.531746 -0.123282
v -0.297318 -0.533463 -0.108791
v -0.312008 -0.531155 -0.0943831
v -0.291354 -0.536951 -0.0903122
v -0.292854 -0.537322 -0.0797746
v -0.29461 -0.537748 -0.0652667
v -0.296202 -0.538105 -0.0519314
v -0.137789 -0.553184 -0.0519314
v -0.125331 -0.55144 -0.0691701
v -0.128221 -0.551275 -0.0749163
v -0.125331 -0.523959 -0.208504
v -0.137789 -0.524536 -0.209006
v -0.152297 -0.52492 -0.209676
v -0.152297 -0.521858 -0.21693
v -0.152297 -0.518877 -0.223079
v -0.268303 -0.515004 -0.210296
v -0.269345 -0.520457 -0.195788
v -0.274907 -0.521995 -0.188099
v -0.28281 -0.521088 -0.185318
v -0.291299 -0.522434 -0.175015
v -0.312008 -0.51484 -0.181381
v -0.296623 -0.519331 -0.180426
v -0.312228 -0.52161 -0.156972
v -0.264443 -0.509978 -0.223079
v -0.268303 -0.509497 -0.222576
v -0.312228 -0.522682 -0.151946
v -0.311149 -0.523176 -0.150974
v -0.297318 -0.529439 -0.137756
v -0.312008 -0.525401 -0.137874
v -0.28281 -0.53279 -0.137756
v -0.282243 -0.535221 -0.123114
v -0.287055 -0.536003 -0.108791
v -0.289415 -0.53647 -0.0999786
v -0.296641 -0.535152 -0.094802
v -0.283871 -0.538269 -0.094802
v -0.28281 -0.539657 -0.0797746
v -0.28281 -0.540398 -0.0652667
v -0.28281 -0.541044 -0.0519314
v -0.152297 -0.553871 -0.0519314
v -0.142692 -0.551262 -0.0893573
v -0.137789 -0.552402 -0.0652667
v -0.125331 -0.550905 -0.0777811
v -0.133014 -0.550987 -0.0845827
v -0.125331 -0.527997 -0.197665
v -0.137789 -0.529397 -0.195788
v -0.152297 -0.530098 -0.195788
v -0.166804 -0.530414 -0.195788
v -0.166804 -0.52503 -0.20976
v -0.166804 -0.521871 -0.216997
v -0.166804 -0.518932 -0.223079
v -0.253795 -0.517614 -0.210296
v -0.253795 -0.521404 -0.200982
v -0.265229 -0.522943 -0.19093
v -0.28281 -0.523368 -0.17808
v -0.269345 -0.52481 -0.182486
v -0.296623 -0.523451 -0.166136
v -0.300995 -0.521212 -0.170558
v -0.268303 -0.529548 -0.166772
v -0.28281 -0.5265 -0.166772
v -0.311679 -0.519454 -0.166152
v -0.305843 -0.522476 -0.160892
v -0.253905 -0.511873 -0.223079
v -0.297318 -0.5265 -0.152264
v -0.28281 -0.529892 -0.152264
v -0.268303 -0.5329 -0.152264
v -0.259283 -0.536306 -0.143117
v -0.268486 -0.535468 -0.138075
v -0.273425 -0.536237 -0.127822
v -0.277011 -0.536924 -0.118139
v -0.27981 -0.537583 -0.108791
v -0.268303 -0.541456 -0.0942826
v -0.268303 -0.542596 -0.0797746
v -0.268303 -0.543337 -0.0652667
v -0.269474 -0.543708 -0.0519314
v -0.167408 -0.554283 -0.0519314
v -0.166804 -0.553569 -0.0652667
v -0.152297 -0.553088 -0.0652667
v -0.137826 -0.55063 -0.0942491
v -0.137826 -0.55155 -0.0797579
v -0.152297 -0.552209 -0.0797746
v -0.152297 -0.551454 -0.090798
v -0.152297 -0.550836 -0.0980688
v -0.125331 -0.550671 -0.0812656
v -0.125331 -0.528683 -0.195788
v -0.143095 -0.536759 -0.174445
v -0.152297 -0.534561 -0.182252
v -0.152297 -0.536937 -0.175015
v -0.166804 -0.534754 -0.182553
v -0.181312 -0.534699 -0.182336
v -0.181312 -0.530194 -0.195788
v -0.181312 -0.524865 -0.209408
v -0.181312 -0.52172 -0.216662
v -0.181312 -0.518658 -0.223079
v -0.178092 -0.518726 -0.223079
v -0.239397 -0.514084 -0.223079
v -0.240257 -0.519921 -0.209643
v -0.245745 -0.522022 -0.202741
v -0.253795 -0.523931 -0.193744
v -0.253795 -0.527942 -0.18128
v -0.253795 -0.532103 -0.166772
v -0.254198 -0.535399 -0.152382
v -0.249642 -0.537184 -0.147607
v -0.254198 -0.53805 -0.138075
v -0.263729 -0.537116 -0.133451
v -0.268486 -0.537789 -0.123114
v -0.268303 -0.539766 -0.108791
v -0.253795 -0.542129 -0.108791
v -0.253795 -0.54379 -0.0942826
v -0.253795 -0.545068 -0.0797746
v -0.253795 -0.546002 -0.0652667
v -0.254381 -0.546647 -0.0519314
v -0.268303 -0.543942 -0.0519314
v -0.181897 -0.554036 -0.0519314
v -0.181312 -0.553432 -0.0652667
v -0.166804 -0.552498 -0.0797746
v -0.137789 -0.54916 -0.108791
v -0.125331 -0.548309 -0.108791
v -0.125331 -0.549696 -0.0942659
v -0.166804 -0.551509 -0.09053
v -0.166804 -0.550726 -0.097784
v -0.166804 -0.549531 -0.108791
v -0.152297 -0.549641 -0.108791
v -0.125331 -0.533463 -0.181113
v -0.133417 -0.536429 -0.173323
v -0.125331 -0.538105 -0.165231
v -0.138064 -0.538228 -0.167811
v -0.152297 -0.539121 -0.166772
v -0.166804 -0.53702 -0.175316
v -0.181312 -0.536951 -0.175115
v -0.192289 -0.536814 -0.174646
v -0.196606 -0.534754 -0.180208
v -0.19582 -0.529507 -0.195788
v -0.19582 -0.524549 -0.208839
v -0.19582 -0.5215 -0.216109
v -0.19582 -0.518204 -0.223079
v -0.237129 -0.514373 -0.223079
v -0.22478 -0.520306 -0.213228
v -0.236086 -0.522668 -0.204366
v -0.240257 -0.524797 -0.197061
v -0.239287 -0.530043 -0.18128
v -0.238318 -0.53452 -0.165549
v -0.242507 -0.536127 -0.157257
v -0.238318 -0.537775 -0.152382
v -0.239287 -0.540453 -0.137756
v -0.253795 -0.540288 -0.123282
v -0.239287 -0.544312 -0.108791
v -0.239287 -0.546043 -0.0942826
v -0.239287 -0.54732 -0.0797746
v -0.239287 -0.548199 -0.0652667
v -0.239287 -0.548968 -0.0519314
v -0.19582 -0.553102 -0.0519314
v -0.181312 -0.552264 -0.0797746
v -0.19582 -0.552443 -0.0652667
v -0.19485 -0.551536 -0.0791715
v -0.137789 -0.547169 -0.123282
v -0.125331 -0.54651 -0.123282
v -0.152297 -0.547677 -0.123282
v -0.181312 -0.55133 -0.0888547
v -0.181312 -0.54916 -0.108791
v -0.166804 -0.547842 -0.123282
v -0.125331 -0.536141 -0.172317
v -0.125331 -0.537748 -0.166538
v -0.125331 -0.541305 -0.152264
v -0.137789 -0.542019 -0.152264
v -0.152297 -0.542472 -0.152264
v -0.166804 -0.542568 -0.152264
v -0.166804 -0.539203 -0.166772
v -0.181312 -0.539039 -0.166772
v -0.196606 -0.538228 -0.168096
v -0.201985 -0.536566 -0.173808
v -0.210327 -0.52845 -0.195788
v -0.210327 -0.524028 -0.207716
v -0.210327 -0.52102 -0.21497
v -0.210327 -0.517229 -0.223079
v -0.22478 -0.515828 -0.223079
v -0.22478 -0.523327 -0.205957
v -0.22478 -0.527131 -0.195788
v -0.22478 -0.531801 -0.18128
v -0.210327 -0.536113 -0.172133
v -0.22478 -0.535248 -0.16895
v -0.22478 -0.537212 -0.161696
v -0.23283 -0.536718 -0.159887
v -0.22478 -0.539464 -0.152264
v -0.22478 -0.542211 -0.137756
v -0.22478 -0.544285 -0.123282
v -0.239287 -0.542472 -0.123282
v -0.22478 -0.546221 -0.108791
v -0.22478 -0.547897 -0.0942826
v -0.22478 -0.549037 -0.0797746
v -0.22478 -0.54982 -0.0652667
v -0.224304 -0.55052 -0.0519314
v -0.210894 -0.551742 -0.0519314
v -0.216566 -0.551042 -0.0560861
v -0.206796 -0.551468 -0.0652667
v -0.18938 -0.551179 -0.0874977
v -0.204199 -0.551234 -0.0739446
v -0.199058 -0.550877 -0.083611
v -0.137789 -0.544862 -0.137756
v -0.125331 -0.544216 -0.137756
v -0.166804 -0.545535 -0.137756
v -0.152297 -0.545301 -0.137756
v -0.19582 -0.548597 -0.108791
v -0.181312 -0.547471 -0.123282
v -0.181312 -0.545205 -0.137756
v -0.125331 -0.543804 -0.139834
v -0.181312 -0.542321 -0.152264
v -0.19582 -0.541758 -0.152264
v -0.210327 -0.540838 -0.152264
v -0.210327 -0.537967 -0.164862
v -0.222255 -0.516089 -0.223079
v -0.210327 -0.543475 -0.137756
v -0.210327 -0.545686 -0.123282
v -0.210327 -0.547691 -0.108791
v -0.210327 -0.549202 -0.0942826
v -0.209559 -0.550396 -0.0791715
v -0.214041 -0.550808 -0.0652667
v -0.222896 -0.550657 -0.0519314
v -0.19485 -0.5503 -0.0931099
v -0.19582 -0.546688 -0.123282
v -0.19582 -0.544395 -0.137756
f 1 2 3
f 1 3 9
f 1 9 16
f 1 16 32
f 1 32 59
f 1 59 62
f 1 62 35
f 1 35 19
f 1 19 10
f 1 10 4
f 1 4 5
f 1 5 6
f 1 6 13
f 1 13 27
f 1 27 51
f 1 51 86
f 1 86 130
f 1 130 129
f 1 129 171
f 1 171 210
f 1 210 246
f 1 246 211
f 1 211 172
f 1 172 131
f 1 131 98
f 1 98 60
f 1 60 33
f 1 33 18
f 1 18 8
f 1 8 2
f 2 7 3
f 2 8 7
f 3 7 9
f 4 10 11
f 4 11 22
f 4 22 43
f 4 43 74
f 4 74 110
f 4 110 148
f 4 148 147
f 4 147 186
f 4 186 227
f 4 227 253
f 4 253 228
f 4 228 187
f 4 187 149
f 4 149 111
f 4 111 75
f 4 75 44
f 4 44 23
f 4 23 12
f 4 12 5
f 5 12 24
f 5 24 45
f 5 45 78
f 5 78 119
f 5 119 154
f 5 154 153
f 5 153 192
f 5 192 235
f 5 235 241
f 5 241 199
f 5 199 161
f 5 161 198
f 5 198 197
f 5 197 159
f 5 159 120
f 5 120 80
f 5 80 47
f 5 47 25
f 5 25 13
f 5 13 6
f 7 14 15
f 7 15 16
f 7 16 9
f 7 8 17
f 7 17 14
f 8 18 17
f 10 19 20
f 10 20 21
f 10 21 22
f 10 22 11
f 12 23 24
f 13 25 26
f 13 26 27
f 14 17 28
f 14 28 29
f 14 29 30
f 14 30 15
f 15 30 31
f 15 31 32
f 15 32 16
f 17 18 33
f 17 33 34
f 17 34 28
f 19 35 36
f 19 36 37
f 19 37 38
f 19 38 39
f 19 39 20
f 20 39 40
f 20 40 21
f 21 40 41
f 21 41 22
f 22 41 42
f 22 42 43
f 23 44 24
f 24 44 46
f 24 46 45
f 25 47 26
f 26 47 48
f 26 48 49
f 26 49 50
f 26 50 27
f 27 50 51
f 28 34 52
f 28 52 29
f 29 52 53
f 29 53 54
f 29 54 55
f 29 55 56
f 29 56 30
f 30 57 31
f 30 56 58
f 30 58 57
f 31 57 32
f 32 57 59
f 33 60 61
f 33 61 34
f 34 61 52
f 35 62 63
f 35 63 64
f 35 64 65
f 35 65 36
f 36 65 37
f 37 65 64
f 37 64 66
f 37 66 67
f 37 67 68
f 37 68 69
f 37 69 38
f 38 69 70
f 38 70 39
f 39 70 40
f 40 69 71
f 40 71 72
f 40 72 41
f 40 70 69
f 41 72 42
f 42 72 43
f 43 72 73
f 43 73 74
f 44 75 76
f 44 76 77
f 44 77 46
f 45 46 78
f 46 77 79
f 46 79 78
f 47 80 48
f 48 80 81
f 48 81 82
f 48 82 49
f 49 82 83
f 49 83 84
f 49 84 50
f 50 84 85
f 50 85 86
f 50 86 51
f 52 61 60
f 52 60 87
f 52 87 88
f 52 88 53
f 53 88 89
f 53 89 54
f 54 90 56
f 54 56 55
f 54 89 91
f 54 91 90
f 56 92 93
f 56 93 58
f 56 90 94
f 56 94 95
f 56 95 92
f 57 58 93
f 57 93 96
f 57 96 59
f 59 96 97
f 59 97 62
f 60 98 87
f 62 97 63
f 63 97 99
f 63 99 64
f 64 99 100
f 64 100 66
f 66 100 101
f 66 101 102
f 66 102 103
f 66 103 104
f 66 104 67
f 67 104 105
f 67 105 106
f 67 106 68
f 68 106 71
f 68 71 69
f 71 106 107
f 71 107 108
f 71 108 72
f 72 108 109
f 72 109 73
f 73 109 74
f 74 109 110
f 75 111 112
f 75 112 113
f 75 113 76
f 76 114 79
f 76 79 115
f 76 115 77
f 76 113 116
f 76 116 117
f 76 117 118
f 76 118 114
f 77 115 79
f 78 79 119
f 79 114 119
f 80 120 81
f 81 121 82
f 81 120 121
f 82 121 122
f 82 122 83
f 83 122 123
f 83 123 124
f 83 124 125
f 83 125 126
f 83 126 84
f 84 126 127
f 84 127 128
f 84 128 85
f 85 128 129
f 85 129 130
f 85 130 86
f 87 98 131
f 87 131 132
f 87 132 133
f 87 133 88
f 88 133 134
f 88 134 89
f 89 134 135
f 89 135 91
f 90 91 94
f 91 135 94
f 92 95 100
f 92 100 99
f 92 99 97
f 92 97 93
f 93 97 96
f 94 101 100
f 94 100 95
f 94 135 136
f 94 136 137
f 94 137 101
f 101 137 138
f 101 138 102
f 102 139 140
f 102 140 103
f 102 138 139
f 103 140 104
f 104 140 141
f 104 141 105
f 105 141 142
f 105 142 106
f 106 142 107
f 107 142 143
f 107 143 144
f 107 144 145
f 107 145 108
f 108 145 146
f 108 146 147
f 108 147 109
f 109 148 110
f 109 147 148
f 111 149 150
f 111 150 112
f 112 151 117
f 112 117 116
f 112 116 113
f 112 150 151
f 114 118 152
f 114 152 153
f 114 153 154
f 114 154 119
f 117 151 118
f 118 151 155
f 118 155 156
f 118 156 157
f 118 157 158
f 118 158 152
f 120 159 121
f 121 159 160
f 121 160 161
f 121 161 162
f 121 162 163
f 121 163 123
f 121 123 122
f 123 163 164
f 123 164 124
f 124 164 125
f 125 164 165
f 125 165 166
f 125 166 126
f 126 166 167
f 126 167 168
f 126 168 169
f 126 169 127
f 127 169 170
f 127 170 128
f 128 170 171
f 128 171 129
f 131 172 173
f 131 173 132
f 132 173 174
f 132 174 133
f 133 174 175
f 133 175 134
f 134 175 176
f 134 176 135
f 135 176 136
f 136 176 177
f 136 177 178
f 136 178 137
f 137 178 138
f 138 178 179
f 138 179 180
f 138 180 139
f 139 181 140
f 139 180 181
f 140 181 141
f 141 181 142
f 142 181 143
f 143 181 222
f 143 222 182
f 143 182 183
f 143 183 144
f 144 183 184
f 144 184 145
f 145 184 146
f 146 184 185
f 146 185 186
f 146 186 147
f 149 187 150
f 150 188 151
f 150 187 189
f 150 189 190
f 150 190 188
f 151 188 155
f 152 191 192
f 152 192 153
f 152 158 193
f 152 193 191
f 155 188 194
f 155 194 156
f 156 194 157
f 157 194 195
f 157 195 239
f 157 239 196
f 157 196 158
f 158 196 193
f 159 197 160
f 160 197 198
f 160 198 161
f 161 199 162
f 162 199 200
f 162 200 163
f 163 200 201
f 163 201 202
f 163 202 203
f 163 203 164
f 164 203 165
f 165 203 204
f 165 204 166
f 166 204 205
f 166 205 206
f 166 206 167
f 167 206 168
f 168 206 207
f 168 207 208
f 168 208 169
f 169 208 209
f 169 209 170
f 170 209 210
f 170 210 171
f 172 211 173
f 173 212 174
f 173 211 209
f 173 209 212
f 174 212 213
f 174 213 175
f 175 213 176
f 176 213 214
f 176 214 215
f 176 215 216
f 176 216 177
f 177 216 217
f 177 217 218
f 177 218 178
f 178 218 179
f 179 218 219
f 179 219 180
f 180 219 220
f 180 220 221
f 180 221 222
f 180 222 181
f 182 222 223
f 182 223 183
f 183 223 224
f 183 224 184
f 184 224 225
f 184 225 185
f 185 225 186
f 186 225 226
f 186 226 227
f 187 228 229
f 187 229 230
f 187 230 189
f 188 190 231
f 188 231 194
f 189 230 232
f 189 232 190
f 190 232 233
f 190 233 231
f 191 193 234
f 191 234 235
f 191 235 192
f 193 196 236
f 193 236 237
f 193 237 234
f 194 231 195
f 195 231 238
f 195 238 239
f 196 239 240
f 196 240 236
f 199 241 200
f 200 241 235
f 200 235 234
f 200 234 201
f 201 237 236
f 201 236 202
f 201 234 237
f 202 242 204
f 202 204 203
f 202 236 242
f 204 242 205
f 205 243 244
f 205 244 206
f 205 242 243
f 206 244 245
f 206 245 215
f 206 215 214
f 206 214 213
f 206 213 207
f 207 213 208
f 208 213 212
f 208 212 209
f 209 211 246
f 209 246 210
f 215 245 217
f 215 217 216
f 217 245 219
f 217 219 218
f 219 245 244
f 219 244 220
f 220 244 247
f 220 247 248
f 220 248 221
f 221 248 249
f 221 249 223
f 221 223 222
f 223 249 224
f 224 249 250
f 224 250 225
f 225 250 251
f 225 251 232
f 225 232 252
f 225 252 226
f 226 252 229
f 226 229 253
f 226 253 227
f 228 253 229
f 229 252 230
f 230 252 232
f 231 233 250
f 231 250 254
f 231 254 238
f 232 251 250
f 232 250 233
f 236 240 242
f 238 254 249
f 238 249 255
f 238 255 239
f 239 255 240
f 240 255 256
f 240 256 243
f 240 243 242
f 243 256 247
f 243 247 244
f 247 256 255
f 247 255 248
f 248 255 249
f 249 254 250
