v -0.125331 -0.222525 -0.325201
v -0.125331 -0.372287 -0.287764
v -0.125331 -0.222525 -0.385299
v -0.477562 -0.222525 -0.287764
v -0.342668 -0.443113 -0.287764
v -0.283909 -0.462169 -0.287855
v -0.125331 -0.470183 -0.291009
v -0.125331 -0.282869 -0.412924
v -0.359637 -0.222525 -0.420781
v -0.385318 -0.222525 -0.415543
v -0.588862 -0.222549 -0.290696
v -0.578789 -0.245881 -0.288051
v -0.562046 -0.270727 -0.287764
v -0.340898 -0.438398 -0.293289
v -0.330235 -0.447804 -0.287907
v -0.369211 -0.431948 -0.287764
v -0.35569 -0.435832 -0.28994
v -0.318756 -0.451371 -0.288364
v -0.29734 -0.452861 -0.293341
v -0.282866 -0.454986 -0.295322
v -0.271659 -0.464392 -0.288637
v -0.243028 -0.46879 -0.288898
v -0.125331 -0.460239 -0.300977
v -0.137808 -0.471258 -0.290983
v -0.125331 -0.297333 -0.416703
v -0.278828 -0.276151 -0.420703
v -0.317712 -0.261297 -0.42086
v -0.363721 -0.232883 -0.420886
v -0.372296 -0.224406 -0.420364
v -0.479377 -0.290932 -0.334036
v -0.484867 -0.281648 -0.335652
v -0.495076 -0.272169 -0.334662
v -0.505557 -0.264473 -0.332459
v -0.510956 -0.250938 -0.335509
v -0.514995 -0.223404 -0.343783
v -0.556284 -0.223355 -0.318217
v -0.573072 -0.223673 -0.304417
v -0.581602 -0.234789 -0.291478
v -0.572709 -0.239089 -0.297224
v -0.558553 -0.254871 -0.300665
v -0.568852 -0.256777 -0.290566
v -0.55279 -0.277934 -0.291595
v -0.549251 -0.288269 -0.287921
v -0.515857 -0.327383 -0.287764
v -0.340898 -0.427111 -0.30387
v -0.325017 -0.442771 -0.29467
v -0.355644 -0.427966 -0.297459
v -0.369801 -0.425034 -0.294266
v -0.398386 -0.417314 -0.287764
v -0.385681 -0.422469 -0.289211
v -0.29734 -0.445385 -0.300586
v -0.282866 -0.44387 -0.305877
v -0.269753 -0.446093 -0.306672
v -0.258047 -0.450222 -0.305186
v -0.253873 -0.457845 -0.298332
v -0.257684 -0.465394 -0.290071
v -0.239353 -0.459018 -0.299505
v -0.224834 -0.469792 -0.290514
v -0.211176 -0.470622 -0.290878
v -0.196385 -0.471306 -0.2911
v -0.181684 -0.471771 -0.291178
v -0.167074 -0.472064 -0.291204
v -0.152645 -0.47199 -0.291152
v -0.125331 -0.452397 -0.308196
v -0.137808 -0.460777 -0.301433
v -0.137808 -0.453521 -0.308222
v -0.125331 -0.312675 -0.410605
v -0.137808 -0.311845 -0.412481
v -0.152328 -0.311845 -0.41325
v -0.137808 -0.297333 -0.417068
v -0.29126 -0.275784 -0.420638
v -0.152328 -0.297333 -0.417459
v -0.166847 -0.297333 -0.417641
v -0.224834 -0.297333 -0.418071
v -0.348294 -0.246687 -0.420638
v -0.357913 -0.242558 -0.41854
v -0.449975 -0.319467 -0.333802
v -0.464721 -0.305224 -0.333919
v -0.472344 -0.298505 -0.333619
v -0.471572 -0.312089 -0.326583
v -0.483324 -0.309328 -0.321839
v -0.486183 -0.297748 -0.326609
v -0.497662 -0.294865 -0.321709
v -0.489041 -0.285655 -0.331365
v -0.500384 -0.282894 -0.326387
v -0.511365 -0.280109 -0.321409
v -0.515403 -0.254993 -0.331026
v -0.524931 -0.238991 -0.332186
v -0.531964 -0.223844 -0.334023
v -0.543852 -0.223551 -0.326596
v -0.549342 -0.2354 -0.317852
v -0.563771 -0.237379 -0.305707
v -0.553879 -0.250742 -0.306776
v -0.54916 -0.264375 -0.30301
v -0.557872 -0.26716 -0.293836
v -0.543307 -0.282112 -0.296938
v -0.539632 -0.293912 -0.292625
v -0.534777 -0.30603 -0.288155
v -0.512045 -0.323791 -0.293589
v -0.507417 -0.333442 -0.289966
v -0.501383 -0.341895 -0.287764
v -0.525249 -0.31292 -0.290931
v -0.340898 -0.414822 -0.314438
v -0.326379 -0.426158 -0.309512
v -0.322295 -0.434098 -0.303675
v -0.350381 -0.42154 -0.305473
v -0.308547 -0.43637 -0.30576
v -0.36 -0.419366 -0.303583
v -0.369801 -0.413356 -0.304587
v -0.389175 -0.404854 -0.303544
v -0.44512 -0.388558 -0.287764
v -0.419847 -0.404634 -0.288038
v -0.40982 -0.408958 -0.289693
v -0.398794 -0.410375 -0.294071
v -0.29734 -0.438153 -0.307388
v -0.282866 -0.428137 -0.319285
v -0.268347 -0.429749 -0.320562
v -0.253419 -0.441085 -0.313773
v -0.239353 -0.451762 -0.306633
v -0.224834 -0.459897 -0.300508
v -0.21036 -0.460703 -0.301225
v -0.19584 -0.461168 -0.301668
v -0.181366 -0.461241 -0.301837
v -0.166847 -0.457576 -0.305251
v -0.152328 -0.457478 -0.30516
v -0.125331 -0.444603 -0.314933
v -0.152328 -0.44216 -0.318842
v -0.137808 -0.441598 -0.318412
v -0.125331 -0.436712 -0.321396
v -0.127191 -0.422835 -0.332055
v -0.137808 -0.424912 -0.331352
v -0.152328 -0.428943 -0.32915
v -0.166847 -0.429065 -0.329423
v -0.166847 -0.311845 -0.41338
v -0.282866 -0.283676 -0.418397
v -0.311905 -0.280744 -0.411608
v -0.239353 -0.297333 -0.417524
v -0.181366 -0.311845 -0.413106
v -0.391807 -0.36271 -0.333697
v -0.401471 -0.359436 -0.331717
v -0.418168 -0.346439 -0.332616
v -0.429103 -0.341284 -0.330987
v -0.438541 -0.331732 -0.332512
v -0.453786 -0.337351 -0.321357
v -0.456736 -0.326259 -0.326335
v -0.468759 -0.323425 -0.321657
v -0.459639 -0.314874 -0.331326
v -0.478469 -0.318979 -0.319025
v -0.493034 -0.304515 -0.319051
v -0.507281 -0.289783 -0.318921
v -0.51563 -0.284091 -0.316367
v -0.52543 -0.268455 -0.318113
v -0.534777 -0.251891 -0.320041
v -0.540766 -0.239333 -0.321813
v -0.544169 -0.254285 -0.312171
v -0.538951 -0.272486 -0.306372
v -0.531147 -0.28414 -0.305225
v -0.529695 -0.297821 -0.297707
v -0.509958 -0.307374 -0.306281
v -0.503152 -0.314557 -0.306437
v -0.5017 -0.327725 -0.298397
v -0.519623 -0.301755 -0.302789
v -0.497753 -0.338059 -0.29355
v -0.492671 -0.347685 -0.289771
v -0.485593 -0.356456 -0.287764
v -0.344528 -0.406833 -0.319637
v -0.326379 -0.413967 -0.319481
v -0.309863 -0.418926 -0.320119
v -0.312222 -0.427941 -0.311988
v -0.355871 -0.401458 -0.319872
v -0.369801 -0.401018 -0.314907
v -0.379465 -0.407321 -0.305629
v -0.373657 -0.392785 -0.320015
v -0.398794 -0.402289 -0.301316
v -0.398794 -0.395033 -0.307362
v -0.46277 -0.375341 -0.287973
v -0.453423 -0.380423 -0.28981
v -0.441263 -0.384087 -0.294045
v -0.430782 -0.394959 -0.290631
v -0.413041 -0.398697 -0.29729
v -0.29734 -0.426109 -0.317617
v -0.268347 -0.412818 -0.333137
v -0.253873 -0.418095 -0.331821
v -0.298338 -0.408347 -0.330557
v -0.284817 -0.410693 -0.33173
v -0.252012 -0.433536 -0.320237
v -0.239353 -0.439766 -0.316901
v -0.224834 -0.440743 -0.317735
v -0.224834 -0.452641 -0.307427
v -0.21036 -0.453447 -0.308092
v -0.19584 -0.453911 -0.308509
v -0.181366 -0.453985 -0.308626
v -0.166847 -0.442404 -0.319025
v -0.181366 -0.442331 -0.318973
v -0.181366 -0.429041 -0.329319
v -0.253873 -0.297333 -0.415608
v -0.26821 -0.298285 -0.411908
v -0.282866 -0.294523 -0.411152
v -0.33019 -0.392394 -0.334166
v -0.34362 -0.389511 -0.332277
v -0.355372 -0.386677 -0.330492
v -0.363267 -0.377418 -0.333828
v -0.372886 -0.37495 -0.33229
v -0.21036 -0.311258 -0.41196
v -0.224834 -0.310134 -0.411543
v -0.239353 -0.308693 -0.410605
v -0.19584 -0.425205 -0.331678
v -0.220206 -0.420783 -0.333736
v -0.38432 -0.371945 -0.330231
v -0.383095 -0.384234 -0.322322
v -0.398386 -0.369551 -0.326244
v -0.421934 -0.363492 -0.319754
v -0.413313 -0.354892 -0.329371
v -0.438541 -0.35047 -0.320706
v -0.44816 -0.34705 -0.318438
v -0.463496 -0.333075 -0.318777
v -0.472707 -0.327505 -0.316927
v -0.481282 -0.33608 -0.306229
v -0.488497 -0.329142 -0.306385
v -0.495983 -0.321984 -0.306463
v -0.487226 -0.313237 -0.31724
v -0.514813 -0.297064 -0.309134
v -0.523752 -0.29208 -0.305825
v -0.486999 -0.341895 -0.298228
v -0.482961 -0.352083 -0.293263
v -0.476972 -0.363248 -0.288585
v -0.339673 -0.397451 -0.32786
v -0.326379 -0.400359 -0.329449
v -0.311905 -0.402826 -0.3313
v -0.387133 -0.388998 -0.317161
v -0.368757 -0.383086 -0.328329
v -0.411408 -0.389804 -0.305655
v -0.467943 -0.365691 -0.292703
v -0.456373 -0.369429 -0.297107
v -0.438269 -0.375121 -0.303075
v -0.428786 -0.384527 -0.300717
v -0.234634 -0.420026 -0.333202
v -0.239353 -0.427843 -0.326504
v -0.21036 -0.441549 -0.318386
v -0.19584 -0.442062 -0.31879
v -0.21036 -0.424765 -0.331339
v -0.401199 -0.379079 -0.318295
v -0.413313 -0.370015 -0.319207
v -0.424566 -0.379836 -0.306593
v -0.431599 -0.360145 -0.317422
v -0.427152 -0.355308 -0.322765
v -0.442942 -0.355308 -0.315207
v -0.446572 -0.364982 -0.306398
v -0.458278 -0.357335 -0.305356
v -0.466309 -0.349957 -0.305955
v -0.457915 -0.341675 -0.316406
v -0.471209 -0.340893 -0.309082
v -0.475928 -0.345731 -0.302932
v -0.471981 -0.355845 -0.297811
f 1 2 7
f 1 7 23
f 1 23 64
f 1 64 126
f 1 126 129
f 1 129 67
f 1 67 25
f 1 25 8
f 1 8 3
f 1 3 9
f 1 9 10
f 1 10 4
f 1 4 2
f 2 5 6
f 2 6 7
f 2 4 13
f 2 13 44
f 2 44 101
f 2 101 165
f 2 165 111
f 2 111 49
f 2 49 16
f 2 16 5
f 3 8 9
f 4 10 11
f 4 11 12
f 4 12 13
f 5 14 15
f 5 15 6
f 5 16 17
f 5 17 14
f 6 15 18
f 6 18 19
f 6 19 20
f 6 20 21
f 6 21 22
f 6 22 7
f 7 22 24
f 7 24 23
f 8 25 9
f 9 25 26
f 9 26 27
f 9 27 28
f 9 28 29
f 9 29 10
f 10 30 31
f 10 31 32
f 10 32 33
f 10 33 34
f 10 34 35
f 10 35 36
f 10 36 11
f 10 29 28
f 10 28 30
f 11 36 37
f 11 37 38
f 11 38 12
f 12 38 39
f 12 39 40
f 12 40 41
f 12 41 13
f 13 41 42
f 13 42 43
f 13 43 44
f 14 45 46
f 14 46 15
f 14 17 47
f 14 47 45
f 15 46 18
f 16 48 17
f 16 49 50
f 16 50 48
f 17 48 47
f 18 51 19
f 18 46 51
f 19 51 20
f 20 51 52
f 20 52 53
f 20 53 54
f 20 54 21
f 21 54 55
f 21 55 56
f 21 56 22
f 22 57 58
f 22 58 59
f 22 59 60
f 22 60 61
f 22 61 62
f 22 62 63
f 22 63 24
f 22 56 57
f 23 24 65
f 23 65 66
f 23 66 64
f 24 63 65
f 25 67 68
f 25 68 69
f 25 69 70
f 25 70 26
f 26 71 27
f 26 70 72
f 26 72 73
f 26 73 74
f 26 74 71
f 27 71 75
f 27 75 28
f 28 75 76
f 28 76 77
f 28 77 78
f 28 78 79
f 28 79 30
f 30 79 80
f 30 80 81
f 30 81 82
f 30 82 83
f 30 83 84
f 30 84 31
f 31 84 32
f 32 84 85
f 32 85 33
f 33 86 87
f 33 87 34
f 33 85 86
f 34 87 88
f 34 88 89
f 34 89 35
f 35 89 90
f 35 90 36
f 36 91 92
f 36 92 37
f 36 90 91
f 37 92 39
f 37 39 38
f 39 92 40
f 40 93 94
f 40 94 95
f 40 95 41
f 40 92 93
f 41 95 42
f 42 94 96
f 42 96 97
f 42 97 43
f 42 95 94
f 43 98 44
f 43 97 98
f 44 99 100
f 44 100 101
f 44 98 102
f 44 102 99
f 45 103 104
f 45 104 105
f 45 105 46
f 45 47 106
f 45 106 103
f 46 105 107
f 46 107 51
f 47 48 108
f 47 108 106
f 48 109 108
f 48 50 110
f 48 110 109
f 49 111 112
f 49 112 113
f 49 113 114
f 49 114 50
f 50 114 110
f 51 107 115
f 51 115 52
f 52 116 53
f 52 115 116
f 53 116 117
f 53 117 118
f 53 118 54
f 54 118 119
f 54 119 57
f 54 57 55
f 55 57 56
f 57 119 120
f 57 120 58
f 58 120 121
f 58 121 59
f 59 121 122
f 59 122 60
f 60 122 61
f 61 122 62
f 62 122 123
f 62 123 63
f 63 123 124
f 63 124 125
f 63 125 65
f 64 66 126
f 65 125 66
f 66 125 127
f 66 127 128
f 66 128 126
f 67 129 130
f 67 130 68
f 68 130 131
f 68 131 69
f 69 132 133
f 69 133 134
f 69 134 73
f 69 73 72
f 69 72 70
f 69 131 132
f 71 135 136
f 71 136 75
f 71 74 137
f 71 137 135
f 73 134 74
f 74 134 138
f 74 138 137
f 75 136 139
f 75 139 140
f 75 140 141
f 75 141 142
f 75 142 143
f 75 143 76
f 76 143 77
f 77 143 144
f 77 144 145
f 77 145 146
f 77 146 147
f 77 147 78
f 78 147 79
f 79 147 80
f 80 146 148
f 80 148 81
f 80 147 146
f 81 149 82
f 81 148 149
f 82 149 83
f 83 149 150
f 83 150 84
f 84 150 85
f 85 150 86
f 86 151 152
f 86 152 87
f 86 150 151
f 87 152 153
f 87 153 88
f 88 153 154
f 88 154 90
f 88 90 89
f 90 154 91
f 91 93 92
f 91 154 153
f 91 153 155
f 91 155 93
f 93 155 156
f 93 156 94
f 94 156 96
f 96 156 97
f 97 156 157
f 97 157 158
f 97 158 102
f 97 102 98
f 99 159 160
f 99 160 161
f 99 161 100
f 99 102 162
f 99 162 159
f 100 161 163
f 100 163 164
f 100 164 101
f 101 164 165
f 102 158 162
f 103 106 166
f 103 166 167
f 103 167 104
f 104 167 168
f 104 168 169
f 104 169 107
f 104 107 105
f 106 108 170
f 106 170 166
f 107 169 115
f 108 109 171
f 108 171 170
f 109 110 172
f 109 172 171
f 110 173 171
f 110 171 172
f 110 114 174
f 110 174 175
f 110 175 173
f 111 176 177
f 111 177 178
f 111 178 179
f 111 179 112
f 111 165 176
f 112 179 180
f 112 180 113
f 113 180 114
f 114 180 174
f 115 169 181
f 115 181 116
f 116 182 183
f 116 183 117
f 116 181 184
f 116 184 185
f 116 185 182
f 117 183 186
f 117 186 118
f 118 186 187
f 118 187 119
f 119 187 188
f 119 188 189
f 119 189 120
f 120 189 121
f 121 189 190
f 121 190 122
f 122 190 191
f 122 191 123
f 123 191 192
f 123 192 124
f 124 193 125
f 124 192 193
f 125 193 127
f 126 128 129
f 127 193 132
f 127 132 128
f 128 131 129
f 128 132 131
f 129 131 130
f 132 193 133
f 133 193 194
f 133 194 195
f 133 195 134
f 134 195 138
f 135 137 196
f 135 196 197
f 135 197 198
f 135 198 199
f 135 199 200
f 135 200 136
f 136 200 201
f 136 201 202
f 136 202 203
f 136 203 139
f 137 138 204
f 137 204 205
f 137 205 206
f 137 206 196
f 138 195 207
f 138 207 208
f 138 208 204
f 139 209 210
f 139 210 211
f 139 211 140
f 139 203 209
f 140 211 212
f 140 212 213
f 140 213 141
f 141 213 142
f 142 213 214
f 142 214 215
f 142 215 143
f 143 215 144
f 144 215 216
f 144 216 145
f 145 216 146
f 146 216 148
f 148 216 217
f 148 217 218
f 148 218 219
f 148 219 220
f 148 220 221
f 148 221 149
f 149 220 160
f 149 160 150
f 149 221 220
f 150 160 159
f 150 159 222
f 150 222 223
f 150 223 151
f 151 223 157
f 151 157 156
f 151 156 152
f 152 156 155
f 152 155 153
f 157 223 158
f 158 223 162
f 159 162 223
f 159 223 222
f 160 220 161
f 161 220 224
f 161 224 163
f 163 224 164
f 164 224 225
f 164 225 226
f 164 226 165
f 165 226 176
f 166 170 200
f 166 200 227
f 166 227 228
f 166 228 167
f 167 228 168
f 168 228 229
f 168 229 184
f 168 184 181
f 168 181 169
f 170 201 200
f 170 171 173
f 170 173 201
f 173 175 230
f 173 230 210
f 173 210 209
f 173 209 231
f 173 231 201
f 174 180 232
f 174 232 175
f 175 232 230
f 176 226 233
f 176 233 177
f 177 233 234
f 177 234 178
f 178 234 235
f 178 235 236
f 178 236 179
f 179 236 180
f 180 236 232
f 182 185 206
f 182 206 183
f 183 206 237
f 183 237 238
f 183 238 186
f 184 229 197
f 184 197 196
f 184 196 185
f 185 196 206
f 186 238 187
f 187 238 188
f 188 238 237
f 188 237 239
f 188 239 190
f 188 190 189
f 190 239 240
f 190 240 191
f 191 240 194
f 191 194 192
f 192 194 193
f 194 240 195
f 195 240 207
f 197 229 198
f 198 229 199
f 199 228 227
f 199 227 200
f 199 229 228
f 201 231 203
f 201 203 202
f 203 231 209
f 204 208 237
f 204 237 205
f 205 237 206
f 207 240 241
f 207 241 208
f 208 241 239
f 208 239 237
f 210 230 242
f 210 242 211
f 211 242 243
f 211 243 212
f 212 243 244
f 212 244 245
f 212 245 214
f 212 214 246
f 212 246 213
f 213 246 214
f 214 245 215
f 215 245 247
f 215 247 248
f 215 248 249
f 215 249 250
f 215 250 251
f 215 251 216
f 216 252 218
f 216 218 217
f 216 251 252
f 218 252 250
f 218 250 253
f 218 253 219
f 219 224 220
f 219 253 224
f 224 253 225
f 225 253 254
f 225 254 226
f 226 254 233
f 230 232 242
f 232 236 244
f 232 244 243
f 232 243 242
f 233 254 249
f 233 249 234
f 234 249 248
f 234 248 235
f 235 244 236
f 235 248 244
f 239 241 240
f 244 248 245
f 245 248 247
f 249 254 250
f 250 254 253
f 250 252 251
