v -0.651984 0.00057724 -0.0645414
v -0.726693 0.00391457 -0.0395695
v -0.725645 0.00577083 -0.0553804
v -0.723486 0.0366361 -0.0645414
v -0.707233 0.137704 -0.0645414
v -0.696865 0.172933 -0.0641694
v -0.606989 0.202258 -0.0586356
v -0.648953 0.00057724 0.162903
v -0.730823 0.00057724 0.0507853
v -0.727906 0.00391457 -0.0178062
v -0.726592 0.0217663 -0.0362213
v -0.72509 0.0212726 -0.057473
v -0.725014 0.0342072 -0.0482655
v -0.724989 0.0445746 -0.0373839
v -0.72216 0.0582201 -0.0576125
v -0.718207 0.0872292 -0.0576125
v -0.710681 0.123407 -0.0645414
v -0.703861 0.152277 -0.0576125
v -0.711388 0.128857 -0.0388254
v -0.700414 0.166792 -0.0434757
v -0.69564 0.179766 -0.0507301
v -0.687609 0.199079 -0.0575195
v -0.691347 0.202318 0.02107
v -0.604186 0.202318 0.156811
v -0.603971 0.202318 0.175552
v -0.603782 0.202318 0.195781
v -0.648865 0.00057724 0.188526
v -0.732578 0.00225578 0.169042
v -0.732187 0.00225578 0.126399
v -0.731858 0.00225578 0.0982645
v -0.731429 0.00391457 0.0725485
v -0.730899 0.00725189 0.0507853
v -0.730154 0.00391457 0.0290685
v -0.729118 0.00391457 0.00563115
v -0.732553 0.00057724 0.253723
v -0.727754 0.0217663 -0.014458
v -0.729156 0.0217663 0.0145132
v -0.729194 0.043528 0.0507853
v -0.724433 0.0607478 -0.0196198
v -0.722993 0.06527 -0.0362213
v -0.72115 0.0797844 -0.0362213
v -0.714419 0.108774 -0.0576125
v -0.718864 0.094279 -0.0362213
v -0.705844 0.152277 -0.0289669
v -0.715985 0.108774 -0.0362213
v -0.712158 0.130239 -0.0217124
v -0.702321 0.166792 -0.014458
v -0.696461 0.182195 -0.0289669
v -0.689692 0.199039 -0.0362213
v -0.691082 0.199039 -0.0128304
v -0.696941 0.185986 0.00330602
v -0.69218 0.202318 0.0419497
v -0.604224 0.202318 0.216242
v -0.64961 0.00057724 0.217544
v -0.732692 0.0055931 0.186806
v -0.732452 0.00391457 0.148999
v -0.732717 0.00391457 0.206895
v -0.731934 0.0217663 0.123329
v -0.730949 0.0290136 0.0725485
v -0.730381 0.0217663 0.0435308
v -0.732364 0.00057724 0.282787
v -0.732515 0.00391457 0.268278
v -0.732654 0.00725189 0.253723
v -0.732692 0.00391457 0.232006
v -0.727578 0.06527 0.0580397
v -0.729143 0.0507753 0.0652941
v -0.722526 0.0797844 -0.014458
v -0.725216 0.0726753 0.020977
v -0.720266 0.094279 -0.014458
v -0.709241 0.145761 4.32244e-06
v -0.703483 0.166792 0.00725874
v -0.717298 0.108774 -0.014458
v -0.714899 0.123268 4.32244e-06
v -0.71625 0.123268 0.0290685
v -0.704543 0.166792 0.0290685
v -0.699669 0.181267 0.0290685
v -0.700755 0.181267 0.0580397
v -0.695944 0.196591 0.0871039
v -0.696373 0.197558 0.116075
v -0.695337 0.202318 0.181225
v -0.605815 0.202318 0.237308
v -0.65153 0.00057724 0.248794
v -0.732667 0.0217663 0.188526
v -0.732768 0.0217663 0.217544
v -0.731012 0.0362609 0.0943583
v -0.732199 0.00057724 0.301202
v -0.732073 0.0047637 0.317385
v -0.732692 0.0217663 0.239307
v -0.724332 0.0879006 0.0580397
v -0.725039 0.0789352 0.0362764
v -0.729699 0.0507753 0.0871039
v -0.728386 0.06527 0.0943583
v -0.724888 0.0884535 0.0822211
v -0.7236 0.0797844 0.00725874
v -0.721566 0.094279 0.0145132
v -0.718346 0.108774 0.00725874
v -0.71135 0.143036 0.0314866
v -0.719306 0.108774 0.0290685
v -0.717513 0.123268 0.0580397
v -0.712045 0.14426 0.0580397
v -0.705655 0.166792 0.0580397
v -0.70174 0.181267 0.0871039
v -0.702599 0.181267 0.116075
v -0.696726 0.197815 0.137792
v -0.696827 0.198111 0.159788
v -0.69833 0.19434 0.181225
v -0.696929 0.19819 0.195781
v -0.696916 0.19819 0.217637
v -0.695337 0.201883 0.240005
v -0.654725 0.202318 0.407461
v -0.607293 0.202318 0.253723
v -0.609162 0.202318 0.272603
v -0.654636 0.00057724 0.276788
v -0.731745 0.0362609 0.174017
v -0.731581 0.0362609 0.145046
v -0.731896 0.0362609 0.246515
v -0.731909 0.0362609 0.224752
v -0.731821 0.0362609 0.195781
v -0.73076 0.043528 0.116075
v -0.7015 0.00057724 0.408577
v -0.729585 0.00308517 0.375374
v -0.731303 0.00391457 0.348077
v -0.731265 0.0290136 0.333568
v -0.732061 0.0217663 0.30455
v -0.731694 0.0362609 0.275533
v -0.721364 0.108774 0.0871039
v -0.720506 0.108774 0.0580397
v -0.728765 0.06527 0.116075
v -0.726997 0.0797844 0.123329
v -0.724951 0.0930547 0.123329
v -0.718422 0.123268 0.0871039
v -0.714772 0.137783 0.0871039
v -0.710681 0.152317 0.0871039
v -0.706753 0.166792 0.0943583
v -0.707549 0.166792 0.137792
v -0.702876 0.181267 0.137792
v -0.702889 0.181267 0.159602
v -0.702851 0.181267 0.210243
v -0.698318 0.194201 0.239307
v -0.696663 0.197855 0.26121
v -0.694921 0.19977 0.311805
v -0.693355 0.200086 0.362539
v -0.691157 0.200876 0.387418
v -0.685563 0.200678 0.402532
v -0.671217 0.200678 0.410205
v -0.674412 0.181267 0.41053
v -0.684666 0.00057724 0.39365
v -0.642728 0.202318 0.394998
v -0.658311 0.00057724 0.300644
v -0.618001 0.202318 0.319431
v -0.729712 0.0580227 0.137792
v -0.730684 0.0507753 0.260977
v -0.703419 0.0725371 0.409972
v -0.714002 0.0580227 0.408158
v -0.722955 0.00391457 0.399835
v -0.728512 0.0217663 0.384303
v -0.729901 0.0290136 0.362539
v -0.729358 0.0507753 0.348077
v -0.731366 0.0362609 0.30455
v -0.730469 0.0507753 0.289995
v -0.721857 0.108774 0.116075
v -0.727451 0.0797844 0.159602
v -0.726163 0.0867947 0.137792
v -0.725203 0.0944765 0.159602
v -0.718851 0.123268 0.116075
v -0.715277 0.137783 0.116075
v -0.70914 0.160117 0.116075
v -0.710163 0.157668 0.137792
v -0.710112 0.158458 0.157741
v -0.712537 0.150875 0.224752
v -0.712512 0.150954 0.246515
v -0.709405 0.16069 0.275533
v -0.702738 0.181267 0.260977
v -0.702308 0.181267 0.289995
v -0.696348 0.197282 0.290507
v -0.701715 0.181267 0.319013
v -0.700982 0.181267 0.348077
v -0.695312 0.19742 0.331197
v -0.698482 0.185749 0.36984
v -0.697711 0.183222 0.390348
v -0.697749 0.159189 0.406159
v -0.68627 0.181267 0.40867
v -0.694466 0.141397 0.409228
v -0.676294 0.00057724 0.373002
v -0.633724 0.202318 0.373886
v -0.662428 0.00057724 0.320733
v -0.62602 0.202318 0.349612
v -0.669563 0.00057724 0.349798
v -0.729106 0.06527 0.224752
v -0.729055 0.06527 0.275533
v -0.729118 0.06527 0.246515
v -0.702005 0.123268 0.408577
v -0.707802 0.094279 0.40853
v -0.713042 0.0797844 0.407833
v -0.724383 0.0217663 0.398579
v -0.72533 0.0721421 0.377002
v -0.728209 0.0507753 0.36984
v -0.725885 0.0362609 0.390953
v -0.728146 0.06527 0.333568
v -0.730116 0.0507753 0.311805
v -0.727641 0.06527 0.355285
v -0.72879 0.06527 0.297296
v -0.722173 0.108774 0.145046
v -0.725923 0.0910207 0.181225
v -0.727325 0.0797844 0.253723
v -0.726668 0.0853927 0.21387
v -0.724534 0.098268 0.181225
v -0.722349 0.108774 0.174017
v -0.719028 0.123268 0.137792
v -0.715555 0.137783 0.137792
v -0.714191 0.144359 0.174017
v -0.714318 0.144339 0.195781
v -0.716098 0.137783 0.217544
v -0.715997 0.137783 0.246515
v -0.715795 0.137783 0.275533
v -0.710163 0.157807 0.297296
v -0.707221 0.166792 0.297296
v -0.706109 0.166792 0.348077
v -0.708547 0.162072 0.311805
v -0.704127 0.166792 0.384303
v -0.711716 0.134643 0.394254
v -0.712057 0.110571 0.403648
v -0.725532 0.0892829 0.297296
v -0.726125 0.0868342 0.275533
v -0.718283 0.0870317 0.398811
v -0.722703 0.0579832 0.395742
v -0.722046 0.094279 0.377048
v -0.724799 0.0876044 0.34817
v -0.725873 0.0838326 0.326314
v -0.719268 0.123268 0.174017
v -0.725809 0.0909022 0.239307
v -0.725191 0.094437 0.253723
v -0.723536 0.103442 0.239307
v -0.722463 0.108774 0.224752
v -0.722412 0.108774 0.195781
v -0.719369 0.123268 0.203035
v -0.719331 0.123268 0.232006
v -0.719091 0.123268 0.268278
v -0.718851 0.123268 0.289995
v -0.718447 0.123268 0.319013
v -0.713737 0.144043 0.30455
v -0.710668 0.152238 0.340776
v -0.708812 0.15992 0.326314
v -0.707044 0.160176 0.36984
v -0.711337 0.14347 0.376862
v -0.716288 0.123268 0.377048
v -0.719319 0.108774 0.377048
v -0.724345 0.09655 0.297296
v -0.724054 0.0951282 0.326314
v -0.720733 0.108774 0.355285
v -0.722362 0.108774 0.260977
v -0.722046 0.108774 0.289995
v -0.721339 0.108774 0.333568
v -0.717765 0.123268 0.348077
v -0.714583 0.137783 0.333568
v -0.712108 0.144477 0.355285
f 1 2 3
f 1 3 4
f 1 4 17
f 1 17 5
f 1 5 6
f 1 6 7
f 1 7 8
f 1 8 27
f 1 27 54
f 1 54 82
f 1 82 113
f 1 113 149
f 1 149 186
f 1 186 188
f 1 188 184
f 1 184 147
f 1 147 120
f 1 120 86
f 1 86 61
f 1 61 35
f 1 35 9
f 1 9 2
f 2 10 11
f 2 11 3
f 2 9 10
f 3 12 4
f 3 11 12
f 4 12 13
f 4 13 14
f 4 14 15
f 4 15 16
f 4 16 17
f 5 18 6
f 5 17 19
f 5 19 18
f 6 18 20
f 6 20 21
f 6 21 22
f 6 22 7
f 7 22 23
f 7 23 24
f 7 24 8
f 8 24 25
f 8 25 26
f 8 26 27
f 9 28 29
f 9 29 30
f 9 30 31
f 9 31 32
f 9 32 33
f 9 33 34
f 9 34 10
f 9 35 28
f 10 36 11
f 10 34 36
f 11 14 13
f 11 13 12
f 11 36 14
f 14 36 37
f 14 37 38
f 14 38 39
f 14 39 40
f 14 40 15
f 15 40 41
f 15 41 16
f 16 42 17
f 16 41 43
f 16 43 42
f 17 42 19
f 18 19 44
f 18 44 20
f 19 45 46
f 19 46 44
f 19 42 45
f 20 44 47
f 20 47 48
f 20 48 21
f 21 48 49
f 21 49 22
f 22 49 23
f 23 49 50
f 23 50 51
f 23 51 52
f 23 52 80
f 23 80 110
f 23 110 148
f 23 148 185
f 23 185 187
f 23 187 150
f 23 150 112
f 23 112 111
f 23 111 81
f 23 81 53
f 23 53 26
f 23 26 25
f 23 25 24
f 26 53 27
f 27 53 54
f 28 55 56
f 28 56 29
f 28 35 57
f 28 57 55
f 29 56 30
f 30 56 58
f 30 58 31
f 31 58 59
f 31 59 32
f 32 60 33
f 32 59 60
f 33 37 34
f 33 60 37
f 34 37 36
f 35 61 62
f 35 62 63
f 35 63 64
f 35 64 57
f 37 60 38
f 38 65 39
f 38 60 59
f 38 59 66
f 38 66 65
f 39 67 40
f 39 65 68
f 39 68 67
f 40 67 41
f 41 67 69
f 41 69 43
f 42 43 45
f 43 69 45
f 44 46 70
f 44 70 71
f 44 71 47
f 45 69 72
f 45 72 46
f 46 72 73
f 46 73 74
f 46 74 70
f 47 71 51
f 47 51 48
f 48 51 50
f 48 50 49
f 51 71 75
f 51 75 76
f 51 76 77
f 51 77 52
f 52 77 78
f 52 78 79
f 52 79 80
f 53 81 82
f 53 82 54
f 55 83 56
f 55 57 84
f 55 84 83
f 56 83 58
f 57 64 84
f 58 85 59
f 58 83 85
f 59 85 66
f 61 86 62
f 62 86 87
f 62 87 63
f 63 88 84
f 63 84 64
f 63 87 88
f 65 89 90
f 65 90 68
f 65 66 91
f 65 91 92
f 65 92 93
f 65 93 89
f 66 85 91
f 67 68 94
f 67 94 69
f 68 90 94
f 69 94 95
f 69 95 96
f 69 96 72
f 70 74 97
f 70 97 75
f 70 75 71
f 72 96 73
f 73 96 74
f 74 98 99
f 74 99 97
f 74 96 98
f 75 97 100
f 75 100 101
f 75 101 76
f 76 101 77
f 77 101 102
f 77 102 78
f 78 102 103
f 78 103 79
f 79 103 104
f 79 104 80
f 80 104 105
f 80 105 106
f 80 106 107
f 80 107 108
f 80 108 109
f 80 109 110
f 81 111 82
f 82 111 112
f 82 112 113
f 83 114 115
f 83 115 85
f 83 84 118
f 83 118 114
f 84 88 116
f 84 116 117
f 84 117 118
f 85 115 119
f 85 119 91
f 86 120 121
f 86 121 122
f 86 122 87
f 87 122 123
f 87 123 124
f 87 124 88
f 88 124 125
f 88 125 116
f 89 93 126
f 89 126 127
f 89 127 95
f 89 95 90
f 90 95 94
f 91 119 128
f 91 128 92
f 92 128 129
f 92 129 93
f 93 129 130
f 93 130 126
f 95 127 98
f 95 98 96
f 97 99 100
f 98 127 99
f 99 127 131
f 99 131 132
f 99 132 100
f 100 132 133
f 100 133 101
f 101 133 134
f 101 134 102
f 102 134 103
f 103 134 135
f 103 135 136
f 103 136 104
f 104 136 105
f 105 136 106
f 106 136 137
f 106 137 138
f 106 138 139
f 106 139 108
f 106 108 107
f 108 139 109
f 109 139 140
f 109 140 141
f 109 141 142
f 109 142 143
f 109 143 110
f 110 143 144
f 110 144 145
f 110 145 146
f 110 146 120
f 110 120 147
f 110 147 148
f 112 149 113
f 112 150 149
f 114 118 151
f 114 151 115
f 115 151 119
f 116 125 152
f 116 152 117
f 117 152 151
f 117 151 118
f 119 151 128
f 120 146 153
f 120 153 154
f 120 154 155
f 120 155 121
f 121 155 156
f 121 156 157
f 121 157 122
f 122 157 123
f 123 157 158
f 123 158 159
f 123 159 124
f 124 159 125
f 125 159 160
f 125 160 152
f 126 131 127
f 126 130 161
f 126 161 131
f 128 151 162
f 128 162 129
f 129 163 130
f 129 162 163
f 130 163 164
f 130 164 161
f 131 161 165
f 131 165 166
f 131 166 132
f 132 166 167
f 132 167 133
f 133 167 134
f 134 167 135
f 135 167 168
f 135 168 169
f 135 169 170
f 135 170 171
f 135 171 172
f 135 172 137
f 135 137 136
f 137 172 138
f 138 172 173
f 138 173 139
f 139 173 140
f 140 173 174
f 140 174 175
f 140 175 141
f 141 175 176
f 141 176 177
f 141 177 178
f 141 178 142
f 142 178 177
f 142 177 179
f 142 179 143
f 143 179 180
f 143 180 144
f 144 181 182
f 144 182 145
f 144 180 181
f 145 182 183
f 145 183 146
f 146 183 153
f 147 184 185
f 147 185 148
f 149 150 186
f 150 187 188
f 150 188 186
f 151 152 189
f 151 189 162
f 152 160 190
f 152 190 191
f 152 191 189
f 153 183 192
f 153 192 193
f 153 193 194
f 153 194 154
f 154 194 195
f 154 195 155
f 155 195 156
f 156 196 197
f 156 197 157
f 156 195 198
f 156 198 196
f 157 197 158
f 158 199 200
f 158 200 159
f 158 197 201
f 158 201 199
f 159 200 160
f 160 200 202
f 160 202 190
f 161 164 203
f 161 203 165
f 162 204 164
f 162 164 163
f 162 189 191
f 162 191 205
f 162 205 206
f 162 206 204
f 164 204 207
f 164 207 208
f 164 208 203
f 165 203 209
f 165 209 210
f 165 210 166
f 166 210 168
f 166 168 167
f 168 210 211
f 168 211 169
f 169 211 212
f 169 212 170
f 170 213 171
f 170 212 213
f 171 213 214
f 171 214 215
f 171 215 216
f 171 216 172
f 172 216 217
f 172 217 173
f 173 217 174
f 174 217 176
f 174 176 175
f 176 218 177
f 176 217 219
f 176 219 218
f 177 218 179
f 179 218 220
f 179 220 180
f 180 220 221
f 180 221 181
f 181 221 222
f 181 222 194
f 181 194 192
f 181 192 182
f 182 192 183
f 184 188 187
f 184 187 185
f 190 202 223
f 190 223 224
f 190 224 205
f 190 205 191
f 192 194 193
f 194 222 225
f 194 225 195
f 195 226 198
f 195 225 226
f 196 198 226
f 196 226 225
f 196 225 227
f 196 227 228
f 196 228 201
f 196 201 197
f 199 201 229
f 199 229 202
f 199 202 200
f 201 228 229
f 202 229 223
f 203 208 230
f 203 230 209
f 204 206 231
f 204 231 232
f 204 232 233
f 204 233 207
f 205 232 231
f 205 231 206
f 205 224 232
f 207 233 234
f 207 234 235
f 207 235 208
f 208 235 236
f 208 236 230
f 209 230 213
f 209 213 210
f 210 213 211
f 211 213 212
f 213 236 237
f 213 237 214
f 213 230 236
f 214 237 238
f 214 238 215
f 215 238 239
f 215 239 240
f 215 240 241
f 215 241 216
f 216 241 242
f 216 242 243
f 216 243 219
f 216 219 217
f 218 244 220
f 218 219 243
f 218 243 242
f 218 242 244
f 220 245 221
f 220 244 245
f 221 245 246
f 221 246 247
f 221 247 227
f 221 227 225
f 221 225 222
f 223 248 232
f 223 232 224
f 223 229 249
f 223 249 248
f 227 247 250
f 227 250 228
f 228 250 249
f 228 249 229
f 232 248 251
f 232 251 233
f 233 251 234
f 234 251 237
f 234 237 236
f 234 236 235
f 237 251 238
f 238 251 252
f 238 252 239
f 239 252 240
f 240 253 254
f 240 254 255
f 240 255 241
f 240 252 253
f 241 255 242
f 242 255 254
f 242 254 256
f 242 256 245
f 242 245 244
f 245 256 254
f 245 254 246
f 246 254 250
f 246 250 247
f 248 252 251
f 248 249 253
f 248 253 252
f 249 250 253
f 250 254 253
