v 0.10895 -0.430137 0.410643
v 0.10895 -0.418215 0.390544
v -0.125331 -0.504114 0.403975
v 0.104776 -0.446641 0.420073
v 0.104684 -0.46557 0.416977
v 0.107964 -0.478664 0.387163
v 0.10856 -0.481272 0.339345
v 0.10895 -0.483396 0.276001
v 0.10895 -0.408817 0.363635
v -0.125331 -0.494265 0.378447
v -0.124551 -0.544547 0.404642
v -0.114002 -0.526622 0.418978
v -0.125331 -0.553627 0.266238
v -0.0870101 -0.522725 0.420835
v 0.0217368 -0.495887 0.421121
v 0.0741381 -0.482543 0.417073
v 0.0967956 -0.482376 0.402594
v 0.0729685 -0.494633 0.401118
v 0.0652631 -0.500636 0.384305
v 0.0884481 -0.489717 0.377066
v 0.107643 -0.480553 0.36254
v 0.0899846 -0.490269 0.3553
v 0.090879 -0.49082 0.335392
v 0.0962452 -0.490402 0.275525
v 0.108514 -0.482108 0.318342
v 0.10895 -0.484399 0.246663
v 0.10895 -0.401844 0.340345
v -0.125331 -0.48654 0.348966
v -0.124299 -0.548845 0.383829
v -0.108773 -0.545918 0.398784
v -0.108773 -0.540751 0.411548
v -0.0942568 -0.5352 0.414548
v -0.125331 -0.554296 0.237233
v -0.108773 -0.552975 0.24652
v -0.124299 -0.553176 0.28224
v -0.124299 -0.552557 0.30453
v 0.00497304 -0.506472 0.420311
v -0.0144968 -0.508228 0.420931
v -0.0402732 -0.524515 0.416644
v 0.0450135 -0.49572 0.417454
v 0.0387758 -0.508612 0.404499
v 0.0430413 -0.510017 0.384305
v 0.0514576 -0.50791 0.36254
v 0.0592548 -0.506004 0.333535
v 0.0716384 -0.498863 0.36254
v 0.0626259 -0.505736 0.303577
v 0.0842514 -0.496339 0.279145
v 0.0895259 -0.492743 0.30453
v 0.0935621 -0.492743 0.24652
v 0.0940895 -0.492994 0.224754
v 0.10895 -0.484901 0.22504
v 0.10895 -0.396476 0.318961
v -0.125331 -0.480001 0.319913
v -0.118588 -0.550818 0.337869
v -0.0942568 -0.547591 0.3553
v -0.0870101 -0.544163 0.391545
v -0.0564866 -0.537641 0.400927
v -0.0797633 -0.538762 0.40969
v -0.124803 -0.554697 0.216467
v -0.125331 -0.555299 0.187462
v -0.0940045 -0.551169 0.253759
v -0.101939 -0.551738 0.268286
v -0.10476 -0.551654 0.284812
v -0.124299 -0.5556 0.16684
v -0.108773 -0.553577 0.210276
v -0.0917801 -0.551788 0.202417
v -0.105608 -0.551035 0.305197
v -0.0144968 -0.518545 0.41531
v 0.0217368 -0.507325 0.414977
v 0.000661687 -0.523177 0.401022
v 0.0217368 -0.516605 0.398784
v 0.0154533 -0.520518 0.384305
v 0.0362533 -0.51413 0.36254
v 0.0507467 -0.51107 0.29729
v 0.0633138 -0.506706 0.268286
v 0.0736565 -0.502492 0.24652
v 0.0797566 -0.500051 0.224754
v 0.0913835 -0.495252 0.16684
v 0.0986302 -0.491656 0.16684
v 0.108858 -0.485319 0.203132
v 0.10895 -0.485854 0.167078
v 0.10895 -0.391844 0.293909
v -0.125331 -0.475135 0.29048
v -0.0870101 -0.54754 0.333535
v -0.0724937 -0.543895 0.36254
v -0.0652469 -0.54127 0.384305
v -0.0390807 -0.534999 0.392497
v -0.0217436 -0.530819 0.391545
v -0.125331 -0.556052 0.0995427
v -0.124299 -0.556085 0.123309
v -0.0821483 -0.550751 0.181271
v -0.0797633 -0.549112 0.239281
v -0.0797633 -0.548042 0.282764
v -0.0930184 -0.550216 0.282764
v -0.108773 -0.554129 0.174079
v -0.116524 -0.555249 0.145074
v -0.0878586 -0.551738 0.1596
v -0.00727303 -0.527575 0.384305
v -0.00727303 -0.528829 0.36254
v 0.0188932 -0.520836 0.358348
v 0.0289607 -0.518227 0.333535
v 0.0297404 -0.518996 0.30453
v 0.0260941 -0.521053 0.282764
v 0.0507467 -0.514348 0.174079
v 0.0606537 -0.509532 0.201179
v 0.0682214 -0.505602 0.224754
v 0.0655842 -0.507759 0.174079
v 0.0727851 -0.504499 0.152314
v 0.0797566 -0.501405 0.10883
v 0.0987907 -0.491807 0.11245
v 0.102139 -0.489901 0.145217
v 0.10895 -0.486339 0.123451
v 0.10895 -0.389102 0.274477
v -0.125331 -0.472326 0.261523
v -0.0580002 -0.542658 0.333535
v -0.0724937 -0.546186 0.30453
v -0.0507305 -0.540099 0.3553
v -0.0441259 -0.537775 0.369779
v -0.0283253 -0.535283 0.348061
v -0.108773 -0.554664 0.116069
v -0.125331 -0.477443 -0.0654377
v -0.124299 -0.552741 -0.0434339
v -0.124299 -0.553911 -0.0150005
v -0.124299 -0.554647 0.00624115
v -0.116524 -0.554998 0.0576784
v -0.0807265 -0.550985 0.0979234
v -0.0712324 -0.54943 0.11245
v -0.0652469 -0.548276 0.145074
v -0.0580002 -0.546704 0.174079
v -0.0580002 -0.546303 0.195749
v -0.0895327 -0.552106 0.137835
v -0.00727303 -0.530183 0.333535
v 0.00724338 -0.526504 0.311769
v 0.0116465 -0.526254 0.279145
v 0.0139397 -0.526789 0.231994
v 0.0305659 -0.521404 0.204084
v 0.0260023 -0.523578 0.177699
v 0.0277223 -0.523394 0.145074
v 0.0507467 -0.514532 0.152314
v 0.0564799 -0.512057 0.137835
v 0.0694827 -0.506238 0.116069
v 0.0961305 -0.493128 0.090684
v 0.0737024 -0.504248 0.0870644
v 0.0855127 -0.498379 0.0652988
v 0.10895 -0.485988 0.0870644
v 0.10895 -0.38641 0.246282
v -0.125331 -0.470721 0.233041
v -0.0507305 -0.542139 0.30453
v -0.0309855 -0.53729 0.315103
v -0.0507305 -0.543092 0.268286
v -0.0238534 -0.536069 0.29729
v -0.108773 -0.554513 0.0943037
v -0.0875834 -0.551788 0.0725857
v -0.0942568 -0.552791 0.10883
v -0.125331 -0.470403 0.18851
v 0.10895 -0.386126 0.166697
v 0.108927 -0.394804 -0.06539
v -0.0870559 -0.547741 -0.06539
v -0.118382 -0.551236 -0.0647233
v -0.102971 -0.551437 -0.0287648
v -0.101366 -0.55035 -0.0506733
v -0.10116 -0.552089 4.96216e-05
v -0.116524 -0.554497 0.0289117
v -0.0942568 -0.552356 0.0508201
v -0.0717598 -0.54933 0.0508201
v -0.0652469 -0.54841 0.0652988
v -0.0652469 -0.548443 0.0870644
v -0.0507305 -0.545434 0.137835
v -0.036237 -0.542106 0.174079
v -0.036237 -0.541437 0.210276
v -0.00727303 -0.531304 0.30453
v -2.62933e-05 -0.530735 0.253759
v 0.00724338 -0.529514 0.210276
v 0.00724338 -0.530116 0.174079
v 0.00724338 -0.530551 0.145074
v 0.0273783 -0.523662 0.117879
v 0.0507467 -0.514498 0.116069
v 0.0947087 -0.493345 0.0508201
v 0.10895 -0.485486 0.0436761
v 0.10895 -0.485754 0.0652988
v 0.0655154 -0.507726 0.0580595
v 0.0797566 -0.501087 0.0508201
v 0.10895 -0.385256 0.217372
v -0.125331 -0.470253 0.210276
v -0.036237 -0.539079 0.29729
v -0.036237 -0.539698 0.275525
v -0.0229131 -0.53632 0.279145
v -0.00727303 -0.53224 0.275525
v -0.0834784 -0.550651 0.031674
v 0.10895 -0.385557 0.188367
v 0.10895 -0.482894 -0.0370043
v 0.108652 -0.481941 -0.0594366
v 0.0141003 -0.524147 -0.0653424
v -0.0301599 -0.537407 -0.0578173
v -0.0580002 -0.543327 -0.0580078
v -0.0797633 -0.547474 -0.0506733
v -0.0797633 -0.549279 -0.0071897
v -0.0652469 -0.547908 0.0362939
v -0.0507305 -0.545367 0.0943037
v -0.0434838 -0.543092 0.0290545
v -0.0434838 -0.543577 0.0580595
v -0.036237 -0.542173 0.152314
v -0.0434838 -0.543795 0.116069
v -0.0217436 -0.538628 0.116069
v -0.0153224 -0.536905 0.134215
v -0.0129603 -0.536103 0.1596
v -0.0234177 -0.538444 0.19213
v -0.0136483 -0.53535 0.217515
v -0.0123182 -0.534531 0.239281
v -0.00692904 -0.534765 0.101591
v 0.00724338 -0.530635 0.116069
v 0.0278369 -0.523394 0.0870644
v 0.0507467 -0.514348 0.0870644
v 0.0906267 -0.495034 0.0290545
v 0.10324 -0.487961 0.0146235
v 0.10895 -0.483881 -0.0141433
v 0.0507467 -0.513963 0.0580595
v 0.05609 -0.511254 0.0326742
v 0.0610435 -0.50893 0.0218152
v 0.0683132 -0.50577 0.0218152
v 0.0742069 -0.503362 0.0362939
v 0.0797566 -0.499148 -0.021716
v 0.0931034 -0.492476 -0.0144766
v 0.0860402 -0.495302 -0.0361946
v 0.0855127 -0.494315 -0.0577221
v 0.0587502 -0.50694 -0.0584841
v 0.0362533 -0.516371 -0.0580078
v 0.0221267 -0.52224 -0.0506733
v 0.00724338 -0.527173 -0.0506733
v -0.00869486 -0.531504 -0.0580078
v -0.0294031 -0.538126 -0.0361946
v -0.036237 -0.540283 -0.021716
v -0.0507305 -0.543276 -0.0289553
v -0.0724937 -0.54739 -0.0289553
v -0.0580002 -0.545534 4.96216e-05
v -0.036237 -0.542089 0.0870644
v -0.036237 -0.540835 4.96216e-05
v -0.0160104 -0.53714 0.0508201
v -0.0140611 -0.536738 0.0870644
v -0.0124558 -0.535969 0.0353413
v 0.00724338 -0.530417 0.0870644
v 0.00724338 -0.530033 0.0580595
v 0.0265986 -0.523378 0.0580595
v 0.0288689 -0.522073 0.0311501
v 0.0362533 -0.519097 0.0218152
v 0.0532235 -0.511806 4.96216e-05
v 0.0568927 -0.509348 -0.0289553
v 0.0736106 -0.502475 -0.0071897
v 0.0306118 -0.519966 -0.0289553
v 0.00724338 -0.528729 4.96216e-05
v 0.00724338 -0.527892 -0.0289553
v -0.00727303 -0.532324 -0.0289553
v 0.00724338 -0.529431 0.0290545
v 0.0260253 -0.522341 4.96216e-05
v 0.0362533 -0.518645 4.96216e-05
f 1 2 3
f 1 3 4
f 1 4 5
f 1 5 6
f 1 6 7
f 1 7 8
f 1 8 26
f 1 26 51
f 1 51 81
f 1 81 112
f 1 112 145
f 1 145 180
f 1 180 179
f 1 179 216
f 1 216 191
f 1 191 156
f 1 156 190
f 1 190 183
f 1 183 146
f 1 146 113
f 1 113 82
f 1 82 52
f 1 52 27
f 1 27 9
f 1 9 2
f 2 9 10
f 2 10 3
f 3 11 12
f 3 12 4
f 3 10 28
f 3 28 53
f 3 53 83
f 3 83 114
f 3 114 147
f 3 147 184
f 3 184 155
f 3 155 121
f 3 121 89
f 3 89 60
f 3 60 33
f 3 33 13
f 3 13 11
f 4 12 14
f 4 14 15
f 4 15 5
f 5 15 16
f 5 16 17
f 5 17 6
f 6 17 18
f 6 18 19
f 6 19 20
f 6 20 21
f 6 21 7
f 7 21 22
f 7 22 23
f 7 23 24
f 7 24 25
f 7 25 8
f 8 24 26
f 8 25 24
f 9 27 10
f 10 27 28
f 11 29 30
f 11 30 31
f 11 31 12
f 11 13 29
f 12 31 32
f 12 32 14
f 13 33 34
f 13 34 35
f 13 35 36
f 13 36 29
f 14 37 38
f 14 38 15
f 14 32 39
f 14 39 37
f 15 38 37
f 15 37 40
f 15 40 16
f 16 40 41
f 16 41 17
f 17 41 18
f 18 41 19
f 19 41 42
f 19 42 43
f 19 43 44
f 19 44 45
f 19 45 20
f 20 45 22
f 20 22 21
f 22 45 23
f 23 45 46
f 23 46 47
f 23 47 48
f 23 48 24
f 24 48 47
f 24 47 49
f 24 49 26
f 26 49 50
f 26 50 51
f 27 52 28
f 28 52 53
f 29 54 55
f 29 55 56
f 29 56 30
f 29 36 54
f 30 56 57
f 30 57 58
f 30 58 31
f 31 58 32
f 32 58 39
f 33 59 34
f 33 60 59
f 34 61 62
f 34 62 63
f 34 63 35
f 34 59 60
f 34 60 64
f 34 64 65
f 34 65 66
f 34 66 61
f 35 63 36
f 36 63 67
f 36 67 54
f 37 39 68
f 37 68 69
f 37 69 40
f 39 58 70
f 39 70 68
f 40 69 41
f 41 70 71
f 41 71 42
f 41 69 70
f 42 71 72
f 42 72 73
f 42 73 43
f 43 73 44
f 44 73 74
f 44 74 46
f 44 46 45
f 46 74 75
f 46 75 47
f 47 75 76
f 47 76 49
f 49 76 77
f 49 77 50
f 50 77 78
f 50 78 79
f 50 79 51
f 51 79 80
f 51 80 81
f 52 82 53
f 53 82 83
f 54 67 55
f 55 67 84
f 55 84 85
f 55 85 56
f 56 85 86
f 56 86 57
f 57 86 87
f 57 87 88
f 57 88 70
f 57 70 58
f 60 89 90
f 60 90 64
f 61 66 91
f 61 91 92
f 61 92 93
f 61 93 94
f 61 94 63
f 61 63 62
f 63 94 67
f 64 95 65
f 64 90 96
f 64 96 95
f 65 95 66
f 66 95 97
f 66 97 91
f 67 94 84
f 68 70 69
f 70 88 98
f 70 98 72
f 70 72 71
f 72 98 99
f 72 99 100
f 72 100 73
f 73 100 101
f 73 101 74
f 74 101 102
f 74 102 103
f 74 103 104
f 74 104 75
f 75 104 105
f 75 105 106
f 75 106 76
f 76 106 77
f 77 106 107
f 77 107 78
f 78 107 108
f 78 108 109
f 78 109 79
f 79 109 110
f 79 110 111
f 79 111 112
f 79 112 81
f 79 81 80
f 82 113 83
f 83 113 114
f 84 115 85
f 84 94 116
f 84 116 115
f 85 115 117
f 85 117 86
f 86 117 118
f 86 118 87
f 87 118 88
f 88 118 119
f 88 119 98
f 89 120 90
f 89 121 122
f 89 122 123
f 89 123 124
f 89 124 125
f 89 125 120
f 90 120 96
f 91 97 126
f 91 126 127
f 91 127 128
f 91 128 129
f 91 129 130
f 91 130 92
f 92 130 93
f 93 116 94
f 93 130 116
f 95 96 120
f 95 120 97
f 97 131 126
f 97 120 131
f 98 119 99
f 99 119 132
f 99 132 100
f 100 132 133
f 100 133 134
f 100 134 101
f 101 134 102
f 102 134 103
f 103 134 135
f 103 135 136
f 103 136 104
f 104 107 105
f 104 136 137
f 104 137 138
f 104 138 139
f 104 139 107
f 105 107 106
f 107 139 140
f 107 140 141
f 107 141 108
f 108 141 109
f 109 142 110
f 109 141 143
f 109 143 144
f 109 144 142
f 110 142 112
f 110 112 111
f 112 142 145
f 113 146 114
f 114 146 147
f 115 116 148
f 115 148 149
f 115 149 117
f 116 130 150
f 116 150 148
f 117 149 119
f 117 119 118
f 119 149 151
f 119 151 132
f 120 125 152
f 120 152 153
f 120 153 154
f 120 154 131
f 121 155 156
f 121 156 157
f 121 157 158
f 121 158 159
f 121 159 122
f 122 160 123
f 122 159 161
f 122 161 160
f 123 160 124
f 124 160 162
f 124 162 163
f 124 163 125
f 125 163 164
f 125 164 152
f 126 131 154
f 126 154 153
f 126 153 165
f 126 165 166
f 126 166 167
f 126 167 127
f 127 167 128
f 128 168 129
f 128 167 168
f 129 169 170
f 129 170 130
f 129 168 169
f 130 170 150
f 132 151 171
f 132 171 133
f 133 171 134
f 134 171 172
f 134 172 135
f 135 172 173
f 135 173 137
f 135 137 136
f 137 174 175
f 137 175 138
f 137 173 174
f 138 175 176
f 138 176 139
f 139 176 177
f 139 177 140
f 140 177 141
f 141 177 143
f 142 144 178
f 142 178 179
f 142 179 180
f 142 180 145
f 143 181 182
f 143 182 144
f 143 177 181
f 144 182 178
f 146 183 147
f 147 183 184
f 148 185 149
f 148 150 170
f 148 170 186
f 148 186 185
f 149 185 151
f 151 185 186
f 151 186 170
f 151 170 187
f 151 187 188
f 151 188 171
f 152 164 153
f 153 164 189
f 153 189 165
f 155 184 183
f 155 183 190
f 155 190 156
f 156 191 157
f 157 191 192
f 157 192 193
f 157 193 158
f 158 193 194
f 158 194 195
f 158 195 196
f 158 196 161
f 158 161 159
f 160 161 197
f 160 197 162
f 161 196 197
f 162 197 189
f 162 189 164
f 162 164 163
f 165 189 197
f 165 197 198
f 165 198 166
f 166 199 168
f 166 168 167
f 166 198 200
f 166 200 201
f 166 201 199
f 168 202 169
f 168 199 203
f 168 203 202
f 169 202 204
f 169 204 205
f 169 205 206
f 169 206 207
f 169 207 170
f 170 207 208
f 170 208 209
f 170 209 187
f 171 188 172
f 172 209 208
f 172 208 173
f 172 188 209
f 173 208 174
f 174 206 175
f 174 208 206
f 175 206 210
f 175 210 211
f 175 211 176
f 176 211 212
f 176 212 177
f 177 212 213
f 177 213 181
f 178 182 214
f 178 214 215
f 178 215 179
f 179 215 216
f 181 213 217
f 181 217 218
f 181 218 219
f 181 219 220
f 181 220 221
f 181 221 182
f 182 221 222
f 182 222 214
f 187 209 188
f 191 216 223
f 191 223 224
f 191 224 192
f 192 225 226
f 192 226 193
f 192 224 225
f 193 226 227
f 193 227 228
f 193 228 229
f 193 229 230
f 193 230 194
f 194 230 231
f 194 231 232
f 194 232 233
f 194 233 195
f 195 233 234
f 195 234 196
f 196 234 197
f 197 234 198
f 198 234 235
f 198 235 200
f 199 201 236
f 199 236 203
f 200 235 233
f 200 233 237
f 200 237 238
f 200 238 201
f 201 238 236
f 202 203 236
f 202 236 239
f 202 239 204
f 204 239 205
f 205 239 210
f 205 210 206
f 206 208 207
f 210 239 238
f 210 238 211
f 211 238 240
f 211 240 241
f 211 241 212
f 212 241 242
f 212 242 243
f 212 243 244
f 212 244 245
f 212 245 217
f 212 217 213
f 214 222 223
f 214 223 215
f 215 223 216
f 217 245 246
f 217 246 218
f 218 246 219
f 219 246 220
f 220 246 247
f 220 247 248
f 220 248 221
f 221 248 222
f 222 247 226
f 222 226 225
f 222 225 224
f 222 224 223
f 222 248 247
f 226 247 227
f 227 247 249
f 227 249 228
f 228 249 250
f 228 250 251
f 228 251 229
f 229 251 252
f 229 252 230
f 230 252 231
f 231 252 240
f 231 240 232
f 232 240 237
f 232 237 233
f 233 235 234
f 236 238 239
f 237 240 238
f 240 253 242
f 240 242 241
f 240 252 251
f 240 251 250
f 240 250 253
f 242 253 244
f 242 244 243
f 244 253 254
f 244 254 255
f 244 255 245
f 245 255 246
f 246 255 249
f 246 249 247
f 249 255 254
f 249 254 250
f 250 254 253
