v 0.10895 -0.37057 -0.173203
v 0.108904 -0.394164 -0.0654959
v 0.10895 -0.39544 -0.0654959
v 0.10895 -0.46234 -0.173203
v -0.125331 -0.459308 -0.173203
v -0.125331 -0.47746 -0.0654959
v 0.10895 -0.481484 -0.0654959
v 0.10895 -0.464467 -0.166792
v 0.103836 -0.46546 -0.173203
v -0.125331 -0.535851 -0.173203
v -0.125331 -0.551645 -0.0654959
v 0.107964 -0.482016 -0.0654959
v 0.10895 -0.480367 -0.0797725
v 0.10895 -0.468668 -0.152589
v 0.105533 -0.46647 -0.166792
v 0.0929429 -0.473933 -0.165569
v 0.0846413 -0.477336 -0.169597
v 0.0832194 -0.476858 -0.173203
v -0.125331 -0.535869 -0.173182
v -0.123519 -0.535745 -0.173203
v -0.125331 -0.551557 -0.0671829
v -0.123634 -0.551557 -0.0654959
v 0.107666 -0.482176 -0.0654959
v 0.10684 -0.481502 -0.0797725
v 0.094273 -0.486749 -0.0942811
v 0.105372 -0.48074 -0.0942811
v 0.10895 -0.478754 -0.0942811
v 0.10895 -0.47154 -0.140622
v 0.0995475 -0.477584 -0.137775
v 0.0963828 -0.475883 -0.152284
v 0.0872097 -0.478719 -0.159918
v 0.0797795 -0.481006 -0.165569
v 0.0767295 -0.480297 -0.173203
v -0.125331 -0.536135 -0.172328
v -0.123267 -0.535727 -0.173203
v -0.125331 -0.550724 -0.0807531
v -0.123014 -0.551521 -0.0654959
v 0.0926218 -0.490152 -0.0654959
v 0.094273 -0.488185 -0.0797725
v 0.0846413 -0.491872 -0.0942811
v 0.083013 -0.491092 -0.108779
v 0.094273 -0.485083 -0.108779
v 0.103698 -0.479853 -0.108779
v 0.10895 -0.476875 -0.108779
v 0.10895 -0.472213 -0.137775
v 0.108766 -0.47232 -0.137775
v 0.0923008 -0.481431 -0.137775
v 0.101107 -0.478382 -0.129013
v 0.0891361 -0.479694 -0.152284
v 0.0797566 -0.484462 -0.152284
v 0.0671665 -0.490631 -0.152284
v 0.0638184 -0.488788 -0.165348
v 0.0648733 -0.485774 -0.173203
v -0.125331 -0.53812 -0.165232
v -0.123267 -0.536064 -0.172075
v -0.112763 -0.534894 -0.173203
v -0.108773 -0.535497 -0.170124
v -0.125331 -0.550653 -0.0817548
v -0.123335 -0.550653 -0.0797619
v -0.11852 -0.550972 -0.0699455
v -0.116662 -0.551114 -0.0654959
v 0.0869804 -0.493095 -0.0654959
v 0.0866823 -0.492935 -0.0699876
v 0.0859484 -0.492563 -0.0797725
v 0.0773945 -0.495648 -0.0942811
v 0.0757434 -0.494726 -0.108779
v 0.0740693 -0.493875 -0.120525
v 0.0792521 -0.490667 -0.124532
v 0.0954655 -0.4823 -0.123815
v 0.102391 -0.479127 -0.119344
v 0.10895 -0.475422 -0.118543
v 0.10895 -0.472249 -0.137585
v 0.0723952 -0.49306 -0.130194
v 0.0797566 -0.487813 -0.137775
v 0.10895 -0.474624 -0.123773
v 0.107849 -0.475262 -0.123815
v 0.0706982 -0.492262 -0.137775
v 0.0634514 -0.495683 -0.137775
v 0.0599198 -0.493999 -0.152284
v 0.0580164 -0.493113 -0.159549
v 0.0546224 -0.491677 -0.169217
v 0.0531088 -0.491021 -0.173203
v -0.123267 -0.538085 -0.164821
v -0.123267 -0.541187 -0.152284
v -0.125331 -0.541311 -0.152284
v -0.108773 -0.537571 -0.16287
v -0.108773 -0.534575 -0.173203
v -0.0940963 -0.532962 -0.173203
v -0.0985911 -0.537057 -0.161056
v -0.125331 -0.549713 -0.0942705
v -0.108773 -0.549589 -0.0797725
v -0.10992 -0.5506 -0.0654959
v 0.0811096 -0.496091 -0.0654959
v 0.0787017 -0.496321 -0.0797725
v 0.0652631 -0.50272 -0.0797725
v 0.0652631 -0.501391 -0.0942811
v 0.0652631 -0.499636 -0.108779
v 0.0666391 -0.496694 -0.124532
v 0.0507467 -0.501409 -0.137775
v 0.0507467 -0.498058 -0.152284
v 0.0353818 -0.50467 -0.151925
v 0.0271719 -0.506975 -0.156522
v 0.0362533 -0.50031 -0.166792
v 0.0501734 -0.494761 -0.165348
v 0.0462519 -0.493999 -0.173203
v -0.123267 -0.544112 -0.137775
v -0.108773 -0.539981 -0.152284
v -0.125331 -0.54381 -0.139831
v -0.0797633 -0.530888 -0.173203
v -0.0939587 -0.534965 -0.166244
v -0.0797633 -0.532749 -0.166792
v -0.0889364 -0.536347 -0.158146
v -0.0939587 -0.53812 -0.152895
v -0.125331 -0.548313 -0.108779
v -0.123267 -0.548171 -0.108779
v -0.123267 -0.549554 -0.0942811
v -0.109301 -0.550546 -0.0654959
v -0.108773 -0.548348 -0.0942811
v -0.0942568 -0.547923 -0.0797725
v -0.0942568 -0.548862 -0.0654959
v 0.0651255 -0.503749 -0.0654959
v 0.0571449 -0.507258 -0.0654959
v 0.0559066 -0.506762 -0.0797725
v 0.0543701 -0.506106 -0.0942811
v 0.0524896 -0.505273 -0.108779
v 0.0496001 -0.50467 -0.122718
v 0.0422846 -0.507152 -0.127178
v 0.0396702 -0.506106 -0.137775
v 0.0217368 -0.512966 -0.137775
v 0.0221038 -0.509776 -0.151925
v 0.00724338 -0.514828 -0.152284
v 0.0175172 -0.508659 -0.163365
v 0.0221038 -0.505769 -0.167636
v 0.0299697 -0.508003 -0.146854
v 0.0219662 -0.504015 -0.173203
v 0.0298321 -0.500824 -0.173203
v 0.0362303 -0.498218 -0.173203
v -0.123267 -0.546398 -0.123277
v -0.125331 -0.546186 -0.125323
v -0.125331 -0.544218 -0.137775
v -0.108773 -0.542818 -0.137775
v -0.108773 -0.545264 -0.123277
v -0.0716681 -0.529452 -0.173203
v -0.0652469 -0.530179 -0.166792
v -0.0797633 -0.535638 -0.15492
v -0.0666458 -0.534309 -0.150871
v -0.0724249 -0.536649 -0.145103
v -0.0942568 -0.541063 -0.137775
v -0.125331 -0.546505 -0.123277
v -0.108773 -0.547019 -0.108779
v -0.0942568 -0.546682 -0.0942811
v -0.0797633 -0.54459 -0.0942811
v -0.0652469 -0.54241 -0.0942811
v -0.0797633 -0.545689 -0.0797725
v -0.0799697 -0.546647 -0.0654959
v 0.0498982 -0.510272 -0.0654959
v 0.0486598 -0.50974 -0.0797725
v 0.0362533 -0.513604 -0.0942811
v 0.0471234 -0.50912 -0.0942811
v 0.0452429 -0.50834 -0.108779
v 0.0440045 -0.507826 -0.11752
v 0.0369642 -0.509829 -0.122718
v 0.0217368 -0.515537 -0.123277
v 0.0324235 -0.508925 -0.137775
v 0.00724338 -0.517983 -0.137775
v 0.00818362 -0.510591 -0.167636
v -0.00800688 -0.519756 -0.151851
v -0.0169506 -0.521475 -0.156396
v -0.00727303 -0.515767 -0.166792
v 0.0136645 -0.507347 -0.173034
v 0.0135728 -0.507329 -0.173203
v -0.0942568 -0.543544 -0.123277
v -0.0942568 -0.545353 -0.108779
v -0.0652469 -0.528282 -0.173203
v -0.0513956 -0.525552 -0.173203
v -0.0507534 -0.527272 -0.166792
v -0.0507534 -0.530781 -0.152284
v -0.0507534 -0.533706 -0.137775
v -0.0797633 -0.541293 -0.123277
v -0.0619217 -0.535904 -0.137775
v -0.0584818 -0.536542 -0.129994
v -0.0641003 -0.538421 -0.124405
v -0.0797633 -0.543208 -0.108779
v -0.0652469 -0.540939 -0.108779
v -0.0507534 -0.539733 -0.0942811
v -0.0507534 -0.540708 -0.0797725
v -0.0652469 -0.543349 -0.0797725
v -0.0652469 -0.544218 -0.0654959
v 0.0362533 -0.515856 -0.0654959
v 0.0362533 -0.51481 -0.0797725
v 0.0362533 -0.512027 -0.108779
v 0.0232045 -0.519951 -0.0797725
v 0.0205673 -0.519756 -0.0939015
v 0.0217368 -0.517628 -0.108779
v 0.011463 -0.521191 -0.108779
v 0.00685352 -0.520482 -0.124089
v -0.000530813 -0.521971 -0.129466
v -0.00314514 -0.521209 -0.137775
v -0.0133043 -0.522468 -0.146727
v -0.0217665 -0.523744 -0.151851
v -0.036237 -0.527413 -0.152284
v -0.0266282 -0.522734 -0.161879
v -0.0217665 -0.520092 -0.16674
v -0.00683731 -0.513711 -0.173203
v 0.00598208 -0.509722 -0.173203
v -0.039654 -0.523106 -0.173203
v -0.03626 -0.523939 -0.16674
v -0.036237 -0.530427 -0.137775
v -0.036237 -0.532802 -0.123277
v -0.050226 -0.535763 -0.124405
v -0.0547208 -0.537322 -0.120325
v -0.050226 -0.538085 -0.108769
v -0.0421078 -0.53695 -0.103918
v -0.0401815 -0.537393 -0.0942811
v -0.0379111 -0.537943 -0.0797725
v -0.0350675 -0.538244 -0.0654959
v -0.0507534 -0.541612 -0.0654959
v 0.0246034 -0.520447 -0.0654959
v 0.0173338 -0.523194 -0.0654959
v 0.0159578 -0.522663 -0.0797725
v 0.0149488 -0.52229 -0.0888087
v 0.0135499 -0.52183 -0.0984776
v 0.00421626 -0.523407 -0.108779
v 0.00173952 -0.522663 -0.119798
v -0.00727303 -0.526864 -0.108779
v -0.0217436 -0.531118 -0.108779
v -0.0217436 -0.528973 -0.123277
v -0.0217436 -0.526545 -0.137775
v -0.0103689 -0.523301 -0.137775
v -0.0314441 -0.521457 -0.171548
v -0.0217665 -0.518107 -0.173203
v -0.0322697 -0.521156 -0.173203
v -0.0368562 -0.535053 -0.108769
v -0.0450432 -0.536294 -0.113587
v -0.0329347 -0.535709 -0.0942811
v -0.0306415 -0.536241 -0.0797725
v -0.0344483 -0.538102 -0.0654959
v 0.00724338 -0.526456 -0.0654959
v 0.00724338 -0.52541 -0.0797725
v 0.00811482 -0.523904 -0.0939015
v -0.00727303 -0.528495 -0.0942811
v -0.0217436 -0.532731 -0.0942811
v -0.0217436 -0.53383 -0.0797725
v -0.0293802 -0.536525 -0.0711053
v -0.0286922 -0.53672 -0.0654959
v 0.00701405 -0.526527 -0.0654959
v -0.00727303 -0.5297 -0.0797725
v -0.0227067 -0.535036 -0.0658649
v -0.00747942 -0.530781 -0.0654959
v -0.0128915 -0.532306 -0.0654959
v -0.0228214 -0.535089 -0.0654959
f 1 2 3
f 1 3 7
f 1 7 13
f 1 13 27
f 1 27 44
f 1 44 71
f 1 71 75
f 1 75 72
f 1 72 45
f 1 45 28
f 1 28 14
f 1 14 8
f 1 8 4
f 1 4 9
f 1 9 18
f 1 18 33
f 1 33 53
f 1 53 82
f 1 82 105
f 1 105 137
f 1 137 136
f 1 136 135
f 1 135 171
f 1 171 205
f 1 205 204
f 1 204 231
f 1 231 232
f 1 232 206
f 1 206 175
f 1 175 174
f 1 174 143
f 1 143 109
f 1 109 88
f 1 88 87
f 1 87 56
f 1 56 35
f 1 35 20
f 1 20 10
f 1 10 5
f 1 5 6
f 1 6 2
f 2 6 11
f 2 11 22
f 2 22 37
f 2 37 61
f 2 61 92
f 2 92 117
f 2 117 120
f 2 120 155
f 2 155 188
f 2 188 217
f 2 217 216
f 2 216 237
f 2 237 245
f 2 245 251
f 2 251 250
f 2 250 249
f 2 249 246
f 2 246 238
f 2 238 219
f 2 219 218
f 2 218 189
f 2 189 156
f 2 156 122
f 2 122 121
f 2 121 93
f 2 93 62
f 2 62 38
f 2 38 23
f 2 23 12
f 2 12 7
f 2 7 3
f 4 8 9
f 5 10 19
f 5 19 34
f 5 34 54
f 5 54 85
f 5 85 108
f 5 108 140
f 5 140 139
f 5 139 149
f 5 149 114
f 5 114 90
f 5 90 58
f 5 58 36
f 5 36 21
f 5 21 11
f 5 11 6
f 7 12 13
f 8 14 15
f 8 15 9
f 9 15 16
f 9 16 17
f 9 17 18
f 10 20 19
f 11 21 22
f 12 23 24
f 12 24 13
f 13 24 25
f 13 25 26
f 13 26 27
f 14 28 29
f 14 29 30
f 14 30 15
f 15 30 16
f 16 30 17
f 17 30 31
f 17 31 32
f 17 32 33
f 17 33 18
f 19 20 34
f 20 35 34
f 21 36 37
f 21 37 22
f 23 38 39
f 23 39 24
f 24 39 40
f 24 40 25
f 25 40 41
f 25 41 42
f 25 42 26
f 26 43 27
f 26 42 43
f 27 43 44
f 28 45 46
f 28 46 29
f 29 47 30
f 29 46 48
f 29 48 47
f 30 47 49
f 30 49 31
f 31 49 50
f 31 50 32
f 32 50 51
f 32 51 52
f 32 52 33
f 33 52 53
f 34 35 55
f 34 55 54
f 35 56 57
f 35 57 55
f 36 58 59
f 36 59 60
f 36 60 37
f 37 60 61
f 38 62 63
f 38 63 39
f 39 63 64
f 39 64 40
f 40 64 65
f 40 65 41
f 41 65 66
f 41 66 67
f 41 67 68
f 41 68 69
f 41 69 42
f 42 69 70
f 42 70 43
f 43 70 44
f 44 70 71
f 45 72 46
f 46 72 48
f 47 48 69
f 47 69 68
f 47 68 73
f 47 73 74
f 47 74 49
f 48 72 75
f 48 75 76
f 48 76 70
f 48 70 69
f 49 74 50
f 50 74 77
f 50 77 51
f 51 77 78
f 51 78 79
f 51 79 80
f 51 80 52
f 52 80 81
f 52 81 53
f 53 81 82
f 54 55 83
f 54 83 84
f 54 84 85
f 55 57 86
f 55 86 83
f 56 87 57
f 57 87 88
f 57 88 89
f 57 89 86
f 58 90 91
f 58 91 59
f 59 91 60
f 60 91 92
f 60 92 61
f 62 93 63
f 63 93 94
f 63 94 64
f 64 94 65
f 65 94 95
f 65 95 96
f 65 96 66
f 66 96 97
f 66 97 67
f 67 73 68
f 67 97 98
f 67 98 73
f 70 76 71
f 71 76 75
f 73 98 99
f 73 99 78
f 73 78 77
f 73 77 74
f 78 99 79
f 79 99 100
f 79 100 80
f 80 100 101
f 80 101 102
f 80 102 103
f 80 103 104
f 80 104 81
f 81 104 103
f 81 103 105
f 81 105 82
f 83 86 84
f 84 106 85
f 84 86 107
f 84 107 106
f 85 106 108
f 86 89 107
f 88 109 110
f 88 110 89
f 89 110 111
f 89 111 112
f 89 112 113
f 89 113 107
f 90 114 115
f 90 115 116
f 90 116 91
f 91 117 92
f 91 116 118
f 91 118 151
f 91 151 119
f 91 119 120
f 91 120 117
f 93 121 94
f 94 121 95
f 95 121 122
f 95 122 123
f 95 123 124
f 95 124 96
f 96 124 125
f 96 125 97
f 97 125 126
f 97 126 98
f 98 126 127
f 98 127 99
f 99 127 128
f 99 128 101
f 99 101 100
f 101 128 102
f 102 129 130
f 102 130 131
f 102 131 132
f 102 132 133
f 102 133 103
f 102 128 134
f 102 134 129
f 103 133 135
f 103 135 136
f 103 136 137
f 103 137 105
f 106 138 139
f 106 139 140
f 106 140 108
f 106 107 141
f 106 141 142
f 106 142 138
f 107 113 141
f 109 143 144
f 109 144 111
f 109 111 110
f 111 145 112
f 111 144 146
f 111 146 145
f 112 145 147
f 112 147 113
f 113 147 148
f 113 148 141
f 114 149 138
f 114 138 115
f 115 138 142
f 115 142 150
f 115 150 116
f 116 150 118
f 118 150 173
f 118 173 151
f 119 151 152
f 119 152 153
f 119 153 154
f 119 154 120
f 120 154 155
f 122 156 123
f 123 156 157
f 123 157 158
f 123 158 159
f 123 159 124
f 124 159 160
f 124 160 125
f 125 160 161
f 125 161 126
f 126 161 127
f 127 161 162
f 127 162 163
f 127 163 129
f 127 129 164
f 127 164 128
f 128 164 134
f 129 134 164
f 129 163 165
f 129 165 130
f 130 165 131
f 131 166 132
f 131 165 167
f 131 167 168
f 131 168 169
f 131 169 166
f 132 166 170
f 132 170 133
f 133 170 171
f 133 171 135
f 138 149 139
f 141 148 172
f 141 172 142
f 142 172 173
f 142 173 150
f 143 174 144
f 144 174 175
f 144 175 176
f 144 176 177
f 144 177 146
f 145 146 147
f 146 177 178
f 146 178 147
f 147 179 172
f 147 172 148
f 147 178 180
f 147 180 181
f 147 181 182
f 147 182 179
f 151 173 152
f 152 173 183
f 152 183 153
f 153 184 185
f 153 185 186
f 153 186 187
f 153 187 154
f 153 183 184
f 154 187 155
f 155 187 188
f 156 189 157
f 157 189 190
f 157 190 158
f 158 191 160
f 158 160 159
f 158 190 192
f 158 192 193
f 158 193 191
f 160 191 161
f 161 191 162
f 162 191 194
f 162 194 163
f 163 194 195
f 163 195 196
f 163 196 165
f 165 196 197
f 165 197 198
f 165 198 167
f 166 169 170
f 167 198 199
f 167 199 168
f 168 200 201
f 168 201 202
f 168 202 203
f 168 203 169
f 168 199 200
f 169 203 204
f 169 204 205
f 169 205 171
f 169 171 170
f 172 179 183
f 172 183 173
f 175 206 176
f 176 206 207
f 176 207 177
f 177 207 201
f 177 201 208
f 177 208 178
f 178 181 180
f 178 208 209
f 178 209 210
f 178 210 181
f 179 182 184
f 179 184 183
f 181 210 211
f 181 211 182
f 182 211 184
f 184 211 212
f 184 212 185
f 185 212 213
f 185 213 214
f 185 214 215
f 185 215 186
f 186 215 216
f 186 216 217
f 186 217 187
f 187 217 188
f 189 218 190
f 190 218 192
f 191 193 194
f 192 218 219
f 192 219 220
f 192 220 221
f 192 221 193
f 193 221 222
f 193 222 194
f 194 222 195
f 195 222 223
f 195 223 224
f 195 224 196
f 196 224 197
f 197 224 225
f 197 225 226
f 197 226 227
f 197 227 228
f 197 228 229
f 197 229 198
f 198 229 199
f 199 229 228
f 199 228 200
f 200 228 208
f 200 208 201
f 201 207 202
f 202 230 203
f 202 207 230
f 203 230 231
f 203 231 204
f 206 232 230
f 206 230 207
f 208 228 227
f 208 227 209
f 209 233 234
f 209 234 210
f 209 227 226
f 209 226 233
f 210 234 211
f 211 234 212
f 212 234 213
f 213 234 233
f 213 233 235
f 213 235 214
f 214 235 215
f 215 235 236
f 215 236 237
f 215 237 216
f 219 238 220
f 220 238 239
f 220 239 221
f 221 239 240
f 221 240 222
f 222 240 241
f 222 241 225
f 222 225 223
f 223 225 224
f 225 241 226
f 226 242 235
f 226 235 233
f 226 241 242
f 230 232 231
f 235 242 236
f 236 242 243
f 236 243 244
f 236 244 237
f 237 244 245
f 238 246 239
f 239 246 247
f 239 247 241
f 239 241 240
f 241 247 242
f 242 247 243
f 243 248 245
f 243 245 244
f 243 247 249
f 243 249 250
f 243 250 248
f 245 248 251
f 246 249 247
f 248 250 251
