v -0.125309 -0.0585615 -0.378908
v 0.0941615 -0.0585615 -0.39759
v -0.125309 -0.0585615 -0.320513
v -0.125309 -0.00724726 -0.380183
v 0.0502631 0.196288 -0.41274
v 0.0941615 0.137864 -0.41276
v 0.0941615 -0.0585615 -0.321384
v -0.123268 -0.0585615 -0.320513
v 0.0941615 0.196263 -0.309684
v -0.125309 -0.0527989 -0.320341
v -0.125309 0.196288 -0.384029
v 0.0507573 0.196288 -0.41275
v 0.0797651 0.166777 -0.413074
v 0.0941615 0.152358 -0.412507
v 0.0941615 0.196288 -0.33872
v 0.0802593 0.196288 -0.313095
v -0.125309 0.196288 -0.321667
v -0.125309 0.195789 -0.321657
v -0.125309 0.123271 -0.320331
v -0.125309 0.106707 -0.320038
v -0.125309 0.0797648 -0.319582
v -0.125309 0.0630509 -0.319309
v -0.125309 0.0517004 -0.319127
v -0.125309 0.0363336 -0.318894
v -0.125309 0.0342132 -0.318864
v -0.125309 0.0217651 -0.318732
v -0.125309 0.0197195 -0.318732
v -0.125309 0.00727138 -0.318803
v -0.125309 0.00552516 -0.318833
v -0.125309 -0.00318104 -0.319005
v -0.125309 -0.00420383 -0.319026
v -0.125309 -0.0104404 -0.319187
v -0.125309 -0.0237866 -0.319542
v -0.125309 -0.0362347 -0.319876
v -0.125309 -0.0507533 -0.32028
v 0.064767 0.196288 -0.412659
v 0.0652612 0.195789 -0.412649
v 0.0797651 0.181296 -0.411698
v 0.0941615 0.16785 -0.409825
v 0.0941615 0.196288 -0.392965
v 0.0652397 0.196288 -0.412528
v 0.079099 0.194517 -0.408318
v 0.0899071 0.181296 -0.407872
v 0.077466 0.196288 -0.408409
v 0.0941615 0.169396 -0.409411
v 0.0941615 0.195091 -0.393916
v 0.0872212 0.188829 -0.406273
v 0.0843419 0.196288 -0.403288
v 0.078175 0.196288 -0.408105
v 0.0941615 0.177529 -0.406658
v 0.0941615 0.184713 -0.401911
f 1 2 7
f 1 7 8
f 1 8 3
f 1 3 10
f 1 10 35
f 1 35 34
f 1 34 33
f 1 33 32
f 1 32 31
f 1 31 30
f 1 30 29
f 1 29 28
f 1 28 27
f 1 27 26
f 1 26 25
f 1 25 24
f 1 24 23
f 1 23 22
f 1 22 21
f 1 21 20
f 1 20 19
f 1 19 18
f 1 18 17
f 1 17 11
f 1 11 4
f 1 4 5
f 1 5 6
f 1 6 2
f 2 6 14
f 2 14 39
f 2 39 45
f 2 45 50
f 2 50 51
f 2 51 46
f 2 46 40
f 2 40 15
f 2 15 9
f 2 9 7
f 3 8 9
f 3 9 10
f 4 11 5
f 5 11 17
f 5 17 16
f 5 16 15
f 5 15 40
f 5 40 48
f 5 48 49
f 5 49 44
f 5 44 41
f 5 41 36
f 5 36 12
f 5 12 13
f 5 13 6
f 6 13 14
f 7 9 8
f 9 15 16
f 9 16 17
f 9 17 18
f 9 18 19
f 9 19 20
f 9 20 21
f 9 21 22
f 9 22 23
f 9 23 24
f 9 24 25
f 9 25 26
f 9 26 27
f 9 27 28
f 9 28 29
f 9 29 30
f 9 30 31
f 9 31 32
f 9 32 33
f 9 33 34
f 9 34 35
f 9 35 10
f 12 36 13
f 13 36 37
f 13 37 14
f 14 37 38
f 14 38 39
f 36 41 37
f 37 41 38
f 38 42 43
f 38 43 39
f 38 41 44
f 38 44 42
f 39 43 45
f 40 46 47
f 40 47 48
f 42 44 49
f 42 49 43
f 43 49 47
f 43 47 50
f 43 50 45
f 46 51 47
f 47 51 50
f 47 49 48
