v -0.662644 0.167421 -0.222282
v -0.655308 0.167421 -0.236773
v -0.579614 0.167421 -0.220764
v -0.638733 0.22752 -0.220797
v -0.652422 0.19514 -0.221908
v -0.657164 0.181432 -0.223037
v -0.651863 0.186559 -0.230461
v -0.653653 0.17688 -0.233886
v -0.649738 0.167421 -0.246321
v -0.481396 0.167421 -0.305506
v -0.434177 0.354572 -0.220764
v -0.580531 0.320547 -0.220764
v -0.636183 0.224833 -0.228254
v -0.637995 0.217266 -0.231804
v -0.644705 0.211536 -0.223443
v -0.608089 0.280792 -0.22185
v -0.624104 0.253841 -0.222406
v -0.632828 0.237226 -0.222705
v -0.648978 0.181569 -0.238963
v -0.642491 0.1961 -0.239942
v -0.643497 0.167421 -0.256059
v -0.641372 0.181322 -0.251571
v -0.637369 0.177676 -0.259941
v -0.602653 0.167421 -0.302901
v -0.596122 0.177374 -0.305506
v -0.434177 0.232236 -0.305506
v -0.434177 0.415657 -0.270235
v -0.434221 0.434603 -0.245881
v -0.436257 0.447516 -0.220764
v -0.532037 0.374065 -0.220764
v -0.567759 0.336038 -0.220955
v -0.573105 0.326634 -0.225185
v -0.568251 0.322302 -0.23932
v -0.578473 0.316873 -0.229241
v -0.592968 0.302397 -0.222796
v -0.598336 0.294912 -0.222796
v -0.623411 0.246219 -0.231697
v -0.623746 0.238569 -0.238357
v -0.623277 0.231359 -0.245981
v -0.63795 0.209589 -0.237727
v -0.595384 0.291156 -0.233273
v -0.608133 0.27391 -0.230137
v -0.610997 0.264232 -0.235263
v -0.639337 0.191466 -0.248419
v -0.637301 0.201117 -0.245193
v -0.635176 0.167641 -0.267622
v -0.628131 0.167421 -0.276531
v -0.624686 0.176689 -0.276747
v -0.633924 0.1961 -0.253479
v -0.62435 0.204654 -0.262048
v -0.626252 0.195826 -0.264561
v -0.622717 0.186367 -0.274424
v -0.61254 0.167421 -0.293395
v -0.610572 0.177867 -0.291487
v -0.608737 0.187573 -0.289646
v -0.599723 0.195826 -0.294905
v -0.593236 0.186285 -0.304718
v -0.582701 0.207341 -0.305506
v -0.452854 0.365237 -0.305506
v -0.435407 0.377794 -0.305456
v -0.434177 0.401263 -0.285432
v -0.435899 0.407569 -0.278439
v -0.447307 0.404389 -0.273694
v -0.441737 0.412916 -0.267796
v -0.434669 0.420976 -0.263342
v -0.441558 0.424321 -0.253347
v -0.451422 0.421799 -0.248187
v -0.443213 0.432218 -0.240307
v -0.448582 0.434411 -0.230859
v -0.436525 0.438441 -0.236781
v -0.441961 0.44206 -0.224331
v -0.45565 0.434658 -0.222066
v -0.494146 0.407679 -0.220764
v -0.510452 0.394135 -0.221129
v -0.525349 0.380097 -0.221353
v -0.539687 0.365539 -0.222796
v -0.554047 0.351309 -0.221452
v -0.559349 0.341932 -0.226462
v -0.564873 0.332693 -0.230801
v -0.565902 0.319423 -0.246959
v -0.562189 0.329567 -0.23932
v -0.614128 0.254307 -0.239784
v -0.610057 0.233854 -0.262214
v -0.62019 0.225848 -0.254052
v -0.625581 0.221708 -0.249365
v -0.608156 0.259461 -0.244935
v -0.610997 0.249783 -0.249216
v -0.613479 0.238953 -0.25396
v -0.592073 0.286604 -0.242936
v -0.595518 0.276926 -0.24783
v -0.597934 0.28219 -0.23859
v -0.605583 0.268783 -0.239784
v -0.627616 0.209836 -0.254052
v -0.619966 0.167421 -0.285763
v -0.613479 0.195826 -0.280496
v -0.622158 0.214305 -0.259037
v -0.616566 0.210604 -0.268493
v -0.620727 0.195826 -0.271811
v -0.611019 0.206875 -0.277717
v -0.60697 0.195826 -0.287746
v -0.596994 0.207478 -0.292325
v -0.590015 0.195826 -0.30383
v -0.578965 0.21595 -0.304784
v -0.567513 0.23517 -0.305506
v -0.49853 0.324495 -0.305506
v -0.491886 0.332336 -0.304817
v -0.476587 0.346155 -0.304601
v -0.461197 0.359863 -0.304369
v -0.471397 0.365758 -0.292814
v -0.457753 0.370529 -0.297941
v -0.444712 0.373161 -0.303913
v -0.441469 0.383662 -0.296796
v -0.435631 0.393422 -0.291694
v -0.446747 0.389556 -0.288202
v -0.442207 0.398659 -0.282719
v -0.458222 0.399838 -0.269505
v -0.462696 0.404992 -0.259717
v -0.453011 0.408447 -0.264022
v -0.453771 0.394711 -0.27853
v -0.463434 0.391037 -0.274988
v -0.44583 0.418125 -0.257859
v -0.457059 0.413437 -0.253952
v -0.467751 0.408748 -0.250053
v -0.461085 0.418427 -0.243268
v -0.456522 0.424376 -0.238789
v -0.465425 0.421525 -0.233604
v -0.474327 0.420126 -0.224944
v -0.483521 0.41489 -0.222307
v -0.491238 0.404581 -0.229656
v -0.50099 0.399317 -0.225575
v -0.506962 0.390955 -0.231166
v -0.53669 0.362605 -0.232103
v -0.547739 0.356875 -0.223435
v -0.550938 0.347882 -0.231796
v -0.552124 0.334612 -0.247839
v -0.548254 0.330061 -0.257511
v -0.552168 0.320355 -0.262297
v -0.562771 0.311801 -0.257701
v -0.565589 0.304563 -0.261036
v -0.578764 0.28814 -0.259278
v -0.554942 0.33782 -0.23932
v -0.606366 0.224833 -0.272334
v -0.608581 0.216553 -0.274955
v -0.612339 0.224833 -0.265084
v -0.607418 0.243504 -0.258888
v -0.60187 0.239337 -0.268319
v -0.597665 0.267193 -0.253131
v -0.604823 0.254307 -0.25396
v -0.582186 0.278461 -0.26345
v -0.591827 0.271278 -0.257502
v -0.602787 0.212029 -0.283773
v -0.594399 0.217156 -0.289828
v -0.582097 0.235718 -0.29201
v -0.58505 0.224833 -0.294772
v -0.577288 0.224833 -0.302022
v -0.573329 0.24016 -0.2978
v -0.563621 0.243861 -0.304543
v -0.553622 0.257213 -0.305423
v -0.538815 0.278379 -0.305506
v -0.506336 0.317696 -0.304776
v -0.512376 0.309717 -0.305506
v -0.501393 0.327374 -0.301632
v -0.50873 0.334667 -0.290964
v -0.499469 0.340013 -0.293635
v -0.486921 0.341549 -0.301275
v -0.472023 0.355668 -0.300446
v -0.47889 0.36277 -0.290234
v -0.463121 0.376286 -0.289347
v -0.453436 0.379905 -0.292648
v -0.468914 0.395314 -0.265316
v -0.4786 0.39153 -0.261028
v -0.493407 0.391777 -0.246818
v -0.472806 0.388569 -0.269414
v -0.471397 0.380591 -0.278962
v -0.479136 0.377465 -0.275975
v -0.477437 0.405157 -0.245217
v -0.471442 0.413354 -0.239411
v -0.481552 0.408282 -0.235554
v -0.486205 0.401839 -0.239958
v -0.496427 0.394217 -0.23932
v -0.503674 0.388103 -0.23932
v -0.508528 0.377876 -0.247523
v -0.52347 0.363811 -0.248245
v -0.528749 0.366032 -0.237893
v -0.533156 0.359013 -0.241775
v -0.540224 0.354627 -0.237893
v -0.548343 0.345113 -0.23932
v -0.538569 0.335654 -0.263085
v -0.537875 0.349335 -0.248195
v -0.534073 0.345332 -0.257867
v -0.547739 0.314789 -0.271952
v -0.55492 0.310704 -0.267597
v -0.543154 0.325345 -0.267506
v -0.551564 0.305193 -0.276
v -0.577914 0.272539 -0.273122
v -0.593661 0.244848 -0.274432
v -0.596323 0.23517 -0.277402
v -0.599119 0.224833 -0.280388
v -0.594936 0.2616 -0.261459
v -0.597218 0.253841 -0.264122
v -0.591156 0.253841 -0.27138
v -0.581292 0.262888 -0.276855
v -0.586548 0.267056 -0.267282
v -0.592319 0.224833 -0.287638
v -0.579457 0.245396 -0.289397
v -0.569616 0.253841 -0.293727
v -0.561362 0.253841 -0.300977
v -0.546845 0.270072 -0.303805
v -0.544317 0.283424 -0.2978
v -0.533849 0.286879 -0.304328
v -0.525931 0.294254 -0.305506
v -0.515597 0.31276 -0.301076
v -0.514098 0.325235 -0.293486
v -0.520137 0.302424 -0.304552
v -0.522732 0.319697 -0.29055
v -0.51837 0.329375 -0.286867
v -0.524029 0.335654 -0.277195
v -0.514098 0.339986 -0.28208
v -0.509803 0.349911 -0.277294
v -0.503674 0.344345 -0.286966
v -0.494011 0.348842 -0.290716
v -0.484594 0.354325 -0.292939
v -0.49457 0.363784 -0.276763
v -0.483856 0.368116 -0.281201
v -0.471397 0.372996 -0.286211
v -0.488553 0.35852 -0.286427
v -0.484751 0.3807 -0.267423
v -0.494146 0.377931 -0.262015
v -0.485892 0.388569 -0.257602
v -0.509512 0.364086 -0.262761
v -0.519198 0.359973 -0.257917
v -0.4888 0.373435 -0.271662
v -0.528771 0.354654 -0.253056
v -0.52904 0.340507 -0.268079
v -0.533715 0.330308 -0.272732
v -0.524387 0.350322 -0.263425
v -0.538054 0.320629 -0.27683
v -0.543311 0.310704 -0.279484
v -0.536645 0.304618 -0.29006
v -0.544742 0.298805 -0.286825
v -0.550088 0.288743 -0.289065
v -0.553734 0.279065 -0.292433
v -0.563397 0.272375 -0.28787
v -0.568251 0.279119 -0.278198
v -0.583909 0.253841 -0.27965
v -0.566752 0.262724 -0.291089
v -0.576863 0.253841 -0.2869
v -0.54047 0.294939 -0.293494
v -0.530874 0.299052 -0.298546
v -0.526221 0.311801 -0.293337
v -0.533491 0.311801 -0.287381
v -0.528234 0.325016 -0.281848
v -0.519489 0.345332 -0.273097
v -0.5145 0.354956 -0.267921
v -0.504234 0.359589 -0.272417
f 1 2 9
f 1 9 21
f 1 21 47
f 1 47 94
f 1 94 53
f 1 53 24
f 1 24 10
f 1 10 3
f 1 3 4
f 1 4 5
f 1 5 6
f 1 6 7
f 1 7 8
f 1 8 2
f 2 8 9
f 3 10 11
f 3 11 29
f 3 29 73
f 3 73 30
f 3 30 12
f 3 12 4
f 4 13 14
f 4 14 15
f 4 15 5
f 4 12 16
f 4 16 17
f 4 17 18
f 4 18 13
f 5 7 6
f 5 15 7
f 7 19 8
f 7 15 14
f 7 14 20
f 7 20 19
f 8 19 9
f 9 19 22
f 9 22 23
f 9 23 21
f 10 24 25
f 10 25 58
f 10 58 104
f 10 104 159
f 10 159 211
f 10 211 161
f 10 161 105
f 10 105 59
f 10 59 26
f 10 26 11
f 11 27 28
f 11 28 29
f 11 26 61
f 11 61 27
f 12 30 31
f 12 31 32
f 12 32 33
f 12 33 34
f 12 34 35
f 12 35 36
f 12 36 16
f 13 18 37
f 13 37 38
f 13 38 39
f 13 39 14
f 14 39 40
f 14 40 20
f 16 36 41
f 16 41 42
f 16 42 17
f 17 43 37
f 17 37 18
f 17 42 43
f 19 20 44
f 19 44 22
f 20 40 45
f 20 45 44
f 21 23 46
f 21 46 47
f 22 44 23
f 23 48 46
f 23 44 49
f 23 49 50
f 23 50 51
f 23 51 52
f 23 52 48
f 24 53 54
f 24 54 25
f 25 54 55
f 25 55 56
f 25 56 57
f 25 57 58
f 26 59 60
f 26 60 61
f 27 61 62
f 27 62 63
f 27 63 64
f 27 64 65
f 27 65 28
f 28 65 66
f 28 66 67
f 28 67 68
f 28 68 69
f 28 69 70
f 28 70 29
f 29 70 69
f 29 69 71
f 29 71 72
f 29 72 73
f 30 73 74
f 30 74 75
f 30 75 76
f 30 76 77
f 30 77 31
f 31 77 78
f 31 78 79
f 31 79 32
f 32 79 33
f 33 80 34
f 33 79 81
f 33 81 80
f 34 80 41
f 34 41 35
f 35 41 36
f 37 43 82
f 37 82 39
f 37 39 38
f 39 83 84
f 39 84 85
f 39 85 45
f 39 45 40
f 39 82 86
f 39 86 87
f 39 87 88
f 39 88 83
f 41 89 90
f 41 90 91
f 41 91 42
f 41 80 89
f 42 91 92
f 42 92 43
f 43 92 86
f 43 86 82
f 44 45 93
f 44 93 49
f 45 85 93
f 46 48 47
f 47 48 94
f 48 52 95
f 48 95 55
f 48 55 94
f 49 93 50
f 50 93 96
f 50 96 97
f 50 97 98
f 50 98 51
f 51 98 52
f 52 98 99
f 52 99 95
f 53 94 54
f 54 94 55
f 55 95 100
f 55 100 56
f 56 100 101
f 56 101 102
f 56 102 57
f 57 102 58
f 58 101 103
f 58 103 104
f 58 102 101
f 59 105 106
f 59 106 107
f 59 107 108
f 59 108 109
f 59 109 110
f 59 110 111
f 59 111 60
f 60 111 112
f 60 112 113
f 60 113 61
f 61 113 114
f 61 114 115
f 61 115 62
f 62 115 63
f 63 116 117
f 63 117 118
f 63 118 64
f 63 115 119
f 63 119 120
f 63 120 116
f 64 118 121
f 64 121 65
f 65 121 66
f 66 121 67
f 67 121 118
f 67 118 122
f 67 122 123
f 67 123 124
f 67 124 125
f 67 125 68
f 68 125 69
f 69 125 126
f 69 126 72
f 69 72 71
f 72 126 127
f 72 127 128
f 72 128 73
f 73 128 129
f 73 129 130
f 73 130 74
f 74 130 131
f 74 131 75
f 75 131 132
f 75 132 76
f 76 132 133
f 76 133 77
f 77 133 134
f 77 134 78
f 78 134 79
f 79 134 81
f 80 81 135
f 80 135 136
f 80 136 137
f 80 137 138
f 80 138 139
f 80 139 140
f 80 140 90
f 80 90 89
f 81 134 141
f 81 141 135
f 83 142 143
f 83 143 144
f 83 144 96
f 83 96 84
f 83 88 145
f 83 145 146
f 83 146 142
f 84 96 85
f 85 96 93
f 86 92 90
f 86 90 87
f 87 90 147
f 87 147 148
f 87 148 145
f 87 145 88
f 90 140 149
f 90 149 150
f 90 150 147
f 90 92 91
f 95 99 100
f 96 144 97
f 97 144 143
f 97 143 99
f 97 99 98
f 99 143 151
f 99 151 101
f 99 101 100
f 101 151 152
f 101 152 153
f 101 153 154
f 101 154 155
f 101 155 103
f 103 155 104
f 104 155 156
f 104 156 157
f 104 157 158
f 104 158 159
f 105 160 106
f 105 161 160
f 106 160 162
f 106 162 163
f 106 163 164
f 106 164 165
f 106 165 107
f 107 166 108
f 107 165 166
f 108 166 167
f 108 167 109
f 109 167 168
f 109 168 110
f 110 168 169
f 110 169 111
f 111 169 112
f 112 114 113
f 112 169 114
f 114 119 115
f 114 169 119
f 116 120 117
f 117 123 122
f 117 122 118
f 117 120 170
f 117 170 171
f 117 171 172
f 117 172 123
f 119 169 168
f 119 168 120
f 120 173 171
f 120 171 170
f 120 168 174
f 120 174 175
f 120 175 173
f 123 172 176
f 123 176 124
f 124 126 125
f 124 176 177
f 124 177 126
f 126 177 178
f 126 178 128
f 126 128 127
f 128 178 129
f 129 178 179
f 129 179 172
f 129 172 180
f 129 180 131
f 129 131 130
f 131 181 182
f 131 182 183
f 131 183 184
f 131 184 132
f 131 180 172
f 131 172 181
f 132 184 183
f 132 183 185
f 132 185 186
f 132 186 187
f 132 187 134
f 132 134 133
f 134 187 135
f 134 135 141
f 135 188 136
f 135 187 189
f 135 189 190
f 135 190 188
f 136 188 137
f 137 191 192
f 137 192 139
f 137 139 138
f 137 188 193
f 137 193 191
f 139 192 194
f 139 194 195
f 139 195 149
f 139 149 140
f 142 146 196
f 142 196 143
f 143 196 197
f 143 197 198
f 143 198 151
f 145 148 199
f 145 199 200
f 145 200 201
f 145 201 196
f 145 196 146
f 147 150 199
f 147 199 148
f 149 195 202
f 149 202 203
f 149 203 150
f 150 203 199
f 151 198 152
f 152 198 204
f 152 204 205
f 152 205 153
f 153 205 156
f 153 156 155
f 153 155 154
f 156 205 206
f 156 206 157
f 157 206 207
f 157 207 158
f 158 207 208
f 158 208 159
f 159 208 209
f 159 209 210
f 159 210 211
f 160 212 213
f 160 213 163
f 160 163 162
f 160 161 214
f 160 214 212
f 161 211 214
f 163 213 215
f 163 215 216
f 163 216 217
f 163 217 218
f 163 218 219
f 163 219 220
f 163 220 221
f 163 221 164
f 164 221 165
f 165 221 222
f 165 222 166
f 166 222 167
f 167 223 224
f 167 224 175
f 167 175 174
f 167 174 225
f 167 225 168
f 167 222 221
f 167 221 226
f 167 226 223
f 168 225 174
f 171 173 175
f 171 175 227
f 171 227 228
f 171 228 229
f 171 229 172
f 172 229 228
f 172 228 230
f 172 230 231
f 172 231 182
f 172 182 181
f 172 179 176
f 175 224 223
f 175 223 232
f 175 232 228
f 175 228 227
f 176 179 178
f 176 178 177
f 182 231 183
f 183 231 233
f 183 233 189
f 183 189 185
f 185 189 186
f 186 189 187
f 188 234 235
f 188 235 193
f 188 190 236
f 188 236 234
f 189 233 190
f 190 233 236
f 191 193 237
f 191 237 194
f 191 194 192
f 193 235 237
f 194 237 238
f 194 238 239
f 194 239 240
f 194 240 241
f 194 241 242
f 194 242 243
f 194 243 244
f 194 244 202
f 194 202 195
f 196 201 202
f 196 202 245
f 196 245 197
f 197 204 198
f 197 245 205
f 197 205 204
f 199 203 202
f 199 202 201
f 199 201 200
f 202 246 247
f 202 247 205
f 202 205 245
f 202 244 243
f 202 243 246
f 205 247 206
f 206 247 246
f 206 246 207
f 207 246 208
f 208 246 242
f 208 242 209
f 209 242 248
f 209 248 210
f 210 248 249
f 210 249 214
f 210 214 211
f 212 215 213
f 212 214 249
f 212 249 250
f 212 250 215
f 215 250 239
f 215 239 251
f 215 251 237
f 215 237 252
f 215 252 216
f 216 252 217
f 217 252 237
f 217 237 235
f 217 235 253
f 217 253 218
f 218 253 219
f 219 221 220
f 219 253 254
f 219 254 255
f 219 255 223
f 219 223 226
f 219 226 221
f 223 255 228
f 223 228 232
f 228 255 230
f 230 255 254
f 230 254 231
f 231 254 236
f 231 236 233
f 234 236 253
f 234 253 235
f 236 254 253
f 237 251 239
f 237 239 238
f 239 250 249
f 239 249 248
f 239 248 240
f 240 248 241
f 241 248 242
f 242 246 243
