v 0.529591 0.0798081 -0.022061
v 0.53002 0.0666227 -0.022061
v 0.62335 0.0942651 0.124776
v 0.623428 0.108767 0.124776
v 0.623759 0.123269 0.124776
v 0.529961 0.0935958 -0.022061
v 0.62409 0.0792949 0.124776
v 0.531383 0.0519425 -0.022061
v 0.531091 0.109815 -0.022061
v 0.624849 0.138194 0.124776
v 0.625297 0.0678051 0.124776
v 0.533895 0.0362807 -0.022061
v 0.627108 0.152272 0.124776
v 0.534907 0.126481 -0.022061
v 0.62816 0.0507824 0.124776
v 0.53886 0.0201949 -0.022061
v 0.634644 0.0224706 0.124776
v 0.631139 0.0370392 0.124776
v 0.631548 0.16722 0.124776
v 0.538899 0.13777 -0.022061
v 0.639298 0.00946367 0.124776
v 0.545033 0.00834816 -0.022061
v 0.636182 0.176769 0.124776
v 0.545773 0.150844 -0.022061
v 0.648294 -0.00570734 0.124776
v 0.550816 0.000271822 -0.022061
v 0.642783 0.184421 0.124776
v 0.558293 0.167711 -0.022061
v 0.654136 -0.0129582 0.124776
v 0.557729 -0.00731368 -0.022061
v 0.570756 0.179 -0.022061
v 0.649657 0.190623 0.124776
v 0.565303 -0.0144307 -0.022061
v 0.662022 -0.0192497 0.124776
v 0.587911 0.188013 -0.022061
v 0.724002 0.107919 0.124502
v 0.699603 0.178018 0.124402
v 0.674406 0.195532 0.124028
v 0.659899 0.194952 0.124028
v 0.689653 -0.0265005 0.124776
v 0.575176 -0.0217484 -0.022061
v 0.58608 -0.0286423 -0.022061
v 0.675166 -0.0256304 0.124776
v 0.616418 0.192274 0.00726601
v 0.602008 0.190133 -0.0219029
v 0.615464 0.188638 -0.022061
v 0.727702 0.0798081 0.124028
v 0.725384 0.0953806 0.12167
v 0.720808 0.108767 0.108761
v 0.721042 0.122867 0.124028
v 0.717148 0.13777 0.124028
v 0.71152 0.153901 0.124215
v 0.721081 0.00654102 0.124402
v 0.728266 0.0507824 0.124028
v 0.728519 0.0652841 0.124028
v 0.705951 0.166394 0.124028
v 0.697773 0.176501 0.108761
v 0.691775 0.183752 0.108761
v 0.690023 0.188504 0.124028
v 0.684532 0.190423 0.108761
v 0.674406 0.194438 0.108761
v 0.659899 0.194238 0.0652588
v 0.659899 0.195197 0.0797642
v 0.659899 0.195442 0.0942552
v 0.659899 0.195219 0.108761
v 0.645393 0.194795 0.0507678
v 0.601755 -0.0323905 -0.0219892
v 0.616418 -0.0317881 -0.00723939
v 0.656998 -0.0293786 0.0460956
v 0.674406 -0.027973 0.0797642
v 0.688894 -0.0262998 0.108761
v 0.702427 -0.0195174 0.108761
v 0.707723 -0.0173087 0.124114
v 0.630574 -0.0282854 -0.0219892
v 0.616262 -0.0321004 -0.0219892
v 0.658244 0.00667488 -0.022061
v 0.630905 0.193546 0.0217714
v 0.616418 0.191583 -0.00723939
v 0.630905 0.192185 0.00726601
v 0.629562 0.189619 -0.00585929
v 0.623876 0.188593 -0.0147005
v 0.628218 0.181387 -0.022061
v 0.725268 0.0652841 0.108344
v 0.724781 0.0798081 0.110356
v 0.724275 0.0905393 0.112772
v 0.71668 0.108767 0.0942552
v 0.717868 0.123269 0.108761
v 0.718881 0.0942651 0.0942552
v 0.71191 0.141384 0.105296
v 0.710177 0.149952 0.110126
v 0.702777 0.166774 0.108761
v 0.714616 -0.00849613 0.123439
v 0.713662 -0.00572965 0.108761
v 0.718705 0.00727726 0.108761
v 0.725092 0.0221582 0.124028
v 0.727234 0.0362807 0.124028
v 0.724781 0.0362807 0.110457
v 0.725287 0.0507824 0.108229
v 0.686362 0.180004 0.0797642
v 0.696936 0.172262 0.0959516
v 0.680832 0.187835 0.083617
v 0.682857 0.189396 0.0971448
v 0.670434 0.190467 0.0652588
v 0.672926 0.191538 0.0797642
v 0.645393 0.193858 0.0362624
v 0.66615 0.189664 0.0507678
v 0.656901 0.190534 0.0362624
v 0.644964 -0.0298471 0.00868924
v 0.660386 -0.0287539 0.0362624
v 0.674406 -0.0272368 0.0652588
v 0.688894 -0.0253404 0.0942552
v 0.700674 -0.0186027 0.0942552
v 0.710118 -0.0136721 0.112628
v 0.688894 -0.023444 0.0797642
v 0.644731 -0.0183796 -0.0212991
v 0.637078 -0.0285977 -0.0129467
v 0.639862 -0.0296463 -0.00328598
v 0.667727 0.00727726 -0.00815945
v 0.66835 -0.00220462 -0.00189151
v 0.653902 -0.00666668 -0.0200053
v 0.662236 0.021422 -0.022061
v 0.668467 0.0224036 -0.0132917
v 0.645957 0.191136 0.0215845
v 0.639473 0.189084 0.00358575
v 0.633515 0.185693 -0.00976956
v 0.639882 0.176032 -0.0169144
v 0.64181 0.166238 -0.022061
v 0.721587 0.0652841 0.0942552
v 0.720653 0.0798081 0.0942552
v 0.711072 0.108767 0.0785423
v 0.710118 0.123826 0.0838183
v 0.710644 0.136543 0.0952041
v 0.715707 0.0798081 0.0797642
v 0.705094 0.152272 0.0942552
v 0.711345 -0.00133452 0.0904168
v 0.707918 -0.00963395 0.0942552
v 0.715239 0.00727726 0.0942552
v 0.718705 0.021779 0.0942552
v 0.723982 0.0259956 0.112987
v 0.72077 0.0362807 0.0942552
v 0.721607 0.0507824 0.0942552
v 0.677677 0.184399 0.0652588
v 0.683811 0.177148 0.0652588
v 0.695787 0.164877 0.0807274
v 0.682215 0.174917 0.0566189
v 0.654038 0.189307 0.0262998
v 0.664183 0.18567 0.0362624
v 0.652656 -0.0289993 0.0144828
v 0.698552 -0.0169071 0.0797642
v 0.674406 -0.0252512 0.0507678
v 0.689653 -0.0194505 0.0654457
v 0.644964 -0.0250727 -0.00775692
v 0.654116 -0.0159701 -0.0110634
v 0.649521 -0.0273707 0.00480771
v 0.679956 0.00997681 0.0107163
v 0.682838 0.00513547 0.0187093
v 0.680929 -0.00557347 0.023554
v 0.668331 -0.0095001 0.0049371
v 0.667104 0.0497338 -0.019574
v 0.66652 0.0357452 -0.0193009
v 0.659822 0.0947113 -0.022061
v 0.681241 0.021779 0.00791293
v 0.674153 0.0362807 -0.00723939
v 0.651176 0.187634 0.0166392
v 0.647982 0.184488 0.00726601
v 0.655187 0.177237 0.00726601
v 0.653746 0.170566 -0.00173337
v 0.649793 0.166774 -0.0103446
v 0.65433 0.15486 -0.0107328
v 0.650825 0.149104 -0.0187546
v 0.653279 0.13777 -0.0199046
v 0.655616 0.123269 -0.0211841
v 0.657602 0.108945 -0.022061
v 0.716992 0.0507824 0.0797642
v 0.716817 0.0652841 0.0797642
v 0.709865 0.0945329 0.0698017
v 0.705484 0.108767 0.0652588
v 0.702466 0.123269 0.0652588
v 0.705094 0.13777 0.0797642
v 0.69787 0.156132 0.0758827
v 0.710878 0.0652841 0.064655
v 0.710235 0.0798081 0.0662364
v 0.710469 0.00674181 0.078916
v 0.705932 -0.00595275 0.0809431
v 0.696936 -0.0153231 0.0703911
v 0.710956 0.0181201 0.071728
v 0.714266 0.021779 0.0797642
v 0.716194 0.0362807 0.0797642
v 0.682117 0.168648 0.0491721
v 0.668039 0.17543 0.0273062
v 0.670356 0.17842 0.0362624
v 0.659744 0.181543 0.0219727
v 0.671154 -0.018268 0.0217714
v 0.675341 -0.0204098 0.0358311
v 0.685544 -0.0180673 0.0507678
v 0.668526 -0.0159924 0.0122257
v 0.65912 -0.0216815 0.00851672
v 0.688699 0.021779 0.0217714
v 0.694852 0.00968677 0.0394395
v 0.697286 0.00486775 0.0477776
v 0.69528 -0.00523882 0.0525936
v 0.683402 -0.0104148 0.0332722
v 0.666267 0.0645701 -0.0190565
v 0.673569 0.0652841 -0.00723939
v 0.67464 0.0507824 -0.00723939
v 0.668117 0.0942651 -0.00879199
v 0.682156 0.0362807 0.00631719
v 0.665468 0.169852 0.0176311
v 0.661886 0.165703 0.00845922
v 0.664417 0.152272 0.00476458
v 0.661029 0.13777 -0.00723939
v 0.668019 0.156221 0.0130452
v 0.667143 0.130386 4.92542e-05
v 0.664164 0.124629 -0.00662121
v 0.66689 0.108767 -0.00677935
v 0.710761 0.0362807 0.0650144
v 0.711111 0.0507824 0.0640369
v 0.703245 0.0798081 0.0507678
v 0.701161 0.0942651 0.0507678
v 0.697013 0.109704 0.0476626
v 0.696001 0.123269 0.051156
v 0.694794 0.134937 0.0542756
v 0.69715 0.139778 0.0621967
v 0.697578 0.149238 0.0692985
v 0.688796 0.152272 0.0507678
v 0.705231 0.0507824 0.0507678
v 0.704647 0.0652841 0.0507678
v 0.706574 0.00868281 0.0666677
v 0.697267 -0.0100579 0.0630881
v 0.683169 -0.016037 0.040374
v 0.702972 0.021779 0.0507678
v 0.708366 0.021779 0.0637637
v 0.679839 0.163806 0.0394826
v 0.696176 0.021779 0.036248
v 0.690451 0.0362807 0.0217714
v 0.681864 0.0652841 0.00686348
v 0.680871 0.0798081 0.0085886
v 0.682331 0.0507824 0.00602968
v 0.675321 0.108767 0.00726601
v 0.680501 0.0943544 0.0119238
v 0.674192 0.152272 0.0217714
v 0.680462 0.136164 0.024891
v 0.670609 0.13777 0.00874674
v 0.681455 0.123269 0.0220445
v 0.704822 0.0362807 0.0507678
v 0.697909 0.0798081 0.0402158
v 0.696566 0.0981694 0.0427604
v 0.696799 0.0652841 0.0349973
v 0.688952 0.123269 0.0362624
v 0.683247 0.140983 0.0325247
v 0.681825 0.152272 0.0357593
v 0.697033 0.0362807 0.0345517
v 0.69713 0.0507824 0.0343217
v 0.690763 0.0507824 0.0217714
v 0.688076 0.0798081 0.0217714
v 0.689926 0.0652841 0.0217714
f 1 2 3
f 1 3 4
f 1 4 5
f 1 5 6
f 1 6 9
f 1 9 14
f 1 14 20
f 1 20 24
f 1 24 28
f 1 28 31
f 1 31 35
f 1 35 46
f 1 46 82
f 1 82 127
f 1 127 173
f 1 173 161
f 1 161 121
f 1 121 76
f 1 76 42
f 1 42 41
f 1 41 33
f 1 33 30
f 1 30 26
f 1 26 22
f 1 22 16
f 1 16 12
f 1 12 8
f 1 8 2
f 2 7 3
f 2 8 7
f 3 7 11
f 3 11 15
f 3 15 18
f 3 18 17
f 3 17 21
f 3 21 25
f 3 25 29
f 3 29 34
f 3 34 43
f 3 43 40
f 3 40 32
f 3 32 27
f 3 27 23
f 3 23 19
f 3 19 13
f 3 13 10
f 3 10 5
f 3 5 4
f 5 9 6
f 5 10 9
f 7 8 11
f 8 12 11
f 9 10 13
f 9 13 14
f 11 12 15
f 12 16 17
f 12 17 18
f 12 18 15
f 13 19 14
f 14 19 20
f 16 21 17
f 16 22 21
f 19 23 20
f 20 23 24
f 21 22 25
f 22 26 25
f 23 27 28
f 23 28 24
f 25 26 29
f 26 30 29
f 27 31 28
f 27 32 31
f 29 30 33
f 29 33 34
f 31 32 35
f 32 36 37
f 32 37 38
f 32 38 39
f 32 39 35
f 32 40 36
f 33 41 34
f 34 41 42
f 34 42 43
f 35 39 44
f 35 44 45
f 35 45 46
f 36 47 48
f 36 48 49
f 36 49 50
f 36 50 51
f 36 51 52
f 36 52 37
f 36 40 53
f 36 53 54
f 36 54 55
f 36 55 47
f 37 56 57
f 37 57 58
f 37 58 59
f 37 59 38
f 37 52 56
f 38 59 60
f 38 60 61
f 38 61 62
f 38 62 63
f 38 63 64
f 38 64 65
f 38 65 39
f 39 65 66
f 39 66 44
f 40 43 67
f 40 67 68
f 40 68 69
f 40 69 70
f 40 70 71
f 40 71 72
f 40 72 73
f 40 73 53
f 42 74 75
f 42 75 67
f 42 67 43
f 42 76 74
f 44 66 77
f 44 77 78
f 44 78 45
f 45 78 46
f 46 78 79
f 46 79 80
f 46 80 81
f 46 81 82
f 47 55 83
f 47 83 84
f 47 84 85
f 47 85 48
f 48 85 49
f 49 86 87
f 49 87 50
f 49 85 88
f 49 88 86
f 50 87 51
f 51 87 89
f 51 89 90
f 51 90 52
f 52 90 91
f 52 91 56
f 53 73 92
f 53 92 93
f 53 93 94
f 53 94 95
f 53 95 96
f 53 96 54
f 54 96 97
f 54 97 98
f 54 98 55
f 55 98 83
f 56 91 57
f 57 99 58
f 57 91 100
f 57 100 99
f 58 99 101
f 58 101 102
f 58 102 60
f 58 60 59
f 60 102 103
f 60 103 104
f 60 104 61
f 61 104 62
f 62 105 63
f 62 104 103
f 62 103 106
f 62 106 107
f 62 107 105
f 63 105 66
f 63 66 64
f 64 66 65
f 66 105 77
f 67 75 68
f 68 75 69
f 69 75 108
f 69 108 109
f 69 109 70
f 70 109 110
f 70 110 71
f 71 110 111
f 71 111 72
f 72 112 113
f 72 113 73
f 72 111 114
f 72 114 112
f 73 113 92
f 74 115 116
f 74 116 75
f 74 76 115
f 75 116 117
f 75 117 108
f 76 118 119
f 76 119 120
f 76 120 115
f 76 121 122
f 76 122 118
f 77 105 79
f 77 79 78
f 79 105 123
f 79 123 124
f 79 124 80
f 80 124 81
f 81 124 125
f 81 125 82
f 82 126 127
f 82 125 126
f 83 98 128
f 83 128 129
f 83 129 84
f 84 129 85
f 85 129 88
f 86 88 130
f 86 130 131
f 86 131 87
f 87 131 132
f 87 132 89
f 88 129 133
f 88 133 130
f 89 134 90
f 89 132 134
f 90 134 91
f 91 134 100
f 92 113 93
f 93 135 94
f 93 113 136
f 93 136 135
f 94 135 137
f 94 137 138
f 94 138 139
f 94 139 95
f 95 139 96
f 96 139 97
f 97 139 140
f 97 140 98
f 98 140 141
f 98 141 128
f 99 142 101
f 99 100 143
f 99 143 142
f 100 134 144
f 100 144 145
f 100 145 143
f 101 106 103
f 101 103 102
f 101 142 106
f 105 107 123
f 106 146 107
f 106 142 147
f 106 147 146
f 107 146 123
f 108 117 148
f 108 148 109
f 109 148 110
f 110 148 114
f 110 114 111
f 112 114 149
f 112 149 113
f 113 149 136
f 114 148 150
f 114 150 151
f 114 151 149
f 115 152 116
f 115 120 153
f 115 153 152
f 116 152 154
f 116 154 148
f 116 148 117
f 118 122 155
f 118 155 119
f 119 155 156
f 119 156 157
f 119 157 158
f 119 158 153
f 119 153 120
f 121 159 160
f 121 160 122
f 121 161 159
f 122 162 155
f 122 160 163
f 122 163 162
f 123 146 124
f 124 146 164
f 124 164 165
f 124 165 125
f 125 165 126
f 126 165 166
f 126 166 167
f 126 167 127
f 127 167 168
f 127 168 169
f 127 169 170
f 127 170 171
f 127 171 172
f 127 172 173
f 128 141 174
f 128 174 175
f 128 175 129
f 129 175 133
f 130 133 176
f 130 176 177
f 130 177 178
f 130 178 131
f 131 178 179
f 131 179 132
f 132 179 180
f 132 180 134
f 133 175 181
f 133 181 182
f 133 182 176
f 134 180 144
f 135 183 137
f 135 136 184
f 135 184 183
f 136 149 185
f 136 185 184
f 137 183 138
f 138 186 187
f 138 187 140
f 138 140 139
f 138 183 186
f 140 187 188
f 140 188 141
f 141 188 174
f 142 143 145
f 142 145 147
f 144 180 145
f 145 180 189
f 145 189 190
f 145 190 191
f 145 191 147
f 146 147 164
f 147 191 190
f 147 190 192
f 147 192 164
f 148 154 193
f 148 193 194
f 148 194 195
f 148 195 150
f 149 151 185
f 150 195 151
f 151 195 185
f 152 153 196
f 152 196 197
f 152 197 154
f 153 158 196
f 154 197 193
f 155 162 198
f 155 198 199
f 155 199 156
f 156 200 157
f 156 199 200
f 157 200 201
f 157 201 202
f 157 202 196
f 157 196 158
f 159 163 160
f 159 161 203
f 159 203 204
f 159 204 205
f 159 205 163
f 161 173 206
f 161 206 204
f 161 204 203
f 162 163 207
f 162 207 198
f 163 205 207
f 164 192 166
f 164 166 165
f 166 192 190
f 166 190 167
f 167 190 208
f 167 208 209
f 167 209 169
f 167 169 168
f 169 210 211
f 169 211 171
f 169 171 170
f 169 209 212
f 169 212 210
f 171 211 213
f 171 213 172
f 172 213 214
f 172 214 215
f 172 215 173
f 173 215 206
f 174 188 216
f 174 216 217
f 174 217 175
f 175 217 181
f 176 182 218
f 176 218 219
f 176 219 177
f 177 220 221
f 177 221 178
f 177 219 220
f 178 222 223
f 178 223 179
f 178 221 222
f 179 223 224
f 179 224 180
f 180 224 225
f 180 225 189
f 181 217 226
f 181 226 227
f 181 227 182
f 182 227 218
f 183 184 228
f 183 228 186
f 184 185 229
f 184 229 201
f 184 201 228
f 185 195 230
f 185 230 229
f 186 228 231
f 186 231 232
f 186 232 216
f 186 216 188
f 186 188 187
f 189 233 190
f 189 225 233
f 190 233 208
f 193 197 196
f 193 196 230
f 193 230 194
f 194 230 195
f 196 202 230
f 198 234 199
f 198 207 235
f 198 235 234
f 199 234 231
f 199 231 200
f 200 231 228
f 200 228 201
f 201 229 202
f 202 229 230
f 204 236 205
f 204 206 237
f 204 237 236
f 205 236 238
f 205 238 207
f 206 215 239
f 206 239 240
f 206 240 237
f 207 238 235
f 208 233 212
f 208 212 209
f 210 212 241
f 210 241 242
f 210 242 243
f 210 243 211
f 211 243 213
f 212 233 241
f 213 242 244
f 213 244 239
f 213 239 214
f 213 243 242
f 214 239 215
f 216 232 231
f 216 231 245
f 216 245 217
f 217 245 226
f 218 246 247
f 218 247 219
f 218 227 248
f 218 248 246
f 219 247 220
f 220 249 221
f 220 247 249
f 221 249 250
f 221 250 222
f 222 250 225
f 222 225 223
f 223 225 224
f 225 251 233
f 225 250 251
f 226 245 252
f 226 252 253
f 226 253 227
f 227 253 248
f 231 234 245
f 233 251 241
f 234 235 252
f 234 252 245
f 235 238 254
f 235 254 252
f 236 237 255
f 236 255 256
f 236 256 238
f 237 240 255
f 238 256 254
f 239 244 240
f 240 244 247
f 240 247 255
f 241 251 242
f 242 251 250
f 242 250 249
f 242 249 244
f 244 249 247
f 246 255 247
f 246 248 256
f 246 256 255
f 248 253 254
f 248 254 256
f 252 254 253
