v -0.125331 0.00057724 -0.318933
v -0.125331 0.00057724 -0.38023
v -0.131172 0.00057724 -0.318892
v -0.39908 -0.2225 -0.317172
v -0.125331 -0.00322224 -0.319004
v -0.125331 -0.2225 -0.385299
v -0.35902 -0.2225 -0.420752
v -0.362343 -0.217325 -0.420661
v -0.399053 -0.182125 -0.421149
v -0.39908 -0.174395 -0.420457
v -0.39908 0.00057724 -0.391101
v -0.137791 0.00057724 -0.318851
v -0.125331 -0.2225 -0.325193
v -0.125331 -0.0507812 -0.320287
v -0.125331 -0.0362602 -0.319879
v -0.125331 -0.0217611 -0.319482
v -0.125331 -0.0104718 -0.319187
v -0.14583 0.00057724 -0.318861
v -0.152314 0.00057724 -0.318892
v -0.158558 0.00057724 -0.318963
v -0.161639 0.00057724 -0.319014
v -0.174957 0.00057724 -0.319482
v -0.181308 0.00057724 -0.319706
v -0.217 0.00057724 -0.321009
v -0.245994 0.00057724 -0.322078
v -0.268315 0.00057724 -0.322913
v -0.289484 0.00057724 -0.323707
v -0.297308 0.00057724 -0.324002
v -0.303981 0.00057724 -0.324256
v -0.311805 0.00057724 -0.324572
v -0.318477 0.00057724 -0.324877
v -0.326329 0.00057724 -0.325254
v -0.39908 0.00057724 -0.328939
v -0.39908 -0.2225 -0.403621
v -0.360306 -0.2225 -0.420834
v -0.369337 -0.2225 -0.420976
v -0.370703 -0.2225 -0.420997
v -0.398008 -0.194877 -0.421037
v -0.39908 -0.193764 -0.421037
v -0.39908 -0.182125 -0.421139
v -0.39908 -0.218875 -0.407214
v -0.394337 -0.2225 -0.409169
v -0.371909 -0.2225 -0.420976
v -0.378474 -0.218788 -0.420915
v -0.39908 -0.194201 -0.421007
v -0.392622 -0.204376 -0.420895
v -0.39908 -0.209792 -0.413932
v -0.394793 -0.22143 -0.409667
v -0.391738 -0.2225 -0.411103
v -0.376545 -0.2225 -0.420264
v -0.388147 -0.214028 -0.419337
v -0.39908 -0.200839 -0.419449
v -0.39908 -0.20846 -0.414838
v -0.385387 -0.2225 -0.415551
f 1 2 11
f 1 11 33
f 1 33 32
f 1 32 31
f 1 31 30
f 1 30 29
f 1 29 28
f 1 28 27
f 1 27 26
f 1 26 25
f 1 25 24
f 1 24 23
f 1 23 22
f 1 22 21
f 1 21 20
f 1 20 19
f 1 19 18
f 1 18 12
f 1 12 3
f 1 3 4
f 1 4 5
f 1 5 17
f 1 17 16
f 1 16 15
f 1 15 14
f 1 14 13
f 1 13 6
f 1 6 2
f 2 6 7
f 2 7 8
f 2 8 9
f 2 9 10
f 2 10 11
f 3 12 4
f 4 13 14
f 4 14 15
f 4 15 16
f 4 16 17
f 4 17 5
f 4 12 18
f 4 18 19
f 4 19 20
f 4 20 21
f 4 21 22
f 4 22 23
f 4 23 24
f 4 24 25
f 4 25 26
f 4 26 27
f 4 27 28
f 4 28 29
f 4 29 30
f 4 30 31
f 4 31 32
f 4 32 33
f 4 33 11
f 4 11 10
f 4 10 40
f 4 40 39
f 4 39 45
f 4 45 52
f 4 52 53
f 4 53 47
f 4 47 41
f 4 41 34
f 4 34 42
f 4 42 49
f 4 49 54
f 4 54 50
f 4 50 43
f 4 43 37
f 4 37 36
f 4 36 35
f 4 35 7
f 4 7 6
f 4 6 13
f 7 35 9
f 7 9 8
f 9 36 37
f 9 37 38
f 9 38 39
f 9 39 40
f 9 40 10
f 9 35 36
f 34 41 42
f 37 43 38
f 38 43 44
f 38 44 39
f 39 44 46
f 39 46 45
f 41 47 48
f 41 48 42
f 42 48 49
f 43 50 44
f 44 50 51
f 44 51 46
f 45 46 52
f 46 51 52
f 47 53 48
f 48 51 49
f 48 53 51
f 49 51 54
f 50 54 51
f 51 53 52
