v 0.272518 0.196288 -0.0660894
v 0.104103 0.395592 -0.0660894
v 0.32136 0.260479 -0.0657556
v 0.350528 0.198952 -0.0583146
v 0.354659 0.196288 0.0104661
v 0.263517 0.196288 0.171686
v 0.104103 0.382103 0.183753
v 0.108481 0.47902 -0.0577423
v 0.12909 0.466036 -0.0657556
v 0.153019 0.449883 -0.0657556
v 0.104103 0.481993 0.195773
v 0.258819 0.352741 -0.0656125
v 0.273231 0.334906 -0.061892
v 0.290225 0.312331 -0.0582192
v 0.30385 0.291018 -0.0583623
v 0.306678 0.288887 -0.0361827
v 0.322688 0.260872 -0.0434328
v 0.334517 0.235212 -0.0582192
v 0.337665 0.232632 -0.0289326
v 0.350651 0.203075 -0.029028
v 0.345461 0.217994 6.78947e-05
v 0.35279 0.202318 0.0434255
v 0.355348 0.196288 0.11607
v 0.262558 0.196288 0.19978
v 0.104103 0.381514 0.217524
v 0.107448 0.482778 0.0876894
v 0.109489 0.479861 -0.0285987
v 0.129631 0.466906 -0.0434328
v 0.153929 0.450668 -0.0434328
v 0.175965 0.432973 -0.058887
v 0.201689 0.411015 -0.0612719
v 0.104103 0.415783 0.402402
v 0.106956 0.476356 0.307721
v 0.107571 0.47759 0.275716
v 0.107128 0.478796 0.250197
v 0.107448 0.479441 0.221149
v 0.10612 0.481264 0.181273
v 0.107398 0.481965 0.12332
v 0.238087 0.376354 -0.056359
v 0.254516 0.359724 -0.0361827
v 0.263123 0.35061 -0.0144323
v 0.278519 0.332494 0.00731802
v 0.28297 0.324109 -0.0371367
v 0.293471 0.309639 -0.0361827
v 0.308867 0.2867 -0.0144323
v 0.321704 0.265779 0.00731802
v 0.327779 0.253468 -0.0144323
v 0.331493 0.24772 0.0145681
v 0.345412 0.219228 0.0308809
v 0.352225 0.204253 0.068944
v 0.349052 0.211796 0.0925069
v 0.345388 0.220349 0.11607
v 0.35188 0.204196 0.141493
v 0.353331 0.196288 0.239274
v 0.262385 0.196288 0.224774
v 0.104103 0.381878 0.239274
v 0.116842 0.475655 0.155993
v 0.130319 0.468083 0.130618
v 0.112883 0.479833 0.0586889
v 0.112735 0.479581 0.0296407
v 0.111432 0.479777 0.00369295
v 0.130098 0.467803 -0.0144323
v 0.171759 0.438105 -0.0289326
v 0.151494 0.454118 0.00731802
v 0.158307 0.448705 -0.0144323
v 0.188901 0.425121 -0.0108073
v 0.210616 0.406332 -0.0144323
v 0.213445 0.402013 -0.0434328
v 0.104103 0.405855 0.377551
v 0.286118 0.196288 0.376454
v 0.297185 0.196288 0.404453
v 0.313023 0.203776 0.420241
v 0.110866 0.441106 0.416759
v 0.109464 0.468027 0.391288
v 0.114383 0.468784 0.359378
v 0.125401 0.463821 0.329948
v 0.128844 0.464438 0.2719
v 0.123286 0.469261 0.239274
v 0.1315 0.461269 0.304525
v 0.226996 0.390067 -0.0289326
v 0.246719 0.370072 -0.00718222
v 0.257073 0.357845 -0.0144323
v 0.256434 0.359584 0.0145681
v 0.280215 0.330784 0.0290684
v 0.291824 0.314575 0.0145681
v 0.285405 0.322202 -0.0144323
v 0.3038 0.296234 0.0145681
v 0.314892 0.279184 0.068944
v 0.324188 0.262358 0.0417561
v 0.332993 0.245925 0.0671315
v 0.332034 0.248084 0.10157
v 0.33887 0.233838 0.135149
v 0.345412 0.2192 0.159618
v 0.346962 0.214881 0.181273
v 0.348511 0.204056 0.319025
v 0.349077 0.200635 0.351317
v 0.333411 0.197214 0.417093
v 0.264279 0.196288 0.261931
v 0.104103 0.383757 0.270039
v 0.135705 0.462699 0.203024
v 0.140206 0.460904 0.165008
v 0.13755 0.463877 0.10157
v 0.134205 0.466485 0.065319
v 0.137919 0.464129 0.0435686
v 0.133148 0.466737 0.0145681
v 0.18713 0.427365 0.0127556
v 0.159561 0.448986 0.0417561
v 0.20737 0.409866 0.00731802
v 0.211354 0.406893 0.0290684
v 0.228545 0.389815 0.00731802
v 0.104103 0.397218 0.34669
v 0.278051 0.196288 0.347406
v 0.320794 0.220882 0.418905
v 0.249769 0.323072 0.421052
v 0.185113 0.387683 0.421195
v 0.132066 0.434347 0.418381
v 0.144411 0.442985 0.402831
v 0.150658 0.443293 0.381224
v 0.147387 0.449182 0.335004
v 0.131426 0.464662 0.224774
v 0.150904 0.448509 0.304525
v 0.247211 0.370689 0.0435686
v 0.260713 0.354929 0.0508187
v 0.276797 0.335186 0.0580689
v 0.290004 0.317603 0.0925069
v 0.290766 0.316622 0.0580689
v 0.304022 0.296543 0.0870693
v 0.312556 0.28283 0.10157
v 0.317794 0.273407 0.137868
v 0.321827 0.266004 0.152368
v 0.321729 0.265751 0.174071
v 0.328148 0.253833 0.174071
v 0.332845 0.245111 0.166868
v 0.342461 0.224836 0.181273
v 0.341502 0.224836 0.224774
v 0.335747 0.231258 0.333573
v 0.335452 0.233894 0.302713
v 0.333878 0.232885 0.366008
v 0.346617 0.202065 0.383609
v 0.336362 0.219452 0.401352
v 0.267033 0.196288 0.290359
v 0.104103 0.38788 0.302283
v 0.151765 0.449098 0.275525
v 0.150019 0.453136 0.195773
v 0.154691 0.451313 0.137868
v 0.156069 0.450837 0.105195
v 0.155405 0.45179 0.068944
v 0.187941 0.42728 0.0435686
v 0.17744 0.435441 0.0725691
v 0.195811 0.42055 0.065319
v 0.217085 0.401873 0.0580689
v 0.227856 0.391021 0.0399436
v 0.104103 0.392339 0.325322
v 0.271411 0.196288 0.318739
v 0.321754 0.247888 0.401352
v 0.306948 0.27136 0.404405
v 0.290077 0.284036 0.414994
v 0.275567 0.305152 0.414708
v 0.258696 0.331961 0.410177
v 0.222839 0.367352 0.412418
v 0.187154 0.403976 0.41032
v 0.164061 0.417213 0.413325
v 0.205722 0.399546 0.377074
v 0.182211 0.419821 0.373449
v 0.208649 0.388076 0.407219
v 0.163619 0.435385 0.362574
v 0.165365 0.436787 0.319025
v 0.164529 0.438974 0.290025
v 0.155921 0.446939 0.253774
v 0.229725 0.389114 0.0798192
v 0.247187 0.370605 0.0725691
v 0.260688 0.354957 0.0870693
v 0.260442 0.354704 0.137868
v 0.27992 0.330643 0.10882
v 0.285454 0.323016 0.130618
v 0.291528 0.314042 0.174071
v 0.297898 0.305208 0.152368
v 0.301587 0.300076 0.117882
v 0.306112 0.291663 0.174071
v 0.311867 0.28283 0.152368
v 0.319417 0.269032 0.203024
v 0.323131 0.261208 0.232024
v 0.337272 0.232296 0.257399
v 0.322319 0.260788 0.268275
v 0.317401 0.262582 0.377074
v 0.174489 0.435413 0.195773
v 0.172694 0.437236 0.174071
v 0.176825 0.434628 0.148743
v 0.18745 0.426916 0.10157
v 0.198984 0.417045 0.10882
v 0.208329 0.409529 0.0834443
v 0.222495 0.396517 0.0798192
v 0.304858 0.283419 0.377074
v 0.291037 0.298758 0.398824
v 0.277609 0.316958 0.400351
v 0.228938 0.37756 0.377074
v 0.217183 0.391189 0.349934
v 0.192491 0.413932 0.338772
v 0.169939 0.43188 0.340823
v 0.190007 0.41811 0.304525
v 0.188556 0.420466 0.280772
v 0.241678 0.375933 0.130618
v 0.238431 0.379775 0.0979445
v 0.255499 0.360846 0.112445
v 0.246031 0.369315 0.192148
v 0.260123 0.354284 0.163243
v 0.268558 0.342253 0.214137
v 0.280461 0.32826 0.188523
v 0.276256 0.334513 0.152368
v 0.28843 0.316818 0.224774
v 0.291209 0.313593 0.203024
v 0.301071 0.299095 0.195773
v 0.309457 0.285045 0.217524
v 0.306481 0.288747 0.246524
v 0.304661 0.290261 0.278816
v 0.311228 0.278118 0.3009
v 0.305842 0.284989 0.337198
v 0.189417 0.421279 0.246524
v 0.193475 0.418559 0.224774
v 0.194139 0.41912 0.188523
v 0.193254 0.421447 0.130618
v 0.194606 0.419512 0.159618
v 0.206903 0.409389 0.137868
v 0.214379 0.403191 0.12332
v 0.222323 0.396152 0.10882
v 0.295242 0.298534 0.364625
v 0.274903 0.325624 0.377074
v 0.255007 0.349488 0.377074
v 0.246892 0.362949 0.311775
v 0.223061 0.389815 0.270564
v 0.2131 0.398031 0.3009
v 0.214896 0.399041 0.244712
v 0.223872 0.394077 0.130618
v 0.23789 0.379214 0.155993
v 0.232013 0.384346 0.184898
v 0.244924 0.368165 0.253774
v 0.250581 0.362893 0.232024
v 0.256335 0.357088 0.210274
v 0.258155 0.352265 0.276431
v 0.278051 0.327783 0.27915
v 0.300726 0.298674 0.224774
v 0.287003 0.314827 0.297275
v 0.291332 0.310088 0.275525
v 0.29507 0.302236 0.3154
v 0.209387 0.405182 0.210274
v 0.286265 0.313845 0.326323
v 0.265558 0.339 0.355324
v 0.259459 0.346207 0.355324
v 0.230881 0.383112 0.246524
v 0.231447 0.383701 0.217524
v 0.265853 0.340459 0.323127
f 1 2 3
f 1 3 4
f 1 4 5
f 1 5 23
f 1 23 54
f 1 54 71
f 1 71 70
f 1 70 112
f 1 112 154
f 1 154 141
f 1 141 98
f 1 98 55
f 1 55 24
f 1 24 6
f 1 6 7
f 1 7 2
f 2 8 9
f 2 9 10
f 2 10 3
f 2 7 25
f 2 25 56
f 2 56 99
f 2 99 142
f 2 142 153
f 2 153 111
f 2 111 69
f 2 69 32
f 2 32 11
f 2 11 8
f 3 10 12
f 3 12 13
f 3 13 14
f 3 14 15
f 3 15 16
f 3 16 17
f 3 17 18
f 3 18 4
f 4 18 19
f 4 19 20
f 4 20 5
f 5 21 22
f 5 22 23
f 5 20 21
f 6 24 7
f 7 24 25
f 8 11 26
f 8 26 27
f 8 27 28
f 8 28 9
f 9 28 29
f 9 29 10
f 10 30 31
f 10 31 12
f 10 29 30
f 11 32 33
f 11 33 34
f 11 34 35
f 11 35 36
f 11 36 37
f 11 37 38
f 11 38 26
f 12 31 39
f 12 39 40
f 12 40 41
f 12 41 13
f 13 41 42
f 13 42 43
f 13 43 14
f 14 43 44
f 14 44 15
f 15 44 16
f 16 44 45
f 16 45 17
f 17 45 46
f 17 46 47
f 17 47 19
f 17 19 18
f 19 47 48
f 19 48 21
f 19 21 20
f 21 48 49
f 21 49 22
f 22 49 50
f 22 50 23
f 23 50 51
f 23 51 52
f 23 52 53
f 23 53 54
f 24 55 25
f 25 55 56
f 26 38 57
f 26 57 58
f 26 58 59
f 26 59 60
f 26 60 61
f 26 61 27
f 27 61 62
f 27 62 28
f 28 62 29
f 29 63 30
f 29 62 64
f 29 64 65
f 29 65 63
f 30 63 66
f 30 66 31
f 31 66 67
f 31 67 68
f 31 68 39
f 32 69 70
f 32 70 71
f 32 71 72
f 32 72 73
f 32 73 74
f 32 74 33
f 33 74 75
f 33 75 76
f 33 76 34
f 34 77 78
f 34 78 35
f 34 76 79
f 34 79 77
f 35 78 57
f 35 57 36
f 36 57 37
f 37 57 38
f 39 68 80
f 39 80 81
f 39 81 40
f 40 81 82
f 40 82 41
f 41 82 83
f 41 83 42
f 42 83 84
f 42 84 85
f 42 85 86
f 42 86 43
f 43 86 44
f 44 86 85
f 44 85 87
f 44 87 45
f 45 87 46
f 46 87 88
f 46 88 89
f 46 89 48
f 46 48 47
f 48 89 90
f 48 90 49
f 49 90 52
f 49 52 51
f 49 51 50
f 52 90 91
f 52 91 92
f 52 92 93
f 52 93 53
f 53 93 94
f 53 94 54
f 54 94 95
f 54 95 96
f 54 96 97
f 54 97 71
f 55 98 56
f 56 98 99
f 57 78 100
f 57 100 58
f 58 100 101
f 58 101 102
f 58 102 103
f 58 103 59
f 59 103 104
f 59 104 60
f 60 104 105
f 60 105 61
f 61 105 62
f 62 105 64
f 63 65 106
f 63 106 66
f 64 105 104
f 64 104 107
f 64 107 65
f 65 107 106
f 66 106 108
f 66 108 67
f 67 108 109
f 67 109 110
f 67 110 80
f 67 80 68
f 69 111 112
f 69 112 70
f 71 97 72
f 72 113 114
f 72 114 115
f 72 115 73
f 72 97 113
f 73 115 116
f 73 116 74
f 74 116 117
f 74 117 118
f 74 118 75
f 75 119 76
f 75 118 119
f 76 119 79
f 77 120 78
f 77 79 121
f 77 121 120
f 78 120 100
f 79 119 121
f 80 110 81
f 81 110 122
f 81 122 83
f 81 83 82
f 83 122 123
f 83 123 84
f 84 123 124
f 84 124 125
f 84 125 126
f 84 126 85
f 85 126 87
f 87 126 127
f 87 127 88
f 88 127 128
f 88 128 129
f 88 129 91
f 88 91 89
f 89 91 90
f 91 129 130
f 91 130 131
f 91 131 132
f 91 132 133
f 91 133 92
f 92 133 134
f 92 134 93
f 93 134 94
f 94 134 135
f 94 135 95
f 95 136 96
f 95 135 137
f 95 137 136
f 96 136 138
f 96 138 139
f 96 139 97
f 97 139 140
f 97 140 113
f 98 141 99
f 99 141 142
f 100 120 121
f 100 121 143
f 100 143 144
f 100 144 101
f 101 145 102
f 101 144 145
f 102 146 147
f 102 147 104
f 102 104 103
f 102 145 146
f 104 147 107
f 106 107 148
f 106 148 109
f 106 109 108
f 107 147 149
f 107 149 148
f 109 148 150
f 109 150 151
f 109 151 110
f 110 151 152
f 110 152 122
f 111 153 154
f 111 154 112
f 113 140 155
f 113 155 156
f 113 156 157
f 113 157 114
f 114 157 158
f 114 158 159
f 114 159 160
f 114 160 115
f 115 160 161
f 115 161 116
f 116 161 162
f 116 162 117
f 117 163 164
f 117 164 118
f 117 162 161
f 117 161 165
f 117 165 163
f 118 164 166
f 118 166 119
f 119 166 121
f 121 166 167
f 121 167 168
f 121 168 169
f 121 169 143
f 122 152 170
f 122 170 171
f 122 171 172
f 122 172 123
f 123 172 124
f 124 172 173
f 124 173 174
f 124 174 125
f 125 174 175
f 125 175 176
f 125 176 177
f 125 177 178
f 125 178 126
f 126 178 127
f 127 178 128
f 128 178 179
f 128 179 180
f 128 180 129
f 129 180 181
f 129 181 131
f 129 131 130
f 131 181 182
f 131 182 132
f 132 182 133
f 133 182 137
f 133 137 183
f 133 183 134
f 134 183 135
f 135 183 137
f 136 137 138
f 137 182 184
f 137 184 138
f 138 184 185
f 138 185 140
f 138 140 139
f 140 185 155
f 141 154 142
f 142 154 153
f 143 169 144
f 144 169 186
f 144 186 145
f 145 186 187
f 145 187 188
f 145 188 146
f 146 149 147
f 146 188 149
f 148 149 189
f 148 189 150
f 149 188 189
f 150 189 190
f 150 190 191
f 150 191 151
f 151 191 192
f 151 192 152
f 152 192 170
f 155 185 193
f 155 193 156
f 156 193 194
f 156 194 195
f 156 195 158
f 156 158 157
f 158 195 159
f 159 165 160
f 159 195 165
f 160 165 161
f 163 165 196
f 163 196 197
f 163 197 198
f 163 198 164
f 164 198 199
f 164 199 166
f 165 195 196
f 166 199 167
f 167 200 168
f 167 199 200
f 168 201 186
f 168 186 169
f 168 200 201
f 170 192 202
f 170 202 203
f 170 203 171
f 171 203 202
f 171 202 204
f 171 204 172
f 172 204 173
f 173 202 205
f 173 205 206
f 173 206 207
f 173 207 208
f 173 208 209
f 173 209 174
f 173 204 202
f 174 209 175
f 175 209 208
f 175 208 176
f 176 208 210
f 176 210 211
f 176 211 212
f 176 212 177
f 177 212 179
f 177 179 178
f 179 212 213
f 179 213 180
f 180 213 181
f 181 213 214
f 181 214 215
f 181 215 216
f 181 216 184
f 181 184 182
f 184 216 185
f 185 217 193
f 185 216 217
f 186 201 218
f 186 218 219
f 186 219 220
f 186 220 221
f 186 221 188
f 186 188 187
f 188 221 189
f 189 221 190
f 190 221 222
f 190 222 223
f 190 223 191
f 191 223 224
f 191 224 225
f 191 225 192
f 192 225 202
f 193 217 226
f 193 226 227
f 193 227 194
f 194 227 195
f 195 227 228
f 195 228 196
f 196 228 229
f 196 229 230
f 196 230 197
f 197 230 231
f 197 231 198
f 198 231 200
f 198 200 199
f 200 231 232
f 200 232 218
f 200 218 201
f 202 225 233
f 202 233 234
f 202 234 205
f 205 235 236
f 205 236 237
f 205 237 238
f 205 238 206
f 205 234 235
f 206 238 207
f 207 238 239
f 207 239 240
f 207 240 208
f 208 240 210
f 210 241 211
f 210 240 242
f 210 242 243
f 210 243 215
f 210 215 241
f 211 241 212
f 212 241 213
f 213 241 214
f 214 241 215
f 215 243 244
f 215 244 217
f 215 217 216
f 217 244 226
f 218 232 219
f 219 245 220
f 219 232 245
f 220 245 223
f 220 223 222
f 220 222 221
f 223 245 224
f 224 245 232
f 224 232 233
f 224 233 225
f 226 244 246
f 226 246 227
f 227 246 242
f 227 242 240
f 227 240 247
f 227 247 228
f 228 247 248
f 228 248 229
f 229 248 239
f 229 239 236
f 229 236 249
f 229 249 230
f 230 249 232
f 230 232 231
f 232 249 250
f 232 250 235
f 232 235 233
f 233 235 234
f 235 250 236
f 236 239 237
f 236 250 249
f 237 239 238
f 239 248 247
f 239 247 251
f 239 251 240
f 240 251 247
f 242 246 244
f 242 244 243
