v -0.121917 0.551121 -0.0671273
v -0.110622 0.550281 -0.0653113
v -0.124679 0.550529 -0.0784144
v -0.125308 0.479108 -0.0653113
v -0.108758 0.549001 -0.0797834
v -0.124298 0.549325 -0.0939203
v -0.0942517 0.548351 -0.0653113
v -0.125331 0.53618 -0.172316
v -0.124298 0.547969 -0.108798
v -0.125331 0.446779 -0.208021
v 0.104078 0.355946 -0.208021
v 0.104078 0.395688 -0.0653113
v -0.108758 0.547759 -0.0942975
v -0.0942517 0.547204 -0.0797834
v -0.0942517 0.546039 -0.0942975
v -0.0797677 0.546058 -0.0653113
v -0.0797677 0.544988 -0.0797834
v -0.0797677 0.54388 -0.0942975
v -0.124298 0.53362 -0.180809
v -0.124814 0.529435 -0.194667
v -0.124298 0.546058 -0.123298
v -0.124298 0.543746 -0.137267
v -0.124298 0.540861 -0.15227
v -0.124298 0.537938 -0.164954
v -0.108758 0.537326 -0.16223
v -0.108758 0.535473 -0.16948
v -0.108758 0.532072 -0.181284
v -0.108758 0.546326 -0.108798
v -0.108758 0.544453 -0.123298
v -0.121917 0.524487 -0.20784
v -0.0810926 0.51927 -0.208021
v 0.0922441 0.457307 -0.208021
v 0.102282 0.451499 -0.207546
v 0.104078 0.455473 -0.195589
v 0.104078 0.481057 -0.0653113
v -0.0942517 0.544606 -0.108798
v -0.0797677 0.542485 -0.108798
v -0.0652612 0.543402 -0.0653113
v -0.0652612 0.54239 -0.0797834
v -0.0652612 0.541205 -0.0942975
v -0.108758 0.527524 -0.195784
v -0.108758 0.542256 -0.13777
v -0.108758 0.539562 -0.15227
v -0.100113 0.536849 -0.160456
v -0.0942517 0.530295 -0.181284
v -0.0942517 0.542657 -0.123298
v -0.108758 0.523397 -0.207407
v -0.0864595 0.522194 -0.203258
v -0.0768035 0.521372 -0.200771
v -0.0665187 0.516481 -0.208021
v -0.0942517 0.522041 -0.206303
v 0.0861586 0.463651 -0.201889
v 0.0826779 0.462676 -0.208021
v 0.104078 0.457613 -0.190015
v 0.0942427 0.460957 -0.196539
v 0.104078 0.480121 -0.0804819
v 0.0942651 0.485566 -0.0797834
v 0.0942651 0.486426 -0.0653113
v -0.0797677 0.540517 -0.123298
v -0.0652612 0.539676 -0.108798
v -0.0650366 0.537823 -0.122837
v -0.0507547 0.540402 -0.0653113
v -0.0507547 0.539581 -0.0797834
v -0.0421092 0.537001 -0.0901347
v -0.0499014 0.53811 -0.0947026
v -0.0942517 0.525748 -0.195784
v -0.0942517 0.540402 -0.13777
v -0.0948805 0.537804 -0.152186
v -0.0838546 0.537116 -0.147297
v -0.0904342 0.536046 -0.156964
v -0.0797677 0.531843 -0.16677
v -0.0948805 0.534632 -0.165876
v -0.0797677 0.527926 -0.181284
v -0.0808905 0.523627 -0.195868
v -0.0680906 0.52292 -0.191104
v -0.064071 0.520589 -0.195868
v -0.0517877 0.513309 -0.208021
v 0.0893922 0.465466 -0.192208
v 0.0759187 0.466192 -0.207868
v 0.0571007 0.478191 -0.201987
v 0.065589 0.476089 -0.196608
v 0.0609856 0.480102 -0.19232
v 0.070664 0.477675 -0.185601
v 0.05362 0.477197 -0.208021
v 0.104078 0.460555 -0.182066
v 0.0990482 0.462657 -0.184525
v 0.104078 0.472268 -0.138385
v 0.103809 0.479127 -0.0934035
v 0.0942651 0.484401 -0.0942975
v 0.0822063 0.490763 -0.0942975
v 0.0833291 0.491298 -0.0797834
v 0.0842274 0.491738 -0.0653113
v -0.0697075 0.537173 -0.133803
v -0.0793186 0.538033 -0.138273
v -0.044512 0.536409 -0.0998014
v -0.0471393 0.535855 -0.108798
v -0.0570199 0.536829 -0.11771
v -0.0600514 0.536218 -0.127377
v -0.03919 0.537728 -0.0653113
v -0.0406496 0.537384 -0.0797834
v -0.0333964 0.535416 -0.0797834
v -0.0217418 0.530983 -0.0942975
v -0.0217418 0.529626 -0.108798
v -0.0362482 0.53339 -0.108798
v -0.0741762 0.536352 -0.143441
v -0.0793186 0.535282 -0.152186
v -0.0652612 0.532874 -0.15227
v -0.0652612 0.529244 -0.16677
v -0.064071 0.524697 -0.182569
v -0.0584346 0.522022 -0.188255
v -0.0507547 0.517704 -0.195784
v -0.0395493 0.51052 -0.208021
v 0.0942427 0.46688 -0.180334
v 0.0789952 0.474828 -0.180963
v 0.0467935 0.480522 -0.207854
v 0.0516664 0.482757 -0.196608
v 0.0406181 0.491871 -0.184413
v 0.049578 0.489235 -0.18025
v 0.065589 0.48163 -0.180963
v 0.0736507 0.479203 -0.175934
v 0.0354982 0.485241 -0.208021
v 0.104078 0.465561 -0.166742
v 0.103539 0.46323 -0.175431
v 0.104078 0.469765 -0.150007
v 0.097409 0.476318 -0.13777
v 0.101833 0.476242 -0.123298
v 0.10327 0.476624 -0.11493
v 0.103562 0.478114 -0.103126
v 0.0953206 0.48205 -0.108728
v 0.0790401 0.490515 -0.109985
v 0.0737405 0.493706 -0.105948
v 0.0749756 0.494279 -0.0942975
v 0.0760534 0.494833 -0.0797834
v 0.0652297 0.501081 -0.0653113
v 0.0769966 0.495349 -0.0653113
v -0.0650366 0.535588 -0.138273
v -0.0362482 0.531499 -0.123298
v -0.0516081 0.535033 -0.122837
v -0.0507547 0.532722 -0.13777
v -0.0319592 0.535855 -0.0653113
v -0.0217418 0.533065 -0.0653113
v -0.0217418 0.532148 -0.0797834
v -0.00728021 0.527983 -0.0797834
v -0.00728021 0.526798 -0.0942975
v -0.00728021 0.525404 -0.108798
v 0.000287414 0.522213 -0.11669
v -0.0217418 0.527677 -0.123298
v -0.0507547 0.529913 -0.15227
v -0.0507547 0.526416 -0.16677
v -0.0507547 0.52334 -0.178225
v -0.0422664 0.522442 -0.175068
v -0.0507547 0.521143 -0.185489
v -0.0362482 0.514245 -0.195784
v -0.0328799 0.508972 -0.208021
v 0.0942651 0.471045 -0.16677
v 0.0834863 0.476815 -0.16677
v 0.0359473 0.48998 -0.195672
v 0.0309396 0.493935 -0.190755
v 0.0359473 0.495024 -0.18025
v 0.043964 0.493304 -0.174733
v 0.0539569 0.491394 -0.16677
v 0.0652297 0.486063 -0.16677
v 0.0762331 0.480522 -0.16677
v 0.0210815 0.490954 -0.208021
v 0.0262688 0.492101 -0.200422
v 0.093569 0.475191 -0.152479
v 0.0882694 0.479299 -0.147786
v 0.0901333 0.480312 -0.13777
v 0.0923564 0.481554 -0.123298
v 0.0797362 0.488107 -0.123298
v 0.0723707 0.493037 -0.115615
v 0.0665995 0.496591 -0.109985
v 0.0652297 0.498922 -0.0942975
v 0.0652297 0.50003 -0.0797834
v 0.0543386 0.506106 -0.0653113
v -0.0362482 0.529129 -0.13777
v -0.0362482 0.526359 -0.15227
v -0.00600022 0.528633 -0.0653113
v 0.00855117 0.524162 -0.0653811
v 0.0056319 0.52399 -0.0797834
v 0.00388035 0.523397 -0.0942975
v 0.00172459 0.52269 -0.108798
v 0.00897783 0.520264 -0.108798
v 0.00596874 0.519404 -0.122236
v -0.00233992 0.52141 -0.126371
v -0.0119735 0.522862 -0.135116
v -0.00721284 0.52355 -0.122236
v -0.0146457 0.52206 -0.144754
v -0.0276926 0.522423 -0.160749
v -0.0369668 0.523417 -0.166058
v -0.0325879 0.521143 -0.170416
v -0.0217418 0.514933 -0.181284
v -0.0369668 0.519347 -0.18046
v -0.0214723 0.510156 -0.196161
v -0.0239649 0.507176 -0.206555
v -0.00959316 0.501845 -0.208021
v 0.0859789 0.478076 -0.157453
v 0.0215531 0.495654 -0.195672
v 0.00729364 0.505437 -0.181563
v 0.0217327 0.500336 -0.181284
v 0.0362168 0.498692 -0.16677
v 0.0467036 0.494413 -0.16677
v 0.056966 0.492674 -0.157439
v 0.0105273 0.494795 -0.208021
v 0.0165904 0.493878 -0.204934
v 0.0805895 0.482031 -0.152479
v 0.0644662 0.490075 -0.152466
v 0.0797362 0.485604 -0.13777
v 0.0710233 0.492406 -0.123298
v 0.0637701 0.495922 -0.123298
v 0.0507232 0.501845 -0.123298
v 0.049331 0.504615 -0.107498
v 0.0515541 0.504959 -0.0942975
v 0.0529913 0.505552 -0.0797834
v 0.0471079 0.509106 -0.0653113
v -0.0172506 0.52141 -0.15227
v -0.0245038 0.523302 -0.15227
v 0.0362168 0.5135 -0.0653113
v 0.0206549 0.519748 -0.065437
v 0.0140079 0.521945 -0.0705777
v 0.0111336 0.520971 -0.0942975
v 0.0217327 0.515545 -0.108798
v 0.0217327 0.513596 -0.123298
v 0.0289186 0.507596 -0.14488
v 0.00722627 0.51629 -0.13777
v -0.00721284 0.520722 -0.139055
v -0.00728021 0.518315 -0.15227
v -0.0224154 0.519595 -0.166058
v -0.00728021 0.514819 -0.16677
v -0.00694337 0.510252 -0.181563
v -0.0115019 0.508609 -0.191565
v -0.0164422 0.507004 -0.201232
v 0.00722627 0.500699 -0.195784
v -0.00186835 0.507004 -0.186578
v 0.00248809 0.508513 -0.176912
v 0.0121666 0.506794 -0.170961
v 0.0210366 0.504711 -0.166379
v 0.0262464 0.506603 -0.15227
v 0.0591217 0.493648 -0.147758
v 0.0683511 0.491126 -0.13777
v 0.0610978 0.494565 -0.13777
v 0.0507232 0.499266 -0.13777
v 0.0402364 0.506297 -0.123298
v 0.0422125 0.507118 -0.11148
v 0.0435374 0.507634 -0.101799
v 0.0443233 0.507959 -0.0942975
v 0.045738 0.508532 -0.0797834
v 0.0217327 0.516958 -0.0942975
v 0.0369129 0.50966 -0.107498
v 0.0329831 0.509201 -0.123298
v 0.0307375 0.508322 -0.135241
v 0.015737 0.508093 -0.16128
v 0.00729364 0.509793 -0.166379
v 0.00722627 0.513328 -0.15227
v -0.00694337 0.505494 -0.196161
f 1 2 3
f 1 3 4
f 1 4 2
f 2 5 6
f 2 6 3
f 2 4 12
f 2 12 35
f 2 35 58
f 2 58 92
f 2 92 135
f 2 135 134
f 2 134 175
f 2 175 215
f 2 215 218
f 2 218 178
f 2 178 141
f 2 141 140
f 2 140 99
f 2 99 62
f 2 62 38
f 2 38 16
f 2 16 7
f 2 7 5
f 3 8 4
f 3 6 9
f 3 9 8
f 4 8 10
f 4 10 11
f 4 11 12
f 5 13 6
f 5 7 14
f 5 14 15
f 5 15 13
f 6 13 9
f 7 16 17
f 7 17 18
f 7 18 14
f 8 19 20
f 8 20 10
f 8 9 21
f 8 21 22
f 8 22 23
f 8 23 24
f 8 24 25
f 8 25 26
f 8 26 27
f 8 27 19
f 9 13 28
f 9 28 29
f 9 29 21
f 10 20 30
f 10 30 31
f 10 31 50
f 10 50 77
f 10 77 112
f 10 112 154
f 10 154 196
f 10 196 204
f 10 204 164
f 10 164 121
f 10 121 84
f 10 84 53
f 10 53 32
f 10 32 11
f 11 32 33
f 11 33 34
f 11 34 54
f 11 54 85
f 11 85 122
f 11 122 124
f 11 124 87
f 11 87 56
f 11 56 35
f 11 35 12
f 13 15 36
f 13 36 28
f 14 18 15
f 15 18 37
f 15 37 36
f 16 38 39
f 16 39 17
f 17 39 18
f 18 39 40
f 18 40 37
f 19 27 20
f 20 27 41
f 20 41 30
f 21 29 42
f 21 42 22
f 22 42 43
f 22 43 23
f 23 43 25
f 23 25 24
f 25 43 44
f 25 44 26
f 26 44 45
f 26 45 27
f 27 45 66
f 27 66 41
f 28 36 29
f 29 36 46
f 29 46 42
f 30 47 31
f 30 41 47
f 31 48 49
f 31 49 50
f 31 47 51
f 31 51 48
f 32 52 33
f 32 53 52
f 33 52 34
f 34 52 55
f 34 55 54
f 35 56 57
f 35 57 58
f 36 37 46
f 37 59 46
f 37 40 60
f 37 60 61
f 37 61 59
f 38 62 63
f 38 63 39
f 39 63 40
f 40 63 64
f 40 64 65
f 40 65 60
f 41 66 48
f 41 48 47
f 42 46 67
f 42 67 43
f 43 67 68
f 43 68 44
f 44 68 69
f 44 69 70
f 44 70 71
f 44 71 72
f 44 72 45
f 45 72 73
f 45 73 74
f 45 74 48
f 45 48 66
f 46 59 67
f 47 48 51
f 48 74 49
f 49 75 76
f 49 76 50
f 49 74 75
f 50 76 77
f 52 78 55
f 52 53 79
f 52 79 80
f 52 80 81
f 52 81 82
f 52 82 83
f 52 83 78
f 53 84 79
f 54 55 78
f 54 78 86
f 54 86 85
f 56 87 88
f 56 88 89
f 56 89 57
f 57 89 90
f 57 90 91
f 57 91 92
f 57 92 58
f 59 61 93
f 59 93 94
f 59 94 67
f 60 65 95
f 60 95 96
f 60 96 97
f 60 97 98
f 60 98 61
f 61 98 93
f 62 99 100
f 62 100 63
f 63 100 64
f 64 95 65
f 64 100 101
f 64 101 102
f 64 102 103
f 64 103 104
f 64 104 95
f 67 94 105
f 67 105 69
f 67 69 68
f 69 105 106
f 69 106 70
f 70 106 107
f 70 107 71
f 71 73 72
f 71 107 108
f 71 108 73
f 73 108 109
f 73 109 110
f 73 110 75
f 73 75 74
f 75 110 76
f 76 110 111
f 76 111 77
f 77 111 112
f 78 113 86
f 78 83 114
f 78 114 113
f 79 84 80
f 80 84 115
f 80 115 116
f 80 116 82
f 80 82 81
f 82 116 117
f 82 117 118
f 82 118 119
f 82 119 83
f 83 119 120
f 83 120 114
f 84 121 115
f 85 86 123
f 85 123 122
f 86 113 123
f 87 124 125
f 87 125 126
f 87 126 127
f 87 127 128
f 87 128 88
f 88 128 89
f 89 128 129
f 89 129 130
f 89 130 90
f 90 130 131
f 90 131 132
f 90 132 91
f 91 132 133
f 91 133 134
f 91 134 135
f 91 135 92
f 93 136 105
f 93 105 94
f 93 98 136
f 95 104 96
f 96 104 137
f 96 137 138
f 96 138 97
f 97 138 98
f 98 138 139
f 98 139 136
f 99 140 100
f 100 140 101
f 101 140 141
f 101 141 142
f 101 142 102
f 102 142 143
f 102 143 144
f 102 144 103
f 103 144 145
f 103 145 146
f 103 146 147
f 103 147 137
f 103 137 104
f 105 136 107
f 105 107 106
f 107 136 148
f 107 148 149
f 107 149 108
f 108 149 150
f 108 150 109
f 109 150 110
f 110 150 151
f 110 151 152
f 110 152 111
f 111 152 153
f 111 153 154
f 111 154 112
f 113 155 123
f 113 114 156
f 113 156 155
f 114 120 156
f 115 121 157
f 115 157 116
f 116 157 158
f 116 158 117
f 117 158 159
f 117 159 160
f 117 160 161
f 117 161 118
f 118 161 119
f 119 162 120
f 119 161 162
f 120 162 163
f 120 163 156
f 121 164 165
f 121 165 157
f 122 123 155
f 122 155 166
f 122 166 124
f 124 166 167
f 124 167 125
f 125 167 168
f 125 168 169
f 125 169 126
f 126 169 129
f 126 129 127
f 127 129 128
f 129 169 130
f 130 169 170
f 130 170 171
f 130 171 131
f 131 171 172
f 131 172 173
f 131 173 132
f 132 173 174
f 132 174 133
f 133 174 134
f 134 174 175
f 136 139 148
f 137 176 139
f 137 139 138
f 137 147 176
f 139 176 177
f 139 177 148
f 141 178 142
f 142 178 143
f 143 178 179
f 143 179 180
f 143 180 181
f 143 181 144
f 144 181 182
f 144 182 145
f 145 182 146
f 146 182 183
f 146 183 184
f 146 184 185
f 146 185 186
f 146 186 187
f 146 187 147
f 147 187 186
f 147 186 188
f 147 188 176
f 148 177 189
f 148 189 190
f 148 190 149
f 149 190 151
f 149 151 150
f 151 190 189
f 151 189 191
f 151 191 192
f 151 192 193
f 151 193 153
f 151 153 152
f 153 193 194
f 153 194 195
f 153 195 154
f 154 195 196
f 155 156 197
f 155 197 166
f 156 163 197
f 157 165 158
f 158 165 198
f 158 198 199
f 158 199 200
f 158 200 159
f 159 200 201
f 159 201 160
f 160 201 202
f 160 202 161
f 161 202 203
f 161 203 162
f 162 197 163
f 162 203 197
f 164 204 205
f 164 205 165
f 165 205 198
f 166 197 167
f 167 197 206
f 167 206 203
f 167 203 207
f 167 207 208
f 167 208 168
f 168 208 170
f 168 170 169
f 170 208 209
f 170 209 171
f 171 209 210
f 171 210 172
f 172 210 211
f 172 211 212
f 172 212 173
f 173 212 213
f 173 213 214
f 173 214 175
f 173 175 174
f 175 214 215
f 176 188 216
f 176 216 217
f 176 217 177
f 177 217 189
f 178 218 179
f 179 218 219
f 179 219 220
f 179 220 180
f 180 220 181
f 181 220 221
f 181 221 183
f 181 183 182
f 183 221 222
f 183 222 223
f 183 223 184
f 184 223 224
f 184 224 225
f 184 225 185
f 185 226 188
f 185 188 186
f 185 225 226
f 188 226 227
f 188 227 216
f 189 217 216
f 189 216 228
f 189 228 191
f 191 228 192
f 192 194 193
f 192 228 229
f 192 229 230
f 192 230 231
f 192 231 194
f 194 231 232
f 194 232 195
f 195 232 196
f 196 232 204
f 197 203 206
f 198 205 233
f 198 233 199
f 199 233 234
f 199 234 235
f 199 235 236
f 199 236 200
f 200 236 237
f 200 237 238
f 200 238 201
f 201 238 224
f 201 224 202
f 202 224 203
f 203 224 239
f 203 239 207
f 204 232 205
f 205 232 233
f 207 239 208
f 208 239 240
f 208 240 209
f 209 240 210
f 210 240 241
f 210 241 211
f 211 242 224
f 211 224 243
f 211 243 244
f 211 244 212
f 211 241 242
f 212 244 245
f 212 245 213
f 213 245 246
f 213 246 214
f 214 246 247
f 214 247 215
f 215 247 218
f 216 227 229
f 216 229 228
f 218 247 246
f 218 246 219
f 219 248 220
f 219 246 248
f 220 248 221
f 221 248 222
f 222 248 245
f 222 245 249
f 222 249 244
f 222 244 250
f 222 250 223
f 223 250 251
f 223 251 224
f 224 238 252
f 224 252 253
f 224 253 229
f 224 229 254
f 224 254 227
f 224 227 225
f 224 251 243
f 224 242 239
f 225 227 226
f 227 254 229
f 229 253 236
f 229 236 235
f 229 235 230
f 230 235 234
f 230 234 231
f 231 234 255
f 231 255 232
f 232 255 233
f 233 255 234
f 236 252 238
f 236 238 237
f 236 253 252
f 239 242 241
f 239 241 240
f 243 250 244
f 243 251 250
f 244 249 245
f 245 248 246
