v 0.585569 0.188436 -0.0429693
v 0.587886 0.188006 -0.0220898
v 0.602828 0.188245 -0.0328112
v 0.572866 0.184758 -0.065277
v 0.514894 0.180006 -0.108786
v 0.485896 0.178 -0.123289
v 0.398795 0.170501 -0.166778
v 0.570706 0.179003 -0.0220898
v 0.659837 0.0947025 -0.0220898
v 0.649476 0.144232 -0.0228341
v 0.622299 0.18323 -0.0252881
v 0.398847 0.168877 -0.152275
v 0.398795 0.156125 -0.130873
v 0.586272 0.178 -0.0713317
v 0.558367 0.182776 -0.07978
v 0.491935 0.175397 -0.134031
v 0.459578 0.173295 -0.150344
v 0.445651 0.174322 -0.146442
v 0.413373 0.170621 -0.166778
v 0.407203 0.163576 -0.183876
v 0.399524 0.146429 -0.201678
v 0.398795 0.11653 -0.21596
v 0.558263 0.167707 -0.0220898
v 0.662231 0.0214353 -0.0220898
v 0.664184 0.0638481 -0.0224116
v 0.65411 0.0942488 -0.0311416
v 0.652574 0.113043 -0.0289491
v 0.645806 0.123264 -0.036271
v 0.638699 0.145713 -0.0376991
v 0.638907 0.164698 -0.0271789
v 0.616703 0.172364 -0.0476763
v 0.398795 0.136996 -0.11649
v 0.574949 0.174943 -0.0854726
v 0.603609 0.173462 -0.0598258
v 0.595617 0.168328 -0.0736449
v 0.533949 0.174227 -0.114036
v 0.513098 0.174776 -0.125381
v 0.476837 0.171934 -0.147488
v 0.427898 0.16988 -0.166778
v 0.427898 0.163217 -0.178747
v 0.4229 0.155576 -0.18814
v 0.440966 0.143277 -0.189428
v 0.427898 0.13776 -0.197092
v 0.415273 0.131933 -0.204112
v 0.398795 0.00727377 -0.227586
v 0.427898 0.123312 -0.203066
v 0.440315 0.110607 -0.20212
v 0.404105 0.0965892 -0.219339
v 0.398847 0.079753 -0.224307
v 0.545742 0.150823 -0.0220898
v 0.653849 0.000754222 -0.0247249
v 0.63797 0.00727377 -0.0506734
v 0.652548 0.0217696 -0.0361101
v 0.653797 0.0362893 -0.0378802
v 0.66473 0.0419492 -0.0225927
v 0.630551 -0.0282613 -0.0220898
v 0.65424 0.0507852 -0.0385038
v 0.653589 0.065281 -0.0375986
v 0.638153 0.108745 -0.0508947
v 0.636487 0.125366 -0.0486619
v 0.628078 0.136853 -0.0553804
v 0.625371 0.150441 -0.0529867
v 0.610481 0.153665 -0.0679523
v 0.398795 0.123217 -0.110516
v 0.583044 0.163217 -0.0897571
v 0.543867 0.163313 -0.119507
v 0.512734 0.158107 -0.143766
v 0.48449 0.157773 -0.160723
v 0.471396 0.162716 -0.162775
v 0.472333 0.145474 -0.174382
v 0.451847 0.132841 -0.189528
v 0.398847 -0.00722207 -0.2266
v 0.398821 -0.0221955 -0.224046
v 0.398795 -0.0470319 -0.21079
v 0.398847 0.065281 -0.225615
v 0.398847 0.0507852 -0.226359
v 0.398847 0.0362893 -0.226983
v 0.398847 0.0217696 -0.227506
v 0.413373 0.0217696 -0.222054
v 0.426544 0.0217696 -0.216985
v 0.419776 0.00727377 -0.219379
v 0.444168 0.0942488 -0.20385
v 0.427898 0.0942488 -0.210649
v 0.464602 0.12336 -0.187054
v 0.456871 0.108745 -0.195
v 0.414908 0.079753 -0.218132
v 0.536865 0.132124 -0.0220898
v 0.642005 -0.017491 -0.0268169
v 0.635081 -0.00636235 -0.0462883
v 0.610403 0.00648569 -0.082576
v 0.625241 0.0139605 -0.0684753
v 0.63896 0.0334236 -0.057231
v 0.645259 0.0507852 -0.050774
v 0.616052 -0.0321301 -0.0220898
v 0.620555 -0.0286434 -0.036452
v 0.639376 0.0678124 -0.0566275
v 0.636539 0.0942488 -0.0557827
v 0.622352 0.0959682 -0.0740271
v 0.625397 0.108745 -0.06755
v 0.623783 0.123264 -0.0654379
v 0.610429 0.123264 -0.0814496
v 0.607566 0.139862 -0.0782915
v 0.596659 0.147814 -0.085372
v 0.398795 0.108673 -0.106915
v 0.586038 0.145331 -0.0966566
v 0.571565 0.157582 -0.102912
v 0.55769 0.154238 -0.115605
v 0.529941 0.157773 -0.133347
v 0.498234 0.150035 -0.158229
v 0.483657 0.136232 -0.173195
v 0.420739 -0.00750865 -0.217569
v 0.413971 -0.0217179 -0.217689
v 0.404105 -0.0342077 -0.21783
v 0.398821 -0.0548171 -0.196287
v 0.398795 -0.0554858 -0.181321
v 0.436176 -0.0299569 -0.203589
v 0.447447 -0.0422557 -0.186833
v 0.432245 -0.0452169 -0.192727
v 0.415299 -0.0475095 -0.200008
v 0.419828 0.0574241 -0.218011
v 0.419698 0.0362893 -0.219178
v 0.442397 0.0362893 -0.209684
v 0.442397 0.0217696 -0.210046
v 0.442397 0.00727377 -0.209503
v 0.427898 0.079753 -0.213003
v 0.456871 0.0942488 -0.198057
v 0.449868 0.0807321 -0.203207
v 0.470745 0.108745 -0.188241
v 0.491154 0.12102 -0.174643
v 0.531086 0.109819 -0.0220898
v 0.626673 -0.0176342 -0.0473142
v 0.613605 -0.011258 -0.0681334
v 0.606577 0.019883 -0.091648
v 0.592858 -0.00906092 -0.0925129
v 0.592936 0.0120739 -0.102711
v 0.622065 0.0362893 -0.0780702
v 0.636044 0.0507852 -0.0627626
v 0.593249 -0.0312226 -0.0644523
v 0.600017 -0.0320823 -0.0220898
v 0.413373 -0.0538141 -0.181281
v 0.442397 -0.0499215 -0.166778
v 0.480377 -0.0437841 -0.155976
v 0.584112 -0.0288584 -0.0824956
v 0.622247 0.065281 -0.0783116
v 0.621466 0.079753 -0.0773059
v 0.611132 0.079753 -0.0891336
v 0.60642 0.101079 -0.0909037
v 0.600043 0.123264 -0.0922917
v 0.398795 0.0930309 -0.104522
v 0.573283 0.123264 -0.116309
v 0.562844 0.138739 -0.119105
v 0.528301 0.139766 -0.144289
v 0.507267 0.13733 -0.159074
v 0.448333 -0.0125237 -0.203267
v 0.463873 -0.043402 -0.173698
v 0.398795 -0.0503514 -0.166859
v 0.456871 -0.0217179 -0.195744
v 0.469678 -0.0235806 -0.187356
v 0.484672 -0.0269718 -0.175267
v 0.442397 0.0507852 -0.208839
v 0.45583 0.0507852 -0.202503
v 0.45648 0.0362893 -0.202844
v 0.456663 0.0217696 -0.202925
v 0.45596 0.00727377 -0.202503
v 0.448671 0.065281 -0.205017
v 0.485896 0.108745 -0.180456
v 0.475796 0.0862247 -0.18979
v 0.471396 0.065281 -0.194094
v 0.514556 0.123264 -0.159275
v 0.498833 0.108745 -0.172974
v 0.530071 0.0951563 -0.0220898
v 0.598038 -0.0180402 -0.07978
v 0.597388 0.0362893 -0.10422
v 0.608138 0.0362893 -0.0932974
v 0.584997 0.0294354 -0.114499
v 0.581456 -0.0109953 -0.102792
v 0.57081 -0.00906092 -0.114056
v 0.575183 0.00918426 -0.118099
v 0.622612 0.0507852 -0.0787542
v 0.580649 -0.0252284 -0.0220898
v 0.551677 -0.0293121 -0.116591
v 0.611887 0.065281 -0.0897974
v 0.600303 0.079753 -0.0999756
v 0.595461 0.0989534 -0.102349
v 0.590047 0.117103 -0.103435
v 0.398795 0.0641347 -0.104602
v 0.52981 0.0731618 -0.0220898
v 0.576771 0.100291 -0.118864
v 0.559278 0.108745 -0.131235
v 0.538999 0.122357 -0.143042
v 0.54949 0.133127 -0.131556
v 0.471396 0.00727377 -0.193994
v 0.481314 -0.000917453 -0.186632
v 0.523511 -0.0253717 -0.14612
v 0.532492 -0.0300763 -0.133709
v 0.398795 -0.0415631 -0.153965
v 0.498885 -0.00932361 -0.172893
v 0.508256 -0.022697 -0.159919
v 0.471396 0.0507852 -0.194698
v 0.471396 0.0362893 -0.195261
v 0.471396 0.0217696 -0.195201
v 0.491544 0.0942488 -0.179772
v 0.483917 0.065281 -0.187416
v 0.502712 0.079753 -0.175347
v 0.542618 0.108745 -0.144028
v 0.523329 0.100816 -0.158692
v 0.504404 0.0942488 -0.171988
v 0.601162 0.0507852 -0.100861
v 0.612173 0.0507852 -0.0900388
v 0.570289 0.0362893 -0.128298
v 0.586402 0.0507852 -0.115042
v 0.564068 0.0235846 -0.131697
v 0.553265 -0.0100878 -0.129706
v 0.559304 0.00727377 -0.131194
v 0.561464 -0.010852 -0.0220898
v 0.398795 -0.030936 -0.143143
v 0.600928 0.065281 -0.100599
v 0.586168 0.065281 -0.114821
v 0.585517 0.079753 -0.114217
v 0.398795 0.0361938 -0.107217
v 0.531372 0.0519553 -0.0220898
v 0.564744 0.0825948 -0.131395
v 0.544622 0.0942488 -0.145496
v 0.484542 0.0217696 -0.187698
v 0.501827 0.00727377 -0.174945
v 0.52135 0.00447968 -0.160402
v 0.540379 -0.00750865 -0.141493
v 0.484412 0.0507852 -0.187678
v 0.484828 0.0362893 -0.187879
v 0.509246 0.0589764 -0.172813
v 0.514894 0.079753 -0.167643
v 0.528301 0.079753 -0.158792
v 0.558367 0.0362893 -0.137893
v 0.570653 0.0507852 -0.12864
v 0.570419 0.065281 -0.128459
v 0.543086 0.00727377 -0.14437
v 0.545299 0.0217696 -0.146059
v 0.547876 0.00428863 -0.0220898
v 0.398795 0.00794244 -0.116691
v 0.399966 -0.0132879 -0.129002
v 0.398795 0.021698 -0.110617
v 0.538817 0.0201935 -0.0220898
v 0.533845 0.0362893 -0.0220898
v 0.558367 0.065281 -0.138255
v 0.546132 0.079753 -0.146562
v 0.506434 0.0282414 -0.174361
v 0.528379 0.0217696 -0.158712
v 0.529264 0.065281 -0.159396
v 0.529628 0.0507852 -0.159657
v 0.546496 0.0362893 -0.146945
v 0.558367 0.0507852 -0.138416
v 0.546835 0.065281 -0.147105
v 0.529316 0.0362893 -0.159456
v 0.546809 0.0507852 -0.147186
f 1 2 3
f 1 3 4
f 1 4 5
f 1 5 6
f 1 6 7
f 1 7 2
f 2 8 23
f 2 23 50
f 2 50 87
f 2 87 130
f 2 130 171
f 2 171 187
f 2 187 221
f 2 221 243
f 2 243 242
f 2 242 238
f 2 238 215
f 2 215 180
f 2 180 139
f 2 139 94
f 2 94 56
f 2 56 24
f 2 24 9
f 2 9 10
f 2 10 11
f 2 11 3
f 2 7 12
f 2 12 13
f 2 13 8
f 3 11 14
f 3 14 4
f 4 14 15
f 4 15 5
f 5 16 17
f 5 17 6
f 5 15 16
f 6 17 18
f 6 18 7
f 7 18 19
f 7 19 20
f 7 20 21
f 7 21 22
f 7 22 45
f 7 45 74
f 7 74 115
f 7 115 156
f 7 156 196
f 7 196 216
f 7 216 239
f 7 239 241
f 7 241 220
f 7 220 186
f 7 186 149
f 7 149 104
f 7 104 64
f 7 64 32
f 7 32 13
f 7 13 12
f 8 13 23
f 9 24 25
f 9 25 26
f 9 26 27
f 9 27 10
f 10 27 28
f 10 28 29
f 10 29 30
f 10 30 11
f 11 30 31
f 11 31 14
f 13 32 23
f 14 33 15
f 14 31 34
f 14 34 35
f 14 35 33
f 15 33 36
f 15 36 37
f 15 37 16
f 16 37 38
f 16 38 17
f 17 38 39
f 17 39 19
f 17 19 18
f 19 39 20
f 20 39 40
f 20 40 41
f 20 41 21
f 21 41 42
f 21 42 43
f 21 43 44
f 21 44 22
f 22 44 46
f 22 46 47
f 22 47 48
f 22 48 49
f 22 49 45
f 23 32 50
f 24 51 52
f 24 52 53
f 24 53 54
f 24 54 55
f 24 55 25
f 24 56 51
f 25 55 57
f 25 57 58
f 25 58 26
f 26 58 59
f 26 59 27
f 27 59 28
f 28 59 60
f 28 60 29
f 29 60 61
f 29 61 62
f 29 62 30
f 30 62 31
f 31 63 35
f 31 35 34
f 31 62 63
f 32 64 50
f 33 35 65
f 33 65 66
f 33 66 36
f 35 63 65
f 36 66 67
f 36 67 68
f 36 68 69
f 36 69 37
f 37 69 38
f 38 69 40
f 38 40 39
f 40 69 41
f 41 69 42
f 42 69 68
f 42 68 70
f 42 70 71
f 42 71 43
f 43 71 46
f 43 46 44
f 45 72 73
f 45 73 74
f 45 49 75
f 45 75 76
f 45 76 77
f 45 77 78
f 45 78 79
f 45 79 80
f 45 80 81
f 45 81 72
f 46 71 47
f 47 82 83
f 47 83 48
f 47 71 84
f 47 84 85
f 47 85 82
f 48 83 49
f 49 83 86
f 49 86 75
f 50 64 87
f 51 56 88
f 51 88 89
f 51 89 52
f 52 89 90
f 52 90 91
f 52 91 92
f 52 92 53
f 53 92 54
f 54 57 55
f 54 92 93
f 54 93 57
f 56 94 95
f 56 95 88
f 57 93 58
f 58 93 96
f 58 96 97
f 58 97 59
f 59 97 98
f 59 98 99
f 59 99 60
f 60 99 100
f 60 100 61
f 61 100 101
f 61 101 102
f 61 102 62
f 62 102 63
f 63 102 103
f 63 103 65
f 64 104 87
f 65 105 106
f 65 106 66
f 65 103 105
f 66 106 107
f 66 107 108
f 66 108 67
f 67 108 109
f 67 109 68
f 68 109 70
f 70 109 110
f 70 110 71
f 71 110 84
f 72 81 111
f 72 111 73
f 73 111 112
f 73 112 113
f 73 113 74
f 74 114 115
f 74 113 116
f 74 116 117
f 74 117 118
f 74 118 119
f 74 119 114
f 75 86 120
f 75 120 121
f 75 121 76
f 76 121 77
f 77 121 78
f 78 121 79
f 79 121 80
f 80 121 122
f 80 122 123
f 80 123 124
f 80 124 81
f 81 124 111
f 82 125 83
f 82 85 126
f 82 126 127
f 82 127 125
f 83 125 86
f 84 128 85
f 84 110 129
f 84 129 128
f 85 128 126
f 86 125 120
f 87 104 130
f 88 95 131
f 88 131 89
f 89 131 132
f 89 132 90
f 90 133 91
f 90 132 134
f 90 134 135
f 90 135 133
f 91 133 136
f 91 136 92
f 92 136 137
f 92 137 93
f 93 137 96
f 94 138 95
f 94 139 115
f 94 115 140
f 94 140 141
f 94 141 142
f 94 142 138
f 95 138 143
f 95 143 131
f 96 137 144
f 96 144 98
f 96 98 97
f 98 144 145
f 98 145 146
f 98 146 147
f 98 147 101
f 98 101 99
f 99 101 100
f 101 147 148
f 101 148 102
f 102 148 105
f 102 105 103
f 104 149 130
f 105 150 151
f 105 151 106
f 105 148 150
f 106 151 107
f 107 151 152
f 107 152 108
f 108 152 109
f 109 152 153
f 109 153 110
f 110 153 129
f 111 124 154
f 111 154 112
f 112 154 116
f 112 116 113
f 114 141 140
f 114 140 115
f 114 119 118
f 114 118 155
f 114 155 142
f 114 142 141
f 115 139 156
f 116 154 157
f 116 157 158
f 116 158 159
f 116 159 117
f 117 159 155
f 117 155 118
f 120 125 160
f 120 160 122
f 120 122 121
f 122 160 161
f 122 161 162
f 122 162 123
f 123 162 163
f 123 163 124
f 124 163 164
f 124 164 154
f 125 127 165
f 125 165 160
f 126 128 166
f 126 166 167
f 126 167 127
f 127 167 168
f 127 168 165
f 128 129 166
f 129 153 169
f 129 169 170
f 129 170 166
f 130 149 171
f 131 143 172
f 131 172 132
f 132 172 134
f 133 173 174
f 133 174 136
f 133 135 175
f 133 175 173
f 134 176 135
f 134 172 176
f 135 176 177
f 135 177 178
f 135 178 175
f 136 174 179
f 136 179 137
f 137 179 144
f 138 142 143
f 139 180 156
f 142 155 181
f 142 181 143
f 143 181 172
f 144 179 182
f 144 182 146
f 144 146 145
f 146 182 183
f 146 183 184
f 146 184 147
f 147 184 148
f 148 184 185
f 148 185 150
f 149 186 187
f 149 187 171
f 150 185 188
f 150 188 189
f 150 189 190
f 150 190 191
f 150 191 151
f 151 191 152
f 152 169 153
f 152 191 190
f 152 190 169
f 154 164 192
f 154 192 193
f 154 193 157
f 155 159 194
f 155 194 195
f 155 195 181
f 156 180 196
f 157 193 158
f 158 193 197
f 158 197 159
f 159 197 198
f 159 198 194
f 160 165 161
f 161 168 162
f 161 165 168
f 162 168 199
f 162 199 200
f 162 200 163
f 163 200 201
f 163 201 164
f 164 201 192
f 166 170 202
f 166 202 167
f 167 203 168
f 167 202 204
f 167 204 203
f 168 203 199
f 169 190 205
f 169 205 206
f 169 206 170
f 170 207 202
f 170 206 207
f 172 181 176
f 173 208 209
f 173 209 174
f 173 175 210
f 173 210 211
f 173 211 208
f 174 209 179
f 175 178 212
f 175 212 210
f 176 181 194
f 176 194 213
f 176 213 177
f 177 213 178
f 178 213 214
f 178 214 212
f 179 209 182
f 180 215 216
f 180 216 196
f 181 195 194
f 182 209 217
f 182 217 183
f 183 217 218
f 183 218 219
f 183 219 184
f 184 219 188
f 184 188 185
f 186 220 221
f 186 221 187
f 188 222 223
f 188 223 189
f 188 219 222
f 189 223 205
f 189 205 190
f 192 201 224
f 192 224 225
f 192 225 193
f 193 225 197
f 194 198 213
f 197 225 226
f 197 226 227
f 197 227 198
f 198 227 213
f 199 203 200
f 200 203 228
f 200 228 229
f 200 229 201
f 201 229 224
f 202 207 204
f 203 204 230
f 203 230 228
f 204 207 231
f 204 231 230
f 205 223 206
f 206 232 231
f 206 231 207
f 206 223 232
f 208 211 218
f 208 218 217
f 208 217 209
f 210 212 233
f 210 233 234
f 210 234 211
f 211 234 235
f 211 235 218
f 212 214 236
f 212 236 237
f 212 237 233
f 213 227 214
f 214 227 236
f 215 238 239
f 215 239 240
f 215 240 216
f 216 240 239
f 218 235 219
f 219 235 222
f 220 241 242
f 220 242 243
f 220 243 221
f 222 235 244
f 222 244 245
f 222 245 223
f 223 245 232
f 224 229 246
f 224 246 225
f 225 246 247
f 225 247 226
f 226 247 237
f 226 237 236
f 226 236 227
f 228 230 229
f 229 230 246
f 230 231 248
f 230 248 249
f 230 249 246
f 231 232 248
f 232 245 248
f 233 237 250
f 233 250 251
f 233 251 234
f 234 251 244
f 234 244 235
f 237 247 250
f 238 242 241
f 238 241 239
f 244 251 252
f 244 252 245
f 245 252 248
f 246 249 253
f 246 253 247
f 247 253 250
f 248 252 249
f 249 252 254
f 249 254 253
f 250 254 251
f 250 253 254
f 251 254 252
