v -0.683955 -0.208323 -0.0531415
v -0.64564 -0.208401 -0.223079
v -0.663151 -0.208401 -0.17958
v -0.673803 -0.208765 -0.136421
v -0.676278 -0.208765 -0.121535
v -0.679958 -0.208998 -0.0951031
v -0.681139 -0.209517 -0.0828256
v -0.681775 -0.211464 -0.0652761
v -0.682615 -0.213567 -0.0405066
v -0.604872 -0.20822 -0.0405066
v -0.557017 -0.20822 -0.223079
v -0.613843 -0.269222 -0.223079
v -0.640348 -0.220809 -0.222739
v -0.643073 -0.226183 -0.211623
v -0.654611 -0.211023 -0.200061
v -0.66599 -0.210608 -0.167356
v -0.651863 -0.2226 -0.193913
v -0.652272 -0.231634 -0.18067
v -0.666012 -0.219849 -0.151344
v -0.666853 -0.22421 -0.137762
v -0.667807 -0.22774 -0.124001
v -0.678118 -0.209284 -0.107756
v -0.671441 -0.224833 -0.108792
v -0.673326 -0.224833 -0.094281
v -0.674802 -0.224833 -0.0797875
v -0.676097 -0.224833 -0.0652761
v -0.677005 -0.225793 -0.0456356
v -0.670895 -0.239707 -0.0405066
v -0.451952 -0.388448 -0.0405066
v -0.451952 -0.335961 -0.223079
v -0.608097 -0.279839 -0.221506
v -0.622837 -0.266211 -0.208835
v -0.624131 -0.253543 -0.221184
v -0.634647 -0.233789 -0.221631
v -0.572893 -0.327083 -0.223079
v -0.640075 -0.235943 -0.207674
v -0.659698 -0.224833 -0.166784
v -0.639848 -0.246041 -0.195646
v -0.638713 -0.259046 -0.178847
v -0.645208 -0.253854 -0.166784
v -0.652658 -0.239344 -0.166784
v -0.65268 -0.246638 -0.152434
v -0.659653 -0.239344 -0.137762
v -0.663355 -0.237942 -0.121999
v -0.665853 -0.236722 -0.110669
v -0.666898 -0.238902 -0.094281
v -0.667602 -0.240304 -0.0797875
v -0.668261 -0.24168 -0.0652761
v -0.668443 -0.243341 -0.0523016
v -0.665876 -0.249545 -0.0415968
v -0.653907 -0.271454 -0.0405066
v -0.488859 -0.451527 -0.0405066
v -0.456108 -0.472605 -0.0458858
v -0.453178 -0.47341 -0.0614516
v -0.452883 -0.461781 -0.149271
v -0.453019 -0.445116 -0.200829
v -0.453382 -0.434369 -0.222364
v -0.486224 -0.410825 -0.223079
v -0.582319 -0.316959 -0.221059
v -0.594583 -0.300969 -0.219898
v -0.609755 -0.287912 -0.207924
v -0.623223 -0.275244 -0.195325
v -0.636123 -0.2402 -0.211623
v -0.553974 -0.349277 -0.222596
v -0.56533 -0.337259 -0.22172
v -0.501214 -0.39891 -0.223079
v -0.539506 -0.364125 -0.22265
v -0.623654 -0.282954 -0.181278
v -0.6376 -0.267457 -0.166784
v -0.639053 -0.271272 -0.153184
v -0.652385 -0.253361 -0.137762
v -0.653771 -0.255879 -0.123286
v -0.654202 -0.258968 -0.110437
v -0.659131 -0.253854 -0.094281
v -0.660516 -0.253854 -0.0797875
v -0.661811 -0.253854 -0.0652761
v -0.653203 -0.269351 -0.0652761
v -0.649137 -0.278437 -0.0507647
v -0.646321 -0.284355 -0.0405066
v -0.505688 -0.439483 -0.0405066
v -0.496195 -0.445739 -0.0507647
v -0.484748 -0.453889 -0.0507647
v -0.470689 -0.463624 -0.0456356
v -0.469917 -0.463079 -0.0652761
v -0.454405 -0.471282 -0.0797875
v -0.453678 -0.468608 -0.108792
v -0.453405 -0.457653 -0.163657
v -0.455381 -0.462897 -0.137762
v -0.471166 -0.449399 -0.152273
v -0.456517 -0.449658 -0.182868
v -0.471234 -0.43494 -0.195789
v -0.462104 -0.435848 -0.208103
v -0.471688 -0.428035 -0.21073
v -0.473664 -0.421 -0.221577
v -0.486156 -0.417158 -0.21148
v -0.49565 -0.408099 -0.214715
v -0.593879 -0.309691 -0.209157
v -0.580956 -0.327472 -0.208192
v -0.608937 -0.297127 -0.195789
v -0.566397 -0.343047 -0.211087
v -0.548977 -0.360362 -0.213678
v -0.517112 -0.392238 -0.21098
v -0.511207 -0.391278 -0.221792
v -0.523472 -0.37983 -0.222632
v -0.534487 -0.374924 -0.213893
v -0.610777 -0.302085 -0.182029
v -0.624972 -0.288924 -0.165998
v -0.641415 -0.272415 -0.139727
v -0.633443 -0.281526 -0.151129
v -0.646866 -0.268339 -0.123286
v -0.639485 -0.285134 -0.108792
v -0.651908 -0.267015 -0.094281
v -0.65259 -0.268261 -0.0797875
v -0.644209 -0.282824 -0.0797875
v -0.645367 -0.282824 -0.0652761
v -0.640325 -0.293389 -0.0456356
v -0.633534 -0.304058 -0.0405066
v -0.500396 -0.441637 -0.0652761
v -0.522041 -0.426789 -0.0405066
v -0.512888 -0.43346 -0.0507647
v -0.487723 -0.450878 -0.0652761
v -0.486883 -0.450307 -0.0797875
v -0.468986 -0.462534 -0.0797875
v -0.454972 -0.46949 -0.0942095
v -0.456721 -0.464896 -0.122643
v -0.465511 -0.463001 -0.0953354
v -0.46701 -0.460379 -0.108792
v -0.465715 -0.448516 -0.168536
v -0.472733 -0.454305 -0.124376
v -0.473914 -0.451268 -0.135814
v -0.485906 -0.44252 -0.137762
v -0.489177 -0.436523 -0.153542
v -0.485883 -0.435044 -0.166784
v -0.480069 -0.433824 -0.182708
v -0.486156 -0.424764 -0.195378
v -0.4815 -0.422688 -0.207423
v -0.491175 -0.419079 -0.199935
v -0.505597 -0.404387 -0.205958
v -0.595855 -0.314545 -0.197362
v -0.578639 -0.338063 -0.194378
v -0.557517 -0.354313 -0.208549
v -0.563786 -0.353327 -0.197702
v -0.538325 -0.378662 -0.200007
v -0.552634 -0.364125 -0.199882
v -0.527287 -0.389668 -0.197666
v -0.5284 -0.383464 -0.208585
v -0.509413 -0.40758 -0.191965
v -0.593561 -0.325084 -0.18344
v -0.609005 -0.311638 -0.166784
v -0.620861 -0.300683 -0.152273
v -0.625812 -0.293441 -0.152273
v -0.638258 -0.283083 -0.123286
v -0.623927 -0.305018 -0.126985
v -0.639598 -0.287912 -0.0956928
v -0.636646 -0.295076 -0.0797875
v -0.637214 -0.295933 -0.0652761
v -0.625176 -0.314208 -0.0652761
v -0.628083 -0.311222 -0.0507647
v -0.625562 -0.315843 -0.0405781
v -0.597876 -0.351873 -0.0405066
v -0.511957 -0.432707 -0.0674921
v -0.533806 -0.416951 -0.0405066
v -0.529104 -0.420325 -0.0507647
v -0.528332 -0.419676 -0.0652761
v -0.485883 -0.449528 -0.094281
v -0.484725 -0.448698 -0.108792
v -0.482499 -0.448127 -0.122339
v -0.500192 -0.43494 -0.123286
v -0.497989 -0.433201 -0.139835
v -0.512184 -0.418404 -0.154096
v -0.503235 -0.421675 -0.167321
v -0.499238 -0.419547 -0.18353
v -0.567624 -0.357558 -0.179366
v -0.580797 -0.341646 -0.181278
v -0.546593 -0.37238 -0.195789
v -0.531535 -0.393484 -0.17933
v -0.546729 -0.378325 -0.18176
v -0.520337 -0.404491 -0.176739
v -0.595764 -0.329289 -0.167767
v -0.610391 -0.31496 -0.153167
v -0.607188 -0.32376 -0.13971
v -0.608846 -0.325967 -0.123286
v -0.610027 -0.32755 -0.108792
v -0.620021 -0.314156 -0.108792
v -0.625244 -0.306913 -0.108792
v -0.623677 -0.312001 -0.094281
v -0.624563 -0.313299 -0.0797875
v -0.616273 -0.326356 -0.0652761
v -0.617954 -0.325889 -0.0456356
v -0.607642 -0.339387 -0.0456356
v -0.607052 -0.338245 -0.0652761
v -0.593788 -0.354417 -0.0652761
v -0.594333 -0.355066 -0.0507647
v -0.587383 -0.363788 -0.0405066
v -0.51039 -0.432396 -0.081521
v -0.50637 -0.434083 -0.094281
v -0.559743 -0.393329 -0.0405066
v -0.544957 -0.406931 -0.0456356
v -0.544072 -0.406152 -0.0652761
v -0.530944 -0.415809 -0.0797875
v -0.520451 -0.421519 -0.105504
v -0.501668 -0.436082 -0.108792
v -0.516726 -0.421987 -0.123286
v -0.514818 -0.420455 -0.137762
v -0.523313 -0.407061 -0.162513
v -0.551839 -0.377702 -0.170394
v -0.564013 -0.366825 -0.165962
v -0.583681 -0.344371 -0.16657
v -0.540778 -0.38985 -0.165873
v -0.529899 -0.399247 -0.168
v -0.592516 -0.338375 -0.154239
v -0.594424 -0.340659 -0.137762
v -0.595878 -0.342424 -0.123286
v -0.596468 -0.344553 -0.109507
v -0.611095 -0.3289 -0.094281
v -0.610913 -0.33134 -0.080681
v -0.593016 -0.353534 -0.0797875
v -0.580138 -0.369862 -0.0652761
v -0.577458 -0.374093 -0.0507647
v -0.573665 -0.378974 -0.0405066
v -0.566761 -0.385567 -0.0507647
v -0.556018 -0.396262 -0.0507647
v -0.555359 -0.395639 -0.0652761
v -0.543095 -0.405244 -0.0797875
v -0.541982 -0.404283 -0.094281
v -0.540165 -0.403946 -0.10831
v -0.532466 -0.408774 -0.121481
v -0.530558 -0.407061 -0.137762
v -0.528559 -0.405218 -0.152273
v -0.543595 -0.391278 -0.152273
v -0.554746 -0.380557 -0.152273
v -0.565398 -0.369655 -0.152273
v -0.579252 -0.354313 -0.152273
v -0.581001 -0.356338 -0.137762
v -0.582727 -0.358337 -0.121481
v -0.601624 -0.340841 -0.094281
v -0.587406 -0.355352 -0.108935
v -0.591926 -0.352211 -0.0961754
v -0.58166 -0.364255 -0.094281
v -0.579343 -0.36898 -0.0797875
v -0.56885 -0.380453 -0.0797875
v -0.56617 -0.38497 -0.0652761
v -0.558085 -0.3912 -0.0797875
v -0.553383 -0.393692 -0.094281
v -0.55193 -0.392316 -0.113403
v -0.547774 -0.394029 -0.125377
v -0.545639 -0.393147 -0.137762
v -0.556563 -0.382504 -0.137762
v -0.567192 -0.371524 -0.137762
v -0.580797 -0.363321 -0.106362
v -0.56801 -0.373626 -0.125037
v -0.566352 -0.37778 -0.113207
v -0.575051 -0.371524 -0.094281
v -0.56424 -0.382945 -0.094281
v -0.559561 -0.385411 -0.108792
v -0.558289 -0.384191 -0.122678
f 1 2 3
f 1 3 4
f 1 4 5
f 1 5 6
f 1 6 7
f 1 7 8
f 1 8 9
f 1 9 10
f 1 10 11
f 1 11 2
f 2 11 30
f 2 30 58
f 2 58 66
f 2 66 35
f 2 35 12
f 2 12 13
f 2 13 14
f 2 14 15
f 2 15 3
f 3 16 4
f 3 15 17
f 3 17 18
f 3 18 16
f 4 16 19
f 4 19 20
f 4 20 21
f 4 21 5
f 5 22 6
f 5 21 23
f 5 23 22
f 6 22 23
f 6 23 24
f 6 24 7
f 7 24 25
f 7 25 26
f 7 26 8
f 8 26 9
f 9 26 27
f 9 27 28
f 9 28 51
f 9 51 79
f 9 79 117
f 9 117 160
f 9 160 194
f 9 194 220
f 9 220 197
f 9 197 162
f 9 162 119
f 9 119 80
f 9 80 52
f 9 52 29
f 9 29 10
f 10 29 11
f 11 29 30
f 12 31 32
f 12 32 33
f 12 33 34
f 12 34 13
f 12 35 31
f 13 34 14
f 14 34 36
f 14 36 17
f 14 17 15
f 16 18 37
f 16 37 19
f 17 36 38
f 17 38 18
f 18 38 39
f 18 39 40
f 18 40 41
f 18 41 37
f 19 37 41
f 19 41 42
f 19 42 43
f 19 43 20
f 20 44 21
f 20 43 44
f 21 44 45
f 21 45 23
f 23 45 24
f 24 45 46
f 24 46 25
f 25 46 47
f 25 47 48
f 25 48 26
f 26 48 49
f 26 49 27
f 27 49 28
f 28 49 50
f 28 50 51
f 29 52 53
f 29 53 54
f 29 54 55
f 29 55 30
f 30 55 56
f 30 56 57
f 30 57 58
f 31 35 59
f 31 59 60
f 31 60 61
f 31 61 32
f 32 61 62
f 32 62 38
f 32 38 63
f 32 63 33
f 33 63 34
f 34 63 36
f 35 64 65
f 35 65 59
f 35 66 67
f 35 67 64
f 36 63 38
f 38 62 39
f 39 62 68
f 39 68 69
f 39 69 40
f 40 42 41
f 40 69 70
f 40 70 42
f 42 70 71
f 42 71 43
f 43 71 44
f 44 71 72
f 44 72 45
f 45 72 73
f 45 73 74
f 45 74 46
f 46 74 47
f 47 74 75
f 47 75 48
f 48 75 76
f 48 76 49
f 49 76 50
f 50 76 51
f 51 76 77
f 51 77 78
f 51 78 79
f 52 80 81
f 52 81 82
f 52 82 83
f 52 83 53
f 53 83 84
f 53 84 54
f 54 84 85
f 54 85 86
f 54 86 55
f 55 87 56
f 55 86 88
f 55 88 89
f 55 89 87
f 56 87 90
f 56 90 91
f 56 91 92
f 56 92 57
f 57 92 93
f 57 93 94
f 57 94 58
f 58 94 95
f 58 95 96
f 58 96 66
f 59 97 60
f 59 65 98
f 59 98 97
f 60 97 61
f 61 97 99
f 61 99 62
f 62 99 68
f 64 100 65
f 64 67 101
f 64 101 100
f 65 100 98
f 66 102 103
f 66 103 104
f 66 104 67
f 66 96 102
f 67 104 105
f 67 105 101
f 68 99 106
f 68 106 107
f 68 107 69
f 69 107 70
f 70 108 71
f 70 107 109
f 70 109 108
f 71 108 110
f 71 110 72
f 72 110 73
f 73 110 111
f 73 111 112
f 73 112 74
f 74 112 75
f 75 112 113
f 75 113 76
f 76 113 77
f 77 113 114
f 77 114 78
f 78 114 115
f 78 115 79
f 79 115 116
f 79 116 117
f 80 118 81
f 80 119 120
f 80 120 118
f 81 118 121
f 81 121 82
f 82 84 83
f 82 121 84
f 84 121 122
f 84 122 123
f 84 123 85
f 85 124 86
f 85 123 124
f 86 125 88
f 86 124 126
f 86 126 127
f 86 127 125
f 87 89 128
f 87 128 90
f 88 129 130
f 88 130 89
f 88 125 129
f 89 130 131
f 89 131 132
f 89 132 133
f 89 133 128
f 90 128 134
f 90 134 91
f 91 134 135
f 91 135 136
f 91 136 92
f 92 136 93
f 93 136 94
f 94 136 95
f 95 137 96
f 95 136 137
f 96 137 138
f 96 138 102
f 97 98 139
f 97 139 99
f 98 100 140
f 98 140 139
f 99 139 106
f 100 101 141
f 100 141 142
f 100 142 140
f 101 105 143
f 101 143 144
f 101 144 141
f 102 145 146
f 102 146 104
f 102 104 103
f 102 138 147
f 102 147 145
f 104 146 105
f 105 146 143
f 106 139 148
f 106 148 149
f 106 149 107
f 107 150 151
f 107 151 109
f 107 149 150
f 108 109 152
f 108 152 110
f 109 151 153
f 109 153 152
f 110 152 111
f 111 152 153
f 111 153 154
f 111 154 112
f 112 154 114
f 112 114 113
f 114 154 155
f 114 155 115
f 115 155 116
f 116 155 156
f 116 156 157
f 116 157 117
f 117 157 158
f 117 158 159
f 117 159 160
f 118 122 121
f 118 120 161
f 118 161 122
f 119 162 163
f 119 163 120
f 120 163 164
f 120 164 161
f 122 161 165
f 122 165 123
f 123 126 124
f 123 165 166
f 123 166 126
f 125 127 129
f 126 166 127
f 127 166 129
f 128 133 134
f 129 166 167
f 129 167 130
f 130 167 131
f 131 167 168
f 131 168 169
f 131 169 132
f 132 169 170
f 132 170 171
f 132 171 133
f 133 171 172
f 133 172 134
f 134 172 135
f 135 172 137
f 135 137 136
f 137 172 147
f 137 147 138
f 139 140 148
f 140 142 173
f 140 173 174
f 140 174 148
f 141 144 142
f 142 144 175
f 142 175 173
f 143 146 145
f 143 145 176
f 143 176 177
f 143 177 175
f 143 175 144
f 145 147 178
f 145 178 176
f 147 172 178
f 148 174 179
f 148 179 149
f 149 180 150
f 149 179 180
f 150 180 153
f 150 153 151
f 153 180 181
f 153 181 182
f 153 182 183
f 153 183 184
f 153 184 185
f 153 185 154
f 154 185 186
f 154 186 187
f 154 187 155
f 155 187 157
f 155 157 156
f 157 159 158
f 157 187 188
f 157 188 189
f 157 189 159
f 159 189 190
f 159 190 160
f 160 190 191
f 160 191 192
f 160 192 193
f 160 193 194
f 161 164 195
f 161 195 196
f 161 196 165
f 162 197 198
f 162 198 163
f 163 198 199
f 163 199 164
f 164 200 201
f 164 201 195
f 164 199 200
f 165 196 202
f 165 202 166
f 166 202 168
f 166 168 167
f 168 202 203
f 168 203 204
f 168 204 169
f 169 204 170
f 170 204 205
f 170 205 171
f 171 205 172
f 172 205 178
f 173 175 177
f 173 177 206
f 173 206 207
f 173 207 208
f 173 208 174
f 174 208 179
f 176 209 177
f 176 178 210
f 176 210 209
f 177 209 206
f 178 205 210
f 179 208 211
f 179 211 180
f 180 211 181
f 181 211 212
f 181 212 182
f 182 212 213
f 182 213 183
f 183 213 214
f 183 214 215
f 183 215 184
f 184 186 185
f 184 215 186
f 186 215 187
f 187 215 216
f 187 216 188
f 188 216 191
f 188 191 190
f 188 190 189
f 191 216 217
f 191 217 192
f 192 217 218
f 192 218 193
f 193 218 194
f 194 218 219
f 194 219 220
f 195 201 196
f 196 201 202
f 197 220 221
f 197 221 222
f 197 222 198
f 198 222 199
f 199 222 223
f 199 223 224
f 199 224 200
f 200 224 201
f 201 224 225
f 201 225 226
f 201 226 227
f 201 227 203
f 201 203 202
f 203 227 228
f 203 228 204
f 204 228 229
f 204 229 205
f 205 229 230
f 205 230 209
f 205 209 210
f 206 209 231
f 206 231 207
f 207 231 232
f 207 232 233
f 207 233 208
f 208 233 211
f 209 230 231
f 211 233 234
f 211 234 212
f 212 234 235
f 212 235 213
f 213 235 214
f 214 236 215
f 214 235 237
f 214 237 238
f 214 238 236
f 215 236 216
f 216 236 217
f 217 236 238
f 217 238 239
f 217 239 240
f 217 240 218
f 218 240 241
f 218 241 242
f 218 242 219
f 219 242 221
f 219 221 220
f 221 242 222
f 222 242 223
f 223 242 243
f 223 243 224
f 224 243 244
f 224 244 225
f 225 244 245
f 225 245 226
f 226 245 227
f 227 245 246
f 227 246 228
f 228 246 247
f 228 247 229
f 229 247 230
f 230 247 231
f 231 248 232
f 231 247 248
f 232 249 234
f 232 234 233
f 232 248 249
f 234 249 235
f 235 250 237
f 235 249 251
f 235 251 252
f 235 252 250
f 237 250 239
f 237 239 238
f 239 250 253
f 239 253 240
f 240 253 241
f 241 253 252
f 241 252 254
f 241 254 243
f 241 243 242
f 243 245 244
f 243 254 245
f 245 254 255
f 245 255 252
f 245 252 256
f 245 256 246
f 246 256 248
f 246 248 247
f 248 251 249
f 248 256 251
f 250 252 253
f 251 256 252
f 252 255 254
