v -0.312228 -0.53817 0.132815
v -0.318286 -0.536394 0.123315
v -0.312228 -0.538062 0.108816
v -0.312228 -0.538154 0.15427
v -0.322429 -0.535328 0.152315
v -0.326354 -0.534139 0.137815
v -0.326354 -0.534 0.108816
v -0.320734 -0.535529 0.0943157
v -0.320679 -0.535421 0.0798159
v -0.320583 -0.535282 0.0653161
v -0.314389 -0.536517 0.0363164
v -0.313541 -0.53627 0.0112258
v -0.312994 -0.535591 -0.0156376
v -0.312228 -0.534232 -0.0488645
v -0.320679 -0.535452 0.203224
v -0.320843 -0.53573 0.174224
v -0.312228 -0.53383 0.340358
v -0.312337 -0.535004 0.313041
v -0.314402 -0.53661 0.234632
v -0.340849 -0.529552 0.188542
v -0.340849 -0.52963 0.16686
v -0.340849 -0.529583 0.123315
v -0.340849 -0.529444 0.0798159
v -0.340849 -0.529645 0.152315
v -0.340849 -0.529336 0.0653161
v -0.326354 -0.533475 0.0508162
v -0.326354 -0.533182 0.0363164
v -0.326354 -0.532811 0.0218165
v -0.326354 -0.532332 0.00731671
v -0.326354 -0.53122 -0.021683
v -0.325821 -0.530541 -0.0425464
v -0.34703 -0.523313 -0.0488645
v -0.312228 -0.457585 -0.0488645
v -0.323154 -0.533737 0.262405
v -0.340849 -0.529305 0.210269
v -0.312228 -0.533104 0.355267
v -0.326354 -0.531267 0.311768
v -0.319653 -0.533691 0.297268
v -0.319899 -0.534124 0.282768
v -0.354797 -0.524471 0.210269
v -0.355139 -0.524579 0.188542
v -0.364041 -0.521599 0.166906
v -0.355358 -0.524688 0.152315
v -0.362811 -0.522201 0.123315
v -0.36091 -0.522757 0.108816
v -0.354592 -0.524564 0.0653161
v -0.347481 -0.526742 0.0508162
v -0.347208 -0.526448 0.0363164
v -0.340849 -0.527653 0.00731671
v -0.340849 -0.527081 -0.00718313
v -0.350914 -0.523097 -0.021683
v -0.357355 -0.520333 -0.0361828
v -0.369867 -0.515468 -0.0425464
v -0.389695 -0.507283 -0.0409555
v -0.44371 -0.47987 -0.04491
v -0.451929 -0.388028 -0.0488645
v -0.451929 -0.381155 0.152315
v -0.312228 -0.450574 0.16686
v -0.340849 -0.528224 0.268268
v -0.340849 -0.528518 0.253768
v -0.340849 -0.528796 0.239269
v -0.340849 -0.529058 0.224769
v -0.340849 -0.527838 0.282768
v -0.365532 -0.520116 0.253768
v -0.365696 -0.520286 0.239269
v -0.361799 -0.521846 0.224769
v -0.326354 -0.528101 0.369767
v -0.326354 -0.529074 0.355267
v -0.326354 -0.52983 0.340767
v -0.326354 -0.530556 0.326268
v -0.312228 -0.531483 0.376949
v -0.340849 -0.526788 0.311768
v -0.340849 -0.525568 0.340767
v -0.340849 -0.526186 0.326268
v -0.369867 -0.519437 0.188542
v -0.362742 -0.52217 0.137815
v -0.370086 -0.519421 0.123315
v -0.364356 -0.521259 0.0823159
v -0.369908 -0.519545 0.152315
v -0.36999 -0.519499 0.137815
v -0.369867 -0.518757 0.0653161
v -0.369867 -0.518402 0.0508162
v -0.369867 -0.518016 0.0363164
v -0.369867 -0.517599 0.0218165
v -0.352363 -0.523684 0.00731671
v -0.346934 -0.526078 0.0218165
v -0.351679 -0.52339 -0.00718313
v -0.358927 -0.520796 -0.00718313
v -0.364014 -0.518418 -0.021683
v -0.369867 -0.516734 -0.00718313
v -0.384321 -0.511005 -0.00718313
v -0.389203 -0.508395 -0.0212284
v -0.399295 -0.504441 -0.00718313
v -0.415951 -0.494974 -0.0407282
v -0.419082 -0.494341 -0.021683
v -0.44609 -0.479762 -0.0230466
v -0.448592 -0.479114 -0.00568314
v -0.451929 -0.479716 0.0873158
v -0.451929 -0.380615 0.173678
v -0.451929 -0.380399 0.195769
v -0.312228 -0.450373 0.188542
v -0.363481 -0.520487 0.268268
v -0.350599 -0.523004 0.326268
v -0.351379 -0.523251 0.311768
v -0.359392 -0.521012 0.297268
v -0.369867 -0.517198 0.297268
v -0.384321 -0.511993 0.282768
v -0.389094 -0.510742 0.253768
v -0.38949 -0.511283 0.210269
v -0.346319 -0.522649 0.362358
v -0.326354 -0.526834 0.384267
v -0.312228 -0.514896 0.414448
v -0.318887 -0.524749 0.403994
v -0.353457 -0.521398 0.340767
v -0.384321 -0.513908 0.16686
v -0.384321 -0.513615 0.123315
v -0.384321 -0.513275 0.0943157
v -0.384321 -0.513074 0.0798159
v -0.384321 -0.512858 0.0653161
v -0.384321 -0.512595 0.0508162
v -0.384321 -0.512317 0.0363164
v -0.39057 -0.509306 0.0218165
v -0.390324 -0.508966 0.00731671
v -0.419424 -0.494835 -0.00718313
v -0.393497 -0.508503 0.0363164
v -0.413339 -0.498835 0.0218165
v -0.426412 -0.492333 0.0218165
v -0.445844 -0.481353 0.0119985
v -0.446992 -0.481693 0.0437708
v -0.442357 -0.484905 0.0798159
v -0.442357 -0.485106 0.0943157
v -0.442357 -0.485291 0.108816
v -0.447143 -0.482789 0.123315
v -0.451929 -0.480087 0.181587
v -0.447033 -0.48211 0.0653161
v -0.451929 -0.381016 0.216405
v -0.312228 -0.450698 0.224769
v -0.312228 -0.450543 0.210269
v -0.36318 -0.520147 0.282768
v -0.358626 -0.520734 0.311768
v -0.357847 -0.52041 0.326268
v -0.369867 -0.516564 0.311768
v -0.384321 -0.511422 0.297268
v -0.392417 -0.507993 0.297268
v -0.390707 -0.509661 0.268268
v -0.413339 -0.499932 0.253768
v -0.39444 -0.508904 0.224769
v -0.413339 -0.499576 0.268268
v -0.3896 -0.511468 0.188542
v -0.355358 -0.517753 0.384267
v -0.369867 -0.513476 0.369767
v -0.369867 -0.514433 0.355267
v -0.340001 -0.521831 0.390403
v -0.312228 -0.495438 0.41163
v -0.326354 -0.500364 0.415448
v -0.340849 -0.500364 0.415312
v -0.355358 -0.500364 0.413812
v -0.340849 -0.512549 0.410494
v -0.357683 -0.51207 0.403358
v -0.369867 -0.515205 0.340767
v -0.369867 -0.5159 0.326268
v -0.398625 -0.507514 0.16686
v -0.389682 -0.51153 0.152315
v -0.389668 -0.511452 0.137815
v -0.398529 -0.507484 0.123315
v -0.39816 -0.507314 0.0943157
v -0.394057 -0.508688 0.0653161
v -0.419684 -0.495252 0.00731671
v -0.401538 -0.505646 0.0798159
v -0.407322 -0.502711 0.0653161
v -0.413339 -0.499576 0.0508162
v -0.423431 -0.494619 0.0508162
v -0.426754 -0.492519 0.0363164
v -0.430678 -0.490727 0.0508162
v -0.42782 -0.49309 0.0943157
v -0.427984 -0.493183 0.108816
v -0.447143 -0.482851 0.145042
v -0.447143 -0.482789 0.166997
v -0.442357 -0.485307 0.188542
v -0.447143 -0.482511 0.220314
v -0.447088 -0.48228 0.246587
v -0.450644 -0.479191 0.282768
v -0.451929 -0.477894 0.299768
v -0.430966 -0.490866 0.0653161
v -0.427588 -0.492967 0.0798159
v -0.451929 -0.381804 0.237905
v -0.312228 -0.451176 0.239269
v -0.392868 -0.506047 0.340767
v -0.396369 -0.50546 0.318859
v -0.396587 -0.506603 0.282768
v -0.427602 -0.492936 0.253768
v -0.413339 -0.500117 0.239269
v -0.401907 -0.505692 0.210269
v -0.427273 -0.492766 0.268268
v -0.413339 -0.499051 0.282768
v -0.422528 -0.494109 0.297268
v -0.376513 -0.508426 0.391221
v -0.398844 -0.50058 0.384267
v -0.384704 -0.507746 0.369767
v -0.394208 -0.504812 0.355267
v -0.451929 -0.436057 0.410812
v -0.312228 -0.480488 0.390221
v -0.451929 -0.421293 0.398494
v -0.427834 -0.456875 0.413994
v -0.418522 -0.474218 0.412176
v -0.384321 -0.491484 0.412267
v -0.399514 -0.486913 0.41113
v -0.398652 -0.494696 0.404949
v -0.407814 -0.503237 0.152315
v -0.407801 -0.503298 0.134179
v -0.413339 -0.50024 0.224769
v -0.413339 -0.500333 0.210269
v -0.407664 -0.503237 0.108816
v -0.413339 -0.500472 0.0943157
v -0.413339 -0.50021 0.0798159
v -0.423718 -0.494773 0.0653161
v -0.428012 -0.493198 0.130543
v -0.431608 -0.491237 0.152315
v -0.431526 -0.491206 0.18136
v -0.431458 -0.49116 0.210269
v -0.427725 -0.493013 0.239269
v -0.447143 -0.481662 0.268268
v -0.442357 -0.483886 0.282768
v -0.44464 -0.481214 0.321813
v -0.446021 -0.479484 0.347267
v -0.447991 -0.476535 0.374222
v -0.451929 -0.469987 0.398449
v -0.451929 -0.383348 0.259814
v -0.312228 -0.452659 0.259496
v -0.413339 -0.497893 0.311768
v -0.413339 -0.49848 0.297268
v -0.42674 -0.492503 0.282768
v -0.429776 -0.49031 0.297268
v -0.41751 -0.49499 0.332268
v -0.422063 -0.491685 0.355267
v -0.428504 -0.48977 0.326268
v -0.411315 -0.493893 0.389585
v -0.421598 -0.49099 0.369767
v -0.398844 -0.501816 0.369767
v -0.44475 -0.463794 0.410539
v -0.451929 -0.41107 0.375858
v -0.312228 -0.469554 0.355495
v -0.451929 -0.404614 0.355904
v -0.436791 -0.477724 0.400812
v -0.413339 -0.500472 0.18136
v -0.424279 -0.495067 0.18136
v -0.427793 -0.493059 0.224769
v -0.433359 -0.483561 0.384267
v -0.451929 -0.385912 0.27895
v -0.312228 -0.454744 0.282768
v -0.312228 -0.465632 0.341267
v -0.451929 -0.397387 0.331586
v -0.451929 -0.391255 0.306677
v -0.312228 -0.462265 0.325586
v -0.312228 -0.456968 0.297495
f 1 2 3
f 1 3 14
f 1 14 33
f 1 33 58
f 1 58 101
f 1 101 138
f 1 138 137
f 1 137 187
f 1 187 229
f 1 229 250
f 1 250 255
f 1 255 254
f 1 254 251
f 1 251 242
f 1 242 202
f 1 202 154
f 1 154 112
f 1 112 71
f 1 71 36
f 1 36 17
f 1 17 4
f 1 4 5
f 1 5 2
f 2 5 6
f 2 6 7
f 2 7 3
f 3 7 8
f 3 8 9
f 3 9 10
f 3 10 11
f 3 11 12
f 3 12 13
f 3 13 14
f 4 15 16
f 4 16 5
f 4 17 18
f 4 18 19
f 4 19 15
f 5 16 20
f 5 20 21
f 5 21 6
f 6 22 23
f 6 23 7
f 6 21 24
f 6 24 22
f 7 23 25
f 7 25 9
f 7 9 8
f 9 25 26
f 9 26 10
f 10 26 11
f 11 26 12
f 12 26 27
f 12 27 28
f 12 28 13
f 13 28 29
f 13 29 30
f 13 30 31
f 13 31 14
f 14 31 32
f 14 32 56
f 14 56 33
f 15 20 16
f 15 19 34
f 15 34 35
f 15 35 20
f 17 36 37
f 17 37 18
f 18 37 38
f 18 38 39
f 18 39 19
f 19 39 34
f 20 35 40
f 20 40 41
f 20 41 42
f 20 42 43
f 20 43 21
f 21 43 44
f 21 44 24
f 22 44 23
f 22 24 44
f 23 44 45
f 23 45 25
f 25 45 46
f 25 46 47
f 25 47 48
f 25 48 28
f 25 28 27
f 25 27 26
f 28 48 49
f 28 49 29
f 29 49 30
f 30 49 50
f 30 50 31
f 31 50 32
f 32 51 52
f 32 52 53
f 32 53 54
f 32 54 55
f 32 55 56
f 32 50 51
f 33 56 57
f 33 57 58
f 34 59 60
f 34 60 61
f 34 61 62
f 34 62 35
f 34 39 63
f 34 63 59
f 35 62 64
f 35 64 65
f 35 65 66
f 35 66 40
f 36 67 68
f 36 68 69
f 36 69 70
f 36 70 37
f 36 71 67
f 37 72 63
f 37 63 39
f 37 39 38
f 37 70 73
f 37 73 74
f 37 74 72
f 40 66 75
f 40 75 41
f 41 75 42
f 42 75 44
f 42 44 76
f 42 76 43
f 43 76 44
f 44 77 78
f 44 78 45
f 44 75 79
f 44 79 80
f 44 80 77
f 45 78 46
f 46 81 82
f 46 82 83
f 46 83 84
f 46 84 85
f 46 85 48
f 46 48 47
f 46 78 81
f 48 86 49
f 48 85 86
f 49 85 87
f 49 87 51
f 49 51 50
f 49 86 85
f 51 87 52
f 52 87 85
f 52 85 88
f 52 88 89
f 52 89 53
f 53 89 90
f 53 90 91
f 53 91 92
f 53 92 54
f 54 92 93
f 54 93 94
f 54 94 55
f 55 94 95
f 55 95 96
f 55 96 97
f 55 97 56
f 56 97 98
f 56 98 134
f 56 134 183
f 56 183 227
f 56 227 201
f 56 201 203
f 56 203 241
f 56 241 243
f 56 243 252
f 56 252 253
f 56 253 249
f 56 249 228
f 56 228 186
f 56 186 136
f 56 136 100
f 56 100 99
f 56 99 57
f 57 99 58
f 58 99 100
f 58 100 101
f 59 64 60
f 59 63 102
f 59 102 64
f 60 64 61
f 61 64 62
f 63 72 103
f 63 103 104
f 63 104 105
f 63 105 102
f 64 102 106
f 64 106 107
f 64 107 108
f 64 108 65
f 65 108 109
f 65 109 75
f 65 75 66
f 67 110 68
f 67 71 111
f 67 111 110
f 68 73 69
f 68 110 73
f 69 73 70
f 71 112 113
f 71 113 111
f 72 74 103
f 73 110 114
f 73 114 103
f 73 103 74
f 75 115 79
f 75 109 115
f 77 116 117
f 77 117 78
f 77 80 115
f 77 115 116
f 78 117 118
f 78 118 81
f 79 115 80
f 81 119 120
f 81 120 121
f 81 121 82
f 81 118 119
f 82 121 83
f 83 121 84
f 84 121 90
f 84 90 85
f 85 90 88
f 88 90 89
f 90 121 91
f 91 121 122
f 91 122 123
f 91 123 92
f 92 123 93
f 93 124 94
f 93 123 125
f 93 125 126
f 93 126 124
f 94 124 95
f 95 124 96
f 96 124 127
f 96 127 128
f 96 128 97
f 97 128 129
f 97 129 98
f 98 130 131
f 98 131 132
f 98 132 133
f 98 133 134
f 98 129 135
f 98 135 130
f 100 136 137
f 100 137 138
f 100 138 101
f 102 105 139
f 102 139 106
f 103 114 140
f 103 140 105
f 103 105 104
f 105 140 106
f 105 106 139
f 106 140 141
f 106 141 142
f 106 142 143
f 106 143 107
f 107 143 144
f 107 144 145
f 107 145 108
f 108 146 147
f 108 147 109
f 108 145 148
f 108 148 146
f 109 147 149
f 109 149 115
f 110 111 150
f 110 150 151
f 110 151 152
f 110 152 114
f 111 153 150
f 111 113 153
f 112 154 155
f 112 155 156
f 112 156 157
f 112 157 158
f 112 158 113
f 113 158 159
f 113 159 153
f 114 160 161
f 114 161 142
f 114 142 141
f 114 141 140
f 114 152 160
f 115 162 163
f 115 163 164
f 115 164 116
f 115 149 162
f 116 165 166
f 116 166 117
f 116 164 165
f 117 166 167
f 117 167 118
f 118 167 125
f 118 125 119
f 119 125 120
f 120 125 121
f 121 125 122
f 122 125 123
f 124 126 168
f 124 168 127
f 125 167 169
f 125 169 170
f 125 170 171
f 125 171 126
f 126 171 172
f 126 172 127
f 126 127 168
f 127 172 173
f 127 173 129
f 127 129 128
f 129 173 174
f 129 174 135
f 130 175 131
f 130 135 175
f 131 175 132
f 132 176 133
f 132 175 176
f 133 176 177
f 133 177 134
f 134 177 178
f 134 178 179
f 134 179 180
f 134 180 181
f 134 181 182
f 134 182 183
f 135 174 184
f 135 184 185
f 135 185 175
f 136 186 187
f 136 187 137
f 142 161 188
f 142 188 143
f 143 188 189
f 143 189 144
f 144 148 190
f 144 190 145
f 144 189 148
f 145 190 148
f 146 191 192
f 146 192 193
f 146 193 147
f 146 148 194
f 146 194 191
f 147 193 149
f 148 189 195
f 148 195 196
f 148 196 194
f 149 193 162
f 150 153 197
f 150 197 198
f 150 198 199
f 150 199 151
f 151 199 152
f 152 199 200
f 152 200 160
f 153 159 197
f 154 201 155
f 154 202 203
f 154 203 201
f 155 201 204
f 155 204 156
f 156 204 205
f 156 205 157
f 157 205 206
f 157 206 158
f 158 207 208
f 158 208 159
f 158 206 207
f 159 208 197
f 160 188 161
f 160 200 188
f 162 209 210
f 162 210 165
f 162 165 163
f 162 193 211
f 162 211 212
f 162 212 209
f 163 165 164
f 165 210 213
f 165 213 169
f 165 169 166
f 166 169 167
f 169 213 214
f 169 214 215
f 169 215 170
f 170 215 171
f 171 215 172
f 172 174 173
f 172 215 216
f 172 216 174
f 174 216 184
f 175 185 216
f 175 216 214
f 175 214 176
f 176 210 217
f 176 217 177
f 176 214 210
f 177 218 219
f 177 219 178
f 177 217 218
f 178 219 220
f 178 220 179
f 179 220 180
f 180 220 221
f 180 221 181
f 181 221 191
f 181 191 194
f 181 194 222
f 181 222 182
f 182 222 183
f 183 222 223
f 183 223 224
f 183 224 225
f 183 225 226
f 183 226 227
f 184 216 185
f 186 228 187
f 187 228 229
f 188 200 189
f 189 200 230
f 189 230 231
f 189 231 195
f 191 221 192
f 192 221 211
f 192 211 193
f 194 196 232
f 194 232 233
f 194 233 224
f 194 224 223
f 194 223 222
f 195 231 196
f 196 233 232
f 196 231 230
f 196 230 234
f 196 234 235
f 196 235 236
f 196 236 233
f 197 237 198
f 197 208 237
f 198 237 238
f 198 238 239
f 198 239 199
f 199 239 200
f 200 235 234
f 200 234 230
f 200 239 235
f 201 227 240
f 201 240 204
f 202 241 203
f 202 242 243
f 202 243 241
f 204 240 205
f 205 240 207
f 205 207 206
f 207 240 208
f 208 244 237
f 208 240 244
f 209 212 245
f 209 245 210
f 210 214 213
f 210 245 246
f 210 246 217
f 211 221 212
f 212 221 246
f 212 246 245
f 214 216 215
f 217 246 218
f 218 246 219
f 219 246 220
f 220 247 221
f 220 246 247
f 221 247 246
f 224 233 225
f 225 233 236
f 225 236 235
f 225 235 238
f 225 238 226
f 226 238 248
f 226 248 227
f 227 248 244
f 227 244 240
f 228 249 250
f 228 250 229
f 235 239 238
f 237 248 238
f 237 244 248
f 242 251 252
f 242 252 243
f 249 253 254
f 249 254 255
f 249 255 250
f 251 254 253
f 251 253 252
