v -0.474591 0.366843 0.202981
v -0.474591 0.367013 0.171218
v -0.311342 0.452404 0.195987
v -0.311342 0.452574 0.21786
v -0.311342 0.45356 0.246772
v -0.474591 0.369392 0.246594
v -0.311342 0.452574 0.181375
v -0.474591 0.374013 -0.0394053
v -0.311342 0.459744 -0.0394053
v -0.311342 0.455157 0.268244
v -0.474591 0.371668 0.268244
v -0.474591 0.465198 -0.0216751
v -0.471619 0.465962 -0.0378016
v -0.448241 0.4802 -0.0394053
v -0.34573 0.526276 -0.0386034
v -0.319508 0.53438 -0.0378016
v -0.311342 0.539036 0.0363265
v -0.311342 0.457875 0.290385
v -0.474591 0.373792 0.282678
v -0.473776 0.468069 0.017349
v -0.474064 0.466608 -0.00550417
v -0.470213 0.467967 -0.0216751
v -0.474591 0.421873 0.40915
v -0.473776 0.46953 0.270873
v -0.473776 0.469785 0.25635
v -0.4585 0.475222 -0.0216751
v -0.426348 0.492432 -0.0378016
v -0.411807 0.499636 -0.0386034
v -0.446786 0.482187 -0.0216751
v -0.442344 0.485653 -0.00719701
v -0.365146 0.519616 -0.0378016
v -0.363404 0.52157 -0.0152157
v -0.340841 0.529199 -0.0144584
v -0.320354 0.535298 -0.0144584
v -0.314746 0.537626 0.011736
v -0.327114 0.53489 0.0363265
v -0.315864 0.538135 0.0508047
v -0.311598 0.540089 0.101456
v -0.311598 0.540395 0.123329
v -0.311342 0.539817 0.181375
v -0.311342 0.462513 0.319653
v -0.474591 0.378362 0.305976
v -0.473377 0.469224 0.0448798
v -0.460817 0.476717 0.0435433
v -0.456454 0.478365 0.0145425
v -0.455575 0.477838 -0.00719701
v -0.472977 0.471314 0.166853
v -0.474591 0.405597 0.391108
v -0.311342 0.495643 0.411689
v -0.333602 0.500367 0.415699
v -0.456838 0.44238 0.413026
v -0.473776 0.4408 0.413248
v -0.473473 0.457875 0.403982
v -0.472977 0.468392 0.329364
v -0.472977 0.469496 0.291365
v -0.457637 0.479061 0.282767
v -0.458068 0.479333 0.261027
v -0.473313 0.467542 0.349812
v -0.467464 0.473913 0.239243
v -0.472977 0.470753 0.219954
v -0.472977 0.471178 0.181375
v -0.427483 0.492891 -0.0216751
v -0.413325 0.50018 -0.0144584
v -0.397665 0.507078 -0.0216751
v -0.390633 0.509286 -0.0378016
v -0.442344 0.486469 0.0145425
v -0.433315 0.492178 0.0363265
v -0.42825 0.493282 -0.00719701
v -0.384353 0.512973 -0.0216751
v -0.384353 0.513704 -0.00719701
v -0.384353 0.514502 0.0145425
v -0.361359 0.523269 0.0145425
v -0.340841 0.530218 0.0145425
v -0.340841 0.531135 0.0508047
v -0.340841 0.531645 0.0725887
v -0.334976 0.533769 0.0943282
v -0.325899 0.536504 0.108806
v -0.318117 0.537931 0.0724996
v -0.325899 0.536487 0.13059
v -0.311598 0.540276 0.144979
v -0.319971 0.536878 0.239243
v -0.311342 0.538934 0.239243
v -0.311342 0.467083 0.340858
v -0.311342 0.470668 0.355826
v -0.474591 0.383425 0.326513
v -0.472977 0.470108 0.0750834
v -0.457653 0.479078 0.0653274
v -0.472977 0.470481 0.0943282
v -0.442344 0.48793 0.0653274
v -0.442344 0.487318 0.0435433
v -0.467656 0.474304 0.196967
v -0.462207 0.477515 0.210243
v -0.462463 0.477685 0.166853
v -0.470756 0.47269 0.146227
v -0.311342 0.484396 0.398949
v -0.474591 0.394146 0.362864
v -0.311598 0.53066 0.39877
v -0.311598 0.52016 0.412357
v -0.311342 0.534907 0.352351
v -0.384353 0.485857 0.415209
v -0.442344 0.456856 0.414451
v -0.326347 0.514876 0.41307
v -0.35535 0.500367 0.415119
v -0.432421 0.47371 0.41111
v -0.459059 0.461324 0.408972
v -0.444006 0.478705 0.399483
v -0.473153 0.465979 0.378501
v -0.460881 0.4767 0.297245
v -0.471363 0.469904 0.311768
v -0.45361 0.480947 0.297245
v -0.442344 0.487199 0.297245
v -0.436384 0.491294 0.261027
v -0.454792 0.481644 0.231982
v -0.43616 0.490937 0.282767
v -0.458979 0.475765 0.355291
v -0.413325 0.501454 0.0145425
v -0.399582 0.507927 0.0145425
v -0.398496 0.507434 -0.00719701
v -0.434514 0.492789 0.0798055
v -0.430503 0.494437 0.0653274
v -0.426252 0.495949 0.0435433
v -0.429017 0.493673 0.0145425
v -0.368214 0.521519 0.0435433
v -0.390713 0.512786 0.0508047
v -0.384353 0.51615 0.0798055
v -0.35535 0.526089 0.0435433
v -0.35535 0.526752 0.0725887
v -0.35535 0.527279 0.10159
v -0.340841 0.532274 0.108806
v -0.340841 0.532206 0.13059
v -0.340841 0.5319 0.159591
v -0.340841 0.531543 0.188548
v -0.340841 0.531237 0.210243
v -0.340841 0.530864 0.231982
v -0.340841 0.530269 0.261027
v -0.340841 0.529623 0.290028
v -0.316487 0.537371 0.260136
v -0.312972 0.537422 0.284192
v -0.311342 0.536708 0.311768
v -0.311342 0.474525 0.370304
v -0.474591 0.387282 0.340813
v -0.468039 0.474083 0.124487
v -0.454808 0.481661 0.108806
v -0.455032 0.481712 0.202981
v -0.458803 0.47969 0.181375
v -0.438988 0.490835 0.147162
v -0.458851 0.479741 0.137807
v -0.311342 0.478637 0.384426
v -0.311598 0.533293 0.384292
v -0.326347 0.52947 0.384292
v -0.346705 0.523184 0.38701
v -0.33496 0.523405 0.401399
v -0.31147 0.534109 0.369458
v -0.35535 0.511614 0.409863
v -0.312093 0.535468 0.335913
v -0.406917 0.488304 0.410442
v -0.376443 0.500486 0.411244
v -0.398831 0.501199 0.398815
v -0.4205 0.491685 0.395875
v -0.448097 0.480098 0.385228
v -0.448592 0.480896 0.369814
v -0.454744 0.479452 0.320856
v -0.455879 0.478059 0.340813
v -0.442344 0.486622 0.311768
v -0.428953 0.493673 0.311768
v -0.42948 0.493927 0.297245
v -0.413325 0.502015 0.290028
v -0.413325 0.503068 0.224765
v -0.434466 0.492789 0.224765
v -0.442344 0.48861 0.224765
v -0.413325 0.502507 0.0508047
v -0.406837 0.505192 0.0363265
v -0.404312 0.506806 0.0508047
v -0.427243 0.496476 0.0798055
v -0.432452 0.494318 0.100476
v -0.369189 0.521876 0.0798055
v -0.390905 0.513041 0.0653274
v -0.407524 0.506245 0.10159
v -0.384353 0.516422 0.108806
v -0.378745 0.518495 0.0943282
v -0.369668 0.522046 0.108806
v -0.360735 0.525427 0.134199
v -0.358051 0.526361 0.161418
v -0.35535 0.526888 0.202981
v -0.35535 0.525818 0.253766
v -0.340841 0.528723 0.319029
v -0.326347 0.533531 0.297245
v -0.35535 0.525138 0.282767
v -0.326347 0.532664 0.319029
v -0.434945 0.493027 0.166853
v -0.431494 0.494964 0.123329
v -0.326347 0.530235 0.369814
v -0.340841 0.52699 0.355291
v -0.340841 0.526191 0.369814
v -0.354695 0.521876 0.369814
v -0.36986 0.515709 0.384292
v -0.377978 0.509048 0.40082
v -0.326347 0.531679 0.340813
v -0.326347 0.530966 0.355291
v -0.392983 0.506908 0.385317
v -0.413325 0.497767 0.384292
v -0.419876 0.495525 0.369814
v -0.430775 0.490954 0.355291
v -0.419061 0.498022 0.32629
v -0.413325 0.501403 0.311768
v -0.427818 0.493078 0.340813
v -0.399167 0.507757 0.311768
v -0.399838 0.508029 0.290028
v -0.400621 0.508352 0.253766
v -0.401228 0.508607 0.224765
v -0.401612 0.50876 0.202981
v -0.407636 0.506245 0.181375
v -0.430982 0.494675 0.206634
v -0.434834 0.492976 0.181375
v -0.413325 0.502864 0.0653274
v -0.407348 0.50599 0.0798055
v -0.409474 0.505583 0.134199
v -0.405686 0.507434 0.152374
v -0.398352 0.510561 0.137807
v -0.378856 0.518563 0.123329
v -0.398448 0.510527 0.152374
v -0.384353 0.516303 0.159591
v -0.373359 0.520687 0.137807
v -0.360671 0.525325 0.181375
v -0.369269 0.521876 0.202981
v -0.360176 0.524662 0.231982
v -0.363915 0.522572 0.268244
v -0.362397 0.522148 0.304818
v -0.356788 0.522606 0.340813
v -0.340841 0.527737 0.340813
v -0.427707 0.496629 0.166853
v -0.355798 0.522267 0.355291
v -0.36986 0.516473 0.369814
v -0.384353 0.511053 0.369814
v -0.384353 0.51248 0.340813
v -0.384353 0.513534 0.319029
v -0.394037 0.508641 0.340813
v -0.396067 0.506415 0.369814
v -0.4073 0.502847 0.340813
v -0.418438 0.496969 0.355291
v -0.398432 0.507434 0.32629
v -0.384353 0.514485 0.290028
v -0.397313 0.51 0.239243
v -0.384353 0.51576 0.210243
v -0.384353 0.516048 0.188548
v -0.372449 0.520279 0.224765
v -0.371154 0.519973 0.268244
v -0.370659 0.519854 0.282767
v -0.363803 0.520823 0.32629
v -0.36986 0.517951 0.340813
v -0.36986 0.517221 0.355291
v -0.396882 0.506772 0.355291
v -0.384353 0.515097 0.253766
v -0.384353 0.515539 0.224765
f 1 2 3
f 1 3 4
f 1 4 5
f 1 5 6
f 1 6 11
f 1 11 19
f 1 19 42
f 1 42 85
f 1 85 141
f 1 141 96
f 1 96 48
f 1 48 23
f 1 23 12
f 1 12 8
f 1 8 2
f 2 7 3
f 2 8 9
f 2 9 7
f 3 7 9
f 3 9 17
f 3 17 40
f 3 40 82
f 3 82 139
f 3 139 99
f 3 99 49
f 3 49 95
f 3 95 148
f 3 148 140
f 3 140 84
f 3 84 83
f 3 83 41
f 3 41 18
f 3 18 10
f 3 10 5
f 3 5 4
f 5 10 6
f 6 10 11
f 8 12 13
f 8 13 14
f 8 14 9
f 9 14 15
f 9 15 16
f 9 16 17
f 10 18 11
f 11 18 19
f 12 20 21
f 12 21 22
f 12 22 13
f 12 23 24
f 12 24 25
f 12 25 20
f 13 22 26
f 13 26 14
f 14 27 28
f 14 28 15
f 14 26 29
f 14 29 30
f 14 30 27
f 15 28 31
f 15 31 32
f 15 32 33
f 15 33 16
f 16 33 34
f 16 34 35
f 16 35 17
f 17 35 36
f 17 36 37
f 17 37 38
f 17 38 39
f 17 39 40
f 18 41 19
f 19 41 42
f 20 43 44
f 20 44 45
f 20 45 46
f 20 46 21
f 20 25 47
f 20 47 43
f 21 46 26
f 21 26 22
f 23 48 49
f 23 49 50
f 23 50 51
f 23 51 52
f 23 52 53
f 23 53 24
f 24 54 55
f 24 55 56
f 24 56 57
f 24 57 25
f 24 53 58
f 24 58 54
f 25 57 59
f 25 59 60
f 25 60 61
f 25 61 47
f 26 46 29
f 27 30 62
f 27 62 28
f 28 62 63
f 28 63 64
f 28 64 65
f 28 65 31
f 29 46 30
f 30 46 45
f 30 45 66
f 30 66 67
f 30 67 68
f 30 68 62
f 31 65 69
f 31 69 32
f 32 69 70
f 32 70 71
f 32 71 72
f 32 72 73
f 32 73 33
f 33 73 34
f 34 73 36
f 34 36 35
f 36 73 74
f 36 74 75
f 36 75 76
f 36 76 77
f 36 77 78
f 36 78 37
f 37 78 38
f 38 78 77
f 38 77 39
f 39 77 79
f 39 79 80
f 39 80 40
f 40 80 81
f 40 81 82
f 41 83 42
f 42 83 84
f 42 84 85
f 43 86 87
f 43 87 44
f 43 47 88
f 43 88 86
f 44 87 89
f 44 89 90
f 44 90 66
f 44 66 45
f 47 61 91
f 47 91 92
f 47 92 93
f 47 93 94
f 47 94 88
f 48 95 49
f 48 96 95
f 49 97 98
f 49 98 50
f 49 99 97
f 50 100 101
f 50 101 51
f 50 98 102
f 50 102 103
f 50 103 100
f 51 101 52
f 52 101 104
f 52 104 105
f 52 105 53
f 53 105 106
f 53 106 107
f 53 107 58
f 54 108 109
f 54 109 55
f 54 58 108
f 55 109 108
f 55 108 56
f 56 108 110
f 56 110 111
f 56 111 57
f 57 112 113
f 57 113 92
f 57 92 59
f 57 111 114
f 57 114 112
f 58 107 115
f 58 115 108
f 59 92 60
f 60 92 91
f 60 91 61
f 62 68 63
f 63 68 116
f 63 116 117
f 63 117 118
f 63 118 64
f 64 118 70
f 64 70 69
f 64 69 65
f 66 90 119
f 66 119 67
f 67 119 120
f 67 120 121
f 67 121 122
f 67 122 68
f 68 122 116
f 70 118 117
f 70 117 71
f 71 123 72
f 71 117 124
f 71 124 125
f 71 125 123
f 72 123 126
f 72 126 73
f 73 126 74
f 74 126 75
f 75 126 127
f 75 127 128
f 75 128 129
f 75 129 76
f 76 129 77
f 77 129 79
f 79 129 130
f 79 130 131
f 79 131 81
f 79 81 80
f 81 131 132
f 81 132 133
f 81 133 134
f 81 134 135
f 81 135 136
f 81 136 137
f 81 137 82
f 82 137 138
f 82 138 139
f 84 140 85
f 85 140 141
f 86 88 142
f 86 142 87
f 87 142 143
f 87 143 119
f 87 119 89
f 88 94 142
f 89 119 90
f 92 113 93
f 93 113 144
f 93 144 145
f 93 145 146
f 93 146 147
f 93 147 94
f 94 147 142
f 95 96 148
f 96 141 148
f 97 149 150
f 97 150 151
f 97 151 152
f 97 152 98
f 97 99 153
f 97 153 149
f 98 154 102
f 98 152 154
f 99 139 155
f 99 155 153
f 100 103 156
f 100 156 104
f 100 104 101
f 102 154 103
f 103 154 157
f 103 157 156
f 104 156 105
f 105 156 106
f 106 158 159
f 106 159 160
f 106 160 107
f 106 156 158
f 107 161 115
f 107 160 161
f 108 115 110
f 110 115 162
f 110 162 111
f 111 162 163
f 111 163 161
f 111 161 164
f 111 164 165
f 111 165 166
f 111 166 114
f 112 114 166
f 112 166 167
f 112 167 168
f 112 168 169
f 112 169 170
f 112 170 113
f 113 170 144
f 115 161 163
f 115 163 162
f 116 122 121
f 116 121 171
f 116 171 172
f 116 172 117
f 117 172 173
f 117 173 124
f 119 174 120
f 119 143 175
f 119 175 174
f 120 174 121
f 121 174 171
f 123 127 126
f 123 125 176
f 123 176 127
f 124 173 177
f 124 177 125
f 125 178 179
f 125 179 180
f 125 180 176
f 125 177 178
f 127 176 128
f 128 176 181
f 128 181 182
f 128 182 183
f 128 183 129
f 129 183 130
f 130 183 184
f 130 184 131
f 131 184 132
f 132 184 133
f 133 184 134
f 134 184 135
f 135 184 185
f 135 185 136
f 136 186 187
f 136 187 137
f 136 185 188
f 136 188 186
f 137 187 138
f 138 187 189
f 138 189 139
f 139 189 155
f 140 148 141
f 142 147 143
f 143 147 175
f 144 170 190
f 144 190 145
f 145 190 146
f 146 191 147
f 146 190 191
f 147 191 175
f 149 153 192
f 149 192 150
f 150 192 193
f 150 193 194
f 150 194 151
f 151 194 195
f 151 195 196
f 151 196 197
f 151 197 152
f 152 197 154
f 153 155 189
f 153 189 198
f 153 198 199
f 153 199 192
f 154 156 157
f 154 197 156
f 156 197 158
f 158 197 200
f 158 200 201
f 158 201 159
f 159 201 160
f 160 201 202
f 160 202 161
f 161 202 203
f 161 203 164
f 164 203 165
f 165 204 205
f 165 205 166
f 165 203 206
f 165 206 204
f 166 205 167
f 167 205 207
f 167 207 208
f 167 208 209
f 167 209 210
f 167 210 168
f 168 211 212
f 168 212 213
f 168 213 169
f 168 210 211
f 169 213 214
f 169 214 170
f 170 214 190
f 171 174 215
f 171 215 173
f 171 173 172
f 173 215 216
f 173 216 177
f 174 175 216
f 174 216 215
f 175 191 217
f 175 217 178
f 175 178 216
f 176 180 181
f 177 216 178
f 178 217 218
f 178 218 219
f 178 219 179
f 179 220 181
f 179 181 180
f 179 219 221
f 179 221 222
f 179 222 220
f 181 220 223
f 181 223 182
f 182 223 183
f 183 224 184
f 183 223 224
f 184 224 225
f 184 225 226
f 184 226 185
f 185 226 227
f 185 227 188
f 186 189 187
f 186 188 228
f 186 228 229
f 186 229 230
f 186 230 198
f 186 198 189
f 188 227 228
f 190 214 231
f 190 231 191
f 191 231 218
f 191 218 217
f 192 199 230
f 192 230 193
f 193 195 194
f 193 230 195
f 195 230 232
f 195 232 196
f 196 200 197
f 196 232 233
f 196 233 234
f 196 234 200
f 198 230 199
f 200 234 235
f 200 235 236
f 200 236 237
f 200 237 238
f 200 238 201
f 201 238 239
f 201 239 240
f 201 240 202
f 202 240 203
f 203 240 206
f 204 206 240
f 204 240 205
f 205 240 239
f 205 239 207
f 207 239 241
f 207 241 237
f 207 237 236
f 207 236 242
f 207 242 208
f 208 242 243
f 208 243 209
f 209 243 210
f 210 243 244
f 210 244 211
f 211 244 245
f 211 245 221
f 211 221 218
f 211 218 212
f 212 231 213
f 212 218 231
f 213 231 214
f 218 221 219
f 220 222 223
f 221 245 222
f 222 245 225
f 222 225 223
f 223 225 224
f 225 244 246
f 225 246 247
f 225 247 226
f 225 245 244
f 226 247 248
f 226 248 227
f 227 248 228
f 228 236 249
f 228 249 229
f 228 248 236
f 229 232 230
f 229 249 232
f 232 249 250
f 232 250 251
f 232 251 233
f 233 251 234
f 234 251 250
f 234 250 235
f 235 250 236
f 236 248 242
f 236 250 249
f 237 252 238
f 237 241 252
f 238 252 239
f 239 252 241
f 242 248 247
f 242 247 246
f 242 246 253
f 242 253 243
f 243 253 254
f 243 254 244
f 244 254 246
f 246 254 253
