v -0.47763 -0.2225 -0.287764
v -0.346135 -0.333706 -0.287764
v -0.57918 -0.245638 -0.287764
v -0.590722 -0.225195 -0.287517
v -0.599737 -0.223096 -0.279147
v -0.619892 -0.2225 -0.254798
v -0.548718 -0.2225 -0.223085
v -0.346135 -0.400943 -0.223085
v -0.346135 -0.441751 -0.287764
v -0.571485 -0.25722 -0.287764
v -0.575821 -0.253825 -0.285719
v -0.582798 -0.253825 -0.27847
v -0.593133 -0.244057 -0.273861
v -0.595918 -0.234367 -0.276963
v -0.605967 -0.223666 -0.271873
v -0.612427 -0.223666 -0.264124
v -0.609642 -0.23302 -0.261743
v -0.623682 -0.2225 -0.249448
v -0.639415 -0.2225 -0.223085
v -0.35469 -0.484373 -0.223085
v -0.346135 -0.487198 -0.223889
v -0.346135 -0.457142 -0.270347
v -0.34823 -0.450923 -0.277045
v -0.3596 -0.43631 -0.287764
v -0.567552 -0.262946 -0.287764
v -0.567437 -0.278336 -0.277413
v -0.580357 -0.261443 -0.275811
v -0.590808 -0.255043 -0.268739
v -0.594368 -0.260692 -0.260743
v -0.597182 -0.251027 -0.264193
v -0.606857 -0.24271 -0.258065
v -0.610417 -0.248851 -0.24841
v -0.612542 -0.238435 -0.253475
v -0.622648 -0.230247 -0.245079
v -0.626582 -0.2225 -0.245029
v -0.636831 -0.2225 -0.228068
v -0.636544 -0.227112 -0.22449
v -0.626955 -0.246571 -0.223085
v -0.362729 -0.481264 -0.223085
v -0.36138 -0.478129 -0.231126
v -0.346135 -0.484477 -0.229245
v -0.346135 -0.470019 -0.253057
v -0.346335 -0.464656 -0.260616
v -0.355265 -0.454655 -0.268961
v -0.360002 -0.448436 -0.274234
v -0.369878 -0.439031 -0.279882
v -0.36896 -0.432268 -0.287606
v -0.382942 -0.425272 -0.287764
v -0.562097 -0.270719 -0.287764
v -0.564107 -0.288001 -0.274025
v -0.577113 -0.271107 -0.272348
v -0.583889 -0.267117 -0.267834
v -0.594856 -0.275979 -0.246922
v -0.597268 -0.268335 -0.25022
v -0.607575 -0.258541 -0.244231
v -0.581563 -0.277715 -0.26268
v -0.591899 -0.268335 -0.257463
v -0.613432 -0.253748 -0.239362
v -0.62061 -0.240223 -0.239875
v -0.62572 -0.235947 -0.235412
v -0.630314 -0.223174 -0.23852
v -0.630429 -0.238901 -0.224402
v -0.623107 -0.245638 -0.231157
v -0.615356 -0.26678 -0.223085
v -0.622619 -0.253774 -0.223743
v -0.370108 -0.47787 -0.223743
v -0.394139 -0.467325 -0.223085
v -0.356097 -0.475279 -0.239198
v -0.351733 -0.479891 -0.234285
v -0.385755 -0.469631 -0.2262
v -0.391498 -0.464034 -0.231955
v -0.381851 -0.466262 -0.235817
v -0.375592 -0.463438 -0.245485
v -0.346135 -0.480539 -0.236583
v -0.346135 -0.475901 -0.244256
v -0.355379 -0.467532 -0.25155
v -0.355379 -0.462453 -0.258786
v -0.369878 -0.452271 -0.264446
v -0.378807 -0.450379 -0.262066
v -0.369878 -0.44626 -0.271696
v -0.380415 -0.436647 -0.277261
v -0.385382 -0.428382 -0.283339
v -0.389028 -0.422215 -0.287764
v -0.558451 -0.282974 -0.282889
v -0.549522 -0.28813 -0.287764
v -0.554431 -0.294375 -0.278698
v -0.550641 -0.304039 -0.275095
v -0.559599 -0.298987 -0.269727
v -0.568528 -0.293934 -0.264358
v -0.586616 -0.281679 -0.252822
v -0.581994 -0.292691 -0.249055
v -0.591669 -0.285643 -0.242224
v -0.597038 -0.281627 -0.238159
v -0.604618 -0.268465 -0.239362
v -0.610676 -0.263723 -0.234563
v -0.578204 -0.287353 -0.25871
v -0.612341 -0.271677 -0.223085
v -0.607776 -0.273362 -0.229631
v -0.398876 -0.465122 -0.223085
v -0.365916 -0.465433 -0.248543
v -0.385755 -0.461883 -0.240116
v -0.398876 -0.462246 -0.22858
v -0.410562 -0.452038 -0.236203
v -0.405279 -0.449136 -0.245871
v -0.395603 -0.451442 -0.24929
v -0.383947 -0.453722 -0.254
v -0.370424 -0.460044 -0.253557
v -0.388483 -0.448022 -0.258945
v -0.398876 -0.438072 -0.264731
v -0.390091 -0.434341 -0.274703
v -0.398876 -0.424884 -0.279964
v -0.39813 -0.417603 -0.287625
v -0.410992 -0.410271 -0.287764
v -0.538439 -0.302225 -0.287764
v -0.545129 -0.298987 -0.283997
v -0.548086 -0.313289 -0.26948
v -0.55512 -0.309377 -0.265428
v -0.564796 -0.303599 -0.260116
v -0.540105 -0.311864 -0.278818
v -0.536889 -0.31943 -0.275843
v -0.573467 -0.298158 -0.254595
v -0.568758 -0.308573 -0.250461
v -0.578405 -0.302381 -0.24406
v -0.594942 -0.29054 -0.232556
v -0.605651 -0.281886 -0.223515
v -0.59233 -0.301552 -0.223085
v -0.412485 -0.457686 -0.223914
v -0.446479 -0.438435 -0.223085
v -0.427759 -0.449162 -0.223819
v -0.420208 -0.449343 -0.231632
v -0.414581 -0.44727 -0.24035
v -0.428104 -0.439989 -0.239654
v -0.423424 -0.436751 -0.248821
v -0.412715 -0.43916 -0.253721
v -0.407432 -0.435818 -0.261984
v -0.399824 -0.445897 -0.254
v -0.398876 -0.432113 -0.271987
v -0.408896 -0.422215 -0.277248
v -0.419749 -0.405037 -0.287764
v -0.532496 -0.309143 -0.287764
v -0.551072 -0.319067 -0.261015
v -0.551359 -0.333914 -0.246884
v -0.528764 -0.31404 -0.28722
v -0.528391 -0.325104 -0.278881
v -0.522907 -0.334509 -0.276292
v -0.532554 -0.32912 -0.271316
v -0.537176 -0.334224 -0.261648
v -0.564911 -0.318264 -0.245586
v -0.58162 -0.306578 -0.234392
v -0.573323 -0.312434 -0.239989
v -0.597182 -0.294504 -0.223522
v -0.583889 -0.31259 -0.22368
v -0.572318 -0.327462 -0.223459
v -0.563073 -0.338733 -0.223085
v -0.486214 -0.410815 -0.223085
v -0.456039 -0.431957 -0.223566
v -0.447857 -0.433901 -0.229954
v -0.441828 -0.441026 -0.223566
v -0.438181 -0.436984 -0.235045
v -0.433071 -0.433823 -0.244712
v -0.417108 -0.433097 -0.258482
v -0.442402 -0.423692 -0.250708
v -0.435109 -0.420557 -0.261028
v -0.425434 -0.423433 -0.264465
v -0.413002 -0.427656 -0.268062
v -0.418572 -0.419287 -0.274133
v -0.427903 -0.409105 -0.278641
v -0.427903 -0.401824 -0.28589
v -0.431118 -0.397834 -0.287764
v -0.515873 -0.327384 -0.287764
v -0.547254 -0.344018 -0.239318
v -0.550268 -0.347231 -0.230879
v -0.553943 -0.33679 -0.239318
v -0.564279 -0.331996 -0.230049
v -0.561666 -0.326814 -0.240179
v -0.523137 -0.349278 -0.262161
v -0.527845 -0.353812 -0.252177
v -0.537119 -0.348682 -0.247194
v -0.514007 -0.339951 -0.279325
v -0.50858 -0.349097 -0.276387
v -0.518256 -0.344148 -0.271829
v -0.568212 -0.322306 -0.235918
v -0.577859 -0.316243 -0.228732
v -0.558968 -0.341505 -0.22563
v -0.555896 -0.346843 -0.223085
v -0.469045 -0.422863 -0.223952
v -0.503843 -0.396668 -0.223085
v -0.499364 -0.399932 -0.223883
v -0.490665 -0.404182 -0.228834
v -0.475477 -0.418303 -0.223952
v -0.464624 -0.42092 -0.232645
v -0.455953 -0.423303 -0.238216
v -0.450498 -0.421127 -0.247289
v -0.442775 -0.43105 -0.239654
v -0.478405 -0.391408 -0.260857
v -0.462471 -0.390346 -0.274279
v -0.435913 -0.406591 -0.276096
v -0.42931 -0.417189 -0.268904
v -0.437349 -0.393792 -0.287764
v -0.501144 -0.342153 -0.287764
v -0.55024 -0.35288 -0.223085
v -0.53999 -0.35161 -0.239318
v -0.522849 -0.363296 -0.247498
v -0.533013 -0.358813 -0.239318
v -0.513547 -0.35402 -0.26703
v -0.50881 -0.36371 -0.262231
v -0.518485 -0.358891 -0.257153
v -0.488913 -0.353579 -0.287764
v -0.49922 -0.354512 -0.279021
v -0.493651 -0.363036 -0.275988
v -0.503326 -0.358709 -0.271898
v -0.506226 -0.390372 -0.230182
v -0.496579 -0.394517 -0.236811
v -0.512571 -0.389232 -0.223085
v -0.493019 -0.391512 -0.246479
v -0.487018 -0.399673 -0.240673
v -0.480989 -0.407731 -0.234867
v -0.460174 -0.417888 -0.242313
v -0.476855 -0.404804 -0.244535
v -0.467179 -0.408224 -0.249176
v -0.483401 -0.395113 -0.251202
v -0.487305 -0.388998 -0.255152
v -0.493938 -0.377805 -0.261838
v -0.485899 -0.381122 -0.265212
v -0.478549 -0.376976 -0.275488
v -0.473639 -0.386045 -0.27005
v -0.468873 -0.380655 -0.278881
v -0.457389 -0.384723 -0.283149
v -0.452824 -0.393688 -0.277748
v -0.440708 -0.397678 -0.281756
v -0.445101 -0.388765 -0.287675
v -0.45469 -0.381744 -0.287764
v -0.541253 -0.362 -0.223085
v -0.535884 -0.361819 -0.231043
v -0.51817 -0.373426 -0.239318
v -0.521299 -0.376302 -0.230986
v -0.525749 -0.366197 -0.239318
v -0.51326 -0.368348 -0.252113
v -0.508006 -0.377442 -0.247061
v -0.503613 -0.373375 -0.256716
v -0.483659 -0.358295 -0.287764
v -0.485899 -0.366508 -0.278989
v -0.485899 -0.373737 -0.272468
v -0.515499 -0.384982 -0.22575
v -0.521069 -0.381744 -0.223085
v -0.499421 -0.380604 -0.252664
v -0.476338 -0.364747 -0.287764
v -0.473295 -0.371354 -0.28413
v -0.462672 -0.375706 -0.287764
v -0.536085 -0.367208 -0.223085
v -0.526783 -0.376354 -0.223085
v -0.530343 -0.370784 -0.226181
f 1 2 9
f 1 9 24
f 1 24 48
f 1 48 83
f 1 83 113
f 1 113 139
f 1 139 169
f 1 169 199
f 1 199 232
f 1 232 249
f 1 249 247
f 1 247 241
f 1 241 208
f 1 208 200
f 1 200 170
f 1 170 140
f 1 140 114
f 1 114 85
f 1 85 49
f 1 49 25
f 1 25 10
f 1 10 3
f 1 3 4
f 1 4 5
f 1 5 6
f 1 6 18
f 1 18 35
f 1 35 36
f 1 36 19
f 1 19 7
f 1 7 2
f 2 8 21
f 2 21 41
f 2 41 74
f 2 74 75
f 2 75 42
f 2 42 22
f 2 22 9
f 2 7 8
f 3 10 11
f 3 11 12
f 3 12 13
f 3 13 14
f 3 14 4
f 4 14 5
f 5 14 15
f 5 15 6
f 6 15 16
f 6 16 17
f 6 17 18
f 7 19 38
f 7 38 64
f 7 64 97
f 7 97 126
f 7 126 154
f 7 154 185
f 7 185 201
f 7 201 233
f 7 233 250
f 7 250 251
f 7 251 245
f 7 245 214
f 7 214 187
f 7 187 155
f 7 155 128
f 7 128 99
f 7 99 67
f 7 67 39
f 7 39 20
f 7 20 8
f 8 20 21
f 9 22 23
f 9 23 24
f 10 25 26
f 10 26 11
f 11 26 27
f 11 27 12
f 12 28 13
f 12 27 28
f 13 29 30
f 13 30 17
f 13 17 14
f 13 28 29
f 14 17 15
f 15 17 16
f 17 31 32
f 17 32 33
f 17 33 18
f 17 30 29
f 17 29 31
f 18 33 34
f 18 34 35
f 19 36 37
f 19 37 38
f 20 39 40
f 20 40 21
f 21 40 41
f 22 42 43
f 22 43 44
f 22 44 23
f 23 44 45
f 23 45 24
f 24 45 46
f 24 46 47
f 24 47 48
f 25 49 26
f 26 49 50
f 26 50 51
f 26 51 27
f 27 51 52
f 27 52 28
f 28 52 29
f 29 53 54
f 29 54 55
f 29 55 32
f 29 32 31
f 29 52 56
f 29 56 57
f 29 57 53
f 32 55 58
f 32 58 59
f 32 59 34
f 32 34 33
f 34 59 60
f 34 60 61
f 34 61 35
f 35 61 36
f 36 61 60
f 36 60 37
f 37 62 38
f 37 60 63
f 37 63 62
f 38 62 63
f 38 63 65
f 38 65 64
f 39 66 40
f 39 67 66
f 40 68 69
f 40 69 41
f 40 66 70
f 40 70 71
f 40 71 72
f 40 72 73
f 40 73 68
f 41 69 74
f 42 75 76
f 42 76 43
f 43 76 77
f 43 77 44
f 44 77 78
f 44 78 45
f 45 78 79
f 45 79 80
f 45 80 81
f 45 81 46
f 46 81 47
f 47 81 82
f 47 82 48
f 48 82 83
f 49 84 50
f 49 85 84
f 50 84 85
f 50 85 86
f 50 86 87
f 50 87 88
f 50 88 89
f 50 89 56
f 50 56 51
f 51 56 52
f 53 57 90
f 53 90 91
f 53 91 92
f 53 92 93
f 53 93 94
f 53 94 55
f 53 55 54
f 55 95 58
f 55 94 95
f 56 89 96
f 56 96 90
f 56 90 57
f 58 63 59
f 58 95 63
f 59 63 60
f 63 95 65
f 64 65 95
f 64 95 98
f 64 98 97
f 66 67 70
f 67 99 71
f 67 71 70
f 68 73 100
f 68 100 75
f 68 75 69
f 69 75 74
f 71 101 72
f 71 99 102
f 71 102 103
f 71 103 104
f 71 104 101
f 72 101 73
f 73 101 104
f 73 104 105
f 73 105 106
f 73 106 79
f 73 79 107
f 73 107 100
f 75 100 76
f 76 100 77
f 77 100 107
f 77 107 79
f 77 79 78
f 79 81 80
f 79 106 108
f 79 108 109
f 79 109 110
f 79 110 81
f 81 110 82
f 82 110 111
f 82 111 83
f 83 111 112
f 83 112 113
f 85 114 115
f 85 115 86
f 86 115 87
f 87 116 117
f 87 117 118
f 87 118 88
f 87 115 114
f 87 114 119
f 87 119 120
f 87 120 116
f 88 118 89
f 89 118 96
f 90 96 91
f 91 96 121
f 91 121 122
f 91 122 123
f 91 123 124
f 91 124 92
f 92 124 93
f 93 124 98
f 93 98 94
f 94 98 95
f 96 118 121
f 97 98 125
f 97 125 126
f 98 124 125
f 99 127 102
f 99 128 129
f 99 129 127
f 102 127 103
f 103 127 130
f 103 130 131
f 103 131 104
f 104 131 132
f 104 132 133
f 104 133 134
f 104 134 135
f 104 135 136
f 104 136 108
f 104 108 105
f 105 108 106
f 108 136 135
f 108 135 109
f 109 137 110
f 109 135 137
f 110 137 138
f 110 138 111
f 111 138 112
f 112 138 113
f 113 138 139
f 114 140 119
f 116 141 117
f 116 120 141
f 117 141 118
f 118 141 142
f 118 142 122
f 118 122 121
f 119 140 120
f 120 140 143
f 120 143 144
f 120 144 145
f 120 145 146
f 120 146 147
f 120 147 142
f 120 142 141
f 122 142 148
f 122 148 123
f 123 149 124
f 123 148 150
f 123 150 149
f 124 126 151
f 124 151 125
f 124 149 152
f 124 152 126
f 125 151 126
f 126 152 153
f 126 153 154
f 127 129 130
f 128 155 156
f 128 156 157
f 128 157 158
f 128 158 129
f 129 158 159
f 129 159 130
f 130 159 132
f 130 132 131
f 132 159 160
f 132 160 133
f 133 161 134
f 133 160 162
f 133 162 163
f 133 163 161
f 134 161 135
f 135 138 137
f 135 161 164
f 135 164 165
f 135 165 138
f 138 165 166
f 138 166 167
f 138 167 139
f 139 167 168
f 139 168 169
f 140 170 143
f 142 171 172
f 142 172 173
f 142 173 174
f 142 174 175
f 142 175 148
f 142 147 176
f 142 176 177
f 142 177 178
f 142 178 171
f 143 170 145
f 143 145 144
f 145 170 179
f 145 179 180
f 145 180 181
f 145 181 176
f 145 176 146
f 146 176 147
f 148 175 182
f 148 182 150
f 149 150 183
f 149 183 152
f 150 182 183
f 152 183 153
f 153 183 182
f 153 182 174
f 153 174 154
f 154 174 173
f 154 173 184
f 154 184 185
f 155 186 156
f 155 187 188
f 155 188 189
f 155 189 190
f 155 190 186
f 156 186 157
f 157 186 191
f 157 191 192
f 157 192 193
f 157 193 194
f 157 194 159
f 157 159 158
f 159 194 160
f 160 194 193
f 160 193 162
f 161 163 164
f 162 193 163
f 163 193 195
f 163 195 196
f 163 196 197
f 163 197 198
f 163 198 166
f 163 166 164
f 164 166 165
f 166 198 197
f 166 197 167
f 167 197 168
f 168 197 169
f 169 197 199
f 170 200 179
f 171 178 172
f 172 201 185
f 172 185 173
f 172 178 202
f 172 202 203
f 172 203 204
f 172 204 201
f 173 185 184
f 174 182 175
f 176 181 205
f 176 205 206
f 176 206 207
f 176 207 177
f 177 207 203
f 177 203 178
f 178 203 202
f 179 200 180
f 180 206 205
f 180 205 181
f 180 200 208
f 180 208 209
f 180 209 210
f 180 210 211
f 180 211 206
f 186 190 191
f 187 212 213
f 187 213 188
f 187 214 212
f 188 213 189
f 189 213 215
f 189 215 216
f 189 216 217
f 189 217 190
f 190 217 191
f 191 218 192
f 191 217 219
f 191 219 218
f 192 218 193
f 193 218 219
f 193 219 220
f 193 220 195
f 195 221 215
f 195 215 222
f 195 222 223
f 195 223 224
f 195 224 225
f 195 225 226
f 195 226 196
f 195 220 221
f 196 227 228
f 196 228 229
f 196 229 197
f 196 226 225
f 196 225 227
f 197 229 230
f 197 230 199
f 199 230 231
f 199 231 232
f 201 204 234
f 201 234 233
f 203 235 236
f 203 236 237
f 203 237 234
f 203 234 204
f 203 207 206
f 203 206 238
f 203 238 239
f 203 239 235
f 206 211 223
f 206 223 240
f 206 240 238
f 208 241 242
f 208 242 209
f 209 242 210
f 210 242 225
f 210 225 243
f 210 243 211
f 211 243 223
f 212 215 213
f 212 214 244
f 212 244 215
f 214 245 244
f 215 221 219
f 215 219 216
f 215 244 245
f 215 245 236
f 215 236 239
f 215 239 246
f 215 246 223
f 215 223 222
f 216 219 217
f 219 221 220
f 223 246 240
f 223 243 225
f 223 225 224
f 225 247 248
f 225 248 249
f 225 249 227
f 225 242 247
f 227 249 228
f 228 249 232
f 228 232 231
f 228 231 229
f 229 231 230
f 233 234 250
f 234 237 250
f 235 239 236
f 236 245 251
f 236 251 252
f 236 252 237
f 237 252 250
f 238 240 239
f 239 240 246
f 241 247 242
f 247 249 248
f 250 252 251
