v 0.262949 0.196288 -0.139362
v 0.274146 0.196288 -0.0220898
v 0.342834 0.196288 -0.139362
v 0.303111 -0.0585615 -0.139362
v 0.353845 0.196288 -0.0220898
v 0.31492 -0.0585615 -0.0220898
v 0.34314 0.196288 -0.137789
v 0.398795 0.16296 -0.139362
v 0.37652 -0.0585615 -0.139362
v 0.353074 0.196288 -0.0362666
v 0.354045 0.195789 -0.0220898
v 0.398795 0.162361 -0.13803
v 0.387877 -0.0585615 -0.0220898
v 0.345999 0.196288 -0.119388
v 0.398795 -0.0203689 -0.139362
v 0.347143 0.196288 -0.111972
v 0.347608 0.196288 -0.10877
v 0.34838 0.196288 -0.101848
v 0.349204 0.196288 -0.0942712
v 0.349483 0.196288 -0.0901731
v 0.350188 0.196288 -0.079773
v 0.35068 0.196288 -0.0725066
v 0.351771 0.196288 -0.0561831
v 0.378116 -0.0585615 -0.129754
v 0.398755 -0.0262313 -0.139362
v 0.359351 0.181296 -0.0220898
v 0.398795 0.158071 -0.132049
v 0.387039 -0.0585615 -0.0362666
v 0.388688 -0.0507533 -0.0220898
v 0.398795 -0.0215663 -0.135528
v 0.380961 -0.0585615 -0.10877
v 0.386121 -0.0585615 -0.0507649
v 0.385683 -0.0585615 -0.0574688
v 0.385137 -0.0585615 -0.0652747
v 0.384632 -0.0585615 -0.0719786
v 0.383967 -0.0585615 -0.079773
v 0.383369 -0.0585615 -0.0864654
v 0.382597 -0.0585615 -0.0942712
v 0.381866 -0.0585615 -0.100975
v 0.389699 -0.0362347 -0.0220898
v 0.388715 -0.0504041 -0.0220898
v 0.362131 0.173088 -0.0220898
v 0.364631 0.165629 -0.0220898
v 0.368806 0.152558 -0.0220898
v 0.368886 0.152283 -0.0220898
v 0.372902 0.138114 -0.0220898
v 0.372996 0.137765 -0.0220898
v 0.376028 0.125915 -0.0220898
v 0.398795 0.152084 -0.126723
v 0.398795 -0.0213917 -0.13539
v 0.398795 -0.00774619 -0.125931
v 0.398795 -0.00752167 -0.125793
v 0.398795 0.00427785 -0.118642
v 0.39031 -0.021741 -0.0220898
v 0.377783 0.11883 -0.0220898
v 0.379924 0.108777 -0.0220898
v 0.398795 0.140633 -0.118424
v 0.398795 0.0115621 -0.11467
v 0.390324 -0.0214167 -0.0220898
v 0.382584 0.0942585 -0.0220898
v 0.398795 0.133374 -0.114498
v 0.384911 0.0797648 -0.0220898
v 0.386946 0.0652711 -0.0220898
v 0.398795 0.0216902 -0.110595
v 0.390789 -0.00724726 -0.0220898
v 0.398795 0.123221 -0.110503
v 0.388395 0.0511017 -0.0220898
v 0.388422 0.0507774 -0.0220898
v 0.389419 0.0362837 -0.0220898
v 0.398795 0.036184 -0.107208
v 0.398795 0.0362837 -0.107197
v 0.398795 0.0632754 -0.104603
v 0.390856 0.00727138 -0.0220898
v 0.398795 0.108702 -0.106875
v 0.390271 0.0217651 -0.0220898
v 0.398795 0.0649718 -0.104568
v 0.398795 0.0922878 -0.104499
v 0.398795 0.0938095 -0.104499
f 1 2 5
f 1 5 10
f 1 10 23
f 1 23 22
f 1 22 21
f 1 21 20
f 1 20 19
f 1 19 18
f 1 18 17
f 1 17 16
f 1 16 14
f 1 14 7
f 1 7 3
f 1 3 8
f 1 8 15
f 1 15 25
f 1 25 9
f 1 9 4
f 1 4 2
f 2 4 6
f 2 6 13
f 2 13 29
f 2 29 41
f 2 41 40
f 2 40 54
f 2 54 59
f 2 59 65
f 2 65 73
f 2 73 75
f 2 75 69
f 2 69 68
f 2 68 67
f 2 67 63
f 2 63 62
f 2 62 60
f 2 60 56
f 2 56 55
f 2 55 48
f 2 48 47
f 2 47 46
f 2 46 45
f 2 45 44
f 2 44 43
f 2 43 42
f 2 42 26
f 2 26 11
f 2 11 5
f 3 7 8
f 4 9 24
f 4 24 31
f 4 31 39
f 4 39 38
f 4 38 37
f 4 37 36
f 4 36 35
f 4 35 34
f 4 34 33
f 4 33 32
f 4 32 28
f 4 28 13
f 4 13 6
f 5 11 12
f 5 12 8
f 5 8 10
f 7 14 8
f 8 14 16
f 8 16 17
f 8 17 18
f 8 18 19
f 8 19 20
f 8 20 21
f 8 21 22
f 8 22 23
f 8 23 10
f 8 12 27
f 8 27 49
f 8 49 57
f 8 57 61
f 8 61 66
f 8 66 74
f 8 74 78
f 8 78 77
f 8 77 76
f 8 76 72
f 8 72 71
f 8 71 70
f 8 70 64
f 8 64 58
f 8 58 53
f 8 53 52
f 8 52 51
f 8 51 50
f 8 50 30
f 8 30 15
f 9 25 24
f 11 26 27
f 11 27 12
f 13 28 25
f 13 25 29
f 15 30 25
f 24 25 31
f 25 28 32
f 25 32 33
f 25 33 34
f 25 34 35
f 25 35 36
f 25 36 37
f 25 37 38
f 25 38 39
f 25 39 31
f 25 30 40
f 25 40 41
f 25 41 29
f 26 42 27
f 27 42 43
f 27 43 44
f 27 44 45
f 27 45 46
f 27 46 47
f 27 47 48
f 27 48 49
f 30 50 40
f 40 50 51
f 40 51 52
f 40 52 53
f 40 53 54
f 48 55 49
f 49 55 56
f 49 56 57
f 53 58 54
f 54 58 59
f 56 60 57
f 57 60 62
f 57 62 63
f 57 63 61
f 58 64 65
f 58 65 59
f 61 63 67
f 61 67 68
f 61 68 69
f 61 69 66
f 64 70 65
f 65 70 71
f 65 71 72
f 65 72 73
f 66 69 75
f 66 75 73
f 66 73 74
f 72 76 73
f 73 76 77
f 73 77 78
f 73 78 74
