v 0.314919 -0.0585615 -0.0220898
v 0.274152 0.196288 -0.0220898
v 0.388694 -0.0507533 -0.0220898
v 0.387888 -0.0585615 -0.0219162
v 0.307498 -0.0585615 0.152301
v 0.263717 0.196288 0.166794
v 0.264419 0.196288 0.152344
v 0.353853 0.196288 -0.0219162
v 0.354048 0.195764 -0.0220898
v 0.389707 -0.0362347 -0.0220898
v 0.390526 -0.0362347 -0.00724985
v 0.389473 -0.0507533 -0.00724985
v 0.38859 -0.0585615 -0.00724985
v 0.307212 -0.0585615 0.15907
v 0.30694 -0.0585615 0.166794
v 0.263327 0.196288 0.178119
v 0.354347 0.196288 -0.00724985
v 0.395035 0.177204 0.253794
v 0.395035 0.176406 0.238998
v 0.395035 0.175059 0.227586
v 0.395035 0.173288 0.220122
v 0.359285 0.181445 -0.0220898
v 0.395035 0.171068 0.214047
v 0.395035 0.161663 0.188403
v 0.390305 -0.0215663 -0.0220898
v 0.390331 -0.021741 -0.0217426
v 0.391215 -0.020793 -0.00612167
v 0.391475 -0.0250089 0.00264343
v 0.39167 -0.0304222 0.0123198
v 0.39115 -0.0356609 0.00741652
v 0.39189 -0.0328919 0.0217791
v 0.391345 -0.0401512 0.0217791
v 0.390006 -0.0507533 0.00728633
v 0.389148 -0.0585615 0.00728633
v 0.30681 -0.0585615 0.17352
v 0.262274 0.196288 0.210229
v 0.262417 0.196288 0.205412
v 0.262859 0.196288 0.191831
v 0.35462 0.196288 0.00728633
v 0.395035 0.175583 0.26846
v 0.355347 0.196288 0.0507647
v 0.355516 0.196288 0.0647368
v 0.355581 0.196288 0.0792296
v 0.355581 0.196288 0.0797937
v 0.355529 0.196288 0.0942865
v 0.355412 0.196288 0.108779
v 0.355269 0.196288 0.123315
v 0.3551 0.196288 0.137808
v 0.35488 0.196288 0.151737
v 0.353619 0.196288 0.224114
v 0.353359 0.196288 0.238607
v 0.351189 0.196288 0.339926
v 0.35076 0.196288 0.35468
v 0.350552 0.196288 0.360017
v 0.350149 0.196288 0.369823
v 0.349941 0.196288 0.373078
v 0.349201 0.196288 0.384316
v 0.348031 0.196288 0.3923
v 0.362248 0.172714 -0.0220898
v 0.395035 0.160615 0.186407
v 0.37601 0.125915 -0.0220898
v 0.372943 0.137914 -0.0220898
v 0.368889 0.152283 -0.0220898
v 0.364613 0.165629 -0.0220898
v 0.390838 0.00744601 -0.0220898
v 0.390786 -0.00724726 -0.0219162
v 0.39141 -0.00724726 -0.010374
v 0.392384 -0.021741 0.0217791
v 0.392995 -0.021741 0.0362719
v 0.393515 -0.021741 0.0507647
v 0.395035 -0.0529236 0.163453
v 0.392085 -0.0370579 0.0366191
v 0.395035 -0.0585615 0.177381
v 0.306693 -0.0585615 0.18133
v 0.306472 -0.0585615 0.210229
v 0.262365 0.196288 0.219818
v 0.30655 -0.0585615 0.195866
v 0.395035 0.174136 0.27588
v 0.347043 0.196288 0.398809
v 0.395035 0.159268 0.184411
v 0.382508 0.0946078 -0.0220898
v 0.379896 0.108877 -0.0220898
v 0.377777 0.11883 -0.0220898
v 0.390253 0.0221143 -0.0220898
v 0.390877 0.00727138 -0.0217426
v 0.391436 0.00727138 -0.0111117
v 0.391748 0.00727138 -0.0038653
v 0.391709 -0.00724726 -0.00312765
v 0.392124 -0.00724726 0.00728633
v 0.393216 -0.00724726 0.0362719
v 0.393736 -0.00724726 0.0507647
v 0.394165 -0.00724726 0.0653009
v 0.393892 -0.021741 0.0653009
v 0.395035 -0.0460884 0.152518
v 0.395035 -0.0585615 0.284559
v 0.30668 -0.0585615 0.224765
v 0.262417 0.196288 0.224765
v 0.395035 0.172764 0.278918
v 0.33987 0.196288 0.412651
v 0.348213 0.188904 0.406316
v 0.395035 0.170394 0.28291
v 0.395035 0.149015 0.169441
v 0.384886 0.0799145 -0.0220898
v 0.389408 0.0362837 -0.0220898
v 0.395035 0.136767 0.156597
v 0.39167 0.0158529 -0.00152215
v 0.392176 0.00727138 0.00728633
v 0.393593 0.00727138 0.0507647
v 0.393437 0.0217651 0.0507647
v 0.395035 0.100894 0.137765
v 0.395035 0.0784427 0.129304
v 0.395035 0.0656453 0.124487
v 0.395035 0.0652961 0.124357
v 0.395035 0.0362837 0.115201
v 0.395035 0.0217651 0.112771
v 0.395035 0.00727138 0.112815
v 0.394412 -0.00724726 0.0797937
v 0.395035 -0.021741 0.126223
v 0.395035 -0.0361349 0.140108
v 0.395035 -0.0450906 0.298531
v 0.38781 -0.0507533 0.384316
v 0.38703 -0.0585615 0.384316
v 0.30694 -0.0585615 0.231491
v 0.30729 -0.0585615 0.239301
v 0.263925 0.196288 0.255183
v 0.352332 0.166777 0.411523
v 0.349681 0.181296 0.408398
v 0.336959 0.196288 0.415254
v 0.334204 0.190201 0.420939
v 0.362898 0.146147 0.406576
v 0.395035 0.162985 0.293758
v 0.395035 0.142554 0.161934
v 0.388408 0.0509521 -0.0220898
v 0.386952 0.0652961 -0.0220898
v 0.395035 0.135569 0.155686
v 0.395035 0.125316 0.149481
v 0.395035 0.116211 0.144751
v 0.395035 0.110224 0.141844
v 0.395035 -0.00724726 0.118065
v 0.395035 -0.0341891 0.307079
v 0.388928 -0.0362347 0.384316
v 0.386991 -0.0362347 0.398809
v 0.385848 -0.0507533 0.398809
v 0.385055 -0.0585615 0.398809
v 0.308148 -0.0585615 0.253794
v 0.264678 0.196288 0.268287
v 0.365796 0.123271 0.410611
v 0.364028 0.137765 0.408225
v 0.348408 0.14672 0.420765
v 0.354919 0.15126 0.413345
v 0.326939 0.196288 0.420852
v 0.325679 0.196288 0.421155
v 0.326004 0.19534 0.421199
v 0.334945 0.181296 0.421155
v 0.377037 0.0866749 0.405795
v 0.370799 0.123271 0.398809
v 0.395035 0.153181 0.300744
v 0.395035 -0.0322682 0.308337
v 0.389746 -0.021741 0.384316
v 0.387732 -0.021741 0.398809
v 0.380714 -0.0507533 0.410828
v 0.380286 -0.0585615 0.410525
v 0.382677 -0.0585615 0.40497
v 0.30911 -0.0585615 0.268287
v 0.264743 0.196288 0.269068
v 0.367355 0.108777 0.412043
v 0.37779 0.0769958 0.407227
v 0.363379 0.0652961 0.420939
v 0.363015 0.0759231 0.420808
v 0.317375 0.196288 0.421025
v 0.326758 0.182044 0.421155
v 0.361949 0.00727138 0.420852
v 0.361858 0.0217651 0.420895
v 0.363768 0.0217651 0.420895
v 0.38525 0.0362837 0.398809
v 0.383469 0.0507774 0.398809
v 0.395035 0.144849 0.304736
v 0.395035 -0.0249091 0.31298
v 0.389928 -0.00724726 0.384316
v 0.395035 -0.0227887 0.314152
v 0.395035 -0.013858 0.31745
v 0.395035 -0.0076464 0.318881
v 0.387875 -0.00724726 0.398809
v 0.381468 -0.021741 0.411566
v 0.381247 -0.0362347 0.411219
v 0.374854 -0.0585615 0.414343
v 0.310578 -0.0585615 0.282736
v 0.26616 0.196288 0.283474
v 0.368954 0.0942585 0.412868
v 0.37857 0.0652961 0.408398
v 0.371072 0.00727138 0.418856
v 0.371033 0.0217651 0.418465
v 0.380974 0.0217651 0.411219
v 0.37063 0.0652961 0.415645
v 0.370032 0.0813115 0.413866
v 0.310188 0.196288 0.417641
v 0.355321 -0.0585615 0.417467
v 0.362638 -0.0159036 0.420635
v 0.3623 -0.00724726 0.420722
v 0.363833 0.00727138 0.420852
v 0.386627 0.0217651 0.398809
v 0.395035 0.135045 0.308511
v 0.395035 -0.00195869 0.319663
v 0.395035 0.0118116 0.320574
v 0.395035 0.0360093 0.319619
v 0.395035 0.109126 0.314108
v 0.395035 0.119978 0.313067
v 0.387446 0.00727138 0.398809
v 0.38139 0.00727138 0.411566
v 0.381494 -0.00724726 0.411696
v 0.370448 -0.00724726 0.418942
v 0.369837 -0.0507533 0.417988
v 0.369837 -0.0585615 0.417641
v 0.312411 -0.0585615 0.297272
v 0.268018 0.196288 0.29788
v 0.379415 0.0507774 0.409527
v 0.380247 0.0362837 0.410438
v 0.300793 0.196288 0.410394
v 0.344132 -0.0585615 0.410264
v 0.349097 -0.0585615 0.413562
v 0.36204 -0.0585615 0.417858
v 0.368473 -0.0211423 0.419116
v 0.363197 -0.00724726 0.420722
v 0.314776 -0.0585615 0.311809
v 0.270098 0.196288 0.311809
v 0.293658 0.196288 0.398592
v 0.336803 -0.0585615 0.398331
v 0.339779 -0.0585615 0.403235
v 0.317557 -0.0585615 0.326258
v 0.270176 0.196288 0.312243
v 0.288031 0.196288 0.382927
v 0.333736 -0.0585615 0.390955
v 0.318129 -0.0585615 0.329209
v 0.272723 0.196288 0.325347
v 0.284224 0.196288 0.369867
v 0.332631 -0.0585615 0.38744
v 0.319077 -0.0585615 0.333635
v 0.272905 0.196288 0.326171
v 0.279857 0.196288 0.354332
v 0.331722 -0.0585615 0.384229
v 0.320689 -0.0585615 0.340924
v 0.322066 -0.0585615 0.346826
v 0.276374 0.196288 0.340794
v 0.327797 -0.0585615 0.369823
v 0.329357 -0.0585615 0.375724
v 0.324145 -0.0585615 0.35533
f 1 2 9
f 1 9 22
f 1 22 59
f 1 59 64
f 1 64 63
f 1 63 62
f 1 62 61
f 1 61 83
f 1 83 82
f 1 82 81
f 1 81 103
f 1 103 134
f 1 134 133
f 1 133 104
f 1 104 84
f 1 84 65
f 1 65 25
f 1 25 10
f 1 10 3
f 1 3 4
f 1 4 13
f 1 13 34
f 1 34 73
f 1 73 95
f 1 95 122
f 1 122 144
f 1 144 163
f 1 163 162
f 1 162 186
f 1 186 213
f 1 213 221
f 1 221 197
f 1 197 220
f 1 220 219
f 1 219 228
f 1 228 227
f 1 227 232
f 1 232 236
f 1 236 240
f 1 240 245
f 1 245 244
f 1 244 246
f 1 246 242
f 1 242 241
f 1 241 237
f 1 237 233
f 1 233 229
f 1 229 224
f 1 224 214
f 1 214 187
f 1 187 164
f 1 164 145
f 1 145 124
f 1 124 123
f 1 123 96
f 1 96 75
f 1 75 77
f 1 77 74
f 1 74 35
f 1 35 15
f 1 15 14
f 1 14 5
f 1 5 6
f 1 6 7
f 1 7 2
f 2 8 9
f 2 7 6
f 2 6 16
f 2 16 38
f 2 38 37
f 2 37 36
f 2 36 76
f 2 76 97
f 2 97 125
f 2 125 146
f 2 146 165
f 2 165 188
f 2 188 215
f 2 215 225
f 2 225 230
f 2 230 234
f 2 234 238
f 2 238 243
f 2 243 239
f 2 239 235
f 2 235 231
f 2 231 226
f 2 226 218
f 2 218 196
f 2 196 170
f 2 170 152
f 2 152 151
f 2 151 128
f 2 128 99
f 2 99 79
f 2 79 58
f 2 58 57
f 2 57 56
f 2 56 55
f 2 55 54
f 2 54 53
f 2 53 52
f 2 52 51
f 2 51 50
f 2 50 49
f 2 49 48
f 2 48 47
f 2 47 46
f 2 46 45
f 2 45 44
f 2 44 43
f 2 43 42
f 2 42 41
f 2 41 39
f 2 39 17
f 2 17 8
f 3 10 11
f 3 11 12
f 3 12 4
f 4 12 13
f 5 14 6
f 6 14 15
f 6 15 16
f 8 17 18
f 8 18 19
f 8 19 20
f 8 20 21
f 8 21 9
f 9 21 23
f 9 23 24
f 9 24 22
f 10 25 26
f 10 26 11
f 11 26 27
f 11 27 28
f 11 28 29
f 11 29 30
f 11 30 12
f 12 30 31
f 12 31 32
f 12 32 33
f 12 33 34
f 12 34 13
f 15 35 36
f 15 36 37
f 15 37 38
f 15 38 16
f 17 39 18
f 18 40 78
f 18 78 98
f 18 98 101
f 18 101 131
f 18 131 157
f 18 157 177
f 18 177 202
f 18 202 207
f 18 207 206
f 18 206 205
f 18 205 204
f 18 204 203
f 18 203 182
f 18 182 181
f 18 181 180
f 18 180 178
f 18 178 158
f 18 158 140
f 18 140 120
f 18 120 95
f 18 95 73
f 18 73 71
f 18 71 94
f 18 94 119
f 18 119 118
f 18 118 139
f 18 139 116
f 18 116 115
f 18 115 114
f 18 114 113
f 18 113 112
f 18 112 111
f 18 111 110
f 18 110 138
f 18 138 137
f 18 137 136
f 18 136 135
f 18 135 105
f 18 105 132
f 18 132 102
f 18 102 80
f 18 80 60
f 18 60 24
f 18 24 23
f 18 23 21
f 18 21 20
f 18 20 19
f 18 39 41
f 18 41 42
f 18 42 43
f 18 43 44
f 18 44 45
f 18 45 46
f 18 46 47
f 18 47 48
f 18 48 49
f 18 49 50
f 18 50 51
f 18 51 52
f 18 52 53
f 18 53 54
f 18 54 55
f 18 55 56
f 18 56 57
f 18 57 58
f 18 58 40
f 22 24 59
f 24 60 61
f 24 61 62
f 24 62 63
f 24 63 64
f 24 64 59
f 25 65 66
f 25 66 26
f 26 66 27
f 27 66 67
f 27 67 28
f 28 68 69
f 28 69 29
f 28 67 68
f 29 69 31
f 29 31 30
f 31 69 70
f 31 70 71
f 31 71 72
f 31 72 32
f 32 72 71
f 32 71 33
f 33 71 73
f 33 73 34
f 35 74 36
f 36 75 76
f 36 74 77
f 36 77 75
f 40 58 79
f 40 79 78
f 60 80 81
f 60 81 82
f 60 82 83
f 60 83 61
f 65 84 85
f 65 85 66
f 66 85 67
f 67 85 86
f 67 86 87
f 67 87 88
f 67 88 69
f 67 69 68
f 69 88 89
f 69 89 90
f 69 90 91
f 69 91 70
f 70 91 92
f 70 92 93
f 70 93 71
f 71 93 94
f 75 96 97
f 75 97 76
f 78 79 98
f 79 99 100
f 79 100 101
f 79 101 98
f 80 102 81
f 81 102 103
f 84 104 105
f 84 105 106
f 84 106 85
f 85 106 86
f 86 106 87
f 87 106 107
f 87 107 89
f 87 89 88
f 89 107 90
f 90 107 91
f 91 108 92
f 91 107 108
f 92 108 109
f 92 109 110
f 92 110 111
f 92 111 112
f 92 112 113
f 92 113 114
f 92 114 115
f 92 115 116
f 92 116 117
f 92 117 118
f 92 118 119
f 92 119 93
f 93 119 94
f 95 120 121
f 95 121 122
f 96 123 97
f 97 123 124
f 97 124 125
f 99 126 127
f 99 127 100
f 99 128 129
f 99 129 126
f 100 127 130
f 100 130 131
f 100 131 101
f 102 132 133
f 102 133 134
f 102 134 103
f 104 133 132
f 104 132 105
f 105 135 106
f 106 135 136
f 106 136 107
f 107 136 137
f 107 137 109
f 107 109 108
f 109 137 138
f 109 138 110
f 116 139 117
f 117 139 118
f 120 140 141
f 120 141 121
f 121 141 142
f 121 142 143
f 121 143 122
f 122 143 144
f 124 145 146
f 124 146 125
f 126 147 148
f 126 148 130
f 126 130 127
f 126 129 149
f 126 149 150
f 126 150 147
f 128 151 129
f 129 151 152
f 129 152 153
f 129 153 154
f 129 154 149
f 130 148 155
f 130 155 156
f 130 156 131
f 131 156 155
f 131 155 157
f 140 158 159
f 140 159 141
f 141 159 142
f 142 160 161
f 142 161 162
f 142 162 163
f 142 163 143
f 142 159 160
f 143 163 144
f 145 164 146
f 146 164 165
f 147 150 149
f 147 149 166
f 147 166 167
f 147 167 155
f 147 155 148
f 149 154 168
f 149 168 169
f 149 169 166
f 152 170 153
f 153 170 171
f 153 171 172
f 153 172 173
f 153 173 174
f 153 174 154
f 154 174 168
f 155 167 175
f 155 175 176
f 155 176 157
f 157 176 175
f 157 175 177
f 158 178 159
f 159 179 160
f 159 178 180
f 159 180 181
f 159 181 182
f 159 182 179
f 160 179 183
f 160 183 184
f 160 184 185
f 160 185 161
f 161 185 186
f 161 186 162
f 164 187 188
f 164 188 165
f 166 189 190
f 166 190 167
f 166 169 189
f 167 190 175
f 168 174 191
f 168 191 192
f 168 192 169
f 169 192 193
f 169 193 194
f 169 194 195
f 169 195 189
f 170 196 197
f 170 197 198
f 170 198 199
f 170 199 172
f 170 172 171
f 172 199 223
f 172 223 200
f 172 200 174
f 172 174 173
f 174 200 191
f 175 201 177
f 175 190 201
f 177 201 202
f 179 182 203
f 179 203 204
f 179 204 205
f 179 205 206
f 179 206 207
f 179 207 208
f 179 208 183
f 183 208 209
f 183 209 210
f 183 210 184
f 184 210 191
f 184 191 211
f 184 211 212
f 184 212 185
f 185 212 213
f 185 213 186
f 187 214 188
f 188 214 215
f 189 195 190
f 190 195 194
f 190 194 216
f 190 216 201
f 191 200 211
f 191 210 209
f 191 209 192
f 192 209 193
f 193 209 208
f 193 208 201
f 193 201 217
f 193 217 194
f 194 217 216
f 196 218 219
f 196 219 220
f 196 220 197
f 197 221 198
f 198 221 213
f 198 213 212
f 198 212 222
f 198 222 223
f 198 223 199
f 200 223 211
f 201 208 202
f 201 216 217
f 202 208 207
f 211 223 222
f 211 222 212
f 214 224 225
f 214 225 215
f 218 226 227
f 218 227 228
f 218 228 219
f 224 229 230
f 224 230 225
f 226 231 232
f 226 232 227
f 229 233 230
f 230 233 234
f 231 235 236
f 231 236 232
f 233 237 234
f 234 237 238
f 235 239 240
f 235 240 236
f 237 241 238
f 238 241 242
f 238 242 243
f 239 243 244
f 239 244 245
f 239 245 240
f 242 246 243
f 243 246 244
