v -0.434132 0.232218 -0.305506
v -0.434132 0.354626 -0.220764
v -0.434132 0.378577 -0.305506
v -0.294252 0.326683 -0.305506
v -0.294252 0.424496 -0.220764
v -0.434132 0.448795 -0.220764
v -0.427847 0.387712 -0.301217
v -0.41907 0.390552 -0.303722
v -0.409938 0.394303 -0.305506
v -0.434132 0.393928 -0.292133
v -0.420248 0.405877 -0.28986
v -0.294252 0.444268 -0.305506
v -0.294252 0.505887 -0.220764
v -0.430832 0.450671 -0.220764
v -0.421111 0.449894 -0.232627
v -0.430777 0.447081 -0.22745
v -0.434132 0.439499 -0.23743
v -0.414826 0.399795 -0.298139
v -0.401298 0.403385 -0.302212
v -0.393219 0.404082 -0.305506
v -0.434132 0.401269 -0.285438
v -0.427847 0.403305 -0.287545
v -0.434132 0.406144 -0.280933
v -0.434132 0.408797 -0.278337
v -0.427847 0.410672 -0.280295
v -0.415278 0.414476 -0.283978
v -0.4019 0.418361 -0.287769
v -0.410581 0.40869 -0.292547
v -0.297332 0.443491 -0.305506
v -0.294252 0.447536 -0.302619
v -0.294252 0.505672 -0.221311
v -0.298099 0.504895 -0.220764
v -0.409267 0.462646 -0.220764
v -0.41206 0.451608 -0.238202
v -0.416044 0.447188 -0.242291
v -0.42771 0.442285 -0.239205
v -0.406282 0.464227 -0.220764
v -0.402188 0.462164 -0.228479
v -0.434132 0.434837 -0.245601
v -0.396766 0.412226 -0.296306
v -0.391631 0.406118 -0.304593
v -0.390919 0.405341 -0.305506
v -0.434132 0.415682 -0.27024
v -0.427847 0.417932 -0.272256
v -0.419974 0.420236 -0.275143
v -0.410307 0.422996 -0.278104
v -0.392001 0.43532 -0.275798
v -0.392234 0.420933 -0.290399
v -0.311833 0.439231 -0.305506
v -0.297332 0.447108 -0.302212
v -0.297332 0.454502 -0.294953
v -0.294252 0.452894 -0.297351
v -0.294252 0.504172 -0.224372
v -0.296579 0.503931 -0.223734
v -0.311833 0.499323 -0.224812
v -0.312011 0.501038 -0.220764
v -0.406378 0.449733 -0.246771
v -0.424643 0.437517 -0.249724
v -0.403872 0.465406 -0.220764
v -0.397957 0.466531 -0.224115
v -0.392521 0.464548 -0.232892
v -0.397957 0.458735 -0.238359
v -0.434132 0.434516 -0.246066
v -0.387345 0.407189 -0.305506
v -0.384347 0.422969 -0.292382
v -0.384347 0.415227 -0.299632
v -0.372407 0.418227 -0.302486
v -0.362754 0.420665 -0.304643
v -0.36411 0.41895 -0.305506
v -0.434132 0.420451 -0.264408
v -0.427847 0.423719 -0.265005
v -0.418345 0.433793 -0.259389
v -0.408678 0.436552 -0.26299
v -0.401681 0.432667 -0.272646
v -0.397642 0.438454 -0.268017
v -0.389673 0.448688 -0.259804
v -0.384648 0.444857 -0.26795
v -0.369833 0.447643 -0.273102
v -0.362111 0.449385 -0.275309
v -0.384347 0.437088 -0.277781
v -0.363288 0.435427 -0.290399
v -0.372955 0.433096 -0.287952
v -0.384347 0.430229 -0.285031
v -0.322266 0.43607 -0.305506
v -0.311833 0.444938 -0.299956
v -0.331933 0.434543 -0.304062
v -0.311833 0.452144 -0.292705
v -0.297332 0.461735 -0.28747
v -0.294252 0.462191 -0.28796
v -0.294252 0.454904 -0.295368
v -0.294252 0.496403 -0.239579
v -0.296292 0.495894 -0.239628
v -0.311833 0.494527 -0.234626
v -0.319952 0.493375 -0.232544
v -0.325402 0.495385 -0.224688
v -0.315885 0.499912 -0.220764
v -0.386866 0.461762 -0.242557
v -0.377199 0.464147 -0.246638
v -0.398847 0.451582 -0.249393
v -0.398847 0.446384 -0.256643
v -0.412361 0.441857 -0.253076
v -0.428819 0.431515 -0.254262
v -0.380321 0.476417 -0.220764
v -0.383279 0.47355 -0.223725
v -0.38295 0.466022 -0.238359
v -0.434132 0.421844 -0.262658
v -0.367848 0.426881 -0.296447
v -0.355347 0.437195 -0.292091
v -0.355347 0.429533 -0.299342
v -0.340846 0.432694 -0.302337
v -0.358345 0.42163 -0.305506
v -0.362083 0.419915 -0.305506
v -0.380006 0.450966 -0.262882
v -0.369833 0.453296 -0.265852
v -0.359386 0.462807 -0.25919
v -0.355908 0.457101 -0.268622
v -0.35243 0.451394 -0.277806
v -0.356497 0.445366 -0.282709
v -0.368806 0.439526 -0.282999
v -0.330714 0.433203 -0.305506
v -0.340846 0.429051 -0.305506
v -0.355347 0.422916 -0.305506
v -0.340846 0.440088 -0.295086
v -0.33159 0.448929 -0.28937
v -0.321924 0.45051 -0.291029
v -0.311833 0.459405 -0.284982
v -0.320582 0.464629 -0.27618
v -0.311833 0.465968 -0.277731
v -0.297332 0.468031 -0.28022
v -0.294252 0.466665 -0.282817
v -0.294252 0.494929 -0.242283
v -0.300427 0.491982 -0.244672
v -0.311833 0.490375 -0.241877
v -0.325402 0.488392 -0.238152
v -0.329619 0.491822 -0.229433
v -0.325662 0.497019 -0.220764
v -0.334137 0.494393 -0.220764
v -0.369833 0.476872 -0.22862
v -0.362097 0.478399 -0.231689
v -0.352416 0.480302 -0.235033
v -0.340641 0.48223 -0.239645
v -0.345324 0.477542 -0.244706
v -0.335657 0.479391 -0.247825
v -0.369833 0.465567 -0.248837
v -0.369833 0.460557 -0.256087
v -0.375789 0.478399 -0.220764
v -0.340846 0.447322 -0.287595
v -0.354867 0.467897 -0.254138
v -0.349719 0.464736 -0.261944
v -0.340846 0.453671 -0.280344
v -0.340846 0.460932 -0.271418
v -0.330262 0.462914 -0.27399
v -0.325785 0.468272 -0.268821
v -0.316255 0.477783 -0.259837
v -0.311586 0.473818 -0.267378
v -0.297332 0.475292 -0.271003
v -0.294252 0.475667 -0.271534
v -0.294252 0.468219 -0.280933
v -0.294252 0.49 -0.250446
v -0.296292 0.488098 -0.252537
v -0.311586 0.482552 -0.254528
v -0.326346 0.480944 -0.250214
v -0.3373 0.493295 -0.220764
v -0.335657 0.493884 -0.220764
v -0.341052 0.489973 -0.224688
v -0.371339 0.480221 -0.220764
v -0.369833 0.480516 -0.221361
v -0.356497 0.483409 -0.22604
v -0.326346 0.476176 -0.257464
v -0.340641 0.474006 -0.253117
v -0.340846 0.466397 -0.264167
v -0.306588 0.479176 -0.261919
v -0.297332 0.480435 -0.263753
v -0.294252 0.480837 -0.264284
v -0.294252 0.488312 -0.25301
f 1 2 6
f 1 6 17
f 1 17 39
f 1 39 63
f 1 63 106
f 1 106 70
f 1 70 43
f 1 43 24
f 1 24 23
f 1 23 21
f 1 21 10
f 1 10 3
f 1 3 9
f 1 9 20
f 1 20 42
f 1 42 64
f 1 64 69
f 1 69 112
f 1 112 111
f 1 111 122
f 1 122 121
f 1 121 120
f 1 120 84
f 1 84 49
f 1 49 29
f 1 29 12
f 1 12 4
f 1 4 5
f 1 5 2
f 2 5 13
f 2 13 32
f 2 32 56
f 2 56 96
f 2 96 136
f 2 136 137
f 2 137 164
f 2 164 163
f 2 163 166
f 2 166 146
f 2 146 103
f 2 103 59
f 2 59 37
f 2 37 33
f 2 33 14
f 2 14 6
f 3 7 8
f 3 8 9
f 3 10 11
f 3 11 7
f 4 12 30
f 4 30 52
f 4 52 90
f 4 90 89
f 4 89 130
f 4 130 158
f 4 158 157
f 4 157 174
f 4 174 175
f 4 175 159
f 4 159 131
f 4 131 91
f 4 91 53
f 4 53 31
f 4 31 13
f 4 13 5
f 6 14 15
f 6 15 16
f 6 16 17
f 7 11 8
f 8 11 18
f 8 18 9
f 9 18 19
f 9 19 20
f 10 21 22
f 10 22 11
f 11 22 23
f 11 23 24
f 11 24 25
f 11 25 26
f 11 26 27
f 11 27 28
f 11 28 19
f 11 19 18
f 12 29 30
f 13 31 32
f 14 33 15
f 15 34 35
f 15 35 36
f 15 36 17
f 15 17 16
f 15 33 37
f 15 37 38
f 15 38 34
f 17 36 39
f 19 28 40
f 19 40 41
f 19 41 20
f 20 41 42
f 21 23 22
f 24 43 44
f 24 44 45
f 24 45 25
f 25 45 26
f 26 45 46
f 26 46 27
f 27 46 47
f 27 47 48
f 27 48 28
f 28 48 40
f 29 49 50
f 29 50 30
f 30 50 51
f 30 51 52
f 31 53 54
f 31 54 32
f 32 54 55
f 32 55 56
f 34 57 35
f 34 38 57
f 35 57 58
f 35 58 39
f 35 39 36
f 37 59 38
f 38 59 60
f 38 60 61
f 38 61 62
f 38 62 57
f 39 58 63
f 40 48 41
f 41 64 42
f 41 48 65
f 41 65 66
f 41 66 67
f 41 67 68
f 41 68 69
f 41 69 64
f 43 70 44
f 44 70 71
f 44 71 72
f 44 72 45
f 45 72 73
f 45 73 74
f 45 74 47
f 45 47 46
f 47 74 75
f 47 75 76
f 47 76 77
f 47 77 78
f 47 78 79
f 47 79 80
f 47 80 81
f 47 81 82
f 47 82 83
f 47 83 48
f 48 83 65
f 49 84 50
f 50 84 51
f 51 84 85
f 51 85 86
f 51 86 87
f 51 87 88
f 51 88 89
f 51 89 90
f 51 90 52
f 53 91 92
f 53 92 54
f 54 92 93
f 54 93 94
f 54 94 55
f 55 95 96
f 55 96 56
f 55 94 95
f 57 62 97
f 57 97 98
f 57 98 99
f 57 99 76
f 57 76 100
f 57 100 73
f 57 73 101
f 57 101 58
f 58 101 73
f 58 73 72
f 58 72 102
f 58 102 63
f 59 103 60
f 60 103 104
f 60 104 61
f 61 104 105
f 61 105 98
f 61 98 97
f 61 97 62
f 63 102 106
f 65 83 82
f 65 82 81
f 65 81 107
f 65 107 67
f 65 67 66
f 67 107 68
f 68 107 81
f 68 81 108
f 68 108 109
f 68 109 110
f 68 110 111
f 68 111 112
f 68 112 69
f 70 106 71
f 71 106 72
f 72 106 102
f 73 100 75
f 73 75 74
f 75 100 76
f 76 99 98
f 76 98 113
f 76 113 77
f 77 113 78
f 78 113 114
f 78 114 79
f 79 114 115
f 79 115 116
f 79 116 117
f 79 117 118
f 79 118 119
f 79 119 80
f 80 119 81
f 81 119 118
f 81 118 108
f 84 120 86
f 84 86 85
f 86 120 121
f 86 121 122
f 86 122 110
f 86 110 123
f 86 123 124
f 86 124 125
f 86 125 87
f 87 125 88
f 88 126 127
f 88 127 128
f 88 128 129
f 88 129 130
f 88 130 89
f 88 125 126
f 91 131 92
f 92 131 132
f 92 132 93
f 93 132 133
f 93 133 94
f 94 133 134
f 94 134 135
f 94 135 95
f 95 136 96
f 95 135 137
f 95 137 136
f 98 105 138
f 98 138 139
f 98 139 140
f 98 140 141
f 98 141 142
f 98 142 143
f 98 143 144
f 98 144 115
f 98 115 145
f 98 145 113
f 103 146 105
f 103 105 104
f 105 146 138
f 108 123 110
f 108 110 109
f 108 118 147
f 108 147 123
f 110 122 111
f 113 145 114
f 114 145 115
f 115 144 148
f 115 148 149
f 115 149 116
f 116 149 117
f 117 150 147
f 117 147 118
f 117 149 151
f 117 151 152
f 117 152 150
f 123 147 124
f 124 147 127
f 124 127 126
f 124 126 125
f 127 147 150
f 127 150 152
f 127 152 153
f 127 153 154
f 127 154 155
f 127 155 156
f 127 156 128
f 128 156 129
f 129 156 157
f 129 157 158
f 129 158 130
f 131 159 132
f 132 159 160
f 132 160 161
f 132 161 162
f 132 162 133
f 133 162 134
f 134 162 143
f 134 143 135
f 135 163 164
f 135 164 137
f 135 143 141
f 135 141 140
f 135 140 139
f 135 139 165
f 135 165 163
f 138 146 166
f 138 166 139
f 139 166 167
f 139 167 168
f 139 168 165
f 141 143 142
f 143 162 169
f 143 169 170
f 143 170 149
f 143 149 148
f 143 148 144
f 149 170 169
f 149 169 171
f 149 171 151
f 151 171 152
f 152 171 153
f 153 169 154
f 153 171 169
f 154 169 162
f 154 162 161
f 154 161 172
f 154 172 155
f 155 172 156
f 156 172 173
f 156 173 174
f 156 174 157
f 159 175 160
f 160 175 173
f 160 173 172
f 160 172 161
f 163 165 168
f 163 168 167
f 163 167 166
f 173 175 174
