v -0.724845 0.00057724 -0.0645414
v -0.724023 0.00057724 -0.0728904
v -0.651971 0.00057724 -0.0645414
v -0.724371 0.02226 -0.0645414
v -0.724781 0.0086737 -0.0651684
v -0.721828 0.00725189 -0.0942826
v -0.723313 0.00057724 -0.0797867
v -0.612501 0.00057724 -0.220755
v -0.563508 0.202318 -0.220755
v -0.606673 0.202258 -0.0649084
v -0.684127 0.202318 -0.0647249
v -0.713883 0.108774 -0.0645414
v -0.723486 0.0362807 -0.0649084
v -0.722096 0.0362609 -0.0797867
v -0.722855 0.0217663 -0.0797867
v -0.722381 0.0511505 -0.0645414
v -0.720312 0.00725189 -0.108779
v -0.721812 0.00057724 -0.0942826
v -0.69204 0.00057724 -0.219838
v -0.691645 0.00725189 -0.220755
v -0.654103 0.192246 -0.220755
v -0.651386 0.201468 -0.218584
v -0.655319 0.202318 -0.208798
v -0.685138 0.202318 -0.0797867
v -0.688897 0.19586 -0.0649084
v -0.695468 0.177021 -0.0647249
v -0.716474 0.094279 -0.0649084
v -0.718685 0.0801596 -0.0647249
v -0.703222 0.152633 -0.0647249
v -0.707108 0.138118 -0.0647249
v -0.711514 0.119714 -0.0649084
v -0.711041 0.117621 -0.0772942
v -0.710646 0.115962 -0.0869582
v -0.712241 0.110196 -0.0811934
v -0.721117 0.0507753 -0.0797867
v -0.719822 0.0507753 -0.0942826
v -0.720628 0.0362609 -0.0942826
v -0.721338 0.0217663 -0.0942826
v -0.72077 0.0656452 -0.0647249
v -0.719554 0.06527 -0.0797867
v -0.718369 0.00725189 -0.123305
v -0.720249 0.00057724 -0.108779
v -0.719775 0.0217663 -0.108779
v -0.717864 0.0217663 -0.123305
v -0.694725 0.00057724 -0.213874
v -0.694757 0.00725189 -0.213905
v -0.691266 0.0217663 -0.220755
v -0.658241 0.181267 -0.220755
v -0.665648 0.169754 -0.214058
v -0.663421 0.180714 -0.209639
v -0.660468 0.202318 -0.1958
v -0.667717 0.1755 -0.204379
v -0.683606 0.202318 -0.0942826
v -0.687571 0.195761 -0.0797867
v -0.692672 0.181267 -0.0797867
v -0.695689 0.172677 -0.0797867
v -0.696052 0.173743 -0.0712848
v -0.698184 0.165449 -0.0797867
v -0.698358 0.168214 -0.0652601
v -0.715147 0.094279 -0.0797867
v -0.717406 0.0797844 -0.0797867
v -0.70218 0.152277 -0.0797867
v -0.705923 0.137783 -0.0797867
v -0.709477 0.122775 -0.0811934
v -0.709809 0.126941 -0.0649084
v -0.710235 0.113711 -0.0942826
v -0.711593 0.106463 -0.0942826
v -0.704502 0.137783 -0.0942826
v -0.70804 0.123268 -0.0942826
v -0.706302 0.123268 -0.108779
v -0.718985 0.0362609 -0.108779
v -0.718258 0.06527 -0.0942826
v -0.718116 0.0507753 -0.108779
v -0.715874 0.00725189 -0.137786
v -0.717184 0.00057724 -0.129972
v -0.718306 0.00057724 -0.123305
v -0.71551 0.0217663 -0.137786
v -0.71709 0.0362609 -0.123305
v -0.714752 0.0362609 -0.137786
v -0.697521 0.00057724 -0.206627
v -0.697521 0.00725189 -0.206657
v -0.694552 0.0217663 -0.213355
v -0.690366 0.0362609 -0.220755
v -0.66429 0.164857 -0.220755
v -0.667038 0.158972 -0.219349
v -0.668981 0.165666 -0.209639
v -0.66718 0.202318 -0.176136
v -0.665822 0.185157 -0.199455
v -0.663611 0.19505 -0.195097
v -0.667623 0.189778 -0.189791
v -0.665396 0.200876 -0.183537
v -0.669139 0.180714 -0.195097
v -0.673893 0.166792 -0.195785
v -0.68239 0.202318 -0.104711
v -0.685991 0.195761 -0.0942826
v -0.691156 0.181267 -0.0942826
v -0.694946 0.170603 -0.0942826
v -0.697489 0.163356 -0.0942826
v -0.713678 0.094279 -0.0942826
v -0.716 0.0797844 -0.0942826
v -0.700774 0.152277 -0.0942826
v -0.707455 0.108774 -0.123305
v -0.709414 0.108398 -0.108901
v -0.710993 0.103323 -0.104145
v -0.70278 0.137783 -0.108779
v -0.70436 0.123268 -0.123305
v -0.71431 0.0797844 -0.108779
v -0.716553 0.06527 -0.108779
v -0.716047 0.0507753 -0.123305
v -0.713125 0.00725189 -0.152282
v -0.715826 0.00057724 -0.137786
v -0.712857 0.0217663 -0.152282
v -0.711862 0.0358462 -0.153001
v -0.71371 0.0507753 -0.137786
v -0.711546 0.0507753 -0.149162
v -0.701327 0.00057724 -0.195785
v -0.701311 0.00725189 -0.195785
v -0.700932 0.0217663 -0.195785
v -0.6973 0.0217663 -0.206107
v -0.696873 0.0362609 -0.204899
v -0.694062 0.0362609 -0.212147
v -0.688897 0.0528686 -0.220755
v -0.668491 0.152218 -0.220755
v -0.672914 0.152277 -0.210281
v -0.678805 0.151863 -0.195219
v -0.66985 0.202318 -0.166778
v -0.668776 0.19505 -0.180096
v -0.673719 0.181267 -0.181274
v -0.672519 0.195761 -0.166778
v -0.6807 0.156405 -0.185571
v -0.678994 0.166476 -0.180953
v -0.676625 0.202318 -0.138015
v -0.681284 0.202219 -0.112387
v -0.687428 0.181267 -0.123305
v -0.689434 0.181267 -0.108779
v -0.696763 0.161262 -0.105766
v -0.711846 0.0947135 -0.108901
v -0.698437 0.153541 -0.109895
v -0.707882 0.094279 -0.137786
v -0.709872 0.0947135 -0.124146
v -0.710377 0.0998478 -0.113825
v -0.705102 0.108774 -0.137786
v -0.700759 0.137783 -0.123305
v -0.701833 0.123268 -0.137786
v -0.710519 0.0860838 -0.129544
v -0.714405 0.06527 -0.123305
v -0.711957 0.0657637 -0.138459
v -0.711167 0.00725189 -0.161472
v -0.713031 0.00057724 -0.152282
v -0.711056 0.0217663 -0.160983
v -0.710804 0.0307316 -0.16005
v -0.711072 0.061281 -0.146899
v -0.709982 0.0507753 -0.156395
v -0.710409 0.0403882 -0.158322
v -0.703744 0.00057724 -0.187941
v -0.705781 0.00725189 -0.181274
v -0.705481 0.0217663 -0.181274
v -0.700158 0.0362609 -0.195785
v -0.696447 0.0468456 -0.203767
v -0.69392 0.0513085 -0.209287
v -0.692135 0.06527 -0.210281
v -0.687444 0.0659019 -0.220755
v -0.67255 0.137645 -0.220755
v -0.677857 0.136519 -0.208966
v -0.681742 0.130832 -0.203262
v -0.680416 0.140528 -0.199669
v -0.682185 0.146748 -0.18999
v -0.671461 0.202318 -0.160554
v -0.680732 0.171136 -0.170478
v -0.678599 0.180358 -0.166074
v -0.676246 0.195761 -0.152282
v -0.683622 0.151863 -0.180953
v -0.682264 0.16148 -0.175907
v -0.674998 0.202318 -0.145753
v -0.679421 0.195287 -0.138214
v -0.679879 0.201054 -0.123305
v -0.683196 0.192523 -0.123305
v -0.684364 0.182175 -0.138214
v -0.689829 0.166792 -0.137786
v -0.692467 0.166792 -0.123305
v -0.682264 0.190114 -0.133657
v -0.694441 0.166377 -0.109895
v -0.696068 0.159229 -0.115446
v -0.697489 0.149809 -0.123305
v -0.704912 0.094279 -0.152282
v -0.707392 0.0797844 -0.152282
v -0.710456 0.0709375 -0.143719
v -0.709919 0.0806533 -0.138459
v -0.702022 0.108774 -0.152282
v -0.696668 0.146886 -0.132984
v -0.698058 0.138118 -0.137801
v -0.696968 0.133478 -0.148841
v -0.695941 0.129568 -0.158505
v -0.698358 0.124137 -0.153092
v -0.711199 0.0764273 -0.13407
v -0.70924 0.00725189 -0.168705
v -0.707645 0.00057724 -0.1745
v -0.710693 0.00057724 -0.162909
v -0.709098 0.0217663 -0.168246
v -0.707361 0.0507753 -0.166778
v -0.708924 0.0358462 -0.165646
v -0.704707 0.0362609 -0.181274
v -0.70943 0.0657637 -0.151945
v -0.705892 0.06527 -0.166778
v -0.705781 0.00057724 -0.181274
v -0.703444 0.0507753 -0.181274
v -0.698453 0.0513085 -0.197008
v -0.696036 0.0565021 -0.202681
v -0.695547 0.06527 -0.201275
v -0.689971 0.0797844 -0.210281
v -0.68547 0.0797844 -0.220755
v -0.676388 0.123268 -0.220755
v -0.6798 0.123268 -0.213033
v -0.682769 0.123268 -0.205785
v -0.683148 0.136519 -0.195219
v -0.686449 0.123268 -0.195785
v -0.687697 0.137783 -0.181274
v -0.673577 0.202318 -0.152282
v -0.687539 0.152277 -0.166778
v -0.683306 0.166476 -0.166074
v -0.681979 0.174928 -0.160799
v -0.680321 0.18488 -0.152282
v -0.681316 0.187606 -0.143291
v -0.691819 0.137783 -0.166778
v -0.682959 0.177613 -0.152282
v -0.686544 0.166792 -0.152282
v -0.69095 0.152277 -0.152282
v -0.694251 0.151942 -0.137801
v -0.695483 0.157076 -0.123305
v -0.701375 0.094279 -0.166778
v -0.703886 0.0797844 -0.166778
v -0.698247 0.109386 -0.167527
v -0.697047 0.119892 -0.163184
v -0.695657 0.143154 -0.142648
v -0.694804 0.138118 -0.153092
v -0.695073 0.124137 -0.167527
v -0.701912 0.06527 -0.181274
v -0.699953 0.0797844 -0.181274
v -0.698042 0.06527 -0.194027
v -0.697047 0.0797844 -0.191106
v -0.694473 0.0797844 -0.198354
v -0.693351 0.0935089 -0.194669
v -0.687286 0.094279 -0.210281
v -0.683069 0.0933707 -0.220755
v -0.679563 0.110472 -0.220755
v -0.681063 0.113256 -0.216122
v -0.684206 0.108576 -0.210893
v -0.689908 0.108774 -0.195785
v -0.691393 0.123268 -0.181274
v -0.696873 0.104943 -0.176534
v -0.697663 0.0935089 -0.181335
v -0.695862 0.114599 -0.172848
v -0.696368 0.0881573 -0.189088
v -0.695483 0.0978533 -0.186198
v -0.681221 0.104054 -0.22019
v -0.694504 0.109386 -0.181335
f 1 2 7
f 1 7 18
f 1 18 42
f 1 42 76
f 1 76 75
f 1 75 111
f 1 111 149
f 1 149 198
f 1 198 197
f 1 197 205
f 1 205 155
f 1 155 116
f 1 116 80
f 1 80 45
f 1 45 19
f 1 19 8
f 1 8 3
f 1 3 12
f 1 12 16
f 1 16 4
f 1 4 5
f 1 5 2
f 2 5 6
f 2 6 7
f 3 8 9
f 3 9 10
f 3 10 11
f 3 11 12
f 4 13 14
f 4 14 15
f 4 15 5
f 4 16 13
f 5 15 6
f 6 15 38
f 6 38 17
f 6 17 18
f 6 18 7
f 8 19 20
f 8 20 47
f 8 47 83
f 8 83 122
f 8 122 162
f 8 162 211
f 8 211 244
f 8 244 245
f 8 245 212
f 8 212 163
f 8 163 123
f 8 123 84
f 8 84 48
f 8 48 21
f 8 21 9
f 9 21 22
f 9 22 23
f 9 23 51
f 9 51 87
f 9 87 126
f 9 126 168
f 9 168 218
f 9 218 174
f 9 174 132
f 9 132 94
f 9 94 53
f 9 53 24
f 9 24 11
f 9 11 10
f 11 24 25
f 11 25 26
f 11 26 12
f 12 27 28
f 12 28 16
f 12 26 29
f 12 29 30
f 12 30 31
f 12 31 32
f 12 32 33
f 12 33 34
f 12 34 27
f 13 35 36
f 13 36 14
f 13 16 35
f 14 36 37
f 14 37 15
f 15 37 38
f 16 28 39
f 16 39 40
f 16 40 35
f 17 41 76
f 17 76 42
f 17 42 18
f 17 38 43
f 17 43 44
f 17 44 41
f 19 45 46
f 19 46 20
f 20 46 47
f 21 23 22
f 21 48 49
f 21 49 50
f 21 50 23
f 23 50 52
f 23 52 51
f 24 53 54
f 24 54 25
f 25 54 55
f 25 55 56
f 25 56 57
f 25 57 26
f 26 57 58
f 26 58 59
f 26 59 29
f 27 60 61
f 27 61 28
f 27 34 60
f 28 61 40
f 28 40 39
f 29 62 30
f 29 59 58
f 29 58 62
f 30 62 63
f 30 63 64
f 30 64 65
f 30 65 31
f 31 65 32
f 32 65 64
f 32 64 33
f 33 66 67
f 33 67 34
f 33 64 63
f 33 63 68
f 33 68 69
f 33 69 70
f 33 70 66
f 34 67 60
f 35 40 72
f 35 72 36
f 36 71 37
f 36 72 108
f 36 108 73
f 36 73 71
f 37 71 43
f 37 43 38
f 40 61 72
f 41 74 75
f 41 75 76
f 41 44 77
f 41 77 74
f 43 71 78
f 43 78 44
f 44 78 79
f 44 79 77
f 45 80 46
f 46 80 81
f 46 81 82
f 46 82 47
f 47 82 83
f 48 84 49
f 49 84 85
f 49 85 86
f 49 86 52
f 49 52 50
f 51 52 88
f 51 88 89
f 51 89 90
f 51 90 91
f 51 91 87
f 52 92 90
f 52 90 88
f 52 86 93
f 52 93 92
f 53 94 95
f 53 95 54
f 54 95 96
f 54 96 97
f 54 97 55
f 55 97 56
f 56 97 98
f 56 98 58
f 56 58 57
f 58 98 62
f 60 67 99
f 60 99 100
f 60 100 61
f 61 100 72
f 62 101 63
f 62 98 101
f 63 101 68
f 66 70 102
f 66 102 103
f 66 103 104
f 66 104 67
f 67 104 99
f 68 101 105
f 68 105 69
f 69 105 70
f 70 106 102
f 70 105 106
f 71 73 78
f 72 100 107
f 72 107 108
f 73 108 109
f 73 109 78
f 74 110 111
f 74 111 75
f 74 77 112
f 74 112 110
f 77 79 112
f 78 109 114
f 78 114 79
f 79 113 112
f 79 114 115
f 79 115 113
f 80 116 81
f 81 116 117
f 81 117 118
f 81 118 119
f 81 119 82
f 82 119 120
f 82 120 121
f 82 121 83
f 83 121 122
f 84 123 85
f 85 123 124
f 85 124 86
f 86 124 125
f 86 125 93
f 87 91 127
f 87 127 128
f 87 128 129
f 87 129 126
f 88 90 89
f 90 92 128
f 90 128 91
f 91 128 127
f 92 93 128
f 93 125 130
f 93 130 131
f 93 131 128
f 94 132 133
f 94 133 134
f 94 134 135
f 94 135 95
f 95 135 96
f 96 135 97
f 97 135 98
f 98 135 136
f 98 136 101
f 99 104 137
f 99 137 107
f 99 107 100
f 101 136 138
f 101 138 105
f 102 139 140
f 102 140 141
f 102 141 104
f 102 104 103
f 102 106 142
f 102 142 139
f 104 141 137
f 105 138 143
f 105 143 106
f 106 143 144
f 106 144 142
f 107 137 141
f 107 141 140
f 107 140 145
f 107 145 108
f 108 146 109
f 108 145 146
f 109 146 147
f 109 147 114
f 110 148 149
f 110 149 111
f 110 112 150
f 110 150 148
f 112 113 151
f 112 151 150
f 113 115 151
f 114 147 152
f 114 152 115
f 115 153 154
f 115 154 151
f 115 152 153
f 116 155 117
f 117 155 156
f 117 156 157
f 117 157 118
f 118 157 202
f 118 202 158
f 118 158 119
f 119 158 120
f 120 158 159
f 120 159 121
f 121 159 160
f 121 160 122
f 122 160 161
f 122 161 162
f 123 163 124
f 124 163 164
f 124 164 165
f 124 165 166
f 124 166 125
f 125 166 167
f 125 167 130
f 126 129 168
f 128 131 169
f 128 169 170
f 128 170 129
f 129 171 168
f 129 170 171
f 130 167 172
f 130 172 173
f 130 173 131
f 131 173 169
f 132 174 175
f 132 175 176
f 132 176 133
f 133 176 177
f 133 177 134
f 134 178 179
f 134 179 180
f 134 180 135
f 134 177 181
f 134 181 178
f 135 180 182
f 135 182 136
f 136 183 138
f 136 182 180
f 136 180 183
f 138 183 184
f 138 184 143
f 139 142 185
f 139 185 186
f 139 186 187
f 139 187 188
f 139 188 145
f 139 145 140
f 142 144 189
f 142 189 185
f 143 184 190
f 143 190 191
f 143 191 144
f 144 191 192
f 144 192 193
f 144 193 194
f 144 194 189
f 145 188 195
f 145 195 146
f 146 195 187
f 146 187 147
f 147 187 152
f 148 196 197
f 148 197 198
f 148 198 149
f 148 150 196
f 150 199 196
f 150 151 199
f 151 154 200
f 151 200 201
f 151 201 202
f 151 202 199
f 152 187 203
f 152 203 153
f 153 200 154
f 153 203 204
f 153 204 200
f 155 205 156
f 156 205 196
f 156 196 199
f 156 199 157
f 157 199 202
f 158 202 206
f 158 206 207
f 158 207 208
f 158 208 159
f 159 208 160
f 160 208 161
f 161 208 209
f 161 209 210
f 161 210 211
f 161 211 162
f 163 212 213
f 163 213 164
f 164 213 214
f 164 214 165
f 165 215 166
f 165 214 216
f 165 216 215
f 166 215 167
f 167 215 217
f 167 217 172
f 168 171 218
f 169 173 219
f 169 219 220
f 169 220 221
f 169 221 170
f 170 221 171
f 171 221 222
f 171 222 223
f 171 223 175
f 171 175 174
f 171 174 218
f 172 217 173
f 173 217 224
f 173 224 219
f 175 223 178
f 175 178 181
f 175 181 176
f 176 181 177
f 178 225 179
f 178 223 225
f 179 225 221
f 179 221 226
f 179 226 227
f 179 227 228
f 179 228 229
f 179 229 180
f 180 229 183
f 183 229 184
f 184 229 190
f 185 230 231
f 185 231 186
f 185 189 232
f 185 232 230
f 186 203 187
f 186 231 203
f 187 195 188
f 189 194 193
f 189 193 233
f 189 233 232
f 190 234 191
f 190 229 228
f 190 228 234
f 191 234 235
f 191 235 192
f 192 235 193
f 193 236 233
f 193 235 224
f 193 224 236
f 196 205 197
f 200 206 202
f 200 202 201
f 200 204 206
f 203 231 204
f 204 237 206
f 204 231 238
f 204 238 237
f 206 237 239
f 206 239 207
f 207 239 208
f 208 239 209
f 209 239 240
f 209 240 241
f 209 241 210
f 210 241 242
f 210 242 243
f 210 243 244
f 210 244 211
f 212 245 246
f 212 246 213
f 213 246 214
f 214 246 247
f 214 247 248
f 214 248 216
f 215 216 217
f 216 249 217
f 216 248 249
f 217 249 224
f 219 227 226
f 219 226 221
f 219 221 220
f 219 224 227
f 221 225 222
f 222 225 223
f 224 235 227
f 224 249 236
f 227 235 228
f 228 235 234
f 230 232 250
f 230 250 251
f 230 251 231
f 231 251 238
f 232 233 252
f 232 252 250
f 233 236 252
f 236 249 252
f 237 238 240
f 237 240 239
f 238 251 253
f 238 253 240
f 240 253 241
f 241 253 242
f 242 253 254
f 242 254 248
f 242 248 243
f 243 247 255
f 243 255 244
f 243 248 247
f 244 255 245
f 245 255 246
f 246 255 247
f 248 256 249
f 248 254 256
f 249 256 252
f 250 254 251
f 250 252 256
f 250 256 254
f 251 254 253
