v -0.346077 -0.333682 -0.287764
v -0.346077 -0.441759 -0.287764
v -0.346077 -0.400958 -0.223085
v -0.125352 -0.4363 -0.223085
v -0.125352 -0.372343 -0.287764
v -0.346077 -0.444497 -0.284845
v -0.344392 -0.442448 -0.287764
v -0.346077 -0.487582 -0.223085
v -0.125352 -0.51743 -0.223085
v -0.125352 -0.473221 -0.287764
v -0.346077 -0.451351 -0.277507
v -0.340826 -0.445657 -0.285896
v -0.331643 -0.447398 -0.287764
v -0.339379 -0.490067 -0.223085
v -0.346077 -0.486821 -0.224687
v -0.137798 -0.518301 -0.223085
v -0.125352 -0.516596 -0.224814
v -0.125352 -0.474961 -0.285915
v -0.137798 -0.475487 -0.286555
v -0.137798 -0.474327 -0.287764
v -0.346077 -0.455631 -0.272277
v -0.340826 -0.452367 -0.278646
v -0.328488 -0.448577 -0.287764
v -0.340373 -0.489196 -0.224104
v -0.326327 -0.491572 -0.229037
v -0.326327 -0.494528 -0.223085
v -0.346077 -0.4845 -0.229239
v -0.149359 -0.518754 -0.223085
v -0.137798 -0.517467 -0.224814
v -0.125352 -0.51034 -0.237034
v -0.125352 -0.481236 -0.278665
v -0.137798 -0.481761 -0.279305
v -0.152297 -0.482233 -0.279862
v -0.152297 -0.475941 -0.287112
v -0.152297 -0.475306 -0.287764
v -0.346077 -0.458695 -0.268427
v -0.34208 -0.460436 -0.268193
v -0.324988 -0.45389 -0.283218
v -0.326327 -0.462177 -0.273163
v -0.321206 -0.451116 -0.287764
v -0.346077 -0.480565 -0.236578
v -0.339703 -0.481308 -0.239193
v -0.318246 -0.492877 -0.23162
v -0.322136 -0.495779 -0.223085
v -0.152297 -0.518863 -0.223085
v -0.152297 -0.518029 -0.224814
v -0.137798 -0.510739 -0.237635
v -0.152297 -0.511047 -0.238459
v -0.125352 -0.506369 -0.244284
v -0.125352 -0.488489 -0.269984
v -0.137798 -0.488997 -0.27063
v -0.152297 -0.489486 -0.271232
v -0.166796 -0.482414 -0.27997
v -0.166796 -0.475977 -0.287226
v -0.166796 -0.475451 -0.287764
v -0.346077 -0.462939 -0.26307
v -0.338082 -0.465786 -0.263279
v -0.317533 -0.463628 -0.27498
v -0.326327 -0.467835 -0.265913
v -0.317209 -0.452385 -0.287764
v -0.346077 -0.476702 -0.243068
v -0.343808 -0.477029 -0.243948
v -0.334128 -0.478806 -0.246873
v -0.326327 -0.485787 -0.239313
v -0.312779 -0.490176 -0.239104
v -0.297308 -0.491735 -0.244119
v -0.308566 -0.494201 -0.234128
v -0.312779 -0.497139 -0.225998
v -0.312585 -0.498517 -0.223085
v -0.166796 -0.518936 -0.223085
v -0.166796 -0.518083 -0.224814
v -0.166796 -0.511084 -0.238655
v -0.152297 -0.507131 -0.245715
v -0.166796 -0.507239 -0.245905
v -0.125352 -0.505607 -0.245544
v -0.125352 -0.494455 -0.262735
v -0.137798 -0.494945 -0.26338
v -0.152297 -0.495398 -0.263982
v -0.166796 -0.489668 -0.271238
v -0.181317 -0.482305 -0.279792
v -0.167855 -0.475433 -0.287764
v -0.181317 -0.475759 -0.287042
v -0.182721 -0.475034 -0.287764
v -0.346077 -0.464299 -0.26131
v -0.340934 -0.471407 -0.253889
v -0.326327 -0.475088 -0.256017
v -0.307853 -0.465133 -0.276734
v -0.312347 -0.469576 -0.269415
v -0.304395 -0.47857 -0.260993
v -0.311829 -0.477409 -0.25936
v -0.30258 -0.456719 -0.287764
v -0.297308 -0.460128 -0.285789
v -0.346077 -0.475161 -0.245436
v -0.346077 -0.470029 -0.253053
v -0.326327 -0.480075 -0.248773
v -0.297308 -0.495634 -0.236869
v -0.311829 -0.482378 -0.252116
v -0.298648 -0.484064 -0.255225
v -0.288816 -0.492841 -0.246076
v -0.297308 -0.501745 -0.224814
v -0.295515 -0.50305 -0.223085
v -0.308674 -0.499605 -0.223085
v -0.178097 -0.518736 -0.223085
v -0.181317 -0.517829 -0.224814
v -0.181317 -0.510975 -0.238142
v -0.152297 -0.502162 -0.253819
v -0.166796 -0.502162 -0.253819
v -0.195816 -0.510757 -0.237661
v -0.195816 -0.506641 -0.244917
v -0.137798 -0.501255 -0.253819
v -0.125352 -0.500457 -0.253819
v -0.125352 -0.499569 -0.255168
v -0.166796 -0.495271 -0.263988
v -0.181317 -0.489559 -0.270738
v -0.195816 -0.481961 -0.27945
v -0.195816 -0.475469 -0.2867
v -0.195816 -0.474472 -0.287764
v -0.346077 -0.465822 -0.259157
v -0.297308 -0.466638 -0.278532
v -0.298648 -0.474798 -0.267863
v -0.294715 -0.479876 -0.262722
v -0.284905 -0.461941 -0.287764
v -0.283522 -0.496976 -0.240472
v -0.26831 -0.506278 -0.229334
v -0.283868 -0.505136 -0.224535
v -0.283522 -0.489378 -0.253129
v -0.279157 -0.493875 -0.24783
v -0.26831 -0.500856 -0.239313
v -0.258824 -0.507239 -0.231297
v -0.28497 -0.505589 -0.223085
v -0.181317 -0.518664 -0.223085
v -0.195816 -0.517376 -0.224814
v -0.210315 -0.500149 -0.253819
v -0.210315 -0.494274 -0.262652
v -0.210315 -0.510268 -0.23692
v -0.210315 -0.506242 -0.24417
v -0.195816 -0.489214 -0.270326
v -0.210315 -0.488689 -0.269908
v -0.210315 -0.481435 -0.278906
v -0.210315 -0.475088 -0.286156
v -0.197933 -0.474363 -0.287764
v -0.282809 -0.46254 -0.287764
v -0.282809 -0.468488 -0.280843
v -0.282809 -0.475741 -0.271903
v -0.282809 -0.481399 -0.264653
v -0.26831 -0.509252 -0.223085
v -0.282658 -0.506133 -0.223085
v -0.26831 -0.490284 -0.256802
v -0.26831 -0.494963 -0.249552
v -0.253919 -0.50412 -0.238326
v -0.264442 -0.509978 -0.223085
v -0.249144 -0.508037 -0.232836
v -0.253919 -0.510648 -0.225801
v -0.192726 -0.518301 -0.223085
v -0.195816 -0.518192 -0.223085
v -0.207419 -0.51743 -0.223085
v -0.210315 -0.516415 -0.224814
v -0.224813 -0.505625 -0.243062
v -0.22624 -0.497719 -0.255263
v -0.222372 -0.493766 -0.261949
v -0.224813 -0.509615 -0.235812
v -0.224813 -0.480746 -0.278184
v -0.224813 -0.474508 -0.285434
v -0.210315 -0.473601 -0.287764
v -0.270925 -0.465278 -0.287764
v -0.259667 -0.478389 -0.275284
v -0.26831 -0.477428 -0.274075
v -0.26831 -0.483031 -0.266819
v -0.253811 -0.491554 -0.258727
v -0.253811 -0.496287 -0.251477
v -0.239291 -0.504719 -0.241466
v -0.253898 -0.511863 -0.223085
v -0.239291 -0.508744 -0.23421
v -0.239291 -0.513332 -0.224814
v -0.23942 -0.514094 -0.223085
v -0.210315 -0.517231 -0.223085
v -0.224813 -0.515037 -0.224814
v -0.239291 -0.497465 -0.25306
v -0.232031 -0.493113 -0.261057
v -0.239291 -0.486658 -0.268313
v -0.239291 -0.479912 -0.277158
v -0.239291 -0.473529 -0.284408
v -0.229783 -0.471679 -0.287764
v -0.224813 -0.472332 -0.287764
v -0.260186 -0.467091 -0.287764
v -0.254416 -0.473456 -0.281768
v -0.250008 -0.479168 -0.276228
v -0.254416 -0.483502 -0.269598
v -0.239291 -0.492605 -0.260303
v -0.23713 -0.514384 -0.223085
v -0.222264 -0.516089 -0.223085
v -0.224813 -0.515817 -0.223085
v -0.246594 -0.469267 -0.287764
v -0.239291 -0.47041 -0.287764
f 1 2 6
f 1 6 11
f 1 11 21
f 1 21 36
f 1 36 56
f 1 56 84
f 1 84 118
f 1 118 94
f 1 94 93
f 1 93 61
f 1 61 41
f 1 41 27
f 1 27 15
f 1 15 8
f 1 8 3
f 1 3 4
f 1 4 5
f 1 5 10
f 1 10 20
f 1 20 35
f 1 35 55
f 1 55 81
f 1 81 83
f 1 83 117
f 1 117 141
f 1 141 164
f 1 164 184
f 1 184 183
f 1 183 194
f 1 194 193
f 1 193 185
f 1 185 165
f 1 165 142
f 1 142 122
f 1 122 91
f 1 91 60
f 1 60 40
f 1 40 23
f 1 23 13
f 1 13 7
f 1 7 2
f 2 7 6
f 3 8 14
f 3 14 26
f 3 26 44
f 3 44 69
f 3 69 102
f 3 102 101
f 3 101 130
f 3 130 147
f 3 147 146
f 3 146 151
f 3 151 172
f 3 172 175
f 3 175 190
f 3 190 192
f 3 192 191
f 3 191 176
f 3 176 156
f 3 156 155
f 3 155 154
f 3 154 131
f 3 131 103
f 3 103 70
f 3 70 45
f 3 45 28
f 3 28 16
f 3 16 9
f 3 9 4
f 4 9 17
f 4 17 30
f 4 30 49
f 4 49 75
f 4 75 111
f 4 111 112
f 4 112 76
f 4 76 50
f 4 50 31
f 4 31 18
f 4 18 10
f 4 10 5
f 6 7 12
f 6 12 11
f 7 13 12
f 8 15 14
f 9 16 29
f 9 29 17
f 10 18 19
f 10 19 20
f 11 12 22
f 11 22 21
f 12 13 22
f 13 23 22
f 14 24 25
f 14 25 26
f 14 15 24
f 15 27 24
f 16 28 29
f 17 29 30
f 18 31 32
f 18 32 19
f 19 32 33
f 19 33 34
f 19 34 20
f 20 34 35
f 21 22 37
f 21 37 36
f 22 23 38
f 22 38 39
f 22 39 37
f 23 40 38
f 24 27 25
f 25 27 41
f 25 41 42
f 25 42 43
f 25 43 26
f 26 43 44
f 28 45 46
f 28 46 29
f 29 47 30
f 29 46 48
f 29 48 47
f 30 47 49
f 31 50 32
f 32 51 52
f 32 52 33
f 32 50 51
f 33 52 53
f 33 53 34
f 34 53 54
f 34 54 35
f 35 54 55
f 36 37 56
f 37 39 57
f 37 57 56
f 38 40 58
f 38 58 39
f 39 58 59
f 39 59 57
f 40 60 58
f 41 61 62
f 41 62 63
f 41 63 42
f 42 63 64
f 42 64 43
f 43 65 66
f 43 66 67
f 43 67 68
f 43 68 44
f 43 64 65
f 44 68 69
f 45 70 46
f 46 70 71
f 46 71 72
f 46 72 48
f 47 48 73
f 47 73 49
f 48 72 74
f 48 74 73
f 49 73 75
f 50 76 51
f 51 77 52
f 51 76 77
f 52 77 78
f 52 78 79
f 52 79 53
f 53 79 80
f 53 80 54
f 54 81 55
f 54 80 82
f 54 82 83
f 54 83 81
f 56 57 84
f 57 63 85
f 57 85 84
f 57 59 86
f 57 86 63
f 58 60 87
f 58 87 88
f 58 88 59
f 59 88 89
f 59 89 90
f 59 90 86
f 60 91 92
f 60 92 87
f 61 93 62
f 62 93 63
f 63 93 94
f 63 94 85
f 63 86 95
f 63 95 65
f 63 65 64
f 65 95 66
f 66 96 67
f 66 95 97
f 66 97 98
f 66 98 99
f 66 99 96
f 67 96 100
f 67 100 68
f 68 100 101
f 68 101 102
f 68 102 69
f 70 103 104
f 70 104 71
f 71 104 72
f 72 104 105
f 72 105 74
f 73 106 75
f 73 74 106
f 74 107 106
f 74 105 108
f 74 108 109
f 74 109 107
f 75 110 111
f 75 106 110
f 76 112 77
f 77 112 110
f 77 110 106
f 77 106 78
f 78 106 107
f 78 107 113
f 78 113 79
f 79 113 114
f 79 114 80
f 80 114 115
f 80 115 116
f 80 116 82
f 82 116 83
f 83 116 117
f 84 85 118
f 85 94 118
f 86 90 95
f 87 92 119
f 87 119 120
f 87 120 89
f 87 89 88
f 89 97 90
f 89 120 121
f 89 121 98
f 89 98 97
f 90 97 95
f 91 122 92
f 92 122 119
f 96 99 123
f 96 123 124
f 96 124 125
f 96 125 100
f 98 121 126
f 98 126 99
f 99 126 127
f 99 127 128
f 99 128 129
f 99 129 124
f 99 124 123
f 100 125 101
f 101 125 130
f 103 131 104
f 104 131 132
f 104 132 105
f 105 132 108
f 107 109 133
f 107 133 134
f 107 134 113
f 108 132 135
f 108 135 136
f 108 136 109
f 109 136 133
f 110 112 111
f 113 137 114
f 113 134 137
f 114 137 115
f 115 137 138
f 115 138 139
f 115 139 140
f 115 140 116
f 116 140 141
f 116 141 117
f 119 122 142
f 119 142 143
f 119 143 144
f 119 144 120
f 120 144 121
f 121 144 145
f 121 145 126
f 124 129 146
f 124 146 147
f 124 147 125
f 125 147 130
f 126 145 148
f 126 148 127
f 127 148 149
f 127 149 128
f 128 149 150
f 128 150 129
f 129 151 146
f 129 150 152
f 129 152 153
f 129 153 151
f 131 154 132
f 132 154 155
f 132 155 156
f 132 156 157
f 132 157 135
f 133 136 158
f 133 158 159
f 133 159 160
f 133 160 134
f 134 160 138
f 134 138 137
f 135 157 161
f 135 161 158
f 135 158 136
f 138 160 162
f 138 162 139
f 139 162 163
f 139 163 140
f 140 163 164
f 140 164 141
f 142 165 143
f 143 165 166
f 143 166 167
f 143 167 144
f 144 167 145
f 145 167 168
f 145 168 148
f 148 168 169
f 148 169 170
f 148 170 149
f 149 170 150
f 150 170 171
f 150 171 152
f 151 153 172
f 152 171 173
f 152 173 174
f 152 174 153
f 153 174 175
f 153 175 172
f 156 176 157
f 157 176 177
f 157 177 161
f 158 161 173
f 158 173 171
f 158 171 178
f 158 178 159
f 159 179 160
f 159 178 179
f 160 179 180
f 160 180 181
f 160 181 162
f 161 177 173
f 162 181 163
f 163 181 182
f 163 182 183
f 163 183 184
f 163 184 164
f 165 185 186
f 165 186 166
f 166 168 167
f 166 186 187
f 166 187 188
f 166 188 168
f 168 188 169
f 169 188 189
f 169 189 178
f 169 178 170
f 170 178 171
f 173 177 174
f 174 177 190
f 174 190 175
f 176 191 177
f 177 191 192
f 177 192 190
f 178 189 179
f 179 189 188
f 179 188 180
f 180 188 187
f 180 187 181
f 181 187 182
f 182 187 186
f 182 186 185
f 182 185 193
f 182 193 194
f 182 194 183
