v -0.604394 -0.208199 -0.0506998
v -0.68677 -0.208199 -0.00616029
v -0.6866 -0.201986 -0.0505644
v -0.709258 -0.130991 -0.0506998
v -0.652986 0.00057724 -0.0506998
v -0.598772 -0.208199 0.173667
v -0.688015 -0.201986 -0.0283623
v -0.687635 -0.208199 0.016493
v -0.6923 -0.195774 0.00728729
v -0.697621 -0.173069 -0.0434345
v -0.704147 -0.152265 -0.0434345
v -0.709363 -0.139881 -0.00724332
v -0.711197 -0.132626 -0.00724332
v -0.711368 -0.126761 -0.0310248
v -0.714631 -0.108756 -0.0434345
v -0.717566 -0.0942877 -0.0434345
v -0.723031 -0.0506563 -0.0506998
v -0.725993 -0.00336695 -0.0487142
v -0.730828 0.00057724 0.050834
v -0.649225 0.00057724 0.144516
v -0.648976 0.00057724 0.161258
v -0.648858 0.00057724 0.188514
v -0.599048 -0.208199 0.196682
v -0.693414 -0.190747 -0.00724332
v -0.696088 -0.181039 -0.0217288
v -0.688395 -0.208199 0.0385146
v -0.697293 -0.186537 0.0441102
v -0.697202 -0.18435 0.0238035
v -0.700858 -0.166775 -0.0217288
v -0.705248 -0.152265 -0.0217288
v -0.711027 -0.139268 0.0218179
v -0.715234 -0.123266 0.0290832
v -0.713386 -0.123266 -0.00724332
v -0.717055 -0.108756 2.19904e-05
v -0.715889 -0.108756 -0.0217288
v -0.718864 -0.0942877 -0.0217288
v -0.719925 -0.0797984 -0.0434345
v -0.721786 -0.0652887 -0.0434345
v -0.724538 -0.0484084 -0.0306638
v -0.725534 -0.0239258 -0.0426222
v -0.727146 -0.00532883 -0.0270086
v -0.728522 -0.00336695 -0.00164767
v -0.729976 -0.00336695 0.0290832
v -0.730736 -0.0072907 0.050834
v -0.731431 -0.00336695 0.0725848
v -0.731929 -0.00336695 0.101556
v -0.732637 0.00057724 0.195779
v -0.649605 0.00057724 0.21753
v -0.599611 -0.208199 0.216988
v -0.6977 -0.178464 -0.00724332
v -0.689522 -0.208199 0.0725848
v -0.694043 -0.197613 0.079805
v -0.697569 -0.187456 0.0653195
v -0.704383 -0.166775 0.0580542
v -0.70319 -0.166775 0.0290832
v -0.700137 -0.173151 0.00728729
v -0.711302 -0.142333 0.0442907
v -0.716465 -0.123266 0.0580542
v -0.718484 -0.108756 0.0290832
v -0.720122 -0.0942877 2.19904e-05
v -0.722467 -0.0797984 2.19904e-05
v -0.723136 -0.0652887 -0.0217288
v -0.72573 -0.0546005 0.00399309
v -0.727054 -0.0362897 2.19904e-05
v -0.7267 -0.02178 -0.0217288
v -0.730225 -0.02178 0.050834
v -0.731169 -0.02178 0.0725848
v -0.73189 -0.02178 0.101556
v -0.732296 -0.00336695 0.134498
v -0.732492 -0.00336695 0.163514
v -0.732047 -0.02178 0.130572
v -0.732545 -0.00336695 0.210265
v -0.732532 -0.00336695 0.239281
v -0.732519 0.00057724 0.261031
v -0.650693 0.00057724 0.239281
v -0.601472 -0.208199 0.245463
v -0.690702 -0.208199 0.124615
v -0.691265 -0.205624 0.0997507
v -0.698486 -0.185821 0.079805
v -0.705838 -0.166775 0.130572
v -0.70724 -0.160685 0.101556
v -0.711722 -0.143927 0.0725848
v -0.717265 -0.123266 0.0870703
v -0.720436 -0.108756 0.0870703
v -0.719571 -0.108756 0.0580542
v -0.721471 -0.0942877 0.0290832
v -0.723725 -0.0797984 0.0290832
v -0.726844 -0.050779 0.0218179
v -0.728378 -0.0362897 0.0290832
v -0.73075 -0.0362897 0.0870703
v -0.730684 -0.0435241 0.116086
v -0.731313 -0.0362897 0.246501
v -0.73206 -0.02178 0.166808
v -0.732427 -0.0072907 0.253766
v -0.732322 -0.00336695 0.284723
v -0.73185 -0.00336695 0.324614
v -0.731234 -0.00336695 0.34808
v -0.730081 -0.00336695 0.36983
v -0.727919 -0.00336695 0.388377
v -0.7015 0.00057724 0.408594
v -0.652056 0.00057724 0.254804
v -0.603608 -0.208199 0.266988
v -0.690924 -0.208199 0.14772
v -0.694856 -0.199493 0.195779
v -0.701657 -0.181264 0.203044
v -0.700425 -0.181264 0.101556
v -0.706401 -0.166775 0.166808
v -0.709795 -0.15625 0.166808
v -0.71256 -0.142456 0.0943356
v -0.713976 -0.137755 0.108821
v -0.717684 -0.123266 0.116086
v -0.720973 -0.108756 0.116086
v -0.723044 -0.0942877 0.0870703
v -0.722323 -0.0942877 0.0580542
v -0.725167 -0.0761403 0.0595885
v -0.727224 -0.0652887 0.079805
v -0.729491 -0.050779 0.0943356
v -0.728456 -0.0652887 0.145057
v -0.730199 -0.050779 0.152323
v -0.730225 -0.050779 0.181294
v -0.730238 -0.050779 0.232015
v -0.731221 -0.0362897 0.275517
v -0.731942 -0.02178 0.290002
v -0.732217 -0.0145251 0.268252
v -0.732086 -0.00532883 0.306473
v -0.731431 -0.02178 0.319019
v -0.730632 -0.02178 0.34808
v -0.729007 -0.02178 0.377051
v -0.725586 -0.0431971 0.390273
v -0.724486 -0.02178 0.398486
v -0.719099 -0.00336695 0.405616
v -0.71526 -0.02178 0.408684
v -0.703413 -0.0435241 0.409948
v -0.654415 -0.208199 0.409406
v -0.639305 -0.208199 0.397718
v -0.68466 0.00057724 0.393657
v -0.654625 0.00057724 0.27678
v -0.607172 -0.208199 0.290499
v -0.691121 -0.208199 0.169561
v -0.691291 -0.208199 0.191357
v -0.695066 -0.199146 0.216086
v -0.701801 -0.181264 0.232015
v -0.706702 -0.166775 0.21753
v -0.708773 -0.159929 0.188514
v -0.7099 -0.156659 0.210265
v -0.714854 -0.137755 0.210265
v -0.714736 -0.137755 0.188514
v -0.714343 -0.137755 0.145057
v -0.718339 -0.123266 0.188514
v -0.721314 -0.108756 0.152323
v -0.723752 -0.0942877 0.130572
v -0.724499 -0.0880342 0.108821
v -0.72518 -0.0797984 0.079805
v -0.726884 -0.071256 0.0979457
v -0.727251 -0.0720326 0.123307
v -0.726242 -0.0792057 0.137837
v -0.72463 -0.0908748 0.166808
v -0.724564 -0.0920805 0.186709
v -0.725613 -0.0856431 0.210265
v -0.728561 -0.0652887 0.181294
v -0.728627 -0.0652887 0.232015
v -0.730107 -0.050779 0.261031
v -0.729898 -0.050779 0.282782
v -0.73092 -0.0362897 0.304533
v -0.730448 -0.0362897 0.326284
v -0.729282 -0.0435241 0.34808
v -0.727998 -0.0435241 0.36983
v -0.724957 -0.0629181 0.382285
v -0.722585 -0.0797984 0.384316
v -0.717959 -0.0797984 0.398801
v -0.719873 -0.0652887 0.398801
v -0.71332 -0.0652887 0.407872
v -0.714356 -0.0435241 0.408368
v -0.703413 -0.0652887 0.409993
v -0.688906 -0.137755 0.410309
v -0.681332 -0.187048 0.408323
v -0.678029 -0.204664 0.404758
v -0.688644 -0.208199 0.36252
v -0.629883 -0.208199 0.376915
v -0.676287 0.00057724 0.372989
v -0.65832 0.00057724 0.300607
v -0.662422 0.00057724 0.320688
v -0.612965 -0.208199 0.317935
v -0.689915 -0.208199 0.340814
v -0.692969 -0.203907 0.254443
v -0.693821 -0.20217 0.240003
v -0.699691 -0.186762 0.261031
v -0.701369 -0.181264 0.290002
v -0.706519 -0.166775 0.246501
v -0.706244 -0.166775 0.275517
v -0.70973 -0.156271 0.239281
v -0.710713 -0.152429 0.253766
v -0.711813 -0.149016 0.239281
v -0.714827 -0.137755 0.232015
v -0.718523 -0.123266 0.21753
v -0.721694 -0.108756 0.195779
v -0.721812 -0.108756 0.21753
v -0.724761 -0.0915083 0.22475
v -0.726425 -0.0797984 0.246501
v -0.725128 -0.0867467 0.297268
v -0.728325 -0.0652887 0.275517
v -0.727735 -0.0652887 0.333549
v -0.729491 -0.050779 0.319019
v -0.725521 -0.0720122 0.362204
v -0.720004 -0.0942877 0.384316
v -0.721891 -0.0942877 0.362565
v -0.712259 -0.10285 0.402276
v -0.6988 -0.137755 0.407827
v -0.700648 -0.123266 0.408413
v -0.707895 -0.0834156 0.408504
v -0.687163 -0.166775 0.408774
v -0.697804 -0.152633 0.404984
v -0.696455 -0.166775 0.399975
v -0.688867 -0.201986 0.384316
v -0.696677 -0.187824 0.362249
v -0.620251 -0.208199 0.346094
v -0.671045 0.00057724 0.3553
v -0.667192 0.00057724 0.340679
v -0.69787 -0.187742 0.340814
v -0.695695 -0.19465 0.326284
v -0.699167 -0.186291 0.311753
v -0.700661 -0.181264 0.326284
v -0.70589 -0.166775 0.304533
v -0.71028 -0.150998 0.326284
v -0.711433 -0.147647 0.311753
v -0.711682 -0.148505 0.268252
v -0.71446 -0.137755 0.290002
v -0.714709 -0.137755 0.261031
v -0.718457 -0.123266 0.246501
v -0.721603 -0.108756 0.261031
v -0.722978 -0.101869 0.239281
v -0.723961 -0.0942877 0.297268
v -0.724708 -0.0904661 0.271771
v -0.724459 -0.0903639 0.311753
v -0.724603 -0.0883407 0.326284
v -0.724328 -0.0878094 0.340814
v -0.718366 -0.108756 0.36983
v -0.716963 -0.108756 0.384316
v -0.711761 -0.124288 0.390995
v -0.719886 -0.108756 0.34808
v -0.710529 -0.137347 0.384316
v -0.706191 -0.152265 0.384316
v -0.699207 -0.173049 0.386572
v -0.70323 -0.166775 0.36983
v -0.704724 -0.166775 0.34808
v -0.705458 -0.166775 0.326284
v -0.713962 -0.137755 0.319019
v -0.711826 -0.144132 0.340814
v -0.717841 -0.123266 0.304533
v -0.718248 -0.123266 0.275517
v -0.721314 -0.108756 0.290002
v -0.720908 -0.108756 0.319019
v -0.715719 -0.123266 0.362565
v -0.716924 -0.123266 0.340814
v -0.71083 -0.144029 0.361753
v -0.717344 -0.123266 0.326284
f 1 2 3
f 1 3 4
f 1 4 17
f 1 17 5
f 1 5 6
f 1 6 23
f 1 23 49
f 1 49 76
f 1 76 102
f 1 102 138
f 1 138 183
f 1 183 216
f 1 216 179
f 1 179 135
f 1 135 134
f 1 134 178
f 1 178 184
f 1 184 140
f 1 140 139
f 1 139 103
f 1 103 77
f 1 77 51
f 1 51 26
f 1 26 8
f 1 8 2
f 2 7 3
f 2 8 9
f 2 9 7
f 3 10 4
f 3 7 10
f 4 10 11
f 4 11 12
f 4 12 13
f 4 13 14
f 4 14 15
f 4 15 16
f 4 16 17
f 5 17 18
f 5 18 19
f 5 19 47
f 5 47 74
f 5 74 100
f 5 100 136
f 5 136 180
f 5 180 217
f 5 217 218
f 5 218 182
f 5 182 181
f 5 181 137
f 5 137 101
f 5 101 75
f 5 75 48
f 5 48 22
f 5 22 21
f 5 21 20
f 5 20 6
f 6 20 21
f 6 21 22
f 6 22 23
f 7 9 24
f 7 24 25
f 7 25 10
f 8 26 27
f 8 27 9
f 9 27 28
f 9 28 24
f 10 25 29
f 10 29 11
f 11 29 30
f 11 30 31
f 11 31 12
f 12 31 13
f 13 31 32
f 13 32 14
f 14 32 33
f 14 33 34
f 14 34 35
f 14 35 15
f 15 35 36
f 15 36 16
f 16 37 17
f 16 36 37
f 17 37 38
f 17 38 39
f 17 39 40
f 17 40 18
f 18 40 41
f 18 41 42
f 18 42 19
f 19 42 43
f 19 43 44
f 19 44 45
f 19 45 46
f 19 46 47
f 22 48 23
f 23 48 49
f 24 28 25
f 25 28 50
f 25 50 29
f 26 51 52
f 26 52 27
f 27 53 54
f 27 54 28
f 27 52 53
f 28 55 56
f 28 56 50
f 28 54 55
f 29 50 56
f 29 56 55
f 29 55 57
f 29 57 30
f 30 57 31
f 31 57 32
f 32 57 58
f 32 58 59
f 32 59 34
f 32 34 33
f 34 59 60
f 34 60 35
f 35 60 36
f 36 60 61
f 36 61 37
f 37 61 62
f 37 62 38
f 38 62 39
f 39 62 63
f 39 63 64
f 39 64 40
f 40 64 65
f 40 65 41
f 41 65 42
f 42 65 66
f 42 66 43
f 43 66 67
f 43 67 44
f 44 67 45
f 45 68 46
f 45 67 68
f 46 68 69
f 46 69 47
f 47 69 70
f 47 70 71
f 47 71 72
f 47 72 73
f 47 73 74
f 48 75 49
f 49 75 76
f 51 77 78
f 51 78 52
f 52 78 77
f 52 77 79
f 52 79 53
f 53 79 54
f 54 57 55
f 54 79 80
f 54 80 81
f 54 81 82
f 54 82 57
f 57 82 58
f 58 82 83
f 58 83 84
f 58 84 85
f 58 85 59
f 59 85 86
f 59 86 60
f 60 86 61
f 61 86 87
f 61 87 63
f 61 63 62
f 63 87 88
f 63 88 89
f 63 89 64
f 64 89 66
f 64 66 65
f 66 89 67
f 67 89 90
f 67 90 68
f 68 90 91
f 68 91 71
f 68 71 70
f 68 70 69
f 71 91 92
f 71 92 93
f 71 93 72
f 72 93 94
f 72 94 73
f 73 94 74
f 74 94 95
f 74 95 96
f 74 96 97
f 74 97 98
f 74 98 99
f 74 99 100
f 75 101 76
f 76 101 102
f 77 103 104
f 77 104 79
f 79 104 105
f 79 105 106
f 79 106 80
f 80 106 107
f 80 107 108
f 80 108 81
f 81 108 82
f 82 108 109
f 82 109 83
f 83 109 110
f 83 110 111
f 83 111 112
f 83 112 84
f 84 112 113
f 84 113 114
f 84 114 86
f 84 86 85
f 86 114 87
f 87 114 115
f 87 115 116
f 87 116 117
f 87 117 88
f 88 117 90
f 88 90 89
f 90 117 91
f 91 117 118
f 91 118 119
f 91 119 120
f 91 120 92
f 92 121 122
f 92 122 123
f 92 123 93
f 92 120 121
f 93 123 124
f 93 124 94
f 94 124 95
f 95 123 125
f 95 125 96
f 95 124 123
f 96 125 123
f 96 123 126
f 96 126 97
f 97 127 98
f 97 126 127
f 98 127 128
f 98 128 99
f 99 129 130
f 99 130 131
f 99 131 100
f 99 128 129
f 100 131 132
f 100 132 133
f 100 133 134
f 100 134 135
f 100 135 136
f 101 137 102
f 102 137 138
f 103 139 104
f 104 140 141
f 104 141 142
f 104 142 105
f 104 139 140
f 105 143 107
f 105 107 106
f 105 142 143
f 107 143 144
f 107 144 108
f 108 144 145
f 108 145 146
f 108 146 147
f 108 147 148
f 108 148 110
f 108 110 109
f 110 148 111
f 111 148 147
f 111 147 149
f 111 149 150
f 111 150 112
f 112 151 152
f 112 152 113
f 112 150 151
f 113 153 114
f 113 152 153
f 114 153 115
f 115 153 154
f 115 154 116
f 116 154 117
f 117 154 155
f 117 155 118
f 118 155 156
f 118 156 157
f 118 157 158
f 118 158 159
f 118 159 160
f 118 160 119
f 119 160 161
f 119 161 120
f 120 161 121
f 121 161 162
f 121 162 122
f 122 163 164
f 122 164 123
f 122 162 163
f 123 164 126
f 126 164 165
f 126 165 127
f 127 166 128
f 127 165 166
f 128 166 167
f 128 167 168
f 128 168 129
f 129 168 169
f 129 169 170
f 129 170 171
f 129 171 130
f 130 171 172
f 130 172 173
f 130 173 131
f 131 173 132
f 132 174 133
f 132 173 174
f 133 174 175
f 133 175 134
f 134 175 176
f 134 176 177
f 134 177 178
f 135 179 136
f 136 179 180
f 137 181 138
f 138 181 182
f 138 182 183
f 140 184 185
f 140 185 186
f 140 186 141
f 141 186 187
f 141 187 142
f 142 187 188
f 142 188 189
f 142 189 143
f 143 145 144
f 143 189 145
f 145 189 190
f 145 190 191
f 145 191 192
f 145 192 193
f 145 193 194
f 145 194 146
f 146 194 195
f 146 195 147
f 147 195 149
f 149 195 196
f 149 196 150
f 150 196 151
f 151 156 155
f 151 155 152
f 151 196 157
f 151 157 156
f 152 155 154
f 152 154 153
f 157 196 158
f 158 196 197
f 158 197 198
f 158 198 159
f 159 198 161
f 159 161 160
f 161 198 199
f 161 199 200
f 161 200 201
f 161 201 162
f 162 201 163
f 163 201 202
f 163 202 203
f 163 203 164
f 164 203 165
f 165 203 166
f 166 203 202
f 166 202 204
f 166 204 167
f 167 204 168
f 168 204 169
f 169 205 170
f 169 204 206
f 169 206 205
f 170 207 172
f 170 172 171
f 170 205 207
f 172 208 209
f 172 209 210
f 172 210 173
f 172 207 208
f 173 210 174
f 174 210 175
f 175 210 209
f 175 209 211
f 175 211 176
f 176 208 212
f 176 212 177
f 176 211 208
f 177 212 213
f 177 213 214
f 177 214 178
f 178 214 215
f 178 215 184
f 179 216 180
f 180 216 217
f 182 218 183
f 183 218 216
f 184 215 219
f 184 219 220
f 184 220 185
f 185 220 187
f 185 187 186
f 187 220 221
f 187 221 188
f 188 221 222
f 188 222 223
f 188 223 190
f 188 190 189
f 190 192 191
f 190 223 224
f 190 224 192
f 192 224 225
f 192 225 226
f 192 226 193
f 193 226 227
f 193 227 228
f 193 228 194
f 194 228 229
f 194 229 195
f 195 229 197
f 195 197 196
f 197 229 230
f 197 230 231
f 197 231 198
f 198 231 232
f 198 232 233
f 198 233 199
f 199 233 200
f 200 233 232
f 200 232 234
f 200 234 235
f 200 235 202
f 200 202 201
f 202 235 236
f 202 236 204
f 204 236 206
f 205 206 237
f 205 237 238
f 205 238 239
f 205 239 207
f 206 236 240
f 206 240 237
f 207 239 213
f 207 213 212
f 207 212 208
f 208 211 209
f 213 239 241
f 213 241 242
f 213 242 243
f 213 243 214
f 214 243 215
f 215 243 244
f 215 244 245
f 215 245 219
f 216 218 217
f 219 245 222
f 219 222 220
f 220 222 221
f 222 245 246
f 222 246 223
f 223 246 224
f 224 247 225
f 224 246 245
f 224 245 248
f 224 248 247
f 225 247 227
f 225 227 226
f 227 247 249
f 227 249 250
f 227 250 228
f 228 250 229
f 229 250 230
f 230 250 251
f 230 251 232
f 230 232 231
f 232 251 252
f 232 252 235
f 232 235 234
f 235 252 236
f 236 252 240
f 237 240 253
f 237 253 241
f 237 241 238
f 238 241 239
f 240 254 253
f 240 252 254
f 241 253 255
f 241 255 242
f 242 255 244
f 242 244 243
f 244 255 245
f 245 255 248
f 247 248 256
f 247 256 249
f 248 255 254
f 248 254 256
f 249 256 252
f 249 252 251
f 249 251 250
f 252 256 254
f 253 254 255
