v 0.10895 -0.460062 -0.179942
v 0.10895 -0.439212 -0.224754
v 0.108994 -0.453617 -0.195845
v 0.117655 -0.450635 -0.190823
v 0.120637 -0.452505 -0.181304
v 0.130241 -0.449371 -0.173377
v 0.124562 -0.454628 -0.16785
v 0.111647 -0.46403 -0.162943
v 0.10895 -0.376232 -0.159084
v 0.108994 -0.44644 -0.210985
v 0.10895 -0.430215 -0.239132
v 0.113708 -0.433626 -0.229556
v 0.118115 -0.436381 -0.219894
v 0.114103 -0.448411 -0.200494
v 0.127895 -0.447855 -0.181304
v 0.131622 -0.4358 -0.204487
v 0.134363 -0.43767 -0.195806
v 0.123487 -0.457914 -0.159084
v 0.13877 -0.440349 -0.181933
v 0.146949 -0.436482 -0.177512
v 0.137521 -0.446238 -0.16785
v 0.136907 -0.448916 -0.160237
v 0.253557 -0.205844 -0.159084
v 0.191614 -0.205844 -0.256416
v 0.10895 -0.306505 -0.256416
v 0.123071 -0.438479 -0.209699
v 0.10895 -0.422835 -0.249699
v 0.116076 -0.420586 -0.246564
v 0.123794 -0.42003 -0.239837
v 0.130614 -0.420611 -0.23211
v 0.123071 -0.430189 -0.224754
v 0.127785 -0.433222 -0.214139
v 0.137959 -0.427991 -0.210499
v 0.14787 -0.422709 -0.206888
v 0.15254 -0.424907 -0.195378
v 0.141643 -0.432616 -0.195806
v 0.14423 -0.434511 -0.187183
v 0.17495 -0.421319 -0.160142
v 0.197425 -0.402137 -0.159084
v 0.160609 -0.421394 -0.190261
v 0.16289 -0.423164 -0.181304
v 0.157584 -0.433626 -0.162943
v 0.150523 -0.438706 -0.162943
v 0.31925 -0.24029 -0.159084
v 0.332932 -0.209306 -0.160037
v 0.331288 -0.207891 -0.167955
v 0.305195 -0.205844 -0.233253
v 0.291074 -0.208295 -0.253282
v 0.279628 -0.227224 -0.256416
v 0.129956 -0.402971 -0.256416
v 0.109783 -0.417174 -0.256378
v 0.132872 -0.407722 -0.248546
v 0.136578 -0.412423 -0.23795
v 0.146818 -0.407419 -0.23412
v 0.140897 -0.417528 -0.224792
v 0.13364 -0.422835 -0.224792
v 0.144274 -0.420004 -0.21654
v 0.160368 -0.406686 -0.218532
v 0.163328 -0.408986 -0.21029
v 0.157518 -0.419019 -0.199923
v 0.167385 -0.425059 -0.166335
v 0.172603 -0.419398 -0.170861
v 0.188171 -0.405751 -0.173081
v 0.190386 -0.407646 -0.161247
v 0.195254 -0.401353 -0.167669
v 0.204134 -0.396223 -0.159084
v 0.173437 -0.405574 -0.201981
v 0.17609 -0.407798 -0.19231
v 0.170126 -0.417351 -0.181304
v 0.312781 -0.25323 -0.159084
v 0.316662 -0.241503 -0.166802
v 0.325499 -0.224823 -0.162943
v 0.326617 -0.208093 -0.182486
v 0.317671 -0.20688 -0.207564
v 0.319579 -0.233189 -0.170442
v 0.319074 -0.226264 -0.181809
v 0.308878 -0.207967 -0.224763
v 0.303309 -0.21474 -0.229823
v 0.300524 -0.207967 -0.239532
v 0.290745 -0.21896 -0.247479
v 0.276405 -0.238092 -0.253224
v 0.265398 -0.254266 -0.255635
v 0.243317 -0.288334 -0.256416
v 0.154952 -0.383309 -0.256416
v 0.141906 -0.3941 -0.256111
v 0.148418 -0.394403 -0.249785
v 0.142542 -0.404083 -0.243782
v 0.172296 -0.390132 -0.22987
v 0.156487 -0.403653 -0.228193
v 0.151926 -0.409794 -0.223934
v 0.166332 -0.398472 -0.224201
v 0.176002 -0.393291 -0.220209
v 0.170564 -0.40335 -0.21029
v 0.178918 -0.410098 -0.181304
v 0.186176 -0.404057 -0.181304
v 0.203301 -0.3918 -0.174587
v 0.204814 -0.39319 -0.166802
v 0.212751 -0.386821 -0.162943
v 0.222268 -0.378481 -0.159084
v 0.181045 -0.395263 -0.208937
v 0.189662 -0.392558 -0.199503
v 0.181089 -0.40148 -0.196616
v 0.306642 -0.264855 -0.159084
v 0.310479 -0.253862 -0.166802
v 0.314338 -0.237889 -0.179875
v 0.319557 -0.218758 -0.189918
v 0.322188 -0.207891 -0.195263
v 0.317737 -0.214537 -0.199589
v 0.308286 -0.225127 -0.210547
v 0.30594 -0.220502 -0.220151
v 0.315193 -0.224091 -0.195178
v 0.301029 -0.225127 -0.224906
v 0.293332 -0.224217 -0.239037
v 0.288267 -0.22864 -0.243696
v 0.275988 -0.247367 -0.247164
v 0.261451 -0.264552 -0.252834
v 0.249545 -0.280802 -0.254844
v 0.247725 -0.291771 -0.248089
v 0.23356 -0.302107 -0.256416
v 0.164534 -0.376738 -0.254635
v 0.158088 -0.390334 -0.245001
v 0.19885 -0.343555 -0.256416
v 0.177033 -0.365239 -0.255101
v 0.162627 -0.393999 -0.23533
v 0.168021 -0.385406 -0.240618
v 0.1778 -0.380453 -0.236245
v 0.18747 -0.376005 -0.230452
v 0.190781 -0.379189 -0.22079
v 0.185672 -0.388843 -0.212862
v 0.200977 -0.389601 -0.184258
v 0.195999 -0.395869 -0.18018
v 0.215668 -0.375145 -0.184401
v 0.217882 -0.377369 -0.17473
v 0.219351 -0.378886 -0.166802
v 0.232792 -0.363394 -0.170604
v 0.234612 -0.36534 -0.159084
v 0.203586 -0.377546 -0.203887
v 0.197929 -0.386847 -0.195806
v 0.29103 -0.29167 -0.160618
v 0.302081 -0.271199 -0.162943
v 0.305107 -0.262101 -0.17048
v 0.286776 -0.298822 -0.159084
v 0.306598 -0.253255 -0.179923
v 0.305348 -0.248024 -0.190528
v 0.305589 -0.241908 -0.197865
v 0.305874 -0.234705 -0.205907
v 0.303616 -0.230156 -0.215549
v 0.291578 -0.249464 -0.220151
v 0.294012 -0.239229 -0.224906
v 0.291227 -0.234351 -0.234025
v 0.285526 -0.239229 -0.239037
v 0.288662 -0.244005 -0.229823
v 0.278334 -0.252851 -0.23857
v 0.276317 -0.262429 -0.233253
v 0.273204 -0.257046 -0.242924
v 0.26053 -0.274762 -0.245802
v 0.250729 -0.296926 -0.238875
v 0.24426 -0.30145 -0.243429
v 0.234612 -0.308148 -0.249756
v 0.258403 -0.284088 -0.240304
v 0.260815 -0.289749 -0.23169
v 0.226193 -0.312216 -0.256121
v 0.204902 -0.336958 -0.256416
v 0.173437 -0.37651 -0.245916
v 0.203476 -0.348483 -0.247021
v 0.193434 -0.350833 -0.25452
v 0.1885 -0.362509 -0.246478
v 0.202073 -0.361574 -0.230575
v 0.196438 -0.370419 -0.225687
v 0.20045 -0.374514 -0.213539
v 0.205669 -0.379593 -0.195806
v 0.212927 -0.372365 -0.195806
v 0.220009 -0.365112 -0.195806
v 0.229986 -0.360336 -0.184068
v 0.236191 -0.355433 -0.180066
v 0.24608 -0.347522 -0.172776
v 0.248141 -0.349847 -0.161095
v 0.261451 -0.334153 -0.159789
v 0.278905 -0.310447 -0.159084
v 0.215032 -0.359982 -0.213472
v 0.218014 -0.36304 -0.20382
v 0.285877 -0.296648 -0.166916
v 0.289342 -0.288915 -0.171824
v 0.293946 -0.283582 -0.166916
v 0.291951 -0.278856 -0.181304
v 0.290438 -0.276279 -0.189518
v 0.278137 -0.308299 -0.166802
v 0.302717 -0.257703 -0.183839
v 0.292718 -0.26809 -0.194939
v 0.300502 -0.253255 -0.19554
v 0.29114 -0.263061 -0.205554
v 0.293837 -0.254114 -0.210337
v 0.301314 -0.239456 -0.210547
v 0.286118 -0.254114 -0.224906
v 0.288969 -0.259144 -0.215206
v 0.278773 -0.267686 -0.224239
v 0.273511 -0.272083 -0.228708
v 0.263863 -0.280095 -0.236131
v 0.247747 -0.306277 -0.233758
v 0.231016 -0.317802 -0.245192
v 0.268621 -0.28338 -0.225363
v 0.261012 -0.296118 -0.224029
v 0.219242 -0.323437 -0.25372
v 0.217334 -0.333344 -0.24624
v 0.214177 -0.341583 -0.240561
v 0.216567 -0.346966 -0.230537
v 0.206239 -0.351263 -0.239294
v 0.210975 -0.355938 -0.225726
v 0.205362 -0.364834 -0.220914
v 0.234459 -0.350681 -0.193262
v 0.24437 -0.345602 -0.181304
v 0.250422 -0.338348 -0.181304
v 0.259697 -0.331853 -0.170166
v 0.253754 -0.340749 -0.16664
v 0.264981 -0.326748 -0.165916
v 0.273554 -0.316361 -0.162943
v 0.219702 -0.350328 -0.220866
v 0.221939 -0.355231 -0.209299
v 0.230973 -0.34684 -0.206612
v 0.240182 -0.341811 -0.197522
v 0.276536 -0.306025 -0.176502
v 0.287631 -0.28611 -0.181304
v 0.280001 -0.297937 -0.181323
v 0.284759 -0.281788 -0.194939
v 0.288399 -0.27274 -0.199189
v 0.286031 -0.26809 -0.210337
v 0.276405 -0.276986 -0.219037
v 0.250115 -0.311408 -0.223925
v 0.244129 -0.315932 -0.228174
v 0.234459 -0.322048 -0.235521
v 0.225886 -0.327709 -0.240885
v 0.260376 -0.303674 -0.216245
v 0.220799 -0.337287 -0.236569
v 0.230402 -0.331702 -0.229565
v 0.233516 -0.335341 -0.219904
v 0.248229 -0.335695 -0.192119
v 0.257701 -0.329124 -0.181304
v 0.263139 -0.321871 -0.181304
v 0.236279 -0.338449 -0.21029
v 0.245883 -0.332839 -0.201781
v 0.274541 -0.303169 -0.186173
v 0.261495 -0.319697 -0.189604
v 0.277392 -0.292832 -0.195806
v 0.275703 -0.29033 -0.203382
v 0.275725 -0.284442 -0.211042
v 0.247111 -0.319824 -0.218503
v 0.238822 -0.325788 -0.224039
v 0.268073 -0.297002 -0.209804
v 0.262766 -0.307137 -0.206602
v 0.257109 -0.311913 -0.210966
v 0.243537 -0.329933 -0.21029
v 0.253842 -0.326268 -0.195692
v 0.249391 -0.322705 -0.21029
v 0.259434 -0.316791 -0.199275
v 0.27248 -0.300086 -0.195806
f 1 2 3
f 1 3 4
f 1 4 5
f 1 5 6
f 1 6 7
f 1 7 8
f 1 8 9
f 1 9 25
f 1 25 27
f 1 27 11
f 1 11 2
f 2 10 3
f 2 11 12
f 2 12 13
f 2 13 10
f 3 10 14
f 3 14 4
f 4 15 5
f 4 14 16
f 4 16 17
f 4 17 15
f 5 15 6
f 6 18 7
f 6 15 19
f 6 19 20
f 6 20 21
f 6 21 22
f 6 22 18
f 7 18 8
f 8 18 9
f 9 18 39
f 9 39 66
f 9 66 99
f 9 99 136
f 9 136 179
f 9 179 142
f 9 142 103
f 9 103 70
f 9 70 44
f 9 44 23
f 9 23 24
f 9 24 25
f 10 13 26
f 10 26 16
f 10 16 14
f 11 27 28
f 11 28 12
f 12 28 29
f 12 29 30
f 12 30 31
f 12 31 13
f 13 31 32
f 13 32 16
f 13 16 26
f 15 17 19
f 16 32 33
f 16 33 34
f 16 34 35
f 16 35 36
f 16 36 17
f 17 36 37
f 17 37 19
f 18 22 38
f 18 38 39
f 19 37 20
f 20 37 40
f 20 40 41
f 20 41 42
f 20 42 43
f 20 43 21
f 21 43 22
f 22 43 42
f 22 42 38
f 23 44 45
f 23 45 46
f 23 46 47
f 23 47 24
f 24 47 48
f 24 48 49
f 24 49 83
f 24 83 119
f 24 119 163
f 24 163 122
f 24 122 84
f 24 84 50
f 24 50 25
f 25 50 51
f 25 51 27
f 27 51 28
f 28 51 52
f 28 52 29
f 29 52 30
f 30 52 53
f 30 53 54
f 30 54 55
f 30 55 56
f 30 56 32
f 30 32 31
f 32 56 57
f 32 57 33
f 33 57 34
f 34 57 58
f 34 58 59
f 34 59 60
f 34 60 35
f 35 60 40
f 35 40 36
f 36 40 37
f 38 42 61
f 38 61 62
f 38 62 63
f 38 63 64
f 38 64 39
f 39 64 65
f 39 65 66
f 40 60 67
f 40 67 68
f 40 68 69
f 40 69 41
f 41 61 42
f 41 69 62
f 41 62 61
f 44 70 71
f 44 71 72
f 44 72 45
f 45 72 46
f 46 73 74
f 46 74 47
f 46 72 75
f 46 75 76
f 46 76 73
f 47 74 77
f 47 77 78
f 47 78 79
f 47 79 48
f 48 80 49
f 48 79 80
f 49 81 82
f 49 82 83
f 49 80 81
f 50 84 85
f 50 85 52
f 50 52 51
f 52 85 86
f 52 86 87
f 52 87 53
f 53 87 54
f 54 87 88
f 54 88 89
f 54 89 58
f 54 58 90
f 54 90 55
f 55 57 56
f 55 90 57
f 57 90 58
f 58 89 91
f 58 91 92
f 58 92 93
f 58 93 59
f 59 93 67
f 59 67 60
f 62 69 63
f 63 69 94
f 63 94 95
f 63 95 96
f 63 96 97
f 63 97 65
f 63 65 64
f 65 97 66
f 66 97 98
f 66 98 99
f 67 93 92
f 67 92 100
f 67 100 101
f 67 101 102
f 67 102 68
f 68 102 95
f 68 95 94
f 68 94 69
f 70 103 104
f 70 104 71
f 71 104 105
f 71 105 75
f 71 75 72
f 73 106 107
f 73 107 74
f 73 76 106
f 74 107 108
f 74 108 109
f 74 109 110
f 74 110 77
f 75 105 76
f 76 105 111
f 76 111 106
f 77 110 78
f 78 110 112
f 78 112 113
f 78 113 80
f 78 80 79
f 80 113 114
f 80 114 115
f 80 115 81
f 81 115 82
f 82 115 116
f 82 116 117
f 82 117 83
f 83 117 118
f 83 118 119
f 84 120 121
f 84 121 86
f 84 86 85
f 84 122 123
f 84 123 120
f 86 121 87
f 87 121 124
f 87 124 88
f 88 92 91
f 88 91 89
f 88 124 121
f 88 121 125
f 88 125 126
f 88 126 127
f 88 127 92
f 92 127 128
f 92 128 129
f 92 129 100
f 95 102 130
f 95 130 131
f 95 131 96
f 96 131 130
f 96 130 132
f 96 132 133
f 96 133 134
f 96 134 98
f 96 98 97
f 98 134 99
f 99 134 135
f 99 135 136
f 100 129 137
f 100 137 101
f 101 137 138
f 101 138 130
f 101 130 102
f 103 139 140
f 103 140 141
f 103 141 104
f 103 142 139
f 104 143 105
f 104 141 143
f 105 143 144
f 105 144 145
f 105 145 111
f 106 108 107
f 106 111 108
f 108 111 146
f 108 146 109
f 109 146 147
f 109 147 110
f 110 147 148
f 110 148 112
f 111 145 146
f 112 149 150
f 112 150 113
f 112 148 149
f 113 150 114
f 114 150 151
f 114 151 115
f 115 152 153
f 115 153 154
f 115 154 155
f 115 155 156
f 115 156 116
f 115 151 152
f 116 156 117
f 117 156 118
f 118 157 158
f 118 158 159
f 118 159 119
f 118 156 160
f 118 160 161
f 118 161 157
f 119 159 162
f 119 162 163
f 120 164 121
f 120 123 164
f 121 164 125
f 122 165 166
f 122 166 123
f 122 163 165
f 123 166 165
f 123 165 167
f 123 167 164
f 125 164 126
f 126 164 167
f 126 167 165
f 126 165 127
f 127 165 168
f 127 168 169
f 127 169 128
f 128 169 170
f 128 170 137
f 128 137 129
f 130 138 171
f 130 171 132
f 132 171 172
f 132 172 173
f 132 173 174
f 132 174 133
f 133 174 135
f 133 135 134
f 135 174 175
f 135 175 176
f 135 176 177
f 135 177 136
f 136 177 178
f 136 178 179
f 137 171 138
f 137 170 180
f 137 180 181
f 137 181 172
f 137 172 171
f 139 142 182
f 139 182 183
f 139 183 184
f 139 184 140
f 140 184 141
f 141 184 183
f 141 183 185
f 141 185 186
f 141 186 143
f 142 179 187
f 142 187 182
f 143 186 188
f 143 188 144
f 144 188 186
f 144 186 189
f 144 189 190
f 144 190 145
f 145 190 191
f 145 191 192
f 145 192 146
f 146 192 193
f 146 193 147
f 147 193 148
f 148 194 152
f 148 152 150
f 148 150 149
f 148 193 195
f 148 195 196
f 148 196 194
f 150 152 151
f 152 194 153
f 153 194 154
f 154 194 196
f 154 196 197
f 154 197 198
f 154 198 155
f 155 198 156
f 156 198 161
f 156 161 160
f 157 199 158
f 157 161 199
f 158 199 200
f 158 200 159
f 159 200 162
f 161 198 197
f 161 197 201
f 161 201 202
f 161 202 199
f 162 200 203
f 162 203 163
f 163 203 165
f 165 203 204
f 165 204 205
f 165 205 206
f 165 206 207
f 165 207 168
f 168 208 209
f 168 209 169
f 168 207 206
f 168 206 208
f 169 209 170
f 170 209 180
f 172 181 173
f 173 181 210
f 173 210 174
f 174 210 175
f 175 210 211
f 175 211 176
f 176 211 212
f 176 212 213
f 176 213 214
f 176 214 177
f 177 214 178
f 178 214 213
f 178 213 215
f 178 215 216
f 178 216 179
f 179 216 187
f 180 209 217
f 180 217 181
f 181 217 218
f 181 218 219
f 181 219 220
f 181 220 210
f 182 187 221
f 182 221 183
f 183 222 185
f 183 221 223
f 183 223 222
f 185 222 186
f 186 222 224
f 186 224 225
f 186 225 191
f 186 191 189
f 187 216 215
f 187 215 221
f 189 191 190
f 191 225 226
f 191 226 195
f 191 195 192
f 192 195 193
f 195 226 227
f 195 227 196
f 196 227 197
f 197 227 201
f 199 202 228
f 199 228 229
f 199 229 230
f 199 230 200
f 200 230 231
f 200 231 204
f 200 204 203
f 201 227 202
f 202 232 228
f 202 227 232
f 204 231 233
f 204 233 205
f 205 233 206
f 206 217 208
f 206 233 234
f 206 234 235
f 206 235 217
f 208 217 209
f 210 220 236
f 210 236 211
f 211 236 212
f 212 236 237
f 212 237 213
f 213 237 238
f 213 238 215
f 215 238 221
f 217 219 218
f 217 235 219
f 219 235 239
f 219 239 240
f 219 240 220
f 220 240 236
f 221 241 223
f 221 238 242
f 221 242 241
f 222 223 243
f 222 243 224
f 223 241 243
f 224 243 244
f 224 244 225
f 225 244 245
f 225 245 226
f 226 245 227
f 227 245 232
f 228 246 229
f 228 232 246
f 229 246 247
f 229 247 230
f 230 247 234
f 230 234 233
f 230 233 231
f 232 245 248
f 232 248 249
f 232 249 250
f 232 250 246
f 234 247 235
f 235 247 246
f 235 246 251
f 235 251 240
f 235 240 239
f 236 240 252
f 236 252 242
f 236 242 237
f 237 242 238
f 240 251 253
f 240 253 254
f 240 254 252
f 241 255 243
f 241 242 254
f 241 254 255
f 242 252 254
f 243 255 244
f 244 255 249
f 244 249 248
f 244 248 245
f 246 250 253
f 246 253 251
f 249 254 250
f 249 255 254
f 250 254 253
