v -0.124285 0.484004 -0.278431
v -0.111236 0.483609 -0.277247
v -0.108758 0.475555 -0.286677
v -0.124285 0.476541 -0.287357
v -0.125331 0.283876 -0.413486
v -0.125331 0.391488 -0.276526
v 0.0165434 0.450433 -0.276554
v -0.0390214 0.469331 -0.277139
v -0.0941214 0.481328 -0.277384
v -0.0941989 0.474513 -0.285479
v -0.0941989 0.467247 -0.29318
v -0.108758 0.468289 -0.294201
v -0.124285 0.469077 -0.295058
v -0.125331 0.196288 -0.384015
v -0.124285 0.458206 -0.305521
v -0.124285 0.442463 -0.318896
v -0.124789 0.298324 -0.4155
v 0.0505405 0.196288 -0.412738
v -0.125331 0.196288 -0.321685
v 0.169685 0.196288 -0.276526
v 0.257195 0.231577 -0.276526
v 0.024791 0.443928 -0.27971
v 0.0174727 0.436408 -0.291316
v 0.00728904 0.445702 -0.285901
v 0.00430751 0.454348 -0.277588
v -0.020745 0.463163 -0.278023
v 0.138244 0.376308 -0.276798
v 0.0698623 0.422918 -0.277901
v 0.0509277 0.433113 -0.2782
v 0.0363298 0.438858 -0.279669
v -0.0551293 0.463163 -0.289153
v -0.0507151 0.471021 -0.278907
v -0.0634156 0.473358 -0.279629
v -0.0775488 0.475836 -0.2802
v -0.0692238 0.464768 -0.290758
v -0.0797172 0.465867 -0.29182
v -0.0941989 0.45615 -0.303834
v -0.108758 0.457221 -0.304841
v -0.0797172 0.45477 -0.302541
v -0.124285 0.42534 -0.33125
v -0.108758 0.441365 -0.31827
v -0.124285 0.310293 -0.410751
v -0.108758 0.297338 -0.415201
v -0.0652355 0.282834 -0.415119
v 0.0508115 0.210314 -0.413064
v 0.0650609 0.196288 -0.412588
v 0.252664 0.196288 -0.297725
v 0.270244 0.198823 -0.279887
v 0.262616 0.221353 -0.276676
v 0.244068 0.234675 -0.287751
v 0.24887 0.244025 -0.277901
v 0.237331 0.264415 -0.277016
v 0.191834 0.3246 -0.277016
v 0.031722 0.433028 -0.288064
v 0.0363298 0.424664 -0.293833
v 0.021732 0.42779 -0.29733
v 0.00728904 0.430522 -0.300541
v 0.00728904 0.438436 -0.293303
v -0.00440473 0.447927 -0.28835
v -0.0362334 0.456854 -0.289969
v -0.0179184 0.450349 -0.290854
v 0.147421 0.367887 -0.277465
v 0.132707 0.364366 -0.291684
v 0.126666 0.374055 -0.28733
v 0.113346 0.394388 -0.278213
v 0.0789617 0.412835 -0.282418
v 0.0837244 0.404077 -0.2882
v 0.0607241 0.418271 -0.287806
v 0.0961926 0.403823 -0.280839
v 0.0465135 0.422073 -0.291507
v -0.0554004 0.448462 -0.303575
v -0.0507151 0.455334 -0.295711
v -0.0697272 0.450152 -0.305086
v -0.0941989 0.440379 -0.317427
v -0.111081 0.421988 -0.332461
v -0.0941989 0.427818 -0.326679
v -0.108758 0.309138 -0.410166
v -0.0941989 0.297338 -0.414357
v -0.0507151 0.282834 -0.41403
v -0.021713 0.26833 -0.413636
v -0.00719264 0.253854 -0.414194
v 0.0508115 0.224705 -0.409418
v 0.0363298 0.224846 -0.413296
v 0.0649834 0.209835 -0.409091
v 0.0758253 0.200485 -0.407676
v 0.20647 0.197696 -0.331944
v 0.225676 0.196288 -0.319794
v 0.242674 0.197161 -0.306065
v 0.242287 0.210314 -0.300922
v 0.250419 0.210314 -0.29367
v 0.260525 0.198598 -0.289615
v 0.261377 0.210314 -0.283234
v 0.24794 0.220311 -0.291425
v 0.239112 0.224536 -0.297249
v 0.234194 0.243715 -0.292024
v 0.238841 0.253093 -0.282445
v 0.228619 0.272442 -0.280309
v 0.220565 0.287255 -0.2782
v 0.201669 0.311448 -0.278295
v 0.186142 0.316348 -0.28816
v 0.172086 0.331556 -0.288527
v 0.180372 0.336119 -0.277683
v 0.0363298 0.416497 -0.301072
v 0.02603 0.419116 -0.303317
v 0.0118194 0.422326 -0.306065
v -0.00916741 0.430128 -0.306446
v -0.00843172 0.442773 -0.294786
v -0.0362334 0.445561 -0.300922
v -0.0206289 0.441731 -0.299793
v 0.163412 0.351862 -0.278907
v 0.154661 0.358649 -0.280009
v 0.142348 0.360283 -0.288092
v 0.147885 0.350595 -0.292119
v 0.136695 0.354425 -0.296745
v 0.119425 0.360677 -0.303181
v 0.122407 0.369464 -0.294214
v 0.112843 0.379434 -0.292065
v 0.104866 0.389741 -0.288432
v 0.0913138 0.394417 -0.292622
v 0.0697074 0.408357 -0.29216
v 0.0506954 0.413286 -0.297371
v -0.0362334 0.438295 -0.307317
v -0.0362334 0.429592 -0.314569
v -0.0507151 0.431508 -0.31627
v -0.0674813 0.430071 -0.320774
v -0.0816533 0.432409 -0.321726
v -0.0941989 0.419172 -0.332665
v -0.0797172 0.417708 -0.331727
v -0.0941989 0.307786 -0.409323
v -0.0797172 0.297338 -0.412479
v -0.0507151 0.293592 -0.409173
v -0.0357688 0.283735 -0.410452
v -0.021713 0.279595 -0.409023
v -0.00959335 0.272949 -0.408765
v 0.00728904 0.253854 -0.412248
v 0.0217707 0.23935 -0.413105
v 0.0334645 0.243631 -0.408302
v 0.0459714 0.234309 -0.40754
v 0.0599497 0.219805 -0.407377
v 0.156907 0.272385 -0.332216
v 0.166045 0.267851 -0.329196
v 0.17046 0.256332 -0.331713
v 0.174061 0.246672 -0.333631
v 0.183857 0.23935 -0.330856
v 0.191098 0.227183 -0.331128
v 0.19981 0.210314 -0.33174
v 0.215415 0.20899 -0.322352
v 0.215725 0.220678 -0.317807
v 0.224475 0.21113 -0.315018
v 0.235008 0.210314 -0.307059
v 0.230206 0.22279 -0.305657
v 0.222772 0.238815 -0.304092
v 0.227418 0.255487 -0.29152
v 0.220216 0.265204 -0.292405
v 0.21557 0.278835 -0.288377
v 0.209452 0.296268 -0.282186
v 0.199888 0.300774 -0.287479
v 0.190207 0.306688 -0.291493
v 0.180372 0.3108 -0.296623
v 0.176461 0.321868 -0.292051
v 0.162406 0.336597 -0.292228
v 0.157565 0.346201 -0.288581
v 0.170266 0.343554 -0.280118
v 0.0489529 0.404386 -0.305725
v 0.0363298 0.409259 -0.307154
v 0.0214222 0.413906 -0.309249
v 0.00728904 0.408864 -0.317739
v -0.00719264 0.416919 -0.316392
v -0.0178797 0.419172 -0.318052
v -0.024772 0.436464 -0.30578
v 0.15168 0.340287 -0.297004
v 0.140683 0.344004 -0.301793
v 0.127131 0.350172 -0.306052
v 0.109319 0.355748 -0.312215
v 0.10595 0.365887 -0.307031
v 0.0993677 0.375575 -0.303439
v 0.109939 0.370365 -0.301262
v 0.0953407 0.385066 -0.298024
v 0.0825628 0.388643 -0.302296
v 0.0783035 0.397965 -0.296636
v 0.0652932 0.401373 -0.300596
v -0.0318967 0.421707 -0.319957
v -0.0507151 0.42427 -0.321862
v -0.0652355 0.415933 -0.330516
v -0.0797172 0.305928 -0.407554
v -0.0664359 0.297845 -0.409731
v -0.050173 0.412525 -0.329808
v 0.00260379 0.389685 -0.332393
v -0.0403766 0.291536 -0.407472
v 0.0239778 0.378842 -0.332747
v 0.0363298 0.373801 -0.331781
v 0.0505405 0.369126 -0.329509
v 0.0111224 0.262584 -0.407241
v 0.0205704 0.253291 -0.408588
v 0.0937145 0.340146 -0.329182
v 0.0982061 0.33088 -0.33223
v 0.108738 0.326177 -0.32989
v 0.11354 0.316883 -0.332529
v 0.123452 0.311983 -0.330352
v 0.128409 0.302548 -0.332665
v 0.137818 0.297563 -0.330298
v 0.14622 0.284129 -0.332421
v 0.166588 0.282327 -0.322379
v 0.176849 0.272751 -0.320882
v 0.181224 0.253798 -0.326407
v 0.191601 0.251235 -0.321114
v 0.19617 0.239209 -0.323277
v 0.205851 0.229549 -0.320937
v 0.201282 0.24394 -0.317889
v 0.210923 0.240392 -0.312419
v 0.212162 0.252023 -0.305984
v 0.210884 0.269315 -0.297902
v 0.205347 0.286974 -0.29201
v 0.195357 0.296493 -0.29401
v 0.176113 0.301281 -0.306079
v 0.169995 0.314884 -0.301725
v 0.18649 0.293423 -0.30299
v 0.1662 0.325755 -0.296976
v 0.160315 0.319897 -0.305127
v 0.155436 0.329585 -0.301888
v 0.0691266 0.39298 -0.305698
v 0.0508115 0.384897 -0.319454
v 0.0364847 0.394614 -0.317944
v 0.0217707 0.399655 -0.319644
v -0.00719264 0.409653 -0.321549
v 0.145756 0.334373 -0.305113
v 0.136617 0.339864 -0.307167
v 0.123104 0.34054 -0.314528
v 0.110442 0.34285 -0.319848
v 0.098632 0.350848 -0.320855
v 0.0904619 0.361015 -0.31808
v 0.0944114 0.370365 -0.309712
v 0.0896875 0.378955 -0.305997
v 0.0785358 0.383996 -0.307821
v 0.0652545 0.376984 -0.318882
v 0.076987 0.365718 -0.321059
v 0.0666097 0.355692 -0.331237
v 0.0760189 0.346595 -0.332815
v 0.0810139 0.35665 -0.324883
v 0.118147 0.335555 -0.320202
v 0.123104 0.326402 -0.322883
v 0.147575 0.307308 -0.320488
v 0.15652 0.297986 -0.320257
v 0.171273 0.286833 -0.317345
v 0.181611 0.283313 -0.31212
v 0.187032 0.26464 -0.31808
v 0.19617 0.255178 -0.316243
v 0.201824 0.267372 -0.306242
v 0.196248 0.283904 -0.30114
v 0.191795 0.27982 -0.306909
v 0.165774 0.3108 -0.307263
v 0.152338 0.312039 -0.315018
v 0.151254 0.325417 -0.307426
v 0.137353 0.322234 -0.317739
v 0.127828 0.331275 -0.317699
v 0.0810139 0.370252 -0.316311
f 1 2 3
f 1 3 4
f 1 4 5
f 1 5 6
f 1 6 2
f 2 6 7
f 2 7 8
f 2 8 9
f 2 9 3
f 3 9 10
f 3 10 11
f 3 11 12
f 3 12 4
f 4 13 5
f 4 12 13
f 5 14 19
f 5 19 6
f 5 13 15
f 5 15 16
f 5 16 17
f 5 17 18
f 5 18 14
f 6 19 20
f 6 20 21
f 6 21 7
f 7 22 23
f 7 23 24
f 7 24 25
f 7 25 26
f 7 26 8
f 7 21 27
f 7 27 28
f 7 28 29
f 7 29 30
f 7 30 22
f 8 26 31
f 8 31 32
f 8 32 9
f 9 32 33
f 9 33 34
f 9 34 10
f 10 34 35
f 10 35 36
f 10 36 11
f 11 37 38
f 11 38 12
f 11 36 39
f 11 39 37
f 12 38 15
f 12 15 13
f 14 18 46
f 14 46 87
f 14 87 47
f 14 47 20
f 14 20 19
f 15 38 16
f 16 40 17
f 16 38 41
f 16 41 40
f 17 40 42
f 17 42 43
f 17 43 44
f 17 44 18
f 18 45 46
f 18 44 45
f 20 47 48
f 20 48 49
f 20 49 21
f 21 49 50
f 21 50 51
f 21 51 52
f 21 52 53
f 21 53 27
f 22 30 23
f 23 30 54
f 23 54 55
f 23 55 56
f 23 56 57
f 23 57 58
f 23 58 59
f 23 59 24
f 24 59 25
f 25 59 26
f 26 60 31
f 26 59 61
f 26 61 60
f 27 53 62
f 27 62 63
f 27 63 64
f 27 64 65
f 27 65 28
f 28 66 67
f 28 67 68
f 28 68 29
f 28 65 69
f 28 69 66
f 29 68 70
f 29 70 54
f 29 54 30
f 31 71 35
f 31 35 33
f 31 33 32
f 31 60 72
f 31 72 71
f 33 35 34
f 35 73 36
f 35 71 73
f 36 73 39
f 37 74 38
f 37 39 73
f 37 73 74
f 38 74 41
f 40 41 75
f 40 75 42
f 41 74 76
f 41 76 75
f 42 75 77
f 42 77 78
f 42 78 43
f 43 78 44
f 44 78 79
f 44 79 80
f 44 80 81
f 44 81 45
f 45 82 46
f 45 81 83
f 45 83 82
f 46 82 84
f 46 84 85
f 46 85 86
f 46 86 87
f 47 87 88
f 47 88 89
f 47 89 90
f 47 90 91
f 47 91 48
f 48 91 92
f 48 92 49
f 49 92 93
f 49 93 50
f 50 93 94
f 50 94 95
f 50 95 96
f 50 96 51
f 51 96 52
f 52 96 97
f 52 97 98
f 52 98 53
f 53 98 99
f 53 99 100
f 53 100 101
f 53 101 102
f 53 102 62
f 54 70 55
f 55 70 103
f 55 103 104
f 55 104 56
f 56 104 105
f 56 105 57
f 57 106 107
f 57 107 58
f 57 105 106
f 58 107 59
f 59 107 61
f 60 108 72
f 60 61 108
f 61 107 109
f 61 109 108
f 62 110 111
f 62 111 112
f 62 112 63
f 62 102 110
f 63 112 113
f 63 113 114
f 63 114 115
f 63 115 116
f 63 116 117
f 63 117 64
f 64 117 118
f 64 118 65
f 65 118 69
f 66 69 67
f 67 69 119
f 67 119 120
f 67 120 68
f 68 120 121
f 68 121 70
f 69 118 119
f 70 121 103
f 71 72 108
f 71 108 122
f 71 122 123
f 71 123 124
f 71 124 73
f 73 124 125
f 73 125 126
f 73 126 74
f 74 126 76
f 75 76 127
f 75 127 77
f 76 126 128
f 76 128 127
f 77 127 129
f 77 129 78
f 78 129 130
f 78 130 79
f 79 131 132
f 79 132 80
f 79 130 131
f 80 132 133
f 80 133 134
f 80 134 135
f 80 135 136
f 80 136 81
f 81 136 83
f 82 83 136
f 82 136 137
f 82 137 138
f 82 138 139
f 82 139 84
f 84 139 85
f 85 139 140
f 85 140 141
f 85 141 142
f 85 142 143
f 85 143 144
f 85 144 145
f 85 145 146
f 85 146 86
f 86 146 147
f 86 147 87
f 87 147 148
f 87 148 149
f 87 149 150
f 87 150 88
f 88 150 89
f 89 93 90
f 89 150 151
f 89 151 94
f 89 94 93
f 90 93 91
f 91 93 92
f 94 151 95
f 95 151 152
f 95 152 153
f 95 153 96
f 96 153 154
f 96 154 97
f 97 154 155
f 97 155 98
f 98 155 156
f 98 156 99
f 99 157 100
f 99 156 157
f 100 158 159
f 100 159 160
f 100 160 101
f 100 157 158
f 101 160 161
f 101 161 162
f 101 162 163
f 101 163 102
f 102 163 110
f 103 121 164
f 103 164 165
f 103 165 104
f 104 166 105
f 104 165 166
f 105 166 167
f 105 167 168
f 105 168 169
f 105 169 106
f 106 169 170
f 106 170 109
f 106 109 107
f 108 109 170
f 108 170 122
f 110 163 162
f 110 162 111
f 111 162 112
f 112 162 113
f 113 171 172
f 113 172 114
f 113 162 161
f 113 161 171
f 114 172 173
f 114 173 115
f 115 173 174
f 115 174 175
f 115 175 176
f 115 176 177
f 115 177 116
f 116 177 117
f 117 177 176
f 117 176 118
f 118 176 178
f 118 178 119
f 119 179 180
f 119 180 120
f 119 178 179
f 120 180 181
f 120 181 121
f 121 181 164
f 122 170 123
f 123 170 182
f 123 182 124
f 124 182 183
f 124 183 125
f 125 183 126
f 126 183 184
f 126 184 128
f 127 128 129
f 128 184 129
f 129 185 131
f 129 131 186
f 129 186 130
f 129 184 187
f 129 187 182
f 129 182 185
f 130 186 131
f 131 185 182
f 131 182 188
f 131 188 189
f 131 189 133
f 131 133 132
f 133 189 190
f 133 190 191
f 133 191 134
f 134 191 192
f 134 192 193
f 134 193 194
f 134 194 135
f 135 194 137
f 135 137 136
f 137 194 195
f 137 195 196
f 137 196 138
f 138 196 197
f 138 197 198
f 138 198 199
f 138 199 200
f 138 200 201
f 138 201 139
f 139 201 202
f 139 202 140
f 140 202 203
f 140 203 141
f 141 203 204
f 141 204 142
f 142 204 205
f 142 205 143
f 143 205 144
f 144 205 206
f 144 206 207
f 144 207 145
f 145 207 208
f 145 208 147
f 145 147 146
f 147 208 148
f 148 208 209
f 148 209 210
f 148 210 152
f 148 152 151
f 148 151 149
f 149 151 150
f 152 210 211
f 152 211 153
f 153 211 154
f 154 211 212
f 154 212 155
f 155 212 213
f 155 213 156
f 156 213 157
f 157 213 214
f 157 214 158
f 158 214 159
f 159 215 216
f 159 216 160
f 159 214 217
f 159 217 215
f 160 216 218
f 160 218 161
f 161 218 219
f 161 219 220
f 161 220 171
f 164 181 221
f 164 221 222
f 164 222 165
f 165 222 223
f 165 223 166
f 166 223 224
f 166 224 167
f 167 188 225
f 167 225 169
f 167 169 168
f 167 224 188
f 169 225 188
f 169 188 182
f 169 182 170
f 171 226 172
f 171 220 226
f 172 227 173
f 172 226 227
f 173 228 174
f 173 227 228
f 174 228 229
f 174 229 230
f 174 230 231
f 174 231 175
f 175 231 232
f 175 232 233
f 175 233 176
f 176 233 179
f 176 179 178
f 179 233 234
f 179 234 221
f 179 221 180
f 180 221 181
f 182 187 184
f 182 184 183
f 188 224 190
f 188 190 189
f 190 224 223
f 190 223 222
f 190 222 191
f 191 222 192
f 192 222 235
f 192 235 236
f 192 236 237
f 192 237 193
f 193 237 238
f 193 238 195
f 193 195 194
f 195 239 230
f 195 230 229
f 195 229 196
f 195 238 239
f 196 229 197
f 197 229 240
f 197 240 241
f 197 241 198
f 198 241 199
f 199 241 242
f 199 242 200
f 200 242 201
f 201 242 202
f 202 242 243
f 202 243 203
f 203 243 244
f 203 244 204
f 204 244 245
f 204 245 246
f 204 246 206
f 204 206 205
f 206 247 209
f 206 209 207
f 206 246 247
f 207 209 208
f 209 248 211
f 209 211 210
f 209 247 248
f 211 248 212
f 212 248 249
f 212 249 213
f 213 249 217
f 213 217 214
f 215 217 250
f 215 250 245
f 215 245 244
f 215 244 251
f 215 251 216
f 216 251 219
f 216 219 218
f 217 249 250
f 219 252 253
f 219 253 226
f 219 226 220
f 219 251 252
f 221 235 222
f 221 234 235
f 226 253 227
f 227 253 254
f 227 254 255
f 227 255 228
f 228 255 229
f 229 255 240
f 230 239 236
f 230 236 231
f 231 256 232
f 231 236 256
f 232 256 233
f 233 256 234
f 234 256 235
f 235 256 236
f 236 239 237
f 237 239 238
f 240 255 241
f 241 255 254
f 241 254 242
f 242 254 252
f 242 252 243
f 243 252 244
f 244 252 251
f 245 250 246
f 246 250 248
f 246 248 247
f 248 250 249
f 252 254 253
