v -0.451952 -0.480046 0.188731
v -0.459346 -0.475788 0.188509
v -0.456702 -0.477385 0.163225
v -0.455719 -0.477917 0.130547
v -0.451952 -0.479966 0.108805
v -0.451952 -0.411018 0.375902
v -0.453169 -0.474777 0.359297
v -0.454245 -0.4764 0.304434
v -0.454924 -0.476959 0.276449
v -0.455439 -0.477571 0.246649
v -0.457404 -0.4768 0.214856
v -0.48024 -0.462457 0.217512
v -0.480264 -0.462536 0.19214
v -0.477409 -0.464346 0.159594
v -0.459229 -0.475629 0.108805
v -0.451952 -0.47962 0.0798019
v -0.451952 -0.403567 0.352743
v -0.620206 -0.20822 0.346101
v -0.629846 -0.20822 0.37692
v -0.452561 -0.428688 0.404817
v -0.460843 -0.465064 0.393658
v -0.487681 -0.450774 0.384271
v -0.470998 -0.463814 0.362529
v -0.454409 -0.475363 0.332153
v -0.479608 -0.461259 0.297305
v -0.479866 -0.461711 0.275519
v -0.477245 -0.464053 0.246516
v -0.501626 -0.447767 0.217512
v -0.500082 -0.449284 0.188509
v -0.500035 -0.449258 0.159594
v -0.480193 -0.462377 0.137809
v -0.477924 -0.463627 0.108805
v -0.465593 -0.471265 0.076171
v -0.455298 -0.477332 0.0584147
v -0.453286 -0.476773 0.00558879
v -0.451952 -0.388453 -0.0405066
v -0.451952 -0.397341 0.331578
v -0.612882 -0.20822 0.317851
v -0.690118 -0.20822 0.326308
v -0.646856 -0.208486 0.403577
v -0.645382 -0.239327 0.411104
v -0.496806 -0.422195 0.411503
v -0.479562 -0.447927 0.405126
v -0.506282 -0.437443 0.385289
v -0.494934 -0.447714 0.361954
v -0.479141 -0.459982 0.337157
v -0.492267 -0.452025 0.319046
v -0.498935 -0.448433 0.290043
v -0.516647 -0.436458 0.20662
v -0.510377 -0.44029 0.264671
v -0.515501 -0.43691 0.235667
v -0.516811 -0.436591 0.181336
v -0.516881 -0.436618 0.159594
v -0.509955 -0.441408 0.112436
v -0.496127 -0.451653 0.123329
v -0.492196 -0.453755 0.0779865
v -0.479725 -0.461498 0.043581
v -0.455626 -0.476161 0.0263561
v -0.470904 -0.46376 -0.0393996
v -0.45469 -0.474272 -0.0307207
v -0.489389 -0.451147 -0.0405066
v -0.60488 -0.20822 -0.0405066
v -0.451952 -0.380922 0.159594
v -0.451952 -0.39122 0.306648
v -0.60708 -0.20822 0.29022
v -0.688387 -0.20822 0.038533
v -0.690586 -0.209284 0.153661
v -0.690961 -0.209284 0.232036
v -0.69075 -0.209284 0.253778
v -0.678817 -0.234936 0.311784
v -0.679332 -0.232967 0.333526
v -0.689229 -0.209018 0.348847
v -0.676922 -0.208885 0.404285
v -0.630875 -0.268359 0.411281
v -0.594632 -0.319106 0.411857
v -0.589999 -0.347472 0.406366
v -0.559886 -0.379352 0.406145
v -0.533961 -0.405404 0.405924
v -0.518191 -0.419959 0.404728
v -0.544631 -0.406628 0.384271
v -0.527363 -0.421902 0.377053
v -0.513793 -0.434143 0.362529
v -0.518121 -0.431908 0.340788
v -0.515033 -0.435154 0.319046
v -0.515688 -0.43566 0.290043
v -0.536395 -0.420359 0.246516
v -0.532136 -0.4227 0.297305
v -0.533072 -0.423685 0.174074
v -0.53691 -0.420811 0.152332
v -0.520414 -0.433744 0.137809
v -0.516413 -0.436245 0.0906505
v -0.50558 -0.44359 0.043581
v -0.498163 -0.447927 0.0145776
v -0.49353 -0.449843 -0.0119903
v -0.511687 -0.435021 -0.0383369
v -0.529843 -0.420412 -0.0383369
v -0.594538 -0.355881 -0.0383369
v -0.608062 -0.339516 -0.0383369
v -0.637614 -0.298163 -0.0383369
v -0.668031 -0.245581 -0.0383369
v -0.500971 -0.444761 -0.0072081
v -0.681087 -0.21732 -0.0383369
v -0.598726 -0.20822 0.174074
v -0.451952 -0.38039 0.188509
v -0.451952 -0.384594 0.269364
v -0.602821 -0.20822 0.259844
v -0.683146 -0.215617 -0.0146914
v -0.683403 -0.217453 0.0113009
v -0.689299 -0.208752 0.07254
v -0.690352 -0.209284 0.130547
v -0.679847 -0.233287 0.130547
v -0.689042 -0.213462 0.190502
v -0.680081 -0.2335 0.246516
v -0.680151 -0.233074 0.275519
v -0.665293 -0.262452 0.26104
v -0.66892 -0.25391 0.321305
v -0.663351 -0.261254 0.362529
v -0.677717 -0.232887 0.362529
v -0.68455 -0.214207 0.377939
v -0.664451 -0.235655 0.40278
v -0.650412 -0.260962 0.404329
v -0.616392 -0.297365 0.411016
v -0.579821 -0.365142 0.402071
v -0.636654 -0.28994 0.40185
v -0.608086 -0.332544 0.397466
v -0.581506 -0.371422 0.377053
v -0.565759 -0.388 0.375238
v -0.545871 -0.407692 0.362529
v -0.530194 -0.421263 0.355267
v -0.534804 -0.419055 0.326308
v -0.552516 -0.405936 0.228405
v -0.552048 -0.406867 0.181336
v -0.538243 -0.41815 0.271932
v -0.554996 -0.402929 0.282781
v -0.557453 -0.400161 0.306869
v -0.558342 -0.398325 0.332463
v -0.545871 -0.412588 0.134178
v -0.545988 -0.41187 0.0834329
v -0.533751 -0.422887 0.105351
v -0.563255 -0.396675 0.181336
v -0.562413 -0.397447 0.159594
v -0.516132 -0.436032 0.0653224
v -0.520438 -0.429406 -0.01447
v -0.541449 -0.414079 0.0287029
v -0.541215 -0.412349 -0.0072081
v -0.55172 -0.401226 -0.0352373
v -0.57355 -0.379831 -0.0305436
v -0.594 -0.358276 -0.01447
v -0.623084 -0.319984 -0.032979
v -0.611408 -0.337281 -0.0108391
v -0.633917 -0.30604 -0.0108391
v -0.638386 -0.303538 0.0430939
v -0.645756 -0.288663 5.37927e-05
v -0.652284 -0.274852 -0.0350602
v -0.668686 -0.246885 -0.01447
v -0.599171 -0.20822 0.203476
v -0.451952 -0.380975 0.216361
v -0.451952 -0.381747 0.237881
v -0.600318 -0.20822 0.231505
v -0.67023 -0.246326 0.0145776
v -0.677343 -0.233845 0.0472119
v -0.680057 -0.231184 0.0942815
v -0.689884 -0.209284 0.101543
v -0.670066 -0.252446 0.108805
v -0.666814 -0.260456 0.181336
v -0.679987 -0.233366 0.155963
v -0.677249 -0.239327 0.195771
v -0.668592 -0.256731 0.217512
v -0.655115 -0.279509 0.282781
v -0.664521 -0.26317 0.290043
v -0.658812 -0.274187 0.232036
v -0.652401 -0.282463 0.333526
v -0.652003 -0.281824 0.355267
v -0.651301 -0.279349 0.376743
v -0.59517 -0.355935 0.377053
v -0.639041 -0.298775 0.377053
v -0.624347 -0.312586 0.394854
v -0.596363 -0.357345 0.348005
v -0.579143 -0.376025 0.355267
v -0.566789 -0.392657 0.239254
v -0.576943 -0.381108 0.311784
v -0.571772 -0.386803 0.290043
v -0.567116 -0.392976 0.137809
v -0.565525 -0.391433 0.0267989
v -0.540045 -0.41634 0.0575734
v -0.566695 -0.392604 0.108805
v -0.574323 -0.385499 0.195771
v -0.563162 -0.392604 5.37927e-05
v -0.581576 -0.373444 0.00368475
v -0.58773 -0.368415 0.0315368
v -0.609489 -0.341299 0.0145776
v -0.625096 -0.321101 0.0199798
v -0.625774 -0.322006 0.0508429
v -0.639626 -0.303086 0.07254
v -0.65198 -0.281718 0.0508429
v -0.652799 -0.278684 0.0236107
v -0.663468 -0.261387 0.043581
v -0.669575 -0.251355 0.0653224
v -0.675612 -0.239327 0.07254
v -0.665223 -0.262452 0.130547
v -0.664591 -0.264421 0.159594
v -0.662322 -0.268359 0.181336
v -0.653197 -0.281957 0.308198
v -0.655302 -0.279775 0.253778
v -0.647768 -0.292362 0.217512
v -0.638971 -0.30588 0.232036
v -0.65322 -0.28382 0.199402
v -0.639953 -0.302128 0.332729
v -0.636023 -0.306093 0.355267
v -0.622709 -0.32339 0.36616
v -0.609232 -0.341033 0.362529
v -0.610238 -0.34223 0.333526
v -0.588151 -0.368202 0.326795
v -0.573784 -0.3851 0.268302
v -0.582722 -0.375919 0.26104
v -0.58298 -0.376212 0.130547
v -0.581014 -0.377968 0.101543
v -0.577832 -0.381933 0.174074
v -0.587566 -0.369985 0.0653667
v -0.581202 -0.378261 0.195771
v -0.594842 -0.362827 0.101543
v -0.61073 -0.342869 0.0798019
v -0.612929 -0.338425 0.043581
v -0.624253 -0.325439 0.0834329
v -0.628839 -0.319824 0.116067
v -0.6389 -0.30572 0.137809
v -0.644516 -0.297365 0.152332
v -0.653103 -0.283581 0.145071
v -0.655115 -0.279695 0.123329
v -0.655957 -0.276236 0.076171
v -0.657642 -0.274533 0.101543
v -0.641919 -0.301676 0.195771
v -0.634081 -0.313145 0.232036
v -0.63401 -0.312905 0.26104
v -0.648962 -0.290579 0.174074
v -0.623154 -0.325758 0.333526
v -0.633566 -0.312213 0.306382
v -0.615737 -0.336269 0.311784
v -0.602072 -0.353699 0.280788
v -0.598937 -0.358037 0.246516
v -0.596574 -0.360937 0.224774
v -0.591754 -0.366605 0.181336
v -0.598282 -0.359154 0.202989
v -0.606401 -0.349442 0.184967
v -0.608273 -0.34702 0.145071
v -0.614146 -0.339755 0.123329
v -0.61101 -0.343215 0.101543
v -0.62533 -0.325146 0.143255
v -0.635227 -0.311362 0.174074
v -0.631694 -0.316498 0.210251
v -0.621305 -0.330575 0.217512
v -0.624019 -0.326237 0.282781
v -0.611034 -0.343295 0.26104
v -0.609817 -0.345344 0.217512
v -0.614146 -0.339862 0.152332
v -0.619012 -0.333369 0.242885
f 1 2 3
f 1 3 4
f 1 4 5
f 1 5 16
f 1 16 36
f 1 36 63
f 1 63 104
f 1 104 157
f 1 157 158
f 1 158 105
f 1 105 64
f 1 64 37
f 1 37 17
f 1 17 6
f 1 6 7
f 1 7 8
f 1 8 9
f 1 9 10
f 1 10 11
f 1 11 2
f 2 11 12
f 2 12 13
f 2 13 14
f 2 14 4
f 2 4 3
f 4 15 5
f 4 14 15
f 5 15 16
f 6 17 18
f 6 18 19
f 6 19 20
f 6 20 7
f 7 20 21
f 7 21 22
f 7 22 23
f 7 23 24
f 7 24 8
f 8 24 9
f 9 24 25
f 9 25 10
f 10 25 26
f 10 26 27
f 10 27 11
f 11 27 12
f 12 27 28
f 12 28 29
f 12 29 13
f 13 29 30
f 13 30 14
f 14 30 31
f 14 31 32
f 14 32 15
f 15 32 33
f 15 33 34
f 15 34 16
f 16 34 35
f 16 35 36
f 17 37 38
f 17 38 18
f 18 38 65
f 18 65 106
f 18 106 159
f 18 159 156
f 18 156 103
f 18 103 62
f 18 62 66
f 18 66 39
f 18 39 19
f 19 39 40
f 19 40 20
f 20 40 41
f 20 41 42
f 20 42 43
f 20 43 21
f 21 43 22
f 22 43 44
f 22 44 45
f 22 45 23
f 23 45 46
f 23 46 24
f 24 46 25
f 25 47 48
f 25 48 26
f 25 46 47
f 26 48 27
f 27 48 28
f 28 49 29
f 28 48 50
f 28 50 51
f 28 51 49
f 29 52 53
f 29 53 30
f 29 49 52
f 30 53 54
f 30 54 55
f 30 55 31
f 31 55 32
f 32 55 56
f 32 56 57
f 32 57 33
f 33 57 34
f 34 57 58
f 34 58 35
f 35 59 60
f 35 60 36
f 35 58 59
f 36 59 61
f 36 61 62
f 36 62 63
f 36 60 59
f 37 64 38
f 38 64 65
f 39 66 67
f 39 67 68
f 39 68 69
f 39 69 70
f 39 70 71
f 39 71 72
f 39 72 73
f 39 73 40
f 40 73 41
f 41 73 74
f 41 74 75
f 41 75 42
f 42 75 76
f 42 76 77
f 42 77 78
f 42 78 79
f 42 79 43
f 43 79 44
f 44 80 81
f 44 81 82
f 44 82 45
f 44 79 80
f 45 82 47
f 45 47 46
f 47 82 48
f 48 82 83
f 48 83 84
f 48 84 85
f 48 85 50
f 49 51 86
f 49 86 52
f 50 85 51
f 51 85 87
f 51 87 86
f 52 88 89
f 52 89 53
f 52 86 88
f 53 89 90
f 53 90 54
f 54 90 91
f 54 91 92
f 54 92 55
f 55 92 56
f 56 92 57
f 57 92 93
f 57 93 59
f 57 59 58
f 59 93 94
f 59 94 61
f 61 95 96
f 61 96 97
f 61 97 98
f 61 98 99
f 61 99 100
f 61 100 62
f 61 94 101
f 61 101 95
f 62 100 102
f 62 102 66
f 62 103 63
f 63 103 104
f 64 105 65
f 65 105 106
f 66 102 107
f 66 107 108
f 66 108 109
f 66 109 67
f 67 109 110
f 67 110 111
f 67 111 112
f 67 112 68
f 68 113 114
f 68 114 69
f 68 112 113
f 69 114 70
f 70 114 115
f 70 115 116
f 70 116 71
f 71 116 117
f 71 117 118
f 71 118 72
f 72 118 119
f 72 119 73
f 73 119 120
f 73 120 121
f 73 121 74
f 74 121 122
f 74 122 75
f 75 122 76
f 76 123 77
f 76 122 124
f 76 124 125
f 76 125 123
f 77 123 78
f 78 123 80
f 78 80 79
f 80 126 127
f 80 127 128
f 80 128 81
f 80 123 126
f 81 128 129
f 81 129 82
f 82 129 83
f 83 130 87
f 83 87 84
f 83 129 130
f 84 87 85
f 86 131 132
f 86 132 89
f 86 89 88
f 86 87 133
f 86 133 134
f 86 134 131
f 87 135 133
f 87 130 136
f 87 136 135
f 89 137 138
f 89 138 139
f 89 139 90
f 89 132 140
f 89 140 141
f 89 141 137
f 90 139 91
f 91 142 92
f 91 139 142
f 92 142 143
f 92 143 101
f 92 101 93
f 93 101 94
f 95 101 143
f 95 143 96
f 96 143 144
f 96 144 145
f 96 145 146
f 96 146 97
f 97 146 147
f 97 147 148
f 97 148 98
f 98 149 99
f 98 148 150
f 98 150 149
f 99 149 151
f 99 151 152
f 99 152 153
f 99 153 154
f 99 154 100
f 100 154 155
f 100 155 107
f 100 107 102
f 103 156 104
f 104 156 157
f 105 158 159
f 105 159 106
f 107 155 160
f 107 160 108
f 108 160 161
f 108 161 109
f 109 161 162
f 109 162 163
f 109 163 110
f 110 163 111
f 111 163 162
f 111 162 164
f 111 164 165
f 111 165 166
f 111 166 112
f 112 166 113
f 113 166 167
f 113 167 165
f 113 165 168
f 113 168 114
f 114 168 115
f 115 169 170
f 115 170 116
f 115 168 165
f 115 165 171
f 115 171 169
f 116 172 117
f 116 170 172
f 117 172 173
f 117 173 174
f 117 174 119
f 117 119 118
f 119 174 120
f 120 174 124
f 120 124 121
f 121 124 122
f 123 125 175
f 123 175 126
f 124 174 176
f 124 176 177
f 124 177 125
f 125 177 175
f 126 175 178
f 126 178 179
f 126 179 127
f 127 179 136
f 127 136 128
f 128 136 130
f 128 130 129
f 131 134 180
f 131 180 140
f 131 140 132
f 133 135 134
f 134 135 180
f 135 181 182
f 135 182 180
f 135 136 181
f 136 179 181
f 137 141 183
f 137 183 138
f 138 184 144
f 138 144 185
f 138 185 139
f 138 183 186
f 138 186 184
f 139 185 142
f 140 180 187
f 140 187 183
f 140 183 141
f 142 185 144
f 142 144 143
f 144 184 188
f 144 188 146
f 144 146 145
f 146 188 147
f 147 188 189
f 147 189 148
f 148 189 190
f 148 190 191
f 148 191 150
f 149 150 192
f 149 192 151
f 150 191 192
f 151 192 152
f 152 193 194
f 152 194 195
f 152 195 196
f 152 196 153
f 152 192 193
f 153 196 154
f 154 196 197
f 154 197 155
f 155 197 160
f 156 159 158
f 156 158 157
f 160 197 198
f 160 198 199
f 160 199 161
f 161 199 162
f 162 199 164
f 164 200 201
f 164 201 165
f 164 199 198
f 164 198 200
f 165 167 166
f 165 201 202
f 165 202 171
f 169 203 170
f 169 171 204
f 169 204 205
f 169 205 206
f 169 206 203
f 170 203 172
f 171 207 204
f 171 202 207
f 172 203 208
f 172 208 173
f 173 208 209
f 173 209 176
f 173 176 174
f 175 177 210
f 175 210 211
f 175 211 178
f 176 209 210
f 176 210 177
f 178 211 212
f 178 212 213
f 178 213 179
f 179 213 181
f 180 182 214
f 180 214 187
f 181 215 214
f 181 214 182
f 181 213 215
f 183 216 217
f 183 217 186
f 183 187 218
f 183 218 216
f 184 186 217
f 184 217 219
f 184 219 190
f 184 190 188
f 187 220 218
f 187 214 215
f 187 215 220
f 188 190 189
f 190 219 221
f 190 221 222
f 190 222 191
f 191 222 223
f 191 223 193
f 191 193 192
f 193 223 224
f 193 224 194
f 194 224 225
f 194 225 226
f 194 226 227
f 194 227 228
f 194 228 229
f 194 229 195
f 195 197 196
f 195 229 230
f 195 230 197
f 197 230 231
f 197 231 200
f 197 200 198
f 200 231 229
f 200 229 201
f 201 229 228
f 201 228 207
f 201 207 202
f 203 206 208
f 204 207 205
f 205 207 232
f 205 232 206
f 206 233 234
f 206 234 208
f 206 232 233
f 207 228 235
f 207 235 232
f 208 236 209
f 208 234 237
f 208 237 236
f 209 236 210
f 210 236 211
f 211 236 212
f 212 236 238
f 212 238 239
f 212 239 213
f 213 239 215
f 215 239 240
f 215 240 241
f 215 241 220
f 216 221 217
f 216 218 220
f 216 220 242
f 216 242 221
f 217 221 219
f 220 241 242
f 221 242 243
f 221 243 244
f 221 244 245
f 221 245 246
f 221 246 247
f 221 247 222
f 222 224 223
f 222 247 224
f 224 247 246
f 224 246 248
f 224 248 225
f 225 248 226
f 226 248 249
f 226 249 232
f 226 232 227
f 227 232 235
f 227 235 228
f 229 231 230
f 232 249 233
f 233 249 250
f 233 250 251
f 233 251 252
f 233 252 234
f 234 252 237
f 236 237 252
f 236 252 238
f 238 252 253
f 238 253 239
f 239 253 240
f 240 254 243
f 240 243 241
f 240 253 254
f 241 243 242
f 243 254 244
f 244 255 245
f 244 254 255
f 245 255 246
f 246 255 248
f 248 255 251
f 248 251 250
f 248 250 249
f 251 254 256
f 251 256 252
f 251 255 254
f 252 256 253
f 253 256 254
