v -0.125331 0.509142 0.41409
v -0.131576 0.542594 0.401477
v -0.131576 0.53194 0.414981
v -0.152296 0.529384 0.417747
v -0.28281 0.514869 0.417044
v -0.311342 0.495664 0.411698
v -0.311342 0.484424 0.398944
v -0.125331 0.493519 0.391442
v -0.125331 0.548928 0.334565
v -0.131576 0.546208 0.384784
v -0.166808 0.546064 0.398804
v -0.152296 0.542872 0.404712
v -0.166808 0.534947 0.414277
v -0.20306 0.529384 0.417419
v -0.304332 0.514869 0.415872
v -0.311342 0.52807 0.404102
v -0.311342 0.478686 0.384502
v -0.311342 0.472548 0.362793
v -0.125331 0.487616 0.369779
v -0.12615 0.551391 0.282799
v -0.127188 0.550478 0.305259
v -0.131576 0.548476 0.35529
v -0.131576 0.547655 0.370295
v -0.125331 0.553598 0.197788
v -0.152296 0.54785 0.384268
v -0.224782 0.544422 0.398804
v -0.20306 0.543138 0.404618
v -0.18132 0.543446 0.404759
v -0.174073 0.548486 0.384268
v -0.195813 0.548702 0.384268
v -0.224782 0.534496 0.413246
v -0.239275 0.534126 0.412355
v -0.28281 0.528378 0.411652
v -0.297304 0.526889 0.410808
v -0.268626 0.537472 0.404899
v -0.285942 0.538016 0.388441
v -0.311342 0.533377 0.383893
v -0.311342 0.467118 0.340848
v -0.125331 0.483819 0.354259
v -0.131576 0.552674 0.261277
v -0.137803 0.552428 0.282799
v -0.140953 0.550909 0.320733
v -0.152296 0.5498 0.35529
v -0.152296 0.548969 0.369779
v -0.125331 0.554953 0.108839
v -0.131576 0.555261 0.1456
v -0.131576 0.55484 0.167873
v -0.134689 0.553752 0.23047
v -0.210307 0.547963 0.384268
v -0.224782 0.546803 0.384268
v -0.239275 0.545581 0.384268
v -0.239275 0.543056 0.398804
v -0.174073 0.549482 0.369779
v -0.18132 0.550858 0.34882
v -0.195813 0.549595 0.369779
v -0.253787 0.533715 0.411183
v -0.253787 0.541363 0.398804
v -0.268317 0.54164 0.384268
v -0.28281 0.540172 0.369779
v -0.298924 0.536969 0.369779
v -0.298341 0.537914 0.354634
v -0.311342 0.534157 0.369123
v -0.311342 0.462529 0.319654
v -0.125331 0.479107 0.331892
v -0.152296 0.55444 0.246507
v -0.152296 0.552274 0.304509
v -0.152296 0.553496 0.275531
v -0.166808 0.550211 0.35529
v -0.160344 0.551237 0.332643
v -0.131576 0.555497 0.0808458
v -0.137803 0.556021 0.0943031
v -0.131576 0.555456 0.123844
v -0.125331 0.478974 -0.0612764
v -0.132359 0.552572 -0.0557434
v -0.131576 0.553773 -0.0289695
v -0.131576 0.554481 -0.00669699
v -0.131576 0.555076 0.0148253
v -0.131576 0.555405 0.0368165
v -0.152296 0.556719 0.145084
v -0.152296 0.556257 0.174062
v -0.137803 0.555117 0.181236
v -0.152296 0.555744 0.195725
v -0.210307 0.548835 0.369779
v -0.224782 0.547727 0.369779
v -0.253787 0.543857 0.384268
v -0.239275 0.546865 0.362558
v -0.253787 0.544812 0.369779
v -0.195813 0.550375 0.35529
v -0.18132 0.552059 0.326313
v -0.268317 0.542985 0.362558
v -0.28281 0.540983 0.35529
v -0.305952 0.536138 0.354915
v -0.28281 0.542081 0.333534
v -0.297304 0.540275 0.304509
v -0.302602 0.537862 0.334143
v -0.309721 0.537164 0.310417
v -0.310832 0.53777 0.288707
v -0.311342 0.53854 0.260386
v -0.311342 0.457879 0.290255
v -0.125331 0.475391 0.310745
v -0.166808 0.553239 0.29002
v -0.166808 0.556144 0.195725
v -0.174073 0.552572 0.311777
v -0.134689 0.555713 0.0567446
v -0.152296 0.556637 0.0870821
v -0.152296 0.55675 0.123328
v -0.311342 0.45869 -0.0612764
v -0.183286 0.552859 -0.0612764
v -0.125331 0.469078 0.174062
v -0.152296 0.553629 -0.0559779
v -0.152296 0.555446 -0.0144806
v -0.152296 0.555898 0.007323
v -0.152296 0.556216 0.0290797
v -0.152296 0.556472 0.0580575
v -0.174073 0.557088 0.145084
v -0.166808 0.557211 0.11606
v -0.174073 0.556626 0.174062
v -0.210307 0.549595 0.35529
v -0.224782 0.548497 0.35529
v -0.216552 0.55135 0.311589
v -0.224891 0.551145 0.297288
v -0.239275 0.548117 0.333534
v -0.253787 0.547696 0.304509
v -0.253787 0.546752 0.326313
v -0.268317 0.545787 0.304509
v -0.268317 0.54476 0.326313
v -0.195813 0.551124 0.340708
v -0.18132 0.553136 0.297288
v -0.195813 0.552787 0.304509
v -0.28281 0.543282 0.304509
v -0.28281 0.544309 0.275531
v -0.297304 0.541229 0.275531
v -0.297304 0.541917 0.246507
v -0.311342 0.53894 0.239239
v -0.125331 0.47262 0.289504
v -0.311342 0.454574 0.261136
v -0.18132 0.556031 0.195725
v -0.18132 0.555456 0.217529
v -0.311342 0.538581 0.0139813
v -0.30171 0.538263 -0.0533521
v -0.283793 0.54203 -0.0559779
v -0.311342 0.452573 0.181518
v -0.268317 0.544719 -0.0559779
v -0.253787 0.547142 -0.0559779
v -0.239275 0.549287 -0.0559779
v -0.216807 0.551669 -0.0559779
v -0.196796 0.552787 -0.0559779
v -0.195813 0.553988 -0.0361905
v -0.166808 0.553598 -0.0559779
v -0.311342 0.452439 0.203274
v -0.125331 0.46876 0.231502
v -0.159561 0.554789 -0.0361905
v -0.174073 0.555692 -0.0144806
v -0.166808 0.556318 0.014544
v -0.18132 0.557119 0.0580575
v -0.166808 0.55675 0.0507896
v -0.166808 0.556862 0.0652785
v -0.195813 0.555682 0.195725
v -0.18132 0.557253 0.11606
v -0.195813 0.556893 0.11606
v -0.18132 0.557304 0.0870821
v -0.202623 0.551443 0.327344
v -0.210307 0.552479 0.297288
v -0.227076 0.551679 0.276
v -0.253787 0.548825 0.275531
v -0.268317 0.546936 0.275531
v -0.195813 0.554543 0.246507
v -0.20306 0.553496 0.275531
v -0.268317 0.547655 0.246507
v -0.28281 0.544832 0.253728
v -0.297304 0.542574 0.210261
v -0.297304 0.542831 0.195725
v -0.297304 0.5432 0.174062
v -0.311342 0.539607 0.195256
v -0.125331 0.470618 0.26831
v -0.311342 0.453199 0.23952
v -0.195813 0.55523 0.217529
v -0.311342 0.539299 0.0503207
v -0.297304 0.542512 0.0290797
v -0.297304 0.541876 0.007323
v -0.304332 0.539648 -0.00721276
v -0.303695 0.53895 -0.0289695
v -0.28281 0.543221 -0.0361905
v -0.268317 0.545787 -0.0361905
v -0.253787 0.54863 -0.0289695
v -0.23232 0.551176 -0.0368938
v -0.210307 0.553301 -0.0361905
v -0.195813 0.555015 -0.0144806
v -0.311342 0.452644 0.22475
v -0.125331 0.469674 0.252743
v -0.18132 0.556298 0.007323
v -0.18132 0.556739 0.0290797
v -0.195813 0.556975 0.0580575
v -0.20306 0.555908 0.166841
v -0.210307 0.554378 0.22475
v -0.195813 0.557109 0.0870821
v -0.210307 0.556052 0.11606
v -0.20306 0.556195 0.145084
v -0.210307 0.553773 0.253728
v -0.224782 0.552808 0.239239
v -0.229807 0.551956 0.253728
v -0.253787 0.549441 0.253728
v -0.253787 0.550119 0.22475
v -0.256117 0.55097 0.172234
v -0.259359 0.550919 0.152352
v -0.268317 0.54822 0.217529
v -0.268317 0.54862 0.195725
v -0.28281 0.545212 0.232018
v -0.28281 0.545787 0.195725
v -0.28281 0.546105 0.174062
v -0.28281 0.546516 0.145084
v -0.304332 0.541989 0.145084
v -0.311342 0.540264 0.10837
v -0.311342 0.53969 0.0723119
v -0.28281 0.545664 0.0290797
v -0.297304 0.543005 0.0580575
v -0.28281 0.546197 0.0580575
v -0.28281 0.544966 0.007323
v -0.28281 0.544103 -0.0144806
v -0.268317 0.546711 -0.0144806
v -0.268317 0.547511 0.007323
v -0.24725 0.550375 -0.00721276
v -0.231792 0.551812 -0.0217016
v -0.210307 0.55404 -0.0144806
v -0.195813 0.556359 0.0290797
v -0.210307 0.556031 0.0580575
v -0.210307 0.556175 0.0870821
v -0.224782 0.554697 0.145084
v -0.224782 0.554389 0.166841
v -0.239275 0.553629 0.11606
v -0.224782 0.553773 0.195725
v -0.224782 0.553455 0.210261
v -0.239275 0.552952 0.166841
v -0.245521 0.551484 0.202806
v -0.245684 0.552551 0.152352
v -0.268317 0.548959 0.174062
v -0.239275 0.553506 0.137863
v -0.262527 0.550529 0.11606
v -0.262436 0.550488 0.137863
v -0.28281 0.546618 0.11606
v -0.304332 0.542081 0.123187
v -0.268317 0.548733 0.0580575
v -0.268317 0.548096 0.0290797
v -0.297304 0.54357 0.108839
v -0.28281 0.546403 0.0798142
v -0.255808 0.551432 0.0943031
v -0.251711 0.550272 0.012434
v -0.2437 0.552038 0.0363007
v -0.238583 0.551976 0.007323
v -0.224782 0.554142 0.0290797
v -0.210307 0.555323 0.0290797
v -0.224782 0.554748 0.0580575
v -0.224782 0.554881 0.0798142
v -0.239275 0.553465 0.0870821
v -0.254825 0.551289 0.0798142
v -0.239275 0.553095 0.0580575
f 1 2 3
f 1 3 4
f 1 4 5
f 1 5 6
f 1 6 7
f 1 7 8
f 1 8 19
f 1 19 39
f 1 39 64
f 1 64 100
f 1 100 135
f 1 135 175
f 1 175 190
f 1 190 151
f 1 151 109
f 1 109 73
f 1 73 45
f 1 45 24
f 1 24 9
f 1 9 2
f 2 10 11
f 2 11 12
f 2 12 3
f 2 9 10
f 3 12 13
f 3 13 4
f 4 14 5
f 4 13 14
f 5 15 6
f 5 14 15
f 6 15 16
f 6 16 37
f 6 37 62
f 6 62 98
f 6 98 134
f 6 134 174
f 6 174 213
f 6 213 214
f 6 214 178
f 6 178 139
f 6 139 107
f 6 107 142
f 6 142 150
f 6 150 189
f 6 189 176
f 6 176 136
f 6 136 99
f 6 99 63
f 6 63 38
f 6 38 18
f 6 18 17
f 6 17 7
f 7 17 8
f 8 17 18
f 8 18 19
f 9 20 21
f 9 21 22
f 9 22 23
f 9 23 10
f 9 24 20
f 10 23 25
f 10 25 11
f 11 26 27
f 11 27 28
f 11 28 12
f 11 25 29
f 11 29 30
f 11 30 26
f 12 28 13
f 13 31 14
f 13 28 27
f 13 27 31
f 14 31 32
f 14 32 33
f 14 33 15
f 15 33 34
f 15 34 16
f 16 34 35
f 16 35 36
f 16 36 37
f 18 38 19
f 19 38 39
f 20 40 41
f 20 41 21
f 20 24 40
f 21 41 42
f 21 42 22
f 22 43 23
f 22 42 43
f 23 43 44
f 23 44 25
f 24 45 46
f 24 46 47
f 24 47 48
f 24 48 40
f 25 44 29
f 26 30 49
f 26 49 50
f 26 50 51
f 26 51 52
f 26 52 35
f 26 35 27
f 27 35 32
f 27 32 31
f 29 44 53
f 29 53 30
f 30 53 54
f 30 54 55
f 30 55 49
f 32 35 56
f 32 56 33
f 33 56 34
f 34 56 35
f 35 52 57
f 35 57 36
f 36 57 58
f 36 58 59
f 36 59 37
f 37 59 60
f 37 60 61
f 37 61 62
f 38 63 39
f 39 63 64
f 40 48 65
f 40 65 41
f 41 66 42
f 41 65 67
f 41 67 66
f 42 66 43
f 43 68 44
f 43 66 69
f 43 69 68
f 44 68 53
f 45 70 71
f 45 71 72
f 45 72 46
f 45 73 74
f 45 74 75
f 45 75 76
f 45 76 77
f 45 77 78
f 45 78 70
f 46 79 80
f 46 80 81
f 46 81 47
f 46 72 79
f 47 81 48
f 48 81 80
f 48 80 82
f 48 82 65
f 49 55 83
f 49 83 84
f 49 84 50
f 50 84 51
f 51 85 57
f 51 57 52
f 51 84 86
f 51 86 87
f 51 87 85
f 53 68 54
f 54 88 55
f 54 68 89
f 54 89 88
f 55 88 83
f 57 85 58
f 58 85 87
f 58 87 90
f 58 90 59
f 59 90 91
f 59 91 60
f 60 91 61
f 61 92 62
f 61 91 93
f 61 93 94
f 61 94 95
f 61 95 92
f 62 92 96
f 62 96 97
f 62 97 98
f 63 99 100
f 63 100 64
f 65 101 67
f 65 82 102
f 65 102 101
f 66 103 69
f 66 67 103
f 67 101 103
f 68 69 89
f 69 103 89
f 70 78 104
f 70 104 71
f 71 104 105
f 71 105 106
f 71 106 79
f 71 79 72
f 73 107 108
f 73 108 74
f 73 109 107
f 74 108 110
f 74 110 75
f 75 110 111
f 75 111 76
f 76 111 77
f 77 111 112
f 77 112 78
f 78 112 113
f 78 113 114
f 78 114 104
f 79 115 117
f 79 117 80
f 79 106 116
f 79 116 115
f 80 117 102
f 80 102 82
f 83 88 118
f 83 118 119
f 83 119 84
f 84 119 86
f 86 119 120
f 86 120 121
f 86 121 122
f 86 122 123
f 86 123 124
f 86 124 87
f 87 124 125
f 87 125 126
f 87 126 90
f 88 89 127
f 88 127 118
f 89 103 128
f 89 128 129
f 89 129 127
f 90 126 93
f 90 93 91
f 92 95 96
f 93 126 125
f 93 125 130
f 93 130 94
f 94 130 131
f 94 131 132
f 94 132 97
f 94 97 96
f 94 96 95
f 97 132 98
f 98 132 133
f 98 133 134
f 99 135 100
f 99 136 135
f 101 128 103
f 101 102 128
f 102 117 137
f 102 137 138
f 102 138 128
f 104 114 105
f 105 116 106
f 105 114 116
f 107 139 140
f 107 140 141
f 107 141 108
f 107 109 142
f 108 141 143
f 108 143 144
f 108 144 145
f 108 145 146
f 108 146 147
f 108 147 148
f 108 148 149
f 108 149 110
f 109 150 142
f 109 151 150
f 110 149 152
f 110 152 111
f 111 153 154
f 111 154 112
f 111 152 153
f 112 154 113
f 113 155 156
f 113 156 114
f 113 154 155
f 114 156 157
f 114 157 116
f 115 158 117
f 115 116 159
f 115 159 160
f 115 160 158
f 116 157 155
f 116 155 161
f 116 161 159
f 117 158 137
f 118 127 162
f 118 162 163
f 118 163 120
f 118 120 119
f 120 163 121
f 121 123 122
f 121 163 164
f 121 164 165
f 121 165 123
f 123 165 166
f 123 166 125
f 123 125 124
f 125 166 130
f 127 129 162
f 128 138 167
f 128 167 129
f 129 167 168
f 129 168 163
f 129 163 162
f 130 166 131
f 131 166 169
f 131 169 170
f 131 170 132
f 132 170 133
f 133 170 171
f 133 171 134
f 134 171 172
f 134 172 173
f 134 173 174
f 135 136 175
f 136 176 175
f 137 158 177
f 137 177 167
f 137 167 138
f 139 178 179
f 139 179 180
f 139 180 181
f 139 181 182
f 139 182 140
f 140 183 141
f 140 182 183
f 141 183 184
f 141 184 143
f 143 184 185
f 143 185 144
f 144 185 145
f 145 185 186
f 145 186 146
f 146 186 187
f 146 187 147
f 147 187 148
f 148 187 188
f 148 188 153
f 148 153 149
f 149 153 152
f 150 151 189
f 151 190 176
f 151 176 189
f 153 188 191
f 153 191 154
f 154 191 192
f 154 192 155
f 155 192 193
f 155 193 161
f 155 157 156
f 158 160 194
f 158 194 195
f 158 195 177
f 159 161 196
f 159 196 160
f 160 196 197
f 160 197 198
f 160 198 194
f 161 193 196
f 163 168 199
f 163 199 164
f 164 199 200
f 164 200 201
f 164 201 202
f 164 202 165
f 165 202 166
f 166 202 169
f 167 177 199
f 167 199 168
f 169 203 204
f 169 204 205
f 169 205 206
f 169 206 170
f 169 202 203
f 170 206 207
f 170 207 208
f 170 208 172
f 170 172 171
f 172 208 173
f 173 208 209
f 173 209 210
f 173 210 211
f 173 211 212
f 173 212 174
f 174 212 213
f 175 176 190
f 177 195 199
f 178 214 179
f 179 215 180
f 179 214 216
f 179 216 217
f 179 217 215
f 180 215 218
f 180 218 219
f 180 219 183
f 180 183 182
f 180 182 181
f 183 219 220
f 183 220 184
f 184 220 185
f 185 220 221
f 185 221 222
f 185 222 186
f 186 222 223
f 186 223 187
f 187 223 224
f 187 224 188
f 188 224 225
f 188 225 191
f 191 225 193
f 191 193 192
f 193 226 227
f 193 227 196
f 193 225 226
f 194 198 228
f 194 228 229
f 194 229 195
f 195 229 199
f 196 227 197
f 197 227 230
f 197 230 228
f 197 228 198
f 199 229 231
f 199 231 232
f 199 232 200
f 200 232 233
f 200 233 201
f 201 233 234
f 201 234 203
f 201 203 202
f 203 234 233
f 203 233 235
f 203 235 204
f 204 235 205
f 205 236 207
f 205 207 206
f 205 235 237
f 205 237 230
f 205 230 238
f 205 238 239
f 205 239 211
f 205 211 236
f 207 236 209
f 207 209 208
f 209 236 210
f 210 236 211
f 211 239 240
f 211 240 241
f 211 241 212
f 212 241 213
f 213 241 216
f 213 216 214
f 215 217 242
f 215 242 243
f 215 243 221
f 215 221 218
f 216 241 244
f 216 244 217
f 217 244 245
f 217 245 238
f 217 238 246
f 217 246 242
f 218 221 220
f 218 220 219
f 221 243 247
f 221 247 222
f 222 247 248
f 222 248 249
f 222 249 223
f 223 249 250
f 223 250 224
f 224 250 251
f 224 251 225
f 225 251 226
f 226 252 253
f 226 253 227
f 226 251 250
f 226 250 252
f 227 253 230
f 228 230 237
f 228 237 229
f 229 233 231
f 229 237 233
f 230 253 254
f 230 254 246
f 230 246 238
f 231 233 232
f 233 237 235
f 238 245 240
f 238 240 239
f 240 245 244
f 240 244 241
f 242 246 255
f 242 255 243
f 243 255 248
f 243 248 247
f 246 254 256
f 246 256 248
f 246 248 255
f 248 256 249
f 249 256 250
f 250 256 252
f 252 256 254
f 252 254 253
