v -0.125331 -0.504127 0.404014
v -0.125331 -0.494293 0.378461
v -0.312228 -0.478098 0.384078
v -0.312228 -0.486174 0.401712
v -0.131569 -0.526108 0.418471
v -0.131569 -0.54177 0.411611
v -0.131569 -0.548591 0.391307
v -0.125331 -0.553916 0.253782
v -0.125331 -0.488319 0.356131
v -0.312228 -0.465669 0.341214
v -0.312228 -0.469529 0.355303
v -0.312008 -0.526589 0.40383
v -0.312008 -0.507632 0.414466
v -0.312228 -0.535032 0.312991
v -0.290055 -0.514872 0.416261
v -0.210327 -0.529383 0.417827
v -0.15956 -0.535744 0.415663
v -0.181312 -0.542052 0.411933
v -0.15956 -0.548664 0.398812
v -0.152297 -0.550286 0.384309
v -0.131715 -0.55106 0.35406
v -0.128459 -0.552776 0.306315
v -0.131569 -0.553613 0.282788
v -0.137789 -0.554345 0.268285
v -0.137789 -0.555025 0.239233
v -0.125331 -0.554251 0.239233
v -0.125331 -0.484814 0.341813
v -0.125331 -0.480033 0.319897
v -0.312228 -0.462436 0.326251
v -0.312008 -0.530858 0.384217
v -0.297318 -0.532458 0.398812
v -0.268028 -0.537334 0.404659
v -0.297318 -0.526537 0.41046
v -0.312228 -0.536214 0.280071
v -0.301324 -0.537794 0.311748
v -0.303501 -0.536382 0.334216
v -0.305111 -0.535001 0.355257
v -0.312008 -0.532207 0.369714
v -0.239287 -0.529383 0.416077
v -0.253795 -0.529383 0.414512
v -0.22478 -0.534865 0.413913
v -0.210327 -0.541142 0.411197
v -0.19582 -0.544814 0.405211
v -0.181312 -0.548486 0.398812
v -0.188557 -0.549721 0.384309
v -0.166804 -0.550694 0.377448
v -0.166804 -0.552085 0.355303
v -0.150047 -0.551562 0.361334
v -0.134734 -0.5522 0.334952
v -0.152297 -0.555057 0.26101
v -0.152297 -0.553655 0.311748
v -0.152297 -0.554282 0.290016
v -0.15956 -0.556929 0.188542
v -0.137789 -0.556521 0.16681
v -0.134679 -0.555894 0.190061
v -0.128459 -0.554983 0.214417
v -0.125331 -0.555674 0.16681
v -0.125331 -0.476131 0.298212
v -0.312228 -0.456922 0.297291
v -0.28978 -0.537166 0.376988
v -0.281365 -0.536476 0.397522
v -0.253795 -0.541152 0.398812
v -0.239287 -0.543433 0.398812
v -0.253795 -0.538129 0.40825
v -0.239287 -0.539301 0.409677
v -0.28281 -0.528169 0.411427
v -0.312228 -0.537156 0.234629
v -0.304087 -0.538673 0.260136
v -0.297318 -0.53973 0.282788
v -0.303318 -0.537815 0.297291
v -0.28281 -0.542879 0.290016
v -0.28281 -0.542021 0.311748
v -0.28281 -0.540023 0.355303
v -0.28281 -0.541058 0.333525
v -0.210327 -0.546792 0.398812
v -0.210327 -0.548434 0.384309
v -0.210327 -0.549449 0.369806
v -0.183965 -0.551416 0.361288
v -0.181312 -0.552828 0.333525
v -0.181312 -0.553676 0.311748
v -0.15956 -0.552964 0.333525
v -0.166804 -0.55581 0.239233
v -0.166804 -0.556375 0.217501
v -0.166804 -0.553717 0.311748
v -0.166804 -0.554586 0.282788
v -0.166804 -0.555402 0.253782
v -0.181312 -0.556176 0.217501
v -0.181312 -0.556657 0.181359
v -0.181312 -0.556835 0.16681
v -0.15956 -0.557233 0.159582
v -0.152297 -0.557222 0.130576
v -0.131569 -0.556427 0.137804
v -0.131569 -0.556312 0.152353
v -0.125331 -0.556061 0.100557
v -0.125331 -0.474185 0.282788
v -0.312228 -0.454746 0.282788
v -0.268303 -0.540828 0.384309
v -0.253795 -0.543193 0.384309
v -0.22478 -0.545358 0.398812
v -0.239287 -0.545442 0.384309
v -0.297318 -0.540765 0.239233
v -0.312228 -0.538014 0.175052
v -0.311844 -0.537742 0.203827
v -0.297318 -0.541142 0.217501
v -0.28281 -0.544291 0.239233
v -0.28281 -0.543925 0.253782
v -0.268303 -0.545641 0.290016
v -0.268303 -0.546561 0.26101
v -0.268303 -0.54473 0.311748
v -0.253795 -0.544584 0.362531
v -0.268303 -0.541707 0.369806
v -0.268303 -0.544019 0.326297
v -0.253795 -0.546122 0.333525
v -0.22478 -0.54721 0.384309
v -0.22478 -0.5488 0.362531
v -0.221889 -0.550495 0.334446
v -0.198253 -0.551374 0.348627
v -0.19582 -0.552546 0.326297
v -0.19582 -0.553194 0.311748
v -0.188557 -0.554261 0.290016
v -0.188557 -0.555109 0.26101
v -0.181312 -0.555778 0.239233
v -0.19582 -0.55582 0.210273
v -0.19582 -0.556145 0.188542
v -0.19582 -0.555349 0.239233
v -0.203064 -0.556092 0.159582
v -0.181312 -0.556919 0.152353
v -0.166804 -0.557222 0.137804
v -0.166804 -0.557055 0.0798385
v -0.15956 -0.556898 0.058061
v -0.152297 -0.55695 0.0798385
v -0.137789 -0.55672 0.0942954
v -0.131569 -0.556448 0.122841
v -0.131569 -0.55626 0.0575545
v -0.125331 -0.55469 0.00525179
v -0.125331 -0.472354 0.261517
v -0.312228 -0.453407 0.268285
v -0.239287 -0.54699 0.362531
v -0.28281 -0.544678 0.217501
v -0.312228 -0.53815 0.154241
v -0.297318 -0.542125 0.137804
v -0.297318 -0.541968 0.152353
v -0.297318 -0.541529 0.188542
v -0.268303 -0.547137 0.239233
v -0.253795 -0.547942 0.290016
v -0.253795 -0.547105 0.311748
v -0.253795 -0.548842 0.26101
v -0.239287 -0.548507 0.333525
v -0.232884 -0.55083 0.297383
v -0.224762 -0.551123 0.311748
v -0.210327 -0.55309 0.290016
v -0.210327 -0.555329 0.188542
v -0.210327 -0.553916 0.26101
v -0.210327 -0.554941 0.210273
v -0.203064 -0.556228 0.130576
v -0.181312 -0.556919 0.0798385
v -0.15956 -0.556615 0.0290551
v -0.152297 -0.55605 0.00732363
v -0.131569 -0.555789 0.0285486
v -0.134679 -0.554764 -0.0128884
v -0.131569 -0.553623 -0.0362313
v -0.132905 -0.552891 -0.0517011
v -0.125331 -0.478139 -0.0518853
v -0.125331 -0.470962 0.240292
v -0.312228 -0.451639 0.246185
v -0.28281 -0.544887 0.19577
v -0.268303 -0.547472 0.217501
v -0.311551 -0.538254 0.108844
v -0.311807 -0.538275 0.131681
v -0.297318 -0.542157 0.116073
v -0.312228 -0.457466 -0.0518853
v -0.311368 -0.53703 0.0182354
v -0.311423 -0.538098 0.0870669
v -0.28281 -0.545369 0.116073
v -0.28281 -0.545306 0.137804
v -0.28281 -0.545212 0.152353
v -0.253795 -0.549344 0.232004
v -0.239141 -0.551112 0.253782
v -0.239287 -0.549376 0.311748
v -0.231549 -0.551751 0.268285
v -0.230854 -0.551447 0.282788
v -0.22478 -0.552755 0.253782
v -0.22478 -0.553749 0.188542
v -0.22478 -0.554094 0.159582
v -0.22478 -0.554314 0.130576
v -0.210327 -0.55558 0.0870669
v -0.203064 -0.556155 0.108844
v -0.19582 -0.556396 0.0798385
v -0.188557 -0.556574 0.058061
v -0.188557 -0.556291 0.0290551
v -0.174067 -0.556197 0.00732363
v -0.15956 -0.555559 -0.0144538
v -0.152297 -0.55469 -0.0362313
v -0.152901 -0.553906 -0.051563
v -0.239873 -0.548905 -0.051563
v -0.28281 -0.541037 -0.0518853
v -0.125331 -0.470397 0.188542
v -0.125331 -0.470356 0.217501
v -0.312228 -0.450614 0.217501
v -0.268303 -0.547754 0.181359
v -0.254673 -0.550244 0.137804
v -0.250045 -0.550704 0.155622
v -0.297318 -0.541874 0.0870669
v -0.28281 -0.545149 0.0870669
v -0.312228 -0.450582 0.16681
v -0.307142 -0.535545 -0.049307
v -0.297318 -0.540964 0.0362835
v -0.297318 -0.541487 0.0652895
v -0.310746 -0.537512 0.0362835
v -0.311185 -0.537867 0.0652895
v -0.304453 -0.537417 -0.0276676
v -0.300391 -0.539426 -0.00128605
v -0.268303 -0.547921 0.0870669
v -0.268303 -0.548078 0.116073
v -0.268303 -0.548026 0.137804
v -0.268303 -0.547942 0.152353
v -0.242087 -0.55151 0.181359
v -0.237275 -0.551845 0.210273
v -0.239287 -0.552357 0.137804
v -0.245489 -0.551656 0.116073
v -0.22478 -0.554293 0.108844
v -0.22478 -0.554178 0.0870669
v -0.22478 -0.553979 0.058061
v -0.22478 -0.55377 0.0362835
v -0.210327 -0.555276 0.058061
v -0.210327 -0.5549 0.0290551
v -0.19582 -0.55537 0.00732363
v -0.174067 -0.554785 -0.0362313
v -0.17436 -0.554199 -0.0514249
v -0.253795 -0.547503 -0.0362313
v -0.261332 -0.545306 -0.0517011
v -0.19582 -0.553132 -0.0512868
v -0.216291 -0.551332 -0.0503659
v -0.234659 -0.550338 -0.0339753
v -0.253795 -0.548361 -0.0144538
v -0.268303 -0.546091 -0.00722536
v -0.28281 -0.543182 -0.00722536
v -0.312228 -0.450352 0.188542
v -0.28281 -0.544239 0.0290551
v -0.28281 -0.544825 0.0652895
v -0.268303 -0.547147 0.0290551
v -0.268303 -0.547566 0.058061
v -0.28281 -0.543768 0.00732363
v -0.248673 -0.550893 0.0612839
v -0.245416 -0.551604 0.0870669
v -0.239287 -0.552263 0.0652895
v -0.230799 -0.552587 0.0145521
v -0.210327 -0.554324 0.00732363
v -0.19582 -0.554596 -0.0144538
v -0.19582 -0.55377 -0.0362313
v -0.210327 -0.553466 -0.0144538
v -0.210327 -0.552514 -0.0362313
v -0.230195 -0.551824 -0.00980368
v -0.253795 -0.54924 0.0145521
v -0.268303 -0.546655 0.00732363
v -0.247831 -0.5506 0.0362835
f 1 2 3
f 1 3 4
f 1 4 5
f 1 5 6
f 1 6 7
f 1 7 8
f 1 8 26
f 1 26 57
f 1 57 94
f 1 94 135
f 1 135 163
f 1 163 197
f 1 197 198
f 1 198 164
f 1 164 136
f 1 136 95
f 1 95 58
f 1 58 28
f 1 28 27
f 1 27 9
f 1 9 2
f 2 9 10
f 2 10 11
f 2 11 3
f 3 11 10
f 3 10 29
f 3 29 59
f 3 59 96
f 3 96 137
f 3 137 165
f 3 165 199
f 3 199 238
f 3 238 205
f 3 205 171
f 3 171 140
f 3 140 102
f 3 102 67
f 3 67 34
f 3 34 14
f 3 14 4
f 4 12 13
f 4 13 5
f 4 14 12
f 5 13 15
f 5 15 16
f 5 16 17
f 5 17 6
f 6 17 18
f 6 18 19
f 6 19 7
f 7 20 21
f 7 21 22
f 7 22 8
f 7 19 20
f 8 22 23
f 8 23 24
f 8 24 25
f 8 25 26
f 9 27 10
f 10 27 28
f 10 28 29
f 12 14 30
f 12 30 31
f 12 31 32
f 12 32 33
f 12 33 13
f 13 33 15
f 14 34 35
f 14 35 36
f 14 36 37
f 14 37 38
f 14 38 30
f 15 39 16
f 15 33 40
f 15 40 39
f 16 39 41
f 16 41 42
f 16 42 18
f 16 18 17
f 18 42 43
f 18 43 44
f 18 44 19
f 19 44 20
f 20 44 45
f 20 45 46
f 20 46 47
f 20 47 48
f 20 48 21
f 21 48 49
f 21 49 22
f 22 24 23
f 22 49 24
f 24 50 25
f 24 49 51
f 24 51 52
f 24 52 50
f 25 50 53
f 25 53 54
f 25 54 55
f 25 55 56
f 25 56 26
f 26 56 57
f 28 58 59
f 28 59 29
f 30 38 60
f 30 60 61
f 30 61 31
f 31 61 32
f 32 61 62
f 32 62 63
f 32 63 64
f 32 64 33
f 33 64 65
f 33 65 66
f 33 66 40
f 34 67 68
f 34 68 69
f 34 69 70
f 34 70 35
f 35 70 69
f 35 69 71
f 35 71 72
f 35 72 36
f 36 73 37
f 36 72 74
f 36 74 73
f 37 73 60
f 37 60 38
f 39 40 65
f 39 65 41
f 40 66 65
f 41 65 42
f 42 65 75
f 42 75 43
f 43 75 44
f 44 75 45
f 45 76 77
f 45 77 78
f 45 78 46
f 45 75 76
f 46 78 47
f 47 78 79
f 47 79 80
f 47 80 81
f 47 81 48
f 48 81 51
f 48 51 49
f 50 82 83
f 50 83 53
f 50 52 82
f 51 84 85
f 51 85 52
f 51 81 84
f 52 85 86
f 52 86 82
f 53 87 88
f 53 88 89
f 53 89 90
f 53 90 54
f 53 83 87
f 54 90 91
f 54 91 92
f 54 92 93
f 54 93 57
f 54 57 55
f 55 57 56
f 57 93 92
f 57 92 94
f 58 95 96
f 58 96 59
f 60 97 61
f 60 73 97
f 61 97 62
f 62 97 98
f 62 98 63
f 63 99 64
f 63 98 100
f 63 100 99
f 64 99 65
f 65 99 75
f 67 101 68
f 67 102 103
f 67 103 104
f 67 104 101
f 68 101 105
f 68 105 69
f 69 105 106
f 69 106 71
f 71 107 72
f 71 106 108
f 71 108 107
f 72 109 74
f 72 107 109
f 73 110 111
f 73 111 97
f 73 74 109
f 73 109 112
f 73 112 113
f 73 113 110
f 75 99 114
f 75 114 76
f 76 114 115
f 76 115 77
f 77 115 116
f 77 116 117
f 77 117 78
f 78 117 118
f 78 118 79
f 79 118 119
f 79 119 80
f 80 119 120
f 80 120 121
f 80 121 122
f 80 122 85
f 80 85 84
f 80 84 81
f 82 122 83
f 82 86 122
f 83 122 87
f 85 122 86
f 87 123 124
f 87 124 88
f 87 122 125
f 87 125 123
f 88 124 89
f 89 126 127
f 89 127 90
f 89 124 126
f 90 127 128
f 90 128 91
f 91 128 129
f 91 129 130
f 91 130 131
f 91 131 132
f 91 132 133
f 91 133 92
f 92 133 94
f 94 133 132
f 94 132 134
f 94 134 135
f 95 136 137
f 95 137 96
f 97 111 110
f 97 110 138
f 97 138 98
f 98 138 100
f 99 100 114
f 100 138 115
f 100 115 114
f 101 104 139
f 101 139 105
f 102 140 141
f 102 141 142
f 102 142 143
f 102 143 103
f 103 143 104
f 104 143 139
f 105 144 106
f 105 139 144
f 106 144 108
f 107 145 146
f 107 146 109
f 107 108 145
f 108 144 147
f 108 147 145
f 109 146 148
f 109 148 113
f 109 113 112
f 110 113 138
f 113 148 138
f 115 138 148
f 115 148 116
f 116 148 149
f 116 149 150
f 116 150 151
f 116 151 119
f 116 119 118
f 116 118 117
f 119 151 120
f 120 151 121
f 121 125 122
f 121 151 125
f 123 152 124
f 123 125 152
f 124 152 126
f 125 151 153
f 125 153 154
f 125 154 152
f 126 152 155
f 126 155 127
f 127 155 156
f 127 156 128
f 128 156 129
f 129 156 157
f 129 157 130
f 130 157 131
f 131 157 134
f 131 134 132
f 134 157 158
f 134 158 159
f 134 159 135
f 135 160 161
f 135 161 162
f 135 162 163
f 135 159 160
f 136 164 165
f 136 165 137
f 139 166 167
f 139 167 144
f 139 143 142
f 139 142 141
f 139 141 166
f 140 168 169
f 140 169 170
f 140 170 141
f 140 171 172
f 140 172 173
f 140 173 168
f 141 170 174
f 141 174 175
f 141 175 176
f 141 176 166
f 144 167 177
f 144 177 178
f 144 178 147
f 145 149 179
f 145 179 146
f 145 147 149
f 146 179 148
f 147 178 149
f 148 179 149
f 149 178 180
f 149 180 181
f 149 181 151
f 149 151 150
f 151 181 153
f 152 154 182
f 152 182 183
f 152 183 184
f 152 184 185
f 152 185 155
f 153 182 154
f 153 181 182
f 155 185 186
f 155 186 187
f 155 187 188
f 155 188 156
f 156 188 189
f 156 189 190
f 156 190 157
f 157 190 191
f 157 191 158
f 158 191 192
f 158 192 193
f 158 193 160
f 158 160 159
f 160 193 161
f 161 193 162
f 162 194 195
f 162 195 196
f 162 196 163
f 162 193 194
f 163 196 171
f 163 171 197
f 164 198 199
f 164 199 165
f 166 200 167
f 166 176 200
f 167 200 201
f 167 201 202
f 167 202 177
f 168 170 169
f 168 173 170
f 170 173 203
f 170 203 204
f 170 204 174
f 171 205 197
f 171 196 206
f 171 206 172
f 172 207 208
f 172 208 209
f 172 209 210
f 172 210 173
f 172 206 211
f 172 211 212
f 172 212 207
f 173 210 203
f 174 204 213
f 174 213 214
f 174 214 215
f 174 215 175
f 175 215 216
f 175 216 176
f 176 216 200
f 177 202 178
f 178 202 217
f 178 217 218
f 178 218 184
f 178 184 183
f 178 183 182
f 178 182 180
f 180 182 181
f 184 218 217
f 184 217 219
f 184 219 185
f 185 219 220
f 185 220 221
f 185 221 186
f 186 221 222
f 186 222 223
f 186 223 224
f 186 224 225
f 186 225 188
f 186 188 187
f 188 225 190
f 188 190 189
f 190 226 227
f 190 227 191
f 190 225 226
f 191 227 228
f 191 228 192
f 192 228 193
f 193 228 229
f 193 229 194
f 194 229 195
f 195 230 231
f 195 231 196
f 195 229 232
f 195 232 233
f 195 233 234
f 195 234 235
f 195 235 230
f 196 231 236
f 196 236 237
f 196 237 211
f 196 211 206
f 197 205 238
f 197 238 198
f 198 238 199
f 200 216 201
f 201 219 202
f 201 216 215
f 201 215 214
f 201 214 220
f 201 220 219
f 202 219 217
f 203 210 209
f 203 209 208
f 203 208 239
f 203 239 240
f 203 240 204
f 204 240 241
f 204 241 242
f 204 242 213
f 207 212 239
f 207 239 208
f 211 237 212
f 212 237 243
f 212 243 239
f 213 242 244
f 213 244 245
f 213 245 214
f 214 245 220
f 220 245 221
f 221 245 246
f 221 246 222
f 222 246 223
f 223 246 224
f 224 247 248
f 224 248 226
f 224 226 225
f 224 246 247
f 226 248 227
f 227 248 249
f 227 249 228
f 228 249 229
f 229 249 250
f 229 250 232
f 230 235 236
f 230 236 231
f 232 250 251
f 232 251 252
f 232 252 233
f 233 252 253
f 233 253 234
f 234 253 235
f 235 253 247
f 235 247 254
f 235 254 255
f 235 255 236
f 236 255 243
f 236 243 237
f 239 241 240
f 239 243 241
f 241 243 255
f 241 255 254
f 241 254 256
f 241 256 244
f 241 244 242
f 244 256 246
f 244 246 245
f 246 256 247
f 247 256 254
f 247 253 248
f 248 253 251
f 248 251 250
f 248 250 249
f 251 253 252
