v -0.500774 -0.2225 -0.272914
v -0.500774 -0.2225 -0.351289
v -0.39908 -0.2225 -0.317172
v -0.39908 0.00057724 -0.328942
v -0.500774 0.00057724 -0.314451
v -0.39908 -0.2225 -0.403622
v -0.500774 -0.210294 -0.355072
v -0.447946 -0.128146 -0.420062
v -0.432636 -0.15638 -0.419698
v -0.420731 -0.174199 -0.420673
v -0.402305 -0.199092 -0.418723
v -0.39908 -0.200839 -0.419451
v -0.39908 -0.20846 -0.414839
v -0.39908 -0.209792 -0.413937
v -0.39908 -0.218875 -0.407201
v -0.39908 0.00057724 -0.391109
v -0.500774 0.00057724 -0.38932
v -0.500774 -0.209944 -0.355173
v -0.435752 -0.146707 -0.420891
v -0.500774 -0.19586 -0.359247
v -0.450206 -0.118473 -0.420935
v -0.422463 -0.166774 -0.421051
v -0.41226 -0.179942 -0.42108
v -0.406695 -0.189418 -0.420848
v -0.39908 -0.194201 -0.421008
v -0.442372 0.00057724 -0.414315
v -0.39908 -0.174395 -0.420455
v -0.482627 0.00057724 -0.410896
v -0.482806 -0.00726191 -0.410998
v -0.500774 -0.00726191 -0.389349
v -0.437962 -0.137776 -0.421284
v -0.500774 -0.193043 -0.360018
v -0.460648 -0.0942787 -0.418898
v -0.462649 -0.0830768 -0.420193
v -0.464232 -0.0734252 -0.420658
v -0.451311 -0.108778 -0.421313
v -0.427828 -0.151839 -0.421328
v -0.39908 -0.193764 -0.421037
v -0.453909 0.00057724 -0.41964
v -0.39908 -0.182125 -0.421139
v -0.4733 0.00057724 -0.418156
v -0.47336 -0.00726191 -0.418258
v -0.47336 -0.0217611 -0.418229
v -0.482777 -0.0217611 -0.410969
v -0.500774 -0.0112361 -0.389262
v -0.453391 -0.0942787 -0.421546
v -0.500774 -0.185117 -0.362099
v -0.500774 -0.181295 -0.363074
v -0.500774 -0.1785 -0.363757
v -0.500774 -0.168325 -0.366143
v -0.500774 -0.167561 -0.366318
v -0.500774 -0.157538 -0.368398
v -0.480825 -0.0507812 -0.409034
v -0.482169 -0.0362602 -0.410445
v -0.472991 -0.0507812 -0.416279
v -0.47333 -0.0362602 -0.41769
v -0.464859 -0.0652804 -0.420978
v -0.500774 -0.152275 -0.369475
v -0.445886 -0.0942787 -0.421546
v -0.427679 -0.137973 -0.421371
v -0.412777 -0.166272 -0.42124
v -0.457821 0.00057724 -0.420498
v -0.461156 0.00057724 -0.421226
v -0.466043 0.00057724 -0.421226
v -0.466103 -0.00726191 -0.42124
v -0.466073 -0.0362602 -0.421342
v -0.465735 -0.0507812 -0.421342
v -0.500774 -0.0217611 -0.389029
v -0.500774 -0.0362602 -0.387923
v -0.500774 -0.151904 -0.369548
v -0.500774 -0.137776 -0.372254
v -0.500774 -0.0806966 -0.382016
v -0.500774 -0.0511961 -0.385959
v -0.500774 -0.137383 -0.372327
v -0.500774 -0.124565 -0.374611
f 1 2 6
f 1 6 3
f 1 3 4
f 1 4 5
f 1 5 17
f 1 17 30
f 1 30 45
f 1 45 68
f 1 68 69
f 1 69 73
f 1 73 72
f 1 72 75
f 1 75 74
f 1 74 71
f 1 71 70
f 1 70 58
f 1 58 52
f 1 52 51
f 1 51 50
f 1 50 49
f 1 49 48
f 1 48 47
f 1 47 32
f 1 32 20
f 1 20 18
f 1 18 7
f 1 7 2
f 2 7 8
f 2 8 9
f 2 9 10
f 2 10 11
f 2 11 12
f 2 12 13
f 2 13 14
f 2 14 15
f 2 15 6
f 3 6 15
f 3 15 14
f 3 14 13
f 3 13 12
f 3 12 25
f 3 25 38
f 3 38 40
f 3 40 27
f 3 27 16
f 3 16 4
f 4 16 26
f 4 26 39
f 4 39 62
f 4 62 63
f 4 63 64
f 4 64 41
f 4 41 28
f 4 28 17
f 4 17 5
f 7 18 8
f 8 19 10
f 8 10 9
f 8 18 20
f 8 20 21
f 8 21 19
f 10 19 22
f 10 22 23
f 10 23 24
f 10 24 11
f 11 24 12
f 12 24 25
f 16 27 26
f 17 28 29
f 17 29 30
f 19 21 31
f 19 31 22
f 20 32 21
f 21 33 34
f 21 34 35
f 21 35 36
f 21 36 31
f 21 32 33
f 22 31 37
f 22 37 23
f 23 37 38
f 23 38 24
f 24 38 25
f 26 27 39
f 27 40 39
f 28 41 29
f 29 42 43
f 29 43 44
f 29 44 30
f 29 41 42
f 30 44 45
f 31 36 46
f 31 46 37
f 32 47 33
f 33 47 34
f 34 47 48
f 34 48 49
f 34 49 50
f 34 50 51
f 34 51 52
f 34 52 35
f 35 53 54
f 35 54 55
f 35 55 56
f 35 56 57
f 35 57 36
f 35 52 58
f 35 58 53
f 36 57 46
f 37 59 60
f 37 60 61
f 37 61 40
f 37 40 38
f 37 46 59
f 39 40 62
f 40 61 60
f 40 60 59
f 40 59 63
f 40 63 62
f 41 64 42
f 42 64 65
f 42 65 66
f 42 66 43
f 43 66 67
f 43 67 56
f 43 56 44
f 44 68 45
f 44 56 54
f 44 54 69
f 44 69 68
f 46 57 67
f 46 67 66
f 46 66 64
f 46 64 63
f 46 63 59
f 53 58 70
f 53 70 71
f 53 71 54
f 54 72 73
f 54 73 69
f 54 56 55
f 54 71 74
f 54 74 75
f 54 75 72
f 56 67 57
f 64 66 65
