v 0.381761 -0.0585615 -0.195801
v 0.377926 -0.0585615 -0.204196
v 0.381426 -0.0585615 -0.182526
v 0.353282 -0.152658 -0.159075
v 0.349652 -0.164708 -0.159075
v 0.347437 -0.171757 -0.159075
v 0.343975 -0.180982 -0.159075
v 0.34096 -0.189011 -0.159075
v 0.334594 -0.205818 -0.15917
v 0.334277 -0.204823 -0.161981
v 0.336288 -0.19616 -0.166803
v 0.332863 -0.201234 -0.171644
v 0.334761 -0.191562 -0.177809
v 0.331578 -0.19616 -0.182107
v 0.333235 -0.187584 -0.187472
v 0.327037 -0.195786 -0.195801
v 0.319852 -0.204823 -0.204787
v 0.321471 -0.195036 -0.209885
v 0.317655 -0.199375 -0.21444
v 0.319517 -0.189703 -0.218442
v 0.318958 -0.173717 -0.23184
v 0.304607 -0.188622 -0.246601
v 0.306655 -0.163699 -0.256416
v 0.31047 -0.151418 -0.256416
v 0.314454 -0.137783 -0.256416
v 0.315831 -0.132939 -0.256416
v 0.318512 -0.123282 -0.256416
v 0.320001 -0.117357 -0.256416
v 0.321676 -0.109934 -0.256416
v 0.322253 -0.107267 -0.256416
v 0.324728 -0.0942801 -0.256416
v 0.327111 -0.0798226 -0.256416
v 0.329419 -0.0652785 -0.256416
v 0.330313 -0.0585615 -0.256416
v 0.373961 -0.0585615 -0.159075
v 0.367205 -0.0944819 -0.159075
v 0.36445 -0.108781 -0.159075
v 0.362775 -0.117055 -0.159075
v 0.357563 -0.137148 -0.159075
v 0.334612 -0.205818 -0.159075
v 0.333607 -0.205818 -0.162915
v 0.331802 -0.205818 -0.16909
v 0.327856 -0.205818 -0.181554
v 0.326404 -0.205818 -0.185785
v 0.323035 -0.205818 -0.195353
v 0.32015 -0.205818 -0.202928
v 0.318977 -0.205818 -0.205768
v 0.316259 -0.205818 -0.211657
v 0.309838 -0.205818 -0.224627
v 0.314621 -0.195036 -0.223883
v 0.305817 -0.205818 -0.232212
v 0.305426 -0.205054 -0.233518
v 0.306766 -0.194388 -0.23873
v 0.302504 -0.198279 -0.24319
v 0.293904 -0.205818 -0.251004
v 0.296957 -0.194892 -0.253291
v 0.295096 -0.193753 -0.256416
v 0.300698 -0.181285 -0.25574
v 0.301219 -0.178647 -0.256416
v 0.303602 -0.172319 -0.256416
v 0.243238 -0.0585615 -0.256416
v 0.297813 -0.0585615 -0.159075
v 0.253606 -0.205818 -0.159075
v 0.304607 -0.205818 -0.234308
v 0.300959 -0.205818 -0.24034
v 0.290963 -0.205818 -0.25492
v 0.300177 -0.181285 -0.256416
v 0.290424 -0.204434 -0.256416
v 0.191604 -0.205818 -0.256416
v 0.289791 -0.205818 -0.256416
f 1 2 34
f 1 34 61
f 1 61 62
f 1 62 35
f 1 35 3
f 1 3 4
f 1 4 5
f 1 5 6
f 1 6 7
f 1 7 8
f 1 8 9
f 1 9 10
f 1 10 11
f 1 11 12
f 1 12 13
f 1 13 14
f 1 14 15
f 1 15 16
f 1 16 17
f 1 17 18
f 1 18 2
f 2 18 19
f 2 19 20
f 2 20 21
f 2 21 22
f 2 22 23
f 2 23 24
f 2 24 25
f 2 25 26
f 2 26 27
f 2 27 28
f 2 28 29
f 2 29 30
f 2 30 31
f 2 31 32
f 2 32 33
f 2 33 34
f 3 35 36
f 3 36 37
f 3 37 38
f 3 38 39
f 3 39 4
f 4 39 38
f 4 38 37
f 4 37 36
f 4 36 35
f 4 35 62
f 4 62 63
f 4 63 40
f 4 40 8
f 4 8 7
f 4 7 6
f 4 6 5
f 8 40 9
f 9 40 63
f 9 63 69
f 9 69 70
f 9 70 66
f 9 66 55
f 9 55 65
f 9 65 64
f 9 64 51
f 9 51 49
f 9 49 48
f 9 48 47
f 9 47 46
f 9 46 45
f 9 45 44
f 9 44 43
f 9 43 42
f 9 42 41
f 9 41 10
f 10 41 42
f 10 42 11
f 11 42 12
f 12 42 43
f 12 43 14
f 12 14 13
f 14 43 15
f 15 43 44
f 15 44 16
f 16 44 45
f 16 45 46
f 16 46 17
f 17 46 47
f 17 47 48
f 17 48 19
f 17 19 18
f 19 48 49
f 19 49 50
f 19 50 20
f 20 50 21
f 21 50 51
f 21 51 52
f 21 52 53
f 21 53 22
f 22 53 52
f 22 52 54
f 22 54 55
f 22 55 56
f 22 56 57
f 22 57 58
f 22 58 59
f 22 59 60
f 22 60 23
f 23 60 59
f 23 59 67
f 23 67 57
f 23 57 68
f 23 68 70
f 23 70 69
f 23 69 61
f 23 61 34
f 23 34 33
f 23 33 32
f 23 32 31
f 23 31 30
f 23 30 29
f 23 29 28
f 23 28 27
f 23 27 26
f 23 26 25
f 23 25 24
f 49 51 50
f 51 64 52
f 52 64 65
f 52 65 54
f 54 65 55
f 55 66 56
f 56 66 57
f 57 67 58
f 57 66 68
f 58 67 59
f 61 69 62
f 62 69 63
f 66 70 68
