v 0.10895 -0.306484 -0.256426
v 0.10895 -0.370572 -0.173211
v 0.10895 -0.417751 -0.256426
v -0.125331 -0.410767 -0.256426
v -0.125331 -0.459294 -0.173211
v 0.10895 -0.462325 -0.173211
v 0.10895 -0.417931 -0.25619
v 0.103836 -0.421187 -0.256426
v -0.125331 -0.498703 -0.256426
v -0.125331 -0.535867 -0.173211
v 0.10895 -0.460416 -0.178922
v 0.103836 -0.465446 -0.173211
v 0.102964 -0.464952 -0.176413
v 0.10895 -0.422848 -0.249705
v 0.0986302 -0.433335 -0.243978
v 0.0889755 -0.436299 -0.248157
v 0.0968644 -0.425431 -0.256426
v -0.125331 -0.499556 -0.255163
v -0.123863 -0.498613 -0.256426
v -0.125331 -0.533464 -0.181129
v -0.123267 -0.533285 -0.181301
v -0.123267 -0.535732 -0.173211
v 0.10895 -0.45963 -0.181268
v 0.0832194 -0.476854 -0.173211
v 0.0947317 -0.467827 -0.181268
v 0.0998915 -0.463178 -0.186082
v 0.108193 -0.46008 -0.181268
v 0.10895 -0.430191 -0.239196
v 0.103996 -0.436591 -0.234309
v 0.0939978 -0.439308 -0.239213
v 0.080651 -0.446561 -0.239946
v 0.0707899 -0.448695 -0.245208
v 0.0785641 -0.43832 -0.253322
v 0.081339 -0.434368 -0.256426
v -0.125331 -0.500455 -0.253811
v -0.123267 -0.50032 -0.253811
v -0.123267 -0.498568 -0.256426
v -0.125331 -0.528681 -0.195801
v -0.123267 -0.528569 -0.195801
v -0.108773 -0.532139 -0.181301
v -0.108773 -0.534564 -0.173211
v 0.10895 -0.45368 -0.19572
v 0.0767295 -0.48029 -0.173211
v 0.0749866 -0.479885 -0.177545
v 0.0797795 -0.475709 -0.181952
v 0.0902139 -0.465896 -0.192925
v 0.0866593 -0.463919 -0.202595
v 0.0947317 -0.461584 -0.196974
v 0.10895 -0.453635 -0.195825
v 0.10895 -0.430349 -0.238952
v 0.0950986 -0.446921 -0.225714
v 0.086086 -0.449076 -0.231156
v 0.10895 -0.439151 -0.224883
v 0.10895 -0.439308 -0.224623
v 0.0764084 -0.451726 -0.235539
v 0.0763855 -0.437175 -0.256426
v 0.0656759 -0.454533 -0.239946
v 0.0518475 -0.461427 -0.239913
v 0.0414819 -0.463223 -0.245143
v 0.0611123 -0.451165 -0.248711
v 0.0656759 -0.445079 -0.253648
v -0.123267 -0.506315 -0.244174
v -0.125331 -0.505597 -0.245534
v -0.108773 -0.498883 -0.253811
v -0.108773 -0.505642 -0.243172
v -0.108773 -0.497131 -0.256426
v -0.125331 -0.528007 -0.197675
v -0.123267 -0.5241 -0.207841
v -0.108773 -0.527379 -0.195801
v -0.0942568 -0.530635 -0.181301
v -0.0940963 -0.53297 -0.173211
v 0.0648733 -0.485769 -0.173211
v 0.0531088 -0.491023 -0.173211
v 0.0660658 -0.482423 -0.181952
v 0.071432 -0.478111 -0.187215
v 0.0831736 -0.462033 -0.21031
v 0.0950986 -0.454803 -0.211026
v 0.104386 -0.451344 -0.206668
v 0.0660658 -0.476607 -0.196844
v 0.0759268 -0.465851 -0.21031
v 0.0725787 -0.464144 -0.217617
v 0.10895 -0.446516 -0.210929
v 0.0908331 -0.451883 -0.221486
v 0.0793209 -0.456644 -0.224386
v 0.100488 -0.449009 -0.21633
v 0.0652631 -0.461854 -0.228101
v 0.0574201 -0.463807 -0.231547
v 0.0655613 -0.442968 -0.256426
v 0.0477425 -0.466187 -0.235474
v 0.0364826 -0.4685 -0.239913
v 0.0318043 -0.465289 -0.248223
v 0.0364826 -0.459316 -0.253363
v 0.0519163 -0.449817 -0.256426
v 0.0551039 -0.44829 -0.256426
v 0.0585897 -0.446539 -0.256426
v -0.108773 -0.509729 -0.235922
v -0.123267 -0.510268 -0.236924
v -0.125331 -0.510335 -0.237021
v -0.125331 -0.50636 -0.244272
v -0.097238 -0.495514 -0.256426
v -0.0956098 -0.496457 -0.254569
v -0.0942568 -0.504519 -0.241494
v -0.0942568 -0.508853 -0.234243
v -0.125331 -0.524168 -0.208004
v -0.123267 -0.521069 -0.215083
v -0.108773 -0.523471 -0.206171
v -0.125331 -0.523741 -0.209031
v -0.0942568 -0.522618 -0.204184
v -0.0942568 -0.525739 -0.195801
v -0.0797633 -0.528546 -0.181301
v -0.0797633 -0.530882 -0.173211
v 0.0462519 -0.493987 -0.173211
v 0.0449447 -0.49374 -0.175826
v 0.0501734 -0.489743 -0.180918
v 0.0361845 -0.490327 -0.196029
v 0.0617544 -0.480312 -0.192705
v 0.0573972 -0.478313 -0.202375
v 0.0652631 -0.471038 -0.21031
v 0.0518475 -0.469533 -0.225951
v 0.0652631 -0.465896 -0.220843
v 0.0429267 -0.478358 -0.217022
v 0.037354 -0.47636 -0.225413
v 0.0270343 -0.477842 -0.230651
v 0.022012 -0.474945 -0.239025
v 0.0236632 -0.462639 -0.256426
v 0.0274471 -0.460978 -0.256426
v 0.00724338 -0.477325 -0.244369
v 0.0217368 -0.467355 -0.251098
v 0.0171962 -0.465357 -0.256426
v 0.0364138 -0.456936 -0.256426
v -0.108773 -0.51514 -0.224802
v -0.123267 -0.516465 -0.224802
v -0.125331 -0.5166 -0.224802
v -0.0869413 -0.49383 -0.256426
v -0.0797633 -0.496098 -0.251139
v -0.0652469 -0.494886 -0.249233
v -0.079534 -0.504003 -0.238333
v -0.0842123 -0.508067 -0.23285
v -0.0942568 -0.513411 -0.224802
v -0.108773 -0.520283 -0.213421
v -0.125331 -0.521136 -0.215246
v -0.0942568 -0.519429 -0.211442
v -0.0868495 -0.522147 -0.203116
v -0.0811164 -0.523786 -0.195939
v -0.0716681 -0.529445 -0.173211
v -0.0652469 -0.522843 -0.190547
v -0.0652469 -0.525897 -0.181301
v -0.0652469 -0.528277 -0.173211
v 0.0362303 -0.498209 -0.173211
v 0.0361845 -0.495672 -0.180918
v 0.0410003 -0.492056 -0.185496
v 0.0313227 -0.4941 -0.191345
v 0.0269884 -0.492393 -0.201015
v 0.0518246 -0.483074 -0.196844
v 0.0477196 -0.480581 -0.207361
v 0.0518246 -0.476809 -0.211442
v 0.037354 -0.483343 -0.211442
v 0.0219891 -0.490215 -0.210293
v 0.0332491 -0.480424 -0.220981
v 0.022012 -0.482625 -0.225413
v 0.00206058 -0.493875 -0.218985
v 0.0173567 -0.479728 -0.233999
v 0.00724338 -0.481592 -0.237119
v -4.92265e-05 -0.478605 -0.246536
v 0.00816068 -0.469735 -0.254992
v 0.00953665 -0.468231 -0.256426
v -0.0797633 -0.492595 -0.256426
v -0.0651781 -0.489945 -0.256426
v -0.0551336 -0.493875 -0.247693
v -0.0652469 -0.500994 -0.23931
v -0.0766445 -0.492056 -0.256426
v -0.0745347 -0.507281 -0.23136
v -0.079534 -0.510717 -0.225836
v -0.0811164 -0.518666 -0.208892
v -0.0652469 -0.515208 -0.21031
v -0.0771949 -0.521316 -0.20086
v -0.0652469 -0.520215 -0.197797
v -0.0521753 -0.518913 -0.194359
v -0.0579772 -0.522124 -0.188567
v -0.0521753 -0.523449 -0.181015
v -0.0410988 -0.522753 -0.175989
v -0.0513956 -0.525537 -0.173211
v 0.0298321 -0.500814 -0.173211
v 0.0217368 -0.501465 -0.181301
v 0.00818362 -0.506158 -0.182351
v -0.000737207 -0.507393 -0.187883
v 0.00724338 -0.501532 -0.195801
v 0.0173108 -0.494122 -0.205446
v 0.0117153 -0.492034 -0.215108
v 0.00703698 -0.495784 -0.210293
v -0.00727303 -0.500432 -0.21031
v -0.026376 -0.508404 -0.204843
v -0.0216289 -0.504766 -0.209927
v -0.036237 -0.506518 -0.21514
v -0.00727303 -0.49529 -0.221625
v -0.00727303 -0.491293 -0.228875
v -0.00582827 -0.483927 -0.240744
v -0.0097039 -0.480222 -0.248923
v -0.00582827 -0.475462 -0.253778
v 0.0074039 -0.468994 -0.256426
v -0.0649717 -0.4899 -0.256426
v -0.0505471 -0.486532 -0.256426
v -0.0504783 -0.488912 -0.253037
v -0.0364664 -0.482805 -0.256426
v -0.0355949 -0.48359 -0.25496
v -0.045456 -0.492595 -0.245689
v -0.0504783 -0.497131 -0.240231
v -0.0652469 -0.506473 -0.229625
v -0.0652469 -0.509863 -0.222374
v -0.0535283 -0.508651 -0.219841
v -0.0495151 -0.51139 -0.211654
v -0.036237 -0.509841 -0.207898
v -0.036237 -0.514646 -0.195801
v -0.0482996 -0.521159 -0.185659
v -0.039654 -0.523112 -0.173211
v -0.03626 -0.519766 -0.181015
v -0.0217436 -0.515612 -0.181301
v -0.0322697 -0.521159 -0.173211
v 0.0219662 -0.504003 -0.173211
v 0.0135728 -0.507326 -0.173211
v 0.00398693 -0.50892 -0.178213
v -0.00626399 -0.510762 -0.182351
v -0.0103919 -0.508786 -0.191646
v -0.0166984 -0.506944 -0.201316
v -0.00626399 -0.505799 -0.196208
v -0.0216289 -0.510335 -0.196208
v -0.0438507 -0.507528 -0.217381
v -0.021262 -0.497019 -0.225747
v -0.0161021 -0.492663 -0.231213
v -0.036237 -0.501667 -0.224802
v -0.021262 -0.489811 -0.238838
v -0.036237 -0.49136 -0.243506
v -0.0217436 -0.482086 -0.251587
v -0.0188082 -0.477752 -0.256426
v -0.0141299 -0.476248 -0.256426
v -0.00617226 -0.47362 -0.256426
v -0.034219 -0.482198 -0.256426
v -0.036237 -0.495537 -0.236256
v -0.0495151 -0.505327 -0.224729
v -0.0217665 -0.518105 -0.173211
v 0.00598208 -0.509706 -0.173211
v -0.00683731 -0.513703 -0.173211
v -0.0257797 -0.494032 -0.23369
v -0.026376 -0.479998 -0.256426
v -0.0217436 -0.47865 -0.256426
f 1 2 6
f 1 6 11
f 1 11 23
f 1 23 42
f 1 42 49
f 1 49 82
f 1 82 54
f 1 54 53
f 1 53 50
f 1 50 28
f 1 28 14
f 1 14 7
f 1 7 3
f 1 3 8
f 1 8 17
f 1 17 34
f 1 34 56
f 1 56 88
f 1 88 95
f 1 95 94
f 1 94 93
f 1 93 130
f 1 130 126
f 1 126 125
f 1 125 129
f 1 129 166
f 1 166 200
f 1 200 236
f 1 236 235
f 1 235 234
f 1 234 245
f 1 245 244
f 1 244 237
f 1 237 204
f 1 204 202
f 1 202 201
f 1 201 168
f 1 168 171
f 1 171 167
f 1 167 134
f 1 134 100
f 1 100 66
f 1 66 37
f 1 37 19
f 1 19 9
f 1 9 4
f 1 4 5
f 1 5 2
f 2 5 10
f 2 10 22
f 2 22 41
f 2 41 71
f 2 71 111
f 2 111 145
f 2 145 148
f 2 148 182
f 2 182 215
f 2 215 218
f 2 218 240
f 2 240 242
f 2 242 241
f 2 241 220
f 2 220 219
f 2 219 183
f 2 183 149
f 2 149 112
f 2 112 73
f 2 73 72
f 2 72 43
f 2 43 24
f 2 24 12
f 2 12 6
f 3 7 8
f 4 9 18
f 4 18 35
f 4 35 63
f 4 63 99
f 4 99 98
f 4 98 133
f 4 133 141
f 4 141 107
f 4 107 104
f 4 104 67
f 4 67 38
f 4 38 20
f 4 20 10
f 4 10 5
f 6 12 13
f 6 13 11
f 7 14 8
f 8 15 16
f 8 16 17
f 8 14 15
f 9 19 18
f 10 20 21
f 10 21 22
f 11 13 23
f 12 24 13
f 13 24 25
f 13 25 26
f 13 26 27
f 13 27 23
f 14 28 15
f 15 29 30
f 15 30 16
f 15 28 29
f 16 31 32
f 16 32 33
f 16 33 34
f 16 34 17
f 16 30 31
f 18 19 36
f 18 36 35
f 19 37 36
f 20 38 39
f 20 39 21
f 21 39 40
f 21 40 22
f 22 40 41
f 23 27 26
f 23 26 42
f 24 43 44
f 24 44 25
f 25 44 45
f 25 45 46
f 25 46 26
f 26 46 47
f 26 47 48
f 26 48 49
f 26 49 42
f 28 50 29
f 29 51 52
f 29 52 30
f 29 50 53
f 29 53 54
f 29 54 51
f 30 52 31
f 31 52 55
f 31 55 32
f 32 56 33
f 32 55 57
f 32 57 58
f 32 58 59
f 32 59 60
f 32 60 61
f 32 61 56
f 33 56 34
f 35 36 62
f 35 62 63
f 36 37 66
f 36 66 64
f 36 64 65
f 36 65 62
f 38 67 39
f 39 68 69
f 39 69 40
f 39 67 68
f 40 69 70
f 40 70 41
f 41 70 71
f 43 72 44
f 44 72 73
f 44 73 74
f 44 74 75
f 44 75 45
f 45 75 46
f 46 75 47
f 47 76 77
f 47 77 78
f 47 78 49
f 47 49 48
f 47 75 79
f 47 79 80
f 47 80 81
f 47 81 76
f 49 78 82
f 51 83 52
f 51 54 83
f 52 83 84
f 52 84 55
f 54 82 85
f 54 85 83
f 55 81 86
f 55 86 87
f 55 87 57
f 55 84 81
f 56 61 88
f 57 87 58
f 58 87 89
f 58 89 59
f 59 90 91
f 59 91 92
f 59 92 93
f 59 93 60
f 59 89 90
f 60 93 94
f 60 94 95
f 60 95 61
f 61 95 88
f 62 65 96
f 62 96 97
f 62 97 98
f 62 98 99
f 62 99 63
f 64 66 100
f 64 100 101
f 64 101 65
f 65 101 102
f 65 102 103
f 65 103 96
f 67 104 68
f 68 105 106
f 68 106 69
f 68 104 107
f 68 107 105
f 69 106 108
f 69 108 109
f 69 109 70
f 70 109 110
f 70 110 71
f 71 110 111
f 73 112 113
f 73 113 74
f 74 113 114
f 74 114 115
f 74 115 75
f 75 115 116
f 75 116 79
f 76 83 85
f 76 85 77
f 76 81 83
f 77 85 78
f 78 85 82
f 79 116 117
f 79 117 118
f 79 118 80
f 80 118 81
f 81 119 120
f 81 120 87
f 81 87 86
f 81 84 83
f 81 118 121
f 81 121 119
f 87 119 89
f 87 120 119
f 89 119 122
f 89 122 123
f 89 123 90
f 90 123 124
f 90 124 91
f 91 125 126
f 91 126 92
f 91 124 127
f 91 127 128
f 91 128 129
f 91 129 125
f 92 130 93
f 92 126 130
f 96 103 131
f 96 131 132
f 96 132 97
f 97 132 133
f 97 133 98
f 100 134 101
f 101 134 135
f 101 135 102
f 102 135 136
f 102 136 137
f 102 137 138
f 102 138 103
f 103 138 139
f 103 139 131
f 105 132 131
f 105 131 140
f 105 140 106
f 105 107 141
f 105 141 132
f 106 140 142
f 106 142 108
f 108 142 143
f 108 143 109
f 109 143 144
f 109 144 110
f 110 145 111
f 110 144 146
f 110 146 147
f 110 147 148
f 110 148 145
f 112 149 113
f 113 149 150
f 113 150 151
f 113 151 114
f 114 151 115
f 115 151 152
f 115 152 153
f 115 153 154
f 115 154 116
f 116 154 117
f 117 154 155
f 117 155 118
f 118 155 156
f 118 156 121
f 119 121 122
f 121 157 158
f 121 158 159
f 121 159 122
f 121 156 155
f 121 155 157
f 122 159 123
f 123 159 160
f 123 160 161
f 123 161 162
f 123 162 124
f 124 162 127
f 127 163 164
f 127 164 128
f 127 162 163
f 128 165 166
f 128 166 129
f 128 164 165
f 131 139 140
f 132 141 133
f 134 167 136
f 134 136 135
f 136 168 169
f 136 169 170
f 136 170 137
f 136 167 171
f 136 171 168
f 137 170 138
f 138 170 172
f 138 172 173
f 138 173 139
f 139 173 174
f 139 174 143
f 139 143 142
f 139 142 140
f 143 174 175
f 143 175 176
f 143 176 144
f 144 176 146
f 146 177 178
f 146 178 179
f 146 179 147
f 146 176 177
f 147 179 180
f 147 180 148
f 148 180 181
f 148 181 182
f 149 183 184
f 149 184 150
f 150 184 152
f 150 152 151
f 152 184 153
f 153 157 155
f 153 155 154
f 153 184 185
f 153 185 186
f 153 186 187
f 153 187 188
f 153 188 189
f 153 189 158
f 153 158 157
f 158 189 159
f 159 189 160
f 160 189 161
f 161 190 191
f 161 191 192
f 161 192 193
f 161 193 194
f 161 194 195
f 161 195 196
f 161 196 197
f 161 197 164
f 161 164 163
f 161 163 162
f 161 189 190
f 164 197 198
f 164 198 199
f 164 199 200
f 164 200 165
f 165 200 166
f 168 201 169
f 169 201 202
f 169 202 203
f 169 203 204
f 169 204 205
f 169 205 206
f 169 206 207
f 169 207 170
f 170 207 208
f 170 208 172
f 172 208 209
f 172 209 173
f 173 209 174
f 174 209 175
f 175 209 210
f 175 210 211
f 175 211 178
f 175 178 177
f 175 177 176
f 178 211 212
f 178 212 213
f 178 213 214
f 178 214 179
f 179 214 180
f 180 214 181
f 181 215 182
f 181 214 213
f 181 213 216
f 181 216 217
f 181 217 218
f 181 218 215
f 183 219 184
f 184 219 220
f 184 220 185
f 185 220 186
f 186 190 187
f 186 220 221
f 186 221 222
f 186 222 217
f 186 217 213
f 186 213 223
f 186 223 224
f 186 224 225
f 186 225 191
f 186 191 190
f 187 190 188
f 188 190 189
f 191 225 224
f 191 224 192
f 192 224 226
f 192 226 213
f 192 213 212
f 192 212 193
f 193 212 194
f 194 212 227
f 194 227 195
f 195 228 229
f 195 229 196
f 195 227 230
f 195 230 228
f 196 229 197
f 197 229 231
f 197 231 198
f 198 231 232
f 198 232 233
f 198 233 234
f 198 234 235
f 198 235 199
f 199 235 236
f 199 236 200
f 202 204 203
f 204 237 205
f 205 237 233
f 205 233 206
f 206 233 232
f 206 232 207
f 207 232 238
f 207 238 239
f 207 239 208
f 208 239 210
f 208 210 209
f 210 239 227
f 210 227 211
f 211 227 212
f 213 226 223
f 213 217 216
f 217 222 240
f 217 240 218
f 220 241 221
f 221 241 242
f 221 242 222
f 222 242 240
f 223 226 224
f 227 239 230
f 228 243 229
f 228 230 243
f 229 243 231
f 230 239 238
f 230 238 243
f 231 243 238
f 231 238 232
f 233 237 244
f 233 244 245
f 233 245 234
