v 0.207365 0.196288 -0.246018
v 0.262948 0.196288 -0.139362
v 0.299229 0.196288 -0.246018
v 0.252585 -0.0585615 -0.246018
v 0.303108 -0.0585615 -0.139362
v 0.342837 0.196288 -0.139362
v 0.301478 0.196288 -0.242896
v 0.398776 0.166403 -0.181304
v 0.398776 0.161189 -0.190471
v 0.398776 0.151685 -0.198417
v 0.398776 0.151236 -0.198761
v 0.398776 0.145149 -0.203251
v 0.398776 0.138438 -0.206769
v 0.398776 0.122747 -0.213932
v 0.398776 0.112818 -0.217346
v 0.398776 0.108777 -0.218474
v 0.398776 0.106956 -0.218913
v 0.398776 0.0955558 -0.221606
v 0.299548 0.195565 -0.246018
v 0.337234 -0.0585615 -0.246018
v 0.376513 -0.0585615 -0.139362
v 0.398776 0.170519 -0.166801
v 0.340307 0.196288 -0.152298
v 0.398776 0.16296 -0.139362
v 0.398776 0.168897 -0.152298
v 0.30174 0.196288 -0.24252
v 0.306594 0.196288 -0.235211
v 0.398776 0.0797648 -0.224331
v 0.303595 0.18631 -0.246018
v 0.303221 0.187183 -0.246018
v 0.398776 -0.021741 -0.224217
v 0.398776 -0.0226889 -0.223903
v 0.398776 -0.0352618 -0.219748
v 0.398776 -0.0364841 -0.219069
v 0.392611 -0.0440678 -0.218056
v 0.398776 -0.0464127 -0.211384
v 0.398776 -0.0476849 -0.210215
v 0.398776 -0.0479344 -0.209735
v 0.398776 -0.055069 -0.195848
v 0.377919 -0.0585615 -0.20418
v 0.338752 -0.0510776 -0.246018
v 0.398776 -0.00714748 -0.226628
v 0.398776 -0.00724726 -0.226618
v 0.381442 -0.0585615 -0.182536
v 0.389256 -0.0575387 -0.195796
v 0.398776 -0.055518 -0.181387
v 0.398776 -0.0554931 -0.181304
v 0.398776 -0.0503542 -0.166864
v 0.398776 -0.0449908 -0.157644
v 0.398776 -0.0381805 -0.150367
v 0.398776 -0.0309461 -0.143173
v 0.398776 -0.0278278 -0.140646
v 0.398758 -0.0262313 -0.139362
v 0.312403 0.196288 -0.225177
v 0.313209 0.196288 -0.223695
v 0.315233 0.196288 -0.219967
v 0.317857 0.196288 -0.21507
v 0.319656 0.196288 -0.211311
v 0.320855 0.196288 -0.208785
v 0.32629 0.196288 -0.196276
v 0.326496 0.196288 -0.195765
v 0.331762 0.196288 -0.181972
v 0.331818 0.196288 -0.181815
v 0.334067 0.196288 -0.175196
v 0.336503 0.196288 -0.167093
v 0.336541 0.196288 -0.166958
v 0.337459 0.196288 -0.163428
v 0.340195 0.196288 -0.152852
v 0.398776 -0.0203689 -0.139362
v 0.398776 0.0652711 -0.225647
v 0.341469 0.0797648 -0.246018
v 0.383503 0.0807377 -0.230022
v 0.376888 0.0862009 -0.231974
v 0.304195 0.184813 -0.246018
v 0.38176 -0.0585615 -0.195796
v 0.341713 -0.0362347 -0.246018
v 0.398776 0.00727138 -0.227579
v 0.34458 -0.021741 -0.246018
v 0.398776 0.0507774 -0.226388
v 0.343868 0.0652711 -0.246018
v 0.33729 0.0923377 -0.246018
v 0.318925 0.144001 -0.246018
v 0.307962 0.17466 -0.246018
v 0.30665 0.178252 -0.246018
v 0.346866 -0.00724726 -0.246018
v 0.38905 0.00727138 -0.231181
v 0.398776 0.00734622 -0.227579
v 0.398776 0.0362837 -0.227004
v 0.388994 0.0217651 -0.231139
v 0.345086 0.0507774 -0.246018
v 0.347953 0.00727138 -0.246018
v 0.398776 0.0217651 -0.227526
v 0.347372 0.0217152 -0.246018
v 0.346229 0.0362837 -0.246018
f 1 2 6
f 1 6 23
f 1 23 68
f 1 68 67
f 1 67 66
f 1 66 65
f 1 65 64
f 1 64 63
f 1 63 62
f 1 62 61
f 1 61 60
f 1 60 59
f 1 59 58
f 1 58 57
f 1 57 56
f 1 56 55
f 1 55 54
f 1 54 27
f 1 27 26
f 1 26 7
f 1 7 3
f 1 3 19
f 1 19 30
f 1 30 29
f 1 29 74
f 1 74 84
f 1 84 83
f 1 83 82
f 1 82 81
f 1 81 71
f 1 71 80
f 1 80 90
f 1 90 94
f 1 94 93
f 1 93 91
f 1 91 85
f 1 85 78
f 1 78 76
f 1 76 41
f 1 41 20
f 1 20 4
f 1 4 5
f 1 5 2
f 2 5 21
f 2 21 53
f 2 53 69
f 2 69 24
f 2 24 6
f 3 7 8
f 3 8 9
f 3 9 10
f 3 10 11
f 3 11 12
f 3 12 13
f 3 13 14
f 3 14 15
f 3 15 16
f 3 16 17
f 3 17 18
f 3 18 19
f 4 20 40
f 4 40 75
f 4 75 44
f 4 44 21
f 4 21 5
f 6 22 23
f 6 24 25
f 6 25 22
f 7 26 8
f 8 26 27
f 8 27 22
f 8 22 25
f 8 25 24
f 8 24 69
f 8 69 52
f 8 52 51
f 8 51 50
f 8 50 49
f 8 49 48
f 8 48 47
f 8 47 46
f 8 46 39
f 8 39 38
f 8 38 37
f 8 37 36
f 8 36 34
f 8 34 33
f 8 33 32
f 8 32 31
f 8 31 43
f 8 43 42
f 8 42 77
f 8 77 87
f 8 87 92
f 8 92 88
f 8 88 79
f 8 79 70
f 8 70 28
f 8 28 18
f 8 18 17
f 8 17 16
f 8 16 15
f 8 15 14
f 8 14 13
f 8 13 12
f 8 12 11
f 8 11 10
f 8 10 9
f 18 28 29
f 18 29 30
f 18 30 19
f 20 31 32
f 20 32 33
f 20 33 34
f 20 34 35
f 20 35 36
f 20 36 37
f 20 37 38
f 20 38 39
f 20 39 40
f 20 41 42
f 20 42 43
f 20 43 31
f 21 44 45
f 21 45 46
f 21 46 47
f 21 47 48
f 21 48 49
f 21 49 50
f 21 50 51
f 21 51 52
f 21 52 53
f 22 27 54
f 22 54 55
f 22 55 56
f 22 56 57
f 22 57 58
f 22 58 59
f 22 59 60
f 22 60 61
f 22 61 62
f 22 62 63
f 22 63 64
f 22 64 65
f 22 65 66
f 22 66 67
f 22 67 68
f 22 68 23
f 28 70 71
f 28 71 72
f 28 72 73
f 28 73 74
f 28 74 29
f 34 36 35
f 39 46 45
f 39 45 40
f 40 45 75
f 41 76 42
f 42 76 78
f 42 78 77
f 44 75 45
f 52 69 53
f 70 79 80
f 70 80 71
f 71 81 73
f 71 73 72
f 73 81 82
f 73 82 83
f 73 83 84
f 73 84 74
f 77 78 85
f 77 85 86
f 77 86 87
f 79 88 80
f 80 88 89
f 80 89 90
f 85 91 86
f 86 89 92
f 86 92 87
f 86 91 89
f 88 92 89
f 89 91 93
f 89 93 94
f 89 94 90
