v -0.68975 -0.0206256 -0.223957
v -0.611141 0.00057724 -0.223079
v -0.689399 -0.0032004 -0.225536
v -0.681926 -0.0217611 -0.23989
v -0.681556 -0.0362602 -0.239239
v -0.689232 -0.0352121 -0.223518
v -0.500811 0.00057724 -0.314427
v -0.680373 -0.00237063 -0.243422
v -0.678541 -0.108254 -0.223274
v -0.662524 -0.165486 -0.223079
v -0.548772 -0.2225 -0.223079
v -0.673899 -0.0217611 -0.253837
v -0.672993 -0.0362602 -0.253837
v -0.680909 -0.050803 -0.238051
v -0.687993 -0.0498204 -0.223518
v -0.500811 -0.00389915 -0.389338
v -0.573797 -0.00335325 -0.34901
v -0.586319 -0.00335325 -0.341263
v -0.595234 -0.00335325 -0.335372
v -0.603502 -0.00335325 -0.329399
v -0.611881 -0.00335325 -0.323003
v -0.500811 -0.2225 -0.272927
v -0.61939 -0.00335325 -0.316803
v -0.641882 -0.00335325 -0.295776
v -0.649928 -0.00335325 -0.286972
v -0.656106 -0.00335325 -0.27973
v -0.66589 -0.00335325 -0.266596
v -0.673566 -0.00335325 -0.254895
v -0.680354 -0.0943005 -0.225227
v -0.673141 -0.0943005 -0.239337
v -0.668184 -0.110153 -0.242478
v -0.675268 -0.122251 -0.223518
v -0.685478 -0.0657608 -0.224543
v -0.665872 -0.152253 -0.225211
v -0.655162 -0.166774 -0.236505
v -0.65383 -0.184811 -0.226968
v -0.651001 -0.195576 -0.223616
v -0.642992 -0.21132 -0.22591
v -0.638183 -0.219181 -0.228531
v -0.630673 -0.2225 -0.238523
v -0.665761 -0.0217611 -0.266499
v -0.665372 -0.0362602 -0.265897
v -0.668516 -0.0520477 -0.258866
v -0.670755 -0.0652804 -0.252503
v -0.680909 -0.0672893 -0.233673
v -0.500811 -0.0217611 -0.389012
v -0.574019 -0.0217611 -0.348684
v -0.587429 -0.0217611 -0.340417
v -0.599858 -0.0217611 -0.331954
v -0.612658 -0.0217611 -0.321945
v -0.513777 -0.2225 -0.344746
v -0.505232 -0.221627 -0.349433
v -0.500811 -0.209923 -0.355162
v -0.61989 -0.0217611 -0.315826
v -0.632708 -0.0053185 -0.30489
v -0.63526 -0.0217611 -0.301798
v -0.642363 -0.0217611 -0.294556
v -0.649613 -0.0217611 -0.286646
v -0.655958 -0.0217611 -0.279388
v -0.682389 -0.079583 -0.226578
v -0.675915 -0.0797795 -0.239337
v -0.667832 -0.0984712 -0.247669
v -0.66269 -0.107992 -0.252617
v -0.657382 -0.123954 -0.254976
v -0.666981 -0.123277 -0.23906
v -0.665594 -0.135199 -0.235903
v -0.668369 -0.14127 -0.227115
v -0.657437 -0.153236 -0.240509
v -0.651685 -0.162757 -0.244951
v -0.651056 -0.178915 -0.236196
v -0.637202 -0.200686 -0.244984
v -0.637702 -0.209224 -0.237563
v -0.61989 -0.2225 -0.254814
v -0.625217 -0.222238 -0.247344
v -0.655551 -0.0362602 -0.278932
v -0.654848 -0.050803 -0.278102
v -0.660156 -0.0652804 -0.268338
v -0.66626 -0.0652804 -0.259745
v -0.667314 -0.0797795 -0.254195
v -0.500811 -0.0362602 -0.387922
v -0.558427 -0.050803 -0.355812
v -0.558427 -0.0362602 -0.356789
v -0.573353 -0.0362602 -0.348326
v -0.587429 -0.0362602 -0.339636
v -0.599322 -0.0362602 -0.33158
v -0.612269 -0.0362602 -0.321555
v -0.619501 -0.0362602 -0.315517
v -0.544092 -0.2225 -0.32686
v -0.532736 -0.221277 -0.334574
v -0.529388 -0.210294 -0.340531
v -0.518808 -0.210294 -0.346357
v -0.511557 -0.210294 -0.350003
v -0.518734 -0.199223 -0.349889
v -0.500811 -0.194441 -0.359621
v -0.627991 -0.0217611 -0.308584
v -0.627566 -0.0362602 -0.308275
v -0.634816 -0.0362602 -0.301375
v -0.641974 -0.0362602 -0.294116
v -0.649225 -0.0362602 -0.286174
v -0.663578 -0.0943005 -0.255627
v -0.652203 -0.108778 -0.267849
v -0.651648 -0.125526 -0.262804
v -0.653405 -0.137776 -0.255058
v -0.651722 -0.15114 -0.251201
v -0.64351 -0.167757 -0.255025
v -0.641013 -0.181295 -0.250989
v -0.639107 -0.191012 -0.24806
v -0.637036 -0.177278 -0.259452
v -0.633559 -0.195816 -0.253268
v -0.624458 -0.211495 -0.256099
v -0.613102 -0.2225 -0.263976
v -0.648467 -0.050803 -0.285361
v -0.653793 -0.0652804 -0.276914
v -0.653793 -0.078382 -0.274099
v -0.653756 -0.0943005 -0.269965
v -0.500811 -0.0511961 -0.385953
v -0.538414 -0.0797795 -0.363478
v -0.558427 -0.0652804 -0.354608
v -0.571596 -0.0652804 -0.34722
v -0.572502 -0.050803 -0.347805
v -0.586338 -0.0652804 -0.337748
v -0.596085 -0.0522224 -0.33241
v -0.611511 -0.050803 -0.320936
v -0.618762 -0.050803 -0.314866
v -0.626863 -0.050803 -0.307624
v -0.570449 -0.2225 -0.307266
v -0.556226 -0.222435 -0.318609
v -0.542613 -0.210294 -0.332719
v -0.549401 -0.193873 -0.334428
v -0.526669 -0.194397 -0.347171
v -0.514905 -0.181295 -0.356659
v -0.501791 -0.182846 -0.362241
v -0.500811 -0.154721 -0.368962
v -0.634113 -0.050803 -0.300626
v -0.641235 -0.050803 -0.293368
v -0.642252 -0.108778 -0.280478
v -0.640273 -0.123277 -0.278249
v -0.638885 -0.13295 -0.27654
v -0.643103 -0.137776 -0.269217
v -0.641586 -0.152253 -0.265473
v -0.639681 -0.163586 -0.263032
v -0.624847 -0.179483 -0.273936
v -0.624976 -0.199856 -0.262788
v -0.599914 -0.2225 -0.279307
v -0.61608 -0.209617 -0.267996
v -0.607146 -0.218897 -0.273301
v -0.647301 -0.0652804 -0.284156
v -0.638553 -0.0836663 -0.290552
v -0.640051 -0.0951958 -0.286451
v -0.500811 -0.0807185 -0.382014
v -0.537952 -0.095174 -0.361655
v -0.543907 -0.108778 -0.356773
v -0.567934 -0.0932742 -0.346455
v -0.570542 -0.0797795 -0.346552
v -0.588853 -0.0797795 -0.334558
v -0.593607 -0.0652804 -0.332817
v -0.601875 -0.0652804 -0.326665
v -0.610494 -0.0652804 -0.320172
v -0.61251 -0.078251 -0.316803
v -0.617763 -0.0652804 -0.313906
v -0.624828 -0.0797795 -0.30572
v -0.585875 -0.2225 -0.293628
v -0.577885 -0.21881 -0.302612
v -0.581473 -0.205446 -0.305671
v -0.563421 -0.207346 -0.319569
v -0.557447 -0.195314 -0.328341
v -0.554006 -0.181295 -0.335421
v -0.543907 -0.181295 -0.341345
v -0.53059 -0.181295 -0.348684
v -0.53059 -0.16767 -0.352102
v -0.529388 -0.152253 -0.356366
v -0.512001 -0.165508 -0.361753
v -0.504177 -0.170421 -0.364226
v -0.51559 -0.152253 -0.362876
v -0.500811 -0.137776 -0.37225
v -0.624089 -0.0889725 -0.30502
v -0.640051 -0.0652804 -0.29218
v -0.636019 -0.108778 -0.28772
v -0.634224 -0.123277 -0.285507
v -0.631302 -0.13889 -0.283278
v -0.637387 -0.142602 -0.274652
v -0.635797 -0.152253 -0.272716
v -0.626049 -0.166774 -0.278412
v -0.60833 -0.186536 -0.289169
v -0.612676 -0.195795 -0.279567
v -0.619927 -0.195795 -0.271186
v -0.619557 -0.166774 -0.28567
v -0.602189 -0.210861 -0.283131
v -0.593052 -0.21929 -0.28842
v -0.610364 -0.205621 -0.276963
v -0.632079 -0.0797795 -0.298136
v -0.500811 -0.124565 -0.374609
v -0.514905 -0.123277 -0.368588
v -0.528685 -0.123277 -0.362225
v -0.530867 -0.108778 -0.363282
v -0.543907 -0.123277 -0.354576
v -0.563254 -0.108778 -0.346748
v -0.587503 -0.0943005 -0.333614
v -0.572909 -0.108778 -0.340808
v -0.600765 -0.0943005 -0.32385
v -0.603188 -0.0804346 -0.323915
v -0.608478 -0.0900206 -0.318479
v -0.596344 -0.206407 -0.291805
v -0.587688 -0.210774 -0.297648
v -0.591184 -0.195795 -0.301537
v -0.593533 -0.186078 -0.303653
v -0.583933 -0.195795 -0.30764
v -0.581177 -0.170552 -0.31983
v -0.563809 -0.169831 -0.332296
v -0.566787 -0.156206 -0.334314
v -0.558427 -0.152253 -0.340547
v -0.544721 -0.152253 -0.348473
v -0.538617 -0.169329 -0.34748
v -0.551232 -0.137973 -0.348082
v -0.525966 -0.135614 -0.361395
v -0.518512 -0.14044 -0.363868
v -0.617411 -0.0939948 -0.309837
v -0.614322 -0.108778 -0.309268
v -0.622905 -0.0986459 -0.303897
v -0.628787 -0.108778 -0.295369
v -0.626974 -0.123277 -0.293482
v -0.625217 -0.135134 -0.291708
v -0.622905 -0.148519 -0.289283
v -0.628565 -0.152253 -0.281325
v -0.610327 -0.176863 -0.291285
v -0.601985 -0.18147 -0.297469
v -0.598915 -0.195795 -0.294295
v -0.606184 -0.195795 -0.286809
v -0.612325 -0.166774 -0.293303
v -0.55371 -0.123277 -0.349449
v -0.560961 -0.123277 -0.345446
v -0.58569 -0.108778 -0.332312
v -0.57868 -0.121705 -0.334623
v -0.598934 -0.108778 -0.322499
v -0.606184 -0.108778 -0.31651
v -0.595678 -0.176382 -0.305508
v -0.589279 -0.166774 -0.314508
v -0.592108 -0.152253 -0.316917
v -0.584858 -0.152253 -0.322662
v -0.574889 -0.152253 -0.329904
v -0.571633 -0.165683 -0.32813
v -0.574038 -0.137776 -0.334249
v -0.61238 -0.123277 -0.307494
v -0.621573 -0.108778 -0.302628
v -0.619612 -0.123277 -0.300724
v -0.609809 -0.141532 -0.305199
v -0.613879 -0.150987 -0.297745
v -0.604889 -0.166774 -0.300561
v -0.607275 -0.154961 -0.302839
v -0.586319 -0.123037 -0.328764
v -0.596751 -0.123277 -0.320757
v -0.604002 -0.123277 -0.314752
v -0.597639 -0.166774 -0.307266
v -0.60082 -0.137558 -0.313711
v -0.593181 -0.136248 -0.320318
f 1 2 3
f 1 3 4
f 1 4 5
f 1 5 6
f 1 6 2
f 2 7 8
f 2 8 3
f 2 6 9
f 2 9 10
f 2 10 11
f 2 11 7
f 3 8 4
f 4 8 12
f 4 12 5
f 5 12 13
f 5 13 14
f 5 14 6
f 6 14 15
f 6 15 9
f 7 16 17
f 7 17 18
f 7 18 19
f 7 19 20
f 7 20 21
f 7 21 8
f 7 11 22
f 7 22 53
f 7 53 94
f 7 94 133
f 7 133 175
f 7 175 192
f 7 192 150
f 7 150 116
f 7 116 80
f 7 80 46
f 7 46 16
f 8 21 23
f 8 23 24
f 8 24 25
f 8 25 26
f 8 26 27
f 8 27 28
f 8 28 12
f 9 29 30
f 9 30 31
f 9 31 32
f 9 32 10
f 9 15 33
f 9 33 29
f 10 34 35
f 10 35 36
f 10 36 37
f 10 37 11
f 10 32 34
f 11 37 38
f 11 38 39
f 11 39 40
f 11 40 73
f 11 73 111
f 11 111 144
f 11 144 162
f 11 162 126
f 11 126 88
f 11 88 51
f 11 51 22
f 12 41 42
f 12 42 13
f 12 28 41
f 13 42 43
f 13 43 14
f 14 43 44
f 14 44 45
f 14 45 33
f 14 33 15
f 16 46 47
f 16 47 17
f 17 47 48
f 17 48 18
f 18 48 19
f 19 48 49
f 19 49 20
f 20 49 21
f 21 49 50
f 21 50 23
f 22 51 52
f 22 52 53
f 23 50 54
f 23 54 55
f 23 55 24
f 24 55 56
f 24 56 57
f 24 57 58
f 24 58 25
f 25 58 59
f 25 59 26
f 26 59 41
f 26 41 27
f 27 41 28
f 29 33 60
f 29 60 61
f 29 61 30
f 30 62 31
f 30 61 62
f 31 62 63
f 31 63 64
f 31 64 65
f 31 65 32
f 32 65 66
f 32 66 67
f 32 67 34
f 33 45 60
f 34 67 68
f 34 68 35
f 35 68 69
f 35 69 70
f 35 70 36
f 36 70 71
f 36 71 72
f 36 72 37
f 37 72 38
f 38 72 39
f 39 72 40
f 40 72 71
f 40 71 74
f 40 74 73
f 41 59 75
f 41 75 42
f 42 75 76
f 42 76 77
f 42 77 43
f 43 77 78
f 43 78 44
f 44 78 79
f 44 79 61
f 44 61 45
f 45 61 60
f 46 80 81
f 46 81 82
f 46 82 47
f 47 82 83
f 47 83 48
f 48 83 84
f 48 84 85
f 48 85 49
f 49 85 86
f 49 86 50
f 50 86 87
f 50 87 54
f 51 88 89
f 51 89 90
f 51 90 91
f 51 91 52
f 52 91 92
f 52 92 53
f 53 92 93
f 53 93 94
f 54 95 55
f 54 87 95
f 55 95 56
f 56 95 96
f 56 96 97
f 56 97 98
f 56 98 57
f 57 98 58
f 58 98 99
f 58 99 59
f 59 99 75
f 61 79 62
f 62 79 100
f 62 100 63
f 63 100 101
f 63 101 64
f 64 102 103
f 64 103 66
f 64 66 65
f 64 101 102
f 66 103 104
f 66 104 68
f 66 68 67
f 68 104 69
f 69 105 106
f 69 106 70
f 69 104 105
f 70 106 107
f 70 107 71
f 71 107 108
f 71 108 109
f 71 109 110
f 71 110 74
f 73 74 110
f 73 110 111
f 75 99 76
f 76 99 112
f 76 112 113
f 76 113 77
f 77 113 114
f 77 114 78
f 78 114 115
f 78 115 79
f 79 115 100
f 80 116 117
f 80 117 118
f 80 118 81
f 81 118 119
f 81 119 120
f 81 120 83
f 81 83 82
f 83 120 84
f 84 120 119
f 84 119 121
f 84 121 122
f 84 122 85
f 85 122 123
f 85 123 86
f 86 123 87
f 87 123 124
f 87 124 125
f 87 125 96
f 87 96 95
f 88 126 127
f 88 127 128
f 88 128 89
f 89 128 90
f 90 128 129
f 90 129 130
f 90 130 91
f 91 130 93
f 91 93 92
f 93 130 131
f 93 131 94
f 94 131 132
f 94 132 133
f 96 125 97
f 97 125 134
f 97 134 98
f 98 134 135
f 98 135 99
f 99 135 112
f 100 115 101
f 101 115 136
f 101 136 137
f 101 137 102
f 102 137 138
f 102 138 139
f 102 139 140
f 102 140 103
f 103 140 141
f 103 141 104
f 104 141 105
f 105 141 108
f 105 108 106
f 106 108 107
f 108 142 143
f 108 143 109
f 108 141 142
f 109 143 110
f 110 143 111
f 111 143 145
f 111 145 146
f 111 146 144
f 112 135 147
f 112 147 113
f 113 147 148
f 113 148 149
f 113 149 114
f 114 149 136
f 114 136 115
f 116 150 151
f 116 151 117
f 117 151 152
f 117 152 153
f 117 153 118
f 118 153 154
f 118 154 119
f 119 154 121
f 121 154 155
f 121 155 156
f 121 156 122
f 122 156 157
f 122 157 158
f 122 158 123
f 123 158 124
f 124 158 159
f 124 159 160
f 124 160 125
f 125 160 161
f 125 161 134
f 126 162 163
f 126 163 164
f 126 164 165
f 126 165 127
f 127 165 128
f 128 165 129
f 129 166 167
f 129 167 168
f 129 168 130
f 129 165 166
f 130 168 169
f 130 169 131
f 131 169 170
f 131 170 171
f 131 171 172
f 131 172 173
f 131 173 132
f 132 173 133
f 133 173 172
f 133 172 174
f 133 174 175
f 134 161 135
f 135 161 176
f 135 176 177
f 135 177 147
f 136 149 178
f 136 178 179
f 136 179 137
f 137 179 138
f 138 179 180
f 138 180 181
f 138 181 140
f 138 140 139
f 140 182 141
f 140 181 182
f 141 182 183
f 141 183 142
f 142 184 185
f 142 185 186
f 142 186 143
f 142 183 187
f 142 187 184
f 143 186 145
f 144 146 188
f 144 188 189
f 144 189 162
f 145 190 146
f 145 186 190
f 146 190 188
f 147 177 148
f 148 177 191
f 148 191 176
f 148 176 149
f 149 176 178
f 150 192 193
f 150 193 194
f 150 194 195
f 150 195 151
f 151 195 152
f 152 195 194
f 152 194 196
f 152 196 197
f 152 197 153
f 153 198 154
f 153 197 199
f 153 199 198
f 154 198 155
f 155 198 200
f 155 200 201
f 155 201 156
f 156 201 157
f 157 201 158
f 158 201 202
f 158 202 159
f 159 202 176
f 159 176 161
f 159 161 160
f 162 189 203
f 162 203 204
f 162 204 163
f 163 204 164
f 164 205 206
f 164 206 207
f 164 207 165
f 164 204 205
f 165 207 208
f 165 208 166
f 166 208 167
f 167 208 209
f 167 209 210
f 167 210 211
f 167 211 168
f 168 211 212
f 168 212 213
f 168 213 169
f 169 213 170
f 170 213 212
f 170 212 171
f 171 212 214
f 171 214 215
f 171 215 174
f 171 174 172
f 174 215 216
f 174 216 175
f 175 216 193
f 175 193 192
f 176 202 217
f 176 217 218
f 176 218 219
f 176 219 220
f 176 220 178
f 176 191 177
f 178 220 221
f 178 221 179
f 179 221 222
f 179 222 180
f 180 223 224
f 180 224 181
f 180 222 223
f 181 224 182
f 182 224 183
f 183 224 223
f 183 223 187
f 184 187 225
f 184 225 226
f 184 226 227
f 184 227 203
f 184 203 228
f 184 228 185
f 185 228 190
f 185 190 186
f 187 223 229
f 187 229 225
f 188 190 228
f 188 228 203
f 188 203 189
f 193 216 215
f 193 215 194
f 194 215 196
f 196 215 214
f 196 214 230
f 196 230 197
f 197 230 231
f 197 231 199
f 198 199 232
f 198 232 200
f 199 231 233
f 199 233 232
f 200 232 234
f 200 234 202
f 200 202 201
f 202 234 235
f 202 235 217
f 203 227 205
f 203 205 204
f 205 227 206
f 206 227 226
f 206 226 236
f 206 236 237
f 206 237 208
f 206 208 207
f 208 237 238
f 208 238 239
f 208 239 240
f 208 240 241
f 208 241 209
f 209 241 240
f 209 240 210
f 210 240 242
f 210 242 211
f 211 242 231
f 211 231 214
f 211 214 212
f 214 231 230
f 217 235 218
f 218 235 243
f 218 243 219
f 219 243 244
f 219 244 221
f 219 221 220
f 221 245 246
f 221 246 222
f 221 244 245
f 222 246 247
f 222 247 223
f 223 247 229
f 225 229 248
f 225 248 226
f 226 248 236
f 229 247 249
f 229 249 248
f 231 242 233
f 232 233 250
f 232 250 234
f 233 242 250
f 234 250 251
f 234 251 235
f 235 251 252
f 235 252 246
f 235 246 243
f 236 248 249
f 236 249 253
f 236 253 237
f 237 253 246
f 237 246 238
f 238 246 254
f 238 254 255
f 238 255 239
f 239 255 250
f 239 250 242
f 239 242 240
f 243 246 244
f 244 246 245
f 246 252 254
f 246 253 249
f 246 249 247
f 250 255 251
f 251 255 254
f 251 254 252
