v 0.420193 -0.0585615 0.252848
v 0.345472 -0.226041 0.282801
v 0.345684 -0.226533 0.268305
v 0.344642 -0.229507 0.25381
v 0.344854 -0.229643 0.239259
v 0.34609 -0.227332 0.210268
v 0.346107 -0.227366 0.195773
v 0.345066 -0.229778 0.123354
v 0.34609 -0.227383 0.108802
v 0.349091 -0.219907 0.0798686
v 0.353223 -0.21029 0.0798686
v 0.353011 -0.21029 0.0653169
v 0.420052 -0.0585615 0.244298
v 0.41954 -0.0585615 0.260095
v 0.355042 -0.19578 0.384323
v 0.350168 -0.207775 0.384323
v 0.343353 -0.2248 0.369828
v 0.343812 -0.2248 0.355333
v 0.340546 -0.23214 0.355333
v 0.340758 -0.23214 0.348142
v 0.341181 -0.23214 0.333647
v 0.342029 -0.23214 0.304204
v 0.342876 -0.23214 0.274647
v 0.343847 -0.23214 0.210268
v 0.344924 -0.229694 0.224763
v 0.3439 -0.23214 0.195773
v 0.343989 -0.23214 0.152288
v 0.345048 -0.229778 0.166726
v 0.344006 -0.23214 0.137736
v 0.343971 -0.23214 0.114578
v 0.344942 -0.229711 0.0957793
v 0.34586 -0.226958 0.0653169
v 0.349003 -0.21972 0.0653169
v 0.348862 -0.219431 0.0507651
v 0.352587 -0.21029 0.0507651
v 0.348332 -0.218208 0.0217748
v 0.347944 -0.217239 0.00297645
v 0.347732 -0.216662 -0.00721544
v 0.347414 -0.215761 -0.0217106
v 0.347008 -0.214708 -0.0362057
v 0.36251 -0.173862 -0.0275992
v 0.362245 -0.173063 -0.0362057
v 0.364717 -0.165808 -0.0362057
v 0.364117 -0.164228 -0.0507575
v 0.366589 -0.152283 -0.0652526
v 0.364858 -0.153693 -0.0811067
v 0.364523 -0.151145 -0.0942429
v 0.36959 -0.137807 -0.0797477
v 0.368301 -0.137807 -0.0942429
v 0.371762 -0.123297 -0.0942429
v 0.37351 -0.108786 -0.108738
v 0.376776 -0.0996964 -0.0942429
v 0.376847 -0.0918466 -0.107153
v 0.379972 -0.0797831 -0.0942429
v 0.381808 -0.0652729 -0.0942429
v 0.381861 -0.0585615 -0.100924
v 0.381473 -0.0585615 0.407708
v 0.384704 -0.0619257 0.398762
v 0.382568 -0.0797831 0.398762
v 0.377359 -0.102993 0.406575
v 0.376388 -0.11266 0.402442
v 0.375064 -0.122413 0.398082
v 0.371338 -0.137807 0.398762
v 0.367648 -0.152283 0.398762
v 0.364117 -0.164279 0.398762
v 0.362475 -0.173709 0.389646
v 0.353223 -0.19578 0.398762
v 0.349268 -0.205719 0.398762
v 0.346937 -0.21503 0.384323
v 0.346072 -0.212975 0.398762
v 0.340069 -0.23214 0.369658
v 0.342559 -0.2248 0.384323
v 0.343636 -0.23214 0.0798686
v 0.34353 -0.23214 0.0713754
v 0.344501 -0.229405 0.0507651
v 0.344271 -0.22915 0.03627
v 0.348615 -0.218904 0.03627
v 0.345366 -0.225446 0.0217748
v 0.344271 -0.2248 -0.00721544
v 0.343547 -0.2248 -0.0217106
v 0.342717 -0.2248 -0.0362057
v 0.349674 -0.207435 -0.0362057
v 0.341605 -0.2248 -0.0507575
v 0.346443 -0.213365 -0.0507575
v 0.348367 -0.203731 -0.0757842
v 0.348738 -0.204751 -0.0652526
v 0.352075 -0.19578 -0.0652526
v 0.353011 -0.19578 -0.0507575
v 0.353947 -0.19578 -0.0362057
v 0.357231 -0.18127 -0.0652526
v 0.361751 -0.171483 -0.0507575
v 0.361168 -0.169648 -0.0652526
v 0.363499 -0.162393 -0.0652526
v 0.362563 -0.159487 -0.0868254
v 0.36221 -0.158366 -0.0942429
v 0.357884 -0.166759 -0.108738
v 0.361415 -0.155715 -0.108738
v 0.363658 -0.14846 -0.108738
v 0.366571 -0.137807 -0.108738
v 0.37012 -0.123297 -0.108738
v 0.371568 -0.108786 -0.123233
v 0.37434 -0.0942763 -0.123233
v 0.376918 -0.0855939 -0.11457
v 0.380537 -0.0619257 -0.108738
v 0.378101 -0.0585615 -0.129745
v 0.372345 -0.0585615 0.416031
v 0.379919 -0.0652729 0.410199
v 0.379001 -0.0797831 0.409067
v 0.377995 -0.0942763 0.407595
v 0.367931 -0.123297 0.411954
v 0.366183 -0.137807 0.410709
v 0.364364 -0.152283 0.408614
v 0.363163 -0.161339 0.406972
v 0.361769 -0.171534 0.398762
v 0.358467 -0.18127 0.398762
v 0.348367 -0.203731 0.406519
v 0.34074 -0.2248 0.398762
v 0.339204 -0.23214 0.384323
v 0.342347 -0.23214 0.0217748
v 0.341305 -0.23214 8.87504e-05
v 0.340546 -0.23214 -0.0144064
v 0.339327 -0.23214 -0.0362057
v 0.338268 -0.23214 -0.0507575
v 0.33705 -0.23214 -0.0652526
v 0.335814 -0.23214 -0.0797477
v 0.334543 -0.23214 -0.0942429
v 0.339027 -0.2248 -0.0797477
v 0.345613 -0.209271 -0.0802573
v 0.347926 -0.202695 -0.0854665
v 0.350504 -0.19702 -0.0802573
v 0.356119 -0.18127 -0.0797477
v 0.361963 -0.163446 -0.0791249
v 0.35483 -0.18127 -0.0942429
v 0.353082 -0.18127 -0.108738
v 0.355942 -0.166759 -0.123233
v 0.360656 -0.151553 -0.12329
v 0.362952 -0.146234 -0.118477
v 0.362228 -0.14372 -0.128159
v 0.364311 -0.138453 -0.12329
v 0.368107 -0.123297 -0.123233
v 0.365759 -0.123297 -0.137785
v 0.369061 -0.108786 -0.137785
v 0.371797 -0.0942763 -0.137785
v 0.373951 -0.0585615 -0.159075
v 0.358679 -0.0585615 0.417617
v 0.369837 -0.0652729 0.417447
v 0.369837 -0.0797831 0.416201
v 0.369837 -0.0942763 0.414389
v 0.355324 -0.137807 0.417786
v 0.355324 -0.152283 0.415578
v 0.352552 -0.18127 0.411445
v 0.349868 -0.19578 0.408614
v 0.337315 -0.23214 0.398762
v 0.336502 -0.2248 0.409916
v 0.333342 -0.23214 0.408897
v 0.333677 -0.23214 -0.103189
v 0.337703 -0.2248 -0.0942429
v 0.34383 -0.21029 -0.0942429
v 0.347467 -0.20154 -0.0942429
v 0.350274 -0.194285 -0.0942429
v 0.349339 -0.191855 -0.108738
v 0.350574 -0.182238 -0.123573
v 0.349603 -0.17816 -0.137785
v 0.35347 -0.166759 -0.137785
v 0.358025 -0.152283 -0.137785
v 0.361433 -0.140644 -0.137785
v 0.363322 -0.133389 -0.137785
v 0.362651 -0.130824 -0.145316
v 0.363411 -0.122141 -0.150978
v 0.365282 -0.108786 -0.155677
v 0.36809 -0.0943782 -0.155677
v 0.362775 -0.117078 -0.159075
v 0.297835 -0.0585615 -0.159075
v 0.355324 -0.0652729 0.417673
v 0.355324 -0.0797831 0.418239
v 0.346602 -0.0585615 0.411898
v 0.355324 -0.0942763 0.418523
v 0.355324 -0.108786 0.418749
v 0.355324 -0.123297 0.418806
v 0.340811 -0.18127 0.418466
v 0.340811 -0.19578 0.415578
v 0.341217 -0.209271 0.411388
v 0.32635 -0.2248 0.416937
v 0.326633 -0.23214 0.414446
v 0.335867 -0.225548 -0.107889
v 0.32944 -0.23214 -0.130934
v 0.332848 -0.231512 -0.111739
v 0.342082 -0.21029 -0.108738
v 0.346549 -0.199093 -0.108738
v 0.348544 -0.189782 -0.11893
v 0.347767 -0.187709 -0.128612
v 0.346902 -0.185415 -0.137785
v 0.333554 -0.217477 -0.144863
v 0.348615 -0.17551 -0.147637
v 0.350327 -0.167405 -0.152393
v 0.354194 -0.152453 -0.155677
v 0.359809 -0.136516 -0.150978
v 0.361486 -0.126185 -0.154998
v 0.357549 -0.137161 -0.159075
v 0.239817 -0.23214 -0.159075
v 0.306805 -0.0585615 0.228104
v 0.297147 -0.23214 0.41337
v 0.304509 -0.23214 0.41722
v 0.311837 -0.2248 0.418523
v 0.311837 -0.23214 0.419032
v 0.340811 -0.166759 0.419259
v 0.338268 -0.0585615 0.400743
v 0.29019 -0.23214 0.408217
v 0.32635 -0.21029 0.419372
v 0.319005 -0.23214 0.418239
v 0.335319 -0.221776 -0.123233
v 0.327321 -0.23214 -0.141635
v 0.332918 -0.221997 -0.137162
v 0.331541 -0.230577 -0.123233
v 0.339928 -0.21029 -0.123233
v 0.345772 -0.195083 -0.123573
v 0.343018 -0.19578 -0.137785
v 0.325061 -0.23214 -0.15177
v 0.327515 -0.2248 -0.155677
v 0.332636 -0.215217 -0.15228
v 0.335443 -0.207962 -0.15228
v 0.340104 -0.19578 -0.15228
v 0.345719 -0.180726 -0.152393
v 0.34752 -0.172179 -0.158169
v 0.349639 -0.16472 -0.159075
v 0.249475 -0.23214 0.228387
v 0.331788 -0.212737 -0.159075
v 0.323031 -0.23214 -0.159018
v 0.249898 -0.23214 0.24124
v 0.307493 -0.0585615 0.242599
v 0.332953 -0.0585615 0.388343
v 0.284063 -0.23214 0.398309
v 0.334631 -0.20577 -0.159075
v 0.340952 -0.189 -0.159075
v 0.250781 -0.23214 0.25381
v 0.309117 -0.0585615 0.268305
v 0.308146 -0.0585615 0.25381
v 0.279331 -0.23214 0.386305
v 0.32861 -0.0585615 0.372772
v 0.265136 -0.23214 0.340781
v 0.269197 -0.23214 0.354597
v 0.275058 -0.23214 0.373791
v 0.252194 -0.23214 0.268305
v 0.253624 -0.23214 0.282461
v 0.310583 -0.0585615 0.282801
v 0.324161 -0.0585615 0.355333
v 0.26194 -0.23214 0.328041
v 0.255742 -0.23214 0.297013
v 0.312419 -0.0585615 0.297296
v 0.321371 -0.0585615 0.343839
v 0.318599 -0.0585615 0.331382
v 0.314768 -0.0585615 0.311791
f 1 2 3
f 1 3 4
f 1 4 5
f 1 5 6
f 1 6 7
f 1 7 8
f 1 8 9
f 1 9 10
f 1 10 11
f 1 11 12
f 1 12 13
f 1 13 56
f 1 56 105
f 1 105 144
f 1 144 173
f 1 173 201
f 1 201 230
f 1 230 237
f 1 237 236
f 1 236 245
f 1 245 249
f 1 249 252
f 1 252 251
f 1 251 250
f 1 250 246
f 1 246 239
f 1 239 231
f 1 231 207
f 1 207 176
f 1 176 145
f 1 145 106
f 1 106 57
f 1 57 14
f 1 14 15
f 1 15 16
f 1 16 17
f 1 17 18
f 1 18 2
f 2 18 19
f 2 19 3
f 3 19 20
f 3 20 21
f 3 21 22
f 3 22 23
f 3 23 4
f 4 23 5
f 5 24 25
f 5 25 6
f 5 23 24
f 6 25 24
f 6 24 26
f 6 26 7
f 7 26 27
f 7 27 28
f 7 28 8
f 8 29 30
f 8 30 9
f 8 28 29
f 9 30 31
f 9 31 32
f 9 32 10
f 10 32 33
f 10 33 11
f 11 33 12
f 12 33 34
f 12 34 35
f 12 35 13
f 13 35 36
f 13 36 37
f 13 37 38
f 13 38 39
f 13 39 40
f 13 40 41
f 13 41 42
f 13 42 43
f 13 43 44
f 13 44 45
f 13 45 46
f 13 46 47
f 13 47 48
f 13 48 49
f 13 49 50
f 13 50 51
f 13 51 52
f 13 52 53
f 13 53 54
f 13 54 55
f 13 55 56
f 14 57 58
f 14 58 59
f 14 59 60
f 14 60 61
f 14 61 62
f 14 62 63
f 14 63 64
f 14 64 65
f 14 65 66
f 14 66 15
f 15 66 67
f 15 67 68
f 15 68 16
f 16 69 17
f 16 68 70
f 16 70 69
f 17 71 19
f 17 19 18
f 17 69 72
f 17 72 71
f 19 71 118
f 19 118 153
f 19 153 155
f 19 155 184
f 19 184 210
f 19 210 205
f 19 205 203
f 19 203 202
f 19 202 208
f 19 208 232
f 19 232 238
f 19 238 242
f 19 242 241
f 19 241 240
f 19 240 247
f 19 247 248
f 19 248 244
f 19 244 243
f 19 243 235
f 19 235 229
f 19 229 226
f 19 226 200
f 19 200 228
f 19 228 218
f 19 218 212
f 19 212 186
f 19 186 156
f 19 156 126
f 19 126 125
f 19 125 124
f 19 124 123
f 19 123 122
f 19 122 121
f 19 121 120
f 19 120 119
f 19 119 74
f 19 74 73
f 19 73 30
f 19 30 29
f 19 29 27
f 19 27 26
f 19 26 24
f 19 24 23
f 19 23 22
f 19 22 21
f 19 21 20
f 27 29 28
f 30 73 31
f 31 73 32
f 32 73 74
f 32 74 75
f 32 75 34
f 32 34 33
f 34 75 76
f 34 76 77
f 34 77 35
f 35 77 36
f 36 77 78
f 36 78 37
f 37 78 38
f 38 78 79
f 38 79 39
f 39 79 80
f 39 80 81
f 39 81 40
f 40 82 41
f 40 81 83
f 40 83 84
f 40 84 85
f 40 85 86
f 40 86 87
f 40 87 88
f 40 88 82
f 41 82 89
f 41 89 88
f 41 88 87
f 41 87 42
f 42 87 90
f 42 90 91
f 42 91 43
f 43 91 44
f 44 91 92
f 44 92 93
f 44 93 45
f 45 93 46
f 46 94 47
f 46 93 94
f 47 94 95
f 47 95 96
f 47 96 97
f 47 97 98
f 47 98 49
f 47 49 48
f 49 98 99
f 49 99 100
f 49 100 50
f 50 100 51
f 51 53 52
f 51 100 101
f 51 101 102
f 51 102 53
f 53 102 103
f 53 103 54
f 54 103 55
f 55 103 104
f 55 104 56
f 56 104 105
f 57 106 107
f 57 107 58
f 58 107 108
f 58 108 109
f 58 109 60
f 58 60 59
f 60 109 110
f 60 110 111
f 60 111 112
f 60 112 113
f 60 113 61
f 61 113 63
f 61 63 62
f 63 113 64
f 64 113 65
f 65 114 66
f 65 113 114
f 66 114 115
f 66 115 67
f 67 115 116
f 67 116 68
f 68 116 70
f 69 70 72
f 70 116 117
f 70 117 72
f 71 72 118
f 72 117 118
f 74 119 75
f 75 119 76
f 76 119 78
f 76 78 77
f 78 119 79
f 79 120 80
f 79 119 120
f 80 120 121
f 80 121 122
f 80 122 81
f 81 122 123
f 81 123 83
f 82 88 89
f 83 123 124
f 83 124 125
f 83 125 126
f 83 126 127
f 83 127 128
f 83 128 85
f 83 85 84
f 85 87 86
f 85 128 129
f 85 129 130
f 85 130 87
f 87 130 90
f 90 130 131
f 90 131 91
f 91 131 92
f 92 132 93
f 92 131 132
f 93 132 94
f 94 133 95
f 94 132 133
f 95 133 96
f 96 134 135
f 96 135 97
f 96 133 134
f 97 135 136
f 97 136 98
f 98 136 137
f 98 137 99
f 99 137 138
f 99 138 139
f 99 139 140
f 99 140 100
f 100 140 101
f 101 140 141
f 101 141 142
f 101 142 102
f 102 142 143
f 102 143 144
f 102 144 103
f 103 144 105
f 103 105 104
f 106 145 146
f 106 146 107
f 107 146 147
f 107 147 148
f 107 148 108
f 108 148 110
f 108 110 109
f 110 148 147
f 110 147 149
f 110 149 150
f 110 150 111
f 111 150 151
f 111 151 112
f 112 151 113
f 113 116 115
f 113 115 114
f 113 151 152
f 113 152 116
f 116 153 117
f 116 152 154
f 116 154 155
f 116 155 153
f 117 153 118
f 126 156 157
f 126 157 127
f 127 157 128
f 128 157 129
f 129 157 158
f 129 158 159
f 129 159 160
f 129 160 130
f 130 160 131
f 131 160 133
f 131 133 132
f 133 160 134
f 134 160 161
f 134 161 162
f 134 162 135
f 135 162 163
f 135 163 164
f 135 164 165
f 135 165 136
f 136 165 138
f 136 138 137
f 138 165 166
f 138 166 167
f 138 167 139
f 139 167 140
f 140 167 141
f 141 167 168
f 141 168 142
f 142 168 169
f 142 169 170
f 142 170 171
f 142 171 143
f 143 171 144
f 144 171 172
f 144 172 199
f 144 199 225
f 144 225 234
f 144 234 233
f 144 233 227
f 144 227 200
f 144 200 173
f 145 174 175
f 145 175 146
f 145 176 174
f 146 175 177
f 146 177 178
f 146 178 179
f 146 179 149
f 146 149 147
f 149 179 180
f 149 180 150
f 150 181 151
f 150 180 181
f 151 181 182
f 151 182 152
f 152 182 154
f 154 182 183
f 154 183 184
f 154 184 155
f 156 185 158
f 156 158 157
f 156 186 187
f 156 187 185
f 158 185 159
f 159 185 188
f 159 188 189
f 159 189 160
f 160 189 161
f 161 189 190
f 161 190 162
f 162 190 191
f 162 191 163
f 163 192 193
f 163 193 194
f 163 194 164
f 163 191 192
f 164 194 195
f 164 195 165
f 165 195 196
f 165 196 166
f 166 196 197
f 166 197 168
f 166 168 167
f 168 197 198
f 168 198 172
f 168 172 169
f 169 172 170
f 170 172 171
f 172 198 199
f 173 200 201
f 174 176 202
f 174 202 203
f 174 203 204
f 174 204 205
f 174 205 175
f 175 205 206
f 175 206 177
f 176 207 208
f 176 208 202
f 177 206 178
f 178 206 179
f 179 206 180
f 180 206 209
f 180 209 183
f 180 183 181
f 181 183 182
f 183 209 210
f 183 210 184
f 185 187 211
f 185 211 188
f 186 212 193
f 186 193 213
f 186 213 214
f 186 214 187
f 187 214 211
f 188 211 215
f 188 215 189
f 189 215 216
f 189 216 190
f 190 216 191
f 191 216 193
f 191 193 217
f 191 217 192
f 192 217 193
f 193 212 218
f 193 218 219
f 193 219 220
f 193 220 221
f 193 221 222
f 193 222 223
f 193 223 194
f 193 216 215
f 193 215 211
f 193 211 213
f 194 223 224
f 194 224 195
f 195 224 225
f 195 225 196
f 196 225 199
f 196 199 197
f 197 199 198
f 200 226 201
f 200 227 228
f 201 226 229
f 201 229 230
f 203 205 204
f 205 209 206
f 205 210 209
f 207 231 232
f 207 232 208
f 211 214 213
f 218 228 219
f 219 228 227
f 219 227 220
f 220 227 233
f 220 233 221
f 221 233 222
f 222 233 224
f 222 224 223
f 224 233 234
f 224 234 225
f 229 235 236
f 229 236 237
f 229 237 230
f 231 238 232
f 231 239 240
f 231 240 241
f 231 241 242
f 231 242 238
f 235 243 236
f 236 243 244
f 236 244 245
f 239 246 240
f 240 246 247
f 244 248 249
f 244 249 245
f 246 250 247
f 247 250 251
f 247 251 248
f 248 251 252
f 248 252 249
