v 0.104102 0.355888 -0.208035
v 0.235511 0.196288 -0.208035
v 0.104102 0.395573 -0.066151
v 0.104102 0.461808 -0.178522
v 0.105261 0.45589 -0.192689
v 0.107241 0.448367 -0.207563
v 0.123417 0.43772 -0.208035
v 0.320904 0.197007 -0.208035
v 0.326264 0.196288 -0.196258
v 0.272498 0.196288 -0.066151
v 0.108062 0.478816 -0.066151
v 0.104996 0.476769 -0.106789
v 0.104875 0.469302 -0.149982
v 0.1077 0.463356 -0.166745
v 0.122886 0.449252 -0.181272
v 0.116946 0.450165 -0.189869
v 0.113591 0.448008 -0.199549
v 0.131867 0.436005 -0.199536
v 0.138361 0.427294 -0.208035
v 0.308036 0.225299 -0.208035
v 0.317959 0.206299 -0.206188
v 0.340243 0.196288 -0.152551
v 0.319383 0.211941 -0.19698
v 0.326071 0.21031 -0.181272
v 0.332638 0.197671 -0.177842
v 0.336959 0.196344 -0.165217
v 0.34314 0.196288 -0.137774
v 0.350721 0.197256 -0.066151
v 0.123393 0.469717 -0.066151
v 0.107796 0.478041 -0.0797895
v 0.107217 0.477074 -0.0938446
v 0.124576 0.464822 -0.108789
v 0.122886 0.463799 -0.123302
v 0.105261 0.474668 -0.120385
v 0.10712 0.470409 -0.138663
v 0.11516 0.46355 -0.148412
v 0.12332 0.457576 -0.152273
v 0.128897 0.450552 -0.164953
v 0.143359 0.436088 -0.179383
v 0.140268 0.431663 -0.195786
v 0.148163 0.420629 -0.206938
v 0.162407 0.40882 -0.208035
v 0.277544 0.279337 -0.207785
v 0.290219 0.259813 -0.207049
v 0.303787 0.23531 -0.206438
v 0.26499 0.298226 -0.208035
v 0.332493 0.207295 -0.164773
v 0.333845 0.210973 -0.152273
v 0.316945 0.22104 -0.192147
v 0.319021 0.224746 -0.181272
v 0.320808 0.228562 -0.170106
v 0.333627 0.217666 -0.137982
v 0.339373 0.21031 -0.123302
v 0.34652 0.196648 -0.114899
v 0.348306 0.197533 -0.0980805
v 0.346085 0.206521 -0.0779006
v 0.344588 0.211692 -0.0662621
v 0.338649 0.224939 -0.066151
v 0.134981 0.462223 -0.066151
v 0.129163 0.465126 -0.0787339
v 0.125831 0.465652 -0.094289
v 0.13783 0.456221 -0.108789
v 0.120133 0.462942 -0.136926
v 0.147318 0.447814 -0.122288
v 0.139278 0.450524 -0.137774
v 0.136719 0.44881 -0.152273
v 0.151446 0.434401 -0.166773
v 0.152702 0.428151 -0.181981
v 0.150046 0.42439 -0.195786
v 0.158375 0.419606 -0.19205
v 0.171099 0.403593 -0.204021
v 0.183484 0.391784 -0.206355
v 0.207771 0.367282 -0.208035
v 0.167187 0.410949 -0.195411
v 0.292271 0.264818 -0.195786
v 0.274405 0.291727 -0.197452
v 0.304873 0.24416 -0.193119
v 0.245917 0.323973 -0.207855
v 0.25934 0.307463 -0.20623
v 0.261103 0.311915 -0.195786
v 0.3182 0.236693 -0.165259
v 0.327375 0.224856 -0.152273
v 0.31173 0.239348 -0.181272
v 0.319432 0.247119 -0.139107
v 0.326095 0.239348 -0.123302
v 0.333193 0.223999 -0.123302
v 0.341522 0.21031 -0.108789
v 0.343164 0.21031 -0.094289
v 0.332855 0.237522 -0.066151
v 0.152774 0.450027 -0.066151
v 0.152098 0.449418 -0.0797895
v 0.151157 0.448754 -0.094289
v 0.13783 0.457825 -0.094289
v 0.14995 0.447869 -0.108789
v 0.167067 0.435286 -0.108789
v 0.16557 0.434125 -0.123302
v 0.157096 0.438052 -0.136413
v 0.150529 0.439075 -0.152273
v 0.158496 0.434291 -0.148093
v 0.167912 0.425856 -0.152704
v 0.168177 0.421624 -0.166773
v 0.164363 0.419744 -0.180619
v 0.176241 0.407935 -0.185814
v 0.190075 0.393001 -0.191661
v 0.196255 0.384732 -0.196688
v 0.198356 0.377625 -0.206452
v 0.210813 0.370296 -0.196855
v 0.217887 0.35763 -0.206438
v 0.288674 0.273447 -0.191591
v 0.289108 0.280388 -0.179897
v 0.294903 0.269326 -0.18205
v 0.304294 0.253452 -0.181272
v 0.27484 0.303564 -0.17762
v 0.278944 0.295267 -0.181272
v 0.231335 0.343636 -0.204258
v 0.247583 0.328924 -0.196966
v 0.262841 0.318055 -0.180717
v 0.304608 0.26114 -0.166925
v 0.319697 0.240703 -0.152273
v 0.312623 0.253839 -0.152273
v 0.305646 0.271456 -0.139038
v 0.310692 0.268358 -0.123302
v 0.318949 0.253756 -0.123302
v 0.32793 0.239348 -0.108789
v 0.332469 0.229751 -0.108789
v 0.336669 0.224054 -0.094289
v 0.333048 0.2339 -0.0830116
v 0.324646 0.254337 -0.066151
v 0.16994 0.437277 -0.066151
v 0.169095 0.436807 -0.0797895
v 0.16825 0.436171 -0.094289
v 0.183605 0.422371 -0.108789
v 0.182084 0.421127 -0.123302
v 0.180297 0.419661 -0.137774
v 0.175662 0.419329 -0.154134
v 0.184522 0.407659 -0.167856
v 0.184619 0.402487 -0.181272
v 0.192537 0.395241 -0.181272
v 0.199804 0.388383 -0.181272
v 0.204729 0.378703 -0.192036
v 0.219143 0.364212 -0.192008
v 0.233121 0.34925 -0.190827
v 0.293237 0.280748 -0.166773
v 0.281165 0.298779 -0.168189
v 0.274623 0.309261 -0.166245
v 0.238891 0.340345 -0.194952
v 0.247655 0.33498 -0.185342
v 0.261127 0.326462 -0.166773
v 0.304439 0.268137 -0.152273
v 0.300142 0.281633 -0.136926
v 0.303135 0.280499 -0.125357
v 0.304391 0.282628 -0.108789
v 0.312865 0.268358 -0.108789
v 0.31989 0.255526 -0.108789
v 0.323584 0.253839 -0.0797895
v 0.317017 0.263601 -0.0951501
v 0.317355 0.265316 -0.0817199
v 0.317814 0.266975 -0.066151
v 0.193068 0.418251 -0.066151
v 0.188409 0.420435 -0.0906363
v 0.180973 0.426105 -0.094289
v 0.195821 0.413577 -0.094289
v 0.199635 0.408267 -0.110038
v 0.19401 0.410977 -0.123302
v 0.192272 0.409428 -0.137774
v 0.189495 0.406939 -0.156273
v 0.202025 0.390567 -0.171189
v 0.207168 0.381137 -0.181272
v 0.214411 0.373891 -0.181272
v 0.221484 0.366618 -0.181272
v 0.23189 0.355251 -0.181272
v 0.289253 0.288879 -0.162759
v 0.294685 0.284094 -0.153259
v 0.288867 0.294271 -0.151176
v 0.276095 0.312717 -0.152273
v 0.233918 0.358625 -0.168648
v 0.245651 0.346955 -0.162759
v 0.262624 0.329615 -0.153509
v 0.290074 0.297452 -0.137774
v 0.291498 0.299581 -0.123302
v 0.288988 0.306053 -0.110275
v 0.305308 0.284094 -0.094289
v 0.30596 0.285145 -0.0797895
v 0.306443 0.285975 -0.066151
v 0.205019 0.407824 -0.066151
v 0.204391 0.407271 -0.0797895
v 0.20345 0.406414 -0.0983861
v 0.21808 0.392033 -0.104191
v 0.209051 0.397177 -0.123302
v 0.201277 0.404423 -0.123302
v 0.199515 0.402791 -0.137774
v 0.197414 0.400883 -0.152273
v 0.204536 0.392946 -0.156898
v 0.210186 0.384207 -0.166426
v 0.216583 0.376048 -0.171314
v 0.272546 0.32165 -0.139635
v 0.279717 0.31269 -0.137357
v 0.233314 0.363935 -0.156773
v 0.244927 0.352154 -0.151162
v 0.261803 0.334593 -0.141871
v 0.283145 0.31186 -0.123302
v 0.275178 0.325937 -0.108789
v 0.28597 0.31316 -0.094289
v 0.289277 0.310782 -0.0797895
v 0.296665 0.297369 -0.094289
v 0.298162 0.297369 -0.0797895
v 0.299321 0.297369 -0.066151
v 0.212286 0.401215 -0.066151
v 0.211634 0.400606 -0.0797895
v 0.219505 0.393361 -0.0797895
v 0.210934 0.399887 -0.094289
v 0.218732 0.392642 -0.094289
v 0.225975 0.385617 -0.094289
v 0.23259 0.377625 -0.104358
v 0.216318 0.390346 -0.123302
v 0.207385 0.395545 -0.137774
v 0.214628 0.388715 -0.137774
v 0.212528 0.38664 -0.152273
v 0.219094 0.37862 -0.156967
v 0.276409 0.32024 -0.127788
v 0.246255 0.355086 -0.137774
v 0.227061 0.3719 -0.152273
v 0.23597 0.366701 -0.137774
v 0.256564 0.342419 -0.137774
v 0.271219 0.328094 -0.123302
v 0.262358 0.342558 -0.108789
v 0.266052 0.340152 -0.094289
v 0.273295 0.330611 -0.094289
v 0.276795 0.328011 -0.0797895
v 0.289953 0.311805 -0.066151
v 0.220157 0.393969 -0.066151
v 0.226748 0.386364 -0.0797895
v 0.233266 0.378371 -0.094289
v 0.237588 0.368471 -0.123302
v 0.231166 0.376187 -0.118663
v 0.223512 0.383073 -0.123302
v 0.246786 0.362829 -0.0980111
v 0.248476 0.359013 -0.109441
v 0.247921 0.356994 -0.123302
v 0.221847 0.381441 -0.137774
v 0.261079 0.340898 -0.123302
v 0.229041 0.373947 -0.137774
v 0.253715 0.355307 -0.094289
v 0.260716 0.347646 -0.0901363
v 0.277665 0.328702 -0.066151
v 0.227593 0.386668 -0.066151
v 0.233942 0.37909 -0.0797895
v 0.241185 0.371209 -0.0797895
v 0.247776 0.363935 -0.0797895
v 0.240509 0.370324 -0.094289
v 0.256153 0.354145 -0.0806089
v 0.258785 0.352735 -0.066151
v 0.268273 0.340898 -0.066151
v 0.234449 0.379644 -0.066151
v 0.241257 0.372315 -0.066151
v 0.248404 0.364599 -0.066151
f 1 2 3
f 1 3 4
f 1 4 5
f 1 5 6
f 1 6 7
f 1 7 19
f 1 19 42
f 1 42 73
f 1 73 46
f 1 46 20
f 1 20 8
f 1 8 2
f 2 8 9
f 2 9 22
f 2 22 27
f 2 27 10
f 2 10 3
f 3 11 12
f 3 12 4
f 3 10 28
f 3 28 58
f 3 58 89
f 3 89 128
f 3 128 158
f 3 158 184
f 3 184 207
f 3 207 230
f 3 230 245
f 3 245 253
f 3 253 252
f 3 252 256
f 3 256 255
f 3 255 254
f 3 254 246
f 3 246 231
f 3 231 208
f 3 208 185
f 3 185 159
f 3 159 129
f 3 129 90
f 3 90 59
f 3 59 29
f 3 29 11
f 4 12 13
f 4 13 14
f 4 14 15
f 4 15 16
f 4 16 5
f 5 16 6
f 6 16 17
f 6 17 7
f 7 17 18
f 7 18 19
f 8 20 21
f 8 21 9
f 9 21 23
f 9 23 24
f 9 24 25
f 9 25 26
f 9 26 22
f 10 27 28
f 11 29 30
f 11 30 12
f 12 31 32
f 12 32 33
f 12 33 34
f 12 34 13
f 12 30 31
f 13 34 35
f 13 35 36
f 13 36 14
f 14 36 37
f 14 37 38
f 14 38 15
f 15 38 39
f 15 39 16
f 16 39 18
f 16 18 17
f 18 40 19
f 18 39 40
f 19 40 41
f 19 41 42
f 20 43 44
f 20 44 45
f 20 45 23
f 20 23 21
f 20 46 43
f 22 26 47
f 22 47 48
f 22 48 27
f 23 45 49
f 23 49 24
f 24 47 25
f 24 49 50
f 24 50 51
f 24 51 47
f 25 47 26
f 27 48 52
f 27 52 53
f 27 53 54
f 27 54 28
f 28 54 55
f 28 55 56
f 28 56 57
f 28 57 58
f 29 59 60
f 29 60 30
f 30 60 31
f 31 60 61
f 31 61 32
f 32 61 62
f 32 62 33
f 33 63 35
f 33 35 34
f 33 62 64
f 33 64 65
f 33 65 63
f 35 63 36
f 36 63 37
f 37 65 66
f 37 66 38
f 37 63 65
f 38 66 67
f 38 67 39
f 39 67 68
f 39 68 40
f 40 68 69
f 40 69 41
f 41 69 70
f 41 70 42
f 42 71 72
f 42 72 73
f 42 70 74
f 42 74 71
f 43 75 44
f 43 46 76
f 43 76 75
f 44 77 45
f 44 75 77
f 45 77 49
f 46 78 79
f 46 79 80
f 46 80 76
f 46 73 78
f 47 51 81
f 47 81 82
f 47 82 48
f 48 82 52
f 49 77 83
f 49 83 50
f 50 83 51
f 51 83 81
f 52 82 84
f 52 84 85
f 52 85 86
f 52 86 53
f 53 86 87
f 53 87 54
f 54 87 55
f 55 87 88
f 55 88 56
f 56 88 58
f 56 58 57
f 58 88 89
f 59 90 91
f 59 91 60
f 60 91 92
f 60 92 93
f 60 93 61
f 61 93 62
f 62 93 92
f 62 92 94
f 62 94 64
f 64 95 96
f 64 96 97
f 64 97 65
f 64 94 95
f 65 97 98
f 65 98 66
f 66 98 67
f 67 99 100
f 67 100 101
f 67 101 102
f 67 102 68
f 67 98 99
f 68 102 70
f 68 70 69
f 70 102 103
f 70 103 74
f 71 74 103
f 71 103 72
f 72 103 104
f 72 104 105
f 72 105 106
f 72 106 73
f 73 106 107
f 73 107 108
f 73 108 78
f 75 76 109
f 75 109 110
f 75 110 111
f 75 111 112
f 75 112 77
f 76 80 113
f 76 113 114
f 76 114 109
f 77 112 83
f 78 108 115
f 78 115 116
f 78 116 79
f 79 116 80
f 80 117 113
f 80 116 117
f 81 83 112
f 81 112 118
f 81 118 119
f 81 119 82
f 82 119 84
f 84 120 121
f 84 121 122
f 84 122 123
f 84 123 85
f 84 119 120
f 85 123 124
f 85 124 125
f 85 125 87
f 85 87 86
f 87 125 88
f 88 125 126
f 88 126 127
f 88 127 89
f 89 127 128
f 90 129 130
f 90 130 91
f 91 130 131
f 91 131 92
f 92 131 95
f 92 95 94
f 95 131 132
f 95 132 96
f 96 132 133
f 96 133 134
f 96 134 97
f 97 134 99
f 97 99 98
f 99 134 100
f 100 134 135
f 100 135 101
f 101 135 136
f 101 136 102
f 102 136 103
f 103 136 137
f 103 137 104
f 104 138 139
f 104 139 140
f 104 140 105
f 104 137 138
f 105 140 107
f 105 107 106
f 107 141 108
f 107 140 141
f 108 142 115
f 108 141 142
f 109 114 110
f 110 143 111
f 110 114 113
f 110 113 144
f 110 144 143
f 111 143 118
f 111 118 112
f 113 117 145
f 113 145 144
f 115 142 146
f 115 146 116
f 116 146 147
f 116 147 117
f 117 147 148
f 117 148 145
f 118 143 149
f 118 149 120
f 118 120 119
f 120 149 121
f 121 150 122
f 121 149 150
f 122 150 151
f 122 151 152
f 122 152 153
f 122 153 123
f 123 154 124
f 123 153 154
f 124 154 155
f 124 155 128
f 124 128 127
f 124 127 126
f 124 126 125
f 128 155 156
f 128 156 157
f 128 157 158
f 129 159 160
f 129 160 161
f 129 161 130
f 130 161 131
f 131 161 132
f 132 161 160
f 132 160 162
f 132 162 163
f 132 163 164
f 132 164 133
f 133 164 134
f 134 164 165
f 134 165 135
f 135 165 166
f 135 166 136
f 136 166 167
f 136 167 137
f 137 167 138
f 138 167 139
f 139 167 168
f 139 168 140
f 140 168 169
f 140 169 141
f 141 169 170
f 141 170 171
f 141 171 142
f 142 171 147
f 142 147 146
f 143 144 172
f 143 172 173
f 143 173 149
f 144 145 174
f 144 174 172
f 145 148 175
f 145 175 174
f 147 171 176
f 147 176 177
f 147 177 148
f 148 177 178
f 148 178 175
f 149 173 150
f 150 173 174
f 150 174 179
f 150 179 151
f 151 179 180
f 151 180 152
f 152 180 181
f 152 181 182
f 152 182 153
f 153 156 154
f 153 182 156
f 154 156 155
f 156 182 157
f 157 182 158
f 158 182 183
f 158 183 184
f 159 185 160
f 160 185 186
f 160 186 162
f 162 186 187
f 162 187 163
f 163 187 188
f 163 188 189
f 163 189 190
f 163 190 164
f 164 190 165
f 165 190 191
f 165 191 192
f 165 192 166
f 166 192 193
f 166 193 167
f 167 193 194
f 167 194 195
f 167 195 168
f 168 195 169
f 169 195 170
f 170 195 176
f 170 176 171
f 172 174 173
f 174 175 179
f 175 196 197
f 175 197 179
f 175 178 196
f 176 198 177
f 176 195 198
f 177 198 199
f 177 199 178
f 178 199 200
f 178 200 196
f 179 197 201
f 179 201 180
f 180 201 181
f 181 201 202
f 181 202 203
f 181 203 204
f 181 204 205
f 181 205 182
f 182 205 206
f 182 206 183
f 183 206 207
f 183 207 184
f 185 208 186
f 186 208 209
f 186 209 187
f 187 209 210
f 187 210 211
f 187 211 212
f 187 212 188
f 188 212 213
f 188 213 214
f 188 214 215
f 188 215 189
f 189 215 216
f 189 216 190
f 190 216 191
f 191 216 192
f 192 216 193
f 193 216 217
f 193 217 218
f 193 218 219
f 193 219 194
f 194 219 195
f 195 219 198
f 196 220 197
f 196 200 220
f 197 220 201
f 198 221 199
f 198 219 222
f 198 222 223
f 198 223 221
f 199 221 200
f 200 221 224
f 200 224 220
f 201 220 202
f 202 204 203
f 202 220 225
f 202 225 226
f 202 226 227
f 202 227 228
f 202 228 229
f 202 229 204
f 204 230 206
f 204 206 205
f 204 229 230
f 206 230 207
f 208 231 210
f 208 210 209
f 210 212 211
f 210 231 232
f 210 232 212
f 212 232 213
f 213 232 233
f 213 233 214
f 214 234 235
f 214 235 236
f 214 236 215
f 214 233 237
f 214 237 238
f 214 238 239
f 214 239 234
f 215 217 216
f 215 236 240
f 215 240 217
f 217 240 218
f 218 240 219
f 219 240 222
f 220 224 225
f 221 223 239
f 221 239 241
f 221 241 224
f 222 240 242
f 222 242 223
f 223 242 234
f 223 234 239
f 224 241 225
f 225 241 226
f 226 241 239
f 226 239 238
f 226 238 243
f 226 243 244
f 226 244 227
f 227 245 229
f 227 229 228
f 227 244 245
f 229 245 230
f 231 246 232
f 232 246 247
f 232 247 233
f 233 247 248
f 233 248 249
f 233 249 250
f 233 250 237
f 234 242 240
f 234 240 236
f 234 236 235
f 237 243 238
f 237 250 249
f 237 249 243
f 243 249 251
f 243 251 244
f 244 251 252
f 244 252 253
f 244 253 245
f 246 254 247
f 247 254 255
f 247 255 256
f 247 256 248
f 248 256 249
f 249 256 252
f 249 252 251
