v -0.313243 0.536061 -0.0394053
v -0.311342 0.534927 -0.0656777
v -0.312668 0.535566 -0.0507663
v -0.326347 0.532349 -0.0394053
v -0.311342 0.459734 -0.0394053
v -0.311342 0.530575 -0.108761
v -0.311598 0.533689 -0.0797724
v -0.326347 0.529812 -0.0797724
v -0.326347 0.530843 -0.0652694
v -0.339274 0.528348 -0.0394053
v -0.474591 0.374024 -0.0394053
v -0.473648 0.325374 -0.220738
v -0.311342 0.419189 -0.220755
v -0.311598 0.532163 -0.0945062
v -0.311422 0.520161 -0.166471
v -0.311486 0.523543 -0.151631
v -0.311598 0.526327 -0.137767
v -0.311598 0.528657 -0.123282
v -0.326347 0.528286 -0.0942932
v -0.341336 0.523811 -0.0930506
v -0.340841 0.525316 -0.0797724
v -0.340841 0.526306 -0.0652694
v -0.340841 0.527193 -0.0507663
v -0.350636 0.524595 -0.0394053
v -0.474591 0.422406 -0.220755
v -0.474591 0.463962 -0.0394053
v -0.313787 0.500507 -0.220755
v -0.31163 0.505848 -0.209874
v -0.31163 0.510364 -0.197661
v -0.311598 0.51585 -0.181276
v -0.326347 0.515747 -0.166791
v -0.316296 0.521419 -0.156015
v -0.319939 0.522367 -0.146341
v -0.322576 0.523172 -0.137767
v -0.332579 0.52179 -0.128305
v -0.327162 0.52412 -0.123406
v -0.326347 0.526389 -0.108779
v -0.336925 0.523172 -0.108779
v -0.34418 0.520882 -0.108779
v -0.346497 0.521604 -0.0970802
v -0.348239 0.52214 -0.0873879
v -0.349054 0.52247 -0.0797724
v -0.350556 0.522986 -0.0652694
v -0.351946 0.52346 -0.0507663
v -0.360272 0.521295 -0.0394053
v -0.474591 0.433234 -0.197625
v -0.472706 0.428985 -0.210264
v -0.462351 0.433955 -0.215075
v -0.459602 0.432718 -0.220755
v -0.468311 0.467963 -0.0394053
v -0.468615 0.466994 -0.0507663
v -0.474591 0.46324 -0.0493285
v -0.325676 0.497021 -0.220755
v -0.326347 0.501373 -0.2103
v -0.317702 0.50723 -0.201886
v -0.323215 0.508859 -0.192229
v -0.32737 0.510839 -0.182323
v -0.325388 0.519604 -0.151613
v -0.337501 0.5089 -0.178169
v -0.347168 0.507312 -0.172844
v -0.341751 0.510488 -0.167536
v -0.340841 0.514448 -0.152288
v -0.329814 0.520944 -0.137767
v -0.334816 0.522491 -0.118666
v -0.340841 0.517459 -0.137767
v -0.340137 0.520161 -0.123406
v -0.35535 0.515087 -0.123282
v -0.35535 0.517088 -0.108779
v -0.353976 0.519459 -0.0930506
v -0.36986 0.514881 -0.0797724
v -0.356325 0.519892 -0.0797724
v -0.357811 0.520408 -0.0652694
v -0.359185 0.520924 -0.0507663
v -0.36986 0.517748 -0.0394053
v -0.474591 0.447979 -0.154294
v -0.47408 0.439359 -0.183069
v -0.468615 0.438101 -0.195779
v -0.465642 0.436141 -0.2054
v -0.4488 0.449093 -0.201619
v -0.445524 0.447092 -0.2103
v -0.452875 0.437173 -0.220755
v -0.457317 0.47481 -0.0394053
v -0.455623 0.475078 -0.0515474
v -0.456838 0.473346 -0.0652694
v -0.467736 0.466458 -0.0652694
v -0.474591 0.461982 -0.0652694
v -0.343237 0.49102 -0.220755
v -0.335407 0.49401 -0.220613
v -0.341048 0.49632 -0.210655
v -0.340841 0.502033 -0.195779
v -0.32737 0.506178 -0.19656
v -0.332899 0.507395 -0.187844
v -0.341751 0.506178 -0.182323
v -0.350668 0.50855 -0.163205
v -0.35535 0.501682 -0.181294
v -0.355462 0.505683 -0.167536
v -0.355462 0.509498 -0.1514
v -0.35535 0.512468 -0.137767
v -0.365226 0.508694 -0.137767
v -0.370179 0.50956 -0.121932
v -0.36986 0.511602 -0.108779
v -0.36986 0.513437 -0.0942932
v -0.382324 0.50987 -0.0797724
v -0.383762 0.510406 -0.0652694
v -0.36986 0.515953 -0.0652694
v -0.384657 0.511787 -0.0394053
v -0.474304 0.46091 -0.0797724
v -0.474016 0.452434 -0.138495
v -0.468551 0.452434 -0.152288
v -0.448896 0.463653 -0.157649
v -0.46601 0.450846 -0.163791
v -0.472817 0.445277 -0.167732
v -0.463821 0.449423 -0.173448
v -0.46168 0.448062 -0.181294
v -0.438269 0.451444 -0.2103
v -0.4515 0.450805 -0.191945
v -0.436751 0.465076 -0.176785
v -0.433747 0.463343 -0.186459
v -0.430567 0.461694 -0.195779
v -0.438317 0.446247 -0.220755
v -0.432708 0.44998 -0.22001
v -0.450973 0.478687 -0.0394053
v -0.449487 0.478522 -0.0568906
v -0.448912 0.478233 -0.0652694
v -0.456838 0.472026 -0.0797724
v -0.466745 0.465818 -0.0797724
v -0.371362 0.480213 -0.220755
v -0.346034 0.492319 -0.215696
v -0.351339 0.494381 -0.206057
v -0.355846 0.496341 -0.196223
v -0.360336 0.506755 -0.15566
v -0.365689 0.494258 -0.191696
v -0.375373 0.492443 -0.186211
v -0.370275 0.495887 -0.181347
v -0.36986 0.500218 -0.166791
v -0.363132 0.507807 -0.145968
v -0.368709 0.504384 -0.1514
v -0.372464 0.505724 -0.137767
v -0.375245 0.506817 -0.125856
v -0.382947 0.504301 -0.121932
v -0.377163 0.507622 -0.116199
v -0.378393 0.508158 -0.108779
v -0.38055 0.509106 -0.0942932
v -0.389595 0.506714 -0.0797724
v -0.391017 0.507353 -0.0652694
v -0.385808 0.510447 -0.0521865
v -0.392375 0.507952 -0.0482811
v -0.392967 0.50822 -0.0394053
v -0.473664 0.459776 -0.0942932
v -0.472977 0.456084 -0.123282
v -0.462159 0.46291 -0.123282
v -0.459858 0.461487 -0.137767
v -0.446675 0.462292 -0.166791
v -0.450733 0.464787 -0.147992
v -0.443383 0.468107 -0.152607
v -0.43942 0.466684 -0.166791
v -0.454441 0.452661 -0.181294
v -0.420723 0.464168 -0.203199
v -0.42646 0.458579 -0.208933
v -0.416968 0.462085 -0.212856
v -0.426492 0.474088 -0.165513
v -0.413261 0.475882 -0.182093
v -0.428474 0.467984 -0.181471
v -0.405431 0.478275 -0.187471
v -0.423312 0.465591 -0.195779
v -0.4073 0.463797 -0.220507
v -0.449966 0.478811 -0.047216
v -0.442616 0.483451 -0.0394053
v -0.429992 0.490381 -0.0394053
v -0.447697 0.477553 -0.0797724
v -0.429225 0.489968 -0.0507663
v -0.441673 0.482131 -0.0652694
v -0.456838 0.470314 -0.0942932
v -0.465483 0.464973 -0.0942932
v -0.378569 0.477532 -0.220099
v -0.36986 0.48539 -0.2103
v -0.355846 0.490731 -0.210655
v -0.361007 0.492484 -0.201371
v -0.370275 0.490814 -0.196223
v -0.384353 0.485019 -0.195779
v -0.383874 0.490154 -0.181347
v -0.378729 0.493804 -0.176554
v -0.381909 0.495145 -0.166791
v -0.391576 0.493082 -0.159424
v -0.385792 0.496836 -0.153655
v -0.384353 0.500816 -0.137767
v -0.385648 0.505126 -0.108779
v -0.400125 0.496485 -0.124347
v -0.387789 0.505951 -0.0942932
v -0.398831 0.501002 -0.0942932
v -0.398831 0.502569 -0.0797724
v -0.398831 0.50393 -0.0652694
v -0.397824 0.505291 -0.0521865
v -0.399918 0.505126 -0.0394053
v -0.47237 0.458683 -0.108565
v -0.46454 0.464375 -0.103471
v -0.463453 0.463694 -0.113163
v -0.454904 0.467406 -0.123282
v -0.452619 0.465942 -0.137767
v -0.442344 0.471964 -0.137767
v -0.432804 0.477367 -0.137767
v -0.429736 0.475821 -0.152288
v -0.413325 0.470933 -0.195779
v -0.412638 0.466086 -0.208933
v -0.420771 0.478687 -0.159832
v -0.418007 0.477326 -0.169524
v -0.408355 0.479718 -0.177797
v -0.399902 0.482523 -0.182093
v -0.394916 0.480172 -0.195779
v -0.402155 0.476666 -0.195779
v -0.397537 0.473614 -0.209022
v -0.387422 0.476687 -0.212998
v -0.42181 0.494691 -0.0394053
v -0.42197 0.493845 -0.0507663
v -0.446195 0.476687 -0.0942932
v -0.440426 0.481451 -0.0797724
v -0.43894 0.480688 -0.0942932
v -0.421187 0.493433 -0.0614705
v -0.457924 0.467777 -0.108494
v -0.444597 0.475759 -0.108779
v -0.383299 0.480234 -0.209022
v -0.391864 0.478728 -0.203341
v -0.389179 0.49203 -0.166791
v -0.393989 0.494196 -0.149767
v -0.398831 0.487473 -0.166791
v -0.413261 0.480832 -0.165513
v -0.398815 0.490999 -0.153655
v -0.396802 0.495454 -0.137767
v -0.398831 0.499372 -0.108779
v -0.405814 0.492979 -0.12985
v -0.407572 0.493825 -0.120175
v -0.409138 0.494608 -0.108779
v -0.410704 0.495413 -0.0942932
v -0.412222 0.496217 -0.0797724
v -0.414651 0.496361 -0.0659084
v -0.413325 0.498217 -0.0507663
v -0.413325 0.498877 -0.0394053
v -0.441465 0.475264 -0.12369
v -0.43453 0.478295 -0.128785
v -0.425549 0.481265 -0.137767
v -0.422481 0.479574 -0.152288
v -0.413325 0.484194 -0.152288
v -0.437342 0.479842 -0.108779
v -0.42034 0.492979 -0.0711274
v -0.42785 0.488133 -0.0797724
v -0.42785 0.486606 -0.0942932
v -0.42785 0.484998 -0.108779
v -0.436048 0.479141 -0.119145
v -0.404072 0.492134 -0.137767
v -0.413325 0.487555 -0.137767
v -0.412797 0.490525 -0.124347
v -0.416393 0.49102 -0.108779
v -0.417959 0.491783 -0.0942932
v -0.419477 0.492546 -0.0797724
v -0.428953 0.482214 -0.12369
f 1 2 3
f 1 3 4
f 1 4 10
f 1 10 24
f 1 24 45
f 1 45 74
f 1 74 106
f 1 106 148
f 1 148 194
f 1 194 237
f 1 237 213
f 1 213 169
f 1 169 168
f 1 168 122
f 1 122 82
f 1 82 50
f 1 50 26
f 1 26 11
f 1 11 5
f 1 5 2
f 2 6 7
f 2 7 8
f 2 8 9
f 2 9 3
f 2 5 13
f 2 13 6
f 3 9 4
f 4 9 10
f 5 11 12
f 5 12 13
f 6 14 7
f 6 13 15
f 6 15 16
f 6 16 17
f 6 17 18
f 6 18 19
f 6 19 14
f 7 14 8
f 8 14 19
f 8 19 20
f 8 20 21
f 8 21 9
f 9 21 22
f 9 22 23
f 9 23 10
f 10 23 24
f 11 25 12
f 11 26 52
f 11 52 86
f 11 86 75
f 11 75 46
f 11 46 25
f 12 25 13
f 13 27 28
f 13 28 15
f 13 25 49
f 13 49 81
f 13 81 120
f 13 120 127
f 13 127 87
f 13 87 53
f 13 53 27
f 15 28 29
f 15 29 30
f 15 30 31
f 15 31 32
f 15 32 16
f 16 32 17
f 17 32 33
f 17 33 34
f 17 34 18
f 18 34 35
f 18 35 36
f 18 36 37
f 18 37 19
f 19 37 38
f 19 38 20
f 20 38 39
f 20 39 40
f 20 40 41
f 20 41 21
f 21 41 42
f 21 42 43
f 21 43 22
f 22 43 44
f 22 44 23
f 23 44 24
f 24 44 45
f 25 46 47
f 25 47 48
f 25 48 49
f 26 50 51
f 26 51 52
f 27 53 54
f 27 54 28
f 28 54 55
f 28 55 29
f 29 55 30
f 30 55 56
f 30 56 57
f 30 57 31
f 31 58 32
f 31 57 59
f 31 59 60
f 31 60 61
f 31 61 62
f 31 62 58
f 32 58 33
f 33 58 63
f 33 63 34
f 34 63 35
f 35 64 36
f 35 63 65
f 35 65 66
f 35 66 64
f 36 64 37
f 37 64 38
f 38 64 39
f 39 66 67
f 39 67 68
f 39 68 40
f 39 64 66
f 40 68 69
f 40 69 41
f 41 69 70
f 41 70 71
f 41 71 42
f 42 71 43
f 43 71 72
f 43 72 73
f 43 73 44
f 44 73 45
f 45 73 74
f 46 75 76
f 46 76 77
f 46 77 78
f 46 78 47
f 47 78 48
f 48 78 79
f 48 79 80
f 48 80 81
f 48 81 49
f 50 82 83
f 50 83 51
f 51 83 84
f 51 84 85
f 51 85 52
f 52 85 86
f 53 87 88
f 53 88 54
f 54 88 89
f 54 89 90
f 54 90 91
f 54 91 55
f 55 91 56
f 56 91 92
f 56 92 57
f 57 92 59
f 58 62 65
f 58 65 63
f 59 92 93
f 59 93 60
f 60 94 61
f 60 93 95
f 60 95 96
f 60 96 94
f 61 94 62
f 62 94 97
f 62 97 98
f 62 98 65
f 65 98 67
f 65 67 66
f 67 98 99
f 67 99 100
f 67 100 101
f 67 101 68
f 68 101 102
f 68 102 69
f 69 102 70
f 70 102 103
f 70 103 104
f 70 104 105
f 70 105 71
f 71 105 72
f 72 105 73
f 73 105 74
f 74 105 104
f 74 104 106
f 75 107 108
f 75 108 109
f 75 109 110
f 75 110 111
f 75 111 112
f 75 112 76
f 75 86 107
f 76 112 113
f 76 113 114
f 76 114 79
f 76 79 77
f 77 79 78
f 79 115 80
f 79 114 116
f 79 116 117
f 79 117 118
f 79 118 119
f 79 119 115
f 80 120 81
f 80 115 121
f 80 121 120
f 82 122 123
f 82 123 83
f 83 123 84
f 84 123 124
f 84 124 125
f 84 125 126
f 84 126 85
f 85 126 107
f 85 107 86
f 87 127 128
f 87 128 88
f 88 128 89
f 89 128 129
f 89 129 90
f 90 95 93
f 90 93 92
f 90 92 91
f 90 129 130
f 90 130 95
f 94 96 131
f 94 131 97
f 95 130 132
f 95 132 133
f 95 133 134
f 95 134 96
f 96 134 135
f 96 135 131
f 97 131 136
f 97 136 98
f 98 136 99
f 99 136 137
f 99 137 138
f 99 138 139
f 99 139 100
f 100 139 140
f 100 140 141
f 100 141 101
f 101 141 142
f 101 142 102
f 102 142 143
f 102 143 103
f 103 143 144
f 103 144 145
f 103 145 104
f 104 145 146
f 104 146 106
f 106 146 147
f 106 147 148
f 107 149 108
f 107 126 149
f 108 149 150
f 108 150 151
f 108 151 152
f 108 152 110
f 108 110 109
f 110 153 113
f 110 113 111
f 110 152 154
f 110 154 155
f 110 155 156
f 110 156 153
f 111 113 112
f 113 153 157
f 113 157 114
f 114 157 116
f 115 119 158
f 115 158 159
f 115 159 160
f 115 160 121
f 116 157 117
f 117 156 161
f 117 161 162
f 117 162 163
f 117 163 118
f 117 157 153
f 117 153 156
f 118 163 164
f 118 164 119
f 119 165 158
f 119 164 165
f 120 121 166
f 120 166 127
f 121 160 166
f 122 167 123
f 122 168 167
f 123 167 168
f 123 168 169
f 123 169 124
f 124 170 125
f 124 169 171
f 124 171 172
f 124 172 170
f 125 170 173
f 125 173 174
f 125 174 126
f 126 174 149
f 127 166 175
f 127 175 176
f 127 176 177
f 127 177 128
f 128 177 129
f 129 177 176
f 129 176 178
f 129 178 130
f 130 178 132
f 131 135 137
f 131 137 136
f 132 178 179
f 132 179 133
f 133 179 180
f 133 180 164
f 133 164 181
f 133 181 182
f 133 182 135
f 133 135 134
f 135 182 183
f 135 183 184
f 135 184 137
f 137 184 185
f 137 185 186
f 137 186 138
f 138 186 139
f 139 186 140
f 140 187 141
f 140 186 188
f 140 188 187
f 141 187 142
f 142 187 143
f 143 187 189
f 143 189 144
f 144 189 190
f 144 190 191
f 144 191 192
f 144 192 145
f 145 192 193
f 145 193 147
f 145 147 146
f 147 193 194
f 147 194 148
f 149 195 150
f 149 174 196
f 149 196 195
f 150 195 197
f 150 197 151
f 151 197 198
f 151 198 152
f 152 198 199
f 152 199 154
f 154 199 155
f 155 200 201
f 155 201 202
f 155 202 156
f 155 199 200
f 156 202 161
f 158 160 159
f 158 165 203
f 158 203 204
f 158 204 160
f 160 204 166
f 161 202 205
f 161 205 206
f 161 206 162
f 162 206 164
f 162 164 163
f 164 207 208
f 164 208 181
f 164 180 209
f 164 209 210
f 164 210 204
f 164 204 203
f 164 203 165
f 164 206 207
f 166 204 211
f 166 211 212
f 166 212 175
f 169 213 214
f 169 214 171
f 170 215 173
f 170 172 216
f 170 216 217
f 170 217 215
f 171 214 218
f 171 218 172
f 172 218 216
f 173 219 196
f 173 196 174
f 173 215 220
f 173 220 219
f 175 212 221
f 175 221 176
f 176 179 178
f 176 221 179
f 179 221 180
f 180 221 222
f 180 222 209
f 181 223 182
f 181 208 223
f 182 184 183
f 182 223 184
f 184 224 185
f 184 223 208
f 184 208 225
f 184 225 226
f 184 226 205
f 184 205 227
f 184 227 224
f 185 224 186
f 186 224 228
f 186 228 188
f 187 188 229
f 187 229 189
f 188 228 230
f 188 230 231
f 188 231 229
f 189 229 190
f 190 229 232
f 190 232 191
f 191 232 233
f 191 233 234
f 191 234 192
f 192 234 235
f 192 235 236
f 192 236 193
f 193 236 194
f 194 236 237
f 195 196 197
f 196 219 197
f 197 219 198
f 198 219 220
f 198 220 238
f 198 238 199
f 199 238 200
f 200 238 239
f 200 239 201
f 201 239 240
f 201 240 202
f 202 240 241
f 202 241 205
f 204 210 211
f 205 241 242
f 205 242 227
f 205 226 206
f 206 226 207
f 207 226 225
f 207 225 208
f 209 222 210
f 210 222 211
f 211 222 212
f 212 222 221
f 213 237 236
f 213 236 214
f 214 236 218
f 215 217 243
f 215 243 220
f 216 218 244
f 216 244 245
f 216 245 246
f 216 246 217
f 217 246 247
f 217 247 243
f 218 236 235
f 218 235 244
f 220 243 248
f 220 248 238
f 224 227 249
f 224 249 228
f 227 242 249
f 228 249 230
f 229 231 232
f 230 249 250
f 230 250 251
f 230 251 231
f 231 251 252
f 231 252 232
f 232 252 233
f 233 252 234
f 234 252 253
f 234 253 254
f 234 254 244
f 234 244 235
f 238 248 239
f 239 248 255
f 239 255 240
f 240 255 251
f 240 251 250
f 240 250 241
f 241 250 242
f 242 250 249
f 243 247 248
f 244 254 245
f 245 254 246
f 246 254 253
f 246 253 252
f 246 252 247
f 247 255 248
f 247 252 255
f 251 255 252
