# Procedurally generated by generate_builtin_objects.py
# Units are normalized object units; teleop default scale is 0.08 m/unit.
o can
v 0.340000000 0.000000000 -0.500000000
v 0.337091253 0.044378905 -0.500000000
v 0.328414781 0.087998475 -0.500000000
v 0.314119041 0.130112367 -0.500000000
v 0.294448637 0.170000000 -0.500000000
v 0.269740136 0.206978886 -0.500000000
v 0.240416306 0.240416306 -0.500000000
v 0.206978886 0.269740136 -0.500000000
v 0.170000000 0.294448637 -0.500000000
v 0.130112367 0.314119041 -0.500000000
v 0.087998475 0.328414781 -0.500000000
v 0.044378905 0.337091253 -0.500000000
v 0.000000000 0.340000000 -0.500000000
v -0.044378905 0.337091253 -0.500000000
v -0.087998475 0.328414781 -0.500000000
v -0.130112367 0.314119041 -0.500000000
v -0.170000000 0.294448637 -0.500000000
v -0.206978886 0.269740136 -0.500000000
v -0.240416306 0.240416306 -0.500000000
v -0.269740136 0.206978886 -0.500000000
v -0.294448637 0.170000000 -0.500000000
v -0.314119041 0.130112367 -0.500000000
v -0.328414781 0.087998475 -0.500000000
v -0.337091253 0.044378905 -0.500000000
v -0.340000000 0.000000000 -0.500000000
v -0.337091253 -0.044378905 -0.500000000
v -0.328414781 -0.087998475 -0.500000000
v -0.314119041 -0.130112367 -0.500000000
v -0.294448637 -0.170000000 -0.500000000
v -0.269740136 -0.206978886 -0.500000000
v -0.240416306 -0.240416306 -0.500000000
v -0.206978886 -0.269740136 -0.500000000
v -0.170000000 -0.294448637 -0.500000000
v -0.130112367 -0.314119041 -0.500000000
v -0.087998475 -0.328414781 -0.500000000
v -0.044378905 -0.337091253 -0.500000000
v -0.000000000 -0.340000000 -0.500000000
v 0.044378905 -0.337091253 -0.500000000
v 0.087998475 -0.328414781 -0.500000000
v 0.130112367 -0.314119041 -0.500000000
v 0.170000000 -0.294448637 -0.500000000
v 0.206978886 -0.269740136 -0.500000000
v 0.240416306 -0.240416306 -0.500000000
v 0.269740136 -0.206978886 -0.500000000
v 0.294448637 -0.170000000 -0.500000000
v 0.314119041 -0.130112367 -0.500000000
v 0.328414781 -0.087998475 -0.500000000
v 0.337091253 -0.044378905 -0.500000000
v 0.380000000 0.000000000 -0.460000000
v 0.376749047 0.049599953 -0.460000000
v 0.367051814 0.098351237 -0.460000000
v 0.351074222 0.145419704 -0.460000000
v 0.329089653 0.190000000 -0.460000000
v 0.301474269 0.231329343 -0.460000000
v 0.268700577 0.268700577 -0.460000000
v 0.231329343 0.301474269 -0.460000000
v 0.190000000 0.329089653 -0.460000000
v 0.145419704 0.351074222 -0.460000000
v 0.098351237 0.367051814 -0.460000000
v 0.049599953 0.376749047 -0.460000000
v 0.000000000 0.380000000 -0.460000000
v -0.049599953 0.376749047 -0.460000000
v -0.098351237 0.367051814 -0.460000000
v -0.145419704 0.351074222 -0.460000000
v -0.190000000 0.329089653 -0.460000000
v -0.231329343 0.301474269 -0.460000000
v -0.268700577 0.268700577 -0.460000000
v -0.301474269 0.231329343 -0.460000000
v -0.329089653 0.190000000 -0.460000000
v -0.351074222 0.145419704 -0.460000000
v -0.367051814 0.098351237 -0.460000000
v -0.376749047 0.049599953 -0.460000000
v -0.380000000 0.000000000 -0.460000000
v -0.376749047 -0.049599953 -0.460000000
v -0.367051814 -0.098351237 -0.460000000
v -0.351074222 -0.145419704 -0.460000000
v -0.329089653 -0.190000000 -0.460000000
v -0.301474269 -0.231329343 -0.460000000
v -0.268700577 -0.268700577 -0.460000000
v -0.231329343 -0.301474269 -0.460000000
v -0.190000000 -0.329089653 -0.460000000
v -0.145419704 -0.351074222 -0.460000000
v -0.098351237 -0.367051814 -0.460000000
v -0.049599953 -0.376749047 -0.460000000
v -0.000000000 -0.380000000 -0.460000000
v 0.049599953 -0.376749047 -0.460000000
v 0.098351237 -0.367051814 -0.460000000
v 0.145419704 -0.351074222 -0.460000000
v 0.190000000 -0.329089653 -0.460000000
v 0.231329343 -0.301474269 -0.460000000
v 0.268700577 -0.268700577 -0.460000000
v 0.301474269 -0.231329343 -0.460000000
v 0.329089653 -0.190000000 -0.460000000
v 0.351074222 -0.145419704 -0.460000000
v 0.367051814 -0.098351237 -0.460000000
v 0.376749047 -0.049599953 -0.460000000
v 0.380000000 0.000000000 0.460000000
v 0.376749047 0.049599953 0.460000000
v 0.367051814 0.098351237 0.460000000
v 0.351074222 0.145419704 0.460000000
v 0.329089653 0.190000000 0.460000000
v 0.301474269 0.231329343 0.460000000
v 0.268700577 0.268700577 0.460000000
v 0.231329343 0.301474269 0.460000000
v 0.190000000 0.329089653 0.460000000
v 0.145419704 0.351074222 0.460000000
v 0.098351237 0.367051814 0.460000000
v 0.049599953 0.376749047 0.460000000
v 0.000000000 0.380000000 0.460000000
v -0.049599953 0.376749047 0.460000000
v -0.098351237 0.367051814 0.460000000
v -0.145419704 0.351074222 0.460000000
v -0.190000000 0.329089653 0.460000000
v -0.231329343 0.301474269 0.460000000
v -0.268700577 0.268700577 0.460000000
v -0.301474269 0.231329343 0.460000000
v -0.329089653 0.190000000 0.460000000
v -0.351074222 0.145419704 0.460000000
v -0.367051814 0.098351237 0.460000000
v -0.376749047 0.049599953 0.460000000
v -0.380000000 0.000000000 0.460000000
v -0.376749047 -0.049599953 0.460000000
v -0.367051814 -0.098351237 0.460000000
v -0.351074222 -0.145419704 0.460000000
v -0.329089653 -0.190000000 0.460000000
v -0.301474269 -0.231329343 0.460000000
v -0.268700577 -0.268700577 0.460000000
v -0.231329343 -0.301474269 0.460000000
v -0.190000000 -0.329089653 0.460000000
v -0.145419704 -0.351074222 0.460000000
v -0.098351237 -0.367051814 0.460000000
v -0.049599953 -0.376749047 0.460000000
v -0.000000000 -0.380000000 0.460000000
v 0.049599953 -0.376749047 0.460000000
v 0.098351237 -0.367051814 0.460000000
v 0.145419704 -0.351074222 0.460000000
v 0.190000000 -0.329089653 0.460000000
v 0.231329343 -0.301474269 0.460000000
v 0.268700577 -0.268700577 0.460000000
v 0.301474269 -0.231329343 0.460000000
v 0.329089653 -0.190000000 0.460000000
v 0.351074222 -0.145419704 0.460000000
v 0.367051814 -0.098351237 0.460000000
v 0.376749047 -0.049599953 0.460000000
v 0.340000000 0.000000000 0.500000000
v 0.337091253 0.044378905 0.500000000
v 0.328414781 0.087998475 0.500000000
v 0.314119041 0.130112367 0.500000000
v 0.294448637 0.170000000 0.500000000
v 0.269740136 0.206978886 0.500000000
v 0.240416306 0.240416306 0.500000000
v 0.206978886 0.269740136 0.500000000
v 0.170000000 0.294448637 0.500000000
v 0.130112367 0.314119041 0.500000000
v 0.087998475 0.328414781 0.500000000
v 0.044378905 0.337091253 0.500000000
v 0.000000000 0.340000000 0.500000000
v -0.044378905 0.337091253 0.500000000
v -0.087998475 0.328414781 0.500000000
v -0.130112367 0.314119041 0.500000000
v -0.170000000 0.294448637 0.500000000
v -0.206978886 0.269740136 0.500000000
v -0.240416306 0.240416306 0.500000000
v -0.269740136 0.206978886 0.500000000
v -0.294448637 0.170000000 0.500000000
v -0.314119041 0.130112367 0.500000000
v -0.328414781 0.087998475 0.500000000
v -0.337091253 0.044378905 0.500000000
v -0.340000000 0.000000000 0.500000000
v -0.337091253 -0.044378905 0.500000000
v -0.328414781 -0.087998475 0.500000000
v -0.314119041 -0.130112367 0.500000000
v -0.294448637 -0.170000000 0.500000000
v -0.269740136 -0.206978886 0.500000000
v -0.240416306 -0.240416306 0.500000000
v -0.206978886 -0.269740136 0.500000000
v -0.170000000 -0.294448637 0.500000000
v -0.130112367 -0.314119041 0.500000000
v -0.087998475 -0.328414781 0.500000000
v -0.044378905 -0.337091253 0.500000000
v -0.000000000 -0.340000000 0.500000000
v 0.044378905 -0.337091253 0.500000000
v 0.087998475 -0.328414781 0.500000000
v 0.130112367 -0.314119041 0.500000000
v 0.170000000 -0.294448637 0.500000000
v 0.206978886 -0.269740136 0.500000000
v 0.240416306 -0.240416306 0.500000000
v 0.269740136 -0.206978886 0.500000000
v 0.294448637 -0.170000000 0.500000000
v 0.314119041 -0.130112367 0.500000000
v 0.328414781 -0.087998475 0.500000000
v 0.337091253 -0.044378905 0.500000000
v 0.000000000 0.000000000 -0.500000000
v 0.000000000 0.000000000 0.500000000
s off
f 1 2 50
f 1 50 49
f 2 3 51
f 2 51 50
f 3 4 52
f 3 52 51
f 4 5 53
f 4 53 52
f 5 6 54
f 5 54 53
f 6 7 55
f 6 55 54
f 7 8 56
f 7 56 55
f 8 9 57
f 8 57 56
f 9 10 58
f 9 58 57
f 10 11 59
f 10 59 58
f 11 12 60
f 11 60 59
f 12 13 61
f 12 61 60
f 13 14 62
f 13 62 61
f 14 15 63
f 14 63 62
f 15 16 64
f 15 64 63
f 16 17 65
f 16 65 64
f 17 18 66
f 17 66 65
f 18 19 67
f 18 67 66
f 19 20 68
f 19 68 67
f 20 21 69
f 20 69 68
f 21 22 70
f 21 70 69
f 22 23 71
f 22 71 70
f 23 24 72
f 23 72 71
f 24 25 73
f 24 73 72
f 25 26 74
f 25 74 73
f 26 27 75
f 26 75 74
f 27 28 76
f 27 76 75
f 28 29 77
f 28 77 76
f 29 30 78
f 29 78 77
f 30 31 79
f 30 79 78
f 31 32 80
f 31 80 79
f 32 33 81
f 32 81 80
f 33 34 82
f 33 82 81
f 34 35 83
f 34 83 82
f 35 36 84
f 35 84 83
f 36 37 85
f 36 85 84
f 37 38 86
f 37 86 85
f 38 39 87
f 38 87 86
f 39 40 88
f 39 88 87
f 40 41 89
f 40 89 88
f 41 42 90
f 41 90 89
f 42 43 91
f 42 91 90
f 43 44 92
f 43 92 91
f 44 45 93
f 44 93 92
f 45 46 94
f 45 94 93
f 46 47 95
f 46 95 94
f 47 48 96
f 47 96 95
f 48 1 49
f 48 49 96
f 49 50 98
f 49 98 97
f 50 51 99
f 50 99 98
f 51 52 100
f 51 100 99
f 52 53 101
f 52 101 100
f 53 54 102
f 53 102 101
f 54 55 103
f 54 103 102
f 55 56 104
f 55 104 103
f 56 57 105
f 56 105 104
f 57 58 106
f 57 106 105
f 58 59 107
f 58 107 106
f 59 60 108
f 59 108 107
f 60 61 109
f 60 109 108
f 61 62 110
f 61 110 109
f 62 63 111
f 62 111 110
f 63 64 112
f 63 112 111
f 64 65 113
f 64 113 112
f 65 66 114
f 65 114 113
f 66 67 115
f 66 115 114
f 67 68 116
f 67 116 115
f 68 69 117
f 68 117 116
f 69 70 118
f 69 118 117
f 70 71 119
f 70 119 118
f 71 72 120
f 71 120 119
f 72 73 121
f 72 121 120
f 73 74 122
f 73 122 121
f 74 75 123
f 74 123 122
f 75 76 124
f 75 124 123
f 76 77 125
f 76 125 124
f 77 78 126
f 77 126 125
f 78 79 127
f 78 127 126
f 79 80 128
f 79 128 127
f 80 81 129
f 80 129 128
f 81 82 130
f 81 130 129
f 82 83 131
f 82 131 130
f 83 84 132
f 83 132 131
f 84 85 133
f 84 133 132
f 85 86 134
f 85 134 133
f 86 87 135
f 86 135 134
f 87 88 136
f 87 136 135
f 88 89 137
f 88 137 136
f 89 90 138
f 89 138 137
f 90 91 139
f 90 139 138
f 91 92 140
f 91 140 139
f 92 93 141
f 92 141 140
f 93 94 142
f 93 142 141
f 94 95 143
f 94 143 142
f 95 96 144
f 95 144 143
f 96 49 97
f 96 97 144
f 97 98 146
f 97 146 145
f 98 99 147
f 98 147 146
f 99 100 148
f 99 148 147
f 100 101 149
f 100 149 148
f 101 102 150
f 101 150 149
f 102 103 151
f 102 151 150
f 103 104 152
f 103 152 151
f 104 105 153
f 104 153 152
f 105 106 154
f 105 154 153
f 106 107 155
f 106 155 154
f 107 108 156
f 107 156 155
f 108 109 157
f 108 157 156
f 109 110 158
f 109 158 157
f 110 111 159
f 110 159 158
f 111 112 160
f 111 160 159
f 112 113 161
f 112 161 160
f 113 114 162
f 113 162 161
f 114 115 163
f 114 163 162
f 115 116 164
f 115 164 163
f 116 117 165
f 116 165 164
f 117 118 166
f 117 166 165
f 118 119 167
f 118 167 166
f 119 120 168
f 119 168 167
f 120 121 169
f 120 169 168
f 121 122 170
f 121 170 169
f 122 123 171
f 122 171 170
f 123 124 172
f 123 172 171
f 124 125 173
f 124 173 172
f 125 126 174
f 125 174 173
f 126 127 175
f 126 175 174
f 127 128 176
f 127 176 175
f 128 129 177
f 128 177 176
f 129 130 178
f 129 178 177
f 130 131 179
f 130 179 178
f 131 132 180
f 131 180 179
f 132 133 181
f 132 181 180
f 133 134 182
f 133 182 181
f 134 135 183
f 134 183 182
f 135 136 184
f 135 184 183
f 136 137 185
f 136 185 184
f 137 138 186
f 137 186 185
f 138 139 187
f 138 187 186
f 139 140 188
f 139 188 187
f 140 141 189
f 140 189 188
f 141 142 190
f 141 190 189
f 142 143 191
f 142 191 190
f 143 144 192
f 143 192 191
f 144 97 145
f 144 145 192
f 193 2 1
f 193 3 2
f 193 4 3
f 193 5 4
f 193 6 5
f 193 7 6
f 193 8 7
f 193 9 8
f 193 10 9
f 193 11 10
f 193 12 11
f 193 13 12
f 193 14 13
f 193 15 14
f 193 16 15
f 193 17 16
f 193 18 17
f 193 19 18
f 193 20 19
f 193 21 20
f 193 22 21
f 193 23 22
f 193 24 23
f 193 25 24
f 193 26 25
f 193 27 26
f 193 28 27
f 193 29 28
f 193 30 29
f 193 31 30
f 193 32 31
f 193 33 32
f 193 34 33
f 193 35 34
f 193 36 35
f 193 37 36
f 193 38 37
f 193 39 38
f 193 40 39
f 193 41 40
f 193 42 41
f 193 43 42
f 193 44 43
f 193 45 44
f 193 46 45
f 193 47 46
f 193 48 47
f 193 1 48
f 194 145 146
f 194 146 147
f 194 147 148
f 194 148 149
f 194 149 150
f 194 150 151
f 194 151 152
f 194 152 153
f 194 153 154
f 194 154 155
f 194 155 156
f 194 156 157
f 194 157 158
f 194 158 159
f 194 159 160
f 194 160 161
f 194 161 162
f 194 162 163
f 194 163 164
f 194 164 165
f 194 165 166
f 194 166 167
f 194 167 168
f 194 168 169
f 194 169 170
f 194 170 171
f 194 171 172
f 194 172 173
f 194 173 174
f 194 174 175
f 194 175 176
f 194 176 177
f 194 177 178
f 194 178 179
f 194 179 180
f 194 180 181
f 194 181 182
f 194 182 183
f 194 183 184
f 194 184 185
f 194 185 186
f 194 186 187
f 194 187 188
f 194 188 189
f 194 189 190
f 194 190 191
f 194 191 192
f 194 192 145
