# Procedurally generated by generate_builtin_objects.py
# Units are normalized object units; teleop default scale is 0.08 m/unit.
o box
v -0.425000000 -0.325000000 -0.500000000
v 0.425000000 -0.325000000 -0.500000000
v 0.425000000 0.325000000 -0.500000000
v -0.425000000 0.325000000 -0.500000000
v -0.425000000 -0.325000000 0.500000000
v 0.425000000 -0.325000000 0.500000000
v 0.425000000 0.325000000 0.500000000
v -0.425000000 0.325000000 0.500000000
s off
f 1 4 3
f 1 3 2
f 5 6 7
f 5 7 8
f 1 2 6
f 1 6 5
f 2 3 7
f 2 7 6
f 3 4 8
f 3 8 7
f 4 1 5
f 4 5 8
